<?xml version="1.0" encoding="utf-8"?>
<svg xmlns="http://www.w3.org/2000/svg" version="1.1" viewBox="0 0 300 303">
	<title>A duck.</title>
	<path d="m68.547 0.023347c-1.2779 0.18632-1.8165 1.5568-1.8165 4.0402 0 3.9612-0.41024 3.9598-4.3946-0.024398-2.417-2.417-5.5463-3.6832-6.9521-2.8144-7.9139 4.8911 2.6232 23.576 27.108 48.075l20.4 20.412-4.2724 8.7809c-7.1503 14.697-10.411 17.246-27.146 21.208-17.94 4.2462-32.486 16.167-48.527 39.77-4.9605 7.2989-12.152 14.46-15.981 15.916-3.8296 1.456-6.9643 4.691-6.9643 7.1883 0 3.53 1.6486 4.1296 7.4083 2.684 10.072-2.528 20.84-11.831 28.942-25.012 3.7112-6.0365 10.96-15.734 16.108-21.55 8.1463-9.2015 10.849-10.532 20.852-10.251 6.3211 0.17746 9.3025 0.89719 6.6263 1.5965-6.0423 1.579-6.2623 7.4099-0.49687 13.175 5.7501 5.7501 6.7895 5.5973 17.998-2.6718 6.0543-4.4668 9.9371-5.8663 10.618-3.8244 0.59025 1.7708 3.107 5.4775 5.5919 8.2351s6.1833 7.0341 8.2189 9.5059c3.3958 4.1234 4.42 4.0758 12.41-0.59055 9.3977-5.4886 12.394-12.511 12.768-29.918 0.35482-16.498-2.3328-23.492-9.7461-25.354-3.6402-0.91363-6.6223-3.2504-6.6223-5.1927 0-1.9424-3.7034-5.0685-8.2311-6.9441-9.9081-4.1042-44.72-37.018-51.503-48.697l-4.8466-8.3409 6.5937 6.9481c3.6254 3.823 11.37 10.864 17.211 15.643l10.622 8.6913 10.198-4.9605c10.681-5.1951 14.397-4.8461 14.397 1.3481 0 5.5021 8.2687 7.7309 10.182 2.745 0.89561-2.334 0.88049-4.9923-0.0326-5.9055-2.0326-2.0326 13.443-10.457 23.912-13.016 8.7147-2.1312 10.713-11.842 2.7776-13.489-5.7913-1.202-20.114 3.4268-25.064 8.0967-2.0708 1.9539-11.934 3.3194-23.956 3.3194-19.413 0-20.956-0.4768-30.888-9.5751-5.7487-5.2655-9.5777-8.2241-11.97-9.0375-0.59801-0.20332-1.1054-0.2739-1.5314-0.21178zm115.13 0.21992c-0.3403-0.012512-0.68028 0.038578-1.0263 0.15076-1.3843 0.44876-2.8786 1.9139-5.0258 4.5656-7.4739 9.2299-6.7391 10.974 7.1477 16.926 11.966 5.1293 12.354 5.6751 11.281 15.888-0.61078 5.8169-1.1826 14.211-1.2707 18.653-0.11096 5.5945-3.382 11.147-10.646 18.071-15.02 14.316-20.548 27.562-19.541 46.824 0.66167 12.659 1.8478 16.136 5.7629 16.882 5.6274 1.071 29.826-9.8787 29.826-13.497 0-5.2332 13.545-16.578 19.781-16.568 3.6476 6e-3 10.442 2.333 15.098 5.1724 10.862 6.6239 46.978 41.784 44.976 43.786-2.5396 2.5396-24.146-11.093-25.83-16.299-1.7024-5.261-12.32-6.8299-12.32-1.8205 0 6.1005 11.644 19.195 17.069 19.195 3.0636 0 7.4483 1.8767 9.7421 4.1706 2.2938 2.2938 7.8335 4.1706 12.312 4.1706 4.4784 0 8.1415 1.2525 8.1415 2.7818 0 1.5292 2.505 2.7818 5.5633 2.7818 8.1087 0 6.9275-7.0933-3.8896-23.39-8.9887-13.542-30.318-33.982-50.861-48.739l-9.4487-6.7893-14.47 4.9403c-9.9025 3.38-16.666 7.9191-21.422 14.377-6.6641 9.0477-15.486 14.457-18.56 11.383-4.3066-4.3066 3.3114-25.764 12.882-36.288 11.666-12.829 16.796-25.314 16.796-40.862 0-5.7983 1.303-11.348 2.8958-12.332 1.5927-0.98435 2.3876-6.8939 1.7635-13.135-1.1912-11.913-8.3869-20.064-15.354-17.391-2.1492 0.82471-5.7725-0.046294-8.0477-1.9346-1.2709-1.0547-2.3026-1.6382-3.3234-1.6739zm-16.169 40.446c-4.5316 0.15244-8.8127 3.4508-12.116 9.6239-2.7088 5.0615-2.2768 6.7631 2.745 10.829 5.3976 4.3708 6.7403 4.437 14.271 0.68015 9.8301-4.9037 10.811-12.799 2.3256-18.743-1.7506-1.2261-3.5222-1.9778-5.2702-2.2644-0.65547-0.1076-1.3076-0.14806-1.9549-0.12636zm-34.22 55.109c0.27452-0.0146 0.48922 0.0188 0.63128 0.10594 3.8256 2.3644 2.6124 20.668-1.6536 24.934-2.1846 2.1844-4.3754 3.9338-4.867 3.8854-1.7102-0.16808-16.185-13.558-16.185-14.971 0-2.6166 17.957-13.731 22.074-13.953zm-73.623 43.786c-0.33852 9.3e-4 -0.76319 0.0734-1.2585 0.21177-6.9341 1.9388-27.986 16.5-27.002 19.452 1.2722 3.8166 18.162 8.0079 26.136 6.4837 3.5242-0.67367 6.4065-0.14826 6.4065 1.1689 0 1.3171 3.6808 2.3948 8.1781 2.3948s8.9825 1.3003 9.9661 2.8916c2.4714 3.9988 12.834 0.559 18.682-6.2027 5.4672-6.3215 3.7942-11.833-2.8224-9.2941-2.3992 0.92063-5.2839 0.18141-6.4105-1.6413-1.5348-2.4834-4.6126-2.101-12.267 1.5314-10.959 5.2005-15.358 4.6102-8.4387-1.1322 10.897-9.0439 0.53499-11.453-10.825-2.517-9.7029 7.6323-12.812 4.4634-4.4026-4.4882 3.5802-3.811 5.7429-7.6971 4.806-8.6343-0.15444-0.15452-0.4068-0.22493-0.74531-0.22399zm62.667 1.906c-1.5292 0-2.7776 1.2525-2.7776 2.7818 0 1.5292 1.2484 2.7818 2.7776 2.7818 1.5292 0 2.7818-1.2525 2.7818-2.7818 0-1.5292-1.2525-2.7818-2.7818-2.7818zm110.44 2.7818c-4.3138 0-3.1766 10.457 1.7391 15.986 5.346 6.0129 12.928 8.1155 16.478 4.5656 1.6622-1.6622-15.081-20.552-18.217-20.552zm-119.31 3.4822c-3.5954 0.27774-7.1341 3.3842-5.9461 6.4797 0.83163 2.1672 3.1204 3.9384 5.087 3.9384 4.3186 0 7.6869-7.5557 4.3008-9.6483-1.0378-0.64143-2.243-0.86233-3.4416-0.76975zm101.32 2.1708c-3.606-0.0959-4.879 11.477-1.621 14.735 3.06 3.06 17.607 2.0874 17.607-1.177 0-3.8122-11.345-13.435-15.986-13.558zm-86.317 3.0628c-6.4985 0.71734-25.59 39.792-25.59 53.829 0 15.829 8.8779 32.892 20.76 39.902 7.7001 4.5432 9.8235 7.5647 9.8235 13.961 0 6.6559-1.6168 8.7275-8.7565 11.216-4.8158 1.6788-12.239 3.0506-16.499 3.0506-4.2598 0-11.037 1.2518-15.061 2.7818-5.8135 2.2104-7.1379 4.336-6.4391 10.337 0.81577 7.0037 1.7879 7.5345 13.391 7.3391 32.106-0.54067 33.416-0.80165 36.334-7.2495 1.557-3.4408 4.6864-9.3851 6.9563-13.208 2.27-3.823 3.732-10.077 3.246-13.9l-0.88379-6.9521 23.744 0.34619 23.744 0.3421v18.775l-18.071 1.3888c-9.9397 0.76459-19.637 2.404-21.55 3.6412-6.3755 4.1262-4.0042 15.239 4.1706 19.545 9.5109 5.0097 11.819 5.3679 11.819 1.8368 0-1.5292 2.5636-2.7776 5.6977-2.7776 7.1477 0 22.104-7.5767 22.104-11.196 0-1.4899 1.7259-2.7084 3.8326-2.7084 2.1066 0 5.4103-1.9028 7.3431-4.2316 2.8632-3.4498 2.6092-6.2411-1.3644-15.053-4.9924-11.071-4.0804-16.857 2.6554-16.857 3.8944 0 26.374-21.926 26.428-25.776 0.016-1.1773 3.0474-6.9145 6.7323-12.752 7.9189-12.544 5.7945-20.94-3.7958-14.996-12.703 7.8729-18.83 4.6952-28.134-14.597-6.1833-12.821-10.247-18.071-13.986-18.071-5.4491 0-7.0149 5.2404-2.9488 9.8683 1.2764 1.4527 4.517 8.6085 7.2007 15.9 6.7611 18.37 11.363 22.372 23.174 20.156 10.814-2.0286 10.797-1.7277-0.72088 14.434-13.136 18.431-24.06 22.08-57.609 19.248-24.182-2.0412-32.362-4.48-34.174-10.194-0.95381-3.0052-3.6002-5.4658-5.8811-5.4658-2.281 0-3.3724 1.2525-2.4274 2.7818 0.94509 1.5292 0.5168 2.7816-0.95303 2.7816-8.0237 0-11.4-33.438-4.6796-46.348 8.5487-16.422 13.246-28.988 11.493-30.742-0.31191-0.31192-0.69085-0.43473-1.1241-0.38692zm129.98 13.526c-5.2943 0-2.4878 8.5859 3.6044 11.025 7.1849 2.8766 11.065 2.3518 12.41-1.682 0.90043-2.7014-10.482-9.3429-16.014-9.3429zm-243.54 0.41542c-3.7796 0.2077-7.7809 1.7537-8.6669 4.4516-0.74723 2.2756 1.8196 3.474 7.4327 3.474 5.9281 0 8.5691-1.3421 8.5691-4.3538 0-2.6492-3.5556-3.7796-7.3351-3.5718z" stroke-width="2.0852"/>
</svg>
