<?xml version="1.0" encoding="utf-8"?>
<svg xmlns="http://www.w3.org/2000/svg" version="1.1" viewBox="0 0 100 101">
	<title>A duck.</title>
	<path d="m22.849 0.0079792c-0.42597 0.062107-0.60551 0.51894-0.60551 1.3467 0 1.3204-0.13675 1.3199-1.4649-0.00813-0.80568-0.80568-1.8488-1.2277-2.3174-0.93814-2.638 1.6304 0.87441 7.8588 9.0361 16.025l6.8001 6.8041-1.4242 2.927c-2.3835 4.8991-3.4704 5.7487-9.0488 7.0694-5.9801 1.4154-10.829 5.3891-16.176 13.257-1.6535 2.433-4.0507 4.8201-5.3271 5.3054-1.2765 0.48534-2.3215 1.5637-2.3215 2.3961 0 1.1767 0.54954 1.3766 2.4695 0.89468 3.3574-0.84268 6.9467-3.9437 9.6474-8.3374 1.2371-2.0122 3.6534-5.2447 5.3694-7.1834 2.7155-3.0672 3.6164-3.5107 6.9507-3.417 2.1071 0.05915 3.1009 0.29907 2.2088 0.53217-2.0141 0.52634-2.0875 2.47-0.16563 4.3917 1.9167 1.9167 2.2632 1.8658 5.9994-0.89061 2.0181-1.489 3.3124-1.9555 3.5394-1.2748 0.19675 0.59027 1.0357 1.8259 1.864 2.7451 0.82831 0.91921 2.0611 2.3447 2.7397 3.1687 1.1319 1.3745 1.4734 1.3586 4.1367-0.19685 3.1326-1.8296 4.1314-4.1704 4.256-9.9728 0.11828-5.4994-0.77761-7.8308-3.2487-8.4514-1.2134-0.30455-2.2075-1.0835-2.2075-1.7309 0-0.64747-1.2345-1.6895-2.7437-2.3147-3.3027-1.3681-14.907-12.339-17.168-16.233l-1.6156-2.7803 2.1979 2.3161c1.2085 1.2743 3.79 3.6214 5.7371 5.2144l3.5407 2.8971 3.3994-1.6535c3.5604-1.7317 4.7991-1.6154 4.7991 0.44937 0 1.8341 2.7563 2.577 3.394 0.91501 0.29854-0.77801 0.2935-1.6641-0.01087-1.9685-0.67754-0.67754 4.4811-3.4857 7.9708-4.3387 2.9049-0.71041 3.571-3.9474 0.92588-4.4964-1.9305-0.40067-6.7047 1.1423-8.3548 2.6989-0.69028 0.65131-3.978 1.1065-7.9854 1.1065-6.4711 0-6.9854-0.15894-10.296-3.1917-1.9163-1.7552-3.1926-2.7414-3.99-3.0125-0.19934-0.067774-0.36847-0.091301-0.51047-0.070594zm38.377 0.073308c-0.11344-0.0041707-0.22676 0.012859-0.3421 0.050254-0.46144 0.14959-0.95954 0.63797-1.6753 1.5219-2.4913 3.0767-2.2464 3.658 2.3826 5.6421 3.9887 1.7098 4.118 1.8917 3.7604 5.2961-0.2036 1.939-0.3942 4.7371-0.42357 6.2177-0.03699 1.8649-1.1273 3.7157-3.5487 6.0237-5.0067 4.7721-6.8494 9.1874-6.5137 15.608 0.22056 4.2197 0.61594 5.3787 1.921 5.6274 1.8758 0.357 9.9421-3.2929 9.9421-4.4991 0-1.7444 4.5151-5.5261 6.5937-5.5227 1.2159 2e-3 3.4807 0.77768 5.0327 1.7242 3.6207 2.208 15.66 13.928 14.992 14.596-0.84654 0.84654-8.0488-3.6977-8.6101-5.4331-0.56747-1.7537-4.1067-2.2767-4.1067-0.60684 0 2.0335 3.8814 6.3984 5.6897 6.3984 1.0212 0 2.4828 0.62557 3.2474 1.3902 0.76461 0.76461 2.6112 1.3902 4.104 1.3902 1.4928 0 2.7139 0.4175 2.7139 0.92728 0 0.50974 0.83501 0.92728 1.8545 0.92728 2.7029 0 2.3092-2.3645-1.2965-7.7968-2.9963-4.5141-10.106-11.327-16.954-16.247l-3.1496-2.2631-4.8234 1.6468c-3.3009 1.1267-5.5554 2.6397-7.1408 4.7924-2.2214 3.0159-5.1621 4.8191-6.1867 3.7944-1.4356-1.4356 1.1038-8.5881 4.2941-12.096 3.8887-4.2764 5.5987-8.4381 5.5987-13.621 0-1.9328 0.43434-3.7827 0.96528-4.1107 0.53091-0.32812 0.79588-2.298 0.58784-4.3784-0.39707-3.971-2.7957-6.6881-5.1181-5.7971-0.71641 0.27491-1.9242-0.015432-2.6826-0.64487-0.42364-0.35157-0.76754-0.54607-1.1078-0.55797zm-5.3897 13.482c-1.5106 0.05081-2.9376 1.1503-4.0387 3.208-0.90294 1.6872-0.75894 2.2544 0.91501 3.6097 1.7992 1.457 2.2468 1.479 4.7571 0.22672 3.2767-1.6346 3.6037-4.2664 0.77521-6.2477-0.58354-0.4087-1.1741-0.65928-1.7568-0.75481-0.21849-0.03587-0.43587-0.04935-0.65164-0.04212zm-11.407 18.37c0.09151-0.0049 0.16308 0.0063 0.21043 0.03531 1.2752 0.78814 0.87081 6.8894-0.55121 8.3114-0.72821 0.72814-1.4585 1.3113-1.6224 1.2951-0.57007-0.05603-5.3951-4.5194-5.3951-4.9904 0-0.87221 5.9857-4.5771 7.3581-4.6511zm-24.541 14.596c-0.11284 3.1e-4 -0.2544 0.02447-0.4195 0.07059-2.3114 0.64627-9.3288 5.5001-9.0008 6.4841 0.42407 1.2722 6.0541 2.6693 8.7121 2.1613 1.1747-0.22456 2.1355-0.04942 2.1355 0.38964 0 0.43904 1.2269 0.79828 2.7261 0.79828s2.9942 0.43344 3.3221 0.96388c0.82381 1.3329 4.2781 0.18634 6.2274-2.0676 1.8224-2.1072 1.2647-3.9444-0.94081-3.0981-0.79974 0.30688-1.7613 0.06047-2.1369-0.54711-0.51161-0.82781-1.5376-0.70034-4.089 0.51047-3.653 1.7335-5.1194 1.5368-2.8129-0.3774 3.6324-3.0147 0.17833-3.8177-3.6084-0.83901-3.2343 2.5441-4.2707 1.4878-1.4676-1.4961 1.1934-1.2703 1.9143-2.5657 1.602-2.8781-0.05148-0.05151-0.1356-0.07498-0.24844-0.07466zm20.889 0.63534c-0.50974 0-0.92588 0.4175-0.92588 0.92728 0 0.50974 0.41614 0.92728 0.92588 0.92728 0.50974 0 0.92728-0.4175 0.92728-0.92728 0-0.50974-0.4175-0.92728-0.92728-0.92728zm36.814 0.92728c-1.438 0-1.0589 3.4857 0.57971 5.3287 1.782 2.0043 4.3094 2.7052 5.4927 1.5219 0.55407-0.55407-5.0271-6.8507-6.0724-6.8507zm-39.77 1.1607c-1.1985 0.09258-2.3781 1.1281-1.9821 2.1599 0.27721 0.72241 1.0401 1.3128 1.6957 1.3128 1.4396 0 2.5623-2.5186 1.4336-3.2161-0.34594-0.21381-0.74768-0.28745-1.1472-0.25659zm33.774 0.72361c-1.202-0.03197-1.6264 3.8257-0.54034 4.9117 1.02 1.02 5.8691 0.69581 5.8691-0.39234 0-1.2707-3.7817-4.4784-5.3287-4.5194zm-28.773 1.0209c-2.1662 0.23912-8.5301 13.264-8.5301 17.943 0 5.2764 2.9593 10.964 6.9201 13.301 2.5667 1.5144 3.2745 2.5216 3.2745 4.6537 0 2.2187-0.53894 2.9092-2.9189 3.7387-1.6053 0.55961-4.0797 1.0169-5.4997 1.0169-1.42 0-3.679 0.41727-5.0204 0.92728-1.9379 0.73681-2.3793 1.4454-2.1464 3.4457 0.27193 2.3346 0.59597 2.5115 4.4637 2.4464 10.702-0.18022 11.139-0.26722 12.111-2.4165 0.51901-1.1469 1.5622-3.1284 2.3188-4.4027 0.75668-1.2743 1.244-3.359 1.082-4.6334l-0.2946-2.3174 7.9148 0.1154 7.9148 0.11403v6.2584l-6.0237 0.46294c-3.3133 0.25487-6.5457 0.80134-7.1834 1.2137-2.1252 1.3754-1.3347 5.0797 1.3902 6.5151 3.1703 1.6699 3.9397 1.7893 3.9397 0.61227 0-0.50974 0.85454-0.92588 1.8993-0.92588 2.3826 0 7.3681-2.5256 7.3681-3.732 0-0.49664 0.57531-0.90281 1.2775-0.90281 0.70221 0 1.8035-0.63427 2.4477-1.4106 0.95441-1.1499 0.86974-2.0804-0.4548-5.0177-1.6642-3.6904-1.3601-5.6191 0.88514-5.6191 1.2981 0 8.7914-7.3088 8.8094-8.5921 0.0053-0.39244 1.0158-2.3049 2.2441-4.2507 2.6397-4.1814 1.9315-6.9801-1.2653-4.9987-4.2344 2.6243-6.2767 1.5651-9.3781-4.8657-2.0611-4.2737-3.4157-6.0237-4.6621-6.0237-1.8164 0-2.3383 1.7468-0.98294 3.2895 0.42547 0.48424 1.5057 2.8695 2.4003 5.3001 2.2537 6.1234 3.7877 7.4574 7.7248 6.7187 3.6047-0.67621 3.599-0.57591-0.2403 4.8114-4.3787 6.1437-8.0201 7.3601-19.203 6.4161-8.0608-0.68041-10.787-1.4934-11.391-3.398-0.31794-1.0017-1.2001-1.822-1.9604-1.822-0.76034 0-1.1241 0.4175-0.80914 0.92728 0.31503 0.50974 0.17227 0.92721-0.31768 0.92721-2.6746 0-3.8-11.146-1.5599-15.45 2.8496-5.4741 4.4154-9.6628 3.831-10.247-0.10397-0.10398-0.23029-0.14491-0.3747-0.12898zm43.327 4.5087c-1.7648 0-0.82928 2.862 1.2015 3.675 2.395 0.95888 3.6884 0.78394 4.1367-0.56067 0.30015-0.90048-3.494-3.1143-5.3381-3.1143zm-81.181 0.13848c-1.2599 0.06923-2.5937 0.58457-2.889 1.4839-0.24908 0.75854 0.60654 1.158 2.4776 1.158 1.9761 0 2.8564-0.44737 2.8564-1.4513 0-0.88308-1.1852-1.2599-2.4451-1.1906z"/>
</svg>
