<?xml version="1.0" encoding="utf-8"?>
<svg xmlns="http://www.w3.org/2000/svg" version="1.2" viewBox="0 0 300 22">
	<title>Score with the melody of the butterball.</title>
	<polyline fill="none" points="336.6 634.2 2847.4 634.2" stroke-linejoin="bevel" stroke-width="2.73" transform="matrix(.11948 0 0 .11948 -40.218 -71.332)"/>
	<polyline fill="none" points="336.6 659 2847.4 659" stroke-linejoin="bevel" stroke-width="2.73" transform="matrix(.11948 0 0 .11948 -40.218 -71.332)"/>
	<polyline fill="none" points="336.6 683.8 2847.4 683.8" stroke-linejoin="bevel" stroke-width="2.73" transform="matrix(.11948 0 0 .11948 -40.218 -71.332)"/>
	<polyline fill="none" points="336.6 708.6 2847.4 708.6" stroke-linejoin="bevel" stroke-width="2.73" transform="matrix(.11948 0 0 .11948 -40.218 -71.332)"/>
	<polyline fill="none" points="336.6 733.4 2847.4 733.4" stroke-linejoin="bevel" stroke-width="2.73" transform="matrix(.11948 0 0 .11948 -40.218 -71.332)"/>
	<polyline fill="none" points="584.91 632.83 584.91 734.76" stroke-linejoin="bevel" stroke-width="4.46" transform="matrix(.11948 0 0 .11948 -40.218 -71.332)"/>
	<polyline fill="none" points="2633.9 632.83 2633.9 734.76" stroke-linejoin="bevel" stroke-width="4.46" transform="matrix(.11948 0 0 .11948 -40.218 -71.332)"/>
	<polyline fill="none" points="2292.4 632.83 2292.4 734.76" stroke-linejoin="bevel" stroke-width="4.46" transform="matrix(.11948 0 0 .11948 -40.218 -71.332)"/>
	<polyline fill="none" points="1950.9 632.83 1950.9 734.76" stroke-linejoin="bevel" stroke-width="4.46" transform="matrix(.11948 0 0 .11948 -40.218 -71.332)"/>
	<polyline fill="none" points="1609.4 632.83 1609.4 734.76" stroke-linejoin="bevel" stroke-width="4.46" transform="matrix(.11948 0 0 .11948 -40.218 -71.332)"/>
	<polyline fill="none" points="2822.4 632.83 2822.4 734.76" stroke-linejoin="bevel" stroke-width="4.46" transform="matrix(.11948 0 0 .11948 -40.218 -71.332)"/>
	<polyline fill="none" points="2840.6 632.83 2840.6 734.76" stroke-linejoin="bevel" stroke-width="13.64" transform="matrix(.11948 0 0 .11948 -40.218 -71.332)"/>
	<polyline fill="none" points="1267.9 632.83 1267.9 734.76" stroke-linejoin="bevel" stroke-width="4.46" transform="matrix(.11948 0 0 .11948 -40.218 -71.332)"/>
	<polyline fill="none" points="926.41 632.83 926.41 734.76" stroke-linejoin="bevel" stroke-width="4.46" transform="matrix(.11948 0 0 .11948 -40.218 -71.332)"/>
	<polyline fill="none" points="1536.1 667.43 1536.1 603.2" stroke-linejoin="bevel" stroke-width="2.48" transform="matrix(.11948 0 0 .11948 -40.218 -71.332)"/>
	<polyline fill="none" points="1877.6 704.63 1877.6 621.8" stroke-linejoin="bevel" stroke-width="2.48" transform="matrix(.11948 0 0 .11948 -40.218 -71.332)"/>
	<polyline fill="none" points="2698.1 704.63 2698.1 621.8" stroke-linejoin="bevel" stroke-width="2.48" transform="matrix(.11948 0 0 .11948 -40.218 -71.332)"/>
	<polyline fill="none" points="1092.6 692.23 1092.6 615.6" stroke-linejoin="bevel" stroke-width="2.48" transform="matrix(.11948 0 0 .11948 -40.218 -71.332)"/>
	<polyline fill="none" points="511.66 704.63 511.66 621.8" stroke-linejoin="bevel" stroke-width="2.48" transform="matrix(.11948 0 0 .11948 -40.218 -71.332)"/>
	<polyline fill="none" points="1194.6 704.63 1194.6 621.8" stroke-linejoin="bevel" stroke-width="2.48" transform="matrix(.11948 0 0 .11948 -40.218 -71.332)"/>
	<polyline fill="none" points="649.13 704.63 649.13 621.8" stroke-linejoin="bevel" stroke-width="2.48" transform="matrix(.11948 0 0 .11948 -40.218 -71.332)"/>
	<polyline fill="none" points="2560.6 692.23 2560.6 615.6" stroke-linejoin="bevel" stroke-width="2.48" transform="matrix(.11948 0 0 .11948 -40.218 -71.332)"/>
	<polyline fill="none" points="853.15 667.43 853.15 603.2" stroke-linejoin="bevel" stroke-width="2.48" transform="matrix(.11948 0 0 .11948 -40.218 -71.332)"/>
	<polyline fill="none" points="1332.1 704.63 1332.1 621.8" stroke-linejoin="bevel" stroke-width="2.48" transform="matrix(.11948 0 0 .11948 -40.218 -71.332)"/>
	<polyline fill="none" points="2458.6 667.43 2458.6 603.2" stroke-linejoin="bevel" stroke-width="2.48" transform="matrix(.11948 0 0 .11948 -40.218 -71.332)"/>
	<polyline fill="none" points="1434.1 692.23 1434.1 615.6" stroke-linejoin="bevel" stroke-width="2.48" transform="matrix(.11948 0 0 .11948 -40.218 -71.332)"/>
	<polyline fill="none" points="2356.6 655.03 2356.6 597" stroke-linejoin="bevel" stroke-width="2.48" transform="matrix(.11948 0 0 .11948 -40.218 -71.332)"/>
	<polyline fill="none" points="751.14 692.23 751.14 615.6" stroke-linejoin="bevel" stroke-width="2.48" transform="matrix(.11948 0 0 .11948 -40.218 -71.332)"/>
	<polyline fill="none" points="2219.1 667.43 2219.1 603.2" stroke-linejoin="bevel" stroke-width="2.48" transform="matrix(.11948 0 0 .11948 -40.218 -71.332)"/>
	<polyline fill="none" points="2117.1 679.83 2117.1 609.4" stroke-linejoin="bevel" stroke-width="2.48" transform="matrix(.11948 0 0 .11948 -40.218 -71.332)"/>
	<polyline fill="none" points="2015.1 667.43 2015.1 603.2" stroke-linejoin="bevel" stroke-width="2.48" transform="matrix(.11948 0 0 .11948 -40.218 -71.332)"/>
	<polyline fill="none" points="1673.6 679.83 1673.6 609.4" stroke-linejoin="bevel" stroke-width="2.48" transform="matrix(.11948 0 0 .11948 -40.218 -71.332)"/>
	<polyline fill="none" points="990.62 679.83 990.62 609.4" stroke-linejoin="bevel" stroke-width="2.48" transform="matrix(.11948 0 0 .11948 -40.218 -71.332)"/>
	<polyline fill="none" points="1775.6 692.23 1775.6 615.6" stroke-linejoin="bevel" stroke-width="2.48" transform="matrix(.11948 0 0 .11948 -40.218 -71.332)"/>
	<path d="m180.43 13.832c0 0.50967 0.36744 1.0786 1.3275 1.0786 1.2327 0 2.5246-1.0075 2.5246-2.0505 0-0.69932-0.59264-1.0905-1.3275-1.0905-1.1497 0-2.5246 0.97193-2.5246 2.0624" stroke-width=".11853"/>
	<path d="m168.24 12.351c0 0.50967 0.36744 1.0786 1.3275 1.0786 1.2327 0 2.5246-1.0075 2.5246-2.0505 0-0.69932-0.59264-1.0905-1.3275-1.0905-1.1497 0-2.5246 0.97193-2.5246 2.0624" stroke-width=".11853"/>
	<path d="m156.05 10.869c0 0.50967 0.36744 1.0786 1.3275 1.0786 1.2327 0 2.5246-1.0075 2.5246-2.0505 0-0.69932-0.59264-1.0905-1.3275-1.0905-1.1497 0-2.5246 0.97193-2.5246 2.0624" stroke-width=".11853"/>
	<path d="m45.829 12.351c0 0.50967 0.36744 1.0786 1.3275 1.0786 1.2327 0 2.5246-1.0075 2.5246-2.0505 0-0.69932-0.59264-1.0905-1.3275-1.0905-1.1497 0-2.5246 0.97193-2.5246 2.0624" stroke-width=".11853"/>
	<path d="m33.64 13.832c0 0.50967 0.36744 1.0786 1.3275 1.0786 1.2327 0 2.5246-1.0075 2.5246-2.0505 0-0.69932-0.59264-1.0905-1.3275-1.0905-1.1497 0-2.5246 0.97193-2.5246 2.0624" stroke-width=".11853"/>
	<path d="m196.85 9.3874c0 0.50967 0.36744 1.0786 1.3275 1.0786 1.2327 0 2.5246-1.0075 2.5246-2.0505 0-0.69932-0.59264-1.0905-1.3275-1.0905-1.1497 0-2.5246 0.97193-2.5246 2.0624" stroke-width=".11853"/>
	<path d="m209.04 10.869c0 0.50967 0.36744 1.0786 1.3275 1.0786 1.2327 0 2.5246-1.0075 2.5246-2.0505 0-0.69932-0.59264-1.0905-1.3275-1.0905-1.1497 0-2.5246 0.97193-2.5246 2.0624" stroke-width=".11853"/>
	<path d="m139.62 9.3874c0 0.50967 0.36744 1.0786 1.3275 1.0786 1.2327 0 2.5246-1.0075 2.5246-2.0505 0-0.69932-0.59264-1.0905-1.3275-1.0905-1.1497 0-2.5246 0.97193-2.5246 2.0624" stroke-width=".11853"/>
	<path d="m221.23 9.3874c0 0.50967 0.36744 1.0786 1.3275 1.0786 1.2327 0 2.5246-1.0075 2.5246-2.0505 0-0.69932-0.59264-1.0905-1.3275-1.0905-1.1497 0-2.5246 0.97193-2.5246 2.0624" stroke-width=".11853"/>
	<path d="m17.214 13.832c0 0.50967 0.36744 1.0786 1.3275 1.0786 1.2327 0 2.5246-1.0075 2.5246-2.0505 0-0.69932-0.59264-1.0905-1.3275-1.0905-1.1497 0-2.5246 0.97193-2.5246 2.0624" stroke-width=".11853"/>
	<path d="m127.43 12.351c0 0.50967 0.36744 1.0786 1.3275 1.0786 1.2327 0 2.5246-1.0075 2.5246-2.0505 0-0.69932-0.59264-1.0905-1.3275-1.0905-1.1497 0-2.5246 0.97193-2.5246 2.0624" stroke-width=".11853"/>
	<path d="m237.65 7.9058c0 0.50967 0.36743 1.0786 1.3275 1.0786 1.2327 0 2.5246-1.0075 2.5246-2.0505 0-0.69932-0.59264-1.0905-1.3275-1.0905-1.1497 0-2.5246 0.97193-2.5246 2.0624" stroke-width=".11853"/>
	<path d="m115.25 13.832c0 0.50967 0.36744 1.0786 1.3275 1.0786 1.2327 0 2.5246-1.0075 2.5246-2.0505 0-0.69932-0.59264-1.0905-1.3275-1.0905-1.1497 0-2.5246 0.97193-2.5246 2.0624" stroke-width=".11853"/>
	<path d="m249.84 9.3874c0 0.50967 0.36743 1.0786 1.3275 1.0786 1.2327 0 2.5246-1.0075 2.5246-2.0505 0-0.69932-0.59264-1.0905-1.3275-1.0905-1.1497 0-2.5246 0.97193-2.5246 2.0624" stroke-width=".11853"/>
	<path d="m58.017 9.3874c0 0.50967 0.36744 1.0786 1.3275 1.0786 1.2327 0 2.5246-1.0075 2.5246-2.0505 0-0.69932-0.59264-1.0905-1.3275-1.0905-1.1497 0-2.5246 0.97193-2.5246 2.0624" stroke-width=".11853"/>
	<path d="m262.03 12.351c0 0.50967 0.36744 1.0786 1.3275 1.0786 1.2327 0 2.5246-1.0075 2.5246-2.0505 0-0.69932-0.59264-1.0905-1.3275-1.0905-1.1497 0-2.5246 0.97193-2.5246 2.0624" stroke-width=".11853"/>
	<path d="m98.82 13.832c0 0.50967 0.36744 1.0786 1.3275 1.0786 1.2327 0 2.5246-1.0075 2.5246-2.0505 0-0.69932-0.59264-1.0905-1.3275-1.0905-1.1497 0-2.5246 0.97193-2.5246 2.0624" stroke-width=".11853"/>
	<path d="m86.632 12.351c0 0.50967 0.36744 1.0786 1.3275 1.0786 1.2327 0 2.5246-1.0075 2.5246-2.0505 0-0.69932-0.59264-1.0905-1.3275-1.0905-1.1497 0-2.5246 0.97193-2.5246 2.0624" stroke-width=".11853"/>
	<path d="m74.443 10.869c0 0.50967 0.36744 1.0786 1.3275 1.0786 1.2327 0 2.5246-1.0075 2.5246-2.0505 0-0.69932-0.59264-1.0905-1.3275-1.0905-1.1497 0-2.5246 0.97193-2.5246 2.0624" stroke-width=".11853"/>
	<path d="m280.98 11.77c-1.1497 0-2.5246 0.96008-2.5246 2.0624 0 0.50967 0.36744 1.0786 1.3275 1.0786 1.2327 0 2.5246-1.0075 2.5246-2.0505 0-0.69932-0.59264-1.0905-1.3275-1.0905m-1.6357 2.5839c-0.39114 0-0.47411-0.32002-0.47411-0.4267 0-0.58079 1.9913-1.6001 2.5484-1.6001 0.28446 0 0.47411 0.16594 0.47411 0.4267 0 0.59264-2.0031 1.6001-2.5484 1.6001" stroke-width=".11853"/>
	<path d="m3.6803 19.415c0 0.78228 0.59264 1.8135 2.1928 1.8135 0.55708 0 1.043-0.14223 1.4697-0.403 0.64005-0.45041 0.80599-1.2327 0.80599-1.9794 0-0.46226-0.071117-0.99564-0.18964-1.6712-0.035558-0.23706-0.10668-0.59264-0.17779-1.0549 1.1616-0.37929 2.0268-1.5883 2.0268-2.8091 0-1.7898-1.2682-2.9988-2.9988-2.9988-0.11853-0.71117-0.23706-1.4105-0.33188-2.0742 1.2445-1.3157 2.1098-2.7973 2.1098-4.6819 0-1.0786-0.33188-1.9557-0.52152-2.3824-0.28447-0.60449-0.6282-1.0193-0.84155-1.0193-0.08297 0-0.45041 0.14223-0.84155 0.60449-0.75858 0.90081-0.97193 2.418-0.97193 3.4136 0 0.64005 0.059264 1.2208 0.26076 2.5484-0.011853 0.011853-0.6282 0.64005-0.87711 0.84155-1.0786 0.99564-2.5721 2.4417-2.5721 4.8122 0 2.2165 1.932 3.9588 4.1366 3.9588 0.34373 0 0.66376-0.03556 0.93637-0.08297 0.2252 1.1379 0.36744 1.9676 0.36744 2.5958 0 1.2327-0.64005 1.8846-1.8372 1.8846-0.28447 0-0.53338-0.05926-0.55708-0.05926-0.011853-0.01185-0.035558-0.02371-0.035558-0.03556 0-0.02371 0.023706-0.03556 0.059264-0.03556 0.55708-0.09482 1.1142-0.56893 1.1142-1.3275 0-0.64005-0.48596-1.3157-1.3749-1.3157-0.8297 0-1.3512 0.67561-1.3512 1.4579m2.4772-15.823c0.10668-0.47411 0.6519-1.7187 1.2682-1.7187 0.17779 0 0.46226 0.56894 0.46226 1.3986 0 1.2327-0.91267 2.1572-1.7305 2.9632-0.071117-0.47411-0.13038-0.93637-0.13038-1.4342 0-0.43855 0.035558-0.84155 0.13038-1.209m1.043 12.185c-0.23706 0.04741-0.46226 0.07112-0.68746 0.07112-1.695 0-3.141-1.1853-3.141-2.9751 0-1.446 1.0193-2.738 2.0624-3.6388 0.2015-0.17779 0.39114-0.34373 0.56893-0.52152 0.10668 0.64005 0.18964 1.1971 0.27261 1.6831-1.0786 0.32003-1.8135 1.4579-1.8135 2.5721 0 0.8297 0.6519 1.9676 1.6001 1.9676 0.094823 0 0.2015-0.04741 0.2015-0.15409 0-0.10668-0.11853-0.16594-0.26076-0.26076-0.46226-0.28447-0.72302-0.59264-0.72302-1.1734 0-0.72302 0.54523-1.3038 1.2327-1.4697l0.68746 3.8996m1.6831-2.1928c0 0.84155-0.34373 1.7068-1.1853 2.0505-0.24891-1.4223-0.56893-3.3069-0.6519-3.8285 1.0668 0 1.8372 0.72302 1.8372 1.7779" stroke-width=".11853"/>
</svg>
