<?xml version="1.0" encoding="utf-8"?>
<svg xmlns="http://www.w3.org/2000/svg" version="1.2" viewBox="0 0 300 22">
	<title>Score with the melody of the butterball.</title>
	<path d="M-.001032 4.442216h299.990384M-.001032 7.40532h299.990384M-.001032 10.368424h299.990384M-.001032 13.331528h299.990384M-.001032 16.294632h299.990384" fill="none" stroke="currentcolor" stroke-linejoin="bevel" stroke-width=".3261804"/>
	<path d="M29.6670468 4.2785284v12.1785964M274.480372 4.2785284v12.1785964M233.677952 4.2785284v12.1785964M192.875532 4.2785284v12.1785964M152.073112 4.2785284v12.1785964M297.002352 4.2785284v12.1785964" fill="none" stroke="currentcolor" stroke-linejoin="bevel" stroke-width=".5328808"/>
	<path d="M299.176888 4.2785284v12.1785964" fill="none" stroke="currentcolor" stroke-linejoin="bevel" stroke-width="1.6297072000000001"/>
	<path d="M111.270692 4.2785284v12.1785964M70.4694668 4.2785284v12.1785964" fill="none" stroke="currentcolor" stroke-linejoin="bevel" stroke-width=".5328808"/>
	<path d="M143.315228 8.4125364V.738336M184.117648 12.8571924V2.960664M282.150988 12.8571924V2.960664M90.325848 11.3756404V2.219888M20.9151368 12.8571924V2.960664M102.512808 12.8571924V2.960664M37.3400524 12.8571924V2.960664M265.722488 11.3756404V2.219888M61.716362 8.4125364V.738336M118.941308 12.8571924V2.960664M253.535528 8.4125364V.738336M131.128268 11.3756404V2.219888M241.348568 6.9309844V-.00244M49.5282072 11.3756404V2.219888M224.920068 8.4125364V.738336M212.733108 9.8940884V1.479112M200.546148 8.4125364V.738336M159.743728 9.8940884V1.479112M78.1412776 9.8940884V1.479112M171.930688 11.3756404V2.219888" fill="none" stroke="currentcolor" stroke-linejoin="bevel" stroke-width=".29631040000000003"/>
	<path d="M180.43 13.832c0 .50967.36744 1.0786 1.3275 1.0786 1.2327 0 2.5246-1.0075 2.5246-2.0505 0-.69932-.59264-1.0905-1.3275-1.0905-1.1497 0-2.5246.97193-2.5246 2.0624M168.24 12.351c0 .50967.36744 1.0786 1.3275 1.0786 1.2327 0 2.5246-1.0075 2.5246-2.0505 0-.69932-.59264-1.0905-1.3275-1.0905-1.1497 0-2.5246.97193-2.5246 2.0624M156.05 10.869c0 .50967.36744 1.0786 1.3275 1.0786 1.2327 0 2.5246-1.0075 2.5246-2.0505 0-.69932-.59264-1.0905-1.3275-1.0905-1.1497 0-2.5246.97193-2.5246 2.0624M45.829 12.351c0 .50967.36744 1.0786 1.3275 1.0786 1.2327 0 2.5246-1.0075 2.5246-2.0505 0-.69932-.59264-1.0905-1.3275-1.0905-1.1497 0-2.5246.97193-2.5246 2.0624M33.64 13.832c0 .50967.36744 1.0786 1.3275 1.0786 1.2327 0 2.5246-1.0075 2.5246-2.0505 0-.69932-.59264-1.0905-1.3275-1.0905-1.1497 0-2.5246.97193-2.5246 2.0624M196.85 9.3874c0 .50967.36744 1.0786 1.3275 1.0786 1.2327 0 2.5246-1.0075 2.5246-2.0505 0-.69932-.59264-1.0905-1.3275-1.0905-1.1497 0-2.5246.97193-2.5246 2.0624M209.04 10.869c0 .50967.36744 1.0786 1.3275 1.0786 1.2327 0 2.5246-1.0075 2.5246-2.0505 0-.69932-.59264-1.0905-1.3275-1.0905-1.1497 0-2.5246.97193-2.5246 2.0624M139.62 9.3874c0 .50967.36744 1.0786 1.3275 1.0786 1.2327 0 2.5246-1.0075 2.5246-2.0505 0-.69932-.59264-1.0905-1.3275-1.0905-1.1497 0-2.5246.97193-2.5246 2.0624M221.23 9.3874c0 .50967.36744 1.0786 1.3275 1.0786 1.2327 0 2.5246-1.0075 2.5246-2.0505 0-.69932-.59264-1.0905-1.3275-1.0905-1.1497 0-2.5246.97193-2.5246 2.0624M17.214 13.832c0 .50967.36744 1.0786 1.3275 1.0786 1.2327 0 2.5246-1.0075 2.5246-2.0505 0-.69932-.59264-1.0905-1.3275-1.0905-1.1497 0-2.5246.97193-2.5246 2.0624M127.43 12.351c0 .50967.36744 1.0786 1.3275 1.0786 1.2327 0 2.5246-1.0075 2.5246-2.0505 0-.69932-.59264-1.0905-1.3275-1.0905-1.1497 0-2.5246.97193-2.5246 2.0624M237.65 7.9058c0 .50967.36743 1.0786 1.3275 1.0786 1.2327 0 2.5246-1.0075 2.5246-2.0505 0-.69932-.59264-1.0905-1.3275-1.0905-1.1497 0-2.5246.97193-2.5246 2.0624M115.25 13.832c0 .50967.36744 1.0786 1.3275 1.0786 1.2327 0 2.5246-1.0075 2.5246-2.0505 0-.69932-.59264-1.0905-1.3275-1.0905-1.1497 0-2.5246.97193-2.5246 2.0624M249.84 9.3874c0 .50967.36743 1.0786 1.3275 1.0786 1.2327 0 2.5246-1.0075 2.5246-2.0505 0-.69932-.59264-1.0905-1.3275-1.0905-1.1497 0-2.5246.97193-2.5246 2.0624M58.017 9.3874c0 .50967.36744 1.0786 1.3275 1.0786 1.2327 0 2.5246-1.0075 2.5246-2.0505 0-.69932-.59264-1.0905-1.3275-1.0905-1.1497 0-2.5246.97193-2.5246 2.0624M262.03 12.351c0 .50967.36744 1.0786 1.3275 1.0786 1.2327 0 2.5246-1.0075 2.5246-2.0505 0-.69932-.59264-1.0905-1.3275-1.0905-1.1497 0-2.5246.97193-2.5246 2.0624M98.82 13.832c0 .50967.36744 1.0786 1.3275 1.0786 1.2327 0 2.5246-1.0075 2.5246-2.0505 0-.69932-.59264-1.0905-1.3275-1.0905-1.1497 0-2.5246.97193-2.5246 2.0624M86.632 12.351c0 .50967.36744 1.0786 1.3275 1.0786 1.2327 0 2.5246-1.0075 2.5246-2.0505 0-.69932-.59264-1.0905-1.3275-1.0905-1.1497 0-2.5246.97193-2.5246 2.0624M74.443 10.869c0 .50967.36744 1.0786 1.3275 1.0786 1.2327 0 2.5246-1.0075 2.5246-2.0505 0-.69932-.59264-1.0905-1.3275-1.0905-1.1497 0-2.5246.97193-2.5246 2.0624M280.98 11.77c-1.1497 0-2.5246.96008-2.5246 2.0624 0 .50967.36744 1.0786 1.3275 1.0786 1.2327 0 2.5246-1.0075 2.5246-2.0505 0-.69932-.59264-1.0905-1.3275-1.0905m-1.6357 2.5839c-.39114 0-.47411-.32002-.47411-.4267 0-.58079 1.9913-1.6001 2.5484-1.6001.28446 0 .47411.16594.47411.4267 0 .59264-2.0031 1.6001-2.5484 1.6001M3.6803 19.415c0 .78228.59264 1.8135 2.1928 1.8135.55708 0 1.043-.14223 1.4697-.403.64005-.45041.80599-1.2327.80599-1.9794 0-.46226-.071117-.99564-.18964-1.6712-.035558-.23706-.10668-.59264-.17779-1.0549 1.1616-.37929 2.0268-1.5883 2.0268-2.8091 0-1.7898-1.2682-2.9988-2.9988-2.9988-.11853-.71117-.23706-1.4105-.33188-2.0742 1.2445-1.3157 2.1098-2.7973 2.1098-4.6819 0-1.0786-.33188-1.9557-.52152-2.3824C7.78129.56911 7.43756.1543 7.22421.1543c-.08297 0-.45041.14223-.84155.60449-.75858.90081-.97193 2.418-.97193 3.4136 0 .64005.059264 1.2208.26076 2.5484-.011853.011853-.6282.64005-.87711.84155-1.0786.99564-2.5721 2.4417-2.5721 4.8122 0 2.2165 1.932 3.9588 4.1366 3.9588.34373 0 .66376-.03556.93637-.08297.2252 1.1379.36744 1.9676.36744 2.5958 0 1.2327-.64005 1.8846-1.8372 1.8846-.28447 0-.53338-.05926-.55708-.05926-.011853-.01185-.035558-.02371-.035558-.03556 0-.02371.023706-.03556.059264-.03556.55708-.09482 1.1142-.56893 1.1142-1.3275 0-.64005-.48596-1.3157-1.3749-1.3157-.8297 0-1.3512.67561-1.3512 1.4579m2.4772-15.823c.10668-.47411.6519-1.7187 1.2682-1.7187.17779 0 .46226.56894.46226 1.3986 0 1.2327-.91267 2.1572-1.7305 2.9632-.071117-.47411-.13038-.93637-.13038-1.4342 0-.43855.035558-.84155.13038-1.209m1.043 12.185c-.23706.04741-.46226.07112-.68746.07112-1.695 0-3.141-1.1853-3.141-2.9751 0-1.446 1.0193-2.738 2.0624-3.6388.2015-.17779.39114-.34373.56893-.52152.10668.64005.18964 1.1971.27261 1.6831-1.0786.32003-1.8135 1.4579-1.8135 2.5721 0 .8297.6519 1.9676 1.6001 1.9676.094823 0 .2015-.04741.2015-.15409s-.11853-.16594-.26076-.26076c-.46226-.28447-.72302-.59264-.72302-1.1734 0-.72302.54523-1.3038 1.2327-1.4697l.68746 3.8996m1.6831-2.1928c0 .84155-.34373 1.7068-1.1853 2.0505-.24891-1.4223-.56893-3.3069-.6519-3.8285 1.0668 0 1.8372.72302 1.8372 1.7779"/>
</svg>
