<?xml version="1.0" encoding="utf-8"?>
<svg xmlns="http://www.w3.org/2000/svg" version="1.1" viewBox="0 0 300 126">
	<title>Description of the image goes here.</title>
	<path d="m298.74 2.658e-6c-1.4982-0.0023461-3.8652 1.5484-6.7317 4.4693-1.7368 1.7698-3.9737 3.7728-4.9705 4.451-0.99676 0.67816-2.273 1.7808-2.8363 2.4503-0.56333 0.66947-1.2249 1.15-1.4703 1.0682-0.24536-0.08179 0.8069-1.5473 2.3386-3.2573 1.5317-1.71 2.7891-3.3293 2.794-3.5981 0.0266-1.4579-2.8838 0.27552-5.7437 3.4211-3.4588 3.8043-5.8649 5.7536-7.5227 6.0948-0.54808 0.1128-1.7488 0.54763-2.6685 0.96569-0.91974 0.41806-1.8709 0.76006-2.1135 0.76006-0.63567 0 0.81861-1.5051 2.0013-2.0711 0.57956-0.27738 1.1822-1.034 1.4285-1.7933 0.23427-0.72229 0.71796-1.4766 1.0751-1.6765 0.35713-0.19986 0.64952-0.70664 0.64952-1.1261 0-1.2603-1.6689-0.91864-3.9687 0.81218-1.1506 0.86596-2.8508 1.9425-3.778 2.3925-0.99169 0.48124-1.6081 1.0205-1.4972 1.3093 0.10363 0.27006-0.52741 1.1724-1.4021 2.0058-0.87472 0.83341-1.4613 1.288-1.3036 1.0098s0.0612-0.77762-0.21422-1.1095c-0.42447-0.51145-0.26558-0.80447 1.0419-1.9234 0.84828-0.72594 1.6739-1.3265 1.8352-1.3345 0.42545-0.0213 0.36133-1.1873-0.0653-1.1873-0.48413 0-6.286 3.4236-7.2661 4.2877-1.1736 1.0347-4.5009 2.8764-4.7488 2.6284-0.42738-0.42738 0.31637-1.051 1.2532-1.051 0.96023 0 1.2788-0.53582 0.57677-0.9697-0.43989-0.27187-4.7042 0.8968-4.7087 1.2904-4e-3 0.35583-2.039 1.2865-2.2819 1.0436-0.10527-0.10527 8e-3 -0.1913 0.25088-0.1913 0.24333 0 0.63068-0.35229 0.86087-0.7824 0.73602-1.3753-0.64113-0.92767-2.5448 0.82708-1.4549 1.3411-1.7877 1.5007-1.9961 0.95767-0.17719-0.46176 0.39123-1.2578 1.9503-2.7321 1.21-1.1442 2.2-2.1721 2.2-2.2842s-0.25914-0.30297-0.57563-0.42442c-0.36078-0.13844-1.2726 0.51628-2.444 1.755-1.0276 1.0866-2.1894 2.1483-2.582 2.3592-0.63283 0.33993-0.66457 0.29106-0.27951-0.42843 0.2389-0.44639 0.86805-1.0961 1.3981-1.4434 0.53008-0.34732 0.96397-0.87518 0.96397-1.173 0-1.0244-1.1095-0.5385-2.3512 1.0293-1.2789 1.6148-4.891 3.656-7.3263 4.14-1.9702 0.39156-1.5054-0.04617 1.0321-0.97142 1.8329-0.66832 2.7912-1.3665 4.6921-3.4183 1.3138-1.4181 2.389-2.7356 2.389-2.9274 0-0.67507-1.5264-0.33874-2.0854 0.45936-0.5514 0.78725-4.5627 3.861-5.7345 4.3943-0.32259 0.1468-0.85045 0.42304-1.173 0.61401-2.2915 1.3565-4.2165 1.9437-5.7134 1.7418-1.0513-0.14181-2.0658-0.0038-2.9326 0.39979-0.72888 0.33933-2.1166 0.79597-3.0844 1.0144-1.6537 0.37321-1.8104 0.33511-2.6015-0.62947-1.0638-1.2971-2.2758-1.0118-1.9927 0.4691 0.25014 1.3085-0.40514 1.6482-1.1444 0.59282-0.35616-0.5085-0.91712-0.79891-1.4044-0.72684-1.2224 0.18078-1.2502 0.97722-0.0556 1.6032 1.0554 0.55298 1.0494 0.55777-1.051 0.7635-1.561 0.15289-2.1941 0.06515-2.4251-0.33564-0.40499-0.70255-1.838-0.70519-1.838-0.0034 0 0.29635 0.39589 0.81488 0.87977 1.1524l0.87977 0.61343-1.2177 0.02062c-0.68864 0.01159-1.6931-0.35284-2.3105-0.83853-0.75048-0.59033-1.6536-0.86555-2.8873-0.87977-1.5416-0.01777-1.7956 0.08973-1.7956 0.76121 0 0.58278 0.29886 0.81158 1.173 0.89695 0.64516 0.06301 1.437 0.20686 1.7595 0.3196 0.51119 0.17866 0.50691 0.24965-0.0338 0.55329-1.5301 0.85926-3.893 1.0812-5.7042 0.53611-3.0094-0.9057-5.6011-0.45972-5.6011 0.9634 0 0.24511-0.49039 0.44561-1.09 0.44561-1.2698 0-4.4716 1.5345-4.6904 2.2481-0.19292 0.62912 1.2498 0.63871 2.2487 0.0149 1.0716-0.66923 1.3654-0.16421 0.59167 1.0167-0.61362 0.9365-0.8011 0.98618-2.8988 0.76693-2.4926-0.26053-4.9791 0.57464-4.9791 1.6725 0 0.61061 0.50742 0.59537 2.8999-0.08591 1.3214-0.37629 1.0576 0.34889-0.41525 1.1421-0.79898 0.43028-1.9589 0.66335-3.0299 0.60885-1.6174-0.0823-3.495 0.62292-3.495 1.3122 0 0.30247 1.1742 0.44867 2.487 0.30987 1.1456-0.12114 0.54486 0.87297-0.75205 1.2446-5.119 1.467-6.0364 1.8546-6.0364 2.5528 0 0.44474 0.28572 0.53086 1.173 0.3534 0.64517-0.12903 1.173-0.08185 1.173 0.10482 0 0.46706-1.0138 0.81448-2.3781 0.81448-1.1575 0-1.5025 0.65454-0.7446 1.4124 0.26757 0.26758 0.0772 0.69615-0.58652 1.3197-0.54048 0.50776-0.98286 1.2716-0.98286 1.6977s-0.45994 1.3784-1.0224 2.1158c-1.27 1.6651-0.84581 2.2521 1.6284 2.2521 0.957 0 1.7401 0.12011 1.7401 0.26691 0 0.34398-1.5604 0.84409-1.8208 0.58365-0.10886-0.10886-0.80302 0.05508-1.543 0.36428-1.1876 0.49621-1.3723 0.49236-1.574-0.03322-0.31721-0.82664-1.0377-0.74347-1.6186 0.18672-0.7098 1.1366-1.5537 0.95798-1.85-0.3912-0.16683-0.75955-0.4993-1.173-0.94335-1.173-1.0104 0-1.2012 0.35551-0.7824 1.4571 0.29691 0.78094 0.23085 1.0907-0.31731 1.4915-0.87074 0.6367-1.5697 0.12662-2.3352-1.7046-0.66391-1.5883-1.5086-1.4192-1.4268 0.28581 0.0566 1.1787-0.0113 1.2446-1.173 1.1318-1.0272-0.09972-1.2125-0.26661-1.1106-0.99948 0.0819-0.58925-0.0798-0.87977-0.48914-0.87977-0.3361 0-0.61114-0.17614-0.61114-0.3912s-0.35172-0.3912-0.78183-0.3912c-0.8839 0-0.94865 0.29242-0.39063 1.7601 0.3684 0.96897 0.32819 1.0221-0.68389 0.90555-0.80288-0.09244-1.2484-0.49462-1.7624-1.59-0.37845-0.80645-0.95066-1.4663-1.2716-1.4663-0.69588 0-0.77453 1.2164-0.12085 1.8701 0.78267 0.78268 0.0136 1.0165-1.6776 0.50977-1.0047-0.30101-1.6848-0.76631-1.8076-1.236-0.26723-1.0219-1.6696-0.99728-1.6696 0.02921 0 0.97177-0.78436 1.006-1.7836 0.0779-1.1563-1.0739-2.0592-1.3021-2.4423-0.61744-0.28115 0.50239-0.44435 0.43563-0.99662-0.40724-0.36332-0.5545-0.99798-1.0086-1.4102-1.0086-0.58373 0-0.77608 0.32416-0.87061 1.4663-0.0975 1.1778-0.29452 1.4908-1.0012 1.5912-0.65768 0.0934-0.87977-0.06966-0.87977-0.64723 0-0.58659 0.19336-0.72231 0.80245-0.56303 0.70851 0.18528 0.77323 0.07816 0.55387-0.91643-0.41966-1.9027-0.52946-2.1038-1.1484-2.1038-0.38247 0-0.59912 0.36356-0.59912 1.0058 0 1.1768-0.81727 2.1227-1.8346 2.1227-0.76089 0-2.0751-2.4785-2.0751-3.9131 0-1.0231-1.1832-1.0207-1.4508 0.0029-0.28625 1.0946-0.74471 0.9741-1.3305-0.34939-0.29098-0.65736-0.71425-1.049-1.0104-0.93533-0.31939 0.12256-0.50977-0.11195-0.50977-0.62833 0-1.0469-1.1735-1.1023-1.444-0.06816-0.17245 0.65947-0.32955 0.6989-1.2337 0.30815-0.57006-0.24636-1.8442-1.2711-2.8312-2.2773-2.1202-2.1616-3.4403-2.8945-5.8428-3.2436-0.97475-0.14162-2.3487-0.60794-3.0528-1.0361-1.1175-0.67957-2.905-1.4206-10.033-4.1583-1.2232-0.46981-3.2256-0.59567-9.1889-0.57678-7.7221 0.02446-10.894 0.42178-17.791 2.2275-1.2903 0.33782-2.9623 0.75896-3.715 0.9359-5.6026 1.317-12.162 3.2922-16.422 4.9453-1.828 0.70931-5.6108 1.9944-8.4065 2.8552-9.8039 3.0188-13.72 4.3043-17.791 5.8399-2.2581 0.85186-5.7776 2.0872-7.8206 2.7453-2.043 0.65805-6.3 2.0852-9.4604 3.1714-3.1604 1.0862-6.1894 1.9749-6.7306 1.9749-0.95786 0-5.117 1.3787-5.9007 1.956-0.21506 0.15843-1.0709 0.50721-1.9016 0.77496l-1.5103 0.48677 0.92387 0.90383c0.50808 0.49702 1.1878 0.94925 1.5104 1.0052 1.5977 0.27714 9.2357-1.8735 10.557-2.9727 0.32258-0.26831 0.81221-0.40622 1.0883-0.30643 0.27605 0.0998 0.72125-5.87e-4 0.98917-0.2228 0.26792-0.22235 1.0096-0.39352 1.6484-0.37974 1.1444 0.02466 5.0914-1.0902 5.8537-1.6536 0.39024-0.2884 4.5585-1.3027 5.6698-1.3798 0.32258-0.02237 1.3474-0.25548 2.2773-0.51778 3.3531-0.94575 2.4477-0.14376-2.7888 2.4709-5.7661 2.8791-6.5169 3.4446-5.8915 4.4361 1.0036 1.591 1.258 1.5526 6.9895-1.0596 0.86022-0.39206 2.4438-1.0718 3.5191-1.5104 1.0753-0.43855 3.3527-1.4522 5.061-2.2527 1.7978-0.84241 3.8562-1.5043 4.8874-1.5717 0.97989-0.064 1.3764-0.0251 0.88092 0.08649-0.49546 0.11158-1.0562 0.61166-1.2463 1.1117-0.20449 0.53786-0.89545 1.0908-1.6914 1.3535-1.616 0.53334-2.8786 1.7686-2.2223 2.1742 0.74691 0.46161 2.9083-0.14686 6.1498-1.7309 4.5075-2.2027 7.4905-2.9664 9.579-2.452 1.9032 0.46872 4.8034 0.24924 7.257-0.54986 1.9355-0.63038 2.4303-0.6744 2.4303-0.21651 0 0.18101-0.74762 0.55209-1.6616 0.82478-3.7216 1.1104-4.7295 2.2122-2.8192 3.0826 1.1243 0.51227 3.0837-0.09068 4.0397-1.2435 0.29515-0.35589 0.87322-0.64723 1.2841-0.64723 0.41093 0 1.643-0.45411 2.7384-1.0092 1.0955-0.55511 3.2451-1.364 4.7769-1.7973 6.6156-1.8715 8.3155-2.3234 9.237-2.4555 0.53764-0.07703 2.1761-0.41991 3.6411-0.76235 3.0885-0.72196 3.0059-0.71333 3.0059-0.32419 0 0.16429-0.86804 0.71109-1.9291 1.2148-1.8097 0.8592-2.6908 1.7746-2.0614 2.1416 0.28304 0.165 2.2258-0.30606 5.8394-1.4159 2.7435-0.84262 2.9831-0.19938 0.32705 0.87863-1.1647 0.47272-2.2133 1.1084-2.33 1.4124-0.11668 0.30406-0.08581 0.54958 0.06873 0.54585 1.2983-0.03131 7.5418-0.80992 8.0462-1.0035 0.35293-0.13543 0.6415-0.08521 0.6415 0.11169 0 0.39393-5.2009 2.2375-7.5313 2.6697-0.80883 0.14999-1.5637 0.42391-1.6776 0.60828-0.42364 0.68546 1.9297 0.83593 4.0111 0.2566 2.033-0.56587 2.1824-0.55829 2.7825 0.14262 0.40302 0.47069 1.1443 0.74059 2.0333 0.74059 0.76942 0 1.6061 0.20793 1.8598 0.46165 0.34649 0.3465 0.68269 0.3514 1.3494 0.02006 0.48822-0.24264 1.2247-0.49417 1.637-0.55902 0.41229-0.06485 0.82291-0.33774 0.91242-0.60656 0.11247-0.33778-0.33022-0.48914-1.4336-0.48914-0.87814 0-1.5969-0.16372-1.5969-0.36428 0-0.59541 1.4899-0.88965 3.1147-0.61515 0.84762 0.14321 2.9548 2.93e-4 4.7734-0.32361 1.7907-0.319 4.0097-0.68747 4.9315-0.81849 0.92185-0.13101 2.3273-0.58692 3.1227-1.0132 1.505-0.80665 3.6079-1.0448 3.6079-0.40838 0 0.20188-0.80406 0.48779-1.787 0.6352-1.0268 0.15398-2.2854 0.68689-2.9578 1.2526-1.0272 0.86431-1.6332 1.0079-4.9573 1.1742-2.083 0.10418-4.0952 0.34942-4.4716 0.5447-1.0472 0.5434-0.8456 1.5007 0.31616 1.5007 0.5675 0 0.89598 0.16944 0.75892 0.3912-0.13291 0.21505-0.66203 0.39063-1.1759 0.39063s-1.4091 0.44008-1.9892 0.97771-1.2103 0.97772-1.4004 0.97772 0.0485 0.53234 0.52981 1.1833c0.4813 0.651 1.102 1.0964 1.3798 0.98974 0.27782-0.10661 0.50518-0.02666 0.50518 0.17756 0 0.72488 1.8711 0.84084 3.1227 0.1936 1.4172-0.73285 2.0804-0.52432 0.82536 0.25946-1.0954 0.68408-1.0352 1.106 0.15751 1.106 0.53764 0 0.97771 0.19557 0.97771 0.43416 0 0.26552 0.53068 0.37157 1.3684 0.27378 0.75269-0.08787 1.3689-0.01895 1.3689 0.15293 0 0.17187-0.26393 0.33453-0.58651 0.36142-1.1742 0.09785-1.3382 0.15484-1.8185 0.6352-0.5747 0.5747 0.53775 0.61385 3.8897 0.13689 1.1394-0.16211 2.1597-0.15248 2.267 0.0212 0.10733 0.17366-0.51338 0.42859-1.3792 0.56704-1.7215 0.27528-3.1268 1.0945-2.6668 1.5545 0.16004 0.16004 0.74006 0.08675 1.2887-0.16324 1.193-0.54357 4.6241-0.61394 4.2992-0.08821-0.28958 0.46856-4.5574 3.443-6.8892 4.8015-0.98512 0.57393-2.6571 1.2553-3.715 1.5144-2.2222 0.54417-4.673 1.6945-5.128 2.4062-0.36956 0.57807-1.4882 1.3109-2.8558 1.8712-0.53764 0.22027-1.7695 0.81417-2.7373 1.3202-0.96775 0.50606-2.463 1.1375-3.3232 1.4027-2.6202 0.8079-10.438 3.8542-12.513 4.876-3.2002 1.5758-7.8611 3.4722-15.249 6.2054-0.64517 0.23867-1.7333 0.96685-2.4182 1.6181-0.68489 0.65122-1.6394 1.4614-2.121 1.8002-1.0831 0.76203-0.79365 2.1644 0.32705 1.5848 0.38123-0.19715 2.365-0.89141 4.408-1.5425 5.4726-1.744 7.6576-1.1047 5.3153 1.5545-0.50371 0.57184-1.4658 1.3237-2.1381 1.6713-1.5919 0.82322-1.5444 1.2396 0.17355 1.5184 1.835 0.29778 2.9925-0.20347 6.2288-2.6983 0.86022-0.66312 3.1189-2.0493 5.0192-3.0803 3.0697-1.6656 3.5203-1.8093 4.0409-1.2887 0.5206 0.5206 0.2338 0.85819-2.5706 3.0277-1.736 1.343-3.0655 2.5889-2.9543 2.7688 0.32852 0.53156 4.1815 0.15174 5.5249-0.5447 0.83298-0.43182 1.2876-0.50098 1.3844-0.21078 0.18807 0.56419 4.5566 0.5768 7.3463 0.0212 4.6042-0.91698 5.8782-1.5803 11.214-5.8411 2.2129-1.767 4.0352-2.5927 4.0352-1.8283 0 0.36961-8.9726 9.1597-9.3499 9.1597-0.54583 0-2.0527 2.7892-1.826 3.3799 0.1189 0.30986 0.78624 0.52981 1.6072 0.52981 1.1488 0 1.7804-0.35548 3.4715-1.9549 1.137-1.0753 2.2704-1.9549 2.5185-1.9549 0.82587 0 0.46595 1.0145-0.94392 2.6617-0.76708 0.89617-1.2847 1.8075-1.1501 2.0253 0.51628 0.83535 2.0339 0.35483 3.3816-1.0705 2.1791-2.3046 5.8102-7.1587 5.8102-7.7673 0-0.30351 0.22032-0.9245 0.48914-1.3798 0.39101-0.66224 0.39101-0.86304 0-1.0046-1.0419-0.37732-0.49703-1.7106 0.97715-2.3902 2.3932-1.1033 3.2255-1.7743 3.2338-2.6061 0.0154-1.5364 3.0684-3.8724 6.8348-5.2299 4.907-1.7686 4.9238-1.7767 6.4517-3.1279 1.5092-1.3348 3.1575-2.5461 5.9482-4.3708 1.0134-0.66258 2.1569-1.6117 2.5414-2.1095 0.5727-0.7415 0.96446-0.87074 2.1656-0.71482 0.80645 0.10469 1.4559 0.39106 1.4434 0.63635-0.0264 0.51687-3.731 2.9876-4.4796 2.9876-0.27724 0-0.68103 0.50667-0.89695 1.1261s-1.3731 2.1383-2.5712 3.3753c-2.247 2.3199-2.6529 3.7108-0.5722 1.96 1.8531-1.5593 2.4961-1.2881 1.1135 0.46967-0.976 1.2408-0.98796 1.6708-0.0458 1.6708 0.43053 0 0.83036-0.35823 0.96225-0.86259 0.12408-0.47448 0.34456-0.74313 0.49029-0.5974 0.14573 0.14573 0.0609 1.0175-0.18901 1.9377-0.57973 2.1346-0.57008 2.728 0.13116 7.9294 0.72121 5.3496 1.271 7.3971 2.2155 8.2519 1.1744 1.0628 0.91934 1.7189-0.669 1.7189-1.6831 0-3.1673 0.98088-4.5913 3.0357-1.017 1.4676-1.0305 1.5572-0.42099 2.7791 0.76072 1.5249 1.5218 1.4041 1.5545-0.24687 0.0131-0.66299 0.45265-1.7601 0.97715-2.4383 0.88513-1.1445 1.0247-1.1962 1.9371-0.71539 0.93532 0.49286 0.96376 0.60689 0.58652 2.3455-0.21806 1.005-0.52889 1.9582-0.69018 2.1181-0.1613 0.15993-0.29326 0.58256-0.29326 0.93934 0 0.77375-1.4285 2.1588-2.5878 2.5093-0.45551 0.13774-1.1393 0.59423-1.5196 1.0144-0.65561 0.72445-0.6558 0.77734-0.01 1.0253 0.38899 0.14926 1.4115-0.0935 2.3839-0.5659 1.7445-0.84753 3.0647-2.7742 3.644-5.3193 0.46766-2.0548 1.1208-1.6014 0.9233 0.64092-0.20984 2.3828-0.91705 3.7116-2.2441 4.2162-1.1248 0.42765-1.9695 1.7822-1.35 2.1651 0.52038 0.32161 3.3896-1.6359 4.1915-2.8598 0.3298-0.50333 0.89768-2.1803 1.2618-3.7264 0.64539-2.7405 0.66889-2.7761 0.94621-1.4199 0.32424 1.5857-1.0197 6.2082-1.96 6.7415-0.61933 0.35122-0.76217 2.2286-0.16954 2.2286 0.71978 0 3.4992-3.9422 3.7602-5.3336 0.41386-2.2061-0.0672-5.7249-1.122-8.2112-0.59203-1.3954-1.31-4.5066-1.8374-7.9603-0.49383-3.2337-1.0854-5.8442-1.3769-6.0759-0.28113-0.22343-0.57249-1.0154-0.64722-1.7595-0.12485-1.2432-0.0257-1.3888 1.22-1.7916 1.4091-0.45573 1.6614-0.73455 2.4291-2.6897 0.42873-1.0919 0.47083-1.112 0.61343-0.29097 0.0843 0.48514-0.0984 1.3862-0.40609 2.003-0.53986 1.0822-0.28737 2.3936 0.46108 2.3936 0.3747 0 1.1694-2.4893 1.3099-4.1027 0.0713-0.81932 0.33601-1.2097 0.88378-1.3036 0.43011-0.07375 1.0077-0.42401 1.283-0.77839 0.40131-0.51656 1.0597-0.61875 3.3232-0.51606 1.5527 0.07044 2.8882 0.19072 2.9675 0.26748 0.0793 0.07676-0.65761 1.1503-1.6375 2.3856-1.627 2.0509-1.934 2.8747-1.0716 2.8747 0.4937 0 2.7602-2.4335 2.7602-2.9635 0-0.25782 0.60836-0.5828 1.3517-0.72226 0.74337-0.13946 1.6848-0.67682 2.0918-1.1942 0.40698-0.5174 1.2502-1.0631 1.8741-1.2125s1.3102-0.39962 1.5253-0.55616c0.59477-0.43294 2.5467-0.71453 2.3111-0.33335-0.11371 0.18399-0.53958 0.3345-0.94621 0.3345-0.91036 0-4.0093 2.0518-4.9986 3.3095-0.40098 0.50978-1.2292 0.98572-1.8409 1.0573-0.61166 0.0716-1.1921 0.37336-1.2899 0.67071-0.14231 0.43276 0.20258 0.48982 1.7292 0.28581 1.6452-0.21986 1.7954-0.18695 1.0928 0.24114-2.8198 1.7182-5.3996 4.6022-4.117 4.6022 0.29452 0 1.1387 1.8474 2.8226 6.1767 0.19214 0.49399 0.34939 1.5172 0.34939 2.2739 0 0.75671 0.16557 1.6855 0.36829 2.0643 0.20271 0.37876 0.48547 1.5699 0.62832 2.6468 0.25263 1.9044 0.22758 1.9713-0.91643 2.4451-1.7114 0.70886-2.7756 2.0157-2.9022 3.5638-0.15084 1.8448 0.90914 1.8366 1.4995-0.0115 0.54128-1.6944 2.1275-2.7471 3.0214-2.0053 0.65763 0.54579 0.49332 1.3826-0.50862 2.5918-0.91809 1.1079-3.1456 5.5626-3.1456 6.2907 0 0.83812 1.1802 0.54545 1.7166-0.42557 0.23756-0.43011 0.81129-1.3194 1.2744-1.976 0.46311-0.65665 1.0611-1.9266 1.3294-2.822 0.63861-2.1315 1.3079-1.6974 0.95996 0.6226-0.26083 1.7393-2.2104 5.1532-2.9429 5.1532-0.56803 0-1.5758 2.2285-1.3151 2.9079 0.12901 0.33621 0.45258 0.61114 0.71882 0.61114 0.90014 0 1.7488-1.2889 4.3765-6.647 0.47969-0.97813 0.71354-1.1811 0.81963-0.7108 0.0816 0.36191-0.1372 1.2105-0.48628 1.8856-0.49296 0.95328-0.53245 1.3509-0.17527 1.7813 0.25293 0.30476 0.61881 0.45607 0.81276 0.33621 0.80081-0.49493 1.487-3.0212 1.3294-4.8954-0.21943-2.6102-0.51916-3.4938-1.578-4.6532-0.62182-0.6809-1.0358-1.8676-1.3632-3.9103-0.2585-1.6129-0.69245-3.2854-0.96454-3.7167s-0.41002-1.3613-0.30643-2.0671c0.13532-0.92202-0.15474-1.9809-1.031-3.7608-0.67075-1.3625-1.2194-2.596-1.2194-2.7413 0-0.49598 2.1488-2.1567 2.8066-2.1691 0.36098-0.0068 0.90434-0.25998 1.2074-0.56303 0.30305-0.30305 0.97559-0.61116 1.4944-0.68446 0.62834-0.08877 0.98498-0.42715 1.0682-1.0132 0.21811-1.5357 1.1044-1.034 0.92272 0.52236-0.15027 1.2872-0.088 1.3907 0.76236 1.2704 0.81487-0.11533 0.96056-0.40799 1.2131-2.4388 0.29268-2.3535 1.0306-3.601 2.4509-4.144 1.0187-0.38941 1.5247-0.07255 0.96397 0.60312-0.55412 0.66768-0.12339 2.1341 0.62661 2.1341 0.32914 0 0.56017-0.38337 0.56017-0.9296 0-0.51131 0.26393-1.1487 0.58651-1.4165 0.50335-0.41775 0.58652-0.28194 0.58652 0.95824 0 1.165 0.13222 1.4203 0.68388 1.3156 0.41708-0.0791 0.73371-0.55726 0.81047-1.2246 0.0843-0.73308 0.5363-1.345 1.3683-1.8523 1.6281-0.99272 2.0128-0.9599 1.2647 0.10825-0.70894 1.0121-0.78937 2.1009-0.18328 2.4755 0.58461 0.36131 1.1608-0.29872 1.2555-1.4382 0.085-1.0232 1.6067-2.8185 2.7184-3.2069 0.83825-0.29294 0.89588 0.24685 0.0974 0.90956-0.65966 0.54747-0.80629 2.7373-0.18329 2.7373 0.22181 0 0.50646-0.30811 0.63234-0.68446 0.61946-1.852 1.1161-2.7595 1.4107-2.5775 0.17888 0.11056 0.75368-0.07963 1.2773-0.4227 0.94096-0.61654 0.94758-0.61226 0.56933 0.38261-0.54416 1.4312-0.47852 2.1408 0.17469 1.8901 0.30653-0.11762 0.67142-0.88957 0.81104-1.716 0.2155-1.2755 0.47442-1.591 1.7132-2.0866 0.80259-0.32113 1.6908-0.86299 1.9738-1.204 0.58039-0.69933 1.8108-0.82399 2.1834-0.22109 0.13563 0.21946-0.23289 0.96765-0.81906 1.6622-1.0465 1.2399-1.0508 1.2647-0.22453 1.3872 0.84022 0.12466 0.84013 0.12688-0.13517 1.4056-0.53721 0.70433-0.97657 1.4841-0.97657 1.7326 0 0.79975 1.1108 0.48072 1.3901-0.39922 0.14857-0.46811 0.8407-1.4386 1.5379-2.1565 1.505-1.5496 1.5577-1.5053 3.1216 2.6164 1.8102 4.7708 5.0853 8.7867 6.7999 8.3384 0.58486-0.15294 0.80312 0.01933 0.90153 0.71138 0.14467 1.0174 1.2527 1.4158 2.0643 0.74231 0.55983-0.46462 1.7867-3.4692 2.4818-6.0776 0.22923-0.86022 0.97382-3.0595 1.6547-4.8874 1.6477-4.4233 1.666-4.8874 0.19245-4.8874-1.1292 0-1.1616 0.05144-1.0453 1.6616 0.066 0.91399-0.0256 1.6616-0.20334 1.6616-0.17773-3.3e-5 -0.33693-1.7592-0.35397-3.9097-0.0277-3.5031 0.0418-3.9103 0.6667-3.9103 0.49057 0 0.77529 0.41542 0.95996 1.3998 0.27612 1.4718 1.2004 2.1906 1.7252 1.3414 0.23024-0.37253 0.42428-0.28708 0.75662 0.33392 0.48223 0.90105 1.9835 1.1552 1.9835 0.33564 0-0.27473-0.2321-0.84677-0.51549-1.271-0.66869-1.001-2.0166-4.6237-1.8145-4.8771 0.0857-0.10753 0.36823-0.14653 0.62718-0.08706 0.61755 0.14182 1.048-0.56968 0.53611-0.88607-0.21856-0.13508-0.3975-0.42186-0.3975-0.63692 0-0.21506 0.17615-0.2824 0.3912-0.14949 0.58679 0.36266 1.1689-0.14109 0.91815-0.79443-0.12114-0.31569-0.57166-0.57391-1.0018-0.57391-0.55245 0-0.71237-0.18166-0.5447-0.61859 0.13053-0.34017 0.23712-0.78025 0.23712-0.97772 0-0.19747 0.26393-0.35855 0.58652-0.35855 0.32258 0 0.58651-0.26393 0.58651-0.58652 0-0.32584-0.34737-0.58651-0.78183-0.58651-1.0472 0-0.99303-0.93518 0.0974-1.6748l0.87977-0.59625-1.102-0.42958c-1.343-0.52278-1.3278-1.9791 0.0269-2.5734 0.87101-0.38213 1.1238-0.99885 0.61745-1.5052-0.14413-0.14412-0.6768 0.01023-1.1839 0.34252-1.6488 1.0803-2.4155-0.59864-0.89981-1.9703 0.4301-0.38924 0.78182-0.94392 0.78182-1.2332 0-0.64972-0.85579-0.68666-1.4789-0.06358-0.71209 0.71208-1.0477 0.04932-0.53955-1.0659 0.5727-1.2569 0.58622-2.5248 0.0269-2.5248-0.23519 0-0.51985 0.35172-0.63233 0.78183-0.24097 0.92145-0.89524 1.0509-0.89524 0.17698 0-0.64686 3.8388-4.4749 4.4957-4.4831 0.53798-0.0067 2.9822-2.0391 6.1074-5.0782 4.2516-4.1344 5.7227-5.4739 6.01-5.4739 0.14917 0 1.2067-0.79931 2.3501-1.7762 1.606-1.372 2.2879-1.7235 2.9979-1.5453 0.70841 0.1778 1.2272-0.08714 2.2636-1.1564 0.73945-0.76293 1.4962-1.3872 1.6816-1.3872s0.98689-0.51513 1.7807-1.1444c0.79383-0.62926 2.4991-1.4306 3.7894-1.7813 1.2903-0.35075 2.9617-0.88283 3.7144-1.1822 2.1853-0.86914 8.5554-1.6444 11.535-1.4039 2.6239 0.21187 11.897-0.72029 13.295-1.3363 0.86021-0.37923 2.875-1.02 4.4779-1.4245 3.7715-0.95178 12.922-5.8733 12.922-6.95 0-0.17964 0.30811-0.43028 0.68446-0.55673 2.1056-0.70748 6.8364-4.8037 9.6122-8.3229 0.82426-1.045 2.3174-2.5784 3.318-3.4074 2.5438-2.1075 5.6578-6.488 5.0948-7.1665-0.29251-0.3527-0.69516-0.52557-1.1946-0.52633zm-6.2329 6.6802c0.0798 0.23929-0.44671 0.94958-1.1696 1.5785-2.3638 2.0568-2.922 2.056-0.92731-0.00117 1.0732-1.1068 2.0171-1.8167 2.0969-1.5774zm-13.474 9.0062c0.15074 0.05113 0.23713 0.16755 0.23713 0.35626 0 0.21505-0.22693 0.3912-0.50404 0.3912s-1.2009 0.34851-2.0528 0.77438l-1.5488 0.77438 1.3683-1.1547c1.0162-0.85752 2.0479-1.2949 2.5001-1.1415zm-12.494 0.76006c0.22771 0.0068 0.0726 0.27077-0.34481 0.58651-0.41745 0.31574-0.94531 0.56815-1.173 0.56131-0.22772-0.0068-0.0726-0.27077 0.34481-0.58652 0.41745-0.31574 0.94531-0.56815 1.173-0.56131zm6.6704 2.6422-2.3461 1.452c-2.4535 1.5182-5.48 2.7914-5.0742 2.1347 0.12986-0.21011 0.79646-0.6653 1.4818-1.0115 0.68528-0.34621 1.598-0.94644 2.0282-1.334 0.43012-0.38754 1.4858-0.82557 2.3461-0.97313zm-14.279 1.767c0.32634 0.07853-0.51269 0.63734-1.8649 1.2418-2.0034 0.89545-2.4378 1.2511-2.3461 1.9211 0.07 0.51127-0.10955 0.83302-0.47425 0.85113-0.32258 0.01602-1.29 0.23525-2.1502 0.48685-2.3999 0.70192-3.014 0.48452-0.68446-0.24228 1.129-0.35225 2.0528-0.78958 2.0528-0.97199 0-0.18241-0.37267-0.21332-0.82822-0.06873-0.55039 0.17469-0.77738 0.10866-0.67587-0.19589 0.20098-0.60294 6.2061-3.206 6.9712-3.0219zm-7.7083 0.37058c0.67467 0.22489-2.0216 1.463-3.1955 1.4674-1.542 0.0058-6.9023 2.7621-8.3097 4.2728-1.0536 1.131-2.66 1.0352-3.6594-0.21822l-0.81734-1.0247-1.5694 0.80073c-0.86333 0.44044-1.7995 1.0776-2.0803 1.4159-0.28077 0.3383-0.80164 0.61515-1.1576 0.61515s-1.057 0.28663-1.5579 0.63749c-0.77128 0.54022-0.87444 0.86397-0.67472 2.1129 0.22144 1.3848 0.16051 1.5013-0.99432 1.9039-1.5794 0.55058-1.6926 0.54014-1.1564-0.10596 0.33749-0.40665 0.30201-0.65197-0.14777-1.0253-0.32524-0.26992-0.5911-0.73359-0.5911-1.0298 0-0.58101-0.99935-0.74462-1.3254-0.21708-0.10921 0.17671 0.0561 0.81246 0.36772 1.413 0.70942 1.3674 0.73091 1.2675-0.33049 1.5339-0.81618 0.20485-1.9539 0.97967-6.2157 4.2322-0.79385 0.60585-1.674 1.0976-1.9554 1.0928-0.28143-0.0048-0.095-0.32903 0.41411-0.72054 0.678-0.52141 0.85518-0.93359 0.66212-1.5419-0.21572-0.67966-0.0642-0.88232 0.83395-1.1146 0.60362-0.1561 1.4419-0.29408 1.8626-0.30643 0.98019-0.02877 2.1392-1.9664 1.5367-2.5689-0.44228-0.44228-2.0721 0.05913-3.2797 1.0086-0.68917 0.54189-4.6409 1.5238-4.9378 1.2269-0.11213-0.11213 0.16139-0.32 0.6077-0.46165 0.44632-0.14166 0.81104-0.50925 0.81104-0.81734 0-0.6489-0.347-0.70101-1.173-0.17526-0.44392 0.28254-0.63657 0.16941-0.79271-0.46566-0.27882-1.1341-1.164-1.3644-1.4239-0.37058-0.17219 0.65847-0.57435 0.8254-2.2189 0.92101-1.5456 0.08986-2.0386 0.27416-2.1387 0.80073-0.1121 0.58971 0.19201 0.68446 2.2012 0.68446 1.9803 0 2.3229 0.10322 2.2768 0.68446-0.0432 0.54387 0.27334 0.69099 1.5413 0.71768 2.722 0.05729 3.5708 1.1997 1.047 1.409-1.8986 0.15749-2.25 1.2753-0.51033 1.6232 1.4422 0.28844 1.5675 1.2515 0.20734 1.5929-1.1168 0.2803-3.315-0.65717-2.5906-1.1049 0.64289-0.39734 0.54998-1.0121-0.15293-1.0121-0.90127 0-2.9339 2.2439-2.6657 2.9429 0.17908 0.46668 0.34892 0.49598 0.78297 0.13575 0.68009-0.56442 2.4824 0.25537 2.4824 1.1289 0 0.4171-0.46508 0.53097-1.8575 0.45592-3.26-0.1757-4.3989-0.01616-4.3989 0.61515 0 0.44314 0.47829 0.58652 1.9554 0.58652 2.1714 0 2.3774 0.26137 0.99719 1.2647-0.84519 0.61438-1.0841 0.62516-2.5362 0.11283-0.8817-0.31108-1.864-0.46599-2.1828-0.34366-0.9501 0.36458-0.65811 1.2782 0.49602 1.5528 0.59139 0.14069 1.5562 0.7363 2.1444 1.3231 1.0501 1.0475 1.0566 1.0821 0.34538 1.9022-0.91517 1.0552-1.1344 1.0485-1.2899-0.0378-0.0902-0.62999-0.41718-0.89466-1.1753-0.95194-0.57769-0.04365-1.4573-0.33603-1.9548-0.64952-0.49758-0.31349-2.2696-0.68146-3.9378-0.81791-1.6682-0.13645-3.4748-0.41624-4.0145-0.62145-0.67442-0.25641-1.744-0.20033-3.4188 0.17928-2.3772 0.53881-7.9875 0.53637-9.3957-4e-3 -1.7824-0.68398 0.11693-1.7824 3.8307-2.2155 3.5655-0.4158 3.2014-0.41813 5.6698 0.02978 1.8455 0.33488 2.2221 0.2977 2.6548-0.26233 0.41643-0.53899 0.562-0.55865 0.83682-0.11398 0.23412 0.37882 0.73689 0.4623 1.696 0.28237 0.74971-0.14065 1.8243-0.0799 2.3884 0.1346 0.90427 0.3438 1.0258 0.29329 1.0258-0.42728 0-0.76267 0.14416-0.79942 2.1507-0.54871 2.2234 0.27779 2.6838-0.03135 1.5041-1.0104-0.41633-0.3455-1.7048-0.54529-3.617-0.56017-4.0495-0.0315-4.5736-0.25044-4.5736-1.9119v-1.3454l2.6668-0.47654c2.3596-0.42169 2.7224-0.40339 3.1479 0.15808 0.74218 0.97924 4.0386 1.7347 4.9865 1.1427 0.4192-0.26179 1.0285-0.47597 1.354-0.47597 0.69224 0 0.76674-0.45097 0.17241-1.0453-0.29885-0.29884-0.12231-0.4945 0.614-0.6793 1.4899-0.37394 0.99095-1.2359-0.62432-1.0785-1.6527 0.16107-2.3267 0.72826-1.5218 1.2807 0.43424 0.29806 0.33315 0.32871-0.39464 0.11914-2.7418-0.78951-4.005-0.88598-7.2335-0.55215-8.0199 0.82927-9.2374 0.72136-5.9631-0.52752 4.0377-1.5401 6.4317-1.6398 10.362-0.43301 1.6275 0.49974 0.89798-0.45577-1.0046-1.3156-2.4458-1.1054-4.2452-1.075-7.5812 0.1283-3.1161 1.124-4.253 1.6843-4.8061 2.3678-0.21505 0.26574-0.78616 0.60072-1.2687 0.74403-0.67208 0.1996-0.82557 0.12607-0.65696-0.3133 0.12105-0.31545 0.51601-0.68175 0.87748-0.8139 1.1524-0.42134 2.4314-1.2722 2.9223-1.9434 0.42706-0.58404 1.8895-1.1105 6.1412-2.212 0.75269-0.195 2.5124-0.36434 3.9103-0.37631 2.3381-0.02003 2.4801-0.06821 1.771-0.60427-0.42394-0.32049-0.99027-0.49866-1.2584-0.39578-0.2681 0.10288-0.58647 0.02666-0.70737-0.16897-0.1209-0.19563 0.44543-0.52206 1.2584-0.7257 2.126-0.53255 10.981-1.324 11.465-1.0247 0.22481 0.13894 0.66547 0.03948 0.97944-0.22109 0.45731-0.37954 0.96382-0.27953 2.546 0.50346 1.7667 0.87431 2.0374 0.91463 2.5689 0.38318 0.48467-0.48467 0.49906-0.65524 0.0768-0.92788-0.39007-0.25184-0.30749-0.39184 0.33507-0.56819 0.469-0.12871 0.94741-0.48101 1.0631-0.7824 0.22142-0.57702-0.21991-0.7452-0.69878-0.26634-0.4112 0.4112-3.0043 0.11535-4.1445-0.47311-1.1881-0.61315-6.9668-0.17356-7.4231 0.56475-0.15909 0.25742-1.5026 0.62762-2.9853 0.82307-3.3271 0.43859-7.1745 1.6292-7.7438 2.3959-0.23423 0.31543-0.77786 0.67169-1.208 0.79214-0.43011 0.12045-1.0899 0.34624-1.4663 0.50117-1.1548 0.47539-0.7717-0.51868 0.4416-1.1461 0.6191-0.32015 1.231-0.85699 1.3598-1.1925 0.1924-0.50139 0.096-0.53601-0.53955-0.19589-0.51284 0.27446-0.77323 0.28013-0.77323 0.0166 0-0.21852 0.48426-0.50614 1.0757-0.63864 0.59139-0.1325 1.6792-0.39418 2.4176-0.58193 0.83909-0.21335 1.519-0.19509 1.8134 0.04926 0.47387 0.39328 5.2691-0.89429 6.3222-1.6977 0.26684-0.20358 1.356-0.43811 2.42-0.52122 1.064-0.08311 2.3969-0.32706 2.9618-0.54184 0.56491-0.21478 1.4323-0.39063 1.9279-0.39063 0.90162 0 5.1996-1.2447 6.6727-1.9325 0.94776-0.44251 5.0254-1.5866 5.6549-1.5866 0.95753 0-0.0444 0.70597-1.3494 0.9508-2.0324 0.38128-1.8255 1.3914 0.28868 1.409 0.91399 0.0076 2.1017 0.26543 2.6393 0.57277 0.53764 0.30734 1.4178 0.55912 1.9554 0.55959l0.97715 0.0011-0.87978-0.73429c-0.48387-0.40366-0.87977-0.83055-0.87977-0.94908 0-0.46264 3.2104-1.048 4.4613-0.81333 0.72686 0.13636 1.6813 0.05547 2.121-0.17985 0.52758-0.28235 0.88196-0.29424 1.0419-0.03551 0.13326 0.21564-0.0131 0.39177-0.32534 0.39177-0.31226 0-0.66471 0.25255-0.78297 0.56074-0.1465 0.38177 0.15191 0.64056 0.9359 0.81276 1.6812 0.36926 3.3102-0.10546 5.1738-1.5087 2.2211-1.6724 3.5367-2.2109 5.4052-2.2109 0.86424 0 1.9216-0.1874 2.3495-0.4164 0.4279-0.229 0.98151-0.34813 1.2303-0.26519zm21.084 0.0693c0.25764-0.09904 0.56572-0.0775 0.76809 0.12486 0.2497 0.2497 0.102 0.45615-0.425 0.59396-0.44432 0.11619-0.80817 0.06252-0.80817-0.11971 0-0.28016 0.20744-0.50007 0.46508-0.59912zm-30.794 0.53038c0.20079 0.11937 0.0252 0.35036-0.39062 0.5132-0.91632 0.35883-1.7338 0.4259-1.7338 0.14262 0-0.35076 1.7361-0.88668 2.1244-0.65582zm-6.8898 0.59682c0.28226-0.11295 0.61925-0.099 0.74918 0.03093 0.12993 0.12993-0.10101 0.2226-0.5132 0.20562-0.4555-0.01876-0.5479-0.11173-0.23598-0.23655zm36.315 0.0968c0.20698-0.01622 0.1349 0.2223-0.3196 0.72455-0.29442 0.32536-0.76227 0.86188-1.0396 1.1919s-0.6732 0.60026-0.87977 0.60026c-0.73798 0-0.35526-0.74162 0.88321-1.7109 0.66259-0.51856 1.1488-0.78966 1.3557-0.80588zm-6.3852 0.18844c0.40098 0.01435 0.60113 0.12432 0.47654 0.3259-0.32009 0.51793-1.511 0.74148-2.361 0.44332-0.68803-0.24135-0.66975-0.28743 0.20219-0.52065 0.67943-0.18172 1.2812-0.26294 1.6822-0.24858zm-6.3743 0.39693c0.23862-0.03519 0.37001 0.07053 0.37001 0.32132 0 0.18998-0.4809 0.43758-1.0682 0.54986-0.99882 0.19094-1.0191 0.16866-0.31617-0.34538 0.42964-0.31416 0.77576-0.49061 1.0144-0.5258zm1.7206 1.7693c1.297 0.22206 1.4409 0.32618 0.79959 0.57964-0.88013 0.34785-4.4962 0.47599-4.4962 0.15923 0-0.52685 2.2766-0.98198 3.6966-0.73887zm-38.926 0.94392c-1.421 0-5.0716 1.2867-4.9235 1.7355 0.0773 0.23433 1.9101 0.52594 4.2116 0.66957 2.2409 0.13985 4.602 0.43265 5.2471 0.65066 1.5589 0.52677 2.0562 0.54104 2.3478 0.0693 0.13385-0.21657-0.0757-0.50034-0.46566-0.63062-0.38998-0.13028-1.7973-0.74458-3.1279-1.3655-1.3305-0.6209-2.8109-1.1289-3.2894-1.1289zm31.906 0.3322c0.21505 0.12532-0.31281 0.44032-1.173 0.69992-2.4338 0.73448-3.3598 0.55399-1.173-0.22853 1.0753-0.38478 2.131-0.59671 2.3461-0.47139zm-27.543 0.05899c-0.22775 0-0.41411 0.17557-0.41411 0.39063 0 0.21505 0.0776 0.3912 0.1724 0.3912s0.2812-0.17615 0.41411-0.3912c0.13292-0.21506 0.0554-0.39063-0.1724-0.39063zm37.216 0.16668c0.18898 0.02466 0.29841 0.09823 0.29841 0.21651 0 0.21915-0.55733 0.39865-1.2383 0.39865-1.4238 0-1.3719-0.1707 0.16323-0.53897 0.31917-0.07657 0.5877-0.10084 0.77668-0.07618zm-17.981 0.29956c0.91398 0.06613 1.6311 0.29149 1.5934 0.50117-0.0835 0.46534-0.35588 0.50826-1.9841 0.31044-1.8905-0.2297-1.5432-0.95153 0.39063-0.81161zm-1.9382 1.4777c0.2306 0.01883 0.34209 0.06683 0.244 0.15178-0.0896 0.0776-0.95447 0.25642-1.9222 0.39693-1.2296 0.17852-1.5829 0.13776-1.173-0.13517 0.26369-0.1756 1.1354-0.32612 1.8924-0.39005 0.3785-0.03197 0.72822-0.04231 0.95882-0.02348zm-6.3703 1.5751c0.21505 0 0.39062 0.17557 0.39062 0.39063 0 0.21505-0.17557 0.3912-0.39062 0.3912-0.21506 0-0.39121-0.17614-0.39121-0.3912 0-0.21506 0.17615-0.39063 0.39121-0.39063zm-5.6469 1.173c0.30989 0 0.5636 0.17557 0.5636 0.39063 0 0.21505-0.36251 0.3912-0.80531 0.3912s-0.69594-0.17614-0.56303-0.3912c0.13291-0.21506 0.49485-0.39063 0.80474-0.39063zm-1.9491 2.5007c0.10437-0.01586 0.16667 0.0322 0.16667 0.14663 0 0.21838-0.26393 0.49824-0.58651 0.62202-0.32258 0.12379-0.58652 0.1638-0.58652 0.08935 0-0.07445 0.26394-0.35431 0.58652-0.62202 0.16903-0.14028 0.31547-0.22011 0.41984-0.23598zm-3.7436 0.62718c0.0202 0.02018-0.0976 0.17849-0.3408 0.48857-0.5108 0.65132-0.83223 0.8585-0.83223 0.53668 0-0.08119 0.30811-0.38873 0.68446-0.68388 0.31008-0.24318 0.46839-0.36155 0.48857-0.34137zm-134.41 2.8587c0.37635-0.09835 0.992-0.09835 1.3683 0 0.37635 0.09835 0.06824 0.1787-0.68446 0.1787-0.7527 0-1.0602-0.08035-0.68388-0.1787zm131.36 0.6604c0.23569 0 0.12584 0.33421-0.244 0.74288-0.73636 0.81367-2.1857 1.342-2.1857 0.79672 0-0.18817-0.26394-0.24063-0.58652-0.11685-0.32258 0.12379-0.58651 0.04895-0.58651-0.1661 0-0.54368 0.94645-0.85171 1.873-0.60943 0.42658 0.11156 0.89394 0.01155 1.0384-0.22223 0.14449-0.23379 0.45563-0.42499 0.69133-0.42499zm-141.42 1.2486c0.12038 0.12039-0.09665 0.33887-0.48227 0.48571-0.55726 0.2122-0.60208 0.16737-0.2188-0.2188 0.26523-0.26722 0.58068-0.3873 0.70107-0.26691zm21.714 0.27608c0.30982 0.08586 1.0467 0.23752 1.6381 0.33736 0.5914 0.09984 1.0757 0.33744 1.0757 0.52809 0 0.19065-0.80467 0.3471-1.7882 0.3471-1.4994 0-1.7642-0.11071-1.6387-0.68446 0.0823-0.37635 0.40328-0.61396 0.71309-0.52809zm-4.0747 0.03952c0.93773 0 1.7051 0.17557 1.7051 0.39063 0 0.21505-0.7674 0.3912-1.7051 0.3912-0.93773 0-2.5213 0.11182-3.5191 0.24858-1.1145 0.15276-1.814 0.09817-1.814-0.14205 0-0.4354 2.719-0.88836 5.333-0.88836zm-7.4838 0.74975c0.21506 0.02414 0.12727 0.2148-0.19532 0.42328-0.32258 0.20847-1.8184 0.36109-3.3238 0.33965-2.4607-0.03504-2.5792-0.07012-1.173-0.35053 1.4933-0.29781 3.8589-0.50588 4.6921-0.41239zm99.013 0.5069c1.649-0.13424 3.1988-0.01378 3.5815 0.44733 0.61767 0.74425 0.44147 0.83588-2.3002 1.2034-0.96774 0.12972-2.7269 0.51498-3.9097 0.85572-1.1828 0.34073-2.8873 0.85043-3.7877 1.1329-1.4883 0.46695-1.6161 0.45425-1.4056-0.13861 0.39397-1.1093 0.95582-1.6295 1.7596-1.6295 0.42434 0 1.2723-0.35683 1.8844-0.79271 0.78058-0.55582 2.5288-0.94428 4.1778-1.0785zm28.035 0.14205-1.1581 1.4514c-1.0986 1.3769-1.7441 1.8052-1.7441 1.1576 1e-5 -0.16129 0.65277-0.81405 1.4508-1.4508zm-116.67 1.1266c0.64805-0.07439 1.0517-0.0537 1.1719 0.06644 0.35725 0.35726-3.6191 1.3132-13.697 3.2923-3.8549 0.75706-4.9139 0.8467-5.8056 0.49143-0.3691-0.14706-0.21778-0.41316 0.50575-0.88779 0.74762-0.49043 1.5506-0.62804 2.9068-0.49774 1.8948 0.18207 6.0042-0.47415 12.279-1.9606 1.0983-0.26017 1.9907-0.42964 2.6387-0.50404zm13.379 0.07217c0.7342-0.06217 3.706 1.2145 4.0237 1.7286 0.1847 0.29885 0.0323 0.37944-0.45535 0.24056-0.40328-0.11486-1.4813-0.32524-2.3953-0.46738-1.3659-0.21242-1.6616-0.14775-1.6616 0.36256 0 0.51357-0.52394 0.62135-3.0305 0.62317-1.6667 0.0012-3.6462 0.1599-4.3988 0.35282-1.957 0.50158-6.647 0.84475-6.647 0.48628 0-0.16631 0.83598-0.50298 1.8575-0.74803 7.3711-1.7683 7.5316-1.7903 9.5704-1.3197 2.1795 0.50309 2.6232 0.37912 1.8741-0.52351-0.40798-0.49159-0.38353-0.60462 0.13976-0.64494 0.34891-0.02689 0.85438-0.06773 1.1232-0.0905zm-22.168 0.1787c0.73363-0.05268 1.0613 0.0466 0.32304 0.34481-0.45546 0.18399-1.6873 0.4316-2.7373 0.55043l-1.9085 0.21593 1.5637-0.54528c0.88569-0.3088 2.0254-0.51321 2.759-0.5659zm8.2713 1.5877c0.0249 0.06307-0.18732 0.19186-0.66842 0.39063-0.53764 0.22212-2.5613 0.73609-4.4968 1.1427-5.313 1.1161-5.6814 0.83469-0.58651-0.4479 3.4695-0.87341 5.6769-1.2746 5.7517-1.0854zm-20.439 0.02463c0.17483 0.03768 0.20509 0.15396 0.13689 0.35855-0.18727 0.56182-3.0448 1.2079-3.0448 0.68847 0-0.42246 0.37402-0.60579 1.9039-0.93418 0.50977-0.10943 0.82923-0.15051 1.0041-0.11283zm-4.644 0.11455c0.1063 0.0278 0.1724 0.09689 0.1724 0.20104 0 0.2083-0.26393 0.3786-0.58652 0.3786s-0.58651-0.06898-0.58651-0.1535c0-0.08452 0.26393-0.25481 0.58651-0.3786 0.16129-0.06189 0.30781-0.07535 0.41411-0.04754zm-12.782 0.04067c0.21706-0.0056 0.30502 0.05343 0.22051 0.19016-0.1187 0.19206-0.42662 0.34881-0.68446 0.34881-0.25784 0-1.3085 0.44696-2.3346 0.99318-1.0261 0.54623-3.4881 1.4149-5.4711 1.9302s-4.8369 1.3113-6.3423 1.7687c-3.5716 1.0853-4.4968 1.3057-4.4968 1.0722 0-0.10563 1.2755-0.58334 2.8346-1.0619 1.5591-0.47858 4.0787-1.2927 5.5988-1.8088 1.5201-0.51614 3.1037-0.94009 3.5191-0.9422 0.41543-0.0021 1.7228-0.46296 2.9057-1.0241 1.788-0.84826 3.5993-1.4494 4.2505-1.4663zm116.6 0.53897c1.0521 0 0.9402 0.33988-0.2629 0.79729-0.66651 0.25341-0.94052 0.58726-0.79443 0.96798 0.1349 0.35154-4e-3 0.58079-0.3511 0.58079-0.31584 0-0.57449-0.25123-0.57449-0.55845 0-0.79798 1.0977-1.7876 1.9829-1.7876zm-61.752 0.47769c2.0926-0.15446 5.6088 0.41006 6.4053 1.2509 0.50106 0.52903 1.6023 1.2205 3.1187 1.9589 1.1234 0.54696 2.9326 1.9409 2.9326 2.2596 0 0.08364-0.57147 0.08704-1.2704 0.0074-0.69893-0.07959-1.975 0.03174-2.8352 0.24744-0.86022 0.21569-1.9397 0.5075-2.3993 0.64837s-0.94809 0.07438-1.0854-0.14778c-0.27928-0.45187 2.0957-1.2229 3.778-1.2263 0.5914-0.0012 1.0757-0.15712 1.0757-0.3471 0-0.48574-1.5712-0.84095-2.5895-0.58537-0.70546 0.17706-0.89909 0.0055-1.118-0.99146-0.28526-1.2988-0.76423-1.5626-1.1261-0.61974-0.1247 0.32496-0.71023 0.58852-1.3128 0.5911-1.557 0.0067-5.3568 1.0743-5.5152 1.5493-0.0736 0.22085-0.9111 0.40151-1.8609 0.40151-1.4032 0-1.7269-0.13243-1.7269-0.70508 0-0.98836 3.4546-2.2045 5.2861-1.8609 0.79215 0.14861 1.3609 0.09714 1.3609-0.12314 0-0.52593-2.4817-1.2945-3.2402-1.0035-0.34234 0.13137-0.94113 0.05354-1.3305-0.17297-0.60726-0.35323-0.53631-0.41365 0.49774-0.42385 0.66308-0.0065 1.3341-0.14041 1.4909-0.29727 0.22764-0.22764 0.76705-0.35862 1.4646-0.4101zm-47.831 0.3597c0.09824 0.0418 0.07217 0.13297 0.07217 0.24915 0 0.33655-4.3507 1.5331-10.362 2.8495-2.1505 0.47095-5.1416 1.2508-6.647 1.7332-3.5677 1.1433-5.5942 1.5688-5.0833 1.0676 0.54426-0.53388 7.6229-2.8266 8.7267-2.8266 0.49748 0 1.2887-0.20654 1.7584-0.45879 0.46974-0.25224 1.9097-0.689 3.2001-0.97084 6.623-1.4466 8.0402-1.7687 8.3349-1.6433zm20.232 0.33564c0.09484 0 0.1724 0.17615 0.1724 0.3912s-0.18636 0.3912-0.41411 0.3912c-0.22775 0-0.30531-0.17614-0.1724-0.3912s0.31928-0.3912 0.41411-0.3912zm-17.123 0.96855c0.04209 0.04597-0.12848 0.18-0.47998 0.43702-0.85927 0.62831-1.3838 0.70606-1.3838 0.20448 0-0.18998 0.48033-0.43759 1.0676-0.54986 0.49941-0.09547 0.75406-0.13761 0.79615-0.09164zm6.5588 0.6667c1.0264 0.13583 0.28802 0.64129-1.9829 0.92502-1.1824 0.14773-2.5427 0.56014-3.0236 0.917-1.247 0.92537-2.5705 1.5079-4.589 2.019-0.96775 0.24506-1.9357 0.57891-2.1507 0.74174-0.21506 0.16282-0.96268 0.48833-1.6616 0.7234-1.8108 0.60903-1.6099-0.16994 0.25202-0.97657 0.88796-0.38469 1.4454-0.86198 1.3368-1.145-0.24754-0.64509 7.1103-2.9512 10.196-3.1955 0.74294-0.05882 1.2811-0.05444 1.6232-0.0092zm-11.119 0.32018c1.1669 0-0.41405 0.75503-3.1943 1.5259-3.2575 0.90314-3.8333 0.98766-3.2791 0.47998 0.4105-0.37604 5.6704-2.0058 6.4734-2.0058zm38.289 0.13689c0.57826-0.0498 0.98977-0.04809 1.0705 0.03265 0.19392 0.19392-0.67129 0.41148-3.2321 0.81218-0.86022 0.1346-2.0043 0.34333-2.542 0.46394-0.69946 0.15691-0.86362 0.09649-0.57792-0.21135 0.31085-0.33494 3.5467-0.94804 5.2815-1.0974zm84.538 1.3311c0.55383-0.18461 3.5577 0.90091 3.7533 1.3563 0.19144 0.44565 3.497 0.37054 3.7791-0.08592 0.15185-0.24572 0.6587-0.17372 1.3724 0.19532 0.62228 0.32179 1.4623 0.58537 1.8672 0.58537 1.3074 0 1.3046 0.51994-6e-3 1.0751-2.1984 0.93102-5.3599 0.93732-7.1997 0.01431-1.069-0.53633-1.8681-0.706-2.3461-0.49831-0.39864 0.17324-0.86541 0.28396-1.0373 0.24629-0.17187-0.03767-1.7119-0.09497-3.4217-0.12715-1.7099-0.03218-3.1084-0.20498-3.1084-0.38433 0-0.17935 0.57147-0.34366 1.2704-0.36485 0.69893-0.0212 1.6227-0.07651 2.0528-0.12314 0.43011-0.04664 1.1783-0.11724 1.6622-0.15694 0.58123-0.04769 0.87977-0.32622 0.87977-0.82135 0-0.41219 0.217-0.82228 0.48227-0.9107zm-108.67 0.19589c0.18025 0.02566 0.27207 0.11147 0.27207 0.25717 0 0.24298-0.48426 0.65595-1.0757 0.91815-0.5914 0.2622-1.6557 0.86395-2.3655 1.3368-0.7098 0.47289-2.2934 1.0542-3.5191 1.2922-4.3365 0.84204-5.7753 1.139-8.2891 1.7091-7.1712 1.6264-8.2752 0.9971-1.5986-0.91127 2.2093-0.63149 4.7483-1.4876 5.6423-1.9022 0.89408-0.41456 2.6812-0.9678 3.9716-1.2292 3.148-0.63764 4.868-1.0194 6.1584-1.3666 0.35464-0.09543 0.62334-0.12991 0.80359-0.10424zm-10.014 0.04124c-0.2181-0.21809-3.7906 0.82048-3.7906 1.102 0 0.45774 3.2607-0.09288 3.5953-0.60714 0.1496-0.22994 0.2377-0.45248 0.19532-0.49487zm18.344 0.91528c2.0462-0.02839 3.672 0.03454 3.672 0.2062 0 0.16561-0.33044 0.30128-0.73429 0.30128-0.40385 0-1.416 0.29168-2.2487 0.64837-0.83272 0.35669-3.0096 0.7733-4.8376 0.92559-1.828 0.1523-3.6755 0.40242-4.1056 0.55616-0.70834 0.25319-0.72064 0.22923-0.13403-0.25717 0.44497-0.36896 0.53858-0.73091 0.30013-1.157-0.29315-0.52384 0.0012-0.66079 1.8941-0.88034 1.681-0.19497 4.1478-0.31471 6.1939-0.34309zm40.185 0.81619c0.50343 0.11067 0.99978 0.41253 1.885 0.99203 1.1121 0.72805 1.8758 1.5202 1.8758 1.9451 0 0.53902 0.1942 0.65521 0.7824 0.46852 0.48327-0.15338 1.1934 0.04369 1.8575 0.51549 0.59126 0.42005 1.7131 1.0299 2.4933 1.3552 0.78021 0.32524 1.5386 0.78539 1.6851 1.0224 0.14647 0.237 0.58903 0.43072 0.98344 0.43072s0.81517 0.25484 0.93475 0.56647c0.14656 0.38191 0.0294 0.49447-0.35912 0.34538-0.83175-0.31917-7.5949 1.9103-7.5949 2.5036 0 0.27217 0.3959 0.51295 0.87977 0.53497 0.62874 0.02859 0.4889 0.14414-0.48914 0.40609-1.3808 0.36981-7.0806 0.61606-9.9708 0.43072-4.2506-0.2726-5.4338-1.021-2.346-1.484 1.4889-0.22327 1.7595-0.40016 1.7595-1.1484 0-1.1526 2.1294-1.6903 3.125-0.78927 0.36131 0.32698 1.3778 0.58938 2.2825 0.58938 1.1891 0 1.6307 0.15891 1.6307 0.58651 0 0.64696 0.80673 0.78489 1.3884 0.23713 0.2043-0.1924 1.163-0.53363 2.1307-0.75777 4.7324-1.0961 5.4723-1.3711 4.9888-1.8546-0.1236-0.1236-1.8108 0.11933-3.7493 0.53955-2.6205 0.56804-3.4759 0.63759-3.3352 0.27092 0.10409-0.27125 0.88224-0.60401 1.7292-0.73944 0.84694-0.13543 1.5396-0.44009 1.5396-0.67701 0-0.25721-0.47732-0.36105-1.1851-0.25718-0.81428 0.11951-1.0589 0.04795-0.78183-0.22911 0.22181-0.22181 0.40323-0.6405 0.40323-0.93075 0-0.41382-0.50639-0.47046-2.3461-0.26233-1.639 0.18543-2.346 0.13204-2.346-0.17641 0-0.24283 0.49393-0.4416 1.098-0.4416s1.44-0.25817 1.8575-0.57391c0.7489-0.56644 0.7487-0.57432-0.0229-0.58709-0.43011-0.0071-2.2191 0.18765-3.975 0.43301-3.2912 0.4599-4.911 0.26875-4.152-0.49029 0.22593-0.22593 1.222-0.41067 2.2132-0.41067 0.99122 0 1.8988-0.15627 2.0167-0.3471 0.29911-0.48397-1.5036-0.87804-3.1422-0.68675-1.4956 0.17461-1.9081-0.34709-0.488-0.61744 0.48387-0.09212 1.7514-0.34324 2.8163-0.55788 0.91343-0.18412 1.4239-0.26474 1.9274-0.15408zm51.073 0.8603c0 0.16711-0.3959 0.40987-0.87978 0.53955-1.0273 0.2753-2.8495 0.3259-2.5958 0.07217 0.35527-0.35527 3.4756-0.90442 3.4756-0.61171zm-61.646 0.02978c0.53919 0.05534 1.0755 0.18553 1.547 0.40036 0.69663 0.31741 0.8906 0.65971 0.76006 1.3426-0.15103 0.79004 0.0407 0.97431 1.3912 1.338 1.286 0.34629 1.5306 0.56148 1.3638 1.1994-0.24547 0.93869 0.56755 1.0372 1.6708 0.20276 0.93457-0.70688 2.2509-0.778 2.0333-0.10997-0.0876 0.26882-0.59274 0.70013-1.1226 0.95881-1.0956 0.53486-5.3202 1.2694-5.6137 0.976-0.10645-0.10645-0.0897-0.60718 0.0372-1.1129 0.21034-0.83805 0.1055-0.91986-1.1805-0.91986-0.77601 0-1.4107-0.14029-1.4107-0.31216s0.61565-0.2408 1.3683-0.15293c1.5996 0.18674 1.711-0.17499 0.42729-1.3918-0.68663-0.65086-1.3971-0.87977-2.7304-0.87977-0.9912 0-1.8025-0.14126-1.8025-0.3133 0-0.88727 1.6438-1.3912 3.2613-1.2251zm-22.56 0.23712c1.5162-0.01578 3.3014 0.01654 4.4401 0.10596 0.52135 0.04094 0.52135 0.0829 0 0.37688-0.32258 0.1819-2.2579 0.42195-4.3009 0.53382-2.0778 0.11378-4.7914 0.54801-6.1584 0.98516-1.3441 0.42983-2.444 0.72929-2.444 0.66556 0-0.34922 2.9141-1.755 4.0987-1.9772 0.76125-0.14281 1.4533-0.37171 1.5379-0.50862 0.06298-0.10195 1.3104-0.1658 2.8266-0.18157zm-59.677 0.0034c0.20517 0.02235 0.13792 0.14618-0.09852 0.38261-0.67505 0.67506-3.4286 1.1788-3.4286 0.62718 0-0.2147 0.89507-0.56778 1.9892-0.78412 0.85494-0.16904 1.3327-0.24802 1.5379-0.22567zm25.989 0.70107c0.06556 0.02751 0.07021 0.09938 0.0018 0.2102-0.13139 0.21259-0.4042 0.38662-0.60656 0.38662-0.56244 0-0.43855-0.28075 0.23884-0.54069 0.17398-0.06676 0.30044-0.08363 0.366-0.05613zm120.74 0.14491c2.5722-0.04482 3.3514 0.29741 1.393 0.61171-2.5463 0.40865-6.9963 0.57355-6.7976 0.25202 0.2703-0.43736 2.6379-0.81553 5.4046-0.86373zm-126.42 0.05613c0.50477 0.31197 0.1722 0.41945-7.8131 2.5202-2.9032 0.76377-5.6303 1.3779-6.0605 1.3649l-0.7824-0.02349 0.7824-0.32533c4.3127-1.7957 5.5849-2.2253 6.2558-2.1112 0.43011 0.07316 1.1341-0.01645 1.5642-0.19932 1.6266-0.69156 5.612-1.4986 6.0536-1.2257zm48.191 0.22739c0.19763-0.01768 0.32995 0.0124 0.40495 0.09909 0.15 0.17337 0.0704 0.57399-0.17412 1.2756-0.42404 1.2164-0.32414 1.1905-5.2082 1.3506-1.0753 0.03525-2.8786 0.19435-4.0077 0.35397-3.2233 0.45571-2.4813-0.3969 0.97714-1.1226 3.1542-0.66188 5.4182-1.2173 7.2111-1.7699 0.33615-0.1036 0.59909-0.16904 0.79672-0.18672zm-63.215 0.16839c0.30989 0 0.5636 0.17557 0.5636 0.39063s-0.36251 0.3912-0.80531 0.3912c-0.4428 0-0.69652-0.17615-0.5636-0.3912 0.13291-0.21505 0.49542-0.39063 0.80531-0.39063zm35.342 0c1.1149 0-0.19158 0.68693-2.8793 1.5138-2.6671 0.82054-3.6695 1.0153-3.2951 0.64093 0.32362-0.32362 5.5709-2.1548 6.1744-2.1548zm-45.042 0.01261c0.05376-7e-3 0.09737 0.13214 0.09737 0.3093s-1.4516 0.79366-3.2258 1.3701c-3.5526 1.1542-3.9726 1.2304-3.6165 0.6541 0.13291-0.21505 0.64154-0.3912 1.1306-0.3912 0.48909 0 1.003-0.11402 1.1421-0.25316 0.19459-0.19459 3.9824-1.6251 4.4722-1.6891zm5.2529 0.05728c0.30575-0.08376 0.31903 0.01818 0.31903 0.22911 0 0.16458-0.85981 0.60466-1.9102 0.97771-2.7109 0.96284-2.9546 0.80034-0.48341-0.3219 1.1707-0.53163 1.7688-0.80116 2.0746-0.88492zm22.924 0.05384c0.28226-0.11295 0.61982-0.099 0.74975 0.03093 0.12993 0.12993-0.10101 0.22203-0.5132 0.20505-0.4555-0.01877-0.54847-0.11116-0.23655-0.23598zm138.12 0.26691c0.20237-3e-6 0.36772 0.26393 0.36772 0.58651 0 0.60466-0.46119 0.77713-0.90154 0.33678-0.31238-0.31239 0.0408-0.9233 0.53382-0.9233zm-9.5538 0.82879c1.6598-0.0631 3.6657 0.36582 3.6657 0.78412 0 0.43107-0.49367 0.39149-2.9326-0.23541-1.6797-0.43176-1.783-0.5088-0.73314-0.54871zm-152.13 0.73546c0.33528 0 0.5012 0.17614 0.36829 0.3912-0.13291 0.21506-0.40763 0.39063-0.61 0.39063-0.20236 0-0.36772-0.17557-0.36772-0.39063 0-0.21505 0.27415-0.3912 0.60943-0.3912zm115.22 0.39979c0.50244-0.01636 0.73655 0.09848 0.47539 0.35225-0.2043 0.19853-1.3086 0.52903-2.4543 0.73429-2.2292 0.39937-2.2825 0.07607-0.1071-0.65124 0.81277-0.27174 1.5836-0.41894 2.086-0.4353zm-4.8072 0.05613c0.5009-0.07331 0.79048 0.03431 0.65982 0.24572-0.35783 0.57898-1.8821 0.88602-1.7034 0.34309 0.0829-0.2519 0.55269-0.51696 1.0436-0.5888zm-55.868 0.32591c0.20236-3e-6 0.36829 0.17614 0.36829 0.3912s-0.27472 0.3912-0.61 0.3912-0.50063-0.17614-0.36772-0.3912c0.13291-0.21505 0.40706-0.3912 0.60943-0.3912zm76.443 0c0.30989-3e-6 0.56303 0.17614 0.56303 0.3912s-0.36193 0.3912-0.80474 0.3912c-0.4428 0-0.69651-0.17614-0.5636-0.3912s0.49542-0.3912 0.80531-0.3912zm33.117 0.07045c0.1656 0.12168 0.29421 0.42387 0.38662 0.90726 0.10277 0.53764 0.0419 0.97771-0.13575 0.97771-0.45147 0-1.1591-1.4081-0.85857-1.7086 0.23949-0.2395 0.4421-0.29809 0.6077-0.17641zm-11.938 0.29154c0.15591-0.01613 0.34621 0.15944 0.42327 0.39063 0.15955 0.47865-1.2115 0.49422-2.6616 0.02978-0.8724-0.27939-0.82002-0.31747 0.48857-0.35225 0.80646-0.02144 1.5939-0.05203 1.7498-0.06816zm-78.52 0.0779c0.1181-0.01123 0.23447 0.02082 0.32763 0.11398 0.13264 0.13265 0.0526 0.42962-0.17756 0.65983-0.28082 0.28081-0.49936 0.28768-0.66441 0.02062-0.20827-0.33698 0.16006-0.76076 0.51434-0.79443zm54.708 0.35683c0.17129-0.0579 0.41862 0.10043 0.58251 0.52752 0.14149 0.36873 0.83855 0.53176 2.1828 0.51148 2.0948-0.0316 2.9147 0.332 2.0098 0.89123-0.30122 0.18616-0.586 0.60025-0.63291 0.91986-0.0753 0.51297 0.0757 0.5137 1.2887 0.0069 0.75581-0.3158 1.6441-0.47075 1.9738-0.34423 0.50094 0.19223 0.45063 0.38886-0.30758 1.1959-0.49902 0.53118-0.77965 1.0933-0.62374 1.2492 0.15591 0.15591 0.43177 0.04306 0.61343-0.25087 0.18166-0.29393 0.60761-0.42835 0.94621-0.29841 0.33859 0.12993 0.75232 0.0049 0.91929-0.27837 0.34231-0.58071 4.018-1.1094 4.018-0.57792 0 0.18864-0.24216 0.34309-0.5384 0.34309-0.77327 0-1.5661 1.0348-1.0413 1.3592 0.22747 0.14058 1.1603-0.24074 2.0723-0.84712 1.8938-1.2591 3.4504-1.3082 3.1342-0.09909-0.22784 0.87128 0.5865 1.0532 0.91242 0.2039 0.35049-0.91335 1.3882-1.0726 2.2-0.33793 0.72777 0.65862 0.78437 0.6558 1.3116-0.0653 0.72465-0.99102 0.69625-1.3867-0.10023-1.3867-0.35843 0-0.55162-0.10019-0.429-0.22281 0.12262-0.12262 0.98804 0.03692 1.9228 0.35454 1.3649 0.46378 1.6751 0.73851 1.5768 1.3958-0.12972 0.86788 0.83947 1.1651 1.3111 0.40208 0.35797-0.5792 1.7503 0.72811 1.4921 1.401-0.1097 0.28588 0.16607 0.71512 0.61286 0.95423 0.44679 0.23911 0.81219 0.6174 0.81219 0.84025 0 0.53225 1.0021 1.5224 1.5407 1.5224 0.27292 0 0.34366-0.59144 0.19875-1.6622-0.18654-1.3784-0.14633-1.5368 0.23713-0.92903 0.43854 0.69501 1.4989 4.5869 1.5287 5.6114 0.0104 0.35807-0.24997 0.37885-1.031 0.08191-0.57472-0.2185-1.2677-0.31166-1.5396-0.20734-0.35131 0.1348-0.48786-0.27915-0.47196-1.4302 0.0184-1.3364-0.19197-1.8107-1.204-2.7149-0.6745-0.60266-1.6193-1.1097-2.0998-1.1266-0.48048-0.01698-0.65372-0.11949-0.3849-0.22796 0.83334-0.33626 0.53684-0.97569-0.3912-0.84369-0.55708 0.07923-0.85974 0.37616-0.82536 0.80932 0.0299 0.37624-0.1021 0.68388-0.29325 0.68388-0.19116 0-0.34767-0.17557-0.34767-0.39063 0-0.78641-1.5293-0.36294-2.3203 0.64264-0.84253 1.0711-0.85748 1.9144-0.0876 4.9401 0.525 2.0634 1.0446 2.5515 3.0322 2.8495 2.0708 0.31054 3.8002-0.30024 4.3662-1.5425 0.33134-0.72721 0.64159-0.84956 1.8105-0.7131 0.86481 0.10096 1.4102 0.37512 1.4102 0.70851 0 0.73339 0.26391 0.68751 1.6244-0.28123 0.63699-0.45357 1.2796-0.70222 1.4285-0.55272 0.50396 0.50596-1.5667 1.7687-2.9005 1.7687-1.0873 0-1.3254 0.14784-1.3254 0.82421 0 0.68765 0.16506 0.78305 0.99375 0.57506l0.99318-0.24915-0.64838 1.2538c-0.61147 1.1824-0.60788 1.2834 0.059 1.771 0.38895 0.28441 0.93737 0.51721 1.2188 0.51721s0.50127 0.30811 0.48857 0.68446c-0.0381 1.1283-1.68 4.1001-2.5185 4.5581-0.43011 0.23495-0.85088 0.46688-0.93533 0.51549-0.0845 0.04861 0.23444 1.1524 0.70851 2.4526 0.47408 1.3002 0.79808 2.932 0.72054 3.6262-0.16411 1.4694-0.29389 1.221-1.4674-2.8037-0.46387-1.5909-1.0998-3.2841-1.4136-3.7631-0.5218-0.79638-0.50294-0.889 0.22396-1.0791 0.52866-0.13825 0.795-0.53097 0.795-1.1736 0-0.53143 0.29422-1.2078 0.6541-1.5029 0.5886-0.48273 0.62538-0.43888 0.366 0.44046-0.49981 1.6944-0.45267 2.117 0.25087 2.2624 0.49353 0.10199 0.68751-0.1123 0.69649-0.76751 7e-3 -0.49963 0.27077-1.2499 0.58651-1.6673 0.73149-0.96712 0.72753-1.3913-0.0126-1.3913-0.32258 0-0.58651 0.18743-0.58651 0.41697 0 0.24268-0.33511 0.31102-0.80073 0.16324-1.1654-0.36987-1.8646 0.39892-3.479 3.8227-1.4407 3.0553-1.976 3.4397-1.976 1.4199 0-1.2819-0.59181-1.7925-1.0757-0.92789-0.33943 0.60652-1.6616 0.43698-1.6616-0.21307 0-0.47264 3.003-3.5088 3.4704-3.5088 0.22191 0 0.10685 0.51654-0.25546 1.1478-0.91334 1.5914-0.22866 2.0412 0.93132 0.61172 1.0048-1.2381 1.2439-1.4882 2.6135-2.7327 0.79112-0.71882 0.80217-0.78805 0.14148-0.91528-0.39307-0.0757-1.1391 0.26098-1.6576 0.74803-0.78959 0.74178-0.94278 0.7792-0.94278 0.23083 0-0.79657-0.34694-0.81078-1.3454-0.05556-0.83803 0.63386-3.3467 0.78842-3.3467 0.2062 0-0.20236 0.17614-0.47709 0.3912-0.61 0.85236-0.52679 0.31148-0.97714-1.173-0.97714-1.7894 0-1.8568-0.10966-0.78183-1.2635 0.82709-0.88778 1.004-1.4737 0.44504-1.4737-0.18523 0-0.25284-0.44008-0.15006-0.97771 0.2786-1.4574-0.70741-1.2276-1.8346 0.42728-0.80918 1.188-0.87948 1.5165-0.46623 2.1782 0.38626 0.61852 0.38713 0.89983 4e-3 1.3615-0.64541 0.77767-2.5313 1.7318-2.8306 1.4325-0.3347-0.33469 0.97556-1.2663 1.8019-1.2813 0.37635-0.0068 0.68446-0.17707 0.68446-0.3786 0-0.40391-2.207-0.17385-4.2299 0.44103-1.0883 0.33081-1.3798 0.28004-1.8145-0.31445-0.44687-0.61112-0.60797-0.63403-1.169-0.1684-0.59728 0.49569-0.60877 0.44884-0.14434-0.57048 0.36671-0.80485 0.38396-1.1508 0.063-1.2578-0.24332-0.08115-0.35314-0.48874-0.244-0.90612 0.10915-0.41737 0.36637-0.65495 0.57162-0.52809 0.20527 0.12686 0.27868 0.47642 0.16324 0.77725-0.31088 0.81016 0.45564 0.66323 1.2246-0.23484 0.36827-0.43011 1.0704-0.78183 1.5602-0.78183 0.75719 0 0.89066 0.20486 0.89066 1.3683 0 0.89668 0.18471 1.3683 0.53496 1.3683 0.74748 0 2.6314-2.964 2.3501-3.6972-0.26112-0.68045-1.1499-0.80502-1.5161-0.2125-0.4333 0.70109-1.0741 0.41103-0.86431-0.3912 0.15001-0.57361 0.0121-0.78183-0.51778-0.78183-0.39728 0-0.83105 0.17557-0.96397 0.39063-0.13291 0.21506-0.5016 0.3912-0.81905 0.3912-0.45604 0-0.48933-0.16398-0.15866-0.78183 0.35368-0.66085 0.29715-0.7824-0.36371-0.7824-0.43011 0-0.98596 0.3959-1.2355 0.87977-0.24949 0.48387-0.80922 1.2705-1.244 1.7481-0.47639 0.52324-0.8068 1.4556-0.83109 2.3461-0.0327 1.2006-0.17366 1.4551-0.75089 1.3569-0.39076-0.0665-1.2804 0.21547-1.9772 0.62661-0.69683 0.41114-1.9388 0.87355-2.7596 1.0275l-1.4926 0.28008 0.25546-1.3592c0.16268-0.86718 0.0959-1.412-0.18386-1.5052-0.24113-0.08038 0.0621-0.38079 0.67357-0.66785 1.5933-0.748 1.8652-0.91106 3.2671-1.9566 1.1449-0.85384 1.2204-0.86684 0.83338-0.14376-0.23397 0.43717-0.69441 0.89803-1.023 1.0241-0.32856 0.12608-0.5974 0.41053-0.5974 0.63234 0 0.63127 1.4113 0.47239 1.9892-0.22395 0.28631-0.34499 0.92374-0.78065 1.4165-0.96798 0.49271-0.18732 0.8958-0.58569 0.8958-0.8855 0-0.76038-3.3932-0.7951-5.4877-0.05613-1.4447 0.50971-1.606 0.50903-1.4079-0.0074 0.14014-0.3652-7e-3 -0.58365-0.39234-0.58365-0.42751 0-0.53476-0.20962-0.34996-0.68446 0.43374-1.1145 0.42741-1.3594-0.0395-1.5322-0.7556-0.27964-1.7836 1.0758-1.543 2.0345 0.18841 0.75068 0.0297 0.91408-1.0911 1.1243-0.72135 0.13533-1.6434 0.61285-2.0488 1.0608-0.40537 0.44792-1.2245 1.066-1.8203 1.3741-0.9606 0.49674-1.1101 0.48973-1.322-0.06243-0.13276-0.34597-0.4916-0.52564-0.8076-0.40438-0.34397 0.13199-0.50599 0.02484-0.40953-0.27092 0.0877-0.26897 0.88855-0.66779 1.7796-0.88665 1.8077-0.44399 2.2191-0.76689 2.6055-2.0459 0.36506-1.2083-0.78676-1.1823-2.1118 0.04754-1.3152 1.2207-2.8212 1.5546-3.7705 0.83624-0.71082-0.5379-0.69433-0.5661 0.32819-0.57792 0.6896-8e-3 1.0751-0.22297 1.0751-0.59912 0-0.36895-0.3724-0.58651-1.0035-0.58651-1.59 0-2.5156 0.68912-2.5156 1.873 0 0.87758-0.25645 1.1531-1.4663 1.5745-2.4397 0.84976-3.2258 0.97342-3.2258 0.50804 0-0.24012 0.25122-0.43645 0.55845-0.43645 0.79797 0 1.7876-1.0977 1.7876-1.9829 0-1.2422-1.1098-0.86462-2.9532 1.0052-0.95404 0.96774-1.9115 1.7595-2.1278 1.7595-0.60958 0-0.46321-0.77952 0.1936-1.0316 0.91269-0.35023 0.69006-0.9233-0.35856-0.9233-0.56669 0-1.2809 0.4302-1.7842 1.0751-0.55232 0.70769-0.90849 0.90819-1.0424 0.58652-0.11193-0.26882-0.58507-0.50751-1.051-0.53038-0.75055-0.03685-0.72466-0.0898 0.22797-0.46623 0.5914-0.23369 1.0757-0.58674 1.0757-0.78469 0-0.74453-3.7423 0.41533-6.3795 1.9772-0.81701 0.48386-1.7335 0.87977-2.0362 0.87977-0.30273 0-0.72131 0.32004-0.93075 0.71138-0.4314 0.80608-3.4078 1.9251-3.8524 1.4485-0.16022-0.17175-0.0461-0.39903 0.25317-0.50518 0.92087-0.32665 3.6248-2.9448 3.9647-3.8387 0.25395-0.66796 0.63541-0.84233 1.8162-0.82937 1.8273 0.02009 4.8187-0.78871 4.8187-1.303 0-0.20676-0.35229-0.37574-0.7824-0.37574-0.4494 0-0.78183-0.26067-0.78183-0.61286 0-0.46112-0.21784-0.54085-0.87977-0.32189-0.48387 0.16005-1.8035 0.25728-2.9326 0.21593-1.178-0.04314-2.0528 0.09349-2.0528 0.32132 0 0.21837 0.35172 0.3975 0.78183 0.3975 1.2465 0 0.90481 0.65952-0.48571 0.93762-0.74511 0.14902-1.3226 0.08858-1.401-0.14663-0.16593-0.4978-1.507-0.52799-1.8082-0.04067-0.12223 0.19778-1.4745 0.74737-3.0053 1.2211-2.031 0.6286-3.325 0.80118-4.7866 0.63921-1.2811-0.14197-2.5663-0.02023-3.5666 0.33736-1.6754 0.59892-4.1056 0.76159-4.1056 0.27493 0-0.47128 2.9604-1.2667 4.7838-1.2853 0.91737-0.0094 2.4597-0.18553 3.4274-0.39177 0.96775-0.20624 2.6391-0.53403 3.7144-0.72856 2.5984-0.47011 4.1056-1.1924 4.1056-1.9675 0-0.35196 0.54918-0.84067 1.2355-1.0997 1.0598-0.40004 1.3064-0.37075 1.7372 0.20734 0.47522 0.63764 0.56125 0.63759 1.5998-0.0018 0.60354-0.37154 1.5811-0.87257 2.1725-1.1135 0.5914-0.24089 1.0955-0.72894 1.1203-1.0843 0.0248-0.35531 0.069-0.90723 0.0979-1.2263 0.0289-0.31906 0.40441-0.64353 0.83452-0.72169 1.858-0.33762 1.395-0.85042-0.8013-0.88722-1.723-0.02886-2.0734-0.11788-1.3494-0.34252 0.53764-0.16682 1.3689-0.21948 1.8472-0.11684 0.47825 0.10264 1.6726-0.20181 2.6542-0.67701 1.2931-0.62596 2.1311-0.7912 3.0408-0.59912 0.69064 0.14583 2.799 0.35855 4.6852 0.47253 3.4774 0.21015 6.3-0.42113 7.0176-1.5688 0.19259-0.30806 0.48207-0.17122 0.90325 0.42671 0.83534 1.1859 1.5055 1.131 1.1971-0.09794-0.23077-0.91943-0.15335-0.97714 1.303-0.97714 1.7405 0 2.3513-0.53094 1.3094-1.1375-0.65437-0.38096-0.65463-0.40345-8e-3 -0.41468 0.37634-0.0065 0.68388 0.16412 0.68388 0.37917 0 0.21505 0.36414 0.39063 0.80875 0.39063 0.63043 0 0.75373-0.17195 0.56016-0.78183-0.1383-0.43574-0.043-0.70961 0.1283-0.76751zm13.679 0.1094c0.28226-0.11295 0.61983-0.099 0.74976 0.03093 0.12993 0.12993-0.10101 0.22203-0.5132 0.20505-0.45551-0.01877-0.54848-0.11116-0.23656-0.23598zm-5.2053 0.26806c0.21505 0.0514 1.0863 0.07189 1.936 0.04582 0.90737-0.02786 1.3914 0.09473 1.173 0.29669-0.20444 0.18911-1.4716 0.46169-2.8157 0.60599-2.0593 0.22108-2.4434 0.16692-2.4434-0.34366 0-0.55082 1.0916-0.85782 2.1502-0.60484zm-44.672 0.39578c0.71141 0.0048 0.76753 0.07897 0.29326 0.38547-0.75808 0.4899-1.173 0.4899-1.173 0 0-0.21505 0.39589-0.38876 0.87977-0.38547zm19.937 0.17756c0.28015-0.05142 0.6357 0.12591 0.93705 0.55616 0.66742 0.95288 1.7063 1.0981 1.7063 0.23827 0-0.65422 1.3816-0.80715 1.7601-0.19474 0.16125 0.26091 0.49446 0.25729 0.99662-0.01147 0.89265-0.47774 3.383-0.62756 3.7831-0.22739 0.46038 0.46038-0.80149 1.0439-1.7664 0.81677-0.53111-0.12503-1.1399 0.03273-1.4944 0.38719-0.94998 0.94998-7.4556 0.8264-8.7473-0.1661-1.2316-0.94628-0.75283-1.5141 0.55444-0.65754 1.204 0.78887 1.7853 0.81377 1.7853 0.07618 0-0.48555 0.20498-0.76592 0.48513-0.81734zm31.187 0.20791c0.40472 0 0.8448 0.17557 0.97771 0.39063 0.14137 0.22874-0.2645 0.3912-0.97771 0.3912-0.71322 0-1.1185-0.16246-0.97715-0.3912 0.13292-0.21506 0.57242-0.39063 0.97715-0.39063zm-83.485 0.23025c0.31819-0.05048 0.57936-0.04268 0.7068 0.03608 0.29902 0.1848 0.11785 0.38246-0.51034 0.5573-1.8233 0.50749-2.6314 0.32659-1.2452-0.27894 0.35535-0.15523 0.73055-0.26398 1.0487-0.31445zm92.578 0.17928c0.2891-0.0026 0.66619 0.10654 1.0178 0.32934 0.29178 0.18488 0.37957 0.41548 0.19532 0.51205-0.50539 0.26489-1.7034-0.08525-1.7034-0.49774 0-0.22612 0.20119-0.34094 0.49029-0.34366zm-22.344 0.03723c-0.52444 0.08963-1.3587 0.36583-2.5986 0.84483-1.9941 0.77032-2.3968 1.0958-2.7785 2.2481-0.24549 0.74112-0.36501 1.4828-0.26577 1.6479 0.0992 0.16508 0.63173-0.05468 1.1833-0.48857 0.55161-0.43389 1.2432-0.78927 1.5367-0.78927s0.53382-0.26393 0.53382-0.58651c0-0.32258-0.17615-0.58652-0.3912-0.58652-0.21506-2e-6 -0.3912-0.14523-0.3912-0.32304 0-0.17781 0.53484-0.24486 1.1885-0.14892 1.1414 0.16752 2.7218-0.72878 2.7218-1.5436 0-0.2671-0.21442-0.36398-0.73887-0.27436zm17.524 0.17641c0.1107 0.11069-0.0577 0.36468-0.37401 0.56475-0.73177 0.46278-1.5528 0.47884-1.5528 0.03036 0-0.39657 1.6238-0.89806 1.9268-0.59511zm-41.401 0.5848c0.41215-1.73e-4 0.65501 0.08969 0.83452 0.2692 0.25563 0.25563 0.35063 0.5784 0.21135 0.71768-0.13927 0.13928-1.5353 0.33914-3.1021 0.4439-3.4087 0.22789-3.2933-0.42677 0.20448-1.1604 0.85795-0.17995 1.4396-0.27017 1.8518-0.27035zm28.307 0.74689c-0.90544 0-1.7361 0.69224-1.7361 1.4468 0 0.72777 0.28654 0.63703 1.4795-0.4691 0.97061-0.9 0.99092-0.97771 0.2566-0.97771zm-3.1915 0.61057c-0.15513 0.0066-0.31514 0.06417-0.4502 0.1535-0.27012 0.17866-0.44059 0.48337-0.27206 0.75605 0.14777 0.2391 0.42433 0.43473 0.614 0.43473 0.54341 0 0.90536-0.81467 0.52924-1.1908-0.11561-0.11561-0.26586-0.16007-0.42098-0.1535zm27.377 0.31789c0.0709-0.03125 0.16855-0.01718 0.27607 0.04926 0.21506 0.13291 0.39121 0.31928 0.39121 0.41411 0 0.09484-0.17615 0.1724-0.39121 0.1724-0.21505 0-0.39119-0.18636-0.39119-0.41411 0-0.11387 0.0442-0.19041 0.11512-0.22166zm-29.38 0.24457c-0.46344 0-0.84254 0.0733-0.84254 0.16324 0 0.08994-0.10659 0.44223-0.23713 0.7824-0.33217 0.86561 0.36888 0.77096 1.2148-0.16381 0.68691-0.75904 0.68268-0.78183-0.13517-0.78183zm-52.377 0.28638c2.3406-0.14667 1.6708 0.65118-0.97026 1.1558-3.0037 0.57397-3.3149 0.59151-3.5569 0.1999-0.24027-0.38876 2.5819-1.2338 4.5272-1.3557zm69.563 0.10482c-0.19205 0-0.4507 0.26393-0.57449 0.58651-0.1371 0.35727-2.9e-4 0.58651 0.34939 0.58651 0.31583 0 0.57391-0.26393 0.57391-0.58651 0-0.32258-0.15678-0.58651-0.34881-0.58651zm-34.353 0.34939c-1.4388-0.08712-3.0749 0.10844-4.2035 0.50232-1.3785 0.48106-2.7022 2.0761-2.3924 2.8833 0.30415 0.7926 1.14 0.70472 1.6914-0.17813 0.26808-0.42926 1.1356-0.85769 2.0494-1.0121 0.97742-0.16513 1.5843-0.479 1.5843-0.81963 0-0.32828 0.39652-0.55215 0.97771-0.55215 1.0944 0 1.3646-0.75877 0.29326-0.82364zm48.606 0.43244c0.0948 0 0.1724 0.17614 0.1724 0.3912 0 0.21506-0.18636 0.39063-0.41411 0.39063-0.22774-3e-6 -0.30531-0.17557-0.1724-0.39063 0.13291-0.21505 0.31927-0.3912 0.41411-0.3912zm-18.01 0.19532c-0.39427 0-0.78251 0.19795-0.86316 0.43989-0.0834 0.25016 0.28872 0.43988 0.86316 0.43988 0.57445 0 0.94712-0.18972 0.86373-0.43988-0.0806-0.24194-0.46946-0.43989-0.86373-0.43989zm-61.561 0.04582c0.56639-0.0538 0.99624 0.01862 1.5064 0.19646 0.6863 0.23924 1.1422 0.54063 1.0126 0.67014-0.44092 0.44092-6.6398 1.5917-8.6769 1.6106-1.1163 0.01038-2.1362 0.19086-2.2664 0.40151-0.15075 0.24391-0.49436 0.22205-0.94621-0.06014-0.52944-0.33064-1.1645-0.32859-2.5013 8e-3 -0.98535 0.24812-1.9778 0.45134-2.2052 0.45134-0.76289 0-0.41788-0.58088 0.73372-1.236 0.8271-0.47054 1.5087-0.56706 2.4738-0.34939 1.6644 0.37539 5.168-0.08891 8.5434-1.1324 1.0566-0.32664 1.7596-0.50638 2.326-0.56017zm17.964 0.18328c0.52135-0.01912 0.52135 0.0205 0 0.35741-0.32258 0.20847-0.93823 0.3698-1.3683 0.35798l-0.7824-0.02176 0.7824-0.33622c0.43011-0.18482 1.0458-0.34559 1.3683-0.3574zm31.702 0.35912c-2.6638 0.0021-5.1694 1.7668-4.0701 2.8661 0.40935 0.40935 0.80608 0.31081 1.4852-0.36829 0.47782-0.47782 1.0365-0.56756 2.3272-0.37402 1.6625 0.24931 1.702 0.22953 1.873-0.93533 0.17293-1.1782 0.1567-1.1899-1.6152-1.1885zm-9.5624 0.0212c-0.35022 0.0623-0.83095 0.32936-1.2223 0.76178-0.39043 0.43143-0.63757 0.83072-0.54928 0.88779 0.0883 0.05707 0.95217 0.47522 1.9199 0.92903 0.96775 0.45381 1.8915 0.74774 2.0528 0.65296 0.57733-0.33927 0.2754-0.93057-0.81619-1.598-0.61032-0.37318-1.0357-0.89848-0.94507-1.1673 0.13009-0.38596-0.0897-0.52853-0.43988-0.46624zm-53.664 0.0063c0.14672 0.02199 0.13362 0.19575 6e-3 0.52752-0.26811 0.69869-1.2291 1.09-1.5201 0.61916-0.12043-0.19487 0.12672-0.53937 0.54872-0.76522 0.51213-0.27409 0.8184-0.40346 0.96511-0.38147zm49.256 0.0401c-0.69031 0.13094-1.7128 0.76677-1.5035 1.1054 0.32012 0.51796 0.63362 0.4759 1.5344-0.20562 0.41441-0.31352 0.63554-0.68812 0.49086-0.8328-0.0983-0.09827-0.29169-0.11066-0.52179-0.06701zm29.599 0.3219c-0.87482 0-1.2926 0.91543-0.6919 1.5161 0.57999 0.58 0.87332 0.55353 1.4411-0.13059 0.58188-0.70111 0.21169-1.3855-0.74918-1.3855zm-55.933 0.43585c0.52134-0.02933 0.52134 9e-3 0 0.34595-0.32259 0.20847-1.026 0.36409-1.5637 0.34595l-0.97772-0.03265 0.97772-0.3133c0.53763-0.17218 1.2411-0.32781 1.5637-0.34595zm20.942 0.34595c-0.33528 0-0.60943 0.17614-0.60943 0.3912s0.16535 0.3912 0.36772 0.3912c0.20236 0 0.47708-0.17615 0.60999-0.3912s-0.033-0.3912-0.36828-0.3912zm30.68 0.11513c-0.16846 0.04543-0.32004 0.14784-0.42442 0.31674-0.22868 0.37-0.1215 0.63133 0.33277 0.81161 1.0428 0.41385 1.2561 0.36675 1.2561-0.27779 0-0.40789-0.29296-0.71064-0.63807-0.8265-0.17255-0.05793-0.35791-0.06949-0.52637-0.02405zm-41.409 0.27607c0.47663 0 0.77866 0.08736 0.67185 0.19417-0.26357 0.26357-3.8461 1.3311-3.8461 1.1461 0-0.33774 2.3745-1.3403 3.1743-1.3403zm36.128 0c-0.74641 0-1.7326 1.0448-1.7532 1.8575-7e-3 0.26882 0.25133 0.48857 0.57391 0.48857s0.58652-0.20633 0.58652-0.45821c0-0.25188 0.29131-0.77975 0.64722-1.173 0.60408-0.66749 0.60068-0.71481-0.0544-0.71481zm27.173 0c0.26336 0 0.77839 0.92646 0.77839 1.4004 0 0.08994-0.3352 0.16381-0.74517 0.16381-0.55291 0-0.69296-0.20234-0.54127-0.7824 0.11248-0.43011 0.34108-0.78183 0.50805-0.78183zm-70.581 0.0074c0.62953-0.0023 0.56365 0.11115-0.33794 0.58136-1.2914 0.67352-1.6822 0.72054-1.9806 0.2377-0.22864-0.36995 1.0286-0.81422 2.3186-0.81906zm25.445 0.11684c-0.1529-0.11602-0.44473-0.12359-0.81906 0.02006-0.34548 0.13258-0.51817 0.41805-0.38432 0.63463 0.31694 0.51282 0.8661 0.50244 1.1908-0.0229 0.17993-0.29113 0.16551-0.51575 0.0126-0.63176zm14.508 0.27608c-0.46161 0.02874-1.047 0.4832-1.047 0.95595 0 0.32933 0.15437 0.59854 0.34309 0.59854 0.49287 0 1.3765-1.1477 1.098-1.4262-0.10011-0.10011-0.2402-0.13788-0.39407-0.1283zm-48.448 0.19417c0.49939-0.01279 0.89987 0.0492 1.0946 0.21078 0.35516 0.29476 1.1381 0.37479 2.1244 0.21708 0.91679-0.1466 1.5619-0.09352 1.5619 0.1283 0 0.20785-0.65983 0.47495-1.4663 0.59339-0.80645 0.11844-2.4448 0.39038-3.6405 0.60427-1.1957 0.21389-2.6536 0.38891-3.2396 0.38891-0.89361 0-1.0065-0.11058-0.69935-0.68446 0.37946-0.70898 2.7666-1.4199 4.2648-1.4583zm11.416 0.27264c0.42754-0.09254 0.40266 0.05046 0.40266 0.32591 0 0.22624-0.52787 0.59587-1.173 0.82078-0.64516 0.2249-1.173 0.65997-1.173 0.96683 0 0.72652-1.4407 1.2583-5.2231 1.9279-1.6898 0.29918-4.6809 0.66488-6.647 0.81276-3.1844 0.23952-3.5209 0.20322-3.0798-0.33049 0.31163-0.37699 1.5411-0.70198 3.3163-0.87691 1.5516-0.1529 3.4183-0.52758 4.1474-0.83223 0.72913-0.30465 1.7319-0.55387 2.2286-0.55387 0.4967 0 2.3346-0.52786 4.0844-1.173 1.8089-0.66697 2.6889-0.99515 3.1164-1.0877zm56.451 0.07847c1.4541 0.29083 2.6027 1.2806 2.6027 2.243 0 1.0576-0.74136 0.87934-1.1839-0.28466-0.55877-1.4697-1.642-1.0791-2.074 0.74746-0.46337 1.9593 0.0614 2.5588 1.6994 1.9405 0.67424-0.25449 1.1673-0.28623 1.1673-0.07446 0 0.20169-0.45128 0.53888-1.0029 0.74861-1.1777 0.44778-0.98851 0.45031-1.8025-0.02463-1.0833-0.63204-1.6585-2.9481-1.0797-4.3456 0.43399-1.0478 0.62922-1.1591 1.6736-0.95022zm-42.166 0.0149c-0.16237 0.0015-0.45589 0.13708-0.97943 0.40781-1.2191 0.6304-1.3374 0.87723-0.9296 1.94 0.32854 0.85616 1.0951 0.54695 1.2498-0.50404 0.0687-0.46703 0.28904-0.84941 0.48914-0.84941s0.36371-0.26815 0.36371-0.59625c0-0.26625-0.0312-0.39946-0.1936-0.39807zm5.8926 0.40266c-0.90904 0.02416-2.18 0.71703-2.18 1.4119 0 0.9762 1.1994 0.97113 2.4005-0.01032 0.65536-0.5355 0.8026-0.87724 0.50748-1.1782-0.16214-0.16534-0.42498-0.23144-0.72799-0.22338zm9.1591 0.59167c-0.21505 0-0.39063 0.17614-0.39063 0.3912s0.17558 0.3912 0.39063 0.3912 0.3912-0.17615 0.3912-0.3912-0.17615-0.3912-0.3912-0.3912zm20.185 0c-0.81609 0-1.5371 1.076-1.24 1.85 0.23549 0.61369 0.34322 0.58322 1.0126-0.2881 0.89421-1.1639 0.95179-1.5619 0.22739-1.5619zm12.293 0.38261c-0.082-0.0079-0.1714 0.02534-0.25889 0.11284-0.12906 0.12906-0.0968 0.45775 0.0716 0.73028 0.24635 0.39849 0.33838 0.39905 0.47081 0.0018 0.14176-0.42526-0.0375-0.82106-0.28352-0.84483zm-54.961 0.0086c-0.32258 0-0.58651 0.17614-0.58651 0.3912s0.26393 0.39063 0.58651 0.39063c0.32259 0 0.58652-0.17557 0.58652-0.39063s-0.26393-0.3912-0.58652-0.3912zm37.024 0c-0.95359 0-3.3549 2.174-3.0128 2.7275 0.26667 0.43148 1.7658-0.15743 1.7658-0.69362 0-0.15649 0.38461-0.45785 0.85457-0.67014 1.1311-0.51094 1.3764-1.3638 0.39235-1.3638zm-12.518 0.05499c-0.11251-0.02469-0.21177-0.0043-0.28353 0.0504-0.14352 0.10938-0.17775 0.35638 8e-3 0.65696 0.14392 0.23287 0.4409 0.31287 0.65983 0.17756 0.26706-0.16505 0.26019-0.38417-0.0206-0.66498-0.12546-0.12546-0.2512-0.19525-0.3637-0.21994zm-55.382 0.04582c0.11213 0.02795 0.18157 0.09924 0.18157 0.20677 0 0.54704-1.0987 0.91101-1.3792 0.45707-0.12711-0.20566-0.14731-0.37344-0.0447-0.37344 0.10263 0 0.46514-0.10716 0.80531-0.2377 0.17009-0.06527 0.3249-0.08065 0.43702-0.05269zm63.958 0.2904c-0.67838 0-1.2148 0.70452-1.2148 1.5957 0 0.49653 0.46139 0.42956 1.271-0.185 0.90093-0.68389 0.87189-1.4107-0.0561-1.4107zm-56.49 0.17355c0.0832 0.01874-0.075 0.15409-0.41984 0.41812-0.41745 0.31963-1.1067 0.58136-1.5316 0.58136-0.99118 0-0.77545-0.16864 0.92158-0.71883 0.62179-0.20158 0.94669-0.29941 1.0298-0.28066zm67.835 1.0894c-0.1403-0.01801-0.27392 0.01589-0.38204 0.08935-0.21624 0.14692-0.33033 0.45116-0.19245 0.81047 0.12115 0.31569 0.3665 0.57391 0.54585 0.57391 0.56761 0 0.86813-0.83356 0.45077-1.2509-0.13487-0.13486-0.28184-0.20479-0.42213-0.22281zm17.395 1.0636c0.0937 0.02197 0.1535 0.12631 0.1535 0.3345 0 0.20915-0.34399 0.79536-0.76407 1.303l-0.7635 0.9233 0.29612-1.1478c0.20846-0.8072 0.79681-1.4789 1.078-1.413zm2.0322 0.46566c0.1005-0.05229 0.18756-0.04463 0.2503 0.01261 0.12547 0.11447 0.15221 0.4269-0.0115 0.85342-0.1356 0.35335-0.40363 0.64264-0.59568 0.64264-0.44566 0-0.43546-0.43044 0.0269-1.1616 0.11547-0.18258 0.22941-0.29481 0.32992-0.3471zm-9.0383 0.55329c-0.0911-0.05827-0.24504-0.05236-0.46509 0.03207-0.32258 0.12378-0.58651 0.46405-0.58651 0.75606s-0.35229 0.71889-0.7824 0.94908c-0.43011 0.23019-0.78183 0.58866-0.78183 0.79615 0 0.7165 0.88939 0.37349 1.8111-0.6982 0.78397-0.91154 1.0781-1.6604 0.80474-1.8351zm-80.208 0.17355c0.30989 0 0.5636 0.17557 0.5636 0.39063 0 0.21506-0.36251 0.3912-0.80531 0.3912s-0.69651-0.17614-0.5636-0.3912c0.13291-0.21506 0.49542-0.39063 0.80531-0.39063zm17.594 1.4187c0.4095-0.02232 0.76374-0.0021 0.98001 0.07789 0.71394 0.2641 0.78078 0.4002 0.33564 0.68503-0.60975 0.39015-4.2679 0.50006-4.2694 0.1283-1e-3 -0.37387 1.7253-0.82431 2.9538-0.89123zm71.264 0.23483c0.25538-0.08513 0.46451 0.12344 0.46451 0.46394 0 0.3405-0.27865 0.61916-0.61916 0.61916-0.69048 0-0.57037-0.84143 0.15465-1.0831zm-3.0099 0.25431-0.61917 1.1965c-0.64326 1.2439-1.3804 1.5934-1.3804 0.65468 0-0.29785 0.44961-0.83622 0.99948-1.1965zm-44.573 0.04697c0.43011 0 0.67303 0.17615 0.54012 0.3912-0.13291 0.21506-0.59342 0.39063-1.0235 0.39063s-0.67361-0.17557-0.5407-0.39063c0.13291-0.21505 0.594-0.3912 1.0241-0.3912zm31.939 0.07732c-0.23137 0.10339-0.39745 0.38362-0.63291 0.90039-0.39338 0.86338-0.35511 0.97714 0.3282 0.97714 0.4255 0 0.77324-0.17557 0.77324-0.39063 0-0.21506 0.26393-0.3912 0.58651-0.3912 0.77431 0 0.75252-0.63483-0.0321-0.9359-0.49549-0.19014-0.79159-0.26319-1.023-0.1598zm-46.089 0.06931c0.0142 0.04493-0.16832 0.185-0.53554 0.45936-0.41744 0.31188-0.90113 0.56704-1.0751 0.56704-0.47621 0-0.38008 0.93755 0.1724 1.6811 0.56488 0.76021 7.7068 1.6707 8.8241 1.1249 0.362-0.17682 1.186-0.20445 1.8311-0.06186l1.173 0.25889-1.1009 0.45363c-0.6054 0.2494-1.9475 0.45363-2.9824 0.45363-1.1956 0-2.0591 0.21385-2.3684 0.58651-0.26772 0.32258-0.70012 0.58651-0.96053 0.58651-0.91315 0-0.95368-0.49504-0.0985-1.2045 0.85591-0.71011 0.84698-0.71446-1.0917-0.50919-2.2068 0.23366-5.0166-0.56776-5.1962-1.4823-0.14317-0.72937 1.6159-2.5137 2.763-2.8026 0.4206-0.10592 0.63127-0.15604 0.64551-0.11112zm49.123 0.24457c-0.33528 0-0.60943 0.17557-0.60943 0.39063 0 0.21506 0.16535 0.3912 0.36772 0.3912 0.20236 0 0.47651-0.17614 0.60943-0.3912 0.13291-0.21506-0.0325-0.39063-0.36772-0.39063zm-27.197 0.4164-0.63176 0.96454c-0.39864 0.6084-1.0009 0.96512-1.6301 0.96512-1.1384 0-1.1602 0.0294 0.795-1.09zm-46.501 0.4542c1.0368 0.06549 2.079 0.30228 2.4366 0.66727 0.36452 0.37215 0.0409 0.46137-1.4892 0.41125-3.0308-0.09928-3.33-0.04167-3.6102 0.69019-0.26965 0.70431-1.6484 2.0165-2.1427 2.0396-0.60064 0.02806-6.1733 2.8283-6.1733 3.1021 0 0.33968-3.198 1.9938-3.8547 1.9938-0.24527 0-0.44619 0.17614-0.44619 0.3912s-0.17615 0.3912-0.3912 0.3912-0.39063-0.35229-0.39063-0.7824c0-0.48712 0.26076-0.78183 0.69133-0.78183 0.38019 0 1.3384-0.44008 2.1296-0.97771 0.79121-0.53764 1.5333-0.97714 1.649-0.97714 0.34445 0 4.3071-2.473 4.5678-2.8507 0.24246-0.35117 1.2846-0.99994 3.0832-1.9193 0.53764-0.27483 1.2295-0.74119 1.5373-1.0361 0.33523-0.32123 1.3666-0.42691 2.4033-0.36142zm40.339 0.02692c0.2776 0.10304 0.0236 0.36786-0.5848 0.61-0.5914 0.23537-1.0751 0.60842-1.0751 0.8288 0 0.22038-0.27722 0.40037-0.6163 0.40037-0.41056 0-0.21568-0.33729 0.58422-1.0104 0.66065-0.55589 1.4221-0.92895 1.692-0.8288zm-12.658 0.48628c0.099 0.099 0.10622 0.24624 0.0166 0.32705-0.44143 0.39811-1.9222 0.6417-1.9222 0.31617 0-0.39947 1.6069-0.9419 1.9056-0.64322zm20.174 0.17985c1.0449 0 1.3046 0.13464 1.1312 0.58651-0.22637 0.58991-1.7412 0.81161-2.2269 0.3259-0.58299-0.58299-0.18735-0.91242 1.0957-0.91242zm36.399 0c0.0948 0 0.17241 0.17614 0.17241 0.3912s-0.18637 0.3912-0.41411 0.3912c-0.22775 0-0.30532-0.17615-0.17241-0.3912s0.31928-0.3912 0.41411-0.3912zm-10.079 0.14204c-0.23648-0.01613-0.56737 0.01117-0.99032 0.08763-1.768 0.31964-1.8196 0.35797-1.5264 1.1221 0.29539 0.76979 0.82275 0.76251 2.0293-0.02806 1.0563-0.69211 1.1969-1.1332 0.48743-1.1816zm-38.625 0.2881c0.14337 0 0.28663 0.09131 0.4691 0.27378 0.36494 0.36494 0.26079 0.4691-0.4691 0.4691-0.72988 0-0.83461-0.10416-0.46967-0.4691 0.18248-0.18247 0.3263-0.27378 0.46967-0.27378zm21.758 0.86546c0.22383 0.22382-1.1575 1.0759-4.1274 2.5465-2.5224 1.249-3.8061 1.5739-3.3587 0.84999 0.13291-0.21506 0.45124-0.39119 0.70737-0.39177 0.25612-5.87e-4 1.8495-0.71337 3.5408-1.5843 1.6914-0.87092 3.1483-1.51 3.2378-1.4205zm-8.6918 0.66842c1.1038-0.01264 0.48333 0.42128-1.7034 1.1914-1.0636 0.37455-2.5157 1.1112-3.227 1.6375-1.8301 1.3541-2.1885 1.5215-2.428 1.1341-0.11621-0.18803 0.44377-0.67451 1.244-1.0814 0.80027-0.40688 1.5475-0.86282 1.661-1.0132 0.35457-0.46989 3.6665-1.8594 4.4533-1.8684zm-4.9562 0.52122c0.0215 0.0508-0.0758 0.1898-0.28237 0.43874-0.5631 0.6785-0.78927 0.74911-0.78927 0.24629 0-0.19204 0.28849-0.46022 0.6415-0.59568 0.26832-0.10297 0.40867-0.14015 0.43014-0.08935zm-42.691 0.25202c0.0948 0 0.17241 0.17615 0.17241 0.3912 0 0.21506-0.18637 0.39063-0.41411 0.39063-0.22775 0-0.30532-0.17557-0.17241-0.39063 0.13292-0.21505 0.31928-0.3912 0.41411-0.3912zm24.118 1.1513c0.22017-0.02666 0.40286-0.0026 0.49888 0.09336 0.0909 0.0909-0.35692 0.47336-0.99547 0.85056-1.0079 0.59536-1.161 0.60664-1.161 0.08477 0-0.41302 0.99708-0.9487 1.6576-1.0287zm-20.708 0.04181c0.18689 0 0.23998 0.12372 0.0871 0.37116-0.13291 0.21506-0.5396 0.38818-0.90325 0.3849-0.56981-0.0052-0.57991-0.05825-0.0745-0.3849 0.38287-0.24743 0.70377-0.37116 0.89066-0.37116zm32.535 0.04181c1.0943-0.01622 2.1565 0.07116 2.1565 0.27722 0 0.14208-0.7054 0.56374-1.5671 0.93705-1.9456 0.84292-2.7847 0.87404-2.4847 0.09222 0.12379-0.32258 0.0199-0.58651-0.23083-0.58651-0.25075 0-0.35122-0.16888-0.22338-0.37574 0.12854-0.20797 1.2552-0.32803 2.3495-0.34423zm-40.636 0.51893c0.10631 0.02038 0.1724 0.07918 0.1724 0.17183 0 0.1853-0.26393 0.4381-0.58651 0.56188s-0.58651 0.07361-0.58651-0.11169c0-0.18529 0.26393-0.43867 0.58651-0.56246 0.16129-0.06189 0.30781-0.07994 0.41411-0.05957zm70.968 0.59224c0.20237 0 0.36772 0.17615 0.36772 0.3912 0 0.21506-0.27415 0.39063-0.60943 0.39063-0.33527 0-0.50062-0.17557-0.36771-0.39063 0.13291-0.21506 0.40706-0.3912 0.60942-0.3912zm-67.449 0.3912c0.33527 0 0.50062 0.17557 0.36771 0.39063-0.13291 0.21505-0.40706 0.3912-0.60942 0.3912s-0.36772-0.17614-0.36772-0.3912c0-0.21506 0.27415-0.39063 0.60943-0.39063zm83.457 0c0.73126 0 0.39478 1.6309-0.48857 2.3678-0.98298 0.82004-1.4663 0.94609-1.4663 0.38261 0-0.20749 0.35172-0.56538 0.78183-0.79557 0.43011-0.23019 0.78183-0.76423 0.78183-1.1868 0-0.42254 0.17614-0.76808 0.3912-0.76808zm-53.373 0.03322 0.78183 0.02176-0.78183 0.33564c-0.4301 0.18482-1.0458 0.34616-1.3683 0.35798-0.52134 0.01912-0.52134-0.02106 0-0.35798 0.32258-0.20847 0.93824-0.36922 1.3683-0.35741zm3.5265 0.04811c0.22775-0.01484 0.4111 0.01132 0.49487 0.09508 0.11799 0.118 0.14102 0.28798 0.051 0.37803-0.41197 0.41197-2.3128 0.66854-2.3128 0.31216 0-0.32801 1.0837-0.74077 1.767-0.78526zm-39.249 0.70049c0.21016 0 0.28641 0.15457 0.16954 0.34366-0.28673 0.46396-1.7888 0.83618-1.7888 0.44332 0-0.32425 0.95235-0.78698 1.6192-0.78698zm51.642 0.17355c-0.0757 0.11315-0.393 0.35339-0.9737 0.75376-1.6346 1.127-3.7078 1.824-3.2573 1.0951 0.29356-0.47499 2.1946-1.4071 3.7562-1.8414 0.38448-0.10695 0.55049-0.1206 0.47482-0.0074zm-37.303 0.27722c0.24893-0.1016 0.45927 0.0057 0.65009 0.31445 0.12725 0.2059-0.31312 0.65608-0.97828 1.0001l-1.2091 0.62546 0.65468-1.0001c0.34581-0.52778 0.6337-0.83832 0.88263-0.93991zm21.506 0.06415c0.28226-0.11295 0.61982-0.099 0.74975 0.03093 0.12993 0.12993-0.10101 0.22203-0.5132 0.20505-0.4555-0.01877-0.54847-0.11116-0.23655-0.23598zm-6.3784 0.65811c0.53764 0 0.97772 0.17615 0.97772 0.3912 0 0.21506-0.44008 0.39063-0.97772 0.39063-0.53763 0-0.97714-0.17557-0.97714-0.39063 0-0.21506 0.43951-0.3912 0.97714-0.3912zm43.39 0c-0.31584 0-0.97039 0.3959-1.4543 0.87977s-1.0012 0.83892-1.1501 0.78928c-0.14892-0.04964-0.63318 0.36995-1.0757 0.93247-0.79853 1.0152-1.0343 2.1217-0.55444 2.6015 0.41855 0.41854 0.84391-0.06329 1.3145-1.4892 0.3066-0.92902 0.86223-1.5551 1.7578-1.9801 1.4056-0.66701 2.1207-1.7338 1.1622-1.7338zm-47.458 0.19016c1.4786-0.0043 1.7667 0.1092 1.6278 0.64035-0.0928 0.35495 0.034 0.77073 0.2818 0.92387 0.32921 0.20346 0.29981 0.45226-0.10825 0.92387-0.30716 0.355-0.87274 1.4871-1.2567 2.5156-0.38391 1.0285-0.83414 1.9539-1.0006 2.0568-0.39333 0.2431 0.34722-2.4469 1.0487-3.8101 0.69903-1.3583 0.68672-1.8764-0.0435-1.8764-0.32259 0-0.58652 0.3415-0.58652 0.75892s-0.16233 0.85904-0.36084 0.98172c-0.19851 0.12269-0.46868 0.70495-0.60083 1.2939-0.13216 0.58893-0.58167 1.5106-0.99891 2.0482-0.72208 0.93042-0.75924 0.93832-0.76751 0.15694-5e-3 -0.4515 0.50149-1.5813 1.1255-2.5104 0.94409-1.4057 1.0474-1.7764 0.61458-2.2092-0.28606-0.28606-0.79671-0.52007-1.1346-0.52007-0.33795 0-0.61401-0.16593-0.61401-0.36829 0-0.65878 0.94235-1.0005 2.7739-1.0058zm36.822 1.0728c0.77346 0.12655 0.7166 0.21233-0.49487 0.74403-1.8114 0.79497-4.0212 1.2259-3.711 0.72398 0.13091-0.21182 0.54056-0.3849 0.91013-0.3849s1.0658-0.27576 1.547-0.61286c0.48128-0.3371 1.2681-0.54887 1.7487-0.47024zm-73.581 0.68904c0.25947 0.0046 0.33755 0.1119 0.20104 0.33278-0.15366 0.24862-0.46531 0.45249-0.69248 0.45249s-1.7564 0.6325-3.3982 1.4056c-4.0719 1.9172-6.7054 2.9415-6.6739 2.5964 0.01443-0.15815 1.9061-1.2093 4.2035-2.3357 3.1681-1.5534 5.5816-2.4653 6.36-2.4514zm4.2688 0.0029c0.21505 0 0.3912 0.17614 0.3912 0.3912s-0.17615 0.3912-0.3912 0.3912c-0.21506 0-0.3912-0.17615-0.3912-0.3912s0.17614-0.3912 0.3912-0.3912zm29.05 0.14663c0.0709-0.03125 0.16854-0.01718 0.27607 0.04926 0.21505 0.13291 0.3912 0.31928 0.3912 0.41411 0 0.09484-0.17615 0.1724-0.3912 0.1724-0.21506 0-0.3912-0.18636-0.3912-0.41411 0-0.11388 0.0442-0.19042 0.11513-0.22166zm32.268 0.28524c0.29129 0 0.41059 0.11713 0.26634 0.35054-0.13291 0.21506-0.71517 0.37824-1.2939 0.36313-0.93952-0.02455-0.96863-0.06307-0.27035-0.36313 0.54316-0.2334 1.0066-0.35054 1.2979-0.35054zm31.766 0.35054c0.22775 0 0.30532 0.17557 0.17241 0.39063-0.13292 0.21505-0.31928 0.3912-0.41411 0.3912-0.0948 0-0.17241-0.17614-0.17241-0.3912 0-0.21506 0.18637-0.39063 0.41411-0.39063zm-44.696 0.13173c0.26882-0.10846 0.7089-0.10846 0.97772 0 0.26881 0.10847 0.0485 0.1976-0.48915 0.1976-0.53764 0-0.75739-0.08913-0.48857-0.1976zm48.015 0.79443c0.0902 0.03093 0.21386 0.11536 0.3723 0.24686 0.32259 0.26772 0.58652 0.81679 0.58652 1.2206 0 1.0211-0.64105 0.92055-0.92674-0.14548-0.18351-0.68477-0.25672-1.0853-0.20505-1.2486 0.0258-0.08169 0.0827-0.10425 0.17297-0.07331zm-95.547 0.10825c0.13219 0 0.14199 0.08822 0.0619 0.26462-0.11496 0.25306-1.5913 1.373-3.2808 2.4887-2.4499 1.6178-2.9917 1.8528-2.676 1.1599 0.39293-0.8624 3.053-2.7658 5.0994-3.6485 0.4089-0.1764 0.66338-0.26462 0.79557-0.26462zm8.8206 0.32132c0.21052-0.01282 0.43585 0.16007 0.86488 0.50747l0.88206 0.71424-1.5081 0.99432c-2.2206 1.4642-3.2682 1.973-3.2682 1.5877 0-0.1881 0.43687-0.54109 0.97027-0.78412 0.61461-0.28004 0.88807-0.65368 0.74746-1.0201-0.12203-0.318 0.11961-0.94415 0.53668-1.3918 0.36896-0.39603 0.56444-0.59488 0.77496-0.60771zm-13.88 0.60198c0.87686-0.0079 5e-3 0.89158-2.2384 2.3083-1.3926 0.8795-2.8295 1.5992-3.1932 1.5992-0.3637 0-0.55655-0.105-0.42843-0.23312 0.47048-0.47048 5.5761-3.6717 5.86-3.6743zm-9.9421 0.19474c-0.12269 0.15891-0.93916 0.68355-2.3747 1.4772-2.4087 1.3316-6.1435 2.9937-13.747 6.1177-2.1307 0.87544-4.1102 1.5917-4.3989 1.5917-1.0252 0-0.50287-0.63237 0.94163-1.1404 0.80646-0.28362 3.0874-1.2868 5.069-2.2292 1.9816-0.94239 3.7414-1.7145 3.9103-1.716 0.16892-0.0012 0.74708-0.22934 1.2847-0.5069 0.53764-0.27756 2.0334-0.82929 3.3238-1.2263 1.2903-0.39701 3.1815-1.1396 4.203-1.6501 1.3398-0.66962 1.9109-0.87659 1.7882-0.71768zm4.4166 1.3666c0.21505 0 0.2824 0.17557 0.14949 0.39063-0.13291 0.21505-0.41786 0.3912-0.63291 0.3912-0.21506 0-0.2824-0.17614-0.14949-0.3912 0.13291-0.21506 0.41785-0.39063 0.63291-0.39063zm103.57 0c0.21506 0 0.3912 0.16535 0.3912 0.36772 0 0.20236-0.17614 0.47651-0.3912 0.60943-0.21505 0.13291-0.3912-0.03244-0.3912-0.36772 0-0.33528 0.17615-0.60942 0.3912-0.60942zm2.1508 0.39063c0.32258 0 0.58651 0.26393 0.58651 0.58651 0 0.61059-0.46251 0.7758-0.91242 0.3259-0.44991-0.44991-0.28468-0.91242 0.32591-0.91242zm-46.004 0.10081c0.24065-0.03438 0.45134 0.10781 0.45134 0.45306 0 0.3405-0.27866 0.61916-0.61916 0.61916s-0.54964-0.20856-0.46452-0.46394c0.12084-0.36251 0.39169-0.5739 0.63234-0.60828zm-48.621 1.4222-0.97714 0.7824c-0.53764 0.43038-1.2858 1.0553-1.6622 1.389-0.37635 0.33367-0.79067 0.60714-0.92102 0.60714-0.13034 0-0.87796 0.48368-1.6616 1.0751-0.78365 0.5914-1.8651 1.3164-2.4028 1.6112-0.81732 0.44813-0.75304 0.29813 0.3912-0.91471 1.5863-1.6814 4.8409-3.9131 6.2563-4.29zm-13.88 0.65524c0 0.04303-0.40958 0.34618-0.91013 0.67415-1.1892 0.77918-4.955 1.8936-4.955 1.4663 0-0.18231 1.3197-0.75596 2.9326-1.275 1.6129-0.51902 2.9326-0.90848 2.9326-0.86545zm4.5111 0.69649c0.11862 5e-3 0.17095 0.08854 0.10711 0.28008-0.09043 0.2713-0.55444 0.7518-1.031 1.0682-0.7831 0.51996-0.84246 0.51285-0.61687-0.07503 0.22922-0.59734 1.1849-1.2883 1.5407-1.2733zm56.251 0.87977c0.0581 0.05812 0.0509 0.1818-0.0218 0.37116-0.11959 0.31163-0.375 0.56647-0.56704 0.56647-0.56213 0-0.40082-0.67853 0.21765-0.91586 0.18935-0.07266 0.31303-0.07989 0.37115-0.02176zm45.311 0.69477c0.0411-0.04111 0.0957 0.01358 0.15809 0.16954 0.11295 0.28226 0.099 0.61982-0.0309 0.74975-0.12993 0.12993-0.22261-0.10101-0.20563-0.5132 9e-3 -0.22775 0.0374-0.36498 0.0785-0.40609zm-1.673 1.0253c0.21505 0 0.39062 0.17557 0.39062 0.39063 0 0.21506-0.17557 0.3912-0.39062 0.3912-0.21506 0-0.39121-0.17614-0.39121-0.3912 0-0.21505 0.17615-0.39063 0.39121-0.39063zm-103.77 0.10489c0.14648 0.14648-0.15409 0.61697-0.66842 1.0453-1.0069 0.83855-1.7429 1.0048-2.074 0.4691-0.25985-0.42045 2.3791-1.8777 2.7424-1.5144zm-15.714 0.33965c0.41 0.05582 0.70617 0.4123 0.93762 1.0762 0.46406 1.3312 0.0015 1.9984-1.3867 1.9984-0.79191 0-0.85786-0.10415-0.49487-0.7824 0.53396-0.99771 0.18512-0.99754-2.4394 0-2.3786 0.90404-2.2527 0.87886-2.2527 0.4542 0-0.37755 1.7416-1.236 2.5076-1.236 0.28346 0 0.96246-0.35172 1.5092-0.78183 0.68538-0.53912 1.2092-0.78438 1.6192-0.72856zm10.531 3.5935c0.15565-0.02082 0.25488 0.0046 0.25488 0.09393 0 0.08187-0.57148 0.44455-1.2704 0.80589-1.0743 0.55541-1.1933 0.56333-0.76923 0.05212 0.34142-0.41161 1.3178-0.8895 1.7847-0.95194zm9.6391 0.1598c0 0.19097-0.52786 0.73728-1.173 1.2143-0.64517 0.477-1.1632 0.73018-1.1513 0.56246 0.03116-0.4393 2.3243-2.1922 2.3243-1.7767zm-21.928 0.64207c0.01642 0.04449-0.1654 0.18467-0.53153 0.45821-0.84059 0.62802-1.5559 0.75792-1.2252 0.22281 0.11687-0.1891 0.61135-0.44425 1.0986-0.56704 0.42733-0.1077 0.64169-0.15847 0.65811-0.11398zm16.454 0.25775c0.35552-0.0067 0.12453 0.36796-0.58651 0.95079-1.158 0.94919-1.7595 1.2086-1.7595 0.75892 0-0.42242 1.7509-1.6985 2.3461-1.7097z" stroke-width=".29326"/>
</svg>
