<?xml version="1.0" encoding="utf-8"?>
<svg xmlns="http://www.w3.org/2000/svg" version="1.1" viewBox="0 0 300 596">
	<title>The eye of a peacock’s tail feather, facing up.</title>
	<path d="m151.41 0.014049c-0.61991-0.07256-1.2564 0.13532-1.9274 0.63797-1.3425 1.0053-2.8336 3.1939-4.6436 6.694-5.683 10.99-2.4122 12.807 6.1062 3.3949 4.1156-4.5478 4.7535-7.2354 2.3012-9.6879-0.61315-0.6131-1.2165-0.96633-1.8364-1.039zm23.646 1.4673c-5.4429 0-5.0878 1.4444 3.8186 15.553 4.2773 6.7758 7.7786 14.169 7.7786 16.427 0 2.2582 1.2428 5.4377 2.7615 7.0631 4.3086 4.612 7.3143 16.952 4.1284 16.952-1.5737 0-9.6173-8.5962-17.872-19.102l-15.006-19.102-9.6834 10.567c-5.326 5.8113-11.866 10.146-14.532 9.6332-2.6884-0.51776-8.7898 4.3211-13.707 10.868-4.875 6.4914-9.8807 12.516-11.119 13.388-20.825 14.678-52.481 44.208-52.504 48.963-0.028 8.7514 10.187 2.6412 32.677-19.563 14.954-14.761 27.156-24.136 32.928-25.291 10.336-2.0667 14.736-6.8427 9.3691-10.162-2.4946-1.5417-1.7666-3.861 2.4012-7.6328 4.2143-3.8138 6.6363-4.3656 8.1797-1.8683 1.5048 2.4347 4.428 1.4457 9.3187-3.1488l7.127-6.694 18.209 22.793c15.476 19.369 18.358 21.742 19.203 15.794 1.4804-10.423 5.6109-8.5538 14.459 6.5437 12.033 20.532 18.663 25.54 28.111 21.235 4.2703-1.9457 7.7648-4.7826 7.7648-6.3067s-5.3701-9.6039-11.934-17.954c-6.5642-8.3505-14.566-19.735-17.781-25.295-3.2148-5.5606-7.6407-10.112-9.8383-10.112-4.8368 0-4.9737 1.6919-0.77459 9.5375 1.8527 3.4621 1.9939 6.0196 0.33247 6.0196-4.393 0-6.6242-9.4734-6.3477-17.804l-5.9648-12.559-6.4616-10.672c-1.7841-1.7183-3.5291-4.0508-5.2178-7.1862-3.2248-5.9879-7.647-10.886-9.8245-10.886zm-39.38 18.665c-2.5662 0-6.4954 2.4513-8.731 5.4454-6.3195 8.4633-37.566 33.872-44.502 36.186-6.6515 2.2192-26.444 26.584-26.444 32.554 0 7.2382 7.9736 3.2039 14.951-7.5644 3.9455-6.0896 11.295-12.507 16.332-14.263 5.0367-1.7554 9.1593-4.413 9.1593-5.9011s7.3493-8.2552 16.332-15.042c18.114-13.686 31.037-31.415 22.903-31.415zm29.793 31.287c-0.53661-0.05203-1.1528 0.021-1.8364 0.21861-2.7346 0.79011-6.5831 3.5582-11.041 8.1568-9.2319 9.5221-26.486 24.773-46.644 41.221-15.949 13.013-37.413 34.84-37.467 38.104-0.09752 5.867 9.1628 1.1452 23.358-11.907 8.5175-7.831 22.022-19.227 30.007-25.327 7.9811-6.0992 17.474-15.092 21.089-19.982 8.8808-12.012 13.644-11.482 10.991 1.2212-1.8723 8.9518-13.595 24.11-18.647 24.11-1.0308 0-8.095 5.8289-15.694 12.951-13.767 12.904-17.559 21.267-9.647 21.267 5.8561 0 25.171-15.458 32.058-25.655 7.479-11.074 10.44-10.818 10.44 0.90683 0 8.0783-7.0922 16.545-48.221 57.562-26.52 26.448-48.216 50.011-48.216 52.363 0 2.3518-2.1192 6.0372-4.7117 8.1888-7.1088 5.8998-18.716 30.679-23.281 49.711-2.2303 9.3061-4.1972 35.915-4.3654 59.121l-0.30531 42.201 14.983 29.606c8.241 16.285 21.538 37.319 29.551 46.74 8.0131 9.4209 19.471 23.655 25.459 31.634 9.1302 12.164 18.665 18.918 18.665 13.219 0-4.006-13.002-21.914-29.337-40.406-10.001-11.321-20.547-23.675-23.436-27.455-8.1643-10.684-21.442-49.794-23.678-69.738-3.4082-30.413-3.4404-32.763-0.82476-60.014 2.9479-30.709 12.598-55.193 31.884-80.88 14.695-19.573 48.853-52.882 54.227-52.882 1.9841 0 3.6091-1.3045 3.6091-2.8936 0-4.3556 20.405-25.104 24.689-25.104 8.7314 0 0.073 13.802-24.284 38.706-14.319 14.641-26.727 26.621-27.574 26.621-2.7157 0-23.558 25.001-28.047 33.643-13.543 26.072-23.901 80.945-18.114 95.977 3.2659 8.4837 13.996-24.722 14.122-43.709 0.06743-10.077 2.404-18.909 6.9447-26.257l6.8444-11.073 3.9007 9.1502c2.1472 5.0328 3.9693 11.672 4.0463 14.755 0.14372 5.7402 18.969 43.553 25.86 51.944 16.529 20.125 50.97 22.627 74.277 5.3953 4.8834-3.6107 8.8812-8.2566 8.8812-10.326 0-2.069 4.3158-12.464 9.5921-23.099 10.143-20.443 15.955-52.85 9.4783-52.85-1.9661 0-7.9106 7.0488-13.21 15.662-17.158 27.88-42.565 34.737-72.021 19.43-18.228-9.4724-23.803-14.134-31.738-26.539-3.0097-4.7052-8.0714-8.5532-11.237-8.5532-4.2659 0-5.1844-1.4162-3.5316-5.4455 4.1317-10.074 20.866-31.647 24.639-31.766 2.0564-0.0653 8.0728-6.4177 13.37-14.117 5.2973-7.6993 10.962-13.999 12.591-13.999 1.6288 0 5.8774-2.9154 9.4419-6.48 3.5643-3.5645 6.7789-6.0157 7.1405-5.4454 0.36163 0.57033-0.19132 16.436-1.2302 35.257-1.982 35.903 0.62107 54.441 7.6463 54.441 6.658 0 7.9408-7.4137 8.2706-47.697 0.17055-20.819 1.268-41.284 2.4379-45.478 1.9656-7.0446 3.1394-6.0275 15.42 13.42 12.089 19.137 18.594 23.915 21.344 15.662 0.55715-1.6719-8.1045-15.557-19.248-30.854-11.144-15.297-20.264-28.886-20.264-30.203 0-6.3526 6.556-0.71006 18.957 16.318 7.4956 10.293 15.238 18.1 17.193 17.348 1.9594-0.75194 7.3061 5.5143 11.884 13.926 4.578 8.4118 11.516 19.156 15.416 23.873 8.5796 10.377 22.703 39.945 28.449 59.563 6.0162 20.541 8.7641 76.066 4.9215 99.422-1.7876 10.865-6.8059 26.888-11.151 35.607-4.3447 8.7186-7.8971 16.915-7.8971 18.214 0 3.0142-11.549 20.045-25.172 37.12-21.241 26.623-33.43 50.07-42.971 82.657-6.816 23.279-7.7758 31.506-4.6298 39.704 1.0387 2.7064 4.2983 4.9215 7.2408 4.9215 4.0752 0 5.0477-2.0503 4.0738-8.6855-0.70134-4.7775 0.32687-16.326 2.283-25.664 1.9561-9.3376 4.3303-20.827 5.2768-25.532 0.94678-4.705 2.9628-8.5576 4.4796-8.5576 1.5168 0 2.7568-2.1696 2.7568-4.8211 0-7.1776 9.4442-24.155 16.017-28.795 3.1672-2.2356 5.8088-5.7369 5.8694-7.7786 0.17895-5.9375 14.922-22.38 17.635-19.667 1.3562 1.3562 0.27904 4.1028-2.3921 6.1016-9.6521 7.2222-24.337 40.88-26.015 59.627-0.45939 5.1328-2.6096 15.956-4.7756 24.051-3.9143 14.629-2.6362 26.091 2.5517 22.885 1.492-0.92228 3.5664-6.9576 4.6116-13.415 4.9985-30.882 9.3733-44.565 22.502-70.404 7.8089-15.369 18.341-33.97 23.409-41.335 5.0675-7.3654 14.22-22.822 20.333-34.345 9.042-17.044 10.807-23.229 9.4736-33.169-1.3033-9.7167 0.0257-14.731 6.4891-24.498 7.3425-11.095 8.1463-15.253 8.3026-42.985 0.11946-21.087-1.0826-31.955-3.8324-34.705-6.556-6.556-9.4657 2.202-6.2247 18.738 3.8291 19.535 0.91808 39.27-8.4393 57.166-8.5943 16.436-9.6411 23.105-3.9187 25.013 4.0559 1.3534-3.0781 20.868-13.384 36.573-2.806 4.2775-7.5142 11.747-10.463 16.601-12.287 20.233-6.4469 0.0747 10.677-36.824 5.242-11.296 9.3462-42.704 9.3462-71.529 0-47.596-13.438-89.475-37.43-116.67-5.2824-5.9884-12.348-16.136-15.703-22.552-3.3552-6.4161-8.2074-11.665-10.782-11.665-2.5739 0-6.1128-3.7715-7.8649-8.3801-1.7522-4.6086-10.237-17.892-18.856-29.519-8.6199-11.627-15.108-22.837-14.418-24.908 0.69037-2.0706 7.2782 4.2149 14.641 13.967 7.3631 9.7523 13.803 17.731 14.313 17.731s3.1446 0.84804 5.851 1.8866c11.453 4.3944 3.8767-12.172-15.302-33.466-18.293-20.311-24.317-30.636-17.872-30.636 1.2911 0 7.2389 6.357 13.219 14.126 18.232 23.686 20.024 25.273 21.258 18.87 1.0991-5.706-9.4713-23.028-26.649-43.668-5.5957-6.724-10.175-14.073-10.175-16.332 0-2.4829-0.91015-3.7718-2.52-3.928zm38.765 34.778c-0.42393-0.021-0.79279 0.10476-1.0844 0.39647-2.0354 2.0355 13.915 34.724 22.087 45.263 2.803 3.615 3.5918 3.1794 4.4201-2.4425 1.3616-9.2414-19.024-42.892-25.423-43.217zm-154.93 39.704c-3.3065 0-21.303 35.619-21.303 42.165 0 8.0303 7.2105 3.376 9.8063-6.3295 1.304-4.8755 3.6364-9.6845 5.1811-10.686 1.5448-1.0013 5.0463-6.1898 7.7833-11.533 4.7136-9.2032 4.2407-13.616-1.4673-13.616zm193.23 0.30076c-1.8786-0.29073-3.003 1.6017-3.003 5.7371 0 3.3209-1.3968 6.9034-3.1077 7.9608-4.5288 2.7989-3.8326 6.6121 2.3331 12.777 5.0367 5.0367 5.5173 5.0495 6.448 0.21885 0.54898-2.872 3.0044-5.2222 5.4452-5.2222 5.8088 0 5.6139-4.6434-0.58771-14.108-3.0153-4.602-5.6494-7.0732-7.528-7.3639zm-18.879 18.287c-1.5902 0.13882-2.7888 1.5917-2.7888 4.6799 0 8.6313 10.433 31.135 26.73 57.644 16.015 26.053 23.799 42.985 27.505 59.85 2.0601 9.3761 7.1291 11.289 10.011 3.7775 3.2657-8.51-15.021-52.045-33.853-80.62-10.097-15.316-19.139-31.769-20.096-36.555-0.89475-4.4738-3.4691-7.5539-5.8192-8.4894-0.58748-0.23389-1.1605-0.33338-1.6906-0.28709zm-157.76 6.2976c-3.8375 0-10.183 12.576-8.0702 15.995 1.2939 2.0935 4.3079 1.0283 8.2571-2.921 5.585-5.5833 5.4779-13.074-0.18688-13.074zm36.104 1.4172c-2.9271-2.9272-53.261 49.032-64.926 67.022-24.863 38.338-37.07 80.689-37.07 128.59 0 36.372 3.6663 55.701 16.332 86.052 12.466 29.868 22.556 44.719 44.575 65.605 46.98 44.565 53.391 51.868 58.724 66.917 2.9691 8.381 6.6858 18.5 8.2569 22.484 1.5714 3.984 4.3417 6.7476 6.1564 6.1426 4.2479-1.416 4.246-1.524-0.31427-18.05-7.9445-28.786-16.009-41.349-45.715-71.196-48.31-48.541-53.904-56.665-68.121-98.87-6.9998-20.78-8.2636-30.079-8.5806-63.245-0.31161-32.602 0.78537-42.555 6.7852-61.613 10.8-34.303 27.947-60.934 63.322-98.314 15.274-16.14 23.445-28.659 20.574-31.529zm110.5 55.411c-3.6198-1.1978 9.43 37.307 15.151 44.707 4.5654 5.9051 12.357 57.196 10.189 67.068l-2.0277 9.2277-7.4597-7.0084c-9.9125-9.3124-12.712-5.6097-6.644 8.7947 2.7101 6.4333 5.7521 15.897 6.7579 21.03 1.727 8.8136 1.5676 8.9974-2.8844 3.2946-2.5926-3.3212-4.7164-7.9893-4.7164-10.371 0-2.3819-1.7482-3.7127-3.887-2.9621-2.3954 0.84085-3.5377 5.7154-2.9756 12.7 0.51352 6.3813-0.50652 11.338-2.3331 11.338-1.7851 0-3.2444-1.4013-3.2444-3.1124 0-1.7109-2.0177-3.1077-4.4794-3.1077-5.77 0-9.5254 23.779-6.2611 39.64 2.9894 14.525 3.6103 17.977 5.9921 33.311 1.0499 6.7588 3.4178 14.108 5.2633 16.332 5.347 6.4427 9.4463 4.7092 6.9947-2.9572-5.3424-16.707-12.638-55.826-11.83-63.413 1.5905-14.918 6.7063-15.279 10.513-0.74286 10.008 38.219 11.348 41.601 16.951 42.68 5.8496 1.1264 5.8813-2.0543 0.14582-16.013-1.9633-4.778-1.1325-5.3069 5.6506-3.6044 7.1489 1.7942 7.7597 1.2594 6.0514-5.2859-1.0455-4.0052-3.7488-9.1316-6.0059-11.392-4.1795-4.1868-5.5292-9.8882-2.3422-9.8882 0.96801 0 4.5869 1.5132 8.0429 3.363 3.4558 1.8485 6.9478 2.6989 7.7602 1.8866 0.81216-0.81239-2.1593-12.31-6.6027-25.546-8.1888-24.39-8.2828-32.373-0.25991-21.472 4.1788 5.6779 4.5244 5.7 6.571 0.41926 3.0272-7.8108 0.0852-56.87-3.7092-61.859-1.7216-2.2638-3.2878-7.2455-3.4815-11.069-0.42953-8.4482-25.715-54.273-30.891-55.986zm-209.31 28.221v8.3208c0.50668-2.8963 0.49292-5.6744 0-8.3208zm99.467 5.163c-1.7109 0-3.1124 1.4013-3.1124 3.1124 0 1.7109 1.4015 3.1124 3.1124 3.1124 1.7111 0 3.1124-1.4015 3.1124-3.1124 0-1.7111-1.4013-3.1124-3.1124-3.1124zm-26.384 74.66c-2.5338 0-5.5537 3.8527-6.7124 8.5579s-3.8277 11.352-5.9329 14.773c-2.1049 3.422-5.5675 11.821-7.692 18.665-2.1248 6.844-5.0974 14.009-6.6074 15.922-3.4777 4.4056 2.2958 32.338 10.535 50.964 6.0316 13.634 12.855 22.355 42.57 54.436 21.352 23.052 34.441 42.285 34.441 50.595 0 4.0528 1.4507 10.074 3.2218 13.384 3.1345 5.8568 9.3308 8.3614 9.1092 3.6819-0.0609-1.2832-2.0522-10.457-4.4248-20.387-4.9621-20.769-11.953-30.792-43.947-62.994-22.011-22.158-26.623-29.928-20.132-33.94 1.6119-0.99624 3.8842-8.4267 5.0491-16.514 1.1649-8.087 4.0421-19.425 6.3979-25.195 5.3851-13.187 5.4037-17.965 0.07746-20.009-2.9834-1.1446-6.6846 5.997-12.723 24.553-4.6837 14.388-9.7893 26.165-11.347 26.165-5.064 0-2.9855-19.231 3.1532-29.182 8.605-13.949 19.659-44.842 17.371-48.544-3.3319-5.3911-6.917-3.4987-10.221 5.4-12.124 32.653-17.319 44.329-19.718 44.329-1.5123 0-2.7477-0.58422-2.7477-1.3033 0-3.901 19.68-56.702 22.064-59.198 4.4737-4.6837 3.278-14.158-1.7862-14.158zm31.415 62.219c-2.8329 0-6.1307 8.2322-9.6514 24.106-2.9411 13.26-6.3899 27.612-7.6645 31.889-1.2743 4.2773-1.7162 9.5268-0.97991 11.666 2.3025 6.6883 10.15 4.2906 10.189-3.1124 0.0203-3.8496 2.8067-18.197 6.1884-31.884 7.3397-29.71 7.5128-32.664 1.9183-32.664zm74.145 7.7009c-0.22305 0.0863-0.41273 0.25851-0.57418 0.52869-0.64534 1.0805-0.82919 3.6964-0.82919 8.3073 0 13.845 8.7118 52.072 13.064 57.316 4.2344 5.1016 8.7081 5.0059 8.7081-0.18665 0-2.2559-1.9794-11.006-4.4019-19.44-2.4225-8.4375-5.333-21.212-6.4662-28.385-1.1332-7.1729-4.0517-14.691-6.4844-16.71-1.381-1.146-2.3473-1.6871-3.0167-1.4309zm-15.817 1.6316c-3.6133 0-4.1254 4.4926-2.734 24.106 3.0758 43.356 6.0771 56.774 12.691 56.774 5.9938 0 5.7108 2.0585-3.3219 24.288-4.2773 10.527-7.8516 22.319-7.9426 26.202-0.11013 4.7388-2.412 1.6896-6.9993-9.2688-6.8505-16.361-13.729-22.475-10.513-9.3369 0.94235 3.8496 4.0211 18.201 6.84 31.889 2.8189 13.688 5.6986 26.725 6.4023 28.972 2.4323 7.7695 7.5453 0.16565 7.5826-11.269 0.0569-17.707 9.1285-47.453 22.324-73.206 2.086-4.0715 1.6386-6.7719-1.5403-9.3325-5.3603-4.3181-11.488-21.701-11.488-32.586 0-18.26-6.9314-47.232-11.301-47.232zm-38.624 0.17732c-2.8 0.57278-5.1263 8.2336-9.6015 28.572-5.8482 26.579-7.3288 46.456-3.7274 50.057 5.3477 5.3477 9.9652-3.8566 9.8882-19.704-0.0124-2.5664 2.0774-15.864 4.6389-29.551 2.7671-14.787 3.5179-26.063 1.8546-27.788-1.1311-1.1775-2.1196-1.7767-3.0529-1.5858zm20.715 2.9302c-2.4743 0-5.1914 4.6534-6.3615 10.891-2.621 13.973-2.6618 69.124-0.0546 73.343 1.0928 1.7683 4.3058 2.7619 7.1405 2.2055 4.2589-0.83596 5.0792-4.782 4.7346-22.725-0.22958-11.943-0.57628-31.167-0.77459-42.716-0.26901-15.67-1.4605-20.998-4.6844-20.998zm95.562 57.467c0.18198-0.0257 0.32267 0 0.42393 0.10966 0.40503 0.40246 0.18525 1.8404-0.50139 4.4658-0.92041 3.5197-2.9087 6.3979-4.4201 6.3979-4.1959 0-3.2766-5.0202 1.6724-9.1274 1.3604-1.1292 2.2797-1.7666 2.8252-1.8455z" stroke-width="2.3331"/>
</svg>
