<?xml version="1.0" encoding="utf-8"?>
<svg xmlns="http://www.w3.org/2000/svg" version="1.1" viewBox="0 0 300 445">
	<title>Three kangaroos; with their backs to each other, their legs pointing outwards, and their tails pointing down; form the silhouette of a tree.</title>
	<path d="m58.475 0.012405c-0.42863 0.13604-0.69204 0.84968-0.84338 2.2875-0.10365 0.98463-0.06287 1.2621 0.26018 1.7848 0.71358 1.1546 1.959 3.7871 2.1028 4.4457 0.32767 1.5006 0.88353 3.5065 1.0671 3.8474 0.10825 0.20102 0.30689 0.66139 0.44116 1.0219 0.13428 0.36046 0.49771 0.88693 0.80693 1.1702 0.63759 0.58399 1.0676 0.64684 1.4945 0.21996 0.45197-0.45198 0.35275-1.0784-0.26647-1.6717-0.30897-0.29601-0.56184-0.60769-0.56184-0.69254 0-0.08484-0.15976-0.51114-0.35445-0.94768-0.19467-0.43658-0.45641-1.2158-0.58194-1.7308s-0.3375-1.2723-0.47008-1.6843c-0.13259-0.41196-0.34918-1.129-0.48139-1.5925-0.13222-0.46345-0.4348-1.2399-0.67368-1.7257-0.2389-0.48578-0.43488-1.0123-0.43488-1.1702 0-0.4265 1.0453-0.3662 1.4982 0.086728 0.42668 0.42667 0.43659 0.53064 0.1722 1.678-0.17484 0.75868-0.13772 0.95488 0.40473 2.1531 0.32831 0.72518 0.92038 1.7094 1.3147 2.187 0.39434 0.47763 1.0244 1.5172 1.4002 2.3089 0.95598 2.014 1.5811 2.132 2.0877 0.39467 0.2583-0.88578 0.25299-0.91338-0.2363-1.4241-0.34832-0.36358-0.46214-0.63459-0.37833-0.89868 0.07501-0.23635 0.0193-0.43647-0.14832-0.53294-0.14752-0.084888-0.29949-0.32318-0.33811-0.52914-0.042249-0.22524-0.21874-0.3733-0.44243-0.3733-0.247 0-0.63919-0.39508-1.1677-1.1752-0.43771-0.64614-0.79868-1.2789-0.80188-1.4052-0.0035-0.1263-0.13034-0.39208-0.28155-0.59199-0.3278-0.43339-0.35081-0.66744-0.066608-0.66744 0.25657 0 1.5983 1.3615 2.2147 2.2474 0.2508 0.36046 1.0337 1.1899 1.7408 1.8426 0.95013 0.87708 1.3686 1.1501 1.6038 1.047 0.17502-0.076688 0.71658-0.12175 1.2029-0.10055 0.64304 0.028029 1.2487-0.12199 2.2222-0.54929 1.901-0.83438 3.9379-0.91783 5.4134-0.22122 0.56644 0.26742 1.307 0.72353 1.6453 1.0131 0.3383 0.28953 0.71698 0.53739 0.84213 0.55054 0.12515 0.01314 0.43885 0.04666 0.69634 0.07416 0.52114 0.05565 1.916-0.88838 2.2222-1.5033 0.2496-0.50124 0.27099-0.014005 0.0352 0.80818-0.14857 0.51799-0.11588 0.67849 0.20613 1.0005 0.38124 0.38123 0.60124 0.38648 1.8062 0.04399 0.39906-0.11343 0.42027-0.08205 0.28281 0.41729-0.08167 0.29663-0.15019 0.91913-0.15083 1.3826-0.0015 0.79658 0.02895 0.84498 0.55679 0.90498 1.0631 0.12079 1.8343-0.2665 2.4384-1.228 0.49941-0.79478 0.55719-1.0354 0.51784-2.1657-0.07055-2.0294-0.60534-2.5727-1.3487-1.37-0.2162 0.34981-0.60574 0.77548-0.86473 0.94518l-0.47008 0.30794 0.11815-1.179c0.10952-1.0863 0.08407-1.2119-0.33685-1.6038l-0.45751-0.42483-0.87353 0.48768c-0.48027 0.26843-0.87168 0.41787-0.87103 0.33182 5e-4 -0.086048 0.45443-0.63504 1.0093-1.2205 0.95113-1.0035 3.5482-2.5842 3.8122-2.3202 0.05705 0.057054-0.04225 0.42885-0.22122 0.82578-0.45535 1.0098-0.34087 1.7937 0.27275 1.8653 0.30581 0.035674 0.61514-0.097423 0.87103-0.37456 0.49194-0.53279 1.1827-1.7596 1.1827-2.1003 0-0.13958 0.12644-0.49434 0.28029-0.78933 0.36342-0.69683 0.35629-1.6273-0.01635-2.3479-0.27209-0.52619-0.35918-0.56609-1.0281-0.47636-0.40202 0.053924-0.98098 0.3093-1.2871 0.56684-0.66484 0.55944-3.2507 1.815-3.738 1.815-0.18944 0-0.442 0.11706-0.56184 0.26143-0.11983 0.14438-0.40472 0.31172-0.63224 0.37079-0.2275 0.059069-1.0407 0.74088-1.8074 1.5158-1.1571 1.1695-1.4964 1.409-1.9935 1.409-0.35956 0-0.64169-0.11164-0.70638-0.28029-0.12273-0.31983-0.61744-0.37995-0.71518-0.086728-0.04205 0.12614-0.35153 0.093388-0.87983-0.093008-0.57434-0.20263-1.2708-0.26402-2.3592-0.20739-1.4212 0.073943-1.7019 0.16037-3.5156 1.0822l-1.9708 1.0017-0.34816-0.38587c-0.19147-0.21273-0.52639-0.51124-0.74408-0.66239-0.21768-0.15114-0.56574-0.55394-0.77298-0.89493-1.0192-1.6767-3.4721-3.9668-4.2483-3.9668-0.15131 0-0.51094-0.25003-0.79938-0.55429-0.60789-0.64124-3.5122-1.9383-3.9957-1.7848zm-39.468 7.0598c-0.40921-0.083108-0.79318 0.055429-1.1098 0.42358-0.37247 0.43303-0.43452 0.67514-0.37456 1.4781 0.03945 0.52819 0.1733 1.1492 0.29663 1.3788 0.12333 0.22962 0.17294 0.62019 0.11061 0.86853-0.06233 0.24835-0.02209 0.50809 0.08924 0.57694 0.22648 0.13997 0.28348 2.5364 0.06033 2.5364-0.07822 0-0.23554-0.14822-0.34942-0.33056-0.11388-0.18236-0.57654-0.57889-1.0281-0.88108-0.45159-0.30218-1.3794-1.1227-2.0613-1.8225s-1.3743-1.272-1.5397-1.272c-0.35121 0-0.74323 0.56804-1.042 1.5121-0.17747 0.56079-0.14713 0.88198 0.18602 1.9671 0.21889 0.71293 0.49233 1.4103 0.60709 1.551 0.3451 0.42315 0.72518 1.5737 0.75918 2.2963 0.01755 0.37349 0.15307 0.82523 0.30166 1.0043 0.14859 0.17903 0.29079 0.58964 0.31548 0.91253 0.02468 0.32289 0.10091 0.98463 0.16968 1.4693 0.11554 0.81433 0.0714 0.95558-0.58444 1.8715-0.39038 0.54519-0.90623 1.2018-1.1463 1.4593-0.75768 0.81268-1.8256 1.895-2.2826 2.3127-0.24236 0.22154-0.55339 0.66194-0.69128 0.97913-0.1379 0.31717-0.39237 0.69438-0.56434 0.83708-0.52764 0.4379-1.7685 2.476-1.7685 2.9047 0 0.2225-0.24172 0.85883-0.53669 1.414-0.29497 0.55519-0.59604 1.2194-0.66994 1.4769-0.21254 0.74053-1.0629 2.3887-1.4429 2.7966-0.19063 0.20462-0.3469 0.45382-0.3469 0.55429 0 0.2691-1.6623 2.2789-2.5276 3.0555-1.0914 0.97953-1.8553 2.5994-1.8363 3.8914 0.032064 2.1848 0.33282 2.7678 2.0362 3.9417 0.83218 0.57344 2.8267 1.0357 3.508 0.81323 0.2269-0.0741 0.53809-0.14947 0.69253-0.16843 1.065-0.1307 1.8925-0.34818 2.6219-0.68878 0.46345-0.21642 0.96918-0.4508 1.1237-0.52034 0.15449-0.06955 0.53314-0.25724 0.84213-0.41729 0.30897-0.16005 1.0676-0.47984 1.6855-0.71138 1.7231-0.64569 3.1161-1.328 3.8386-1.8803 1.23-0.94033 2.3851-1.3265 3.5671-1.1928 0.66469 0.0752 1.2092 0.03954 1.4593-0.09427 0.32315-0.17295 0.54699-0.13762 1.1765 0.1835 0.78243 0.39917 1.8744 0.43406 2.6659 0.08547 0.31065-0.13681 0.33595-0.0906 0.22247 0.42609-0.10494 0.4778-0.04402 0.65319 0.34816 0.99423 0.71173 0.61884 0.84523 1.2755 0.95148 4.6618 0.05332 1.6994 0.18957 4.1916 0.30166 5.5394 0.14683 1.7646 0.14661 2.6557 0 3.1837-0.11196 0.40326-0.20562 1.4071-0.20864 2.231-3e-3 0.82393-0.09728 1.8354-0.20865 2.2474-0.11137 0.41196-0.26611 1.3807-0.34439 2.1531-0.07828 0.77243-0.19356 1.531-0.25515 1.6855-0.16119 0.4043-0.36704 2.37-0.36324 3.464 0.0059 1.6994 0.21521 5.1484 0.32302 5.3229 0.11915 0.19279 0.87893 2.83 1.2016 4.1704 0.11635 0.4833 0.21116 1.1731 0.21116 1.5334s0.08524 0.70838 0.18979 0.77298c0.10455 0.06461 0.3142 0.38499 0.46506 0.71268 0.15085 0.32768 0.38075 0.74888 0.51154 0.93513 0.20545 0.29251 0.16832 0.3901-0.27652 0.71768-0.63569 0.46814-0.66929 1.1285-0.10307 2.0324 0.64684 1.0326 0.94723 1.5576 1.6227 2.8343 0.69234 1.3087 2.0806 2.5967 2.7991 2.5967 0.23902 0 0.71983 0.2168 1.0684 0.48265 0.4053 0.30914 1.0754 0.55959 1.859 0.69378 1.1228 0.19232 1.2957 0.1758 2.0689-0.19985 0.46406-0.22546 0.84338-0.53154 0.84338-0.67998 0-0.38599-0.52484-0.85848-0.95398-0.85848-0.33816 0-0.34623-0.03945-0.10306-0.51534 0.14472-0.28323 0.32258-0.78893 0.39467-1.1237 0.11224-0.52119 0.0786-0.60834-0.23002-0.60834-0.1982 0-0.50739-0.16295-0.68754-0.36199-0.18012-0.19904-0.42518-0.32624-0.54424-0.2828-0.11906 0.0435-0.34325-0.0025-0.49773-0.10307-0.2373-0.15436-0.20438-0.24895 0.21116-0.60709 0.67868-0.58494 0.76678-0.97658 0.34062-1.5183-0.45757-0.58169-0.45518-0.65774 0.04275-1.1878 0.56294-0.59924 0.87678-0.54274 1.1928 0.21368 0.21402 0.51224 0.4076 0.67294 0.92758 0.77048 0.69174 0.12978 0.78523 0.25044 0.45248 0.58319-0.1117 0.11171-0.17398 0.40245-0.13951 0.64604 0.0467 0.32988 0.19903 0.45952 0.59954 0.50529 0.29577 0.0338 0.62929-0.02975 0.74033-0.14078 0.11104-0.11104 0.398-0.20236 0.63849-0.20236 0.77523 0 0.15983 0.68494-1.2179 1.3549-1.5308 0.74438-2.007 1.3983-1.4593 2.0035 0.43468 0.48032 1.0875 0.4944 1.7521 0.03895 0.27905-0.19122 0.74253-0.49005 1.0307-0.66488 0.28814-0.17485 0.68568-0.58289 0.88233-0.90623 0.36102-0.59364 0.45872-0.54094 0.59704 0.32051 0.03725 0.23188 0.28834 0.43354 0.67874 0.54549 0.54169 0.15536 0.67848 0.1184 1.0948-0.29788 0.56264-0.56264 0.48034-1.084-0.23252-1.4656-0.36406-0.19491-0.45044-0.35514-0.36828-0.68248 0.07337-0.29234-0.02195-0.55614-0.3004-0.83458l-0.40723-0.4085 0.39592-0.29662c0.2177-0.16368 0.59394-0.43773 0.83708-0.60834 0.64479-0.45238 2.6172-3.434 2.5402-3.8398-0.0391-0.20618-0.25567-0.36649-0.53919-0.3997-0.38677-0.04525-0.65904 0.17299-1.4844 1.1903-1.0971 1.3522-3.3282 3.2654-3.8084 3.2654-0.24066 0-0.18207-0.223 0.30166-1.1526 0.53054-1.0196 0.70454-1.1935 1.5045-1.5008 0.85528-0.32849 2.7462-1.7616 2.7463-2.0814 1.05e-4 -0.16443 0.65474-1.1395 1.1677-1.7383 0.45279-0.52864 1.4323-3.2574 1.7421-4.8554 0.13975-0.72093 0.37779-1.8582 0.52914-2.5276 0.15137-0.66944 0.36884-2.2709 0.4839-3.5583 0.11508-1.2874 0.33965-3.2675 0.49899-4.4004 0.15935-1.1329 0.27872-2.5412 0.26521-3.1297-0.0135-0.58844 0.0711-1.3885 0.18728-1.7785 0.39313-1.3196-0.27488-2.1094-1.3135-1.5535-0.43635 0.23353-0.57814 0.88148-0.67119 3.053-0.08638 2.0163-0.18024 2.8145-0.42608 3.6249-0.09855 0.32486-0.16172 0.99918-0.13952 1.4982 0.0222 0.49905-0.06904 1.5799-0.20362 2.4019-0.13461 0.82198-0.19866 1.6404-0.14203 1.8188 0.05662 0.1784-0.02325 0.85453-0.17722 1.502-0.15397 0.64744-0.31749 1.4721-0.36324 1.8326-0.37846 2.9827-1.6763 5.8794-3.2717 7.3028-1.3626 1.2156-3.5155 2.2474-4.6907 2.2474-0.66528 0-0.99608 0.09797-1.2418 0.36952-0.38372 0.424-0.60989 0.34642-0.85343-0.29411-0.13481-0.35458-0.30749-0.44997-0.81448-0.44997-0.57249 0-0.68554-0.0874-1.0231-0.79563-0.3268-0.68558-0.37601-1.1486-0.36073-3.3408 0.0098-1.3996-0.03575-2.6314-0.10055-2.7363-0.06479-0.10484-0.0301-0.47641 0.07667-0.82578 0.25767-0.84323 0.22244-4.8383-0.04525-5.1609-0.11356-0.13683-0.40926-0.24886-0.65739-0.24886-0.78443 0-0.75393-0.88433 0.06536-1.8854 0.21038-0.25704 1.2102-2.7819 1.5146-3.826 0.06005-0.20598 0.27166-0.64904 0.47008-0.98543 0.26291-0.4457 0.32674-0.78903 0.23756-1.2644-0.10515-0.56049-0.19561-0.65234-0.64604-0.65234-0.28834 0-0.65659 0.14782-0.81823 0.32805-0.3988 0.44462-1.5341 2.9003-1.9256 4.1654-0.17529 0.56644-0.56219 1.4036-0.85848 1.859-0.32406 0.49809-0.53794 1.0794-0.53794 1.4605 0 0.60754 0.62604 3.1505 1.2117 4.9208 0.20248 0.61214 0.23237 1.0417 0.10935 1.5699-0.1039 0.44607-0.10048 0.90788 0.0088 1.1953 0.13345 0.35098 0.09986 0.58634-0.13197 0.94018-0.25306 0.38622-0.28082 0.68088-0.15209 1.6139 0.08659 0.62749 0.16464 1.7756 0.1722 2.5515l0.01383 1.4102 0.90748 0.83708 0.90748 0.83583-0.54049 0.10809c-0.2973 0.05919-0.61984 0.03715-0.71768-0.04775-0.29141-0.25291-0.99183-0.1746-1.3122 0.1458-0.16449 0.16447-0.40793 0.25623-0.54174 0.20487-0.48308-0.18538-1.6938-3.038-2.2009-5.1859-0.27956-1.1844-0.73953-2.7858-1.0219-3.5583-0.84863-2.3216-0.84368-5.3949 0.02011-11.609 0.15033-1.0814 0.27331-2.3555 0.27275-2.8305-6e-4 -0.47505 0.16825-1.5466 0.37581-2.3805 0.34472-1.385 0.36037-1.7389 0.181-4.0975-0.10801-1.4202-0.2075-3.8295-0.22122-5.3534-0.0137-1.5236-0.08456-2.8075-0.15837-2.8532-0.07381-0.04562-0.19137-0.53394-0.26018-1.0847-0.1597-1.2782-0.98613-2.373-1.7911-2.373-0.41004 0-0.54864-0.09737-0.59454-0.41604-0.04389-0.30506-0.30988-0.51169-0.99673-0.77298-0.51494-0.1959-1.1607-0.47199-1.4354-0.61464-0.68738-0.35688-2.1562-0.53794-2.4472-0.30166-0.13017 0.10569-0.58519 0.19534-1.0105 0.19985-0.77523 0.0082-2.2224 0.60969-4.095 1.7019-1.9644 1.1457-2.7161 1.5133-3.0895 1.5133-0.39675 0-2.4951 0.98168-2.9964 1.4015-0.15449 0.12935-0.98333 0.37341-1.8426 0.54299-0.85928 0.16957-1.723 0.39521-1.9193 0.50024-0.20832 0.11148-0.76243 0.13685-1.3298 0.06159-0.77614-0.10296-1.1339-0.27939-1.7785-0.87353-0.77653-0.71578-0.80693-0.78623-0.80693-1.8514 0-0.76763 0.10506-1.2621 0.34439-1.6139 0.18987-0.27905 0.57144-0.85138 0.84713-1.272 0.27573-0.42059 0.64644-0.92953 0.82453-1.13 0.17809-0.20044 0.47392-0.63019 0.65609-0.95523 0.18218-0.32506 0.49425-0.78608 0.69378-1.0244 0.19956-0.2383 0.70348-0.83808 1.1199-1.3336 0.41644-0.49547 0.75663-1.0462 0.75663-1.223s0.11519-0.48689 0.25641-0.69004c0.14122-0.20315 0.48267-1.0011 0.75793-1.7735 0.27523-0.77243 0.75008-1.7557 1.0545-2.1845 0.30448-0.4288 0.55304-0.91473 0.55304-1.0797 0-0.42511 1.088-2.3003 1.4052-2.422 0.14548-0.05582 0.47966-0.44284 0.74283-0.85973 0.26316-0.41688 0.58269-0.76048 0.71014-0.76418 0.12745-0.0037 0.46894-0.20119 0.75918-0.43866 0.49984-0.40899 0.72203-0.69583 1.644-2.1267 0.26024-0.40387 0.64348-0.68194 1.1488-0.83333 0.71908-0.21545 1.3969-0.77648 2.3441-1.9407 0.23172-0.2848 0.42106-0.58954 0.42106-0.67624 1e-6 -0.08668 0.12828-0.15711 0.28532-0.15711 0.15704 0 0.36834-0.2321 0.46882-0.51534 0.10048-0.28322 0.26658-0.66078 0.36953-0.83963 0.26977-0.46864 0.23243-0.66559-0.14957-0.78683-0.23942-0.07599-0.34295-0.30947-0.35822-0.80818-0.01181-0.38586-0.06935-1.5442-0.1282-2.5741-0.05885-1.0299-0.05559-1.7457 0.0075-1.5912 0.06313 0.15449 0.52514 0.67184 1.0269 1.1501 0.90423 0.86183 1.0764 1.2303 0.73528 1.5737-0.09721 0.09784-0.26928 0.92338-0.3821 1.8338-0.18529 1.4953-0.17118 1.7129 0.14077 2.2474 0.24311 0.41653 0.4924 0.59634 0.84338 0.60959 0.69874 0.02636 1.0072 0.34059 1.3524 1.3801 0.2342 0.70513 0.40156 0.92093 0.77173 0.99168 0.70893 0.13552 0.85483-0.49205 0.75288-3.2491-0.07603-2.0557-0.1533-2.5126-0.57189-3.3974-0.26601-0.56229-0.48265-1.1053-0.48265-1.2066 0-0.10135-0.33205-0.55524-0.73778-1.008-0.40576-0.45281-0.69933-0.86173-0.65234-0.90873 0.047-0.047 0.18481 0.01387 0.30668 0.13575 0.12187 0.12187 0.36995 0.22247 0.55179 0.22247s0.58009 0.23085 0.88488 0.51409c0.30478 0.28322 1.0194 0.89398 1.5875 1.3575 0.56804 0.46346 1.037 0.91428 1.0432 1.0017 0.0062 0.08747 0.31819 0.65544 0.69254 1.2619 0.43962 0.71224 0.68868 1.3525 0.70258 1.8074l0.02137 0.70388h-2.0575l-0.27526 0.79183c-0.2706 0.77878-0.2659 0.79963 0.25766 1.3461 0.30619 0.31959 0.48632 0.67308 0.42483 0.83333-0.14731 0.38387 0.33325 0.73783 0.80063 0.58949 0.49574-0.15734 0.86858-0.88918 1.0533-2.0651l0.14706-0.93388 0.14831 0.83333c0.2026 1.1334 0.55274 1.4726 1.1765 1.1388 0.43476-0.23268 0.50274-0.21086 0.89493 0.29286 0.89678 1.1519 3.8914 3.678 5.5844 4.7108 0.36567 0.22309 0.92913 0.76713 1.2519 1.2091 1.1435 1.5662 4.2315 4.5419 5.1984 5.0089 0.51494 0.2486 1.756 0.94313 2.7576 1.5435 3.8762 2.3231 5.1274 2.8755 7.2613 3.2101 1.0814 0.16962 3.0615 0.32179 4.4004 0.33811 2.4017 0.02928 2.4504 0.0224 3.6513-0.58069 0.66944-0.3362 1.4859-0.81343 1.8137-1.0596 0.32784-0.24614 0.65288-0.44746 0.72273-0.44746 0.06985 0 0.51769-0.31514 0.99548-0.70134 1.5889-1.2845 2.074-1.5709 2.3768-1.4015 0.36173 0.20245 1.5812 2.6107 1.5812 3.1221 0 0.43647 1.0407 3.6472 1.4178 4.374 0.40397 0.77868 1.9728 2.2872 2.691 2.5879 0.74593 0.31235 2.6648 0.41112 3.3811 0.17345 1.1775-0.39074 3.2441-2.7883 3.4565-4.0108 0.0649-0.37359 0.27763-1.1014 0.4726-1.6164 0.19498-0.51494 0.44566-1.3994 0.55804-1.9658 0.28549-1.4388 0.90453-3.4978 1.3449-4.4758l0.37204-0.82578 1.0646 1.0193c1.2962 1.2413 2.7737 2.4508 3.4049 2.7853 0.25748 0.13643 0.55309 0.34349 0.65609 0.46128 0.35997 0.41171 1.5688 1.223 1.8225 1.223 0.14076 0 0.33753 0.08238 0.4374 0.18225 0.25124 0.25124 2.625 1.1285 3.5947 1.3285 0.43918 0.09062 0.96153 0.25251 1.1614 0.35947 0.22624 0.12108 1.7982 0.17498 4.1641 0.14454 3.7392-0.0481 3.8161-0.05643 4.78-0.56309 0.53879-0.28322 1.143-0.51534 1.3424-0.51534 0.38478 0 1.5555-0.49827 2.6395-1.1224 0.73674-0.42422 2.5989-2.0199 3.459-2.965 1.0286-1.1304 1.8722-1.9884 2.6294-2.6734 0.89483-0.80953 1.9774-2.0555 2.7802-3.1988 1.0179-1.4496 3.6482-4.1254 3.9542-4.0234 0.10289 0.0343 0.24966 0.4318 0.32679 0.88358 0.27745 1.6253 1.8629 2.4772 2.823 1.5171l0.40975-0.40975-0.48767-0.41729c-0.86414-0.73993-1.3185-2.9292-0.84719-4.0862 0.14287-0.35071 0.37035-1.2065 0.50529-1.9017s0.31434-1.2644 0.39844-1.2644c0.17273 0 0.1617-0.09726 0.318 2.8092 0.11111 2.0663 0.13384 2.156 0.54798 2.2147 0.54249 0.0769 0.90113-0.21927 1.36-1.1186 0.43877-0.85993 0.44089-0.76048-0.0125-1.2833-0.45397-0.52344-0.51609-2.1826-0.11061-2.9587 0.33147-0.63449 1.3768-1.6423 1.5372-1.4819 0.066 0.06603-0.074 0.59639-0.31045 1.179-0.34516 0.85038-0.38634 1.1285-0.21116 1.409 0.299 0.47884 0.27342 1.3571-0.0628 2.1619-0.27892 0.66754-0.37196 1.3763-0.181 1.3763 0.0548 0 0.39197-0.12226 0.74913-0.27149 0.45103-0.18845 0.64859-0.39337 0.64859-0.66869 0-0.218 0.0906-0.56409 0.20111-0.77048 0.25273-0.47226 1.1098-4.8967 1.1098-5.7289 0-0.48712-0.10407-0.66858-0.48767-0.84338-0.4176-0.19028-0.52609-0.17198-0.74284 0.12443-0.1395 0.19076-0.2795 0.42252-0.31045 0.51534-0.031 0.09281-0.33002 0.20272-0.66489 0.2451-0.33489 0.04238-0.79463 0.20784-1.0219 0.36701-0.45527 0.31889-0.70389 0.36872-0.70389 0.14077 0-0.27948 1.9648-2.2452 2.5276-2.5289 0.30896-0.15575 0.92063-0.61584 1.3587-1.0219 0.83053-0.76978 2.2166-1.4442 2.3906-1.1626 0.0554 0.08967-0.0343 0.69394-0.19859 1.3424-0.16432 0.64844-0.40901 1.6847-0.54423 2.3026-0.13522 0.61794-0.3407 1.3604-0.45625 1.6503-0.11556 0.28993-0.2099 0.71188-0.2099 0.93763s-0.37851 1.1691-0.84089 2.0953c-1.0636 2.1306-1.1013 2.6853-0.15962 2.329 0.24241-0.0917 0.45468-0.38603 0.53169-0.73653 0.0705-0.32103 0.41705-1.0218 0.77048-1.5573 0.35344-0.53554 0.77858-1.4371 0.94393-2.0035 0.70683-2.4218 1.0002-2.9782 1.6717-3.1636 0.34626-0.09561 0.89003-0.35938 1.2079-0.58574 0.31786-0.22634 0.61134-0.37786 0.65234-0.33685 0.0885 0.08846-0.37953 1.4899-0.73148 2.1895-0.30173 0.59964-2.1732 6.0634-2.1732 6.3449 0 0.28416 0.58334 0.95523 2.627 3.0191 0.98142 0.99118 1.9929 2.0909 2.2474 2.4447 0.83303 1.1583 2.7675 3.2825 3.3195 3.6438 0.29721 0.19455 0.63314 0.53169 0.74534 0.74913 0.59963 1.1619 0.83718 1.7692 0.92508 2.3604 0.13071 0.87913 0.74918 2.5685 1.1589 3.1674 0.18249 0.26675 0.55579 1.0119 0.82953 1.6566 0.47652 1.1223 1.1564 2.19 2.2134 3.4753 0.26936 0.32753 0.72504 1.1015 1.0131 1.7195 0.28802 0.61794 0.67924 1.3243 0.86853 1.5699 0.50359 0.65349 0.42857 0.90733-0.38964 1.3248-0.52504 0.26785-0.76758 0.53104-0.85468 0.92758-0.16895 0.76928 0.16794 1.847 0.77423 2.4798 0.49826 0.52009 0.50139 0.54019 0.14706 0.80818-0.49895 0.37739-0.78213 0.35291-1.0181-0.08798-0.11024-0.20598-0.33018-0.37456-0.48768-0.37456-0.15752 0-0.49137-0.24413-0.74284-0.54299-0.31041-0.36891-0.76803-0.61909-1.4253-0.77678-0.65858-0.158-1.219-0.46254-1.7521-0.95398-1.0716-0.98778-1.577-0.96158-2.3541 0.12066-0.33284 0.46346-0.66629 0.84213-0.74159 0.84213-0.40462 0-2.8686-1.3368-3.2642-1.771-0.71068-0.78008-5.0604-3.6601-5.5279-3.6601-0.11939 0-0.59514-0.38942-1.0583-0.86598l-0.84213-0.86598-1.0608 0.12318c-0.58329 0.06815-1.3694 0.28501-1.7471 0.48139-0.91398 0.47519-2.5951 2.1513-3.1498 3.141-0.24534 0.43771-0.50674 0.79563-0.58069 0.79563-0.44787 0-0.55619 1.4217-0.44117 5.8059 0.0662 2.5232 0.15108 4.8405 0.18853 5.1494 0.24943 2.0564 0.48806 5.7324 0.55809 8.6133 0.0451 1.8538 0.10395 3.5811 0.13072 3.8386 0.0267 0.25748-0.041 0.88583-0.15083 1.3964-0.1295 0.60224-0.1411 1.2925-0.0314 1.9658 0.0929 0.57079 0.11474 1.9226 0.0477 3.004-0.067 1.0814-0.16487 2.6401-0.21744 3.464-0.0568 0.89033-0.24624 1.8408-0.46631 2.3416-0.62119 1.4136-2.6344 4.8942-2.8871 4.9911-0.13074 0.05017-0.34154 0.34055-0.46756 0.64479-0.21833 0.52709-1.0711 1.2921-1.4404 1.2921-0.0954 0-0.28812-0.21246-0.42734-0.47259-0.23762-0.44398-0.20606-0.52194 0.51029-1.2644 0.96718-1.0025 1.1488-1.5362 0.61839-1.82-0.21482-0.11497-0.57659-0.15697-0.80444-0.09301-0.23035 0.06465-0.32301 0.04845-0.20864-0.03645 0.11314-0.08399 0.25966-0.62239 0.32554-1.1966 0.15871-1.3835-0.0916-1.7522-1.0633-1.5699-0.39729 0.07453-0.66989 0.22322-0.62844 0.34313 0.0403 0.11643-0.12524 0.50489-0.36701 0.86348-0.24178 0.35863-0.43866 0.80563-0.43866 0.99293 0 0.51379-1.2677 1.0004-1.7735 0.68124-0.39766-0.25087-0.81553-0.45928-2.0651-1.0319-0.41196-0.18879-1.1106-0.71998-1.5523-1.1802-0.71913-0.74948-0.85508-0.81878-1.3034-0.66114-0.35222 0.12386-0.53664 0.35236-0.62219 0.77048-0.10606 0.51854-0.03 0.68364 0.60079 1.2996 1.0642 1.0391 0.91908 1.4708-0.33434 0.99418-0.28591-0.10872-0.71198-0.14963-0.94768-0.09049-0.60548 0.15196-0.58523 1.0864 0.0377 1.7094 0.257 0.257 0.75544 0.91668 1.1073 1.4668 0.64553 1.0091 1.7136 1.9809 2.177 1.9809 0.29112 0 1.1174-0.73168 1.1174-0.98918 0-0.09596-0.25288-0.4935-0.56184-0.88358-0.65889-0.83193-0.70984-1.2383-0.17597-1.4077 0.21226-0.06737 0.47876-0.32585 0.59198-0.57439 0.22258-0.4885 0.24569-0.49736 0.79439-0.2828 0.2449 0.09576 0.3694 0.32624 0.37455 0.69004 0.0109 0.81333 0.83263 0.85698 1.7056 0.09049 0.36013-0.31619 0.80364-0.57564 0.98543-0.57564 0.1818 0 0.42991-0.09934 0.55179-0.22122 0.12187-0.12169 0.26626-0.17743 0.32051-0.12317 0.0542 0.05423-0.40792 0.57394-1.0269 1.1551-0.78889 0.74068-1.1249 1.1954-1.1249 1.5209 0 0.64864 0.54554 0.90348 1.2041 0.56184 0.51494-0.26717 0.85594-0.22252 0.85594 0.11186 0 0.09553-0.31639 0.30717-0.70259 0.47008-0.67558 0.28495-1.3531 0.27925-2.5414-0.0201-0.84203-0.21211-1.4386 0.21378-1.4354 1.0244 3e-3 0.76968 0.0782 0.90478 0.81823 1.4731 0.75278 0.57814 1.3341 0.52349 3.4351-0.3205 2.3047-0.92583 3.7571-1.719 4.3803-2.3919 1.2643-1.365 3.7229-4.9762 3.7229-5.4689 0-0.08213 0.21007-0.54639 0.46757-1.0307 0.25747-0.48425 0.46879-0.98028 0.47008-1.1036 5e-4 -0.12329 0.11698-0.44691 0.25892-0.71893 0.33746-0.64679 0.56854-3.7352 0.51659-6.9028-0.0527-3.2143-0.1925-6.9373-0.30543-8.1448-0.0482-0.51494-0.0694-1.3163-0.0477-1.7798 0.12329-2.6387-0.11379-7.2048-0.42232-8.1398-0.15398-0.46654-0.16516-0.83488-0.0364-1.2041 0.18026-0.51709 0.13556-3.2254-0.0679-4.1101-0.0557-0.24208 0.0242-0.78933 0.17722-1.2167 0.153-0.42735 0.32928-1.2482 0.39216-1.8238 0.10237-0.93718 0.20631-1.1347 0.99422-1.8942 1.3218-1.2741 2.2622-1.8351 3.0807-1.8351 0.55363 0 0.75263 0.09358 0.90373 0.42232 0.21781 0.4739 2.2154 1.7346 3.3899 2.1393 0.86188 0.29694 1.1544 0.50529 2.7639 1.9721 0.68528 0.62449 1.4322 1.1139 1.9231 1.2607 0.44152 0.13206 1.0263 0.40016 1.2996 0.59449 0.27339 0.19436 0.59224 0.35319 0.70763 0.35319 0.44767 0 2.2826 0.73883 2.7526 1.1086 0.27209 0.21403 0.63054 0.38893 0.79688 0.38964 0.16635 4.99e-4 0.55489 0.1332 0.86349 0.29412 0.30862 0.16092 0.89863 0.31758 1.311 0.34816 0.4123 0.0306 0.88063 0.11189 1.042 0.181 0.18401 0.07881 0.56049-0.08575 1.0093-0.44243 0.39354-0.31274 0.76748-0.56814 0.83078-0.56814 0.25377 0 1.8652-1.649 2.1506-2.2009 0.67368-1.3027 0.21081-5.3609-0.73154-6.4139-0.23039-0.25747-0.72288-1.0618-1.0948-1.7886-0.37188-0.72678-0.85109-1.5091-1.0646-1.7383-0.70794-0.75993-1.8691-3.0204-2.055-4.0007-0.10073-0.53124-0.30068-1.0978-0.44494-1.2594-0.45013-0.50434-1.184-2.0148-1.6189-3.3346-0.34866-1.058-0.66783-1.5442-1.9419-2.9525-0.83858-0.92693-1.6837-1.9371-1.8778-2.2461-0.19414-0.30897-0.67889-0.90578-1.0772-1.326-0.39826-0.42027-0.86223-0.96878-1.0319-1.2179-0.16966-0.24918-0.46972-0.57954-0.66744-0.73403-0.63289-0.4946-2.5678-2.4794-2.5678-2.6344 0-0.08231 0.25286-0.80643 0.56183-1.6088 0.30897-0.80238 0.56184-1.6033 0.56184-1.7798s0.0843-0.37249 0.18728-0.43614c0.103-0.06365 0.18728-0.28988 0.18728-0.50149 0-0.21163 0.16238-0.69008 0.36199-1.0646 1.5198-2.8513 2.1898-5.6274 1.4681-6.0859-0.37138-0.23604-1.2444 0.17863-1.9846 0.94268-0.53154 0.54864-1.882 1.4576-1.996 1.3436-0.12431-0.12431 0.42793-1.8534 0.74789-2.3416 0.33474-0.51089 0.36902-1.9588 0.054-2.2737-0.48108-0.48107-2.2948-0.092488-2.4937 0.53419-0.10622 0.33471-1.6182 1.4882-1.9507 1.4882-0.086 0-0.2889 0.20038-0.44998 0.4462-0.16106 0.24582-0.61278 0.64049-1.0043 0.87608-0.39148 0.23556-1.1105 0.81328-1.5988 1.2846-0.48834 0.47126-1.0784 1.0357-1.311 1.2531-1.0891 1.018-2.7223 2.8589-3.2151 3.6249-0.55519 0.86298-0.73058 1.4327-1.0809 3.5244-0.19246 1.1491-0.21838 1.1885-1.0646 1.6176-0.47723 0.242-1.028 0.61749-1.2242 0.83458-0.19619 0.2171-0.46982 0.39592-0.60833 0.39592-0.13853 0-0.25264 0.08191-0.25264 0.18225 0 0.10034-0.25063 0.31175-0.55679 0.47008-0.31353 0.16214-0.94233 0.87938-1.4404 1.6428-0.86123 1.3201-4.4938 5.3259-5.1004 5.6249-0.16675 0.08208-0.50773 0.44814-0.75793 0.81323-0.62168 0.90728-1.6779 1.9394-1.9834 1.9394-0.13835 0-0.36755 0.16698-0.51029 0.37079-0.33939 0.48454-1.5791 1.3199-2.29 1.5435-0.30909 0.09718-0.73039 0.2458-0.93638 0.33056-1.7143 0.70548-3.0516 0.92968-5.0554 0.84588-2.3821-0.09961-3.1516-0.18543-4.2571-0.47385-1.133-0.29558-3.0875-1.085-3.875-1.5649-0.87963-0.53594-1.1952-0.72008-2.5917-1.5221-1.1921-0.68458-3.0894-2.5072-4.1767-4.0108-0.53699-0.74258-0.57779-0.88913-0.39592-1.404 0.52919-1.4983-0.57999-2.738-1.1752-1.3135-0.15863 0.37966-0.28782 0.87658-0.28782 1.1036 0 0.22696-0.41163 1.2491-0.91378 2.2712-0.50214 1.0221-0.97383 2.1534-1.0483 2.5138-0.07445 0.36044-0.25117 0.83848-0.39341 1.0633-0.14224 0.22484-0.37782 0.94193-0.52414 1.5925-0.41457 1.8434-0.81683 3.1446-1.0621 3.4401-0.12338 0.14868-0.53409 0.27023-0.91378 0.27023s-0.85463 0.12405-1.0545 0.27526c-0.50979 0.38559-1.0667 0.35142-1.4429-0.08798-0.64959-0.75863-1.1927-0.44442-2.0211 1.1702-0.251 0.4892-0.49933 0.88988-0.55179 0.88988-0.44187 0-1.8715-3.9001-1.8715-5.1054 0-0.4219-1.0335-2.5426-1.4769-3.0304-0.19242-0.2117-0.45546-0.72178-0.58444-1.1337-0.12899-0.41196-0.51759-1.3614-0.86473-2.1104-0.34715-0.74893-0.63224-1.4357-0.63224-1.5259 0-0.09016-0.26078-0.68884-0.57944-1.3311-0.65484-1.3198-1.0673-3.6006-1.1802-6.5169-0.08544-2.2058-0.33749-3.392-0.79183-3.7242-0.4639-0.33921-0.80128-0.24296-1.2506 0.35947-0.28451 0.38144-0.32597 0.56834-0.16968 0.75663 0.32006 0.38566 0.62534 2.6784 0.49145 3.6878-0.20972 1.581 1.045 6.4944 2.1858 8.5608 0.55574 1.0067 0.71564 1.4752 0.62594 1.8326-0.06627 0.26401-0.20526 0.48014-0.3092 0.48014-0.10395 0-0.79008 0.44996-1.5246 1.0005-1.9041 1.4271-4.2852 2.5592-5.7439 2.7312-0.68368 0.08061-2.2196 0.04215-3.6312-0.0905-2.191-0.20588-2.619-0.30748-4.09-0.97408-0.90343-0.40943-1.7948-0.88238-1.9809-1.0508-0.18605-0.16839-0.39289-0.30668-0.46002-0.30668-0.06713 0-0.58279-0.29438-1.1463-0.65484-0.56349-0.36047-1.0872-0.65484-1.1639-0.65484-0.18714 0-1.5439-0.92733-2.1242-1.4517-0.25637-0.23168-0.74023-0.47246-1.0759-0.53544-0.4709-0.08834-0.80348-0.37751-1.4568-1.2644-1.321-1.7934-1.5035-2.016-2.5615-3.1435-0.54634-0.58214-1.2458-1.1852-1.5548-1.3399-0.30897-0.1547-0.74573-0.47992-0.97033-0.72148-0.22458-0.24154-0.55929-0.56444-0.74408-0.71893-0.41375-0.3459-2.3131-1.4978-2.4748-1.5007-0.06476-0.0012-0.27667-0.33519-0.47134-0.74158-0.48132-1.0048-1.0199-1.4636-1.7999-1.5359-0.58924-0.05463-0.67604-0.13726-0.85593-0.81068-0.11005-0.41196-0.29939-0.98583-0.42106-1.2758-0.12167-0.28993-0.22122-0.70088-0.22122-0.91378 0-0.90608-2.347-3.7024-4.3074-5.1319-3.3085-2.4126-3.9512-2.9285-4.5098-3.6237-0.41533-0.51684-0.84893-0.82188-1.2582-0.90498zm0.24509 3.0354c0.11354-0.05093 0.35411 0.09519 0.70388 0.44494l0.59829 0.59829-0.40472 0.2828c-0.22236 0.15574-0.44065 0.47178-0.48516 0.70258-0.06477 0.33587-0.08643 0.31074-0.10684-0.1282-0.01402-0.30166-0.12613-0.82698-0.24886-1.1664-0.15764-0.43594-0.1701-0.68308-0.05656-0.73403zm-5.4989 3.1171c0.14104 0.01383 0.44775 0.19844 0.84588 0.54799 0.3519 0.30897 0.74623 0.56184 0.87733 0.56184 0.13108 0 0.49548 0.36528 0.80943 0.81068 0.56354 0.79953 0.56654 0.81188 0.17722 0.98288-0.52939 0.23254-0.58159 0.97138-0.12066 1.7182 0.45674 0.74003 1.0499 0.80203 1.3512 0.14077 0.15956-0.3502 0.15956-0.58619 0-0.93638-0.28139-0.61759-0.03698-0.59344 0.58699 0.05782 0.50224 0.52419 0.50304 0.52609 0.13198 0.88863-1.2395 1.2109-1.5144 1.5185-1.6038 1.7974-0.12111 0.37756-0.59179 0.58639-0.74913 0.33182-0.06283-0.10166-0.14457-0.45653-0.18225-0.78808-0.19695-1.733-0.49267-2.7975-1.0118-3.6412-0.31665-0.51464-0.57694-1.0617-0.57694-1.2167 0-0.15495-0.17367-0.50414-0.38713-0.77548-0.26468-0.33649-0.28935-0.49396-0.14832-0.48014zm71.173 3.8361c-0.12443 0.01857-0.25972 0.1079-0.47888 0.28029-0.46192 0.36333-0.49773 0.49559-0.49773 1.8389 0 0.83983-0.09009 1.5368-0.21493 1.6616-0.16195 0.16195-0.13702 0.33678 0.10432 0.70514 0.17858 0.27256 0.45864 0.46305 0.63099 0.42986 1.1643-0.22423 1.8692-4.1054 0.86603-4.7674-0.17261-0.11391-0.28532-0.16689-0.40975-0.14832zm-14.676 3.875c-0.36104-0.0029-0.72253 0.23523-0.90748 0.79563-0.2517 0.76263-0.81858 1.0077-1.3084 0.56434-0.49147-0.44477-1.1751-0.29438-1.3851 0.30543-0.18973 0.54179 0.30534 1.7339 1.0583 2.5477 0.4792 0.51794 0.70038 0.52349 1.6428 0.04273 0.81368-0.41512 1.6504-1.5699 1.8829-2.6005 0.21972-0.97423-0.38117-1.6504-0.98288-1.6553zm10.416 0.96908c-0.16902 0.07051-0.30455 0.22974-0.53294 0.52914-0.74533 0.97718-0.63124 1.6338 0.50654 2.9022 0.28106 0.31334 0.58484 0.42106 1.1853 0.42106 0.72703 0 0.85263-0.06899 1.2632-0.70134 0.25075-0.38621 0.56314-1.07 0.69378-1.5183 0.22665-0.77773 0.21649-0.83058-0.2187-1.1589-0.25088-0.18923-0.66729-0.3462-0.92508-0.34942-0.25781-0.0032-0.81668-0.05787-1.2418-0.12192-0.35952-0.05416-0.56124-0.07302-0.73023-0.0025zm-63.999 8.1373c-1.1264 0.11187-2.2979 0.63834-2.7815 1.3336-0.54854 0.78858-0.49945 1.4523 0.11941 1.6076 0.33762 0.08474 0.4337 0.22848 0.40849 0.60959-0.0299 0.45209 0.03631 0.50314 0.71013 0.55809 0.40835 0.03329 0.95558 0.22197 1.2167 0.41981 0.26108 0.19784 0.64799 0.32058 0.85973 0.27275 0.49232-0.11122 1.7481-1.3051 2.28-2.1682 0.75718-1.2286 0.07369-2.257-1.7283-2.598-0.33824-0.06401-0.70923-0.07248-1.0847-0.03519zm61.474 0.58444c-0.10299 0-0.18728 0.08429-0.18728 0.18728 0 0.10299 0.08429 0.18728 0.18728 0.18728 0.10299 0 0.18727-0.08429 0.18727-0.18728 0-0.10299-0.08428-0.18728-0.18727-0.18728zm57.764 2.8393c-0.16051 0.02087-0.348 0.06874-0.57569 0.14077-0.29859 0.09447-0.76008 0.21898-1.0256 0.27652-1.2742 0.27608-1.166 2.5349 0.17345 3.6249 0.38259 0.31134 0.80518 0.29542 1.7069-0.06536 1.4677-0.58724 1.7418-1.7526 0.77928-3.3056-0.3396-0.54804-0.57673-0.73378-1.0583-0.67119zm-70.608 22.123c-0.97213-0.05919-1.6554 1.32-1.8074 3.7431-0.06159 0.98158-0.21066 1.6255-0.48265 2.0865-0.79598 1.3491-1.3859 8.8818-0.86978 11.107 0.15284 0.65898 0.26525 1.8027 0.25012 2.5414-0.0209 1.0213 0.06747 1.5451 0.36953 2.1858 0.2185 0.46346 0.40145 1.222 0.40724 1.6855 0.0056 0.46345 0.17404 1.3063 0.3733 1.8728 0.19926 0.56644 0.36506 1.2217 0.36827 1.4568 4e-3 0.26776 0.16336 0.48729 0.42734 0.58699 0.24832 0.09375 0.56694 0.08306 0.77548-0.0264 0.31609-0.1659 0.3415-0.33846 0.24133-1.6164-0.06168-0.78683-0.29534-2.2732-0.51909-3.3031-0.22376-1.0299-0.46447-2.761-0.53419-3.8461-0.06971-1.0851-0.18117-2.0624-0.24886-2.172-0.1497-0.24221-0.17746-4.3617-0.03645-5.4049 0.05569-0.41196 0.17475-1.3402 0.2652-2.0626 0.15117-1.2071 0.30382-1.749 0.79813-2.8255 0.16474-0.35876 0.76163-3.279 1.0181-4.9849 0.09191-0.61134 0.0466-0.72383-0.36199-0.90998-0.14993-0.06831-0.29476-0.10592-0.43364-0.11438zm-28.318 0.78933c-0.39044 0.10548-0.66979 0.56339-0.79058 1.3223-0.11989 0.75313-0.08946 0.96408 0.16465 1.1614 0.43935 0.3411 0.96833 0.21151 1.3625-0.33433 0.71514-0.99038 0.58709-1.8706-0.31045-2.1355-0.15295-0.04515-0.29594-0.049-0.42609-0.01385zm48.515 0.77173c-0.22554 0.05898-0.46164 0.26822-0.52414 0.46506-0.13882 0.43739 0.38942 3.9918 0.80318 5.4059 0.16573 0.56644 0.35051 1.6302 0.41101 2.3629 0.06053 0.73278 0.21608 1.4603 0.34565 1.6164 0.60594 0.73008 1.0654 3.9343 1.0131 7.0688-0.03485 2.0853-0.23596 3.2683-0.80818 4.7536-0.19377 0.50294-0.35194 1.0559-0.35194 1.228 0 0.17208-0.25285 0.71064-0.56184 1.1978-0.30897 0.48719-0.56489 1.03-0.56814 1.2066-0.0077 0.41378-0.33162 0.82708-0.98038 1.2494-0.28479 0.18536-0.4954 0.43088-0.46883 0.54674 0.0266 0.11588-0.03595 0.21116-0.13826 0.21116-0.10229 0-0.18602-0.16858-0.18602-0.37456 0-0.43908-0.22821-0.84338-0.47762-0.84338-0.09662 0-0.49206 0.27615-0.87858 0.61339-0.69163 0.60339-1.9102 1.2594-2.3391 1.2594-0.1204 0 0.07431-0.31514 0.43237-0.70134 0.81163-0.87543 1.4844-1.8374 1.4844-2.1204 0-0.49953-0.87133-2.0606-1.2104-2.1682-0.65904-0.20918-1.8086-0.12328-2.0877 0.15586-0.14992 0.14992-0.32241 0.57984-0.38336 0.95523-0.09718 0.59884-0.05351 0.70914 0.35696 0.89618 0.35369 0.16116 0.56989 0.15792 0.88613-0.0113 0.31804-0.17003 0.46954-0.1707 0.63224-0.0051 0.16109 0.16405 0.10533 0.30621-0.2275 0.57819-0.24314 0.19867-0.56729 0.36199-0.72018 0.36199-0.39391 0-1.2582 0.65054-1.6415 1.2355-0.25747 0.39295-0.28249 0.58774-0.12192 0.94018 0.11151 0.24473 0.33098 0.44494 0.48767 0.44494 0.36665 0 0.36361 0.26366-0.0063 0.57064-0.17679 0.14673-0.26808 0.46657-0.23378 0.81823 0.0677 0.69378 0.72448 0.88758 1.2858 0.37958 0.29464-0.26664 0.40448-0.27966 0.64604-0.07918 0.24765 0.20553 0.38636 0.13885 0.91878-0.44243 0.49617-0.54169 0.76488-0.68498 1.2921-0.68498 0.36624 0 0.71033 0.07123 0.76418 0.15837 0.10769 0.17425-1.2867 1.1526-1.6428 1.1526-0.12233 0-0.43052 0.14603-0.68498 0.32427-0.36347 0.25458-0.86863 0.32484-2.3541 0.32805-1.9574 4e-3 -2.5161 0.18737-2.5037 0.82203 0.0087 0.44341 0.48419 1.0032 1.0734 1.2645 0.65644 0.29101 0.67934 0.29196 1.2456 0.07667 0.26158-0.09945 1.1503-0.26602 1.9759-0.36953 1.9583-0.24556 2.8303-0.66814 4.3376-2.1053 1.1279-1.0755 1.7864-2.042 2.8494-4.1792 0.20491-0.41195 0.45938-0.86228 0.56559-1.0005 0.10623-0.13823 0.60989-1.3598 1.1186-2.7149l0.92508-2.4635 0.08421-2.9034c0.09889-3.386-0.13158-5.8179-0.71138-7.5038-0.22764-0.66194-0.39812-1.5189-0.37959-1.9042 0.01855-0.38529-0.06648-0.88683-0.18854-1.1149-0.12205-0.22806-0.29311-1.1127-0.37958-1.9658-0.08648-0.85313-0.23488-1.699-0.33056-1.8803-0.09569-0.18135-0.26973-0.80308-0.38587-1.3813-0.24392-1.2145-0.81918-1.8978-1.458-1.7308zm-14.689 1.5824c-0.23905 4e-3 -0.48658 0.12963-0.73278 0.37582-0.27482 0.27478-0.36352 0.54124-0.29537 0.88863 0.05359 0.27314 0.01975 0.87638-0.07541 1.3399-0.09518 0.46346-0.21492 1.3063-0.26646 1.8728-0.15986 1.757-0.29228 2.6735-0.55304 3.8386-0.13831 0.61794-0.26388 1.6221-0.28029 2.2322-0.01645 0.61024-0.11042 1.258-0.20738 1.4392-0.23253 0.43443-0.22342 2.697 0.0176 4.6191 0.16018 1.2775 0.38173 1.9256 1.3022 3.8122 0.60999 1.2503 1.2671 2.4506 1.4605 2.6684 0.34603 0.38957 1.1639 1.735 1.1639 1.9143 0 0.22162-1.5025-1.1417-1.6013-1.453-0.1331-0.41935-0.70978-0.75533-1.0633-0.61964-0.14165 0.05436-0.39801 0.33584-0.56939 0.62594-0.30329 0.51344-0.29702 0.54719 0.25264 1.2946 0.31057 0.4223 0.83498 0.93473 1.1652 1.1388 0.55659 0.344 1.2346 1.5209 0.87608 1.5209-0.48623 0-1.2963-0.48468-1.8942-1.1337-0.79033-0.85798-1.1578-0.92028-1.5837-0.27023-0.37072 0.56579-0.57339 0.59114-0.73153 0.09301-0.16844-0.53074-0.74208-0.46402-1.0068 0.11689-0.40828 0.89608 0.59999 1.792 1.6943 1.5058 0.28886-0.07554 0.62659 0.09446 1.2104 0.60834 0.53509 0.47102 1.3041 0.87878 2.265 1.2003 0.79998 0.26769 1.6228 0.43704 1.8288 0.37707 0.98493-0.28668 1.1333-1.0259 0.29286-1.4605-0.83858-0.43364-0.83518-0.62544 0.0075-0.47134 0.63714 0.1165 0.81543 0.0758 1.1249-0.2564 0.58034-0.62294 0.37991-1.058-0.67624-1.4656-0.81973-0.3163-1.517-0.85223-1.3399-1.0294 0.08825-0.08825 1.8723 0.52294 2.0802 0.71268 0.29324 0.26765 1.3651 0.18342 1.6805-0.13197 0.59024-0.59024 0.2213-1.2248-0.92258-1.5862-1.2449-0.39336-2.0482-1.0158-2.559-1.9834-0.2645-0.50099-0.94673-1.7725-1.5158-2.8255-1.2426-2.2992-1.4027-3.0597-1.189-5.6484 0.05431-0.65804 0.11505-2.2102 0.13449-3.4489 0.02595-1.6557 0.1271-2.5037 0.3821-3.2013 0.19078-0.52194 0.3469-1.2184 0.3469-1.5485 0-0.33009 0.09166-0.65728 0.20362-0.72648 0.11198-0.0692 0.15569-0.30528 0.09804-0.52539-0.05766-0.22011 0.0308-1.1399 0.19607-2.0437 0.28444-1.5556 0.28279-1.6636-0.03395-2.0136-0.21598-0.23865-0.44722-0.35583-0.68628-0.35193zm-32.359 0.04905c-0.25738 0.0109-0.63994 0.24876-0.94768 0.61839-0.38848 0.46658-0.98718 2.2471-0.83708 2.4899 0.3853 0.62344 1.3139-0.29763 1.8074-1.7936 0.21176-0.64189 0.28683-1.146 0.18603-1.2469-0.0504-0.0504-0.12285-0.07151-0.20865-0.06787zm41.332 0.19859c-0.20888 0.0495-0.38955 0.22209-0.59074 0.52914-0.26229 0.40036-0.25632 0.52349 0.06159 1.3675 0.19218 0.51019 0.40444 1.3075 0.4726 1.771 0.25418 1.7284 0.55474 2.735 1.0621 3.5595 0.66118 1.0746 0.96638 2.4263 0.82203 3.6387-0.07805 0.65564 2e-3 1.3875 0.26018 2.3805 0.34316 1.3207 0.35341 1.5803 0.13198 3.283-0.13225 1.0169-0.33765 2.0308-0.45625 2.2524-0.23288 0.43514-0.2942 1.7847-0.0905 1.9884 0.20456 0.20456 0.75168 0.14178 0.95398-0.10935 0.10371-0.12874 0.24746-0.50889 0.31926-0.84463 0.0718-0.33575 0.25738-0.86473 0.41226-1.1752 0.15489-0.31046 0.36842-1.1739 0.47511-1.9181 0.10669-0.74413 0.26899-1.4331 0.35948-1.5309 0.25638-0.27721 0.19326-1.3144-0.11564-1.9067-0.18608-0.35679-0.28145-1.1011-0.28531-2.2222-0.0077-2.307-0.54004-4.667-1.1878-5.2679-0.272-0.25222-0.50509-0.56044-0.51784-0.68498-0.01275-0.12457-0.05036-0.64769-0.08421-1.1626-0.03385-0.51494-0.20608-1.4954-0.3821-2.1782-0.25678-0.99618-0.42671-1.3046-0.86098-1.5611-0.31332-0.18508-0.55029-0.25816-0.75918-0.20864zm24.497 1.8464c-0.32783-1e-3 -0.67523 0.17946-0.86978 0.54299-0.11243 0.2101-0.24359 1.5311-0.2916 2.9361-0.048 1.405-0.15655 2.9642-0.24132 3.464-0.10397 0.61304-0.0756 1.2103 0.0892 1.8351 0.13973 0.52979 0.20078 1.3515 0.14204 1.9206-0.0661 0.64004-0.0275 1.0424 0.10809 1.1262 0.11633 0.07189 0.21116 0.60779 0.21116 1.1966 0 0.77828 0.17889 1.523 0.66113 2.7513 0.78729 2.0054 1.8575 4.1593 2.3252 4.6794 0.18527 0.20598 0.43842 0.57309 0.56309 0.81448 0.12466 0.24142 0.58839 0.59799 1.0294 0.79308 0.44104 0.19509 0.90773 0.48156 1.0369 0.63724 0.14894 0.17946 0.55799 0.28406 1.1186 0.28406 0.64649 0 0.97518 0.10076 1.223 0.37456 0.41185 0.45512 0.4264 0.45532 1.2443 0.0465 0.90123-0.45044 1.6584-1.0804 1.6641-1.3851 3e-3 -0.13967 0.25338-0.54829 0.55679-0.90873 0.49514-0.58819 0.55228-0.61329 0.55678-0.2451 0.0114 0.92993 1.1956 0.76523 1.6088-0.22372 0.40981-0.98083 0.35302-1.404-0.18854-1.404-0.25139 0-0.51394 0.09152-0.58318 0.20362-0.0773 0.12514-0.20872 0.04265-0.33936-0.21493-0.11703-0.23073-0.35607-0.50999-0.53169-0.61964-0.41567-0.25956-1.1396 0.39315-1.7396 1.5674-0.2368 0.46345-0.70509 1.0441-1.0407 1.2908-0.58549 0.43048-0.62088 0.43438-0.86223 0.10432-0.13834-0.18919-0.25137-0.40119-0.25137-0.47134 0-0.07014-0.325-0.1792-0.72149-0.24258-0.39647-0.0634-0.93563-0.2842-1.1991-0.49145-0.26345-0.20724-0.56769-0.37707-0.67494-0.37707-0.23696 0-1.0443-1.0381-1.644-2.1129-1.2721-2.2798-1.905-4.0178-2.0337-5.5819-0.0458-0.55674-0.14483-1.6031-0.21996-2.324-0.18133-1.7402-0.17962-3.4041 9e-3 -6.4859 0.0859-1.4042 0.10259-2.7227 0.0365-2.9311-0.11575-0.36469-0.42379-0.54804-0.75163-0.54929zm12.775 0.88738c-0.87178-5e-3 -1.1372 0.65144-0.99798 2.4723 0.0652 0.85318 0.0485 1.7952-0.0377 2.094-0.17348 0.60184 0.0503 2.1252 0.44746 3.0429 0.14042 0.32453 0.25515 0.71874 0.25515 0.87608 0 0.15735 0.13353 0.41885 0.29537 0.58069 0.36982 0.36975 0.53919 0.36955 0.90998-0.0015 0.58629-0.58629 0.71299-1.0166 0.47134-1.6001-0.16464-0.39748-0.19196-1.2768-0.098-3.1749 0.17165-3.4688-0.0642-4.2832-1.2456-4.2898zm-19.886 1.8703c-0.85733 0-1.2775 0.53544-1.3788 1.7572-0.08663 1.0446 0.0426 1.3882 1.639 4.3703 0.28802 0.53799 0.58149 1.365 0.65234 1.8376 0.07087 0.4726 0.29351 1.1388 0.49521 1.4806 0.39175 0.66398 0.99468 3.1983 0.82578 3.4716-0.05573 0.09018-0.0091 0.22149 0.10433 0.2916 0.13603 0.08408 0.16431 0.49484 0.08169 1.2066-0.10051 0.86618-0.05418 1.2226 0.23504 1.8049 0.78293 1.5765 1.3152 2.4414 1.9181 3.1133 0.78703 0.87723 1.556 0.94468 2.3529 0.20613l0.53544-0.49648-0.64478-0.48642c-0.35494-0.26775-0.99928-0.80883-1.4316-1.2016-0.95013-0.86313-1.1828-1.7042-1.2921-4.6744-0.0411-1.1165-0.17798-2.2045-0.30669-2.4346-0.34743-0.62139-0.69328-2.0069-0.70258-2.8142-7e-3 -0.63324-0.37986-1.5622-1.8351-4.5789-0.23389-0.48486-0.2541-0.74523-0.09552-1.2619 0.26966-0.87868-0.24643-1.5912-1.1526-1.5912zm-43.71 7.9133c-0.13141 0.0119-0.2406 0.0828-0.39215 0.21996-0.28183 0.25506-0.31934 0.43316-0.18979 0.88488 0.16202 0.56499 0.05813 1.5822-0.19734 1.9356-0.07443 0.10299-0.19319 0.56594-0.26395 1.0294-0.07076 0.46346-0.2368 1.012-0.36828 1.2179-0.13147 0.20598-0.43021 0.96458-0.66488 1.6855-0.81028 2.4891-1.9465 4.2923-3.3836 5.3734-0.95238 0.71638-1.1797 1.4433-0.63979 2.04 0.17817 0.19687 0.4018 0.35696 0.49774 0.35696 0.35802 0 2.6369-2.3683 2.9726-3.0895 0.19175-0.41196 0.45268-0.91768 0.58069-1.1237 0.96938-1.5599 1.3154-2.2318 1.7358-3.3748 0.26417-0.71828 0.64628-1.6127 0.84968-1.9872 0.20336-0.37448 0.37079-0.92948 0.37079-1.233 0-0.30352 0.09405-1.0232 0.2099-1.6001 0.2725-1.3569 0.12733-1.9025-0.58699-2.1983-0.24445-0.10125-0.399-0.14891-0.53039-0.137zm64.214 2.0111c-0.88958 0-1.0757 0.21752-1.1966 1.404-0.0525 0.51494-0.15241 1.3817-0.22247 1.9268-0.0862 0.67089-0.054 1.0797 0.0993 1.2645 0.12456 0.15008 0.32127 0.26968 0.4374 0.26646 0.25824-0.0073 0.86598-0.45256 0.86598-0.63474 0-0.07276 0.20369-0.40116 0.45249-0.72898 0.58074-0.76528 0.75728-1.7373 0.4927-2.7199-0.19978-0.74198-0.24403-0.77803-0.92883-0.77803zm-57.774 7.9348c-0.14264 0.05423-0.2277 0.18473-0.35696 0.42986-0.15352 0.29114-0.65368 0.87898-1.1124 1.3059-1.2382 1.1525-1.8171 2.5644-1.9055 4.6493-0.11002 2.5939-0.2324 3.4551-0.56434 3.9618-0.43938 0.67058-0.30638 1.2858 0.27903 1.2858 0.57329 0 0.74058 0.20737 0.75413 0.93638 0.0063 0.3403 0.22865 0.81768 0.56434 1.2104 0.30478 0.35658 0.55514 0.77803 0.55554 0.93638 3.85e-4 0.15837 0.16465 0.55754 0.36576 0.88738 0.35203 0.57734 0.52324 1.1146 1.3273 4.1754 0.20292 0.77244 0.50279 1.7411 0.66619 2.1531 0.16336 0.41196 0.37373 1.2319 0.46882 1.8213 0.0951 0.58933 0.34873 1.3687 0.56309 1.732 1.0381 1.7595 2.6269-0.25836 1.6616-2.1104-0.22692-0.43534-0.56484-1.5699-0.75038-2.5214-0.29277-1.5014-1.0616-4.0995-1.6503-5.5754-0.85308-2.139-1.0381-2.5553-1.2431-2.8016-0.12855-0.15449-0.34542-0.74448-0.48265-1.311-0.31197-1.2876-0.35508-5.4569-0.06033-5.8234 0.11613-0.14436 0.27315-0.47404 0.34941-0.73153 0.2509-0.84683 0.64654-1.1237 1.6063-1.1237 1.5786 0 2.5613-0.90973 2.0928-1.9382-0.27208-0.59714-1.5133-1.3768-2.422-1.5221-0.36288-0.05801-0.56374-0.08063-0.70638-0.0264zm33.112 2.177c-0.94228-0.0015-1.0335 1.1424-0.15586 1.9558 0.25331 0.23476 0.46128 0.50989 0.46128 0.61084 0 0.10097 0.16226 0.33068 0.36073 0.51029 0.19848 0.17962 0.41577 0.65104 0.48265 1.047 0.20976 1.2415 0.16722 4.3756-0.06536 4.8101-0.12022 0.22464-0.34393 1.0604-0.49647 1.8577-0.15254 0.79728-0.36206 1.5348-0.46631 1.639-0.10425 0.10425-0.18979 0.33001-0.18979 0.50149 0 0.17149-0.16857 0.52624-0.37455 0.78808-0.20599 0.26186-0.37457 0.63974-0.37457 0.83958 0 0.19987-0.33511 0.94453-0.74408 1.6554-0.40896 0.71078-1.0299 1.8575-1.3801 2.5477-0.35013 0.69023-0.85283 1.5119-1.1174 1.8263-0.58439 0.69453-0.82093 2.023-0.53039 2.9763 0.12987 0.42615 0.75503 1.2534 1.6616 2.197 0.79983 0.83249 2.4657 2.652 3.7016 4.0435 1.2359 1.3915 2.5316 2.7291 2.8783 2.9726 0.34672 0.2435 0.71714 0.63539 0.82453 0.87103 0.11281 0.2476 0.46196 0.50284 0.82578 0.60334 0.69814 0.19276 3.1797 2.4974 3.8461 3.5721 1.7259 2.783 6.8654 9.0073 7.7498 9.3853 0.0914 0.0391 0.54584 0.57219 1.0093 1.1853 0.46346 0.61309 2.2115 2.4888 3.8851 4.1679 1.6736 1.6791 3.043 3.1372 3.043 3.2403 0 0.10308 0.21983 0.37604 0.48767 0.60709 1.1281 0.97313 4.7561 7.5763 4.7561 8.6563 0 0.16425 0.16857 0.62943 0.37456 1.0332 0.20597 0.40376 0.37456 0.87398 0.37456 1.0445s0.12221 0.70044 0.27274 1.1777c0.60739 1.9257 0.80318 4.2792 0.54674 6.5789-0.13207 1.1844-0.24372 2.7081-0.24886 3.3861-5e-3 0.67799-0.10411 1.7057-0.21996 2.2826-0.24273 1.2087-0.11816 1.9451 0.35068 2.0676 0.18016 0.0471 0.35462 0.0949 0.38712 0.10684 0.0325 0.0119 0.22184-0.0656 0.42106-0.1722 0.27887-0.14925 0.36258-0.39612 0.36451-1.0759 1e-3 -0.48557 0.13232-1.3466 0.29034-1.913 0.38228-1.3704 0.58299-8.0293 0.26017-8.6323-0.12217-0.22828-0.24317-0.84428-0.26897-1.3688-0.0977-1.9878-0.47965-3.7727-1.0344-4.8416-0.30813-0.59369-0.55933-1.2603-0.55933-1.4806 0-0.22033-0.29565-0.92783-0.65609-1.5724-0.36047-0.64459-0.65484-1.3136-0.65484-1.4869s-0.15789-0.53859-0.35067-0.81198c-0.19277-0.27337-0.57833-0.94978-0.85718-1.5033-0.27889-0.55349-0.78733-1.2705-1.1287-1.5925-0.34135-0.32195-0.73389-0.81219-0.87353-1.0897-0.13966-0.27756-1.5717-1.8791-3.1825-3.5583-5.0479-5.2629-6.2839-6.5879-7.3103-7.8393-0.54814-0.66853-1.1957-1.4231-1.4379-1.678-0.24223-0.25486-0.66314-0.75819-0.93513-1.1186-0.27198-0.36046-0.87658-1.124-1.3449-1.6956-0.4683-0.57154-1.2542-1.6435-1.7458-2.3831-0.49168-0.73958-0.97318-1.3934-1.0696-1.453-0.0964-0.0596-0.1747-0.18447-0.1747-0.27652 0-0.31656 1.9288 0.0615 3.0266 0.59323 0.60454 0.29285 1.2105 0.53294 1.3474 0.53294 0.13688 0 0.39638 0.16262 0.57569 0.36073 0.37848 0.41822 1.997 1.2168 2.8393 1.4015 0.31913 0.0699 0.86313 0.41855 1.2079 0.77424 0.37134 0.38313 0.80883 0.64728 1.0747 0.64728 0.24678 0 0.66324 0.16858 0.92508 0.37456 0.26185 0.20598 0.62844 0.37455 0.81448 0.37455 0.18602 0 0.3901 0.0843 0.45375 0.18728 0.0637 0.10299 0.34251 0.18672 0.61964 0.18728 0.27714 5e-4 0.72483 0.14836 0.99422 0.32805 1.004 0.66973 1.958 1.3499 2.412 1.7182 0.25748 0.20883 0.53524 0.38078 0.61714 0.38336 0.0819 3e-3 0.78213 0.43173 1.5561 0.95398 2.0686 1.3959 5.8409 3.2303 7.2838 3.5432 1.6209 0.35141 2.4652 0.64693 3.1749 1.1098 1.0858 0.70809 2.6904 2.4168 3.1938 3.3999 0.63164 1.2337 3.3418 3.95 3.7795 3.7883 0.43885-0.1621 0.61268-0.42835 0.61588-0.94767 2e-3 -0.26334-0.1098-0.42107-0.29788-0.42107-0.18371 0-0.26121-0.10335-0.19859-0.26646 0.0564-0.14696-0.022-0.37102-0.17471-0.49773-0.3987-0.33091-2.2042-2.9367-2.6621-3.8424-0.34222-0.67678-1.5835-2.0704-2.319-2.603-0.14223-0.10299-0.43862-0.34103-0.65863-0.53039-0.21999-0.18937-0.67959-0.41545-1.0219-0.50149-1.5197-0.38205-5.1824-1.7534-6.9808-2.6143-1.0806-0.51734-1.9975-0.94143-2.0375-0.94143s-0.39914-0.30879-0.79938-0.68628c-0.40026-0.37748-1.0694-0.83649-1.4857-1.0206-0.41621-0.18412-1.096-0.65749-1.5108-1.052-0.47971-0.45633-1.1236-0.82798-1.771-1.0219-1.7344-0.51938-2.4724-0.83848-3.8826-1.6792-3.5177-2.0974-5.8019-3.25-7.3413-3.7054-0.77243-0.22841-1.6804-0.53539-2.0186-0.68123-0.33822-0.14585-0.73334-0.26521-0.87733-0.26521-0.36748 0-1.0357-0.99698-1.0357-1.5447 0-0.56558-0.46577-0.99442-1.2632-1.1639-0.53909-0.11457-0.62864-0.0734-0.79564 0.36576-0.1035 0.27224-0.18853 0.77438-0.18853 1.1161 0 0.88238-0.65504 1.0497-1.0935 0.27903-0.17126-0.30103-0.46736-0.54864-0.65859-0.54929-0.4032-1e-3 -2.1994-1.8253-3.9605-4.0234-0.41139-0.51344-1.1473-1.3395-1.6365-1.8351-0.48921-0.4956-0.88988-0.96798-0.88988-1.0495 0-0.0815-0.21306-0.24498-0.4726-0.36324-0.93993-0.42826-0.91623-0.95813 0.13198-2.9726 4.5316-8.7088 4.5618-8.7898 5.1029-13.443 0.32249-2.7727 0.15818-3.7105-0.94898-5.3944-0.84943-1.2921-1.7124-2.0022-2.4333-2.0035zm-56.069 1.8716c-0.10907 0-0.14535 0.08428-0.0817 0.18727 0.06365 0.10299 0.15317 0.18728 0.19859 0.18728 0.0454 0 0.0817-0.08429 0.0817-0.18728 0-0.10299-0.08952-0.18727-0.19859-0.18727zm-4.4507 0.37455c0.1457 0 0.76648 0.46108 1.3801 1.0244 0.84308 0.77398 1.0246 1.0238 0.74158 1.0219-0.35285-2e-3 -1.5908-0.99693-2.138-1.7182-0.20848-0.2748-0.20582-0.32805 0.01634-0.32805zm18.36 0.20738c-0.24246 0.0165-0.47195 0.14446-0.73028 0.38713-0.55889 0.52499-0.54604 0.78748 0.06033 1.2644 0.66118 0.52009 1.2666 0.49347 1.6378-0.0729 0.41725-0.63679 0.38044-0.94283-0.15837-1.2959-0.31122-0.20392-0.56699-0.2993-0.80943-0.28281zm2.4434 2.4346c-0.2021 0.0099-0.45674 0.16238-0.73028 0.45751-0.52079 0.56194-0.55459 0.88203-0.13826 1.2984 0.69803 0.69803 1.5572-0.20771 1.2858-1.3549-0.06586-0.27844-0.2152-0.41089-0.41729-0.40095zm-19.222 1.2217c0.12984 0.01055 0.31146 0.09228 0.61839 0.24887 0.38302 0.1954 0.80568 0.4878 0.94018 0.64984 0.21095 0.25419 0.18349 0.29222-0.19985 0.27903-0.38799-0.01335-1.6213-0.45446-1.8276-0.65359-0.0404-0.039 0.03065-0.19676 0.15837-0.35068 0.10237-0.12334 0.18062-0.18399 0.31045-0.17345zm82.843 2.5037c-0.66358 0-1.028 1.5983-0.47008 2.0613 0.63084 0.52354 1.0604 1.9513 1.2393 4.1164 0.20997 2.541 0.10217 3.1433-1.0784 6.0334-0.4506 1.103-0.81823 2.1223-0.81823 2.265 0 0.14272-0.16437 0.4071-0.36451 0.58824-0.20014 0.18113-0.41568 0.56459-0.47888 0.85218-0.0632 0.28761-0.27873 0.67104-0.47887 0.85218-0.20015 0.18113-0.36325 0.48799-0.36325 0.68124s-0.11994 0.3975-0.26647 0.45374c-0.42715 0.16391-0.49919 0.60854-0.2099 1.3009 0.19897 0.47619 0.38456 0.64479 0.71014 0.64479 0.48727 0 1.3955-0.85788 1.9457-1.8389 0.19177-0.34191 0.55828-0.98123 0.81573-1.4203 0.88513-1.5095 1.311-2.344 1.311-2.5703 0-0.12476 0.21074-0.75193 0.46757-1.3939 0.80978-2.0242 1.0466-3.6023 0.92128-6.1374-0.0619-1.2514-0.23819-2.7392-0.39215-3.3056-0.45135-1.6604-1.6429-3.1825-2.49-3.1825zm-83.773 0.93638c-1.0133 0-1.3321 1.2095-1.0721 4.0699 0.1101 1.2114 0.23834 2.4134 0.28532 2.6709 0.28917 1.5848 0.68358 2.9089 1.2833 4.3074 0.69138 1.6123 1.629 4.8835 1.629 5.6839 0 0.24023-0.16682 0.58839-0.37079 0.77299-0.20397 0.18458-0.42395 0.63973-0.48894 1.0118-0.36575 2.0941-0.86893 2.9098-2.4245 3.9266-0.41646 0.2722-1.0392 0.78448-1.3839 1.1375-0.3446 0.35298-0.80453 0.65324-1.0219 0.66869-0.28785 0.0204-0.41275 0.17519-0.45877 0.56938-0.06057 0.51884-0.69548 1.1695-1.0344 1.0596-0.08922-0.029-0.36019 0.0778-0.60204 0.2363-0.24187 0.15846-0.56544 0.28782-0.71768 0.28782-0.15227 0-0.38672 0.15809-0.52159 0.35068-0.43651 0.62319-1.9746 1.6791-2.8054 1.9268-0.94293 0.28113-2.4647 1.3705-3.1837 2.2788-0.30284 0.38257-0.73728 0.68163-1.0935 0.75288-0.32492 0.065-1.0683 0.40655-1.6516 0.75794-0.77913 0.46935-1.3742 0.67038-2.2448 0.76043-0.90918 0.094-1.4566 0.28922-2.3516 0.83708-0.64164 0.39272-1.3418 0.76908-1.5561 0.83708-0.21428 0.068-0.61279 0.33114-0.88613 0.58444-0.27333 0.25331-0.70673 0.51389-0.96278 0.57819-0.25605 0.0643-0.56804 0.30689-0.69378 0.54048-0.20561 0.38177-1.6761 2.1018-2.9625 3.4653-0.98858 1.0479-3.1649 3.7024-3.1649 3.86 0 0.0895-0.29697 0.59299-0.65989 1.1199-0.56499 0.82033-0.71163 1.269-1.0181 3.1184-0.30632 1.8487-0.32308 2.2778-0.11815 2.9763 0.13677 0.46622 0.20426 1.3371 0.15711 2.0324-0.085403 1.2595 0.32575 3.1706 1.3725 6.3674 0.76208 2.3274 0.82828 2.5451 0.82828 2.7689 0 0.11837 0.21009 0.67638 0.46756 1.2393 0.25747 0.56289 0.46757 1.1864 0.46757 1.3864 0 0.19999 0.12706 0.46882 0.28154 0.59704 0.31731 0.26334 0.3774 0.74913 0.093008 0.74913-0.35534 0-0.18033 0.47097 0.48516 1.311 0.36719 0.46344 0.85063 0.89148 1.0746 0.95148 1.0209 0.27331 1.0127-0.182-0.018855-1.0432l-0.61339-0.51154 0.47259-0.43866c0.78683-0.72919 0.71783-1.069-1.1651-5.7929-0.41052-1.0299-1.0298-2.7144-1.3763-3.7443l-0.62969-1.8728 0.0088-3.7456c0.0089-3.9273 0.28598-5.7219 0.92003-5.9654 0.15485-0.0594 0.28154-0.22911 0.28154-0.37581 0-0.14669 0.12083-0.3127 0.26898-0.36952 0.14815-0.0569 0.4563-0.42386 0.68503-0.81574 0.2287-0.39188 0.79788-1.0372 1.2644-1.4341 0.46657-0.39697 1.1161-1.0713 1.4442-1.4982 0.32811-0.42697 1.0282-1.2395 1.5561-1.8049 0.52779-0.56544 0.96028-1.1245 0.96028-1.2431 0-0.11855 0.31639-0.34309 0.70258-0.49899 0.38621-0.15591 1.2071-0.62804 1.825-1.0495 0.61794-0.42148 1.2374-0.76643 1.3763-0.76668 0.13892-2.5e-4 0.51759-0.11814 0.84213-0.26144 0.32453-0.14331 1.0084-0.36938 1.5183-0.50279 0.50999-0.13337 1.2673-0.42367 1.6843-0.64478 0.41694-0.22112 0.98193-0.45842 1.2556-0.52664 0.2737-0.0682 0.99078-0.53314 1.5925-1.0332 0.60169-0.49999 1.1986-0.87178 1.3273-0.82703 0.12874 0.0447 0.23504-0.0174 0.23504-0.13826 0-0.33985 0.73058-0.88963 1.9897-1.4945 0.63129-0.30325 1.3899-0.74403 1.6855-0.98038 0.80683-0.64503 2.1521-1.5557 2.7853-1.8854 0.30897-0.16087 0.93488-0.63354 1.3914-1.0508 0.45653-0.41725 1.1655-1.034 1.5749-1.3713 2.5798-2.125 2.9808-2.5821 3.9932-4.5362 0.83463-1.611 1.1766-2.9064 1.1815-4.4821 4e-3 -1.2959-0.08385-1.6831-0.71518-3.1825-1.2876-3.0581-2.0677-5.3314-2.2888-6.6704-0.09355-0.56644-0.2533-1.4337-0.3557-1.9281-0.11348-0.54784-0.12378-1.3525-0.0264-2.0601 0.19391-1.4089 0.0132-2.0035-0.60834-2.0035zm14.788 1.7144c-0.10783-0.0112-0.23658 0.0069-0.39466 0.0465-0.74533 0.18706-1.1419 1.2577-0.83583 2.2562 0.33628 1.097 0.37226 3.0198 0.08044 4.315-0.45134 2.0031-0.71088 5.0629-0.46756 5.5179 0.56144 1.049 1.678-0.25389 1.8263-2.1317 0.04135-0.52328 0.23048-1.6258 0.42106-2.4497 0.82023-3.546 0.90028-4.4808 0.44243-5.1344-0.1705-0.2434-0.38094-0.82668-0.46883-1.2971-0.14737-0.78883-0.27982-1.0889-0.60334-1.1224zm50.534 9.5208c-0.53184 0-0.74948 0.35028-0.92508 1.497-0.07096 0.46346-0.23931 1.0962-0.37456 1.4052-0.36905 0.84308-0.57139 4.038-0.26772 4.2257 0.37441 0.23139 0.89028-0.14721 1.5008-1.1023 0.40763-0.63778 0.53164-1.0202 0.4575-1.4027-0.05728-0.29551 0.0103-0.70408 0.15461-0.93513 0.14111-0.22594 0.30939-0.96108 0.3733-1.6327 0.13357-1.4037-0.1575-2.0551-0.91878-2.0551zm-35.238 3.557c-0.26096 0-2.4899 2.0905-2.4899 2.3353 0 0.0801-0.42959 0.53549-0.95523 1.0118s-1.1127 1.1715-1.3034 1.5447c-0.43716 0.85538-1.2729 1.5654-2.1845 1.8552-0.38883 0.12362-1.0082 0.53054-1.3763 0.90498-1.1258 1.1451-2.204 1.9922-2.5377 1.9922-0.24557 0-0.41582-0.40321-0.75163-1.7798-0.47515-1.9478-0.89078-2.5327-1.6114-2.2662-0.22178 0.082-0.48867 0.28364-0.59199 0.44746-0.27524 0.43637 0.19389 2.9595 0.75918 4.0849l0.46631 0.92758-0.48767 0.57944c-0.84583 1.0052-1.7607 1.5174-2.4723 1.3839-0.55539-0.10419-0.64724-0.0611-0.81573 0.38209-0.13523 0.35561-0.12726 0.57504 0.02765 0.76169 0.17539 0.21133-0.05118 0.51669-1.1664 1.5737-1.1185 1.06-1.3293 1.3458-1.1023 1.4907 0.2272 0.14508 0.2016 0.17968-0.13323 0.18225-0.22766 2e-3 -0.50139 0.10882-0.60834 0.23756-0.10694 0.12874-0.59539 0.73103-1.0847 1.3386-0.48931 0.60758-1.4474 1.6606-2.1292 2.3403-0.68178 0.67979-2.3536 2.5426-3.7154 4.139-1.3618 1.5964-3.1455 3.618-3.963 4.4934-2.4098 2.5804-3.0341 3.2734-3.6274 4.0171-0.30897 0.38725-0.87823 1.0352-1.2644 1.4404-0.38621 0.40521-0.70258 0.82774-0.70258 0.93893 0 0.20051-0.76153 1.1999-1.4919 1.957-0.20916 0.21682-0.38084 0.56469-0.38084 0.77298 0 0.20828-0.12202 0.47926-0.27149 0.60329-0.28479 0.23635-1.9746 3.5679-1.9746 3.8926 0 0.10319-0.17262 0.57689-0.38336 1.0533-0.23192 0.52429-0.36717 1.1856-0.34188 1.6742 0.02298 0.44394-0.01955 0.90773-0.09552 1.0307-0.13078 0.2116-0.48688 1.8637-0.53169 2.4686-0.06402 0.86468 0.34391 3.3024 0.61084 3.6513 0.0788 0.10299 0.2376 0.97012 0.35319 1.9268 0.27239 2.2547 0.64079 3.3047 1.5359 4.3753 0.40041 0.47886 0.84578 1.1533 0.99043 1.4995 0.14465 0.34621 0.78433 1.1976 1.4203 1.8917 0.63598 0.69404 1.2472 1.2619 1.3587 1.2619 0.35644 0 0.88738-0.60628 0.88613-1.0118-0.0016-0.50669-0.4942-1.2391-1.272-1.8904-0.33977-0.28454-0.86748-1.0326-1.1727-1.6629-0.3052-0.63028-0.74693-1.4582-0.98163-1.8389-0.24516-0.3976-0.52509-1.3136-0.65864-2.153-0.12786-0.80373-0.40709-2.2619-0.61964-3.2403-0.21256-0.97837-0.38454-1.8628-0.3821-1.9658 0.05564-2.326 1.0031-6.0319 2.0211-7.9058 0.34787-0.64038 0.63224-1.2868 0.63224-1.4367 0-0.14985 0.1962-0.51079 0.43614-0.80188 0.23994-0.29112 0.48324-0.65623 0.54049-0.81068 0.16191-0.4371 2.3881-3.3697 2.5578-3.3697 0.08318 0 0.23987-0.1947 0.34816-0.43237 0.21594-0.47395 2.2942-2.9516 4.4017-5.2474 0.74053-0.80673 1.4695-1.6496 1.6202-1.8728 0.15062-0.22315 0.53314-0.70499 0.84968-1.0696s0.78573-0.95238 1.0432-1.3072c0.46632-0.64264 2.0582-2.382 3.8386-4.193 1.4636-1.4887 3.8386-4.2261 3.8386-4.4243 0-0.0986 0.11347-0.17974 0.25138-0.17974s0.62304-0.39942 1.0784-0.88863 1.5557-1.5214 2.4447-2.2938c0.88903-0.77243 1.689-1.542 1.7773-1.7107 0.18222-0.34812 2.3073-2.069 3.1561-2.5553 0.30896-0.17704 0.98328-0.74324 1.4982-1.2582 0.51494-0.51493 1.2561-1.1751 1.6466-1.4668 1.075-0.80309 4.3528-4.0922 5.1934-5.2109 0.40891-0.54419 0.74408-1.1649 0.74408-1.3788 0-0.44021-0.32945-0.83833-0.69378-0.83838zm12.677 0.25767c-1.1915 0.22033-1.8844 0.48219-2.4798 0.93637-0.35488 0.27068-0.74138 0.49146-0.85973 0.49146-0.26656 0-8.4508 8.1403-8.8888 8.8408-0.42169 0.67494-0.40136 1.2191 0.05028 1.3625 0.45865 0.14557 0.85648-0.0742 1.6918-0.93263 0.36046-0.37042 0.80393-0.81508 0.98413-0.98792 0.18024-0.17287 0.3268-0.42145 0.3268-0.55304s0.10037-0.24006 0.22247-0.24006c0.12211 0 0.41966-0.18542 0.66114-0.41227l0.43866-0.41226-0.09426 0.92758c-0.38538 3.8049-0.49036 6.0964-0.39844 8.6513 0.05835 1.6226 0.10377 3.7073 0.10055 4.6342-6e-3 1.7975 0.63209 8.9943 0.96278 10.856 0.23175 1.3045 0.17557 7.4828-0.07918 8.7128-0.2059 0.99427-0.2115 1.0873-0.39467 5.8059-0.09832 2.5325-0.07479 4.0532 0.07667 4.9622 0.54179 3.252 0.36115 9.6528-0.31045 10.999-0.49888 0.99998-0.2772 10.318 0.30417 12.781 0.33675 1.4271 1.3358 7.3038 1.5221 8.9543 0.09089 0.80524 0.26338 1.8167 0.38336 2.2474 0.28119 1.0094 0.43845 8.2463 0.33307 15.295-0.0146 0.97843 0.01445 2.5163 0.0641 3.4175 0.07187 1.3036 0.0374 1.639-0.16591 1.639-0.14057 0-0.25514 0.1258-0.25514 0.28028 0 0.15449 0.1258 0.28155 0.28028 0.28155 0.15449 0 0.28461 0.10505 0.28783 0.23378 0.02085 0.82933 0.74858 4.3219 0.95148 4.5663 0.13567 0.16349 0.41764 0.36629 0.62719 0.45123 0.20955 0.0849 0.76873 0.16073 1.2418 0.16716 0.80878 0.0112 0.90758-0.0453 1.6579-0.93513 1.0309-1.2226 1.3038-2.2815 1.3235-5.1334 0.0085-1.2391 0.05144-2.6751 0.09552-3.19 0.0441-0.51494 0.11558-1.6522 0.15838-2.5276 0.09158-1.8734 0.40469-3.6948 0.69508-4.0447 0.11344-0.13668 0.23936-1.1151 0.28029-2.1744 0.10017-2.5939 0.2608-4.1297 0.45626-4.3652 0.2246-0.27064 0.08034-10.419-0.18225-12.823-0.3857-3.5304-0.55214-4.9491-0.67618-5.7654-0.17658-1.1615 0.25067-5.5214 0.65234-6.6554 0.76378-2.155 0.93468-4.263 0.76923-9.4873-0.0748-2.3621 0.18914-11.712 0.3444-12.202 0.18591-0.58708 0.55584-3.7803 0.67998-5.8684 0.0306-0.51493-0.02855-1.4421-0.13198-2.06-0.10341-0.61794-0.21592-1.5451-0.24886-2.0601-0.03295-0.51493-0.17046-1.3994-0.30668-1.9658-0.23238-0.96628-0.25254-2.2154-0.14957-9.2698 0.03455-2.3653 0.3188-4.4089 0.72523-5.2059 0.19051-0.37367 0.48122-1.2937 0.64604-2.0437 1.0486-4.772 1.1308-5.0694 1.6001-5.8649 0.49155-0.83313 0.49462-1.2227 0.0201-2.001-0.38326-0.62864-0.46224-1.3464-0.26018-2.3567l0.11438-0.57314 0.82203 0.80943c0.4519 0.4455 0.82203 0.94488 0.82203 1.1098 0 0.16497 0.17315 0.40584 0.38461 0.53544 0.21148 0.1296 0.63349 0.61498 0.93888 1.0784 1.8527 2.8115 4.1952 5.3724 7.0183 7.6723 1.5809 1.2877 2.0572 1.6915 2.8745 2.4396 0.28128 0.25747 1.0038 0.89028 1.6063 1.4052 0.60249 0.51494 1.2711 1.1421 1.4857 1.3939 1.0751 1.2613 4.159 4.5546 5.2904 5.6499 3.3771 3.2694 4.1777 4.1108 5.1484 5.4109 0.57534 0.77069 1.3597 1.6971 1.7421 2.0576 0.3824 0.36047 0.85318 0.96008 1.0457 1.3336 0.41988 0.81443 0.73199 0.96238 1.4844 0.70008 0.63804-0.22243 0.75428-0.77843 0.2916-1.3901-0.1512-0.19991-0.27707-0.49748-0.28028-0.66238-4e-3 -0.1649-0.40698-0.68664-0.89618-1.1589-0.48921-0.47221-1.1843-1.2515-1.5447-1.732-0.61049-0.81378-1.0143-1.2727-2.8657-3.2554-0.39202-0.41979-0.83703-0.76418-0.98793-0.76418-0.15087 1e-5 -0.36673-0.18932-0.48013-0.42105s-0.64869-0.79974-1.1903-1.2632c-0.54159-0.46345-1.0581-0.98052-1.1476-1.1488s-0.66913-0.87643-1.2871-1.5737c-0.61794-0.69723-1.5349-1.7401-2.0387-2.3164-1.3674-1.5642-2.3841-2.5097-5.2449-4.8856-2.9361-2.4382-3.9144-3.3532-6.0244-5.6259-2.0309-2.1875-3.1462-3.5124-3.2981-3.9203-0.07021-0.18851-0.41697-0.75138-0.77173-1.2506-0.35477-0.49921-0.79453-1.2019-0.97663-1.5623-0.38484-0.76179-0.84248-1.3919-1.8301-2.5226-0.60374-0.69123-0.84128-0.82778-1.5912-0.91123-0.48497-0.054-1.5554-0.2347-2.3793-0.40095-0.82393-0.16628-1.7096-0.26255-1.9671-0.21493zm-0.64729 1.7861c0.21842-0.021 0.45662-0.0147 0.71518 0.0176 0.34473 0.0431 0.72728 0.13232 1.1501 0.26897 0.41196 0.13314 1.0973 0.21284 1.5234 0.17597 0.95703-0.0828 1.2848 0.22094 1.0118 0.93888-0.15436 0.40601-0.11948 0.56304 0.19608 0.87858 0.35142 0.35141 0.42122 0.35948 0.81448 0.10181 0.32063-0.21008 0.48379-0.22761 0.64229-0.0691 0.36636 0.36635 0.23241 0.85693-0.30291 1.1111-0.69113 0.32816-1.1696 1.3483-1.1689 2.4912 3.45e-4 0.51494-0.11964 1.3151-0.26646 1.7785-0.65184 2.0576-0.85833 3.003-0.86473 3.9492-0.0075 1.1397-0.43068 3.1179-0.73153 3.4188-0.10885 0.10886-0.19982 0.37081-0.2011 0.58194-0.0015 0.21113-0.12187 0.72528-0.26772 1.1438-0.14586 0.41848-0.35497 1.9357-0.46505 3.371-0.11008 1.4353-0.28449 3.3555-0.38713 4.2672-0.10262 0.91163-0.13748 1.738-0.07667 1.8364 0.06081 0.0984 0.18388 1.0156 0.27275 2.0387 0.08886 1.0231 0.24633 2.177 0.34942 2.5641 0.28264 1.0614 0.79773 5.1714 0.68754 5.4849-0.05311 0.1511-0.13912 0.90678-0.19105 1.6792-0.1212 1.8018-0.43998 4.4628-0.55679 4.6518-0.12897 0.20868-0.39947 5.3214-0.35822 6.7708 0.01905 0.66943 0.02965 1.428 0.0239 1.6855-0.0061 0.25749 0.0035 1.0576 0.02135 1.7785 0.13767 5.5229 0.04295 8.2688-0.33433 9.6958-0.21176 0.80093-0.43722 1.5413-0.50149 1.6453-0.21819 0.35304-0.64669 3.4466-0.64729 4.6744-3.95e-4 0.67213 0.09801 1.9365 0.21871 2.8092 0.1207 0.87273 0.20817 2.0504 0.19356 2.6169-0.0146 0.56644 0.10262 1.7867 0.26143 2.7124 0.40455 2.358 0.47782 4.8632 0.25515 8.6913-0.10542 1.8123-0.27038 4.9184-0.36701 6.9028-0.11274 2.3152-0.27832 3.9118-0.46254 4.4545-0.15792 0.46511-0.28657 1.1006-0.28657 1.4128 0 0.31215-0.08005 0.71709-0.17722 0.89868-0.09717 0.18157-0.27627 2.3024-0.39844 4.7146-0.18633 3.6793-0.28401 4.529-0.60584 5.2754-0.56354 1.3067-1.0375 1.1909-1.1614-0.28531-0.10181-1.2129-0.33648-6.5484-0.30668-6.9708 0.09886-1.4018-0.33185-15.995-0.51659-17.508-0.09433-0.77244-0.34862-2.2481-0.56559-3.278-0.4919-2.3348-0.70833-3.546-0.95523-5.3354-0.10656-0.77244-0.31101-1.7839-0.45374-2.2474-0.27082-0.87938-0.73613-5.7209-0.72898-7.5843 0.0045-1.1687 0.27505-3.4998 0.46254-3.9869 0.29702-0.77153 0.71058-4.889 0.62719-6.2394-0.2829-4.5808-0.35898-6.6594-0.35319-9.6228 7e-3 -3.7853 0.16371-6.8944 0.36324-7.2173 0.15859-0.25664 0.1491-8.5418-0.01005-8.7998-0.0607-0.0982-0.14684-0.57994-0.19105-1.0696-0.0442-0.48969-0.20962-2.0284-0.36828-3.4188-0.15866-1.3904-0.29092-2.6534-0.29285-2.8079-0.01635-1.1258 0.21282-12.611 0.27903-13.979 0.0456-0.94263 0.19082-1.8856 0.32177-2.0953 0.30781-0.49287-0.08496-1.3017-0.70764-1.458-0.41789-0.10489-0.41452-0.11625 0.17471-0.59323 0.33058-0.26762 1.1493-0.98318 1.8188-1.59 0.66944-0.60683 1.3741-1.2429 1.5661-1.414 0.19196-0.17108 0.54684-0.61968 0.78808-0.99672 0.35494-0.55474 0.83668-0.85959 1.492-0.92258zm-27.916 0.43866c-0.27001-9e-3 -0.50049 0.0554-0.63599 0.2187-0.31838 0.38362-0.15018 2.0235 0.274 2.6709 0.357 0.54489 1.1558 0.53449 1.4744-0.0189 0.11338-0.19695 0.35269-0.51209 0.53294-0.70134 0.18024-0.18927 0.32805-0.53988 0.32805-0.77803 0-0.67268-1.1633-1.3633-1.9734-1.3914zm68.483 2.7614c-0.25982 0-0.97033 0.75003-0.97033 1.0244 0 0.68779 1.1191 2.3454 1.5837 2.3454 0.10469 0 0.40254 0.21032 0.66114 0.46757 0.56638 0.56343 2.3387 1.9782 2.8494 2.2738 0.20176 0.11674 0.82259 0.64428 1.3801 1.1727 0.55749 0.52844 1.3261 1.1071 1.7069 1.2858 0.38082 0.17875 0.98232 0.58949 1.3373 0.91253 0.355 0.32302 0.99207 0.69724 1.4153 0.83208s1.0629 0.43889 1.4216 0.67624c0.35864 0.23732 0.72939 0.43237 0.82454 0.43237 0.0951 0 0.44925 0.2101 0.78683 0.46756 0.33756 0.25748 0.68178 0.46757 0.76418 0.46757 0.3362 0 2.5378 1.2032 2.6269 1.4354 0.0529 0.13772 0.32048 0.25012 0.59454 0.25012 0.27404 0 0.80888 0.21135 1.1878 0.46882 0.3789 0.25747 0.84549 0.46757 1.0369 0.46757 0.36933 0 1.0529 0.47126 2.0727 1.4266 0.34239 0.32077 0.94882 0.69049 1.3474 0.82203 0.51858 0.17115 0.86903 0.4663 1.2305 1.0382 0.39624 0.62689 0.67908 0.84803 1.3135 1.0256 0.83273 0.23316 1.4688 0.80333 3.4389 3.0844 0.53369 0.61794 1.1742 1.3565 1.4241 1.6415 0.24991 0.285 0.46569 0.62214 0.47888 0.74909 0.0131 0.12696 0.0434 0.42543 0.0679 0.66238 0.0246 0.23696 0.2239 0.59714 0.44369 0.80189 0.34633 0.32264 0.50574 0.83383 0.41981 1.3487-0.0136 0.0814 0.08 0.33429 0.20739 0.56183 0.3002 0.53649 0.31173 0.65769 0.40723 3.9567 0.0866 2.9923-0.0273 3.6664-0.62468 3.6664-0.58879 0-0.93253 0.74433-1.0483 2.2737-0.0587 0.77564-0.25846 1.9001-0.44369 2.4988-0.25903 0.83723-0.29091 1.2086-0.14076 1.6063 0.16934 0.4487 0.12256 0.60934-0.35446 1.2117-1.2423 1.5687-1.4545 2.1708-0.87858 2.5062 0.55279 0.32198 1.2716 0.22734 1.6566-0.2187 1.0902-1.2629 2.362-3.5669 2.2008-3.9869-0.0554-0.14431 0.0758-0.48729 0.2916-0.76169 0.21584-0.27439 0.39338-0.71858 0.39467-0.98793 1e-3 -0.26934 0.13706-0.95313 0.30166-1.5196 0.47941-1.6498 0.63753-3.0648 0.73278-6.5324 0.073-2.6578 0.0384-3.3574-0.19231-3.8197-0.15533-0.31136-0.2828-0.71294-0.2828-0.89238 0-0.48984-0.97683-2.779-1.595-3.7368-0.29914-0.46346-0.69384-1.1389-0.87733-1.502-0.43136-0.85368-3.4129-3.9065-4.6858-4.7976-0.54269-0.37994-1.4257-1.0144-1.962-1.409-0.53629-0.39463-1.0284-0.71769-1.0935-0.71769-0.0651 0-0.25887-0.16271-0.42986-0.36198-0.3352-0.39063-3.8137-2.2599-4.2056-2.2599-0.1307 0-0.69769-0.29675-1.2607-0.65989-0.56299-0.36311-1.3205-0.74043-1.683-0.83838-0.36249-0.0979-1.3106-0.60129-2.1066-1.1186-0.79603-0.51739-1.5275-0.94018-1.6252-0.94018-0.24396 0-1.7-0.78569-2.4673-1.3311-0.34733-0.24686-0.80078-0.55504-1.0068-0.68499-0.46307-0.29217-1.3803-0.89218-1.8514-1.2104-0.19427-0.1312-0.93707-0.78274-1.6516-1.4492-0.71443-0.66649-1.526-1.3078-1.8024-1.4241-0.27644-0.11623-1.1126-0.77183-1.859-1.4568-0.74633-0.68488-1.4251-1.2443-1.5083-1.2443zm-68.688 2.1128c-0.46321 0.0848-1.0721 0.43652-1.3223 0.81823-0.15835 0.24168-0.38335 0.44111-0.50024 0.44369-0.11689 3e-3 -0.63389 0.38114-1.1488 0.84088-0.51494 0.45971-1.0355 0.83708-1.1564 0.83838-0.12084 1e-3 -0.45799 0.19963-0.74913 0.44243-0.67794 0.56539-1.9919 1.1415-3.4678 1.5196-0.64014 0.164-1.2941 0.41427-1.453 0.55553-0.58744 0.52224-6.2399 3.1888-7.9663 3.7581-1.1477 0.37843-5.1809 2.4878-5.7099 2.9864-0.25838 0.24349-1.0343 0.70714-1.7245 1.0307-0.69018 0.3235-1.8603 0.92038-2.6005 1.3273-0.74023 0.40688-1.4655 0.74034-1.6114 0.74034-0.14587 0-0.76213 0.33714-1.3688 0.74908-0.60664 0.41196-1.1897 0.74913-1.2959 0.74913-0.10618 0-0.34269 0.28255-0.52539 0.62844s-1.0061 1.2259-1.8301 1.9545c-2.4426 2.16-3.3016 3.3443-3.5369 4.8793-0.068763 0.44852-0.24941 1.0556-0.40095 1.3487-0.38053 0.73583-0.34422 1.3492 0.11312 1.9306 0.21346 0.27135 0.52984 0.49089 0.70258 0.48767 0.57214-0.0108 1.0463-0.92613 1.0608-2.0475 0.01985-1.5368 0.0557-1.5908 3.9718-5.8069 1.5136-1.6296 1.8412-1.9268 2.7765-2.5264 0.51819-0.33216 1.254-0.66274 1.634-0.73404 0.37996-0.0713 0.92413-0.32504 1.2104-0.56433 0.28625-0.23931 0.88753-0.62199 1.3361-0.84968 0.44854-0.22768 1.4172-0.80674 2.1531-1.2871 0.73583-0.48031 1.6758-1.0333 2.0877-1.2292 0.41196-0.19597 1.0609-0.62223 1.4417-0.94768 0.38077-0.32547 1.1794-0.74623 1.7748-0.93388s2.2748-0.92068 3.733-1.629c1.4582-0.70829 2.717-1.2871 2.7978-1.2871 0.08084 0 0.28109-0.11736 0.44368-0.26019 0.28357-0.24908 5.1134-2.3614 5.3999-2.3617 0.47493-3.6e-4 3.4459-2.1074 4.8793-3.4602 0.54774-0.51694 1.117-1.0517 1.2645-1.1878 0.35012-0.32308 0.34196-0.76618-0.01635-0.90368-0.10346-0.0397-0.24152-0.0409-0.39593-0.0126zm38.512 4.4922c-0.37551 0.0927-0.55424 0.54444-0.64479 1.5033-0.18649 1.975-0.25017 2.4267-0.54549 3.8763-0.15737 0.77243-0.34119 1.9097-0.40849 2.5276-0.0673 0.61794-0.235 1.8395-0.3733 2.7149-0.14818 0.93798-0.22172 2.4766-0.17848 3.7456 0.18076 5.3059 0.26284 6.5009 0.48139 7.0248 0.12825 0.30753 0.29381 1.1909 0.36827 1.9632 0.15458 1.6035 0.37852 2.6164 0.78428 3.557 0.15549 0.36046 0.34284 1.119 0.41729 1.6855 0.07446 0.56644 0.19974 1.115 0.27778 1.2179 0.07803 0.103 0.2015 0.52044 0.27526 0.92883 0.07375 0.40841 0.25404 0.97398 0.3997 1.2557 0.14565 0.28168 0.26394 0.67709 0.26394 0.87983 0 0.20275 0.12169 0.60714 0.27023 0.89868 0.14854 0.29157 0.45104 1.0361 0.67118 1.6541 0.22016 0.61793 0.47713 1.2704 0.57189 1.4492 0.09476 0.17883 0.1722 0.52444 0.1722 0.76799 0 0.48729 0.26418 1.3837 0.68498 2.3278 0.15014 0.33681 0.59939 1.6012 0.99798 2.8092 0.3986 1.208 0.85508 2.5032 1.0143 2.8795 0.33563 0.79303 0.79908 2.7206 1.0746 4.4658 0.1057 0.66944 0.32308 1.8067 0.48265 2.5276 0.50369 2.2756 0.65708 7.4673 0.27149 9.1753-0.11625 0.51494-0.3049 1.6953-0.41855 2.6219-0.11366 0.92668-0.27216 1.7696-0.35319 1.8728-0.08102 0.10326-0.20683 0.72974-0.27903 1.3927-0.0722 0.66289-0.24206 1.4215-0.37707 1.6855-0.13501 0.26401-0.31024 0.85878-0.38964 1.3223-0.23367 1.3641-0.1171 6.6424 0.17471 7.9258 0.14457 0.63599 0.32034 1.6193 0.3909 2.1858 0.33107 2.658 1.5049 4.9764 2.8079 5.5444 0.31088 0.13545 0.68353 0.25003 0.82828 0.2539 0.50184 0.0139 1.5046-0.94263 1.8816-1.7949 0.35093-0.79334 0.37003-1.109 0.26521-4.2835-0.1214-3.6769 0.08522-5.9919 0.68498-7.6783 0.1831-0.51494 0.47446-1.4409 0.64728-2.0588 0.17284-0.61793 0.4847-1.6294 0.69258-2.2474 0.20784-0.61793 0.45022-1.4608 0.53919-1.8728 0.089-0.41197 0.40949-1.7606 0.71268-2.9964 1.6404-6.6868 1.9009-10.037 0.95778-12.358-0.35039-0.86209-0.55809-1.6827-0.55809-2.2071 0-0.68713-0.3084-1.8422-0.77048-2.8883-0.42884-0.97088-0.73818-2.1302-0.86348-3.2315-0.05233-0.45985-0.2044-1.0071-0.33685-1.2167-0.13245-0.2096-0.29734-0.76079-0.36701-1.2242-0.06967-0.46344-0.20228-1.095-0.29537-1.404-0.0931-0.30896-0.33413-1.2361-0.53544-2.06-0.20132-0.82393-0.50839-2.004-0.68124-2.6219-0.32825-1.1736-0.59469-2.2616-0.77048-3.1385-0.05703-0.28449-0.17912-0.56334-0.27023-0.61964-0.09111-0.0563-0.16591-0.26833-0.16591-0.47134 0-0.203-0.2204-0.89408-0.49019-1.5347-0.76878-1.8255-1.1964-4.6463-1.2054-7.9488-0.0045-1.5755 0.05168-2.9604 0.12443-3.0781 0.07275-0.11772 0.11725-0.51734 0.0993-0.88738-0.0392-0.80833 0.2719-2.7863 0.62089-3.9492 0.74738-2.4903 0.93028-3.5191 0.67874-3.8222-0.27796-0.33492-0.81218-0.38482-1.3034-0.12192-0.51089 0.2734-1.2837 2.4662-1.4454 4.1038-0.03415 0.34572-0.16295 0.75098-0.28658 0.89993-0.13413 0.16162-0.25458 1.1169-0.29789 2.368-0.25094 7.2463 0.03605 10.355 1.2707 13.8 0.42456 1.1844 0.89478 2.6588 1.0457 3.2767 0.4293 1.7575 0.63039 2.5485 0.90498 3.5583 0.44246 1.6272 0.62389 2.4096 0.75918 3.2767 0.07231 0.46346 0.25025 1.0753 0.39593 1.36 0.14567 0.28464 0.34183 0.87463 0.43489 1.311 0.34733 1.6285 0.58919 2.448 1.0369 3.5118 0.25303 0.60119 0.58614 1.817 0.74033 2.7011 0.15416 0.88409 0.49754 2.2536 0.76293 3.0442 0.34288 1.0214 0.44843 1.6374 0.36576 2.1266-0.064 0.37878-0.1363 1.5638-0.16089 2.6332-0.0266 1.158-0.16682 2.3232-0.3469 2.8808-0.1663 0.51494-0.4716 1.6937-0.67874 2.6206-0.59679 2.6706-1.6754 6.6564-1.8665 6.8968-0.09603 0.12081-0.235 0.64138-0.3092 1.1563-0.07419 0.51494-0.28766 1.2723-0.47386 1.6843-0.75348 1.6671-0.82963 2.3146-0.84213 7.2093-0.0067 2.6262-0.07788 4.88-0.15837 5.0089-0.08047 0.12874-0.24562 0.23507-0.36827 0.23378-0.27265-2e-3 -0.69128-0.86043-0.69128-1.4178 0-0.22436-0.13743-0.73493-0.30416-1.1337-0.51259-1.226-0.82578-2.6802-0.79563-3.6915 0.01585-0.53089-0.01655-2.1868-0.07164-3.6802-0.05512-1.4934-0.0224-3.0948 0.0729-3.5583 0.0953-0.46346 0.24403-1.4015 0.33057-2.0852 0.08654-0.68368 0.22298-1.3488 0.30291-1.4781 0.16076-0.26011 0.67694-3.5615 0.67244-4.3011-0.0015-0.25747 0.20824-1.1148 0.46631-1.9042 0.53269-1.6294 0.49661-2.4971-0.29663-6.9908-0.0909-0.51494-0.22252-1.5264-0.2916-2.2474-0.10988-1.1468-0.22841-1.8041-0.76923-4.2634-0.06275-0.28536-0.18772-0.56398-0.27778-0.61963-0.09009-0.0557-0.1187-0.28614-0.06284-0.51159 0.05584-0.22541-0.07419-0.91548-0.29035-1.5334-0.21617-0.61793-0.72953-2.128-1.14-3.3559-0.41048-1.228-0.86378-2.4496-1.0068-2.7149-0.26585-0.49338-1.7682-5.0499-2.1657-6.5684-0.12131-0.46345-0.39519-1.1788-0.60959-1.5887-0.21441-0.40996-0.4551-1.083-0.53419-1.497-0.40132-2.1009-0.60179-2.9004-0.96278-3.8424-0.22086-0.57628-0.45488-1.7732-0.53169-2.7161-0.07548-0.92693-0.26963-2.147-0.43112-2.7111-0.1858-0.64898-0.24442-1.267-0.16088-1.6843 0.07263-0.36275 0.10924-0.73983 0.08169-0.83708-0.13846-0.48921-0.02325-6.5834 0.15083-7.9688 0.10999-0.87544 0.32553-2.9776 0.47888-4.6719 0.15336-1.6943 0.3276-3.2336 0.38713-3.4213 0.20167-0.63538-0.1046-1.4488-0.59199-1.5711-0.17296-0.0434-0.31977-0.0523-0.44494-0.0214zm-23.318 0.51029c-0.13922 0-0.49067 0.19594-0.78178 0.43615-0.60864 0.50219-1.3007 0.87893-2.4962 1.36-0.46346 0.18647-1.1519 0.61103-1.5297 0.94268-0.37772 0.33164-0.92498 0.75413-1.2167 0.93888-0.29169 0.18474-0.72238 0.54983-0.95648 0.81068-0.2341 0.26086-0.48697 0.54034-0.56184 0.62219-0.07486 0.0818-0.72578 0.53038-1.4467 0.99547-0.72093 0.46511-1.521 1.039-1.7785 1.2758-0.25747 0.23679-0.97458 0.77199-1.5925 1.189-0.61794 0.41705-2.3764 1.9519-3.9077 3.4112-1.5313 1.4594-3.1315 2.9052-3.557 3.2126-1.0771 0.77834-3.4892 2.9607-3.4892 3.1573 0 0.41316-2.612 3.9874-3.8625 5.2854-1.4311 1.4854-1.9419 2.4353-1.9419 3.6086 0 1.318 1.1175 1.2429 1.9218-0.12947 0.26246-0.44785 0.94863-1.3429 1.5246-1.9884 0.57599-0.64549 1.047-1.2499 1.047-1.3436 0-0.0937 0.40657-0.65934 0.90248-1.2569 0.49589-0.59754 1.1067-1.5004 1.3575-2.006 0.43245-0.87183 2.9729-3.3353 3.7569-3.6425 0.16809-0.0659 0.59329-0.46593 0.94518-0.88863 0.35192-0.42269 0.97318-1.0533 1.3801-1.4015 0.4069-0.34808 1.6247-1.4438 2.7061-2.4358 1.781-1.6339 3.6035-2.8052 3.8147-2.4509 0.11769 0.19739 0.13923 10.256 0.02515 11.738-0.12776 1.66-0.70788 4.5532-1.1878 5.9239-0.20318 0.58024-0.55584 1.8018-0.78303 2.7149-0.3531 1.4189-1.2226 3.6482-1.8715 4.7951-0.10119 0.17884-0.18476 0.60199-0.18476 0.94018 0 0.33818-0.17894 1.2445-0.39719 2.0148-1.1091 3.9151-1.623 6.7134-1.6503 8.9843-0.01055 0.87543-0.13952 2.3822-0.28658 3.3484-0.267 1.7541-0.25352 5.6494 0.02515 7.2323 0.07251 0.41195 0.11201 0.82613 0.08672 0.92127-0.0253 0.0952 0.0432 0.55939 0.15209 1.0307 0.10886 0.47128 0.2366 1.683 0.28532 2.6923 0.0487 1.0093 0.1514 1.9357 0.2275 2.0588 0.07608 0.1231 0.19623 0.60318 0.26772 1.0671 0.2758 1.7898 0.41242 2.3508 0.63474 2.6219 0.43263 0.52758 0.46658 1.894 0.0817 3.2767-0.20067 0.72094-0.46039 1.6909-0.57689 2.1544-0.44242 1.7597-1.4715 4.0631-2.1041 4.7108-0.63584 0.65109-1.1541 1.7716-1.5158 3.2755-0.36195 1.5049-0.29023 1.9473 0.40598 2.4949 0.84083 0.66139 1.7356 0.48949 3.0492-0.58573 0.35818-0.29318 0.71948-0.53294 0.80318-0.53294 0.0837 0 0.39125-0.17683 0.68248-0.39216 0.45478-0.33623 0.58369-0.35677 0.91753-0.14831 0.33332 0.20817 0.44587 0.19086 0.79308-0.12318 0.2227-0.2014 0.57694-0.70288 0.78683-1.1149 0.20988-0.41197 0.57174-1.002 0.80318-1.311 1.0355-1.3824 2.1446-4.1755 2.7149-6.8348 0.42283-1.9719 0.22696-7.1468-0.40724-10.768-0.49378-2.8196-0.56234-3.515-0.56814-5.7114-0.0082-3.278 0.13481-5.1534 0.49144-6.4594 0.16875-0.61793 0.38143-1.4608 0.4726-1.8728 0.09117-0.41196 0.29637-1.3391 0.45626-2.0601 0.26795-1.2082 0.64794-2.3248 1.0659-3.1334 0.09242-0.17884 0.16717-0.41611 0.16717-0.52664 0-0.11052 0.3243-0.89098 0.72018-1.7345 0.39591-0.84353 0.91673-2.0392 1.1576-2.6571 0.24089-0.61794 0.55789-1.3116 0.70388-1.541 0.14595-0.22939 0.33172-0.69238 0.41352-1.0294 0.1747-0.71984 0.79863-2.54 1.2883-3.7581 0.11582-0.28807 0.21116-0.71048 0.21116-0.93888 0-0.22841 0.15634-0.70938 0.34691-1.0684 0.38805-0.73088 1.0598-2.7443 1.2494-3.7431 0.06841-0.36046 0.4173-1.4977 0.77548-2.5276 1.1112-3.1947 2.3089-7.7183 2.3089-8.7193 0-0.39284 0.06772-0.75633 0.14957-0.80693 0.23242-0.14363-0.32757-6.0284-0.73278-7.7008-0.60364-2.4915-1.2099-4.0831-1.6277-4.2734-0.32502-0.14803-0.40705-0.3024-0.32805-0.61714 0.11231-0.44749-0.29721-1.008-0.73653-1.008zm-0.66364 2.6219c0.456 0 1.5785 3.2241 1.8891 5.4249 0.0804 0.56954 0.2277 1.3447 0.3268 1.7232 0.09909 0.37853 0.15035 1.853 0.11437 3.2767-0.06306 2.4963-0.09746 2.6926-0.98413 5.4914-0.50574 1.5964-1.0488 3.4079-1.2066 4.0259-0.34616 1.3555-1.3932 4.5284-2.378 7.2093-0.39725 1.0814-0.80593 2.2614-0.90873 2.6219-0.10278 0.36047-0.49466 1.3719-0.87103 2.2474-0.37637 0.87543-0.89338 2.097-1.1488 2.7149-0.25542 0.61794-0.58769 1.3492-0.73778 1.6252-0.15014 0.27592-0.55504 1.2874-0.89993 2.2474-0.34488 0.95993-0.76653 2.0762-0.93763 2.4811-0.45856 1.0851-1.6499 6.0454-1.7119 7.1294-0.0295 0.51493-0.1541 1.6937-0.27777 2.6206-0.28635 2.146-0.13245 5.3584 0.35067 7.3038 0.60914 2.453 1.2531 10.145 0.89743 10.72-0.06639 0.10744-0.27695 0.98373-0.46756 1.947-0.55084 2.7837-1.9733 5.3559-3.283 5.9349-0.49185 0.21757-0.88143 0.53358-0.95903 0.77803-0.08316 0.26206-0.50039 0.57479-1.1476 0.86098-0.55924 0.24731-1.067 0.44997-1.1287 0.44997-0.25701 0 0.17389-1.6446 0.60079-2.2926 0.76928-1.1677 1.9165-3.9075 2.7966-6.6754 0.29458-0.92643 0.35313-3.3818 0.10055-4.2333-0.09165-0.30897-0.25996-1.1519-0.37456-1.8728-0.1146-0.72088-0.29173-1.6053-0.39341-1.9658-0.17193-0.60954-0.64344-4.062-0.81823-5.9929-0.04195-0.46346-0.17993-1.5165-0.30668-2.3404-0.18363-1.1936-0.18165-2.2022 0.0088-4.9622 0.4519-6.5494 0.74363-8.7738 1.3964-10.632 0.24321-0.69233 0.66124-2.1976 0.92883-3.3446 0.26761-1.1471 0.72478-2.6214 1.0156-3.2767 0.29079-0.65529 0.84518-2.2446 1.2318-3.5319 0.38661-1.2874 0.78913-2.5932 0.89493-2.9022 0.4372-1.2769 0.80978-3.8949 1.0118-7.1163 0.06459-1.0299 0.14456-2.2514 0.17848-2.7149 0.15613-2.1332 0.09959-6.2054-0.10181-7.3518-0.28978-1.649-0.16612-2.0517 0.84843-2.7803 0.46302-0.3325 0.84088-0.65598 0.84088-0.71893 0-0.42611 5.0319-4.1289 5.6109-4.1289zm70.763 4.6807c-0.18728 0-0.2138 0.63208-0.034 0.81198 0.16063 0.16061 0.52669 0.16083 0.68753 0 0.1387-0.1387-0.40312-0.81198-0.65358-0.81198zm9.5398 12.189c-0.52379-0.0547-0.88623 0.67803-0.86728 1.952 0.0494 3.3136 0.0163 4.224-0.19608 5.3329-0.44959 2.3475-0.45439 2.8442-0.0377 3.8084 0.2248 0.52019 0.49017 0.87343 0.62468 0.83208 0.12874-0.0396 0.40238-0.41624 0.60834-0.83838 0.20599-0.42209 0.51534-0.92428 0.68753-1.1149 0.50464-0.55844 0.59539-1.2682 0.24761-1.9407-0.23022-0.44527-0.28223-0.85753-0.19859-1.5649 0.14506-1.2266 0.15151-1.4937 0.093-3.8474-0.0397-1.5995-0.11053-2.0122-0.39215-2.2938-0.20253-0.20251-0.39477-0.3073-0.56939-0.32553zm-2.583 0.89368c-0.40626-0.0242-0.86563 0.42667-1.1174 1.3688-0.2019 0.75553-0.19216 0.93468 0.0679 1.3059 0.1657 0.23659 0.3004 0.57594 0.3004 0.75413 0 0.1782 0.0979 0.53829 0.21744 0.80063 0.11953 0.26232 0.31008 0.47762 0.42358 0.47762 0.27788 0 0.93888-2.3545 0.90498-3.2239-0.0374-0.95937-0.39061-1.4589-0.79688-1.4832zm-132.23 0.57693c-0.20387 0.0292-0.41692 0.15253-0.62469 0.3821-0.2979 0.32918-0.31529 0.51689-0.14706 1.6378 0.32868 2.1898 0.81763 4.5903 1.2029 5.9014 0.31222 1.0625 0.43739 1.2645 0.78053 1.2619 1.217-9e-3 1.2673-0.68904 0.34816-4.6794-0.20163-0.87543-0.37726-2.0391-0.3909-2.5867-0.031089-1.2487-0.55729-2.0045-1.1689-1.9168zm-2.2951 3.1938c-1.1587 0-1.5886 0.60804-0.93763 1.3273 0.16321 0.18033 0.34302 0.69308 0.3997 1.1388 0.056674 0.44571 0.16387 0.89503 0.23881 0.99798 0.074943 0.103 0.18709 0.69533 0.24886 1.3172 0.061779 0.62189 0.24135 1.441 0.39969 1.82 0.15835 0.37897 0.28783 0.98573 0.28783 1.3474 0 0.65173 0.4466 2.031 0.80943 2.5 0.10366 0.13397 0.44897 0.2183 0.76673 0.18728 0.57719-0.0563 0.57789-0.0577 0.56059-1.1802-0.00952-0.61794-0.16595-1.6709-0.3469-2.3404-0.18096-0.66943-0.41954-1.5538-0.53039-1.9658-0.11088-0.41196-0.18269-0.88973-0.15963-1.0608 0.02306-0.17112-0.046679-0.36568-0.1546-0.43238s-0.19608-0.36432-0.19608-0.66113c-1e-6 -0.29681-0.084288-0.59119-0.18728-0.65484-0.10299-0.0636-0.18728-0.48366-0.18728-0.93263 0-1.2455-0.11662-1.4077-1.0118-1.4077zm140.53 0.77299c-0.4731 0.0995-0.87263 1.0607-1.0093 2.691-0.15684 1.871-0.69613 4.7926-1.0621 5.7554-0.45995 1.2102-0.4686 1.5667-0.0465 1.8175 0.97588 0.57979 1.4698-0.1927 2.0928-3.2667 0.10437-0.51494 0.27618-1.3316 0.3821-1.815 0.10594-0.48331 0.19357-1.2911 0.19357-1.7961s0.13055-1.1829 0.2916-1.5058c0.24794-0.49697 0.25603-0.66409 0.0478-1.0885-0.29507-0.60124-0.60604-0.85158-0.88988-0.79183zm-31.566 4.3062c-0.35604 0.0592-0.65359 0.37504-0.65359 0.90748 0 0.65729 0.34778 1.6926 0.71014 2.1116 0.35027 0.40505 0.76423 0.41673 1.3072 0.0364 0.48238-0.33786 0.51389-0.59923 0.16089-1.3323-0.14041-0.29155-0.37409-0.78203-0.52034-1.091-0.23366-0.49357-0.64824-0.69149-1.0043-0.63224zm3.3094 8e-3c-0.99348-0.1407-1.1764 0.45034-1.4128 4.5562-0.0297 0.51494-0.11748 1.5436-0.19608 2.285-0.13643 1.2869-0.12168 1.369 0.33433 1.825 0.26272 0.26271 0.59754 0.47762 0.74409 0.47762 0.61273 0 0.74078-0.55199 0.81823-3.5168 0.0423-1.6191 0.0933-3.5337 0.11312-4.2546 0.0342-1.2428 0.0131-1.3138-0.40095-1.3725zm5.4989 1.8753c-0.0911 0.0116-0.20346 0.0585-0.34313 0.13323-0.79613 0.42607-0.83993 0.68299-0.65733 3.8625 0.14492 2.5239 0.1261 3.1792-0.1257 4.1842-0.23776 0.94902-0.2553 1.323-0.0855 1.8376 0.1199 0.36325 0.15648 0.94708 0.0842 1.3323-0.0707 0.37694-0.15678 1.0022-0.1923 1.3901-0.0649 0.70904-0.24842 1.3963-0.78808 2.955-0.426 1.2305-0.50219 2.023-0.22624 2.3554 0.30665 0.3695 1.0545 0.20621 1.6151-0.3532 0.29888-0.29825 0.48884-0.86878 0.69634-2.0952 0.40396-2.3878 0.63433-4.9556 0.55678-6.2054-0.0765-1.2331 0.32934-2.8114 0.81449-3.1661 0.31274-0.2287 0.30897-0.26596-0.0716-0.67874-0.3927-0.42588-0.67278-1.8891-0.86223-4.5022-0.0581-0.80153-0.1414-1.0844-0.41478-1.0495zm-3.2277 0.35696c-0.23505-0.0306-0.4436 0.0386-0.55934 0.21745-0.0833 0.12875-0.15571 1.751-0.16215 3.6048-7e-3 2.0476-0.10273 3.7012-0.24258 4.2131-0.12661 0.46346-0.23366 0.96917-0.23881 1.1237-5e-3 0.15449-0.084 0.53314-0.17471 0.84213-0.45214 1.5397-0.54244 3.3033-0.19104 3.7267 0.13669 0.16471 0.48991 0.3004 0.78428 0.3004 0.42722 0 0.56124-0.10431 0.66613-0.51534 0.0723-0.28323 0.11503-0.68394 0.0955-0.88988-0.0195-0.20599 0.0563-0.75323 0.16717-1.2167 0.11086-0.46346 0.28108-1.1805 0.37958-1.5925 0.0985-0.41197 0.21358-1.4222 0.25516-2.2461 0.37134-7.3573 0.37699-6.7484-0.0591-7.1843-0.22284-0.22284-0.48515-0.35278-0.72018-0.38335zm-87.228 1.2946c-0.58014 0-1.0225 0.76879-0.67998 1.1815 0.27624 0.33286 0.09192 0.50399-0.54299 0.50399-1.1368 0-1.325 1.443-0.33685 2.5804 0.29388 0.33831 0.53419 0.79308 0.53419 1.0106 0 0.21749 0.3026 0.85178 0.67244 1.409 0.60449 0.91068 0.73143 1.0069 1.2632 0.95523 0.49723-0.0482 0.60149-0.14431 0.65358-0.60079 0.08777-0.76923-0.24948-1.9704-0.96783-3.4464-0.56859-1.1683-0.58984-1.2737-0.26269-1.2984 1.3626-0.10262 1.0444-2.2951-0.33308-2.2951zm-6.3824 3.7456c-0.26611 0.0207-0.53389 0.18599-0.69128 0.48642-0.2183 0.41663-0.213 0.63994 0.04022 1.5447 0.16282 0.58178 0.38049 1.1841 0.48265 1.3386 0.28786 0.43531 0.66824 1.4906 0.94643 2.6219 0.1393 0.56644 0.37881 1.4093 0.53169 1.8728 0.15286 0.46345 0.32783 1.149 0.38838 1.5234 0.06056 0.37435 0.35899 1.0474 0.66364 1.497 0.30465 0.44959 0.55494 0.91593 0.55679 1.0357 0.0018 0.11976 0.55104 0.91248 1.2205 1.7622 0.66944 0.84968 1.2179 1.6472 1.2179 1.7722 0 0.19235 0.77438 1.2022 2.6282 3.4238 0.26995 0.3235 0.47153 0.40085 0.78683 0.30417 1.3053-0.40024 1.2075-1.2729-0.32302-2.8921-1.0012-1.0592-3.7987-5.1909-4.4557-6.5799-0.27224-0.57544-0.57484-1.3743-0.67244-1.7748-0.20134-0.82593-0.44748-1.5494-1.0734-3.1624-0.23979-0.61794-0.64429-1.7729-0.89993-2.5678-0.25563-0.79498-0.55674-1.6171-0.66868-1.8263-0.14805-0.27662-0.41262-0.40033-0.67874-0.37958zm3.6249 1.908c-0.20497-0.0395-0.32805 0.0522-0.32805 0.24509 0 0.17991 0.1207 0.28295 0.29034 0.24762 0.40674-0.0847 0.43241-0.41669 0.03771-0.49271zm0.43363 1.0872c-0.65598 0-1.0117 0.47291-1.0017 1.3311 0.01188 1.02 0.52034 2.0989 1.8439 3.9127 0.56364 0.77243 1.1084 1.6141 1.2117 1.8716 0.1033 0.25747 0.26012 0.63738 0.34816 0.84338 0.08804 0.20596 0.25455 0.60869 0.36953 0.89493 0.11498 0.28623 0.39966 0.59659 0.63224 0.69003 0.23256 0.0935 0.47938 0.17582 0.54929 0.18226 0.20676 0.0193 0.71643-0.55709 0.71643-0.81069 0-0.96828-1.7246-4.45-2.8205-5.6949-0.48739-0.55374-0.77683-1.1112-0.91753-1.7672-0.23158-1.0798-0.47071-1.453-0.93138-1.453zm94.853 7.1833c-0.32379 0.0487-0.57429 0.41323-0.87983 1.2142-0.57804 1.5152-0.57279 2.2882 0.0164 2.5917 0.61108 0.31494 0.74548 0.3066 1.1551-0.0641 0.28196-0.25518 0.34314-0.59833 0.34314-1.9457 0-1.2817-0.0615-1.6589-0.28155-1.7433-0.12895-0.0495-0.24526-0.069-0.35319-0.0528zm-72.303 17.535c-0.16666 0-0.25092 0.0843-0.18728 0.18728 0.06365 0.10299 0.14796 0.18728 0.18728 0.18728 0.03935 0 0.12364-0.0843 0.18728-0.18728 0.06365-0.10299-0.02065-0.18728-0.18728-0.18728z"/>
</svg>
