<?xml version="1.0" encoding="utf-8"?>
<svg xmlns="http://www.w3.org/2000/svg" version="1.1" viewBox="0 0 300 400">
	<path d="m0 0v328.05l0.68359-0.625c0.013656 0.0132 0.020754 0.06132 0.035156 0.07032 0.49342 0.30492 1.096 0.03369 1.3398-0.60157 0.24378-0.63533 2.2634-2.3342 4.4844-3.7734 2.221-1.439 4.4647-3.3022 4.9883-4.1406 0.55648-0.89108 1.5035-1.4045 2.3125-1.4844s1.4805 0.27351 1.4805 1.1094c0 1.8808-5.0723 6.4709-6.9023 6.2461-1.2375-0.1518-2.098 0.68506-3.418 3.3281-0.97046 1.9432-2.5044 4.2039-3.4102 5.0234-0.4398 0.39806-0.74579 0.9072-0.98047 1.8476h-0.61328v61.947 2.9941 0.00586h300v-0.00586-2.9941-65.025h-0.94141c-0.13078-2.4326-0.29076-4.138-0.49218-4.3398-1.3233-1.3234-0.98277-5.9032 0.48047-6.4648 0.42828-0.16434 0.68916-0.41517 0.82812-0.76953h0.125v-320.4h-300zm89.262 27c0.1912 0.14534 0.30078 0.51642 0.30078 1.1367 0 1.5807 5.7737 3.0729 10.43 2.6953 2.8424-0.2305 3.9697 0.042209 4.9023 1.1797 1.0833 1.3212 1.6576 1.3792 5.4766 0.55859 2.743-0.58934 4.6173-0.64192 5.2461-0.14453 0.53792 0.4255 5.154 0.70807 10.258 0.62891 6.328-0.0981 9.7636 0.18222 10.809 0.875 1.246 0.82616 1.9505 0.79982 3.7617-0.13672 1.2252-0.63356 2.38-1.609 2.5664-2.168 0.1885-0.56512 1.6355-1.0227 3.2617-1.0273 2.2436-7e-3 3.115 0.40906 3.7422 1.7852 1.4564 3.1956 7.3351 3.1366 7.3281-0.074218-1e-3 -0.62018 2.0196-0.82962 6.3516-0.65234 5.839 0.23888 6.4269 0.41929 7.2539 2.2344 1.0642 2.3358 4.7891 4.047 6.0547 2.7812 0.95622-0.95619 4.6159-1.1467 4.4219-0.23047-0.31072 1.4677 1.2438 3.4297 2.7188 3.4297 0.887 0 2.6931-0.90989 4.0117-2.0195 3.2106-2.7016 4.0569-2.5536 3.4727 0.60547-0.64838 3.5056 0.86625 5.3682 4.8555 5.9766 3.515 0.53598 6.8555 3.0195 6.8555 5.0977 0 0.72148 0.43617 1.7487 0.96875 2.2812 1.1338 1.1338 8.2043 1.2995 10.188 0.23828 0.75142-0.40214 2.9951-0.84508 4.9883-0.98438 3.3572-0.23438 3.6048-0.11863 3.3672 1.5625-0.41936 2.9678 1.4092 7.4141 3.0469 7.4141 2.0242 0 3.0167 1.4425 4.1875 6.082 1.1916 4.723 2.5171 6.4872 6.3398 8.4492 1.5534 0.7972 3.6907 2.3842 4.7539 3.5234 1.0631 1.139 2.2526 1.8726 2.6406 1.6328 0.96418-0.59588 8.3404 4.9169 10.344 7.7305 1.9503 2.7388 2.2114 7.2812 0.41797 7.2812-0.87942-1e-6 -1.2109-0.90479-1.2109-3.3125 0-2.588-0.2629-3.2156-1.1914-2.8594-0.65862 0.25276-1.5339-0.15814-1.9648-0.92187-1.4158-2.5084-2.5072-0.12952-1.5898 3.4648 1.7509 6.8616 1.7803 7.1138 0.8125 6.5156-0.51581-0.31852-0.74211-0.88652-0.50781-1.2656 0.23426-0.37906-0.33527-1.9817-1.2656-3.5586-1.1342-1.9224-1.538-3.6047-1.2226-5.1055 0.68912-3.2792-0.446-4.7035-2.6484-3.3281-1.89 1.1805-2.1472 1.9409-0.91406 2.7031 1.5664 0.96812 0.87537 2.6933-0.89453 2.2305-1.5435-0.40364-1.6535-0.20953-1.1484 2.0898 0.53404 2.4314 0.4506 2.5391-2.0078 2.5391h-2.5664l0.50781 5.4492c0.28024 2.9958 0.20011 6.5358-0.17969 7.8672l-0.6914 2.4219-0.57813-2.293c-0.3362-1.3331-0.98779-2.1268-1.5547-1.8945-3.831 1.5696-3.795 1.5794-4.293-0.91016-0.72068-3.6034-2.7305-2.4278-2.7305 1.5977 0 3.6732-1.2577 3.4942-2.2461-0.32032-0.36028-1.3904-1.0906-2.6733-1.625-2.8516-1.4839-0.49462-1.1934 4.1348 0.4375 6.9766 1.3601 2.3698 1.3519 2.4969-0.20312 3.6719-2.315 1.7493-2.6074 1.6185-4.4336-1.9609-0.90568-1.7752-1.9822-3.2266-2.3906-3.2266-1.5204 0-1.7153 1.7085-0.47656 4.1914 1.5426 3.0922 0.29321 5.3128-1.5703 2.7891-1.225-1.659-2.8242-1.1527-2.8242 0.89453 0 0.96752-0.24236 1.0818-0.89454 0.42968-0.65212-0.65218-0.63116-2.427 0.07032-6.5859 0.95234-5.646 0.73018-7.3672-0.94922-7.3672-1.1352 0-2.8574-2.1676-4.332-5.4492-1.2862-2.8624-2.3292-3.3212-3.082-1.3594-0.69208 1.8035 1.6529 5.9123 3.9805 6.9727 2.3978 1.0925 2.4416 1.4977 0.36329 3.2774-0.88764 0.76001-1.6133 1.7511-1.6133 2.1992 0 1.046 1.8141 1.0477 3.0664 0.00391 0.70442-0.58676 0.747-0.54022 0.16016 0.16406-0.4438 0.53258-0.80469 1.8036-0.80469 2.8242 0 1.4326-0.45179 1.8555-1.9805 1.8555-1.6016 0-2.0769 0.509-2.4805 2.6602-0.87394 4.6592 2.787 11.379 5.3398 9.8008 0.92388-0.57094 0.96716-2.7773 0.05468-2.7773-1.2066-1e-5 -2.7776-6.55-1.8047-7.5234 0.62078-0.6208 0.87109-0.46893 0.87109 0.53125 0 2.579 2.4936 5.3166 5.3242 5.8476 1.92 0.3602 2.7461 0.95312 2.7461 1.9727 0 0.80194 0.23827 2.1245 0.53125 2.9375 0.43442 1.2055 0.1429 1.1264-1.5742-0.4375-2.3188-2.1122-4.8978-1.824-4.457 0.5 0.161 0.84978 1.1417 1.5158 2.457 1.668 2.0992 0.24268 2.1708 0.40146 1.7031 3.8125-0.66772 4.8718 1.2878 8.0104 4.582 7.3516 1.3311-0.2662 3.331 0.0635 4.7852 0.78906 1.7212 0.85862 3.4927 1.0766 5.7031 0.70313 2.5272-0.42694 3.3159-0.27076 3.7031 0.73828 0.56082 1.4615 3.1777 1.7229 3.9961 0.39844 0.30042-0.48614 0.06928-1.7781-0.51562-2.8711-0.76704-1.4331-1.5347-1.8704-2.7461-1.5664-1.9041 0.47792-3.9013-1.9427-3.1719-3.8438 0.897-2.3376-1.2496-2.1108-2.4766 0.26172-1.7407 3.3662-2.8398 3.0638-2.8398-0.78125 0-2.1216-0.36045-3.2266-1.0547-3.2266-1.9945 0-3.695 2.0179-3.9414 4.6797-0.23032 2.4862-0.35074 2.5892-1.8145 1.5117-1.4032-1.0329-1.4709-1.4893-0.625-4.3125 1.0586-3.5332 5.8223-8.826 5.8223-6.4688 0 1.9487 6.2834 1.9488 7.0312 0 0.2946-0.76766 0.09879-1.5061-0.44531-1.6875-1.9587-0.65286-3.3686-2.7876-3.2266-4.8828 0.0804-1.1845-0.10598-2.9195-0.41406-3.8555-0.36288-1.1029-0.12843-2.0619 0.66797-2.7227 1.4257-1.1834 1.4751-1.0177 1.5703 5.2305l0.0625 4.0352 3.0078 0.25c2.5882 0.21456 3.3621-0.15437 5.5313-2.625 3.0786-3.5062 5.0463-3.6152 8.0039-0.44922 1.2438 1.3314 2.6606 2.4219 3.1484 2.4219 0.81224 0 0.97262-0.45088 1.2109-3.4297 0.0444-0.5547-0.5554-0.90384-1.332-0.77344-1.9639 0.32974-1.8866-3.4192 0.125-5.9766 0.84712-1.0769 1.7786-3.6917 2.0703-5.8125 0.56456-4.1048 1.6174-6.4899 2.4785-5.6289 0.7321 0.7321-0.40185 5.4805-1.3086 5.4805-1.2394 0-0.83583 1.5819 0.87109 3.4141 0.88762 0.95274 1.6133 2.1953 1.6133 2.7617 0 0.56642-0.72566 1.4195-1.6133 1.8945-2.3208 1.242-2.1548 3.5054 0.20313 2.7734 0.9986-0.30994 2.106-1.0604 2.4609-1.668 1.0031-1.7171 2.0237-1.3195 3.3867 1.3164 1.4353 2.7754 2.8242 3.1702 2.8242 0.80468 0-1.9237 1.0272-2.0826 2.4414-0.3789 0.80044 0.96432 0.81978 1.6922 0.07812 3.3203-0.60088 1.319-0.67166 2.4188-0.1914 3 0.41722 0.5051 1.0124 2.2837 1.3242 3.9531 0.45676 2.4442 0.13285 3.8978-1.668 7.457l-2.2383 4.418 2.1445 1.9883c2.1368 1.9802 2.7958 3.6797 1.4258 3.6797-0.39632 0-0.91974-0.52351-1.1641-1.1602-0.36292-0.94558-0.89504-0.98717-2.9102-0.22657-1.3566 0.512-2.4688 1.2076-2.4688 1.543 0 0.33534-1.0532 0.39868-2.3438 0.14063-1.8459-0.36918-2.542-0.10682-3.2578 1.2305-0.50036 0.93492-1.3902 1.6992-1.9805 1.6992-2.1152 0-5.4101 3.3097-4.8984 4.9219 0.33666 1.0607 0.0978 1.5352-0.77734 1.5352-2.1746 0-1.4008-3.074 1.6133-6.4102 2.4572-2.7198 2.7426-3.4278 1.9766-4.8594-1.3034-2.4358-0.3796-3.2578 3.6641-3.2578 2.6472 0 3.5859 0.3167 3.5859 1.2109 0 0.6657 0.6334 1.2109 1.4102 1.2109 1.02 0 1.7994-1.2896 2.8047-4.6406 1.9377-6.46 2.534-11.221 1.4883-11.867-0.47516-0.29362-0.86328-1.3769-0.86328-2.4062 0-2.6444-4.5775-4.6229-6.0469-2.6133-0.54416 0.7442-1.361 1.3555-1.8125 1.3555-1.456 0-2.9667 2.5204-2.8281 4.7188 0.0758 1.2005-0.67613 3.1316-1.7148 4.4024-1.6711 2.0442-2.0581 2.1692-3.9726 1.2969-1.7527-0.7986-2.473-0.73175-4.168 0.37891-2.7622 1.8098-2.7816 5.104-0.03516 6.1484 2.6842 1.0205 2.6252 3.7185-0.14844 6.6133-2.159 2.2538-5.3555 2.9928-6.3047 1.457-0.85302-1.3802-3.4848-0.89003-4.7266 0.88281l-1.1836 1.6953-0.90625-1.6953c-0.49824-0.931-1.3925-1.6914-1.9883-1.6914-0.59578 1e-5 -1.501-0.50182-2.0117-1.1172-0.5107-0.61536-3.3316-1.3772-6.2656-1.6914-4.66-0.49904-5.8238-0.3322-9.1914 1.3203-2.1204 1.0405-4.2529 2.7356-4.7383 3.7656-1.2244 2.5986-3.6142 1.984-3.957-1.0156-0.148-1.2947-1.1462-3.6442-2.2188-5.2226-1.0725-1.5783-1.9492-3.5544-1.9492-4.3906 0-1.1932-0.44278-1.4363-2.0508-1.1289-1.2944 0.24744-1.9359 0.0587-1.7461-0.51172 0.16538-0.49662 0.99682-1.0084 1.8477-1.1367 4.4036-0.66368 5.1758-1.0682 5.1758-2.7109 0-1.5014-0.33948-1.6479-2.8633-1.2383-2.6684 0.43302-2.8246 0.34545-2.2812-1.3047 1.1548-3.5054 0.81716-5.0053-1.1094-4.9375-0.9986 0.0352-1.8164-0.33674-1.8164-0.82812 0-1.4109-3.2589-3.8324-4.5117-3.3516-1.3935 0.53472-1.4587 2.4066-0.15625 4.4922 1.2509 2.003 0.03831 3.3154-1.332 1.4414-0.5663-0.77444-2.1508-1.6326-3.5195-1.9062-1.7969-0.35938-2.7146-1.1462-3.3008-2.8281-0.6034-1.7309-1.3316-2.3281-2.832-2.3281-1.1106 0-2.3514 0.59407-2.7578 1.3203-0.5654 1.0103-0.86549 0.46771-1.2812-2.3047-0.55972-3.7324-3.2952-7.0859-5.7773-7.0859-0.7296 0-2.0904 1.8488-3.2774 4.4414-1.4013 3.061-2.4998 4.4375-3.5352 4.4375-1.0083 0-1.5863 0.68034-1.7578 2.0742-0.2954 2.4008-2.3201 3.6699-8.9297 5.5977-4.1864 1.221-5.037 1.9077-4.7344 3.8242 0.1663 1.0531-3.4696 0.60543-5.1016-0.62891-0.86148-0.65158-3.1162-1.1875-5.0078-1.1875-1.8914 0-4.3886-0.43144-5.5508-0.96094-1.7232-0.78514-2.2506-0.74667-2.8516 0.20313-0.6078 0.96072-0.73709 0.915-0.74609-0.25-7e-3 -0.85562-0.62915-1.4102-1.5781-1.4102-0.86142 0-1.7821-0.34763-2.043-0.76953-0.26072-0.42306-1.7164-0.60848-3.2344-0.41406-1.518 0.19442-2.9522 0.0393-3.1914-0.34766-0.70034-1.1332-10.141 0.29952-10.141 1.5391 0 0.33798-1.6195 0.85961-3.5977 1.1562-4.9392 0.74068-8.0557 4.327-7.3555 8.4648 1.2328 7.2852 1.2413 8.7542 0.050782 9.7422-0.66088 0.5485-1.2031 1.8066-1.2031 2.793 0 0.98642-1.5011 4.1183-3.3398 6.9609-1.8388 2.8426-3.8874 6.8038-4.5508 8.8008-0.66346 1.9972-1.7004 4.2054-2.3047 4.9062-0.60442 0.70066-1.1016 1.8728-1.1016 2.6055 0 2.6424-2.6027 7.7696-4.2031 8.2774-1.3778 0.43727-1.5666 1.0088-1.2109 3.6602v0.00391c0.23192 1.7287 0.14112 3.313-0.19922 3.5234-0.82016 0.50685-7.2969-5.5054-7.2969-6.7734 0-0.5439 0.8747-2.505 1.9453-4.3594 1.0706-1.8543 3.2694-7.2662 4.8828-12.027 1.6135-4.7612 3.4598-9.6644 4.1016-10.895 0.64172-1.23 1.1695-2.8286 1.1719-3.5508 0.0022-0.72218 0.54914-1.7639 1.2148-2.3164 1.5489-1.2858 1.5547-4.3793 0.011718-5.9219-1.3397-1.3398-4.1046-0.95509-6.2148 0.86719-1.2338 1.0655-1.4321 0.89008-2.1445-1.9258-1.8619-7.3594-1.8858-10.37-0.09375-12.648 0.93816-1.1925 2.0261-4.248 2.4219-6.8008 0.8701-5.6104 1.9694-10.166 2.7578-11.441 0.62924-1.0181 1.3513-7.1894 1.5039-12.84 0.08554-3.1702-0.25973-3.8426-3.6016-7-2.3208-2.1926-3.8921-4.4683-4.2227-6.1211-0.28956-1.4478-1.1102-3.2813-1.8242-4.0703-1.2025-1.3288-1.1425-1.6173 0.81641-3.9453 2.5244-3.0004 2.7076-6.259 0.51172-9.0508-1.1652-1.4813-1.5757-3.1631-1.5078-6.1797 0.06336-2.8072-0.33142-4.6166-1.2227-5.6016-1.7636-1.9488-1.7272-2.0913 1.4453-6.2461 1.5171-1.9869 3.0003-5.052 3.2969-6.8086 0.61272-3.6266 1.8722-4.8626 2.9648-2.9102 1.0064 1.7983 2.8624 1.6678 3.4688-0.24219 0.27302-0.86022 1.7173-1.9654 3.207-2.457 2.1504-0.70968 3.1388-1.8034 4.793-5.2969 1.4974-3.1625 2.8378-4.7887 3.416-4.3594zm27.275 9.7109c-0.34104-0.07078-0.63836-0.0453-0.80859 0.125-0.29801 0.29802-0.32025 1.13-0.04493 1.8477 0.25462 0.66354 0.97691 1.0078 1.6699 1.0215 0.693 0.01363 1.3568-0.3034 1.502-0.95898 0.16064-0.72599-1.2922-1.8201-2.3184-2.0352zm-22.234 0.88281c-0.55892 0.17912-0.70312 0.96204-0.70312 2.8867 0 1.7338 0.23531 3.3916 0.52734 3.6836 0.14602 0.14601 0.40481 0.17452 0.70508 0.10156 0.30027-0.07295 0.64203-0.2474 0.95117-0.50391 1.5839-1.3145 1.018-5.8247-0.77344-6.1641-0.2874-0.05449-0.52071-0.063506-0.70703-0.003906zm28.344 0.25781c-0.59174 1e-6 -1.2254 0.45305-1.4102 1.0078-0.19994 0.6 0.37011 1.0078 1.4102 1.0078 1.04-1e-6 1.614-0.40781 1.4141-1.0078-0.18482-0.55476-0.82231-1.0078-1.4141-1.0078zm-15.219 0.59375c-0.30956-0.037999-0.57019-7.4e-5 -0.71093 0.14063-0.2029 0.2029-0.12848 0.75716 0.16406 1.2305 0.32189 0.52082 1.0346 0.80765 1.668 0.83789 0.63337 0.03023 1.1875-0.19614 1.1875-0.70117 0-0.61351-1.38-1.3937-2.3086-1.5078zm25.816 1.5156c-1.1274 0.033799-3.9956 2.0406-5.625 4.0586-2.005 2.4834-6.0693 4.9737-6.8477 4.1953-0.2566-0.2566-0.25568-1.5139 0-2.793 0.51496-2.5748-0.51992-3.0426-2.4531-1.1094-0.81834 0.81816-1.0937 2.2071-0.83984 4.2383 0.37022 2.9626 0.33905 2.9318-1.8047-1.4219-1.202-2.441-2.2874-4.5702-2.4102-4.7344-0.12286-0.16424-1.151-0.064909-2.2812 0.21875-2.453 0.6157-2.8074 3.3623-0.52734 4.0859 0.8397 0.26648 1.7182 1.2189 1.9531 2.1172 0.23492 0.89829 1.5478 2.0545 2.9141 2.5703 3.2056 1.21 3.2426 3.0078 0.0625 3.0078-1.3314 0-2.4219-0.36479-2.4219-0.80859 0-1.2385-1.7262-0.95602-2.7539 0.44922-1.321 1.8065-3.6992 0.62319-3.6992-1.8398 0-1.7203-0.30102-1.9693-2-1.6445-2.1812 0.417-3.944-1.5016-4.9102-5.3516-0.59382-2.366-1.3338-2.629-2.7148-0.96484-0.73552 0.88622-0.57374 1.9121 0.73438 4.6406 3.1238 6.5158 4.7833 7.5006 13.937 8.293 1.223 0.1059 2.4646 0.43318 2.7578 0.72656 0.29338 0.29336 1.6062 0.53516 2.918 0.53516 2.0286 0 2.2332 0.18149 1.3789 1.2109-0.5525 0.6657-1.8459 1.207-2.875 1.207-1.029 0-2.0759 0.33417-2.3281 0.74219-0.49334 0.79824 1.6279 3.293 2.8008 3.293 1.7126 0 4.832-1.9855 5.2656-3.3516 0.46806-1.4748 3.5938-3.7097 3.5938-2.5703 0 0.3242-0.92639 1.5566-2.0586 2.7383l-2.0586 2.1484 1.8555 2.1289c1.1525 1.3225 1.9512 1.8419 3.4766 1.9492 0.50846 0.03576 1.0992 0.025775 1.8086-0.015625 2.8964-0.16904 3.4293-0.46777 3.4297-1.918 9.2e-4 -2.3922 2.2815-4.2522 3.2695-2.668 0.5447 0.87344 1.0597 0.94483 2.1055 0.29297 2.085-1.2996 2.2512-2.7695 0.3125-2.7695-1.4401 0-1.5787-0.24378-0.875-1.5586 1.3123-2.4518 0.99276-4.0629-0.97656-4.8867-0.99856-0.41766-2.5178-1.3145-3.375-1.9922-1.5291-1.209-1.5212-1.2694 0.33594-3.2461 1.4285-1.5207 1.8575-2.8427 1.7578-5.3867-0.0725-1.8536-0.28072-3.5189-0.46484-3.7031-0.0814-0.0814-0.20613-0.11808-0.36719-0.11328zm21.785 2.418c-0.36918 0.0396-0.73379 0.21822-1.0664 0.55078-1.2169 1.2169-0.12136 4.8046 2.168 7.0938 0.99146 0.99145 2.3804 1.6435 3.6348 1.8633 1.2544 0.21976 2.3742 0.00722 2.8301-0.73047 0.27686-0.44796-0.6006-1.4463-1.9492-2.2188-1.4741-0.84438-2.6521-2.309-2.9531-3.6758-0.27586-1.253-0.87636-2.1697-1.5742-2.6055-0.34894-0.21776-0.72064-0.3169-1.0898-0.27734zm-30.086 0.11719c-0.49664 0.0709-1.0553 0.50971-1.3047 1.2578-0.17566 0.52702 0.25433 0.95703 0.95703 0.95703s1.2774-0.57464 1.2774-1.2773c0-0.7125-0.43305-1.0084-0.92969-0.9375zm-39.906 0.65625c-0.2321-0.0677-0.45938-0.040656-0.67188 0.089844v0.003906c-0.28332 0.17408-0.53978 0.52634-0.75 1.0742-0.6706 1.7475 2.4512 7.3269 5.3828 9.6211 2.2898 1.792 2.408 2.1213 1.5039 4.1055-1.2269 2.6928-3.3679 2.3248-8.8555-1.5195-3.2094-2.2482-4.9919-4.5786-6.8711-8.9922-0.21318-0.50072-0.73922-0.4342-1.3867 0.17578-2.6574 2.5032 5.2567 14.754 9.5312 14.754 1.6944 0 3.1531 1.3312 2.3438 2.1406-1.3607 1.3607-7.5822-3.3318-10.594-7.9922-1.4114-2.1842-3.668-3.0276-3.668-1.3711 0 2.7434 5.9864 9.6518 10.418 12.023 0.9269 0.49606 1.6875 1.2671 1.6875 1.7109 0 1.1031-3.0824-0.54634-5.8594-3.1367-1.5932-1.4861-2.4694-1.8275-3.0938-1.2031-1.3175 1.3175 3.1562 5.8874 6.543 6.6836 1.4766 0.34718 2.6814 0.57849 3.6777 0.67383 2.9889 0.28601 4.1103-0.6508 5.1348-3.3457 1.23-3.2348 1.0737-3.9433-0.75391-3.3633-1.2586 0.39948-1.6133 0.14477-1.6133-1.1562 2e-6 -1.2186 0.51657-1.668 1.918-1.668 1.055 0 2.3693-0.54128 2.9219-1.207 1.0732-1.2931 5.6484-1.6955 5.6484-0.49609 0 1.2244 5.3639 1.7997 7.5391 0.80859 4.1264-1.8801 2.9408-4.725-1.5039-3.6094-1.1176 0.2805-2.756 0.12181-3.6406-0.35156-1.0291-0.55072-2.093-0.58904-2.957-0.10547-1.6281 0.91114-6.6992-2.7402-6.6992-4.8242 0-0.72234-0.54335-1.7618-1.207-2.3125-0.66368-0.5508-1.6284-2.4102-2.1445-4.1328-0.53952-1.8009-1.2842-2.8747-1.9805-3.0781zm55.336 0.94531c-0.31882 9e-3 -0.63154 0.14038-0.88282 0.34766-0.5028 0.41478-0.75949 1.1359-0.34375 1.8086 0.29818 0.48248 0.86249 0.875 1.2539 0.875 1.2464 0 1.8257-1.7211 0.89453-2.6523-0.27828-0.27828-0.60303-0.38811-0.92187-0.37891zm5.1719 0.61328c-1.3679-1e-6 -1.4638 2.5521-0.14453 3.8711 0.65101 0.65102 1.206 0.95733 1.668 0.91602s0.83088-0.43024 1.1133-1.166c0.5503-1.4341-1.0427-3.6211-2.6367-3.6211zm-65.262 0.80469c-1.2478 0-1.6041 0.95454-0.69531 1.8633 0.16116 0.16117 0.36138 0.23774 0.57031 0.24414 0.62678 0.01931 1.3359-0.5826 1.3359-1.3457 0-0.41764-0.54522-0.76172-1.2109-0.76172zm13.266 3.3438c-0.27096 0.0632-0.62838 0.1951-1.0977 0.375-1.6672 0.63972-1.6169 2.3695 0.13672 4.7812 0.77666 1.0681 2.0476 1.951 2.8242 1.9648 1.724 0.0309 1.8844-2.265 0.20312-2.9102-0.66572-0.25544-1.2109-1.3324-1.2109-2.3945 0-1.0534-0.019758-1.5942-0.27344-1.7812-0.1266-0.0934-0.31109-0.098356-0.58203-0.035156zm29.609 1.8867c0.16588 0.0812 0.20778 0.27549 0.10938 0.57031-0.30156 0.90467-1.4072 1.5033-1.9414 1.2988-0.17806-0.06814-0.29297-0.22507-0.29297-0.49023 0-0.43332 0.57455-1.0077 1.2774-1.2773 0.39288-0.15074 0.68177-0.18275 0.84765-0.10156zm2.7148 2.0352c0.44382 0 0.80859 0.36087 0.80859 0.80469 0 0.4438-0.36477 0.80859-0.80859 0.80859-0.4438 0-0.80469-0.36479-0.80469-0.80859 0-0.44382 0.36089-0.80469 0.80469-0.80469zm49.629 1.207c-0.3281-0.0211-0.74207 0.048704-1.2578 0.18359-1.239 0.324-1.5664 1.1225-1.5664 3.8125 0 1.8714 0.24323 3.6454 0.53907 3.9414 0.46924 0.46922 0.92215 0.68754 1.3379 0.68164 1.2472-0.01772 2.1582-2.047 2.1582-5.3223 0-2.3576-0.2267-3.2337-1.2109-3.2969zm-41.959 1.2109c1.078 0 0.17218 2.044-1.6602 3.7422-1.1832 1.0965-1.8778 1.6775-2.2773 1.7988-0.39951 0.1213-0.50391-0.21717-0.50391-0.95508 0-0.9704 3.5006-4.5859 4.4414-4.5859zm32.898 0c-1.4395 0-2.1302 3.5938-1.0703 5.5742 0.50386 0.94148 0.93726 1.4651 1.4004 1.5977 0.46314 0.13258 0.95599-0.12588 1.5762-0.74609 1.0852-1.0852-0.49889-6.4258-1.9062-6.4258zm-19.492 1.1289c-0.4302-0.016-0.87789 0.13002-1.3047 0.48438-1.6317 1.3542-1.5323 3.7707 0.19922 4.7773 0.5004 0.29094 0.93793 0.47709 1.3164 0.55664 1.1354 0.23866 1.7431-0.48459 1.9531-2.2363 0.23874-1.9922-0.87336-3.533-2.1641-3.582zm-7.7617 1.293c-1.2478 0-1.6041 0.95062-0.69531 1.8594 0.16116 0.16117 0.36138 0.23774 0.57031 0.24414 0.62678 0.01931 1.3359-0.58261 1.3359-1.3457 0-0.41758-0.54522-0.75781-1.2109-0.75781zm50.453 3.3281c-0.7637-0.12444-2.2278 0.98493-4.7187 3.2812-2.1502 1.982-3.8044 2.9855-3.9922 2.4219-0.59986-1.7995-3.3581-1.051-3.8867 1.0547-0.6132 2.4434-1.477 2.5558-2.9961 0.38672-0.7184-1.0257-1.6369-1.4442-2.4688-1.125-1.8933 0.72656-1.6329 3.2499 0.49219 4.7695 1.1456 0.81902 2.6729 1.1366 4.1367 0.85547 1.2759-0.24514 4.0497-0.44922 6.1641-0.44922 5.303 0 7.1621-1.6827 7.7891-7.0586 0.30932-2.652 0.24434-4.0121-0.51954-4.1367zm-37.77 0.14062c-0.32198-0.0684-0.60996-0.003004-0.86718 0.19141-0.51436 0.3892-0.90502 1.3062-1.1992 2.7773-0.36136 1.8068-0.93813 2.4375-2.2266 2.4375-1.0453 0-3.3884 1.7169-5.875 4.3047-6.0732 6.3208-10.031 8.1149-9.0195 4.0859 0.5891-2.3472-1.2922-5.9688-3.1016-5.9688-2.7884 0-1.4218 7.4504 1.5781 8.6016 0.64254 0.24656 1.168 0.95602 1.168 1.5742 0 0.71998 0.59782 1.0716 1.4375 1.0586 0.8397-0.01302 1.9212-0.39072 2.8906-1.125 1.1827-0.89579 1.8224-0.93211 3.0273-0.17969 1.1246 0.70227 1.9003 0.71671 2.9375 0.0625 1.7859-1.1265 1.3938-2.3862-0.66406-2.1328-1.4393 0.17728-1.3957-0.074247 0.55859-3.0273 1.7929-2.7094 2.5691-3.2188 4.8867-3.2188 4.9468 0 8.794-6.1461 5.5391-8.8477-0.39344-0.32654-0.74834-0.52535-1.0703-0.59375zm53.082 1.375c-1.0759 0-1.6133 0.53737-1.6133 1.6133 0 1.3327 0.05474 1.6972 0.86328 1.4961 0.26952-0.06702 0.62311-0.1974 1.0859-0.375 1.8285-0.70168 1.5791-2.7344-0.33594-2.7344zm19.266 0.21875c-0.59544 0.0826-1.1781 0.66761-1.3789 1.7031-0.1478 0.7617 0.332 2.2952 1.0625 3.4102 0.74482 1.1367 1.924 1.915 2.6875 1.7695 1.7186-0.3274 2.362-3.875 0.70313-3.875-0.64482 0-1.3689-0.76482-1.6133-1.6992-0.25432-0.97244-0.86576-1.3912-1.4609-1.3086zm-17.895 3.1914c-0.91508 0.36034-2.1797 1.7677-2.1797 2.7383 0 0.87255 0.56407 1.1983 1.2012 1.0723 0.6371-0.126 1.3472-0.7037 1.6426-1.6348 0.29228-0.92108 0.32602-1.8811 0.07422-2.1328-0.16818-0.1682-0.43326-0.16306-0.73828-0.042969zm12.316 5.0781c-0.50208 0.0797-0.99399 0.57365-1.2461 1.5781-0.26833 1.0687-0.23797 2.3474 0.06641 2.8398 0.22382 0.36215 0.48642 0.57147 0.75781 0.64648 0.81417 0.22501 1.7114-0.75565 1.9102-2.4199 0.1678-1.405-0.35073-2.3396-0.99219-2.5898-0.16034-0.062489-0.3287-0.081287-0.4961-0.054687zm-11.266 0.78906c-0.65358 0-1.3113 0.6374-1.4609 1.4141-0.1908 0.99078 0.24556 1.4102 1.4609 1.4102 1.2154 0 1.6517-0.41938 1.4609-1.4102-0.1496-0.77666-0.80738-1.4141-1.4609-1.4141zm-129.79 0.76172c-0.46424-0.0272-0.88275 0.070304-1.1523 0.33984-0.59208 0.59202-0.52674 1.2353 0.21484 2.1289 0.58803 0.70852 1.4186 1.0427 2.1641 1.0137s1.4057-0.42131 1.6523-1.1621c0.3451-1.0366-1.4861-2.2389-2.8789-2.3203zm136.34 0.53516c-1.002 0.16387-3.3203 2.5742-3.3203 3.668 0 0.96424 0.60724 1.2528 1.3203 1.0254 0.71306-0.22745 1.5319-0.97096 1.9492-2.0684 0.44523-1.1711 0.62223-2.3192 0.39063-2.5508-0.0788-0.07882-0.19666-0.097618-0.33984-0.074219zm-50.297 0.070313c-0.46298 0.0737-0.63091 0.31477-0.62891 0.74609 9e-3 2.101 4.2574 3.5962 10.883 3.832 3.5476 0.12626 6.6239 0.40515 6.8359 0.61719 0.69542 0.69542-1.9438 1.8846-4.207 1.8984-1.7319 9e-3 -2.4568 0.58384-3.3164 2.6328-1.3816 3.2938-1.0658 3.8359 2.2226 3.8359 4.1652 0 4.1612 1.063-0.00781 2.4023-3.9714 1.2759-5.7126 3.2461-2.8672 3.2461 0.88762 1e-6 1.7508 0.40037 1.9141 0.89063 0.5223 1.5669 7.0222-0.93795 8.7578-3.375 1.9027-2.672 1.928-2.9756 0.26953-3.3086-1.1095-0.2228-1.0568-0.47992 0.36328-1.7617 1.6552-1.494 1.6681-1.4791 2.2266 2.7305 0.4046 3.05 1.2468 5.0123 3.0195 7.0312 2.1422 2.4396 2.29 2.8905 1.1524 3.5273-0.71822 0.40194-1.7093 1.949-2.1992 3.4336s-1.7861 3.5399-2.8828 4.5703l-1.9961 1.875v-1.7773c0-0.97606 0.72877-3.8435 1.6172-6.3711 1.5703-4.468 1.5732-4.6338 0.125-6.082-1.4482-1.4482-1.5595-1.4308-4.0352 0.65234-1.4005 1.1785-2.5469 2.6127-2.5469 3.1875 0 0.57448-0.72566 1.2327-1.6133 1.4648-1.0893 0.28488-1.6133 0.024398-1.6133-0.80078 0-0.94748-0.49857-1.0797-2.2188-0.59375-1.2205 0.3448-3.2796 0.65527-4.5742 0.69141-3.0026 0.083899-3.6572 1.8603-0.9375 2.543 2.3122 0.58028 2.0404 1.9609-0.38672 1.9609-2.0218 0-1.9973 1.4597 0.06641 3.6562 0.89972 0.95762 2.4472 3.3375 3.4336 5.2891 2.1342 4.2222 5.8001 6.704 7.0547 4.7734 0.6366-0.97942 0.91825-1.0071 1.4726-0.14843 0.44202 0.68453 1.9476 0.96868 4.2383 0.80468l3.5508-0.2539 0.24218-4.2344c0.23014-3.9966 1.0443-5.2676 2.1875-3.418 1.0697 1.7307 2.1022-0.28557 1.6172-3.1562-0.87922-5.2042 2.1133-10.005 3.2969-5.2891 0.63036 2.5114-1.8439 10.808-3.4023 11.406-1.2219 0.46888-1.4862 4.0718-0.42187 5.75 0.72512 1.1433 4.5024 0.60536 6.4258-0.91406 1.4589-1.1527 2.7098 0.89665 1.6992 2.7852-1.268 2.3692-0.84688 6.2546 0.86328 7.9648 0.94876 0.94835 2.1581 1.4836 3.1309 1.5644 0.97276 0.08088 1.709-0.29258 1.709-1.1621 0-0.66572-0.53349-1.2109-1.1836-1.2109-2.3398 0-2.9777-2.9197-2.0703-9.4453 0.61665-4.4336 0.61083-6.3292-0.01953-6.7188-0.54562-0.3372-0.67036-1.6562-0.32812-3.4805 0.4852-2.5864 0.32622-3.0235-1.3516-3.6953-1.0472-0.4194-1.6496-0.78831-1.3398-0.8164 1.2661-0.11506-1.2468-4.8604-4.3164-8.1523-3.1782-3.4082-3.2674-3.6426-2.75-7.5898 1.1058-8.4372 1.1977-8.1133-2.2188-8.1133h-3.0742l2.0625-1.6445c1.1347-0.9043 2.0664-2.0556 2.0664-2.5586 0-1.2127-4.6408-2.1956-5.8828-1.2461-1.1368 0.86901-13.306 0.74593-17.723-0.17969-1.1713-0.24542-1.9278-0.3392-2.3906-0.26562zm68.34 1.7109c-0.3613-0.13767-0.5656 0.11692-0.78906 0.69141-0.28878 0.74244 0.09638 2.2926 0.85938 3.457 0.68285 1.0422 1.3839 1.6366 1.9844 1.7578 0.60049 0.12124 1.1004-0.23066 1.3828-1.0781 0.1594-0.4782-0.60931-1.9064-1.707-3.1758-0.85114-0.98418-1.3692-1.5145-1.7305-1.6523zm-76.061 0.023438c-0.57357 0.07328-1.054 0.25967-1.4141 0.55859-1.7982 1.4922-1.4146 2.3903 1.0391 2.4219 1.2205 0.016 3.1271 0.54541 4.2363 1.1797 1.647 0.94154 3.0947 1.2641 4.0352 1.1621 1.5674-0.16994 1.7271-1.5181-0.9375-3.1387-1.7835-1.0846-3.5164-1.7894-4.9844-2.0742-0.7333-0.14234-1.4005-0.18218-1.9746-0.10938zm49.453 0.53125c-0.66572 0-1.207 0.54522-1.207 1.2109 0 0.66572 0.54131 1.207 1.207 1.207s1.2109-0.54131 1.2109-1.207c0-0.66572-0.54522-1.2109-1.2109-1.2109zm-54.344 1.0117c-0.4966-0.0709-0.92969 0.22506-0.92969 0.9375 0 0.70268 0.57465 1.2773 1.2774 1.2773 0.70268 1e-6 1.1327-0.42999 0.95703-0.95703-0.24938-0.74814-0.80805-1.1869-1.3047-1.2578zm-68.434 0.14453c-0.39724-0.13727-0.76457-0.14649-1.0078 0.003906-1.2056 0.74507-1.1189 3.457 0.125 3.918 0.55478 0.20564 1.5415-0.12574 2.1914-0.73828 1.0361-0.97642 1.02-1.2771-0.125-2.4219-0.3591-0.35906-0.78633-0.62446-1.1836-0.76172zm138.84 1.5469c-0.20682 0.13345-0.32422 0.39698-0.32422 0.77734-2e-5 0.67844 2.2419 2.6991 4.9805 4.4883 2.3345 1.5254 3.9127 2.3972 4.9082 2.6582 0.99546 0.26101 1.4082-0.088774 1.4082-1.002 0-0.74292-7.626-5.9687-10.09-6.9141-0.3742-0.1436-0.67429-0.1407-0.88281-0.007813zm-53.742 0.52344c-1.6787 1e-6 -1.7622 0.33342-0.61718 2.4727 0.46759 0.87369 1.4675 1.4085 2.3516 1.5215s1.6523-0.19583 1.6523-1.0098c0-1.4969-1.6874-2.9844-3.3867-2.9844zm39.799 0c-1.1663 0-2.7002 2.2858-2.1406 3.1914 0.25216 0.408 0.55685 0.66666 0.87109 0.79297 0.94273 0.37891 1.9766-0.43244 1.9766-1.9688 0-1.1095-0.31755-2.0156-0.70703-2.0156zm-24.004 1.0742c1.7433 0 1.6515 0.39788-0.50782 2.1992-0.99858 0.83304-2.4348 1.5292-3.1914 1.543-1.1452 0.0229-1.0599-0.29166 0.50781-1.8594 1.0355-1.0355 2.4718-1.8828 3.1914-1.8828zm-36.617 0.53906c-1.6076 0-2.0972 0.85979-1.0742 1.8828 0.4914 0.49144 1.1638 0.6314 1.7129 0.49414s0.97461-0.55178 0.97461-1.166c0-0.67244-0.71666-1.2109-1.6133-1.2109zm-3.8242 0.17188c-0.15502-0.0126-0.33519 0.007994-0.53125 0.058593-1.1764 0.30339-2.8723 1.5968-2.4805 2.2305 0.26052 0.42153 0.77346 0.76562 1.1367 0.76562 0.94838 0 2.7844-2.3716 2.25-2.9062-0.09-0.09-0.21996-0.13584-0.375-0.14844zm-63.5 0.63672c-1.4839-1e-6 -2.5584 1.9061-3.3008 5.8633-0.39882 2.126-0.034166 3.1449 0.70898 3.0859 0.74315-0.05895 1.8647-1.1957 2.9785-3.3789 1.7754-3.48 1.6321-5.5703-0.38672-5.5703zm67.398 2.7148c-1.6339-0.17316-3.3586 0.085591-4.5156 0.84375-1.1076 0.72572-2.0117 1.8562-2.0117 2.5117 0 1.335 2.8547 1.6357 3.6289 0.38281 0.82792-1.3396 2.6104-0.91472 5 1.1875 1.2453 1.0955 2.6691 2.0018 3.1641 2.0156 1.4201 0.040299 5.1524-3.2001 5.1524-4.4727 0-1.3226-1.2801-1.5399-2.0195-0.34375-0.7402 1.1977-3.2939 0.97641-4.4219-0.38281-0.80144-0.96564-2.3426-1.569-3.9766-1.7422zm72.434 0.51172c-2.084 0-1.8721 1.8739 0.32031 2.8359 1.4757 0.64746 1.8192 1.4523 1.8398 4.3086 0.028 3.7042 1.3576 5.3744 5.0156 6.293 1.0575 0.26554 1.8164 1.0751 1.8164 1.9375 0 0.81436 0.81047 2.0436 1.7969 2.7344 1.016 0.71159 2.1808 1.1291 3.0918 1.2148 0.91105 0.08571 1.5684-0.16041 1.5684-0.77734 0-0.45198-0.9455-2.633-2.1016-4.8438-1.8927-3.6198-2.3768-4.0195-4.8438-4.0195-2.5998 0-2.7383-0.14633-2.7383-2.8633 0-3.1666-3.0884-6.8203-5.7656-6.8203zm-54.301 0.38672c-0.51938 0.12558-0.78543 1.0673-0.64453 2.7852 0.1862 2.2706 0.01262 2.5299-1.4102 2.0781-1.4955-0.4747-1.625-0.15885-1.625 3.9766 0 3.9546 0.19267 4.4922 1.6133 4.4922 0.88762 0 1.6133-0.40389 1.6133-0.89453 0-0.49072 0.90608-1.9706 2.0156-3.2891 2.3936-2.8448 2.4728-3.7626 0.60547-7.043-0.87664-1.54-1.6486-2.2311-2.168-2.1055zm72.223 0.55078c-0.1791-0.0368-0.39486-0.029269-0.64844 0.019531-1.9187 0.36949-2.2272 2.7474-0.66406 5.1328 0.7127 1.0877 1.6318 1.9805 2.0391 1.9805 1.2705 0 1.8673-1.7108 0.92578-2.6523-0.49388-0.49392-0.89844-1.7595-0.89844-2.8125 0-1.0386-0.21662-1.5572-0.7539-1.668zm-28.297 5.9219c-0.66572 0-1.1336 0.36087-1.043 0.80469 0.27742 1.3594 2.0002 6.3078 3.1836 9.1406 0.67453 1.6146 1.4826 2.3678 2.0703 2.2988 0.58775-0.06903 0.9552-0.96036 0.7539-2.6309-0.42208-3.5012-3.5757-9.6133-4.9609-9.6133h-0.00391zm34.701 3.2266c0.44382-0.27428 0.8086 0.045308 0.8086 0.71094 0 0.6657-0.36478 1.4366-0.8086 1.7109-0.44382 0.27428-0.80468-0.045298-0.80468-0.71094 0-0.66571 0.36086-1.4366 0.80468-1.7109zm-28.047 5.5391c-0.15961 0.18116-0.19531 0.75561-0.19531 1.8203 0 1.3526 0.2432 2.7005 0.53906 2.9961 0.29588 0.29588 1.0463 0.53906 1.668 0.53906 1.3424 0 0.67607-2.9645-1.082-4.8125-0.48654-0.51156-0.77029-0.72409-0.92969-0.54297zm29.898 4.8516c0.14636-0.0645 0.34839-0.03559 0.57031 0.10156 0.44382 0.27428 0.80859 0.65967 0.80859 0.85547 0 0.19581-0.36477 0.35545-0.80859 0.35547-0.44384 0-0.80469-0.38543-0.80469-0.85547 0-0.235 0.08798-0.39253 0.23438-0.45703zm-49.023 3.2656c0.0996-0.0758 0.16934-0.06956 0.21484 0.02343 0.0911 0.18596 0.08359 0.71999-0.00781 1.6524-0.18916 1.927 0.04771 2.3724 1.1719 2.1836 1.7127-0.28758 1.8039 0.36794 0.26172 1.9102-0.63402 0.634-1.5439 1.1523-2.0195 1.1523-1.1009 0-1.1053-4.856-0.00781-6.457 0.15995-0.2331 0.28712-0.38904 0.38672-0.46484zm-16.816 3.9375c0.14397 0.0278 0.23347 0.13294 0.23047 0.3125-7e-3 0.35906-0.36661 1.1976-0.79687 1.8633-0.33698 0.52153-0.53197 0.77736-0.64454 0.75586-0.11253-0.02148-0.14243-0.32023-0.14843-0.90821-7e-3 -0.75046 0.34919-1.589 0.79297-1.8633 0.22194-0.13715 0.42244-0.18795 0.5664-0.16015zm62.34 8.8476c-0.4094 0.10774-0.91977 0.39993-1.4922 0.91797-0.78366 0.7092-1.8378 1.2891-2.3438 1.2891-0.50583 0-0.71251 0.54523-0.45703 1.2109 0.33503 0.87311 0.87688 1.2453 1.5957 1.123s1.6146-0.73893 2.6543-1.8457c1.598-1.7009 1.2712-3.0183 0.04297-2.6953zm14.172 0.59375c0.90344 0 1.0944 0.52678 0.72266 2.0078-0.3591 1.4308-0.13372 2.1536 0.78906 2.5078 0.71278 0.2735 1.2969 0.82241 1.2969 1.2188 0 0.40476-0.15708 0.64279-0.40429 0.74219-0.74165 0.2982-2.2937-0.6517-2.8418-2.0938-1.1198-2.9454-0.97688-4.3828 0.4375-4.3828zm-8.6172 3.375c-0.50694 9e-3 -1.1404 0.1717-1.8867 0.51172-2.5002 1.1392-3.4728 3.2754-1.9336 4.25 0.4636 0.29355 0.87584 0.49385 1.2559 0.59375 1.14 0.29983 1.9914-0.2994 3.0801-1.9609 1.3597-2.075 1.0049-3.4229-0.51563-3.3945zm-74.566 2.2734c0.63584 0 1.3862 0.72566 1.668 1.6133s0.85168 1.6133 1.2656 1.6133c0.4139 0 0.75391 0.3648 0.75391 0.8086 0 0.73523-0.57851 0.9434-1.3164 0.74023s-1.6352-0.81741-2.2734-1.7285c-1.5613-2.2292-1.5858-3.0469-0.09765-3.0469zm11.754 1.6133c0.4438 0 0.8086 0.36085 0.8086 0.80469 0 0.4438-0.3648 0.80859-0.8086 0.80859-0.44382 0-0.80468-0.36479-0.80468-0.80859 0-0.44384 0.36086-0.80469 0.80468-0.80469zm-3.1797 2.4219c0.4176 0 0.75781 0.72564 0.75781 1.6133 0 0.85093-0.29293 1.3937-0.69141 1.5527s-0.90254-0.06579-1.3242-0.74804c-0.58844-0.95206 0.17466-2.418 1.2578-2.418zm-106.52 0.04687c-1.5015-0.14386-2.4688 1.1433-2.4688 3.5586 0 2.4538 0.26402 2.8476 1.8984 2.8476 1.0439 0 3.1324 0.87621 4.6406 1.9453 1.6718 1.1853 2.74 1.7429 3.4336 1.6406 0.69357-0.10231 1.0125-0.86457 1.1836-2.3203 0.27954-2.3778-2.4372-6.1055-4.4492-6.1055-0.59436 0-1.7515-0.42364-2.5742-0.9375-0.60398-0.37722-1.1636-0.58101-1.6641-0.62891zm41.219 3.2734c0.45124 0.11666 0.44271 0.43579 0.21875 1.0195-0.44636 1.163-0.22187 1.2233 1.7422 0.47656 1.8236-0.69318 2.3953-0.61613 2.9609 0.39453 0.48854 0.87292 1.3309 1.0945 2.7812 0.73047 1.5339-0.38492 1.9839-0.24071 1.7188 0.55469-0.39423 1.1827-2.3782 1.8373-4.7109 1.7266-0.77759-0.03691-1.5928-0.15944-2.4024-0.375-1.5533-0.41346-4.5482-0.55082-6.6562-0.30468-3.381 0.39476-3.832 0.26987-3.832-1.0781 0-1.9546 0.66148-2.3317 5.1953-2.9531 1.6216-0.22231 2.5332-0.30809 2.9844-0.19141zm87.598 0.35156c-0.41772-0.016-0.89829 0.11018-1.4297 0.39453-1.7395 0.93096-2.5292 2.9944-1.9023 4.9688 0.26469 0.83403 0.74778 1.2472 1.625 1.3262 0.2924 0.0263 0.62936 0.0154 1.0156-0.0293 1.7943-0.20748 2.1918-0.70177 2.4102-2.9883 0.21822-2.2858-0.46567-3.6243-1.7188-3.6719zm-14.633 6.8164c0.69182 0 1.0321 0.36477 0.75782 0.80859-0.27428 0.4438-0.84026 0.80469-1.2578 0.80469-0.41764 0-0.75781-0.36089-0.75781-0.80469 0-0.44382 0.56589-0.80859 1.2578-0.80859zm23.971 5.1641c1.1046-0.0446 2.2961-8e-3 3.5039 0.12109 7.1432 0.76498 8.37 2.2769 9.4414 11.613 0.62694 5.463 0.59088 8.2342-0.15234 11.125-0.5445 2.1176-1.1981 4.7578-1.4492 5.8672s-2.0058 3.6512-3.9024 5.6484c-1.8965 1.9972-3.9968 4.7233-4.668 6.0547-1.7378 3.4468-4.1741 5.4959-10.969 9.2305-4.8474 2.6643-6.6582 3.4557-8.5488 3.0332-0.63023-0.14083-1.27-0.41658-2.0332-0.80273-1.541-0.77964-2.0156-1.6512-2.0156-3.6953 0-1.4716 0.27261-2.8452 0.60547-3.0508 0.33288-0.20564 0.60547 0.01081 0.60547 0.48047 0 0.47002 0.54521 0.85547 1.2109 0.85547s1.2109-0.54524 1.2109-1.2109c0-0.66572-0.3765-1.2109-0.83594-1.2109-0.56204 1e-5 -0.57526-0.4865-0.03906-1.4883 0.57364-1.0718 0.45467-1.9791-0.42187-3.2305-1.0906-1.5572-1.0861-1.7344 0.03906-1.7344 0.69088 0 1.2578-0.54522 1.2578-1.2109 0-0.75312-0.76419-1.2109-2.0195-1.2109-1.1095 1e-5 -2.0156-0.15606-2.0156-0.34374-1e-5 -0.1878 1.4146-3.0021 3.1445-6.2539 1.73-3.2518 4.1399-9.3469 5.3555-13.547 1.5748-5.4414 2.8734-8.303 4.5195-9.9492 1.2707-1.2706 2.3125-2.5874 2.3125-2.9258 0-1.1793 2.5501-2.0303 5.8633-2.1641zm-77.332 0.48438c0.25112 0 0.45703 0.705 0.45703 1.5664 0 1.7471-1.316 2.9582-1.7617 1.6211-0.40092-1.2028-3.082-0.03411-3.082 1.3438 0 0.62258-0.72564 1.7556-1.6133 2.5156-0.88762 0.76-1.6133 1.8676-1.6133 2.4609-1e-5 0.59324-0.4011 0.8284-0.89454 0.52344-0.49344-0.30494-1.1902-0.08101-1.5469 0.49609-0.35662 0.57708-1.8576 1.4398-3.332 1.918-4.893 1.5873-3.5538 5.8962 1.7383 5.5938 1.5533-0.0888 3.0436-0.18856 3.3086-0.22266 0.26498-0.0341 1.3508-0.82001 2.4141-1.7422 1.3041-1.1308 2.692-1.563 4.2656-1.332 1.7648 0.25902 2.4279-0.0213 2.7227-1.1484 0.41722-1.5955 1.8164-2.0712 1.8164-0.61719 0 0.48087 0.44922 0.72665 1 0.54297 1.2474-0.41578 3.2994 1.5339 2.6758 2.543-0.25296 0.40932-0.00297 0.90647 0.55469 1.1055 1.3862 0.49461-2.1251 4.2414-6.0391 6.4414-1.6679 0.9374-3.0352 2.1816-3.0352 2.7656 0 0.58402-0.33477 1.0625-0.74609 1.0625-0.4113 0-1.2506 0.99829-1.8672 2.2188-1.9472 3.8544-3.3825 6.0093-5.3047 7.9883-1.2484 1.2852-1.6982 2.4519-1.3594 3.5195 0.39534 1.2457 0.21725 1.4826-0.81641 1.0859-0.85976-0.32994-1.2721-0.11699-1.1758 0.60937 0.21296 1.6091-0.90578 4.75-1.6914 4.75-0.36736 0-2.0495 1.269-3.7383 2.8203-1.689 1.5512-3.5233 2.8222-4.0781 2.8242-0.55474 2e-3 -1.0078 0.54909-1.0078 1.2148 0 0.66571-0.49912 1.2109-1.1094 1.2109-0.61024 0-2.1541 0.19185-3.4297 0.42579-0.6885 0.1262-1.2554 0.1909-1.75 0.1621-1.4839-0.08634-2.3135-1.0042-3.793-3.5488-1.3494-2.321-1.3757-2.7344-0.26171-4.4414 1.4464-2.2162 2.584-8.9048 1.8867-11.102-0.32508-1.0244-1.5484-1.72-3.668-2.0781l-3.1836-0.53515 2.0039-2.6328c1.1032-1.4462 2.0078-3.6999 2.0078-5.0117 0-1.3118 0.33943-2.7306 0.75781-3.1524 0.41836-0.4216 1.1148-2.3466 1.5469-4.2773 1.0648-4.7578-0.76322-11.179-3.4785-12.211-2.0478-0.77858-3.3072-2.259-2.5586-3.0078 0.25564-0.25562 0.9306-0.09821 1.4961 0.34765 0.56536 0.44586 2.0499 1.0519 3.3027 1.3516 2.006 0.47986 2.3885 0.25617 3.1973-1.8867 0.86438-2.29 1.1105-2.4048 4.1777-1.9375 3.8598 0.58788 6.9604 2.0015 5.4766 2.4961-1.4478 0.48262-1.2441 2.6211 0.25 2.6211 0.69181 0 1.0321 0.3648 0.75781 0.8086-0.3015 0.48782 0.81298 0.80469 2.8125 0.80469 3.3902 0 9.6953-2.6348 9.6953-4.0508 0-0.43477 0.52821-0.78906 1.1719-0.78906 0.64368 0 1.4615-0.49281 1.8164-1.0938 0.6059-1.0259 3.6174-2.9414 4.625-2.9414zm120.69 0.80859c0.4438 0 0.80859 0.75045 0.80859 1.668 0 1.3611 0.33243 1.5622 1.8086 1.0938 1.5826-0.50238 1.6746-0.41564 0.7461 0.70312-0.58372 0.70338-1.5498 1.093-2.1484 0.86328-1.6669-0.63964-4.2871 1.0989-5.6641 3.7617-0.62964 1.2176-1.5353 2.0415-2.2832 2.3125-0.74789 0.27104-1.3379-0.01075-1.3379-1 2e-5 -1.4081 3.1288-4.9117 5.4492-6.1055 0.9986-0.51374 1.8125-1.4671 1.8125-2.1172 0-0.6501 0.36478-1.1797 0.8086-1.1797zm-40.604 3.1328c-0.49316-0.0293-1.014-0.01142-1.5469 0.04688-2.1316 0.2332-4.4935 1.1583-6.4277 2.7031-0.75572 0.60352-1.9567 2.8116-2.668 4.9062-1.2702 3.742-1.2612 3.8358 0.56641 5.3594 1.023 0.85282 2.7674 1.5508 3.877 1.5508 2.001 0 5.6484-2.4028 5.6484-3.7188 0-0.37688 0.6909-1.1148 1.5391-1.6445 1.2528-0.78236 1.6334-0.73261 2.0195 0.27344 1.078 2.809 0.43866 9.1432-1.2031 11.926-0.9227 1.5641-1.4549 3.2055-1.1836 3.6445 0.12845 0.20784 0.35155 0.33587 0.64063 0.38867 0.86722 0.15844 2.3321-0.35262 3.6309-1.3574 0.55336-0.42806 1.5626-2.6412 2.2422-4.918 1.5732-5.2696 0.87594-14.898-1.1367-15.668-0.71568-0.27394-1.8522-1.1712-2.5215-1.9961-0.745-0.91834-1.997-1.4079-3.4766-1.4961zm40.887 5.7266c0.38358 0.05289 0.49665 0.5016 0.11719 1.4297-0.3175 0.77664-0.9121 2.5775-1.3242 4.0039-0.65501 2.267-1.1468 3.1071-2.0508 3.0078-0.30135-0.03311-0.64804-0.17078-1.0625-0.39453-0.66572-0.35936-1.9365-0.91154-2.8242-1.2266-1.5013-0.53284-1.4743-0.60664 0.40234-1.0977 1.1095-0.29034 2.7452-1.6831 3.6328-3.0898 0.86586-1.3722 1.9279-2.2904 2.6445-2.5586 0.17914-0.0672 0.33704-0.09181 0.46484-0.07421zm-61.045 3.4844c0.14397 0.0278 0.23347 0.13686 0.23047 0.31641-7e-3 0.35906-0.36666 1.1976-0.79688 1.8633-0.33702 0.52152-0.53392 0.7764-0.64648 0.7539-0.11259-0.02245-0.14049-0.32221-0.14649-0.91015-7e-3 -0.7505 0.34917-1.5851 0.79297-1.8594 0.22192-0.13706 0.42245-0.19186 0.56641-0.16406zm8.7344 4.8242c-0.94012 0.27488-1.7712 1.1067-2.1094 2.3789-0.32118 1.2086-1.3226 3.1362-2.2266 4.2852-2.0312 2.5822-3.652 7.3058-3.0469 8.8828 0.25568 0.66622 1.4942 1.1758 2.8516 1.1758 1.3192 0 2.624 0.36089 2.8984 0.80469 0.27426 0.4438 1.1804 0.8086 2.0156 0.8086 0.83528 0 1.7451-0.3648 2.0195-0.8086 0.27426-0.4438 1.2012-0.80469 2.0625-0.80469 1.1776 0 1.5597-0.55045 1.5391-2.2187-0.0456-3.5694-2.1011-12.194-3.2305-13.555-0.78374-0.94422-1.8333-1.2241-2.7734-0.94922zm50.195 1.7109c0.1948 0.19486-0.25157 1.6382-0.99609 3.207-1.1181 2.3562-2.6003 4.2103-3.2715 4.3262-0.22373 0.03861-0.35743-0.11652-0.35743-0.50977 0-1.1835 4.155-7.4934 4.625-7.0234zm-161.53 10.168c1.0833 0 1.9688 0.36477 1.9688 0.80859 0 0.4438-1.1112 0.80859-2.4688 0.80859-1.4402 0-2.2596-0.33781-1.9688-0.80859 0.2743-0.44382 1.3855-0.80859 2.4688-0.80859zm-6.5781 0.2539c0.11508-0.0503 0.2063-0.04205 0.27734 0.02734 0.14204 0.13884 0.20312 0.52012 0.20312 1.1719 0 0.97418-0.10532 1.5376-0.31445 1.6875-0.20914 0.14988-0.5221-0.11378-0.93945-0.78906-0.29818-0.48248-0.1385-1.2795 0.35547-1.7734 0.16484-0.16486 0.30289-0.27392 0.41797-0.32422zm161.98 4.7578c0.36928-0.0198 0.74809 0.0379 1.0898 0.15235 0.6835 0.22886 1.2188 0.6908 1.2187 1.2656v0.00391c0 0.47512-0.14118 0.71867-0.55859 0.73437-0.4174 0.01565-1.1111-0.19666-2.2148-0.6289-1.1197-0.43852-1.2796-0.78581-0.56641-1.2266 0.30164-0.18642 0.66195-0.28099 1.0312-0.30079zm-169.97 6.1602c3.7666-0.23452 4.4383-0.06709 4.4375 1.1094-7.1e-4 0.90178 0.42031 1.2238 1.207 0.92188 0.66572-0.25546 1.2109-0.10014 1.2109 0.34375 0 0.4438-0.54522 1.018-1.2109 1.2734-1.7588 0.67492-1.4804 2.1289 0.40625 2.1289 0.88762 0 1.6133 0.36089 1.6133 0.80469s-0.3648 0.8086-0.80859 0.8086c-1.3433 0-0.9121 1.2603 1.207 3.5469 1.1058 1.1932 2.243 3.109 2.5312 4.2578 0.28828 1.1486 1.1986 2.2647 2.0234 2.4805 0.825 0.2157 1.5 0.63813 1.5 0.94141 0 1.0202-1.9231 2.4883-3.2617 2.4883-0.73008 0-1.9859 0.72953-2.7891 1.6172-0.80328 0.88763-1.9499 1.6133-2.5469 1.6133-1.3685 0-1.4294 2.3461-0.074218 2.8359 0.55476 0.20036 3.3691-0.19388 6.2539-0.875 6.5674-1.5506 6.7242-1.5485 12.102 0.05469 2.441 0.72774 6.5263 1.2943 9.0781 1.2617 2.6098-0.0334 4.6406 0.29779 4.6406 0.75391 0 0.44572-0.60592 0.80859-1.3477 0.80859s-2.0126 0.6014-2.8242 1.3359c-1.2787 1.1573-1.4766 1.1734-1.4766 0.10547 0-1.7477-9.5942-3.028-14.523-1.9375-1.1095 0.24548-4.1047 0.76091-6.6562 1.1445-5.1856 0.77964-6.0475 1.2655-4.8711 2.7617 0.4446 0.56552 1.049 2.2825 1.3398 3.8125 0.29078 1.5302 1.0422 3.5664 1.6719 4.5273 2.0552 3.1366 14.928 6.041 14.996 3.3828 0.016-0.59848 0.4777-0.41619 1.1367 0.45313 0.87008 1.1477 1.4335 1.2786 2.5977 0.60547 0.81734-0.47282 2.5196-1.2256 3.7852-1.6758 1.545-0.54956 2.1528-1.2142 1.8438-2.0195-0.2574-0.67074-0.01459-1.1992 0.55469-1.1992 1.9466 0 7.0011-6.1924 7.0195-8.6016 9e-3 -1.26 0.7298-3.199 1.5977-4.3086 0.8679-1.1095 1.5848-2.4964 1.5938-3.082 0.0114-0.6306 0.73187-0.96139 1.7695-0.8086 2.3112 0.3401 2.9394 2.2774 0.73828 2.2774-1.8043 0-2.3404 2.0675-0.67969 2.6211 0.72376 0.24124 0.61736 0.7147-0.3789 1.7109-0.91351 0.91348-1.2301 2.1166-0.94141 3.5664 0.52992 2.6604-0.89993 6.7488-2.2969 6.5664-2.4112-0.31454-2.7939 0.22219-2.7695 3.8945 0.0138 2.1082-0.55071 5.2832-1.2539 7.0586-1.2076 3.0478-1.5052 3.2561-5.4023 3.7461-2.2698 0.2854-4.613 0.92483-5.207 1.418-0.92632 0.7689-5.0459 1.3532-11.437 1.625-2.1694 0.0922-8.4336 4.1747-8.4336 5.4961 0 0.8269-0.26644 1.1088-0.80274 0.8418-0.5363-0.26696-1.3424-1.0827-2.4238-2.4473-2.5774-3.2524-2.6334-7.7453-0.16016-12.805l1.8281-3.7422-1.582-2.7148c-0.87006-1.4932-1.8335-4.1662-2.1406-5.9414-0.30708-1.7753-1.0171-4.317-1.5781-5.6484-3.1058-7.37-5.2461-17.907-5.2461-25.84v-5.082l4.4414-0.27344zm20.975 29.984c0.71819 1e-5 1.0829 0.36089 0.80859 0.80469-0.27428 0.44384-0.6391 0.8086-0.80859 0.8086-0.1695 0-0.53432-0.36476-0.80859-0.8086-0.2743-0.4438 0.090444-0.80469 0.80859-0.80469zm10.137 11.297c0.47 0 0.62974 0.36085 0.35546 0.80469-0.27426 0.4438-0.65966 0.80859-0.85546 0.80859-0.19583 0-0.35547-0.36479-0.35547-0.80859 0-0.44384 0.38545-0.80469 0.85547-0.80469zm101.98 3.1543c0.2601 0.42315 0.10289 0.99701-0.34765 1.2754-0.45104 0.27876-0.82032 1.498-0.82032 2.7109 0 3.9802-10.376 20.69-19.371 31.188-2.2814 2.6628-4.7158 5.9304-5.4102 7.2617-0.6944 1.3314-1.5293 2.6024-1.8516 2.8242-0.32228 0.22188-1.3651 1.8576-2.3203 3.6328-0.95506 1.7752-2.992 4.8622-4.5234 6.8594-4.6984 6.1278-7.6758 10.532-7.6758 11.352 0 0.42998-0.87991 0.56233-1.9531 0.29297-2.6182-0.65716-10.648 1.0696-12.203 2.625-0.68576 0.68574-2.5397 1.4235-4.1211 1.6367-4.1938 0.56516-8.3516 2.4942-8.3516 3.875 0 0.65976 0.49798 1.1992 1.1094 1.1992 0.61136 0 1.5647 0.54522 2.1172 1.2109 1.68 2.0244 3.483 1.5209 2.8984-0.8086-0.29196-1.1633-0.1577-2.0156 0.31641-2.0156 0.45226 2e-5 0.82031 0.90608 0.82031 2.0156 0 1.1096 0.09221 2.2881 0.20313 2.6211 0.11094 0.33288-0.83294 0.6423-2.0977 0.6875-1.2647 0.0456-2.5356 0.46504-2.8242 0.92968-0.28862 0.46464-1.4334 0.9692-2.543 1.125-1.6509 0.23168-2.0651 0.79812-2.2773 3.1094-0.32562 3.547-1.2974 4.6123-2.9531 3.2383-0.69528-0.57708-1.3911-0.90467-1.5469-0.73047-0.99142 1.1087-8.5082 12.85-9.5 14.84-0.66362 1.3314-1.7929 3.5123-2.5117 4.8437-0.71876 1.3315-2.2327 4.1334-3.3633 6.2266-1.1305 2.0934-2.0547 4.4233-2.0547 5.1797 0 0.75647-0.51494 1.9516-1.1406 2.6523-1.1229 1.2572-1.5656 2.7568-1.3789 4.6758 0.28356 2.9162 6.0905-3.8463 7.9961-9.3125 1.1134-3.194 7.9279-11.925 13.953-17.883 4.4844-4.4338 10.426-12.097 10.426-13.445 0-0.39008 0.80923-1.0658 1.7969-1.5039 0.98756-0.43808 2.5977-2.0716 3.5781-3.625 3.2422-5.1366 9.9878-10.723 11.328-9.3828 0.34972 0.34972-13.681 17.428-19.312 23.508-0.8223 0.88762-3.3841 4.3889-5.6953 7.7812-2.3112 3.392-5.8218 8.2953-7.8008 10.895-3.7482 4.9224-35.256 36.655-38.516 38.791-1.1899 0.77966-1.8633 2.0149-1.8633 3.4102-2e-6 1.2431-0.80587 2.9483-1.8672 3.9453-1.4808 1.3911-2.537 1.9056-2.8906 1.7031-0.35361-0.20249-0.004621-1.122 1.3281-2.5977 1.2573-1.3919 1.4102-3.5661 1.4102-19.832 0-17.564 0.06688-18.336 1.7188-19.988 5.7112-5.711 12.402-18.079 12.402-22.922 0-1.824 2.167-9.0774 4.0898-13.691 0.83238-1.9969 2.1139-5.8101 2.8477-8.4727 0.73366-2.6628 1.8166-5.7902 2.4062-6.9492 1.2965-2.5482 0.38911-13.747-1.1562-14.262-2.0746-0.69156-4.3265-6.9156-4.7539-13.152-0.35728-5.2128-0.67707-6.3208-1.9297-6.6484-0.82666-0.21618-1.5039-0.75024-1.5039-1.1875 0-0.88865 3.9829-2.103 4.6641-1.4219 0.23972 0.23958 0.35872 2.7891 0.26562 5.6641-0.09308 2.875 0.21079 5.9359 0.67579 6.8047 1.0632 1.9866 9.148 5.0966 13.156 5.0586 2.308-0.0228 3.2422 0.38762 3.9492 1.7344 0.5096 0.97072 1.9641 2.9562 3.2305 4.4141 1.2663 1.4578 2.3047 3.0649 2.3047 3.5703 0 0.50536 1.5252 3.945 3.3906 7.6406 2.357 4.6692 3.8324 6.7188 4.8398 6.7188 1.7905 0 1.8361-1.5728 0.16016-5.4727-0.7091-1.65-1.9591-4.9109-2.7812-7.2461-0.82208-2.335-3.0255-6.0612-4.8945-8.2774-1.869-2.2164-3.249-4.1377-3.0664-4.2695 0.18254-0.1318 4.1098-1.0674 8.7266-2.082 4.617-1.0146 11.152-3.0587 14.523-4.5391 3.3716-1.4803 8.3099-3.4965 10.973-4.4805 2.6628-0.98394 5.912-2.5564 7.2188-3.4922 1.3067-0.9358 4.656-2.97 7.4414-4.5234 6.3054-3.5164 19.681-14.641 26.945-22.41 3.0174-3.2278 5.6993-5.5248 5.9609-5.1016zm-100.02 3.7051c-0.81362 0-1.6316 0.45305-1.8164 1.0078-0.21296 0.63882 0.45361 1.0078 1.8164 1.0078 1.3628 0 2.0294-0.36899 1.8164-1.0078-0.18482-0.55476-1.0027-1.0078-1.8164-1.0078zm101.02 3.6289c0.4773 0 2.6719 2.1945 2.6719 2.6719 0 0.39828-1.7239 0.90427-2.7676 0.95117-0.34788 0.01563-0.62111-0.01951-0.72851-0.12695-0.42976-0.42976 0.29314-3.4961 0.82422-3.4961zm10.254 1.6133c0.1742 0 0.52581 0.54522 0.78125 1.2109 0.25548 0.66572 0.10949 1.2109-0.32031 1.2109-0.4299 2e-5 -0.78125-0.54522-0.78125-1.2109s0.14573-1.2109 0.32031-1.2109zm-1.4766 6.457c0.47174-1e-3 1.9001 1.0906 3.1758 2.4219 1.4839 1.5489 2.0865 2.3223 1.8652 2.3223-0.22125 0-1.2663-0.77336-3.0762-2.3223-1.5533-1.3294-2.4364-2.4209-1.9648-2.4219zm7.3633 5.6484c0.44382 0 1.4661 0.72564 2.2695 1.6133 0.80316 0.88764 1.0962 1.6133 0.65235 1.6133s-1.4661-0.72564-2.2695-1.6133c-0.80314-0.88764-1.0962-1.6133-0.65235-1.6133zm6.6562 6.4531c0.47002 0 0.85547 0.36477 0.85547 0.80859s-0.15947 0.80859-0.35547 0.80859c-0.1958 0-0.58117-0.36477-0.85547-0.80859-0.27428-0.44382-0.11453-0.80859 0.35547-0.80859zm-153.18 1.6172c0.44384 0 0.58289 0.36087 0.30859 0.80469-0.27426 0.4438-0.86087 0.80859-1.3047 0.80859-0.44386 0-0.58289-0.36479-0.30859-0.80859 0.27428-0.44382 0.86089-0.80469 1.3047-0.80469zm157.23 1.6524c0.98498 0.111 2.3018 0.63386 3.375 1.5039 1.0478 0.84944 1.7219 1.7206 1.5 1.9336-0.17166 0.16479-0.62675 0.16016-1.2188 0.04297-1.776-0.35158-4.7815-1.7114-5.043-2.5117-0.25416-0.77752 0.40177-1.0798 1.3867-0.96875zm-168.8 5.2031c1.011-0.0744 1.7206 0.22491 1.5742 0.66407-0.1464 0.43917-1.09 1.104-2.0977 1.4766-0.73859 0.27334-1.1848 0.37654-1.4199 0.27734-0.2351-0.09919-0.25906-0.40092-0.1543-0.9414 0.14296-0.73763 1.0865-1.4022 2.0977-1.4766zm176.46 0.58594c0.56872-0.5687 3.6772 1.8346 3.4102 2.6367-0.27274 0.81756-0.96399 1.1374-1.6445 1.0273s-1.3504-0.6502-1.5859-1.5508c-0.26158-1.0007-0.34068-1.9521-0.17968-2.1133zm-184.26 3.5664c0.32468-0.0494 0.53796-0.00602 0.63672 0.11718 0.19762 0.24584-0.073972 0.81612-0.88281 1.625-0.5555 0.55552-1.3234 0.8784-1.9512 0.9375-0.62772 0.05909-1.1152-0.14562-1.1152-0.64843 0-0.37258 0.9099-1.0921 2.0195-1.5977 0.53392-0.24318 0.96829-0.38419 1.293-0.43359zm195.65 6.7422c0.19588 0 0.35547 0.36478 0.35547 0.8086 0 0.44358-0.38547 0.80859-0.85547 0.80859-0.47006 0-0.62975-0.36501-0.35547-0.80859 0.2743-0.44382 0.65967-0.8086 0.85547-0.8086zm-205.74 0.80078c0.2189 6e-3 0.31278 0.21673 0.30078 0.61329-0.02562 0.84977-10.452 12.05-10.461 11.238-0.0046-0.36482 2.0585-3.1791 4.5879-6.2539 3.162-3.8438 4.9155-5.6198 5.5723-5.5977zm209.42 2.8125c1.0284-0.27253 9.2772 7.8828 9.9492 10 0.30004 0.94612 0.39624 1.7188 0.21484 1.7188-0.91556 0-10.27-10.517-10.27-11.547 0-0.09718 0.03687-0.15388 0.10547-0.17188zm16.051 11c0.29624 0.075 0.72592 0.32883 1.2852 0.79297 2.091 1.7354 4.8401 6.523 5.4062 9.4102 0.34676 1.7688 0.37675 2.594 0.0625 2.4629-0.31426-0.13108-0.97275-1.2184-2.0039-3.2715-0.94732-1.886-2.6228-4.6339-3.7266-6.1055-1.0662-1.4217-1.5608-2.5076-1.5078-3.0078 0.0266-0.25025 0.18815-0.35625 0.48437-0.28126zm-153.79 9.6328c-1.4243 0.0498-2.7625 0.44256-3.7109 1.3008-0.81162 0.73452-1.4766 2.1212-1.4766 3.082 0 0.96078-0.87591 2.5075-1.9453 3.4375-1.5244 1.3255-1.8988 2.359-1.7305 4.7852 0.11802 1.7021 0.46073 3.6531 0.75781 4.3359 0.76134 1.7501 0.25954 4.2211-1.3516 6.6797-1.6409 2.5044-1.7353 3.5252-0.37109 3.9844 0.27738 0.09335 0.69795 0.13595 1.1504 0.12695 0.45243-0.00853 0.93683-0.06771 1.3457-0.17383 1.1575-0.30042 1.4161-0.98194 1.1719-3.0742-0.19878-1.702 0.0683-2.8358 0.73046-3.0898 0.5751-0.22072 1.0469-1.1205 1.0469-2 0-0.87948 0.63239-1.9535 1.4062-2.3867 1.3056-0.73052 1.2776-0.92654-0.40234-2.7148-2.4726-2.632-2.2716-3.8398 0.63671-3.8398 2.8194 0 3.9448-1.8524 2.5156-4.1406-0.80528-1.2894-0.69779-1.5078 0.73437-1.5078 0.92056 1e-5 2.4179 0.39958 3.3281 0.88672 1.2705 0.67998 1.921 0.61806 2.8008-0.26172 2.6518-2.6518-2.3641-5.5791-6.6367-5.4297zm-94.359 2.0859c0.12622 0.03819 0.21658 0.13014 0.26562 0.27734 0.17018 0.51096 0.18058 1.0407 0.023437 1.1797-0.15714 0.13901-1.1912 0.50028-2.3008 0.80078l-2.0195 0.54687 1.9922-1.7305c0.6321-0.548 1.1615-0.89094 1.5547-1.0273 0.19661-0.0682 0.35813-0.08507 0.48438-0.04687zm256.32 3.1211c0.1178-0.22166 0.62572 0.57969 1.5156 2.4219 0.85752 1.7753 1.5699 4.0444 1.5859 5.043 0.0206 1.3212-0.44138 1.8164-1.6875 1.8164-1.4464 0-1.55-0.19032-0.68359-1.2344 0.80173-0.96626 0.82239-1.9132 0.09765-4.332-0.67372-2.249-0.94592-3.4933-0.82812-3.7148zm7.1641 12.508c0.44382 0 0.80469 0.90985 0.80469 2.0195s-0.36087 2.0156-0.80469 2.0156-0.80859-0.90607-0.80859-2.0156 0.36477-2.0195 0.80859-2.0195zm-182.25 11.527c-0.29394-0.02959-0.59459 0.0284-0.84375 0.14844-0.49825 0.24004-0.79869 0.73026-0.47265 1.2578 0.12168 0.19689 0.36949 0.32318 0.67382 0.36718 0.30434 0.04401 0.66519 0.00572 1.0059-0.125 0.8091-0.3105 0.96576-0.75297 0.44922-1.2695-0.23102-0.2311-0.51854-0.34931-0.8125-0.37891zm-25.133 53.836c0.44382 0 0.80859 0.70495 0.80859 1.5664 0 0.8614-0.36477 1.7922-0.80859 2.0664-0.11441 0.07079-0.22305 0.08116-0.32031 0.03906-0.29178-0.12628-0.48828-0.72709-0.48828-1.6055 0-1.1357 0.3648-2.0664 0.80859-2.0664z"/>
</svg>
