<?xml version="1.0" encoding="utf-8"?>
<svg xmlns="http://www.w3.org/2000/svg" height="200" version="1.1" width="150" xml:space="preserve" viewBox="0 0 150 200">
	<path d="m0 0v164.03l0.3418-0.3125c0.0068279 0.00659 0.010377 0.0307 0.017578 0.03515 0.24671 0.15246 0.54802 0.01686 0.66992-0.30078 0.12189-0.31767 1.1317-1.1671 2.2422-1.8867 1.1105-0.71951 2.2323-1.6511 2.4941-2.0703 0.27824-0.44554 0.75169-0.70222 1.1562-0.74219s0.74023 0.13676 0.74023 0.55469c0 0.94041-2.5362 3.2354-3.4512 3.123-0.61874-0.0759-1.049 0.34257-1.709 1.6641-0.48523 0.9716-1.2522 2.1019-1.7051 2.5117-0.2199 0.19902-0.37289 0.45359-0.49023 0.92383h-0.30664v32.471h150v-34.01h-0.4707c-0.0654-1.2163-0.14539-2.069-0.2461-2.1699-0.66166-0.66168-0.49139-2.9516 0.24024-3.2324 0.21414-0.08217 0.34458-0.20759 0.41406-0.38477h0.0625v-160.2h-150zm44.631 13.504c0.095601 0.072672 0.15039 0.25821 0.15039 0.56836 0 0.79037 2.8868 1.5365 5.2148 1.3477 1.4212-0.11525 1.9849 0.021084 2.4512 0.58984 0.54164 0.6606 0.82882 0.68959 2.7383 0.2793 1.3715-0.29467 2.3086-0.32096 2.623-0.072265 0.26896 0.21275 2.577 0.35403 5.1289 0.31445 3.164-0.04906 4.8818 0.09111 5.4043 0.4375 0.62299 0.41308 0.97527 0.39991 1.8809-0.068359 0.61259-0.31678 1.19-0.80454 1.2832-1.084 0.09424-0.28256 0.8178-0.51137 1.6309-0.51367 1.1218-0.0034 1.5575 0.20453 1.8711 0.89258 0.72822 1.5978 3.6675 1.5683 3.6641-0.037109-6.52e-4 -0.31009 1.0098-0.41481 3.1758-0.32617 2.9195 0.11944 3.2135 0.20965 3.627 1.1172 0.53212 1.1679 2.3945 2.0235 3.0273 1.3906 0.4781-0.4781 2.3079-0.57335 2.2109-0.11524-0.15535 0.73387 0.6219 1.7148 1.3594 1.7148 0.44351 0 1.3466-0.45498 2.0059-1.0098 1.6053-1.3508 2.0284-1.2768 1.7363 0.30273-0.32419 1.7528 0.43309 2.6841 2.4277 2.9883 1.7575 0.26799 3.4277 1.5097 3.4277 2.5488 0 0.36074 0.21809 0.87433 0.48438 1.1406 0.56691 0.56691 4.1022 0.64975 5.0938 0.11914 0.37572-0.20107 1.4975-0.42254 2.4941-0.49219 1.6786-0.11719 1.8024-0.059318 1.6836 0.78125-0.20968 1.4839 0.70454 3.707 1.5234 3.707 1.0121 0 1.5084 0.72121 2.0938 3.041 0.5958 2.3615 1.2585 3.2436 3.1699 4.2246 0.77668 0.3986 1.8454 1.1921 2.377 1.7617 0.53155 0.56953 1.1263 0.93628 1.3203 0.81641 0.48209-0.29794 4.1702 2.4584 5.1719 3.8652 0.97513 1.3694 1.1057 3.6406 0.20899 3.6406-0.43971 0-0.60547-0.45234-0.60547-1.6562 0-1.294-0.13145-1.6078-0.59571-1.4297-0.32931 0.12638-0.76695-0.079077-0.98242-0.46094-0.70792-1.2542-1.2536-0.064784-0.79492 1.7324 0.87543 3.4308 0.89016 3.5569 0.40625 3.2578-0.25791-0.15926-0.37106-0.44326-0.25391-0.63281 0.11714-0.18953-0.16763-0.99087-0.63281-1.7793-0.56713-0.9612-0.76903-1.8023-0.61133-2.5527 0.34457-1.6396-0.22298-2.3518-1.3242-1.6641-0.94501 0.59025-1.0736 0.9705-0.45703 1.3516 0.78323 0.48406 0.4377 1.3466-0.44726 1.1152-0.77174-0.20182-0.82676-0.10479-0.57422 1.0449 0.26702 1.2157 0.22532 1.2695-1.0039 1.2695h-1.2832l0.25391 2.7246c0.14013 1.4979 0.10005 3.2679-0.08985 3.9336l-0.3457 1.2109-0.28906-1.1465c-0.1681-0.66655-0.4939-1.0634-0.77735-0.94726-1.9155 0.78479-1.8975 0.7897-2.1465-0.45508-0.36034-1.8017-1.3652-1.2139-1.3652 0.79883 0 1.8366-0.62878 1.7471-1.123-0.16016-0.18014-0.69518-0.54531-1.3367-0.8125-1.4258-0.74198-0.24732-0.59673 2.0674 0.21875 3.4883 0.68003 1.1849 0.67591 1.2484-0.10157 1.8359-1.1575 0.87466-1.3037 0.80927-2.2168-0.98047-0.45284-0.88762-0.99107-1.6133-1.1953-1.6133-0.76021 0-0.85764 0.85424-0.23828 2.0957 0.77129 1.5461 0.14662 2.6564-0.78515 1.3945-0.61249-0.82948-1.4121-0.57636-1.4121 0.44727 0 0.48376-0.12117 0.54092-0.44727 0.21484-0.32606-0.3261-0.31559-1.2135 0.03516-3.293 0.47617-2.823 0.36509-3.6836-0.47461-3.6836-0.56758 0-1.4287-1.0838-2.166-2.7246-0.64308-1.4312-1.1646-1.6606-1.541-0.67969-0.34604 0.90176 0.82642 2.9561 1.9902 3.4863 1.1989 0.54624 1.2208 0.74887 0.18164 1.6387-0.44382 0.38002-0.80664 0.87554-0.80664 1.0996 0 0.52296 0.90704 0.52391 1.5332 0.001953 0.35221-0.29338 0.37349-0.27011 0.08007 0.082031-0.2219 0.26629-0.40234 0.90177-0.40234 1.4121 0 0.7163-0.22589 0.92774-0.99023 0.92774-0.80082 0-1.0384 0.25452-1.2402 1.3301-0.43697 2.3296 1.3935 5.6893 2.6699 4.9004 0.46194-0.28547 0.4836-1.3887 0.02735-1.3887-0.60327 0-1.3888-3.275-0.90235-3.7617 0.3104-0.3104 0.43555-0.23447 0.43555 0.26562 0 1.2895 1.2468 2.6583 2.6621 2.9238 0.95998 0.1801 1.373 0.47656 1.373 0.98633 0 0.40097 0.11913 1.0623 0.26562 1.4688 0.21721 0.60273 0.07145 0.56321-0.78711-0.21875-1.1594-1.0561-2.4489-0.91199-2.2285 0.25 0.0805 0.42489 0.57082 0.75792 1.2285 0.83398 1.0496 0.12134 1.0854 0.20068 0.85156 1.9062-0.33386 2.4359 0.64387 4.0052 2.291 3.6758 0.66553-0.1331 1.6655 0.031751 2.3926 0.39453 0.86063 0.42931 1.7464 0.53828 2.8516 0.35156 1.2636-0.21348 1.658-0.13538 1.8516 0.36914 0.28041 0.73074 1.5888 0.86143 1.998 0.19922 0.15022-0.24307 0.03467-0.88901-0.25781-1.4355-0.38352-0.71654-0.76732-0.93521-1.373-0.7832-0.95203 0.23896-1.9506-0.97136-1.5859-1.9219 0.4485-1.1688-0.62481-1.0554-1.2383 0.13086-0.87037 1.6831-1.4199 1.5319-1.4199-0.39062 0-1.0608-0.18022-1.6133-0.52734-1.6133-0.99727 0-1.8475 1.0089-1.9707 2.3398-0.11516 1.2431-0.17634 1.2946-0.9082 0.75586-0.70161-0.51647-0.73545-0.7446-0.3125-2.1562 0.52928-1.7666 2.9121-4.413 2.9121-3.2344 0 0.97434 3.1417 0.97441 3.5156 0 0.1473-0.38383 0.04938-0.75306-0.22265-0.84375-0.97935-0.32643-1.6843-1.3938-1.6133-2.4414 0.0402-0.59224-0.05299-1.4597-0.20703-1.9277-0.18144-0.55147-0.06423-1.0309 0.33398-1.3613 0.71286-0.5917 0.73756-0.50891 0.78516 2.6152l0.03125 2.0176 1.5039 0.125c1.2941 0.10728 1.681-0.077182 2.7656-1.3125 1.5393-1.7531 2.5232-1.8076 4.002-0.22461 0.62188 0.66572 1.3303 1.2109 1.5742 1.2109 0.40613 0 0.48631-0.22539 0.60547-1.7148 0.0222-0.27735-0.27769-0.45191-0.66602-0.38672-0.98196 0.16487-0.9433-1.7096 0.0625-2.9883 0.42357-0.53846 0.88934-1.8458 1.0352-2.9062 0.28229-2.0524 0.80773-3.245 1.2383-2.8145 0.36605 0.36605-0.20093 2.7402-0.6543 2.7402-0.6197 0-0.41791 0.79094 0.43555 1.707 0.44381 0.47637 0.80664 1.0977 0.80664 1.3809 0 0.28321-0.36283 0.70974-0.80664 0.94727-1.1604 0.62102-1.0774 1.7527 0.10156 1.3867 0.4993-0.15497 1.053-0.5302 1.2305-0.83398 0.50154-0.85857 1.0119-0.65974 1.6934 0.6582 0.71764 1.3877 1.4121 1.5851 1.4121 0.40234 0-0.96188 0.51362-1.0413 1.2207-0.18945 0.40023 0.48217 0.40988 0.84614 0.03907 1.6602-0.30044 0.6595-0.33583 1.2094-0.09571 1.5 0.20861 0.25255 0.5062 1.1419 0.66211 1.9766 0.22837 1.2221 0.06644 1.9489-0.83398 3.7285l-1.1191 2.209 1.0723 0.99414c1.0684 0.99009 1.3979 1.8398 0.71289 1.8398-0.19816 0-0.45987-0.26176-0.58203-0.58008-0.18145-0.47279-0.44754-0.49359-1.4551-0.11328-0.67827 0.25601-1.2344 0.60377-1.2344 0.77148 0 0.16767-0.52659 0.19934-1.1719 0.070313-0.92295-0.18459-1.271-0.053414-1.6289 0.61523-0.25018 0.46746-0.69511 0.84961-0.99024 0.84961-1.0576 0-2.705 1.6548-2.4492 2.4609 0.16833 0.53035 0.04892 0.76758-0.38867 0.76758-1.0873 0-0.70041-1.537 0.80664-3.2051 1.2286-1.3599 1.3713-1.7139 0.98828-2.4297-0.65169-1.2179-0.18984-1.6289 1.832-1.6289 1.3236 0 1.793 0.15835 1.793 0.60547 0 0.33286 0.31669 0.60547 0.70508 0.60547 0.51001 0 0.89978-0.64476 1.4024-2.3203 0.96886-3.23 1.267-5.6104 0.74414-5.9336-0.23757-0.14682-0.43164-0.6884-0.43164-1.2031 0-1.3222-2.2887-2.3114-3.0234-1.3066-0.27208 0.3721-0.6805 0.67773-0.90625 0.67773-0.72798 0-1.4834 1.2602-1.4141 2.3594 0.0379 0.60026-0.33806 1.5658-0.85743 2.2012-0.83557 1.0221-1.029 1.0846-1.9863 0.64844-0.87635-0.3993-1.2365-0.36587-2.084 0.18945-1.3811 0.9049-1.3908 2.552-0.01758 3.0742 1.3421 0.51027 1.3126 1.8592-0.07422 3.3066-1.0795 1.1269-2.6777 1.4964-3.1523 0.72852-0.42651-0.69011-1.7424-0.44501-2.3633 0.44141l-0.5918 0.84766-0.45312-0.84766c-0.24912-0.4655-0.69625-0.8457-0.99414-0.8457s-0.75051-0.2509-1.0059-0.55859c-0.25535-0.30768-1.6658-0.68858-3.1328-0.8457-2.33-0.24952-2.9119-0.1661-4.5957 0.66016-1.0602 0.52027-2.1264 1.3678-2.3691 1.8828-0.61221 1.2993-1.8071 0.99202-1.9785-0.50781-0.074-0.64734-0.57314-1.8221-1.1094-2.6113-0.53626-0.78917-0.97461-1.7772-0.97461-2.1953 0-0.59658-0.22139-0.71815-1.0254-0.56445-0.64721 0.12372-0.96797 0.029331-0.87305-0.25586 0.08269-0.2483 0.49841-0.5042 0.92383-0.56836 2.2018-0.33184 2.5879-0.53412 2.5879-1.3555 0-0.75071-0.1697-0.82394-1.4316-0.61914-1.3342 0.21651-1.4123 0.17273-1.1406-0.65234 0.57739-1.7527 0.40858-2.5027-0.55469-2.4688-0.4993 0.01761-0.9082-0.16837-0.9082-0.41406 0-0.70547-1.6295-1.9162-2.2559-1.6758-0.69674 0.26736-0.72934 1.2033-0.078126 2.2461 0.62544 1.0015 0.019153 1.6577-0.66602 0.7207-0.28314-0.38722-1.0754-0.81627-1.7598-0.95312-0.89843-0.17969-1.3573-0.57314-1.6504-1.4141-0.3017-0.86546-0.66578-1.1641-1.416-1.1641-0.55528 0-1.1757 0.29704-1.3789 0.66016-0.28271 0.50516-0.43274 0.2339-0.64062-1.1523-0.27986-1.8662-1.6476-3.543-2.8887-3.543-0.3648 0-1.0452 0.92437-1.6387 2.2207-0.70066 1.5305-1.2499 2.2188-1.7676 2.2188-0.50413 1e-6 -0.79314 0.34016-0.87891 1.0371-0.1477 1.2004-1.16 1.8349-4.4648 2.7988-2.0932 0.61051-2.5185 0.95383-2.3672 1.9121 0.08315 0.52654-1.7348 0.30272-2.5508-0.31445-0.43074-0.32579-1.5581-0.59375-2.5039-0.59375-0.94572 0-2.1943-0.21571-2.7754-0.48047-0.86159-0.39257-1.1253-0.37334-1.4258 0.10156-0.3039 0.48036-0.36845 0.4575-0.37305-0.125-0.0034-0.42781-0.31458-0.70508-0.78906-0.70508-0.43073 0-0.8911-0.17382-1.0215-0.38477-0.13037-0.21143-0.85823-0.30424-1.6172-0.20703-0.75899 0.09721-1.4761 0.019652-1.5957-0.17383-0.35018-0.56659-5.0703 0.14975-5.0703 0.76953 0 0.16898-0.8097 0.4298-1.7988 0.57812-2.4696 0.37034-4.0278 2.1635-3.6777 4.2324 0.61641 3.6426 0.62064 4.3771 0.02539 4.8711-0.33044 0.27425-0.60156 0.9033-0.60156 1.3965 0 0.4932-0.75053 2.0592-1.6699 3.4805-0.91941 1.4213-1.9437 3.4019-2.2754 4.4004-0.33173 0.99858-0.85014 2.1027-1.1523 2.4531-0.30221 0.35033-0.55078 0.93635-0.55078 1.3027 0 1.3212-1.3014 3.8848-2.1016 4.1387-0.68892 0.21865-0.78328 0.50443-0.60547 1.8301v0.001953c0.11596 0.86434 0.070559 1.6565-0.099609 1.7617-0.41008 0.25343-3.6484-2.7527-3.6484-3.3867 0-0.27196 0.43735-1.2525 0.97266-2.1797 0.53532-0.92715 1.6347-3.6331 2.4414-6.0137 0.80675-2.3806 1.7299-4.8322 2.0508-5.4473 0.32086-0.61502 0.58474-1.4143 0.58594-1.7754 0.0011-0.36109 0.27457-0.88193 0.60742-1.1582 0.77447-0.64291 0.77733-2.1896 0.00586-2.9609-0.66986-0.66992-2.0523-0.47754-3.1074 0.43359-0.61692 0.53276-0.71607 0.44503-1.0723-0.96289-0.93096-3.6797-0.94288-5.1851-0.046875-6.3242 0.46908-0.59625 1.013-2.124 1.2109-3.4004 0.43505-2.8052 0.98471-5.0829 1.3789-5.7207 0.31462-0.50905 0.67567-3.5947 0.75195-6.4199 0.04277-1.5851-0.12988-1.9213-1.8008-3.5-1.1604-1.0963-1.946-2.2341-2.1113-3.0605-0.14478-0.7239-0.5551-1.6407-0.91211-2.0352-0.60127-0.6644-0.57124-0.80868 0.4082-1.9727 1.2622-1.5002 1.3538-3.1295 0.25586-4.5254-0.5826-0.74067-0.78787-1.5815-0.75391-3.0898 0.03168-1.4036-0.16571-2.3083-0.61133-2.8008-0.8818-0.97438-0.86362-1.0456 0.72266-3.123 0.75855-0.99344 1.5001-2.526 1.6484-3.4043 0.30636-1.8133 0.93607-2.4313 1.4824-1.4551 0.50318 0.89914 1.4312 0.8339 1.7344-0.12109 0.13651-0.43011 0.85862-0.9827 1.6035-1.2285 1.0752-0.35484 1.5694-0.90164 2.3965-2.6484 0.74936-1.5826 1.4203-2.3963 1.709-2.1797zm13.637 4.8555c-0.17103-0.03571-0.31898-0.02283-0.4043 0.0625-0.14902 0.14901-0.15916 0.56499-0.021484 0.92383 0.25462 0.66354 1.4408 0.68683 1.5859 0.03125 0.08037-0.36317-0.64706-0.91045-1.1602-1.0176zm-11.117 0.44141c-0.27946 0.089558-0.35156 0.48106-0.35156 1.4434 0 0.86691 0.11765 1.6958 0.26367 1.8418 0.14602 0.14601 0.51898 0.055346 0.82812-0.20117 0.79194-0.65726 0.50902-2.9123-0.38672-3.082-0.1437-0.02727-0.26036-0.031803-0.35352-0.001953zm14.172 0.12891c-0.29587 0-0.61268 0.22653-0.70508 0.50391-0.09996 0.3 0.18505 0.50391 0.70508 0.50391 0.52002 0 0.80698-0.20391 0.70703-0.50391-0.09241-0.27738-0.41115-0.50391-0.70703-0.50391zm-7.6094 0.29687c-0.15477-0.019009-0.2851-3.7e-5 -0.35547 0.070313-0.10145 0.10145-0.064239 0.37858 0.082031 0.61523 0.32189 0.52082 1.4277 0.57339 1.4277 0.06836-1e-6 -0.30675-0.69001-0.69685-1.1543-0.75391zm12.908 0.75781c-0.56371 0.016888-1.9978 1.0203-2.8125 2.0293-1.0025 1.2417-3.0346 2.4869-3.4238 2.0977-0.1283-0.1283-0.12784-0.75696 0-1.3965 0.25748-1.2874-0.26-1.5213-1.2266-0.55469-0.40916 0.40908-0.54686 1.1035-0.41992 2.1191 0.18511 1.4813 0.16953 1.4659-0.90234-0.71094-0.60099-1.2205-1.1437-2.2851-1.2051-2.3672-0.06142-0.08212-0.5755-0.032435-1.1406 0.10938-1.2265 0.30785-1.4037 1.6812-0.26367 2.043 0.41985 0.13324 0.8591 0.60948 0.97656 1.0586 0.11746 0.44915 0.77384 1.0273 1.457 1.2852 1.6028 0.60502 1.6213 1.5039 0.03125 1.5039-0.66571 0-1.2109-0.1824-1.2109-0.4043 0-0.61924-0.86314-0.47801-1.377 0.22461-0.6605 0.90328-1.8496 0.3116-1.8496-0.91992 0-0.86013-0.1505-0.98466-1-0.82226-1.0906 0.2085-1.972-0.7508-2.4551-2.6758-0.29691-1.183-0.66686-1.3145-1.3574-0.48242-0.36776 0.44311-0.28687 0.95602 0.36719 2.3203 1.5619 3.2579 2.3917 3.7503 6.9688 4.1465 0.61149 0.05295 1.2323 0.21659 1.3789 0.36328 0.14669 0.14668 0.80312 0.26758 1.459 0.26758 1.0143 0 1.1166 0.090739 0.68945 0.60547-0.27625 0.33285-0.92296 0.60352-1.4375 0.60352-0.51451 0-1.038 0.16708-1.1641 0.37109-0.24667 0.39912 0.81395 1.6465 1.4004 1.6465 0.85629 1e-6 2.416-0.99277 2.6328-1.6758 0.23403-0.73739 1.7969-1.8549 1.7969-1.2852 0 0.1621-0.4632 0.77828-1.0293 1.3691l-1.0293 1.0742 0.92774 1.0645c0.76835 0.88164 1.2237 1.0496 2.6426 0.9668 1.4482-0.08452 1.7146-0.23388 1.7148-0.95898 4.58e-4 -1.1961 1.1408-2.1261 1.6348-1.334 0.27235 0.43672 0.52982 0.47241 1.0527 0.14648 1.0425-0.64979 1.1256-1.3848 0.15625-1.3848-0.72005 0-0.78934-0.12189-0.4375-0.7793 0.65613-1.2259 0.49638-2.0315-0.48828-2.4434-0.49928-0.20883-1.2589-0.65726-1.6875-0.99609-0.76454-0.60449-0.76059-0.63465 0.16797-1.623 0.71426-0.76037 0.92877-1.4214 0.87891-2.6934-0.03625-0.92681-0.14036-1.7595-0.23242-1.8516-0.04068-0.04068-0.10306-0.059054-0.18359-0.056641zm10.893 1.209c-0.1846 0.01979-0.36689 0.10911-0.5332 0.27539-0.60843 0.60844-0.060664 2.4023 1.084 3.5469 0.99146 0.99145 2.7765 1.3041 3.2324 0.56641 0.13843-0.22398-0.3003-0.72316-0.97461-1.1094-0.73703-0.42219-1.3261-1.1545-1.4766-1.8379-0.13793-0.6265-0.43818-1.0848-0.78711-1.3027-0.17447-0.10888-0.36033-0.15845-0.54492-0.13867zm-15.043 0.058594c-0.24832 0.03545-0.52764 0.25486-0.65234 0.62891-0.08783 0.26351 0.12717 0.47852 0.47852 0.47852s0.63867-0.28732 0.63867-0.63867c0-0.35625-0.21652-0.50422-0.46484-0.46875zm-19.953 0.32812c-0.11605-0.03387-0.22969-0.020328-0.33594 0.044922v0.001953c-0.14166 0.08704-0.26989 0.26317-0.375 0.53711-0.3353 0.87377 1.2256 3.6634 2.6914 4.8105 1.1449 0.89599 1.204 1.0606 0.75195 2.0527-0.61346 1.3464-1.6839 1.1624-4.4277-0.75977-1.6047-1.1241-2.4959-2.2893-3.4355-4.4961-0.10659-0.25036-0.36961-0.2171-0.69336 0.087891-1.3287 1.2516 2.6283 7.377 4.7656 7.377 0.84718 0 1.5766 0.66561 1.1719 1.0703-0.68034 0.68034-3.7911-1.6659-5.2969-3.9961-0.70572-1.0921-1.834-1.5138-1.834-0.68555 0 1.3717 2.9932 4.8259 5.209 6.0117 0.46345 0.24803 0.84375 0.63356 0.84375 0.85547 0 0.55157-1.5412-0.27321-2.9297-1.5684-0.7966-0.74304-1.2347-0.91377-1.5469-0.60156-0.65874 0.65873 1.5781 2.9437 3.2715 3.3418 2.9532 0.69436 3.7232 0.46071 4.4062-1.3359 0.61499-1.6174 0.53684-1.9716-0.37695-1.6816-0.62931 0.19974-0.80664 0.072395-0.80664-0.57812 1e-6 -0.60929 0.25828-0.83398 0.95898-0.83398 0.52752 0 1.1846-0.27064 1.4609-0.60352 0.53662-0.64657 2.8242-0.84776 2.8242-0.24805 0 0.6122 2.6819 0.89986 3.7695 0.4043 2.0632-0.94004 1.4704-2.3625-0.75195-1.8047-0.55882 0.14025-1.378 0.060907-1.8203-0.17578-0.51456-0.27536-1.0465-0.29452-1.4785-0.052735-0.81406 0.45557-3.3496-1.3701-3.3496-2.4121 0-0.36117-0.27168-0.88086-0.60352-1.1562-0.33184-0.2754-0.81422-1.2051-1.0723-2.0664-0.26976-0.90044-0.64209-1.4374-0.99023-1.5391zm27.668 0.47266c-0.15941 0.0046-0.31577 0.07019-0.44141 0.17383-0.2514 0.20739-0.37976 0.56794-0.17188 0.9043 0.14908 0.24124 0.43124 0.4375 0.62695 0.4375 0.62319 0 0.91284-0.86057 0.44726-1.3262-0.13913-0.13914-0.30152-0.19405-0.46094-0.18945zm2.5859 0.30664c-0.68397 0-0.73192 1.276-0.072265 1.9355 0.65101 0.65102 1.1082 0.61078 1.3906-0.125 0.27515-0.71706-0.52137-1.8105-1.3184-1.8105zm-32.631 0.40234c-0.62392 0-0.80204 0.47727-0.34766 0.93164 0.32233 0.32235 0.95312-0.042031 0.95312-0.55078 0-0.20882-0.27261-0.38086-0.60547-0.38086zm6.6328 1.6719c-0.13548 0.031596-0.31419 0.09755-0.54883 0.1875-0.83359 0.31986-0.80847 1.1847 0.06836 2.3906 0.38833 0.53406 1.0238 0.97552 1.4121 0.98242 0.86199 0.01544 0.94221-1.1325 0.10156-1.4551-0.33286-0.12772-0.60547-0.66625-0.60547-1.1973 0-0.52668-0.009879-0.79712-0.13672-0.89062-0.0633-0.04672-0.15555-0.049178-0.29102-0.017578zm14.805 0.94336c0.08292 0.0406 0.10387 0.13775 0.054687 0.28516-0.20104 0.60312-1.1172 0.93462-1.1172 0.4043 0-0.21666 0.28727-0.50383 0.63867-0.63867 0.19644-0.07537 0.34088-0.091381 0.42383-0.050781zm1.3574 1.0176c0.22191 0 0.4043 0.18043 0.4043 0.40234 0 0.2219-0.18239 0.4043-0.4043 0.4043-0.2219 0-0.40234-0.1824-0.40234-0.4043 0-0.22191 0.18044-0.40234 0.40234-0.40234zm24.814 0.60352c-0.16404-0.010558-0.37104 0.024347-0.62891 0.091797-0.6195 0.162-0.7832 0.56121-0.7832 1.9062 0 0.93571 0.1216 1.8227 0.26953 1.9707 0.93849 0.93843 1.748-0.1368 1.748-2.3203 0-1.1788-0.11335-1.6168-0.60547-1.6484zm-20.979 0.60547c0.53899 0 0.08609 1.022-0.83008 1.8711-1.1832 1.0965-1.3906 1.1598-1.3906 0.42188 0-0.4852 1.7503-2.293 2.2207-2.293zm16.449 0c-0.71975 0-1.0651 1.7969-0.53516 2.7871 0.50386 0.94148 0.86812 1.046 1.4883 0.42578 0.54258-0.54258-0.24943-3.2129-0.95312-3.2129zm-9.7461 0.56445c-0.2151-8e-3 -0.43894 0.065017-0.65234 0.24219-0.81587 0.67711-0.76615 1.8854 0.099609 2.3887 1.0008 0.58187 1.4948 0.32799 1.6348-0.83984 0.11936-0.99611-0.43665-1.7665-1.082-1.791zm-3.8809 0.64648c-0.62392 0-0.80204 0.47531-0.34766 0.92969 0.32234 0.32234 0.95312-0.042042 0.95312-0.55078 0-0.20879-0.27261-0.37891-0.60547-0.37891zm25.227 1.6641c-0.38186-0.06222-1.1139 0.49244-2.3594 1.6406-1.0751 0.991-1.9022 1.4927-1.9961 1.2109-0.29993-0.89977-1.6791-0.52551-1.9434 0.52734-0.30661 1.2217-0.73845 1.2779-1.498 0.19336-0.3592-0.51285-0.81845-0.72209-1.2344-0.5625-0.94668 0.36328-0.81645 1.625 0.24609 2.3848 0.5728 0.40951 1.3365 0.56828 2.0684 0.42773 0.63797-0.12257 2.0248-0.22461 3.082-0.22461 2.6515 0 3.581-0.84135 3.8945-3.5293 0.15466-1.326 0.12217-2.0061-0.25977-2.0684zm-18.885 0.070312c-0.16099-0.034189-0.30499-0.001587-0.43359 0.095703-0.25719 0.1946-0.45251 0.65315-0.59961 1.3887-0.18068 0.90342-0.46908 1.2188-1.1133 1.2188-0.52268 0-1.6942 0.85842-2.9375 2.1523-3.0366 3.1604-5.0154 4.0575-4.5098 2.043 0.29455-1.1736-0.64613-2.9844-1.5508-2.9844-1.3942 0-0.7109 3.7252 0.78906 4.3008 0.32126 0.12328 0.58398 0.47801 0.58398 0.78711 0 0.71998 1.1947 0.70108 2.1641-0.033203 0.59137-0.44789 0.91121-0.46605 1.5137-0.089844 0.56232 0.35114 0.95021 0.35836 1.4688 0.03125 0.89296-0.56326 0.69689-1.1931-0.33203-1.0664-0.71964 0.08864-0.69784-0.037164 0.2793-1.5137 0.89647-1.3547 1.2846-1.6094 2.4434-1.6094 2.4734 0 4.397-3.073 2.7695-4.4238-0.19672-0.16327-0.37417-0.26268-0.53516-0.29688zm26.541 0.6875c-0.53796 0-0.80664 0.26868-0.80664 0.80664 0 0.88848 0.04893 0.91576 0.97461 0.56055 0.91427-0.35084 0.78956-1.3672-0.16797-1.3672zm9.6328 0.10938c-0.29772 0.04129-0.58906 0.3338-0.68946 0.85156-0.0739 0.38085 0.16601 1.1476 0.53125 1.7051 0.37241 0.56835 0.96204 0.9575 1.3438 0.88476 0.85929-0.1637 1.181-1.9375 0.35156-1.9375-0.32242 0-0.68447-0.38241-0.80664-0.84961-0.12716-0.48622-0.43287-0.69558-0.73046-0.6543zm-8.9473 1.5957c-0.45754 0.18017-1.0898 0.88379-1.0898 1.3691 0 0.87255 1.1265 0.64982 1.4219-0.28125 0.14615-0.46054 0.163-0.94055 0.03711-1.0664-0.0841-0.0841-0.21663-0.081545-0.36914-0.021485zm6.1582 2.5391c-0.25105 0.039876-0.49699 0.28682-0.62304 0.78906-0.13415 0.53433-0.11898 1.1737 0.0332 1.4199 0.44765 0.7243 1.2015 0.2228 1.334-0.88672 0.0839-0.70249-0.17537-1.1698-0.49609-1.2949-0.08018-0.031229-0.16435-0.040633-0.24805-0.027343zm-5.6328 0.39453c-0.32679 0-0.65567 0.3187-0.73047 0.70703-0.0954 0.49539 0.12278 0.70508 0.73047 0.70508 0.60768 0 0.82587-0.20969 0.73047-0.70508-0.0748-0.38833-0.40369-0.70703-0.73047-0.70703zm-64.895 0.38086c-0.23212-0.01361-0.44137 0.035152-0.57617 0.16992-0.29604 0.29601-0.26337 0.61768 0.10742 1.0645 0.58803 0.70853 1.6616 0.66659 1.9082-0.074218 0.17255-0.51829-0.74308-1.1195-1.4395-1.1602zm68.168 0.26758c-0.501 0.081934-1.6602 1.2871-1.6602 1.834 0 0.96424 1.2175 0.57592 1.6348-0.52148 0.22261-0.58555 0.31111-1.1596 0.19531-1.2754-0.03941-0.03941-0.09832-0.048819-0.16992-0.037109zm-25.148 0.035156c-0.23148 0.03683-0.31555 0.15739-0.31445 0.37305 0.0046 1.0505 2.1287 1.7981 5.4414 1.916 1.7738 0.06313 3.312 0.20257 3.418 0.30859 0.34771 0.34771-0.97187 0.94232-2.1035 0.94922-0.86597 0.0046-1.2284 0.29191-1.6582 1.3164-0.69083 1.6469-0.53291 1.918 1.1113 1.918 2.0827 0 2.0805 0.53151-0.003906 1.2012-1.9857 0.63794-2.8563 1.623-1.4336 1.623 0.44381 0 0.87538 0.20018 0.95703 0.44531 0.26115 0.78344 3.5111-0.46897 4.3789-1.6875 0.95133-1.336 0.96402-1.4878 0.13476-1.6543-0.55474-0.1114-0.52841-0.23996 0.18164-0.88086 0.82761-0.74702 0.83408-0.7396 1.1133 1.3652 0.2023 1.525 0.62341 2.5061 1.5098 3.5156 1.0711 1.2198 1.145 1.4453 0.57617 1.7637-0.35911 0.20097-0.85462 0.97451-1.0996 1.7168-0.24498 0.74229-0.89307 1.77-1.4414 2.2852l-0.99805 0.9375v-0.88867c0-0.48803 0.36438-1.9217 0.80859-3.1855 0.78516-2.234 0.78659-2.3169 0.0625-3.041-0.72411-0.72413-0.77977-0.7154-2.0176 0.32617-0.70027 0.58924-1.2734 1.3064-1.2734 1.5938 0 0.28724-0.36283 0.61637-0.80664 0.73242-0.54467 0.14244-0.80664 0.012188-0.80664-0.40039 0-0.47374-0.2493-0.53984-1.1094-0.29688-0.61024 0.1724-1.6398 0.32763-2.2871 0.3457-1.5013 0.04197-1.8286 0.93014-0.46875 1.2715 1.1561 0.29014 1.0202 0.98047-0.19336 0.98047-1.0109 0-0.99865 0.72981 0.033204 1.8281 0.44986 0.47881 1.2236 1.6687 1.7168 2.6445 1.0671 2.1111 2.9 3.352 3.5273 2.3867 0.3183-0.48971 0.45912-0.50353 0.73633-0.074219 0.221 0.34228 0.97374 0.48434 2.1191 0.40234l1.7754-0.12695 0.12109-2.1172c0.11506-1.9983 0.52221-2.6338 1.0938-1.709 0.53484 0.86537 1.0511-0.14276 0.80859-1.5781-0.43961-2.6021 1.0566-5.0025 1.6484-2.6445 0.31518 1.2557-0.92196 5.404-1.7012 5.7031-0.61094 0.23444-0.74309 2.0359-0.21094 2.875 0.36257 0.57167 2.2512 0.30267 3.2129-0.45703 0.72947-0.57635 1.3549 0.44834 0.84961 1.3926-0.634 1.1846-0.42344 3.1273 0.43164 3.9824 0.94877 0.94835 2.4199 1.0707 2.4199 0.20117 0-0.33286-0.26675-0.60547-0.5918-0.60547-1.1699 0-1.4889-1.4599-1.0352-4.7227 0.30831-2.2168 0.30543-3.1646-0.00976-3.3594-0.27281-0.1686-0.33519-0.82806-0.16407-1.7402 0.24261-1.2932 0.16311-1.5118-0.67578-1.8477-0.52363-0.2097-0.82481-0.39413-0.66992-0.4082 0.63308-0.05753-0.62338-2.4302-2.1582-4.0762-1.5891-1.7041-1.6337-1.8213-1.375-3.7949 0.55292-4.2186 0.59882-4.0566-1.1094-4.0566h-1.5371l1.0312-0.82226c0.56734-0.45216 1.0332-1.0278 1.0332-1.2793 0-0.60636-2.3204-1.0978-2.9414-0.62305-0.56842 0.4345-6.6528 0.37297-8.8613-0.089844-0.58568-0.12271-0.96387-0.1696-1.1953-0.13281zm34.17 0.85547c-0.18065-0.068838-0.28281 0.058454-0.39453 0.3457-0.1444 0.37122 0.04822 1.1463 0.42969 1.7285 0.68285 1.0422 1.4012 1.1873 1.6836 0.33984 0.0797-0.2391-0.30465-0.95319-0.85351-1.5879-0.42557-0.49209-0.68459-0.75727-0.86524-0.82617zm-38.031 0.011719c-0.28724 0.036548-0.52679 0.12966-0.70703 0.2793-0.89909 0.7461-0.70731 1.1951 0.51953 1.2109 0.61023 8e-3 1.5645 0.2727 2.1191 0.58984 2.196 1.2554 3.6805 0.30814 1.5488-0.98828-0.89176-0.54231-1.7582-0.89469-2.4922-1.0371-0.367-0.07124-0.70104-0.091238-0.98828-0.054688zm24.727 0.26562c-0.33286 0-0.60351 0.27261-0.60351 0.60547s0.27065 0.60352 0.60351 0.60352 0.60547-0.27066 0.60547-0.60352-0.27261-0.60547-0.60547-0.60547zm-27.172 0.50586c-0.24831-0.03545-0.46484 0.11253-0.46484 0.46875 0 0.35134 0.28732 0.63867 0.63867 0.63867 0.35134-1e-6 0.56634-0.215 0.47852-0.47852-0.12469-0.37407-0.40403-0.59343-0.65234-0.62891zm-34.217 0.072265c-0.19862-0.068632-0.38229-0.073201-0.50391 0.001953-0.60281 0.37254-0.55943 1.7285 0.0625 1.959 0.27739 0.10282 0.77074-0.062871 1.0957-0.36914 0.51804-0.48821 0.50999-0.6385-0.0625-1.2109-0.17955-0.17953-0.39317-0.31223-0.5918-0.38086zm69.42 0.77344c-0.1034 0.066723-0.1621 0.19849-0.1621 0.38867-1e-5 0.33922 1.1209 1.3495 2.4902 2.2441 2.3345 1.5254 3.1582 1.7413 3.1582 0.82812 0-0.37146-3.813-2.9843-5.0449-3.457-0.1871-0.07181-0.33715-0.070446-0.44141-0.003906zm-26.871 0.26172c-0.83936-1e-6 -0.88109 0.16668-0.30859 1.2363 0.46758 0.87369 2.002 1.0698 2.002 0.25586 0-0.74845-0.84372-1.4922-1.6934-1.4922zm19.9 0c-0.58316-1e-6 -1.3501 1.1429-1.0703 1.5957 0.50432 0.81601 1.4238 0.43632 1.4238-0.58789 0-0.55476-0.15878-1.0078-0.35352-1.0078zm-12.002 0.53711c0.87168 0 0.82575 0.19893-0.25391 1.0996-0.49929 0.41652-1.2174 0.76458-1.5957 0.77148-0.57262 0.01144-0.52994-0.14583 0.25391-0.92969 0.51777-0.51777 1.2359-0.94141 1.5957-0.94141zm-18.309 0.26953c-0.80379 0-1.0486 0.4299-0.53711 0.94141 0.4914 0.4914 1.3438 0.2783 1.3438-0.33594 0-0.33622-0.35833-0.60547-0.80664-0.60547zm-1.9121 0.085938c-0.077522-0.006301-0.16759 0.004018-0.26562 0.029296-0.58822 0.1517-1.4361 0.79834-1.2402 1.1152 0.13026 0.21077 0.38672 0.38281 0.56836 0.38281 0.47418 0 1.3922-1.1858 1.125-1.4531-0.045-0.045-0.10998-0.067918-0.1875-0.074218zm-31.75 0.31836c-0.74193 0-1.2792 0.953-1.6504 2.9316-0.39882 2.126 0.72999 2.0367 1.8438-0.14648 0.88768-1.74 0.81603-2.7852-0.19336-2.7852zm33.699 1.3574c-0.81695-0.08658-1.6793 0.042785-2.2578 0.42188-0.55378 0.36286-1.0059 0.92813-1.0059 1.2559 0 0.66748 1.4274 0.81784 1.8145 0.19141 0.41396-0.6698 1.3052-0.45736 2.5 0.59375 0.62262 0.54775 1.3345 1.0009 1.582 1.0078 0.71007 0.02013 2.5762-1.6 2.5762-2.2363 0-0.66129-0.64008-0.76998-1.0098-0.17188-0.37011 0.59885-1.6469 0.4882-2.2109-0.19141-0.40072-0.48282-1.1713-0.78451-1.9883-0.87109zm36.217 0.25586c-1.042 0-0.93606 0.937 0.16016 1.418 0.73788 0.32373 0.90962 0.72617 0.91992 2.1543 0.014 1.8521 0.67878 2.6872 2.5078 3.1465 0.52877 0.13277 0.9082 0.53754 0.9082 0.96875 0 0.40718 0.40525 1.0218 0.89844 1.3672 1.016 0.7116 2.3301 0.83569 2.3301 0.21875 0-0.22599-0.47277-1.3165-1.0508-2.4219-0.94636-1.8099-1.1884-2.0098-2.4219-2.0098-1.2999 0-1.3691-0.073123-1.3691-1.4316 0-1.5833-1.5442-3.4102-2.8828-3.4102zm-27.15 0.19336c-0.2597 0.06279-0.39272 0.53365-0.32227 1.3926 0.0931 1.1353 0.006302 1.265-0.70508 1.0391-0.74777-0.23735-0.8125-0.079414-0.8125 1.9883 0 1.9773 0.096323 2.2461 0.80664 2.2461 0.44381 0 0.80664-0.20194 0.80664-0.44726 0-0.24536 0.45303-0.98524 1.0078-1.6445 1.1968-1.4224 1.2364-1.8813 0.30273-3.5215-0.43832-0.76998-0.8243-1.1155-1.084-1.0527zm36.111 0.27539c-0.08955-0.01842-0.19743-0.014654-0.32422 0.009766-0.95935 0.18475-1.1136 1.3737-0.33203 2.5664 0.35635 0.54386 0.81586 0.99024 1.0195 0.99023 0.63525 0 0.93363-0.85541 0.46289-1.3262-0.24694-0.24696-0.44922-0.87969-0.44922-1.4062 0-0.51928-0.10832-0.77862-0.37695-0.83398zm-14.148 2.9609c-0.33286 0-0.56678 0.18043-0.52148 0.40234 0.13871 0.67972 1.0001 3.1539 1.5918 4.5703 0.67452 1.6146 1.6134 1.5045 1.4121-0.16602-0.21105-1.7506-1.7879-4.8066-2.4805-4.8066h-0.00195zm17.35 1.6133c0.22191-0.13714 0.4043 0.022659 0.4043 0.35547 0 0.33285-0.18239 0.71832-0.4043 0.85547-0.2219 0.13714-0.40234-0.02267-0.40234-0.35547 0-0.33286 0.18044-0.71832 0.40234-0.85547zm-14.023 2.7695c-0.0798 0.09058-0.09765 0.37781-0.09765 0.91016 0 0.67629 0.1216 1.3502 0.26953 1.498 0.14794 0.14794 0.52315 0.26953 0.83398 0.26953 0.67119 0 0.33805-1.4822-0.54101-2.4062-0.24327-0.25578-0.38515-0.36204-0.46485-0.27148zm14.949 2.4258c0.07318-0.032239 0.1742-0.017789 0.28516 0.050781 0.22191 0.13715 0.40429 0.32983 0.40429 0.42773 0 0.097905-0.18238 0.17773-0.40429 0.17774-0.22192-1e-6 -0.40235-0.19272-0.40235-0.42774 0-0.1175 0.04399-0.19629 0.11719-0.22852zm-24.512 1.6328c0.049814-0.0379 0.084644-0.034791 0.10742 0.011719 0.04564 0.09298 0.041704 0.35999-0.003906 0.82617-0.09458 0.96351 0.023848 1.1862 0.58594 1.0918 0.85635-0.14379 0.90196 0.18397 0.13086 0.95508-0.31701 0.317-0.77199 0.57617-1.0098 0.57617-0.55036 0-0.55272-2.428-0.003906-3.2285 0.079975-0.11655 0.14356-0.19452 0.19336-0.23242zm-8.4082 1.9688c0.071985 0.01391 0.11694 0.06647 0.11524 0.15625-0.0034 0.17953-0.18332 0.59878-0.39844 0.93164-0.33699 0.52153-0.39078 0.51181-0.39648-0.076172-0.0034-0.37524 0.17458-0.79449 0.39648-0.93164 0.11096-0.06856 0.21122-0.093988 0.2832-0.080078zm31.17 4.4238c-0.2047 0.05387-0.45987 0.19996-0.74609 0.45898-0.39183 0.3546-0.91892 0.64453-1.1719 0.64453-0.25291 0-0.35625 0.27262-0.22851 0.60547 0.33503 0.87311 1.0853 0.74545 2.125-0.36133 0.79899-0.85046 0.63564-1.5092 0.02148-1.3477zm7.0859 0.29688c0.45173 0 0.5472 0.26338 0.36133 1.0039-0.17955 0.71539-0.06686 1.0768 0.39453 1.2539 0.35639 0.13675 0.64844 0.4112 0.64844 0.60938 0 0.80952-1.2576 0.2856-1.623-0.67578-0.55991-1.4727-0.48844-2.1914 0.21875-2.1914zm-4.3086 1.6875c-0.25346 0.0046-0.57021 0.085851-0.94336 0.25586-1.2501 0.56958-1.7364 1.6377-0.9668 2.125 0.92719 0.58709 1.4422 0.4241 2.168-0.68359 0.67983-1.0375 0.50246-1.7115-0.25781-1.6973zm-37.283 1.1367c0.31791 0 0.69312 0.36283 0.83398 0.80664 0.14086 0.44381 0.42584 0.80664 0.63281 0.80664 0.20695 0 0.37695 0.18239 0.37695 0.4043 0 0.73553-1.1567 0.41697-1.7949-0.49414-0.78069-1.1146-0.79289-1.5234-0.048828-1.5234zm5.877 0.80664c0.22191 0 0.4043 0.18043 0.4043 0.40234 0 0.2219-0.18239 0.4043-0.4043 0.4043s-0.40234-0.1824-0.40234-0.4043c0-0.22191 0.18043-0.40234 0.40234-0.40234zm-1.5898 1.2109c0.2088 0 0.37891 0.36282 0.37891 0.80664-1e-6 0.85093-0.58611 1.0846-1.0078 0.40234-0.29422-0.47603 0.087328-1.209 0.62891-1.209zm-53.258 0.023438c-0.75073-0.07194-1.2344 0.57163-1.2344 1.7793 0 1.2269 0.13201 1.4238 0.94922 1.4238 0.52195 0 1.5662 0.4381 2.3203 0.97266 1.6718 1.1853 2.1375 1.1159 2.3086-0.33984 0.13977-1.1889-1.2186-3.0527-2.2246-3.0527-0.29718 0-0.87572-0.21182-1.2871-0.46875-0.30199-0.18861-0.5818-0.29048-0.83203-0.31445zm20.609 1.6367c0.22562 0.05833 0.22136 0.2179 0.10938 0.50977-0.22318 0.5815-0.11094 0.61165 0.87109 0.23828 0.91178-0.34659 1.1977-0.30807 1.4805 0.19727 0.24427 0.43647 0.66542 0.54724 1.3906 0.36523 0.76694-0.19247 0.99194-0.12036 0.85938 0.27734-0.26282 0.7885-1.9375 1.1069-3.5566 0.67578-0.77667-0.20673-2.2741-0.27541-3.3281-0.15234-1.6905 0.19738-1.916 0.13494-1.916-0.53906 0-0.97732 0.33078-1.1659 2.5977-1.4766 0.81081-0.11117 1.2666-0.15404 1.4922-0.095703zm43.799 0.17578c-0.20886-8e-3 -0.44913 0.055075-0.71484 0.19726-0.86977 0.46547-1.2646 1.4972-0.95117 2.4844 0.17646 0.55602 0.54777 0.73777 1.3203 0.64844 0.89715-0.10373 1.0959-0.35084 1.2051-1.4941 0.10911-1.1429-0.23283-1.8121-0.85938-1.8359zm-7.3164 3.4082c0.3459 0 0.51606 0.18239 0.37891 0.4043-0.13714 0.2219-0.42012 0.40234-0.62891 0.40234-0.20882 0-0.37891-0.18044-0.37891-0.40234 0-0.22191 0.28294-0.4043 0.62891-0.4043zm11.986 2.582c0.55227-0.02231 1.1481-0.004103 1.752 0.060547 3.5716 0.38249 4.185 1.1384 4.7207 5.8066 0.31347 2.7315 0.29544 4.1171-0.07617 5.5625-0.27225 1.0588-0.59903 2.3789-0.72461 2.9336-0.12558 0.5547-1.0029 1.8256-1.9512 2.8242-0.94824 0.99858-1.9984 2.3616-2.334 3.0273-0.86893 1.7234-2.0871 2.7479-5.4844 4.6152-3.2316 1.7762-3.7646 1.8875-5.291 1.1152-0.77052-0.38982-1.0078-0.82566-1.0078-1.8477 0-0.73582 0.1363-1.4226 0.30274-1.5254 0.16643-0.10282 0.30273 0.005394 0.30273 0.24023 0 0.23501 0.27261 0.42773 0.60547 0.42773s0.60547-0.27262 0.60547-0.60547c0-0.33286-0.18826-0.60547-0.41797-0.60547-0.28101 0-0.28766-0.24325-0.019531-0.74414 0.28681-0.5359 0.22733-0.98952-0.21094-1.6152-0.54531-0.77862-0.54303-0.86719 0.019531-0.86719 0.34544 0 0.62891-0.27262 0.62891-0.60547 0-0.37657-0.38213-0.60547-1.0098-0.60547-0.55476 0-1.0078-0.078035-1.0078-0.17188-1e-6 -0.0939 0.70731-1.5011 1.5723-3.127 0.86498-1.6259 2.0699-4.6734 2.6777-6.7734 0.78742-2.7207 1.4367-4.1515 2.2598-4.9746 0.63534-0.63533 1.1562-1.2937 1.1562-1.4629 0-0.58965 1.275-1.0151 2.9316-1.082zm-38.666 0.24219c0.12556 0 0.22852 0.3525 0.22852 0.7832 0 0.87354-0.658 1.4791-0.88086 0.81055-0.20046-0.60137-1.541-0.017033-1.541 0.67188 0 0.31129-0.36282 0.87781-0.80664 1.2578-0.4438 0.38001-0.80664 0.93384-0.80664 1.2305 0 0.29664-0.20055 0.4142-0.44727 0.26172-0.24672-0.15247-0.5951-0.040521-0.77344 0.24805-0.17831 0.28854-0.92877 0.71988-1.666 0.95898-2.4465 0.79366-1.7769 2.9481 0.86914 2.7969 0.77667-0.044379 1.5218-0.094289 1.6543-0.11133 0.13249-0.017028 0.67534-0.41 1.207-0.87109 0.65206-0.56542 1.346-0.7815 2.1328-0.66602 0.8824 0.12951 1.2139-0.010629 1.3613-0.57422 0.20861-0.79772 0.9082-1.0356 0.9082-0.30859 0 0.24042 0.22461 0.36332 0.5 0.27148 0.62369-0.20789 1.6497 0.76697 1.3379 1.2715-0.12648 0.20466-0.001556 0.45324 0.27734 0.55274 0.69309 0.24731-1.0625 2.1207-3.0195 3.2207-0.83393 0.4687-1.5176 1.0908-1.5176 1.3828 0 0.29201-0.16739 0.53125-0.37305 0.53125-0.20565 0-0.62532 0.49917-0.93359 1.1094-0.97362 1.9272-1.6912 3.0046-2.6523 3.9941-0.62422 0.64262-0.8491 1.226-0.67969 1.7598 0.19768 0.62283 0.10863 0.74128-0.4082 0.54297-0.42988-0.16496-0.63604-0.058492-0.58789 0.30469 0.10648 0.80455-0.45288 2.375-0.8457 2.375-0.18368 0-1.0247 0.63453-1.8691 1.4102-0.84449 0.77561-1.7617 1.4111-2.0391 1.4121-0.27737 1e-3 -0.50391 0.27455-0.50391 0.60742 0 0.33286-0.24957 0.60547-0.55469 0.60547-0.30513 0-1.077 0.09593-1.7148 0.21289-1.377 0.25248-1.7852 0.00294-2.7715-1.6934-0.67472-1.1605-0.68787-1.3672-0.13086-2.2207 0.72319-1.1081 1.292-4.4524 0.94336-5.5508-0.16255-0.51218-0.77421-0.86006-1.834-1.0391l-1.5918-0.26758 1.002-1.3164c0.55159-0.7231 1.0039-1.85 1.0039-2.5059 0-0.65588 0.16972-1.3653 0.37891-1.5762 0.20918-0.2108 0.5574-1.1733 0.77344-2.1387 0.53238-2.3789-0.38255-5.5894-1.7402-6.1055-1.0239-0.38929-1.6536-1.1295-1.2793-1.5039 0.12782-0.12781 0.4653-0.049092 0.74805 0.17383 0.28268 0.22293 1.0259 0.52595 1.6523 0.67578 1.003 0.23992 1.1933 0.12809 1.5977-0.94336 0.43218-1.145 0.55616-1.2024 2.0898-0.96875 1.9299 0.29394 3.4802 1.0007 2.7383 1.248-0.7239 0.24131-0.62206 1.3105 0.125 1.3105 0.34592 0 0.51606 0.1824 0.37891 0.4043-0.15075 0.24391 0.40644 0.40234 1.4062 0.40234 1.6951 0 4.8477-1.3174 4.8477-2.0254 0-0.21739 0.26411-0.39453 0.58594-0.39453 0.32184 0 0.73074-0.24641 0.9082-0.54688 0.30295-0.51294 1.8087-1.4707 2.3125-1.4707zm60.346 0.4043c0.22191 0 0.4043 0.37522 0.4043 0.83398 0 0.68055 0.16621 0.78112 0.9043 0.54688 0.7913-0.25119 0.8373-0.20782 0.37304 0.35156-0.29186 0.35169-0.77489 0.54649-1.0742 0.43164-0.83347-0.31983-2.1435 0.54948-2.832 1.8809-0.62964 1.2176-1.8106 1.6455-1.8106 0.65625 1e-5 -0.70406 1.5644-2.4558 2.7246-3.0527 0.4993-0.25687 0.90625-0.73357 0.90625-1.0586 0-0.32506 0.18239-0.58984 0.4043-0.58984zm-20.301 1.5664c-0.24658-0.014679-0.50699-0.005712-0.77344 0.023438-1.0658 0.11659-2.2477 0.57917-3.2148 1.3516-0.37785 0.30176-0.97836 1.4058-1.334 2.4531-0.6351 1.871-0.63057 1.9179 0.28321 2.6797 0.5115 0.42642 1.3846 0.77539 1.9394 0.77539 1.0005 0 2.8242-1.2014 2.8242-1.8594 0-0.18844 0.34545-0.55743 0.76953-0.82227 0.62638-0.39118 0.81671-0.36631 1.0098 0.13672 0.53898 1.4045 0.21932 4.5716-0.60157 5.9629-0.46135 0.78206-0.72746 1.6028-0.59179 1.8223 0.2569 0.41569 1.269 0.18548 2.1348-0.48438 0.27668-0.21404 0.78127-1.3206 1.1211-2.459 0.7866-2.6348 0.43798-7.4488-0.56836-7.834-0.35783-0.13697-0.92514-0.58561-1.2598-0.99805-0.3725-0.45917-0.99853-0.70398-1.7383-0.74805zm20.443 2.8633c0.1918 0.026452 0.24831 0.2508 0.05859 0.71484-0.15876 0.38833-0.45605 1.2888-0.66211 2.002-0.43667 1.5113-0.72767 1.7541-1.5566 1.3066-0.33286-0.17968-0.96825-0.45577-1.4121-0.61328-0.75065-0.26641-0.73714-0.30331 0.20118-0.54883 0.55477-0.14517 1.3726-0.84151 1.8164-1.5449 0.43293-0.68611 0.96396-1.1452 1.3223-1.2793 0.08958-0.03351 0.16852-0.045909 0.23242-0.037109zm-30.523 1.7422c0.071984 0.01391 0.11693 0.068423 0.11523 0.1582-0.0034 0.17954-0.18333 0.59878-0.39844 0.93164-0.33702 0.52152-0.39078 0.50982-0.39648-0.078125-0.0034-0.37525 0.17458-0.79254 0.39648-0.92969 0.11096-0.068549 0.21122-0.095941 0.2832-0.082031zm4.3672 2.4121c-0.47006 0.13743-0.88562 0.55339-1.0547 1.1895-0.16059 0.6043-0.66131 1.5681-1.1133 2.1426-1.0156 1.2911-1.826 3.6529-1.5234 4.4414 0.12783 0.33311 0.74714 0.58789 1.4258 0.58789 0.6596 0 1.312 0.18044 1.4492 0.40234 0.13714 0.22191 0.59017 0.4043 1.0078 0.4043 0.41764 0 0.87259-0.18239 1.0098-0.4043 0.13714-0.2219 0.60054-0.40234 1.0312-0.40234 0.58878 0 0.77983-0.27525 0.76953-1.1094-0.0228-1.7847-1.0505-6.097-1.6152-6.7773-0.39187-0.47221-0.91662-0.61206-1.3867-0.47461zm25.098 0.85547c0.0974 0.09744-0.12579 0.81907-0.49805 1.6035-0.7454 1.5708-1.8144 2.6947-1.8144 1.9082 0-0.59174 2.0775-3.7467 2.3125-3.5117zm-80.764 5.084c0.54167 0 0.98438 0.18239 0.98438 0.4043 0 0.2219-0.55562 0.4043-1.2344 0.4043-0.72008-1e-6 -1.1298-0.16891-0.98438-0.4043 0.13715-0.22191 0.69276-0.4043 1.2344-0.4043zm-3.2891 0.12695c0.057542-0.02516 0.10315-0.021028 0.13867 0.013672 0.071023 0.06942 0.10156 0.26006 0.10156 0.58594 0 0.97418-0.2096 1.1245-0.62695 0.44922-0.14909-0.24124-0.069245-0.63977 0.17774-0.88672 0.08242-0.082429 0.15144-0.13695 0.20898-0.16211zm80.99 2.3789c0.18465-0.00991 0.37404 0.018932 0.54492 0.076172 0.34176 0.11443 0.60937 0.3454 0.60937 0.63281v0.001953c0 0.47512-0.28292 0.48498-1.3867 0.052734-0.55986-0.21925-0.63978-0.3929-0.2832-0.61328 0.15082-0.093211 0.33098-0.14049 0.51563-0.15039zm-84.986 3.0801c1.8833-0.11726 2.2192-0.033572 2.2188 0.55469-3.55e-4 0.45087 0.21016 0.6119 0.60352 0.46094 0.33286-0.12773 0.60547-0.050065 0.60547 0.17188 0 0.22191-0.27261 0.50898-0.60547 0.63672-0.8794 0.33746-0.74022 1.0645 0.20312 1.0645 0.44381 0 0.80664 0.18044 0.80664 0.40234 0 0.22191-0.1824 0.4043-0.4043 0.4043-0.67167 0-0.45605 0.63011 0.60352 1.7734 0.5529 0.5966 1.1215 1.5545 1.2656 2.1289 0.14414 0.57432 0.59927 1.1323 1.0117 1.2402 0.4125 0.10785 0.75 0.31907 0.75 0.47071 0 0.51008-0.96157 1.2441-1.6309 1.2441-0.36504 0-0.99291 0.36476-1.3945 0.80859-0.40164 0.44382-0.97493 0.80664-1.2734 0.80664-0.68423 0-0.71472 1.1731-0.037109 1.418 0.27738 0.10018 1.6846-0.09693 3.127-0.4375 3.2837-0.7753 3.3621-0.77424 6.0508 0.02734 1.2205 0.36387 3.2632 0.64716 4.5391 0.63086 1.3049-0.0167 2.3203 0.1489 2.3203 0.37696 0 0.22287-0.30296 0.40429-0.67383 0.40429s-1.0063 0.3007-1.4121 0.66797c-0.63937 0.57864-0.73828 0.58671-0.73828 0.05274 0-0.87386-4.7971-1.514-7.2617-0.96876-0.55477 0.12275-2.0523 0.38046-3.3281 0.57227-2.5928 0.38982-3.0237 0.63277-2.4355 1.3809 0.2223 0.28276 0.52451 1.1412 0.66992 1.9062 0.14539 0.76508 0.52109 1.7832 0.83594 2.2637 1.0276 1.5683 7.4641 3.0205 7.498 1.6914 8e-3 -0.29924 0.23885-0.2081 0.56836 0.22656 0.43504 0.57387 0.71673 0.63931 1.2988 0.30274 0.40868-0.2364 1.2598-0.61281 1.8926-0.8379 0.77252-0.27478 1.0764-0.60713 0.92188-1.0098-0.1287-0.33537-0.007305-0.59961 0.27734-0.59961 0.9733 0 3.5006-3.0962 3.5098-4.3008 0.0046-0.63 0.36489-1.5995 0.79883-2.1543 0.43394-0.55477 0.79228-1.2482 0.79688-1.541 0.0057-0.3153 0.36594-0.4807 0.88477-0.4043 1.1556 0.17005 1.4697 1.1387 0.36914 1.1387-0.90216 0-1.1702 1.0338-0.33984 1.3106 0.36188 0.12063 0.30869 0.35735-0.18945 0.85547-0.45673 0.45674-0.61507 1.0583-0.4707 1.7832 0.26495 1.3302-0.44993 3.3744-1.1484 3.2832-1.2056-0.15727-1.397 0.11112-1.3848 1.9473 0.0069 1.0541-0.27535 2.6416-0.62695 3.5293-0.60381 1.5239-0.75262 1.628-2.7012 1.873-1.1349 0.1427-2.3065 0.46242-2.6035 0.70899-0.46317 0.38445-2.523 0.67661-5.7188 0.8125-1.0847 0.0461-4.2168 2.0873-4.2168 2.748 0 0.82692-0.5319 0.56183-1.6133-0.80273-1.2887-1.6262-1.3167-3.8726-0.080079-6.4023l0.91406-1.8711-0.79102-1.3574c-0.43503-0.7466-0.91672-2.0831-1.0703-2.9707-0.15354-0.88763-0.50853-2.1585-0.78906-2.8242-1.5529-3.685-2.623-8.9538-2.623-12.92v-2.541l2.2207-0.13672zm10.488 14.992c0.35908 0 0.54144 0.18043 0.4043 0.40234-0.13714 0.22191-0.31955 0.4043-0.4043 0.4043s-0.26716-0.18239-0.4043-0.4043c-0.13715-0.22191 0.045227-0.40234 0.4043-0.40234zm5.0684 5.6484c0.235 0 0.31487 0.18042 0.17773 0.40234-0.13714 0.2219-0.32983 0.4043-0.42773 0.4043-0.097904 0-0.17773-0.1824-0.17773-0.4043 0-0.22192 0.19272-0.40234 0.42773-0.40234zm50.992 1.5762c0.13081 0.21167 0.05176 0.49929-0.17383 0.63867-0.22552 0.13938-0.41016 0.749-0.41016 1.3555 0 1.9901-5.1882 10.345-9.6855 15.594-1.1407 1.3314-2.3579 2.9652-2.7051 3.6309-0.34719 0.6657-0.76464 1.3012-0.92578 1.4121-0.16114 0.11094-0.6826 0.92879-1.1602 1.8164-0.47753 0.88764-1.496 2.4311-2.2617 3.4297-2.3492 3.0639-3.8379 5.2659-3.8379 5.6758 0 0.21499-0.43995 0.28117-0.97656 0.14649-1.3091-0.32858-5.3238 0.5348-6.1016 1.3125-0.34288 0.34288-1.2698 0.71177-2.0605 0.81836-2.0969 0.28258-4.1758 1.2471-4.1758 1.9375 0 0.32988 0.24899 0.59961 0.55469 0.59961 0.30568 0 0.78236 0.2726 1.0586 0.60546 0.84 1.0122 1.7415 0.76045 1.4492-0.40429-0.14598-0.58166-0.078855-1.0078 0.1582-1.0078 0.22613 1e-5 0.41016 0.45303 0.41016 1.0078 0 0.55478 0.046092 1.144 0.10156 1.3105 0.05547 0.16644-0.41644 0.32115-1.0488 0.34375-0.63236 0.0228-1.2678 0.23253-1.4121 0.46485-0.1443 0.23232-0.71672 0.4846-1.2715 0.5625-0.82544 0.11584-1.0326 0.39907-1.1387 1.5547-0.16281 1.7735-0.64875 2.3061-1.4766 1.6191-0.34764-0.28854-0.69556-0.45234-0.77344-0.36524-0.4957 0.55436-4.2541 6.425-4.75 7.4199-0.33181 0.66573-0.8965 1.7562-1.2559 2.4219-0.35938 0.66573-1.1163 2.0667-1.6816 3.1133-0.56525 1.0467-1.0273 2.2116-1.0273 2.5898 0 0.37824-0.25747 0.97581-0.57031 1.3262-0.56143 0.62861-0.78278 1.3784-0.68945 2.3379 0.14178 1.4581 3.0452-1.9231 3.998-4.6562 0.55671-1.597 3.964-5.9627 6.9766-8.9414 2.2422-2.2169 5.2129-6.0487 5.2129-6.7227 0-0.19504 0.40461-0.5329 0.89844-0.75195 0.49378-0.21905 1.2989-1.0358 1.7891-1.8125 1.6211-2.5683 4.9939-5.3616 5.6641-4.6914 0.17486 0.17486-6.8405 8.7141-9.6562 11.754-0.41114 0.44381-1.6921 2.1944-2.8477 3.8906-1.1556 1.696-2.9109 4.1477-3.9004 5.4473-1.8741 2.4612-17.628 18.327-19.258 19.395-0.59495 0.38983-0.93164 1.0075-0.93164 1.7051-1e-6 0.62153-0.40293 1.4742-0.93359 1.9727-1.4808 1.3911-2.114 1.0284-0.78125-0.44727 0.62863-0.69597 0.70508-1.783 0.70508-9.916 0-8.7819 0.033447-9.1682 0.85938-9.9942 2.8556-2.8555 6.2012-9.0397 6.2012-11.461 0-0.91198 1.0835-4.5387 2.0449-6.8457 0.4162-0.99846 1.0569-2.905 1.4238-4.2363 0.36682-1.3314 0.9083-2.8951 1.2031-3.4746 0.64824-1.2741 0.19456-6.8734-0.57812-7.1309-1.0373-0.34579-2.1633-3.4578-2.377-6.5762-0.17864-2.6064-0.33853-3.1604-0.96484-3.3242-0.41333-0.10808-0.75195-0.37512-0.75195-0.59375 0-0.44433 1.9914-1.0515 2.332-0.71094 0.11984 0.1198 0.17936 1.3945 0.13281 2.832-0.046538 1.4375 0.10539 2.9679 0.33789 3.4023 0.53161 0.99332 4.574 2.5483 6.5781 2.5293 1.154-0.0114 1.6211 0.19381 1.9746 0.86719 0.25481 0.48537 0.98203 1.4781 1.6152 2.207 0.63317 0.72892 1.1523 1.5325 1.1523 1.7852 0 0.25268 0.76261 1.9725 1.6953 3.8203 1.1785 2.3346 1.9162 3.3594 2.4199 3.3594 0.89524 0 0.91808-0.78637 0.080078-2.7363-0.35455-0.82502-0.97952-2.4554-1.3906-3.623-0.41103-1.1675-1.5128-3.0306-2.4473-4.1387-0.93449-1.1082-1.6245-2.0689-1.5332-2.1348 0.09127-0.0659 2.0549-0.53368 4.3633-1.041 2.3085-0.50731 5.5758-1.5293 7.2617-2.2695 1.6858-0.74016 4.1549-1.7482 5.4863-2.2402 1.3314-0.49196 2.956-1.2782 3.6094-1.7461 0.65336-0.4679 2.328-1.485 3.7207-2.2617 3.1527-1.7582 9.8406-7.3202 13.473-11.205 1.5087-1.6139 2.8497-2.7624 2.9805-2.5508zm-50.008 1.8535c-0.40681 0-0.81579 0.22653-0.9082 0.50391-0.10648 0.31941 0.2268 0.50391 0.9082 0.50391 0.68141 0 1.0147-0.1845 0.9082-0.50391-0.09241-0.27738-0.50136-0.50391-0.9082-0.50391zm50.51 1.8145c0.23866 0 1.3359 1.0972 1.3359 1.3359 0 0.26553-1.5332 0.627-1.748 0.41211-0.21488-0.21487 0.14657-1.748 0.41211-1.748zm5.127 0.80664c0.0871 0 0.26291 0.27261 0.39063 0.60547 0.12774 0.33286 0.05474 0.60546-0.16016 0.60546-0.21494 1e-5 -0.39062-0.2726-0.39062-0.60546s0.07285-0.60547 0.16015-0.60547zm-0.73828 3.2285c0.23587-5.2e-4 0.95006 0.54525 1.5879 1.2109 1.4839 1.5489 1.2044 1.5489-0.60547 0-0.77668-0.66468-1.2182-1.2104-0.98242-1.2109zm3.6816 2.8242c0.22191 0 0.73308 0.36281 1.1348 0.80664 0.40157 0.44381 0.54808 0.80664 0.32617 0.80664s-0.73309-0.36283-1.1348-0.80664c-0.40157-0.44383-0.54808-0.80664-0.32617-0.80664zm3.3281 3.2266c0.23501 0 0.42773 0.18239 0.42773 0.4043s-0.07973 0.4043-0.17773 0.4043c-0.0979 0-0.2906-0.18239-0.42774-0.4043-0.13715-0.22191-0.05725-0.4043 0.17774-0.4043zm-76.588 0.8086c0.22192 0 0.29145 0.18043 0.1543 0.40234-0.13713 0.22191-0.43043 0.4043-0.65234 0.4043-0.22193 0-0.29145-0.18239-0.1543-0.4043 0.13714-0.22191 0.43044-0.40234 0.65234-0.40234zm78.613 0.82617c0.49249 0.0555 1.1509 0.31693 1.6875 0.75195 0.52388 0.42472 0.86094 0.86032 0.75 0.9668-0.34332 0.32953-2.9566-0.70086-3.1309-1.2344-0.12708-0.38876 0.20089-0.53987 0.69336-0.48437zm-84.398 2.6016c0.50551-0.0372 0.86031 0.11244 0.78711 0.33203-0.0732 0.21958-0.54496 0.552-1.0488 0.73828-0.73859 0.27322-0.89187 0.20847-0.78711-0.33203 0.07148-0.36882 0.54324-0.70108 1.0488-0.73828zm88.227 0.29297c0.28435-0.28436 1.8386 0.91734 1.7051 1.3184-0.27274 0.81756-1.3797 0.63886-1.6152-0.26172-0.1308-0.50035-0.17035-0.97604-0.08985-1.0566zm-92.129 1.7832c0.16234-0.0247 0.26898-0.0029 0.31836 0.0586 0.09881 0.12293-0.036988 0.40806-0.44141 0.8125-0.5555 0.55552-1.5332 0.64734-1.5332 0.14453 0-0.18629 0.45498-0.54606 1.0098-0.79883 0.26696-0.1216 0.48414-0.1921 0.64648-0.2168zm97.824 3.3711c0.09794 0 0.17774 0.18239 0.17774 0.4043 0 0.22179-0.19274 0.40429-0.42774 0.40429-0.23503 0-0.31487-0.1825-0.17773-0.40429 0.13715-0.22191 0.32983-0.4043 0.42773-0.4043zm-102.87 0.40039c0.10945 3e-3 0.15639 0.10836 0.15039 0.30664-0.01281 0.42489-5.2259 6.0249-5.2305 5.6191-0.0023-0.18241 1.0302-1.5896 2.2949-3.127 1.581-1.9219 2.4568-2.8099 2.7852-2.7988zm104.71 1.4062c0.51418-0.13628 4.6386 3.9414 4.9746 5 0.15002 0.47305 0.19812 0.85937 0.10742 0.85937-0.45778 0-5.1348-5.2586-5.1348-5.7734 0-0.0486 0.01843-0.07694 0.05273-0.08594zm8.0254 5.5c0.14812 0.0375 0.36297 0.16441 0.64258 0.39648 1.0455 0.86771 2.42 3.2615 2.7031 4.7051 0.34675 1.7688 0.06045 1.6488-0.97071-0.4043-0.47367-0.94299-1.3114-2.3169-1.8633-3.0527-0.53312-0.71084-0.78041-1.2538-0.75391-1.5039 0.0133-0.12512 0.09408-0.17812 0.24219-0.14062zm-76.896 4.8164c-0.71213 0.0249-1.3813 0.22128-1.8555 0.6504-0.40582 0.36725-0.73828 1.0606-0.73828 1.541-1e-6 0.4804-0.43796 1.2538-0.97266 1.7188-0.76222 0.66273-0.9494 1.1795-0.86523 2.3926 0.05901 0.85107 0.23037 1.8266 0.37891 2.168 0.38067 0.87507 0.12976 2.1105-0.67578 3.3398-0.82044 1.2522-0.86764 1.7626-0.18555 1.9922 0.27738 0.09334 0.83913 0.08266 1.248-0.02344 0.57873-0.15021 0.70807-0.49096 0.58594-1.5371-0.09939-0.85098 0.034165-1.4179 0.36524-1.5449 0.28755-0.11037 0.52344-0.56025 0.52344-1s0.31619-0.97679 0.70312-1.1934c0.65281-0.36526 0.63883-0.46324-0.20117-1.3574-1.2363-1.316-1.1358-1.9199 0.31836-1.9199 1.4097 0 1.9724-0.92618 1.2578-2.0703-0.40264-0.64472-0.34891-0.75391 0.36719-0.75391 0.46027 0 1.209 0.19979 1.6641 0.44336 0.63526 0.33999 0.96053 0.30902 1.4004-0.13086 1.3259-1.3259-1.1821-2.7895-3.3184-2.7148zm-47.18 1.043c0.063112 0.0191 0.10829 0.06508 0.13281 0.13868 0.08509 0.25548 0.090289 0.52034 0.011719 0.58984s-0.59563 0.25014-1.1504 0.40039l-1.0098 0.27344 0.99609-0.86524c0.31605-0.274 0.58076-0.44547 0.77734-0.51367 0.098305-0.0341 0.17907-0.04254 0.24219-0.02344zm128.16 1.5606c0.0589-0.11083 0.31287 0.28979 0.75782 1.2109 0.42876 0.88763 0.78496 2.0222 0.79296 2.5215 0.0103 0.66058-0.22068 0.90821-0.84375 0.90821-0.72321 0-0.77502-0.09517-0.34179-0.61719 0.40088-0.48314 0.41121-0.9566 0.04883-2.166-0.33687-1.1245-0.47297-1.7466-0.41407-1.8574zm3.582 6.2539c0.22191 0 0.40235 0.45496 0.40235 1.0098s-0.18044 1.0078-0.40235 1.0078c-0.2219 0-0.40429-0.45302-0.40429-1.0078s0.18239-1.0098 0.40429-1.0098zm-91.125 5.7637c-0.14697-0.0148-0.2973 0.01422-0.42188 0.07422-0.24914 0.12002-0.39935 0.36512-0.23633 0.6289 0.12168 0.1969 0.49917 0.25182 0.83984 0.1211 0.40455-0.15525 0.48288-0.3765 0.22461-0.63477-0.11551-0.11555-0.25927-0.17465-0.40625-0.18945zm-12.566 26.918c0.22191 0 0.4043 0.35247 0.4043 0.7832 0 0.43071-0.18239 0.89607-0.4043 1.0332-0.22883 0.14143-0.4043-0.19761-0.4043-0.7832 0-0.56786 0.1824-1.0332 0.4043-1.0332z" stroke-width="6.1555"/>
</svg>
