<?xml version="1.0" encoding="utf-8"?>
<svg xmlns="http://www.w3.org/2000/svg" version="1.1" viewBox="0 0 300 217">
	<title>On the left is a stork facing away from the viewer, with a long neck that curves around to the center. On the right is a phlox flower which has its base at the center and curves outwards to the right. The stork and the phlox have mirrored silhouettes and form a heart shape.</title>
	<path d="m260.26 0.0093838c-4.4437-0.054622-5.8576 0.10334-9.2832 1.0356-11.587 3.1532-22.665 10.1-28.407 17.815-0.60952 0.81887-1.332 1.6823-1.6058 1.9186-0.80008 0.69069-5.0072 7.0323-6.2392 9.4047-0.6219 1.1975-1.5975 2.8646-2.1678 3.7051-2.0039 2.953-8.0188 9.1559-11.262 11.614-1.8027 1.3663-3.4185 2.6783-3.5903 2.9156-0.1719 0.23727-0.31542 4.97e-4 -0.31905-0.52591-8e-3 -1.2862-0.51392-1.2053-1.594 0.25548-0.89374 1.2088-6.3607 5.5454-8.8171 6.9938-1.252 0.73825-1.2459 0.71989 0.19565-0.58323 0.81887-0.74024 2.3956-2.184 3.5038-3.2085 1.1082-1.0244 2.1912-1.8625 2.4065-1.8625 0.21522 0 1.2019-0.96821 2.1928-2.1516 1.2514-1.4947 1.6656-2.2875 1.3572-2.5959-0.30848-0.30848-0.94349 0.0639-2.0806 1.2195-0.90027 0.91482-2.9657 2.7822-4.59 4.1493-3.4211 2.8797-4.6693 4.2782-5.1308 5.7507-0.31404 1.0021-2.5313 3.4115-3.1392 3.4115-0.1571 0-0.88539 0.52682-1.6182 1.1702-2.8288 2.4833-5.8542 5.0336-6.9378 5.8485-0.62219 0.46792-1.7579 1.569-2.5242 2.4464-0.76637 0.87734-1.7566 1.5952-2.2002 1.5952-0.4437 0-0.80694 0.19284-0.80694 0.42871 0 0.23586-0.73972 0.72499-1.6438 1.0867-0.91964 0.36796-1.8521 1.1159-2.1173 1.698-0.2607 0.57222-0.66953 1.04-0.9085 1.04-0.23898 0-0.43492 0.21666-0.43492 0.48105 0 0.7732 3.5667 0.17576 5.2827-0.88483 0.94933-0.58674 1.5235-1.2714 1.5235-1.8171 0-1.0677 1.1435-2.0013 2.4744-2.0195 0.62996-0.0084 1.859-0.90587 3.4035-2.4862 3.3132-3.3901 7.3088-7.8344 7.3098-8.1305 4.2e-4 -0.1342 0.90928-0.80605 2.0201-1.4937 1.1109-0.68758 2.7243-1.8361 3.5848-2.5523 2.9006-2.4141 4.2134-3.4285 4.6222-3.5711 0.54814-0.19118 0.0185 1.1801-0.93655 2.4251-1.0095 1.3159-0.48758 2.222 0.54524 0.94651 0.593-0.73234 0.94008-0.85274 1.5185-0.52903 0.67239 0.37628 0.62966 0.47348-0.41125 0.94776-1.1096 0.50556-1.5758 1.2431-0.78573 1.2431 0.81659 0 6.2569-2.2211 6.8418-2.7934 0.78906-0.77194 0.11257-0.78115-1.741-0.02304-0.78893 0.3227-1.7847 0.4584-2.2127 0.30159-0.74189-0.27179-0.73763-0.33375 0.0922-1.3309 0.71881-0.86377 0.87278-0.91632 0.88484-0.30159 7e-3 0.40943 0.32577 0.74462 0.70662 0.74462 0.56526 0 0.64403-0.30126 0.42995-1.6401-0.2989-1.8691 0.0985-2.3776 2.9948-3.8335 3.153-1.5849 10.612-8.2141 10.127-8.9997-0.16892-0.27336 0.25299-1.0821 0.95711-1.8345 1.1776-1.2582 5.2174-7.4921 5.2174-8.0513 0-0.42195 3.3591-5.3404 3.8577-5.6486 0.25566-0.15802 0.79069-0.82325 1.1889-1.4781 0.39819-0.65478 2.3447-2.9474 4.3257-5.0946 3.5811-3.8817 7.1479-6.7081 11.309-8.9617 4.1392-2.2418 11.434-5.1308 13.455-5.3289 1.1156-0.10937 2.5175-0.38513 3.1156-0.61253 1.3587-0.51666 6.3183-0.5118 9.9656 0.00996 6.6227 0.94687 7.6249 1.1639 8.571 1.8538 0.54998 0.40106 1.6502 1.2012 2.4452 1.7784 0.79496 0.57714 1.9434 1.0532 2.5523 1.0568 0.72151 0.00482 1.6887 0.5973 2.7772 1.7017 0.91847 0.9319 1.8108 1.6943 1.9834 1.6943 0.76914 0 2.9398 3.6512 2.9398 4.945 0 0.75606 0.28712 1.6618 0.63806 2.0127 0.35094 0.35095 0.63808 1.0485 0.63808 1.5503 0 0.63763 0.22279 0.86977 0.73964 0.77017 1.0335-0.19905 1.1813-1.5251 0.28102-2.5199-0.71883-0.79426-1.1086-2.3764-0.74275-3.014 0.26267-0.45774 5.497 10.158 6.5433 13.271 0.51124 1.5208 1.1794 3.8179 1.4849 5.1046 0.30547 1.2868 0.84141 3.2967 1.1914 4.4665 1.2682 4.2386 2.0962 20.741 1.4724 29.351-0.29761 4.1087-1.2339 12.201-1.5011 12.975-0.12108 0.35095-0.26674 1.0207-0.32402 1.4886-0.43203 3.5275-2.8474 11.499-4.4403 14.656-3.3762 6.6909-7.0398 12.959-8.6046 14.722-0.42864 0.48299-0.7789 1.0207-0.7789 1.1951 0 0.17444-0.67038 1.1945-1.4892 2.267-0.81887 1.0724-1.4886 2.1683-1.4886 2.4345 0 0.66184-8.8325 9.2729-12.785 12.465-1.7674 1.4272-4.8928 4.1906-6.9452 6.1409-2.0525 1.9503-4.5684 4.0359-5.5906 4.6341-2.1764 1.2737-4.8711 3.7862-4.8771 4.5482h-6.1e-4c-7e-3 0.86848 0.72237 0.61501 2.3554-0.81877 0.84609-0.74289 2.5146-1.803 3.7082-2.356 1.3001-0.60237 3.5018-2.3205 5.4927-4.2858 1.8278-1.8041 4.2339-4.0907 5.3463-5.0815 1.1125-0.99079 2.6159-2.3309 3.3412-2.9778 5.75-5.1292 9.9332-9.3163 12.011-12.023 2.9992-3.9064 6.8755-9.5157 6.8755-9.9494 0-0.17559 0.54837-1.1194 1.2181-2.0974 0.66985-0.97799 1.3582-2.2263 1.5298-2.7741 0.17159-0.54782 1.1501-2.6253 2.1747-4.6167 4.3371-8.4296 6.1784-16.827 6.7907-30.97 0.17222-3.9773 0.30767-7.5191 0.30284-7.87-0.0498-3.2414-1.1413-15.582-1.7871-20.205-0.44478-3.1841-1.9768-9.0562-2.5504-9.7743-0.19107-0.23919-0.56412-1.4621-0.82873-2.7174s-0.8337-2.7872-1.2649-3.4035c-0.43123-0.61634-0.85964-1.3159-0.95152-1.5553-0.0918-0.23939-1.0185-1.9147-2.0594-3.7225-1.4961-2.5983-2.0976-3.287-2.8714-3.287-0.5648 0-0.97892-0.25683-0.97892-0.60754 0-0.33428-0.64135-1.2437-1.4256-2.0208-3.6681-3.6339-5.3262-4.9231-7.2942-5.6722-2.2808-0.86823-1.702-1.4184 0.72034-0.6848 5.018 1.5198 6.5604 2.4035 10.017 5.7364 1.6224 1.5645 2.3574 2.0224 2.6981 1.6818 0.336-0.33558 0.33974-0.70958 0.0124-1.321-0.74205-1.3865-4.3663-4.3773-6.4287-5.3053-1.0528-0.47366-2.8712-1.2943-4.0409-1.8239-1.1698-0.52957-4.2327-1.2775-6.8063-1.6625-2.5736-0.38488-5.5738-0.89737-6.668-1.1384-1.0941-0.24107-4.3486-0.46741-7.2319-0.50286zm-213.68 2.0943c-6.5281 0.046785-9.6795 0.32728-12.336 1.0992-3.4082 0.99011-9.9 3.5902-10.847 4.3444-0.35093 0.27945-1.3759 0.8815-2.2781 1.3378-2.0492 1.0365-7.0995 5.3022-9.6322 8.1354-2.1078 2.358-4.6804 7.2248-6.9309 13.113-3.0197 7.9006-3.4623 9.6659-4.2877 17.103-0.72221 6.5071 0.052525 18.072 1.6176 24.15 0.60111 2.3343 1.0993 4.5352 1.1073 4.8915 0.00793 0.35631 0.38481 1.414 0.83684 2.3498 0.45205 0.93583 0.82829 2.1207 0.83622 2.6333 0.00793 0.5126 0.19093 1.0411 0.4069 1.1746 0.21596 0.13347 0.52296 0.86305 0.68232 1.6207 0.48897 2.3249 3.362 8.0794 5.7769 11.572 1.2617 1.8247 2.7263 3.9613 3.2552 4.7475 0.52887 0.78634 1.7245 2.436 2.657 3.6658 0.93237 1.2298 1.6963 2.3945 1.6974 2.5884 0.0017 0.32108 3.4081 4.4515 5.2124 6.3203 0.40942 0.42405 0.74462 0.9377 0.74462 1.1409 0 0.20322 1.6835 2.092 3.7412 4.1973 3.8188 3.9071 6.5972 7.6404 6.1838 8.3093-0.1267 0.20501-0.50269-0.0156-0.8356-0.49103-0.62912-0.89819-1.8581-0.79815-1.8581 0.15142 0 0.29434 0.40268 1.0474 0.89479 1.6731 0.77434 0.98444 1.1601 1.1209 2.865 1.0144 1.7935-0.11208 1.9751-0.0356 2.0258 0.85306 0.06707 1.1778 2.1453 5.1939 3.0719 5.9365 0.89658 0.7183 3.025 0.67467 3.31-0.0679 0.34277-0.89325-1.0079-3.2118-2.1167-3.6334-1.0836-0.41199-2.124-1.8218-2.5268-3.424-0.14701-0.5849-0.82044-1.4295-1.4968-1.8774-0.67634-0.44796-1.6867-1.6873-2.2457-2.7542-1.8771-3.5823-3.6633-6.198-6.0698-8.89-1.3151-1.4711-2.3909-2.8312-2.3909-3.0221 0-0.19095-0.52621-0.90143-1.1696-1.579-0.64339-0.67756-2.557-3.0502-4.2521-5.2729-2.3027-3.0191-3.0825-4.3776-3.0838-5.3707-0.0016-1.1361-0.18732-1.3665-1.278-1.5846-0.70188-0.14037-1.2761-0.47355-1.2761-0.74089s-1.0755-1.9147-2.3897-3.6608c-2.4084-3.2001-2.6057-3.5378-4.5537-7.7853-1.4226-3.1018-4.3069-11.902-4.9495-15.101-0.28196-1.4038-0.67747-3.3182-0.87922-4.2541-0.72204-3.3492-0.7893-3.8666-0.88359-6.8057-0.052532-1.6377-0.27201-3.6271-0.4879-4.4204-0.40574-1.491 0.51261-12.369 1.4406-17.062 1.1986-6.0607 4.1441-13.361 7.0363-17.44 1.5949-2.2493 2.2191-2.8053 4.922-4.3849 1.1113-0.64947 2.0207-1.348 2.0207-1.5522 0-1.4098 14.111-9.3767 16.608-9.3767 0.66115 0 1.741-0.20603 2.3997-0.45799 2.1474-0.82157 12.016-0.95935 14.914-0.20812 1.4135 0.36628 3.0212 0.68015 3.5723 0.69727 0.55113 0.017122 2.3422 0.87531 3.9799 1.9067 1.6377 1.0314 3.5041 2.0888 4.1475 2.3498 0.64339 0.26105 1.1696 0.64758 1.1696 0.85866 0 0.21106 0.25823 0.38321 0.5739 0.38321 0.31566 0 1.5123 1.0511 2.6589 2.3355 1.1466 1.2843 3.3624 3.6935 4.9245 5.3539 1.5621 1.6603 3.1382 3.6458 3.5019 4.4123 0.36375 0.76654 0.98373 1.6593 1.3777 1.984 0.39399 0.32468 1.3895 1.6413 2.2127 2.9255 0.82315 1.2843 2.2826 3.1988 3.2427 4.2541 0.96015 1.0553 2.2414 2.5883 2.847 3.4072 4.1923 5.6679 12.425 10.88 17.988 11.388l2.5324 0.23117-1.351-1.6387c-0.74277-0.9011-1.2863-1.7022-1.2076-1.7808 0.0786-0.07863 0.94681 0.3829 1.9285 1.0257 1.2583 0.82384 1.7264 1.392 1.5864 1.9266-0.12178 0.46567 0.0354 0.75896 0.40752 0.75896 0.33337 0 2.6606 0.6651 5.1712 1.4781 5.1247 1.6593 6.6203 2.8479 9.6484 7.6675 2.1552 3.4303 2.9199 4.2191 6.402 6.6038 3.6857 2.5241 4.2766 2.9931 7.6849 6.1034 3.1343 2.8604 3.7748 4.2303 0.72095 1.5423-1.1087-0.97594-2.5925-2.0441-3.2969-2.3741-0.70445-0.33-2.9078-1.4585-4.8964-2.5074-4.0132-2.117-4.2533-2.1905-4.2533-1.3054 0 0.33997 0.67635 0.93905 1.5036 1.3317 1.7747 0.84216 1.6372 1.3749-0.16264 0.62935-0.68121-0.28222-1.5013-0.46046-1.822-0.39631-0.3206 0.06414-1.297-0.12757-2.1698-0.42559-0.87277-0.2985-1.7683-0.4294-1.9902-0.29224-0.83169 0.51403-10.032-2.1809-13.225-3.8739-4.671-2.4764-5.7762-3.2814-9.8789-7.1976-1.573-1.5013-3.041-2.7299-3.2626-2.7299-0.22167 0-0.52393-0.55027-0.67172-1.2232-0.1478-0.67291-1.0338-1.965-1.9684-2.8713-3.2034-3.1065-17.013-20.138-19.974-24.635-1.191-1.8082-5.3264-5.9888-7.6738-7.7572-4.5493-3.4274-10.433-5.6472-16.588-6.258-2.3142-0.22971-10.516 1.1174-12.936 2.1249-2.8641 1.1925-6.0703 4.6849-8.394 9.1417-2.3888 4.5819-2.433 12.31-0.1053 18.372 1.7259 4.4944 7.7644 11.434 9.4023 10.805 0.30848-0.11841 1.7628 0.52765 3.2321 1.4357 1.4693 0.90801 4.2025 2.4599 6.0741 3.4484 1.8717 0.98842 4.2145 2.46 5.2062 3.2702 1.0981 0.89703 2.0639 1.3728 2.47 1.2169 0.4066-0.15602 1.0312 0.15309 1.6002 0.79199 0.51322 0.57628 1.9858 1.6773 3.2726 2.447 1.2868 0.76967 3.5605 2.2583 5.0522 3.3081 3.4666 2.4396 3.5026 2.4642 7.2469 4.8777 3.7487 2.4165 8.1217 6.6764 10.6 10.326 2.989 4.4015 5.0013 4.6483 2.3778 0.29162-0.8237-1.3679-1.7923-3.1074-2.1522-3.8659-0.91102-1.9198-7.5412-8.3498-10.363-10.05-1.2868-0.7754-3.2967-2.118-4.4665-2.9835-5.181-3.833-10.954-7.0513-12.178-6.7889-0.41242 0.088381-1.4454-0.70045-2.5523-1.9491-1.0227-1.1537-2.4336-2.4099-3.1355-2.7916-0.70188-0.3817-1.5633-0.87437-1.9143-1.0948-0.35093-0.22046-2.179-1.2657-4.0621-2.3224-1.8832-1.0567-3.8765-2.4034-4.4303-2.9928-0.55378-0.58948-1.8849-1.4897-2.9573-2.0002-3.8218-1.8191-4.8115-3.0662-6.8063-8.5747-0.7614-2.1023-0.87565-3.2266-0.75709-7.4437 0.1261-4.4848 0.24646-5.1366 1.2419-6.7047 2.0885-3.2903 4.5542-5.0344 12.029-8.5074 2.1015-0.97667 10.102-0.98343 13.187-0.01176 8.8602 2.7905 12.609 5.8384 20.982 17.062 1.9201 2.5736 4.2231 5.5404 5.1183 6.5933 0.89516 1.0528 1.8795 2.393 2.1872 2.9778 0.78824 1.4985 6.7973 8.4728 7.7304 8.9723 0.42582 0.2279 1.1468 1.1447 1.602 2.037 0.4552 0.89229 1.3651 1.9736 2.022 2.4028 0.65687 0.42923 2.3504 1.8972 3.7636 3.262 3.1362 3.0287 4.4338 3.9203 9.3412 6.4206 5.8845 2.9981 9.9066 4.2037 15.101 4.5275 4.3069 0.26852 4.6328 0.36111 9.1124 2.5797 2.5551 1.2655 5.6126 3.027 6.7945 3.9151 1.1819 0.88807 2.4584 1.6151 2.8365 1.6151 0.37808 0 1.5552 0.95692 2.6165 2.1267 1.7783 1.9603 3.3125 2.7435 3.3125 1.6912 0-0.4007-3.2787-5.8828-3.8097-6.3702-0.12748-0.11697-0.69835-0.88288-1.2687-1.7017-0.57032-0.81886-1.4112-1.7583-1.8687-2.0874-0.45748-0.32915-1.2308-1.0574-1.7185-1.6182-0.48766-0.56086-1.7522-1.579-2.8102-2.2625-5.3439-3.4525-7.04-4.9485-8.3224-7.3397-0.71184-1.3273-1.813-2.9542-2.4464-3.6153-0.63341-0.66116-1.1515-1.6629-1.1515-2.2264 0-1.0798-4.3096-5.4985-7.2313-7.4138-0.81886-0.53683-1.8537-1.3835-2.2994-1.8819-1.0198-1.1401-1.9547-1.1668-1.9547-0.05545 0 1.1358-0.26612 1.079-1.9791-0.42496-1.7154-1.5061-2.1902-1.5789-2.6259-0.40129l-0.32402 0.87486-0.79199-0.87486c-0.43558-0.4813-1.1337-0.87486-1.5516-0.87486-0.41785 0-0.87793-0.19163-1.0225-0.42559-0.39491-0.639-2.3398-0.51622-2.3398 0.14768 0 0.31514 0.38326 1.0145 0.85118 1.554 1.0642 1.227 1.107 1.6399 0.0729 0.70412-0.42785-0.3872-0.90661-0.70412-1.0637-0.70412-0.59742 0-0.25011 1.1764 0.56518 1.9143 1.5636 1.4151 0.87443 1.4808-1.3827 0.1321-1.2283-0.73396-2.7114-1.581-3.2963-1.8825-2.3382-1.2051-9.8537-9.2129-12.713-13.547-0.61146-0.92663-1.6113-2.1713-2.2221-2.7654-0.61081-0.59412-1.4292-1.7026-1.8189-2.4632-0.38963-0.76056-2.1872-2.9966-3.9941-4.9688-1.8071-1.9722-4.418-4.8345-5.8018-6.3608-1.8076-1.9937-3.3944-3.2271-5.6361-4.3805-1.7161-0.88305-3.1205-1.7314-3.1205-1.885 0-1.3215-9.3096-3.9791-13.824-3.9469zm205.78 4.9208c-0.23017-0.061134-0.60643-0.036203-1.1902 0.058573-2.936 0.47646-11.179 5.3412-10.61 6.2617 0.27288 0.44151 0.74054 0.21093 5.6641-2.791 1.7162-1.0463 3.4389-1.9044 3.8284-1.908 1.4383-0.012058 2.6228-0.53733 2.6228-1.1634 0-0.24992-0.0845-0.39679-0.31468-0.45799zm6.9995 0.45736c-0.70188-0.058482-1.3383-0.046189-1.7878 0.066673-1.6876 0.42357-0.93087 0.96 1.7927 1.2712 1.3505 0.15429 2.7255 0.44908 3.0551 0.6549 0.6108 0.38127 1.7404 0.16085 1.7404-0.33961 0-0.66314-2.6949-1.4776-4.8006-1.6531zm11.821 2.09c-0.15347 0.15347 0.64491 2.2024 1.774 4.5531 1.8546 3.8613 3.1162 5.3544 3.1162 3.6883 0-2.3358-4.0204-9.1111-4.8902-8.2414zm6.9372 0.35581c-0.98844 0-0.96965 0.22692 0.14707 1.7952 1.1588 1.6273 2.4468 7.7003 2.4688 11.64 0.01 1.6572 0.15497 3.1516 0.32402 3.3206 0.16907 0.16906 0.55168-0.0275 0.85057-0.43618 0.87148-1.1918 0.83714-2.8278-0.14207-6.7484-0.35062-1.4038-0.69619-3.5289-0.76768-4.7226-0.14503-2.421-1.5872-4.8484-2.8806-4.8484zm-20.962 1.2849c-1.3624 0.02858-2.747 0.16654-4.1038 0.42123-7.3889 1.387-16.048 5.3978-20.44 9.4677-1.3943 1.2919-2.3507 1.8732-2.799 1.7011-0.49963-0.19172-0.61103-0.07839-0.41811 0.42434 0.18613 0.48506-0.01 0.7241-0.67048 0.81816-0.55511 0.07899-1.2181 0.70191-1.635 1.5366-0.3856 0.77209-1.3906 2.0735-2.2332 2.8919-0.8427 0.8184-1.5323 1.6575-1.5323 1.8643 0 0.20693-0.38265 0.49767-0.85056 0.64617-0.46792 0.14851-0.85054 0.46212-0.85054 0.69665 0 0.49849-2.1044 3.5953-3.2932 4.8466-0.45157 0.47535-1.4406 1.72-2.1977 2.7654-1.7498 2.416-7.1405 8.0242-10.577 11.004-2.7598 2.393-3.1569 3.0214-1.9049 3.0178 1.4361-0.0048 10.139-8.2988 13.835-13.185 0.97332-1.2868 2.494-3.1484 3.3791-4.1375 0.88518-0.9891 1.6095-1.9714 1.6095-2.1828 0-0.63564 9.3928-9.9867 11.948-11.895 3.2188-2.4038 6.4083-4.1781 11.125-6.1869 1.7447-0.74312 10.654-2.3972 12.912-2.3972 1.4512 0 5.2297 1.2076 7.756 2.4788 2.725 1.3711 5.8269 6.5054 6.4861 10.734 0.54988 3.5283-0.38961 8.556-2.1815 11.672-0.67279 1.1698-1.6395 2.8926-2.1478 3.8284-1.0402 1.9146-6.4073 7.2487-9.3138 9.2565-1.0528 0.72727-2.0098 1.4469-2.1267 1.5995-0.11701 0.15268-1.1219 0.80588-2.2332 1.4512-1.1113 0.64537-2.0208 1.3055-2.0208 1.4668 0 0.16128-0.6217 0.65507-1.3821 1.0973-0.76038 0.44225-1.4782 0.92925-1.5952 1.0824-0.11701 0.15312-1.5526 1.1676-3.1904 2.2545-1.6378 1.0868-3.4566 2.316-4.0415 2.7311-0.58487 0.41513-1.678 1.0863-2.4296 1.4917-0.75158 0.40544-3.6228 2.2145-6.3807 4.0203-2.7578 1.8059-5.5359 3.5799-6.1732 3.9424-0.6373 0.36253-1.6903 1.0984-2.3398 1.635-0.64947 0.5366-3.1907 2.4492-5.6473 4.2503-4.6264 3.392-11.208 9.6427-14.431 13.707-1.0196 1.2852-2.4015 3.4852-3.0707 4.889-0.66924 1.4038-1.7902 3.6003-2.4906 4.8808-0.70044 1.2807-1.3771 3.0034-1.5036 3.8284-0.12645 0.82498-0.63709 3.0316-1.1353 4.9033-0.7435 2.7932-0.90817 4.6356-0.9166 10.28-7e-3 5.1735 0.13274 7.049 0.56643 7.5715 0.78074 0.94074 1.1741 0.48644 3.629-4.1967 1.0915-2.0822 2.4298-4.2837 2.9741-4.8921 0.54431-0.60838 2.5859-2.8593 4.5369-5.0024 1.951-2.1431 4.4789-4.9722 5.618-6.2867s2.4645-2.6008 2.9454-2.8582c0.83242-0.4455 0.82629-0.38852-0.12775 1.182-2.2061 3.6316-3.9059 7.315-6.1608 13.348-0.30604 0.81886-0.95864 2.5188-1.45 3.778-0.49135 1.2591-1.0901 3.9394-1.3303 5.9558-1.043 8.7523-1.7034 13.221-2.3765 16.073-0.67632 2.8668-0.6765 3.1407 4e-3 4.573 0.39766 0.83796 0.86712 1.5235 1.0431 1.5235 0.17599 0 0.55862-0.66075 0.85055-1.4681 0.29659-0.82021 0.75712-1.3852 1.0431-1.2805 0.67135 0.24561 1.1237-0.11508 2.5592-2.0408 0.65561-0.8795 1.8984-1.9624 2.7622-2.4065 0.86379-0.44405 2.4323-1.5845 3.4851-2.5342 2.2041-1.9881 2.7114-1.6173 1.106 0.8088-0.60828 0.91918-1.106 1.8357-1.106 2.0363 0 0.62388-5.9403 9.0729-8.5642 12.18-2.3434 2.7756-3.0834 4.6089-2.2121 5.4804 0.47759 0.47675 2.4375 0.28953 3.2253-0.30844 0.91239-0.6926 0.94364-1.2655 0.10656-1.9604-0.98947-0.82116-0.7833-1.447 1.2107-3.6758 1.0169-1.1366 2.0913-2.545 2.3878-3.1299 1.3275-2.6184 3.548-5.4543 4.1038-5.2411 0.39033 0.14979 0.49757 0.57974 0.32028 1.2862-0.22042 0.87834-0.12837 1.0352 0.53464 0.90912 0.52189-0.0992 1.4685-1.4956 2.7155-4.006 1.0528-2.1195 2.3668-4.5685 2.9199-5.4423 0.70973-1.1213 0.93406-1.9472 0.76206-2.8072-0.22861-1.1431 0.35018-2.2962 2.0513-4.0851 0.57583-0.60557 1.9866-2.4248 4.0995-5.286 2.7566-3.7328 3.2714-4.1719 4.8373-4.1276 1.0439 0.0296 1.9294-0.38047 3.3692-1.5603 1.0743-0.88027 1.9535-1.7794 1.9535-1.9977 0-0.70668-1.1224-0.42039-1.9535 0.49787-0.44516 0.49187-1.3363 1.1668-1.9803 1.4998-1.029 0.53209-1.1708 0.52669-1.1708-0.0406 0-0.35492 0.62234-1.4914 1.3827-2.5262 0.76036-1.0347 2.8178-3.9097 4.5724-6.3882 1.9496-2.7537 3.5626-4.6058 4.1475-4.7619 1.2738-0.33999 1.2232-1.0138-0.0761-1.0138-1.0229 0-1.4715 0.34553-2.8869 2.2227-0.7446 0.98756-1.9616 2.5338-5.5446 7.0438-1.1113 1.3989-2.0208 2.8095-2.0208 3.1349 0 0.66091-1.6786 2.7986-4.9544 6.3091-1.2041 1.2904-2.8308 3.1352-3.6153 4.0995-0.78445 0.96434-2.0487 2.1856-2.809 2.7137-0.76037 0.52805-1.3827 1.2427-1.3827 1.5883 0 0.6214-0.6945 1.2699-3.9643 3.7007-2.048 1.5226-1.5872 0.39655 0.75333-1.8401 1.2904-1.2331 1.8824-2.1735 1.3678-2.1735-0.20207 0-5.4854 5.259-8.4289 8.3903-1.369 1.4563-2.4893 2.5509-2.4893 2.432 0-0.48578 2.1425-4.4008 2.5442-4.6491 0.53903-0.33314 0.57343-1.4943 0.0443-1.4943-0.21413 0-1.4107 1.6145-2.6589 3.5873-3.4248 5.4134-3.3878 5.3689-3.1798 3.8571 0.0966-0.70187 0.57774-2.8073 1.0693-4.679 0.49151-1.8717 1.0765-4.9346 1.3005-6.8063 0.22395-1.8717 0.62833-4.7204 0.89852-6.3302l0.49164-2.9268 3.9867-3.948c2.1927-2.1714 4.0397-4.137 4.105-4.3681 0.32564-1.1518-1.0607-0.18005-4.2248 2.9616l-3.4932 3.4689 0.44613-1.66c0.46009-1.7111 2.8366-6.8731 6.2474-13.571 1.8975-3.7262 4.8742-7.7653 8.6477-11.735 1.0199-1.0729 2.079-2.0297 2.3535-2.1267 0.27446-0.09695 1.3269-0.94824 2.3392-1.8918 1.0123-0.94354 3.5634-3.0443 5.6691-4.6678 4.0997-3.161 4.5321-3.5879 4.1899-4.1419-0.43881-0.71003-1.8824 0.07055-6.8749 3.7187-2.578 1.8838-7.6349 6.2-9.4209 8.0413-1.043 1.0753-2.1008 1.9553-2.3511 1.9553-0.25033 0-0.78264 0.38264-1.1833 0.85056s-1.0176 0.85055-1.3709 0.85055c-0.35322 0-0.64242 0.17117-0.64242 0.38011 0 0.20893-0.30844 0.49839-0.68544 0.64305-0.47974 0.18409-0.61442 0.0792-0.44988-0.34956 0.50949-1.3276 0.78453-3.6508 0.43245-3.6508-0.39125 0-1.3816 2.1048-2.2438 4.7687-0.33737 1.0422-1.2605 2.188-2.7168 3.3723-3.389 2.7561-6.2468 5.5923-6.2468 6.1994 0 1.0194 1.311 0.55569 2.04-0.72157 0.77852-1.3639 1.7884-2.016 1.7884-1.1546 0 0.28999-1.7451 2.2461-3.8776 4.3468-2.1326 2.1008-4.7203 5.1026-5.7501 6.6705-1.0298 1.5679-2.0363 2.952-2.2364 3.0756-0.55813 0.34498-0.88162-2.5013-0.64242-5.6492 0.11832-1.5561 0.71407-4.935 1.3241-7.5085 0.61002-2.5736 1.2732-5.3832 1.4742-6.2437 0.20106-0.86048 1.0556-2.5833 1.8987-3.8284 0.843-1.2451 1.7271-2.8386 1.9647-3.5405 0.53509-1.5804 1.9276-3.4721 4.9774-6.7615 3.8971-4.2032 7.0433-7.2145 8.7112-8.3392 0.86743-0.5849 1.8977-1.372 2.29-1.7491 1.8131-1.7433 16.399-11.422 22.367-14.841 1.0208-0.5849 2.5955-1.5942 3.5001-2.2426 3.2147-2.3044 8.6258-5.8399 8.938-5.8399 0.17435 0 0.80618-0.46222 1.4039-1.0275 0.59771-0.5653 2.1225-1.7059 3.3885-2.5342 5.3848-3.523 12.417-11.617 13.055-15.028 0.1664-0.88849 0.53837-2.19 0.82689-2.8919 0.94395-2.2962 1.183-8.6293 0.43306-11.477-0.75257-2.8572-4.7122-9.0712-6.6673-10.463-2.3819-1.6961-6.2741-2.5962-10.361-2.5106zm12.355 0.90164c-0.64578 0.12923-0.53117 0.39955 0.74273 1.7484 2.3465 2.4848 3.3374 2.0967 1.2064-0.47233-0.72839-0.87811-1.4799-1.3701-1.9491-1.2761zm13.709 0.5365c-0.16279-0.0709-0.33045-0.04084-0.48789 0.11652-0.35149 0.35147-0.36533 2.8224-0.0212 3.7193 0.14201 0.37007 0.52465 0.67235 0.85056 0.67235 0.41624 0 0.59259-0.55382 0.59259-1.8618 0-1.3128-0.44566-2.4338-0.93407-2.6464zm-45.383 1.531c-0.53678 0-5.1538 3.8572-5.1538 4.3058 0 0.64531 0.42159 0.42605 3.0102-1.5659 2.3296-1.7926 3.0708-2.7399 2.1435-2.7399zm-6.2617 5.1046c-0.40889 0-3.7618 2.3369-5.269 3.6727-1.6901 1.4977-3.8321 4.54-3.8321 5.4429 0 1.1779 0.73647 0.71933 2.0644-1.2855 0.7116-1.0743 1.3518-2.0793 1.4226-2.2332 0.19675-0.42776 3.8327-3.2722 4.9146-3.8446 0.84881-0.44918 1.3692-1.7523 0.69977-1.7523zm55.394 6.8057c-0.58402 0-1.0964 1.2299-1.1073 2.6589-7e-3 0.92801 1.0879 0.98272 1.4375 0.07165 0.4634-1.2077 0.27925-2.7305-0.33026-2.7305zm-1.6344 6.1141c-0.18539 0.05668-0.37995 0.19624-0.55705 0.43618-0.32777 0.44389-0.49531 0.9701-0.372 1.1696 0.3767 0.60951 1.3432 0.40426 1.6313-0.34646 0.32738-0.85315-0.14604-1.4293-0.70225-1.2593zm-1.1951 3.6701c-0.22573 0-0.41064 0.37396-0.41064 0.83124 0 0.45729-0.47814 1.3101-1.063 1.8949-0.58487 0.5849-1.0636 1.2634-1.0636 1.5079 0 0.58851 0.98196 0.56901 1.5827-0.03179 0.35218-0.35226 0.41542-0.0188 0.24173 1.2761-0.19043 1.4199-0.10572 1.7529 0.44431 1.7529 0.97729 0 1.5597-1.3505 1.5597-3.6159 0-2.0266-0.56745-3.6153-1.2911-3.6153zm-6.638 1.8345c-0.36457-0.13012-1.8544 3.0704-1.8544 3.9836 0 0.07524 0.29134 0.13709 0.64804 0.13709 1.0744 0 2.1792-3.7735 1.2064-4.1206zm-175.08 6.2474c0.23758 0 0.54204 0.28713 0.67671 0.63807 0.13467 0.35093 0.17821 0.63807 0.0972 0.63807-0.081 0-0.38546-0.28714-0.67671-0.63807-0.30523-0.36778-0.34619-0.63807-0.0972-0.63807zm190.15 0.85117c-0.71867 0-2.3166 4.7322-1.8519 5.4841 0.81946 1.3259 1.7616-0.09032 2.1852-3.2838 0.2368-1.7851 0.17409-2.2002-0.33335-2.2002zm-181.53 0.83996c0.27714 0.0891 0.6593 0.26834 1.0799 0.51656 1.1743 0.69288 1.606 0.778 1.86 0.36701 0.40192-0.65032 2.1411 0.12091 2.1411 0.94964 0 0.32806-0.69224 0.51718-1.895 0.51718-1.5517 0-1.9733-0.1731-2.3304-0.95711-0.23985-0.52641-0.63152-0.95711-0.8705-0.95711-0.23897 0-0.43431-0.1852-0.43431-0.41126 0-0.11303 0.17213-0.11402 0.44927-0.02492zm-2.313 0.25424c0.20981 0.0048 0.52671 0.14278 1.0543 0.41561 0.67906 0.35115 1.2351 0.72965 1.2351 0.84059 0 0.11106-0.14357 0.1728-0.31904 0.13771-0.17547-0.03509-0.83502-0.14243-1.4656-0.23866-0.77503-0.11828-1.072-0.36975-0.91599-0.7764 0.0987-0.25708 0.20145-0.38415 0.41126-0.37886zm166 2.3542c-0.57733-0.02798-1.2803 0.60924-1.9865 1.8345-0.39375 0.68312-1.2742 1.7541-1.9566 2.3796-0.86252 0.79061-1.153 1.3672-0.95212 1.8905 0.27055 0.70505 0.34925 0.70788 1.2406 0.04735 0.52355-0.38797 1.4782-0.92982 2.1212-1.2045 0.78517-0.33545 1.097-0.72665 0.94963-1.1908-0.12062-0.38003 0.19143-1.213 0.69353-1.8513 0.69086-0.87828 0.7934-1.2803 0.42122-1.6525-0.15997-0.15997-0.33846-0.24366-0.5309-0.25299zm-157.53 0.14768c0.0877-0.02931 0.28683 0.05377 0.62998 0.23741 0.46265 0.2476 0.84121 0.53928 0.84121 0.64805 0 0.50502-1.2135 0.12369-1.4338-0.45051-0.10142-0.2643-0.1251-0.40568-0.0374-0.43493zm79.225 1.5085c0.39741 0 0.19067 0.49228-0.61192 1.4581-1.1166 1.3438-1.8495 1.8545-1.8495 1.2892 0-0.59372 1.9294-2.7473 2.4614-2.7473zm-84.942 3.9069c-0.35066-0.03017-0.68205-0.0052-0.98764 0.07354-1.2223 0.31504-2.0339 1.4887-2.0339 3.4172 0 1.2603 1.7098 2.8326 3.4814 3.2009 4.4397 0.92314 6.2415-1.962 3.0508-4.8847-1.2323-1.1287-2.4587-1.7165-3.5107-1.807zm0.36328 1.731c0.25727 0.04116 0.56031 0.15213 0.90476 0.33648l0.95399 0.51033-0.88233 0.69229c-0.4851 0.38075-0.96499 1.0749-1.0668 1.5429-0.21487 0.98775-0.54498 0.36915-0.868-1.6282-0.11524-0.71255 6e-3 -1.1764 0.32839-1.3696 0.16121-0.09664 0.3727-0.12528 0.62997-0.08412zm87.187 0.5309c-0.75877 0.0996-1.6398 0.41275-2.4252 0.91037-1.0424 0.66043-0.8633 1.6519 0.22305 1.2351 0.52948-0.20316 0.55734-0.13395 0.14519 0.36266-0.2805 0.33801-1.2592 0.74137-2.1747 0.89604-0.91549 0.15467-2.1012 0.61113-2.6345 1.0144-1.1805 0.89275-6.5513 3.448-7.263 3.4552-0.28193 0.0024-1.5774 0.54558-2.8788 1.2058-1.3014 0.66017-2.7845 1.3099-3.2963 1.4437-0.5118 0.13384-0.93093 0.54998-0.93093 0.92471 0 0.94216 3.3744 0.80988 6.0779-0.23804 1.12-0.43413 2.4596-0.80771 2.9772-0.83062 1.5984-0.0709 10.513-5.4243 10.513-6.3134 0-0.22563 0.87152-1.01 1.9366-1.7429 1.6014-1.1018 1.8471-1.4398 1.4207-1.9535-0.29519-0.3557-0.93116-0.46917-1.6899-0.36951zm70.137 0.41375c-0.66914 0.18887-1.6402 1.1167-2.0874 2.1374-0.20504 0.46792-0.78345 1.3626-1.2855 1.9877-0.51297 0.63872-0.80027 1.4304-0.65554 1.8077 0.42433 1.1057 0.82763 0.78052 2.961-2.389 1.3843-2.0567 1.8995-3.1683 1.6051-3.4627-0.12532-0.12532-0.3147-0.14393-0.53774-0.081zm23.246 1.1391c-0.48144 0.09272-0.90875 0.71273-1.1278 1.6369-0.19402 0.8185-0.53856 1.8168-0.7658 2.2184-0.56659 1.0012-1.27 4.2514-1.0107 4.671 0.7508 1.2149 1.8039-0.33298 2.5728-3.7817 0.35504-1.5923 0.74931-3.3448 0.8761-3.8945 0.18423-0.79861 0.0749-0.96918-0.5446-0.84992zm-103.75 0.85117c-0.20925-0.06342-0.66454 0.1368-1.4906 0.56392-1.2171 0.62941-2.994 2.5622-2.994 3.2564 0 0.20241 0.33521 0.36782 0.74463 0.36764 0.99959-4.7e-4 4.667-1.4125 5.2921-2.0376 0.73548-0.73547 0.1332-1.0844-0.90913-0.52653-0.82947 0.44391-0.87963 0.39589-0.62873-0.6038 0.15801-0.6296 0.19492-0.95662-0.0143-1.0201zm93.119 4.6136c-0.36289 0-0.93386 0.65711-1.2693 1.4599-0.33545 0.80286-0.80434 1.5798-1.0418 1.7267-0.2375 0.14688-0.43182 0.71388-0.43182 1.2599 0 0.54606-0.31034 1.1118-0.6898 1.2575-0.51066 0.19596-0.62428 0.5936-0.4368 1.531 0.20591 1.0294 0.01 1.516-1.0506 2.6003-0.97834 1.0008-1.2514 1.6095-1.0936 2.4352 0.14138 0.7395-0.38626 2.3612-1.6071 4.9432-0.99931 2.1136-2.6008 5.5077-3.5593 7.5422-0.95839 2.0345-2.1255 3.9039-2.5935 4.1543-0.46793 0.25043-1.4796 1.4777-2.2482 2.7274-1.8417 2.9948-6.2294 8.9267-8.3784 11.326-0.94285 1.0528-2.2461 2.5614-2.8962 3.353-0.65021 0.79161-2.6792 2.9932-4.509 4.8921-3.801 3.9447-4.4989 4.9413-3.4583 4.9413 0.37915 0 1.2953-0.70645 2.0357-1.5702 2.3894-2.7875 3.2085-3.5343 3.8789-3.5343 0.794 0 0.7938-0.0742 0.0226 3.5667-0.34129 1.6107-0.50787 3.1108-0.37013 3.3336 0.42276 0.68405 0.85773-0.18311 1.5846-3.1592 0.86551-3.5436 0.87885-4.5918 0.0586-4.5918-1.1051 0-1.011-0.13011 4.1699-5.7714 1.1236-1.2234 3.0065-3.632 4.1842-5.352 1.1777-1.72 2.6744-3.7011 3.3256-4.403 0.65117-0.70188 1.6941-2.1666 2.318-3.2546 0.62393-1.0879 1.5915-2.4346 2.1497-2.9928 0.55825-0.55824 1.3463-1.8694 1.7516-2.9136 0.40535-1.0444 0.96476-2.1864 1.2431-2.5373 0.27833-0.35093 0.80704-1.4033 1.1746-2.3392 0.65088-1.6572 2.5452-5.7372 3.2589-7.0188 0.73822-1.3257 1.8874-4.1729 3.2278-7.9978 0.76264-2.1762 1.5042-4.0745 1.6481-4.2185 0.50718-0.5072 0.25367-1.3965-0.39817-1.3965zm-266.73 4.6796c-2.6732-2.18e-4 -3.5029 0.45379-4.15 2.2713-0.46208 1.2977 0.10602 1.5865 1.7615 0.89479 1.8522-0.77394 3.97-0.52102 6.8499 0.81815 3.5903 1.6696 5.8191 3.5741 8.766 7.4899 0.93583 1.2435 2.256 2.9129 2.9343 3.7101 2.425 2.8503 2.281-0.56338-0.16762-3.973-0.7027-0.97848-1.278-1.9091-1.278-2.0675 0-0.63699-4.1068-5.0408-5.7644-6.1813-2.7196-1.8712-6.0163-2.962-8.9517-2.9622zm113.83 0.03615c0.35094-0.0129 0.9252 0.16204 1.2761 0.38883 0.77759 0.50252 0.10561 0.50252-1.0636 0-0.561-0.24105-0.63322-0.37339-0.2125-0.38883zm128.17 1.5341c-0.47844 0.13233-1.1964 0.65256-2.1567 1.5603-2.251 2.1281-2.9387 2.7136-6.0636 5.1644-4.4324 3.4763-4.8277 3.88-4.5375 4.636 0.18509 0.48232 0.48405 0.61266 0.88607 0.38571 0.68644-0.3875 4.5026-3.6332 7.6912-6.5415 1.1729-1.0698 2.7546-2.3752 3.515-2.9006 0.76037-0.52539 1.3827-1.2179 1.3827-1.5391 0-0.64216-0.23879-0.8975-0.71718-0.76519zm-195.19 2.7292c-0.05945-0.01522-0.09484 0.0071-0.10655 0.06792-0.08184 0.42497 1.3375 2.7516 3.3018 5.4124 3.9019 5.2851 4.2757 5.9686 3.1392 5.7408-3.0579-0.61324-2.9993-0.57162-3.2757-2.3-0.21401-1.3384-0.67877-2.0088-2.2887-3.3026-1.111-0.89277-2.5379-2.1612-3.171-2.8184-0.96462-1.0012-1.2916-1.119-2.0201-0.72905-1.2013 0.64291-1.0872 1.5576 0.30034 2.4096 4.0769 2.503 5.154 3.4085 5.38 4.5232 0.39093 1.9277 2.0145 3.1766 4.9083 3.7742 2.3421 0.48375 2.7596 0.73553 3.9805 2.4009 0.75013 1.0232 1.8903 2.492 2.5336 3.2639 0.64339 0.77198 1.1696 1.5574 1.1696 1.7453 0 0.188 0.4307 0.81071 0.95711 1.384l0.95711 1.0425-0.95711-0.49788c-0.52641-0.27394-0.95711-0.64836-0.95711-0.83186 0-0.7409-5.2699-6.0175-6.0099-6.0175-1.1852 0-0.96267 1.1907 0.44366 2.3741 0.68162 0.57354 1.9077 2.045 2.7249 3.2694 0.81727 1.2245 2.0933 2.8006 2.8358 3.5025 0.74245 0.70188 2.31 2.5683 3.4832 4.1475 1.1731 1.5792 2.4146 2.8713 2.7586 2.8713 0.36889 0 1.2343 1.3521 2.1099 3.2963 0.81648 1.8132 1.8691 4.0148 2.3392 4.8921l0.85492 1.5952h-0.87798c-1.5251 0-0.9688 1.0648 2.1348 4.0858 1.6571 1.6131 3.3892 3.3141 3.8491 3.7798 0.45985 0.46572 1.5059 2.045 2.3248 3.5093 0.81896 1.4645 1.7673 2.6626 2.1068 2.6626 0.83735 0 0.77639-0.84068-0.24924-3.4427-1.1408-2.8942-0.67041-3.303 0.53028-0.46112 0.51178 1.2113 1.0356 2.1963 1.1646 2.1891 0.12904-7e-3 0.59664-0.28781 1.0387-0.6225 0.74779-0.56612 0.75629-0.67621 0.12089-1.5815-1.3635-1.9426-1.7962-2.326-2.9454-2.6121-0.64339-0.16019-1.1696-0.49189-1.1696-0.73714 0-0.24524-0.35272-0.33439-0.78389-0.19753-0.59416 0.18858-1.2234-0.33883-2.5996-2.179-0.99868-1.3354-2.0632-3.1096-2.3654-3.9424-0.96437-2.6584-2.8596-6.5298-4.6977-9.5961-0.98174-1.6378-2.0147-3.6957-2.2955-4.573-0.28084-0.87736-0.7832-1.5952-1.116-1.5952-0.758 0-0.756 0.31533 0.01433 2.4987 0.34056 0.96526 0.54618 1.7553 0.45674 1.7553-0.3976 0-2.7772-4.6585-2.7772-5.4367 0-0.4764-1.2447-2.7266-2.7654-5.0012-1.5208-2.2745-2.7647-4.3623-2.7647-4.6392 0-0.27678-0.57564-1.0544-1.2792-1.7285-0.70362-0.67412-3.3332-4.1063-5.8436-7.627-2.6087-3.6584-4.1855-5.6174-4.6017-5.724zm227.04 1.827c-0.1563 0.08114-0.29398 0.37395-0.51093 0.92969-0.26597 0.68127-0.75579 1.7817-1.088 2.4458-0.33216 0.66411-0.48962 1.3926-0.35019 1.6182 0.47775 0.77303 1.2397 0.1084 2.2307-1.946 0.88986-1.8445 0.92507-2.1226 0.34148-2.7062-0.2918-0.2918-0.46683-0.42255-0.62312-0.34146zm-46.504 0.79074c-0.42431 0.14183-1.209 0.59782-2.6433 1.4644-4.4176 2.6688-10.893 7.4822-17.183 12.773-1.4654 1.2327-2.8055 2.2433-2.9778 2.2457-0.49118 0.0072-3.9281 3.3772-6.2685 6.1465-1.1698 1.3842-3.2278 3.7653-4.573 5.2915s-2.4458 3.0216-2.4458 3.3231c0 0.88375 0.69812 0.63173 1.4562-0.52529 1.0049-1.5338 15.178-15.615 15.447-15.346 0.12306 0.12306-0.20103 1.2703-0.72034 2.5498-0.87466 2.155-0.90154 4.0851-0.0566 4.0851 0.18115 0 0.68222-1.1966 1.1135-2.6589 0.43129-1.4622 1.0217-3.0152 1.3116-3.4515 0.29021-0.43629 0.42477-1.0599 0.29972-1.3858-0.27695-0.72173 2.6553-3.742 4.064-4.1861 0.76122-0.23992 0.94988-0.17685 0.77204 0.25859-1.2113 2.966-1.3697 5.0428-0.38507 5.0428 0.19652 0 0.78204-1.3876 1.3017-3.0838 0.51966-1.6962 1.1788-3.4957 1.4644-3.9986 0.57941-1.0207 3.6106-3.3257 7.7478-5.8916 1.509-0.93583 2.7494-1.9408 2.7555-2.2332 8e-3 -0.39001-0.0548-0.56244-0.47918-0.42061zm-9.9181 2.4407c-0.344 0-1.6718 0.47876-2.9505 1.0637s-2.4992 1.0637-2.7118 1.0637c-0.5413 0-1.8477 1.506-1.5579 1.7958 0.34823 0.34823 1.9439-0.11852 3.1667-0.92658 0.58492-0.38649 1.8771-1.0563 2.8713-1.4886 1.8021-0.78349 2.3696-1.5079 1.1821-1.5079zm49.492 0.76457c-0.39697 0.23714-1.0237 1.1836-1.8132 2.7816-0.84546 1.711-1.5372 3.2404-1.5372 3.3985 0 0.15802 0.28427 0.28726 0.63183 0.28726 0.64155 0 3.1966-4.5608 3.1966-5.7058 0-0.40088-0.055-0.65245-0.16016-0.7602-0.0788-0.08081-0.18547-0.08029-0.31779-0.0012zm-27.693 0.53214c-0.29845 0.0108-1.4041 1.1092-2.4569 2.4407-2.1346 2.6998-3.9679 4.8489-5.4648 6.4057-0.54904 0.57097-1.5555 1.8077-2.237 2.7485-0.68157 0.94088-3.5825 4.1389-6.4461 7.1066-2.8637 2.9678-5.5464 5.8153-5.9613 6.3278-0.41499 0.51248-1.9462 2.3691-3.4028 4.1257-4.2373 5.1097-6.539 8.303-7.7909 10.81-0.64245 1.2868-1.8748 3.3922-2.7393 4.679-2.7794 4.1373-4.034 7.0016-3.8658 8.8271 0.027 0.29242 0.24084 0.5315 0.47481 0.5315 0.23395 0 0.4269-0.23908 0.42933-0.5315 0.012-1.4916 5.2074-10.52 6.0573-10.526 0.46195-4e-3 0.41202 0.41796-0.53154 4.4647-0.46788 2.0068-0.85056 3.9284-0.85056 4.2703 0 1.0244 0.84089 0.70229 1.2967-0.49663 0.58826-1.5472 1.985-8.408 2.2625-11.114 0.23043-2.2461 1.0771-3.7479 3.7761-6.6973 0.64232-0.70189 1.1692-1.4953 1.1702-1.7628 1e-3 -0.26742 0.31189-0.60474 0.69103-0.75023 0.54854-0.21051 0.63652-0.0683 0.42995 0.69852-0.96955 3.5985-2.0088 9.3923-1.8944 10.562 0.19124 1.9522 1.2007 2.178 1.2007 0.26855 0-0.81202 0.50037-3.8113 1.1123-6.6649 0.77782-3.6273 0.97811-5.3229 0.66552-5.6355-0.31258-0.3126-0.29537-0.6106 0.0572-0.99076 0.27742-0.29906 1.8443-2.0144 3.482-3.8122 1.6377-1.7979 3.7912-4.0455 4.7856-4.9942 0.9943-0.94878 1.8076-1.8389 1.8077-1.9783 7e-5 -0.13949 1.263-1.5937 2.8059-3.2315 1.5429-1.6377 3.1198-3.4561 3.5044-4.0409 0.38465-0.5849 2.0614-2.6909 3.7256-4.6796 3.3184-3.9651 4.8099-6.3937 3.9063-6.3602zm-219.82 3.4515c-0.55938 0.18646 0.9546 3.0496 2.7056 5.1164 0.73114 0.863 2.0394 2.4897 2.9081 3.6153 0.86861 1.1257 2.5474 3.2909 3.73 4.8117 1.1872 1.5267 3.7996 6.099 5.833 10.209 2.0255 4.0942 4.1849 8.0294 4.7992 8.7449 1.2982 1.5118 11.066 21.075 11.072 22.176 0.0011 0.18941 0.5853 0.96691 1.2979 1.7273 1.4159 1.5107 2.3386 1.8101 1.9666 0.63805-1.7487-5.5078-8.7899-20.159-13.134-27.332-1.063-1.7547-2.5498-4.6039-3.3044-6.3321-0.75455-1.7283-1.8635-4.0253-2.4645-5.1046-0.60088-1.0793-1.4401-2.5842-1.8649-3.3436-1.1789-2.1071-3.5266-5.4355-6.4449-9.138-2.4797-3.1462-6.1207-6.1155-7.0992-5.7894zm50.583 0.35642c-1.0301 0-0.13197 1.7976 2.6856 5.3756 0.7622 0.96789 2.25 2.8898 3.3063 4.2709 1.0562 1.3811 2.1602 2.7909 2.4532 3.1324 0.97298 1.1341 6.1422 11.646 6.7814 13.791 0.38498 1.2917 0.53286 2.8586 0.38073 4.0409-0.13992 1.0876 0.0225 3.2106 0.37201 4.8597 0.40867 1.9283 0.53185 3.982 0.36016 6.013-0.1434 1.6966-0.13213 3.599 0.0255 4.2272 0.43094 1.717 1.1969 1.0944 1.8425-1.4974 0.72796-2.9223 0.73004-2.632-0.0386-6.1016-0.5894-2.6603-0.5874-3.061 0.0224-4.2404 0.62752-1.2135 0.61205-1.4914-0.22557-4.0808-0.49438-1.5283-1.3005-4.2141-1.7915-5.9689-0.491-1.7547-1.3201-3.8607-1.8425-4.6796-0.52238-0.81886-1.6311-2.9243-2.4638-4.679-1.5211-3.2054-2.3777-4.4173-6.4443-9.1224-2.8426-3.2889-4.9258-5.3408-5.4236-5.3408zm138.47 1.1802c-0.34578-0.34578-4.4583 1.2293-5.8069 2.2239-0.63392 0.46754-1.3517 0.84994-1.5952 0.84994-0.24342 0-0.44242 0.28713-0.44242 0.63807 0 0.83106 0.26633 0.80534 1.8637-0.18009 0.72952-0.45002 2.4272-1.2297 3.7724-1.7322 2.305-0.86123 2.7688-1.2391 2.2083-1.7995zm47.073 0.60068c-0.18015 0.02519-0.32972 0.09726-0.40567 0.21124-0.15185 0.22798-1.0106 1.3006-1.908 2.3835-0.89731 1.0829-1.5024 2.1779-1.3446 2.4333 0.3159 0.51116 1.2171-0.03547 2.3386-1.4188 2.7467-3.388 2.6691-3.2447 1.908-3.5368-0.19748-0.07577-0.40809-0.09746-0.58821-0.07228zm14.59 1.6182c-0.47143-0.21272-1.5113 0.49549-2.1915 1.6867-1.0992 1.9251-1.2241 2.9966-0.34896 2.9966 0.65102 0 0.5826 0.35398-0.82562 4.2541-1.1311 3.1326-7.3604 15.225-10.055 19.518-2.9522 4.7043-3.8665 5.8902-7.7435 10.05-1.6605 1.7814-2.7874 3.3324-2.6196 3.6041 0.18198 0.29448 1.5811-0.81661 3.659-2.9056 3.22-3.2374 4.0413-3.6416 2.7262-1.3409-0.68802 1.2036-0.84287 2.7291-0.23929 2.356 0.68689-0.42451 2.6721-4.9987 2.8968-6.6749 0.1182-0.88082 0.57353-1.9263 1.0119-2.323 0.43839-0.39675 0.79696-0.91624 0.79696-1.154 0-0.23776 0.28909-0.75116 0.64181-1.1409 0.35275-0.38978 1.028-1.4574 1.5011-2.3728l0.86052-1.6643-0.27229 2.2844c-0.21019 1.7626-0.14785 2.2425 0.27419 2.1018 0.69865-0.23289 2.239-5.2158 2.1909-7.088-0.0252-0.98141 0.42426-2.082 1.4437-3.5325 0.81452-1.1588 1.6698-2.6034 1.9005-3.2103 0.40381-1.0621 0.44273-1.0732 1.0362-0.29599 0.53482 0.70032 0.67317 0.72295 1.0437 0.16949 0.70429-1.0519 1.0158-3.4896 0.54273-4.2472-0.31633-0.50654-0.26069-1.3665 0.19503-3.0165 1.057-3.827 1.8148-6.9555 1.822-7.5186 4e-3 -0.29182-0.0901-0.46498-0.24737-0.53588zm-19.77 0.42933c-0.59587 0-5.4984 4.9626-5.4984 5.5657 0 0.72976 1.1482 0.39319 2.2994-0.6736 0.63113-0.5849 1.3265-1.0637 1.5454-1.0637 0.21888 0 0.72513-0.71783 1.1253-1.5952 0.40023-0.87734 0.80199-1.7387 0.89232-1.9143 0.0902-0.17547-0.0736-0.31904-0.36391-0.31904zm-23.193 2.1273c-0.65782 0-2.7243 1.5215-2.7243 2.0058 0 0.77713 0.90331 0.6518 2.0208-0.28041 0.88792-0.74072 1.2893-1.7254 0.7035-1.7254zm12.209 0.85055c-0.5179 0-3.4484 4.4487-3.4484 5.2348 0 0.38818-0.7659 1.9568-1.7017 3.4857s-1.7012 2.93-1.7012 3.1137c0 0.18373-0.59444 1.1421-1.3204 2.1292-0.97673 1.3281-1.2507 2.069-1.055 2.8488 0.14551 0.57971 0.40413 1.0511 0.57516 1.0475 0.3178-7e-3 6.0313-5.739 9.5337-9.5649 1.8064-1.9733 3.0825-4.8921 2.1386-4.8921-0.53556 0-4.3102 3.9262-6.3128 6.5664-2.0747 2.7353-2.4028 1.7291-0.41313-1.2675 0.84289-1.2695 1.5329-2.5748 1.5329-2.9006 0-0.32589 0.30123-0.84234 0.66927-1.1478 1.5819-1.3128 2.6607-4.6534 1.5029-4.6534zm-168.01 0.66362c-0.10309 0.0046-0.18464 0.05748-0.24614 0.15702-0.14829 0.23993 0.88756 2.1406 2.3018 4.2229 1.4142 2.0823 2.571 3.9749 2.571 4.2061 0 0.23112 0.39681 0.92453 0.88171 1.5409 2.0332 2.5847 2.2436 0.60352 0.27168-2.558-2.8149-4.5129-4.5205-6.8735-5.4049-7.4357v-6.21e-4c-0.14741-0.09371-0.27203-0.13735-0.37511-0.13272zm200.46 1.0674c-0.14415-0.02556-0.33294 0.02473-0.56205 0.16637-0.60766 0.37555-1.7441 2.8379-1.4955 3.2402 0.39863 0.64502 1.318-0.04772 2.022-1.5241 0.49752-1.0433 0.46796-1.8057 0.0355-1.8825zm-201.58 2.948c-0.76918 0-0.82247 0.49666-0.12774 1.1914 0.72691 0.7269 1.329 0.63125 1.0244-0.16264-0.14201-0.37007-0.25859-0.75277-0.25859-0.85056 0-0.09779-0.28713-0.17822-0.63807-0.17822zm126.16 0.85118c-0.59797 0-6.8419 4.2667-6.8419 4.6753 0 0.1979-0.11605 0.66243-0.25795 1.0325-0.41788 1.089 0.1426 0.79954 2.9019-1.4968 1.4337-1.1931 3.0525-2.3721 3.5973-2.6202 0.95771-0.43638 1.3936-1.5909 0.60069-1.5909zm24.105 0.0086c-0.72777 0.0108-3.7218 2.6715-3.7218 3.3069 0 0.88436 0.78804 0.56774 2.551-1.025 1.7426-1.5743 2.113-2.2964 1.1708-2.2818zm7.7952 0.84246c-0.47652 0-2.2044 4.2608-1.9167 4.7264 0.39641 0.64143 0.57204 0.45006 1.6606-1.8064 0.98777-2.0475 1.0644-2.9199 0.2561-2.9199zm17.717 1.7017c-0.71852 0-2.4346 1.2161-2.4346 1.7254 0 0.58334 1.3673 0.4667 2.2332-0.19067 0.86932-0.65991 0.98417-1.5347 0.20127-1.5347zm-250.2 0.60455c-0.20657-0.09876-0.32339 0.01833-0.43618 0.30906-0.1524 0.39293 0.19253 1.6086 0.78389 2.7647 1.5582 3.0466 6.9181 11.197 8.4912 12.911 0.75134 0.81886 1.9293 2.3198 2.6171 3.3356 0.68787 1.0158 1.8475 2.356 2.5772 2.9778 0.72973 0.62194 1.7728 1.8007 2.318 2.6196 0.54516 0.81886 1.4889 2.0039 2.0974 2.6339 2.2013 2.2787 2.9315 0.97305 1.116-1.9959-0.57228-0.93585-1.2269-2.1118-1.4543-2.6134-0.2275-0.50155-1.5384-2.1288-2.913-3.6159s-2.9589-3.3741-3.5206-4.193c-0.56172-0.81887-2.1938-2.9268-3.6272-4.6846-1.4334-1.7578-2.857-3.6722-3.1636-4.2541-0.53725-1.0197-1.4908-2.29-3.9107-5.2118-0.47242-0.57042-0.76861-0.88457-0.97518-0.98328zm78.048 0.24551c-0.96774 0-0.46591 1.5547 2.2656 7.0188 1.6374 3.2754 3.1602 6.1948 3.3842 6.4873 0.54042 0.70592 0.93448 0.67043 1.6114-0.14519 0.4785-0.57656 0.28128-1.2196-1.3303-4.3345-2.0795-4.0191-5.3696-9.0265-5.9308-9.0265zm-56.138 1.3996c-0.17514-0.0041-0.37726 0.04259-0.61377 0.13335-1.0123 0.38847-0.81577 2.1952 0.36764 3.3785 0.57427 0.57427 1.3396 1.0437 1.7011 1.0437 0.71159 0 0.90508-1.0724 0.26482-1.4681-0.21596-0.13347-0.5175-0.81267-0.67047-1.5092-0.24119-1.0981-0.52392-1.5661-1.0493-1.5784zm3.7574 0.46858c-0.56318 0.0883-0.9033 0.63652-0.65115 1.2936 0.28695 0.74776 0.36408 0.77214 1.311 0.40876 0.88252-0.33867 0.86166-1.2799-0.03614-1.6245-0.22368-0.08584-0.43602-0.10733-0.62374-0.07788zm233.8 0.68044c-0.39167-0.16681-1.2311 0.36791-1.6818 1.2394-0.3515 0.67972-0.91501 1.5119-1.2525 1.8495-0.33749 0.33747-1.1267 2.0993-1.7535 3.9151-1.1833 3.4284-2.5985 6.1869-3.1748 6.1869-0.18337 0-1.1515 1.255-2.151 2.7891-1.7043 2.6158-3.5292 5.1254-4.7644 6.5509-2.13 2.4581-2.1804 2.5767-1.3446 3.1878 0.7387 0.54014 0.71278 0.63447-0.4935 1.7846-0.70046 0.66781-2.0339 2.1682-2.9636 3.335-0.9297 1.1667-2.5338 2.9856-3.5643 4.0415-1.0304 1.0559-2.1788 2.4183-2.5523 3.0276-0.37353 0.60946-1.2619 1.5987-1.974 2.1977-2.4408 2.0538-8.2769 5.3298-10.403 5.8399-1.1695 0.28054-2.1267 0.67982-2.1267 0.88731 0 0.45637-2.9577 1.7428-3.5518 1.5447-0.23203-0.0773 0.80586-0.99729 2.3062-2.0439 2.5829-1.8017 3.7105-3.3661 2.4258-3.3661-0.32131 0-1.7236 0.82029-3.1156 1.8226-1.392 1.0023-3.6308 2.3906-4.9749 3.0844-2.7683 1.429-5.778 3.8049-5.3588 4.2303 0.15354 0.15582 1.015 0.079 1.9143-0.17072 0.8993-0.24973 2.1344-0.45493 2.7448-0.45613 0.61043-1e-3 2.5904-0.68688 4.3999-1.5229 3.3114-1.53 4.3215-1.657 3.0483-0.38384-0.37881 0.3788-0.68857 0.88213-0.68857 1.1185 0 0.23634-0.6469 1.2275-1.4375 2.2028-1.8324 2.2602-3.3011 5.165-3.0034 5.9408 0.12689 0.33067-0.17657 1.2922-0.67484 2.1366l-0.90602 1.5353-0.98016-1.1397c-0.87796-1.0207-1.0964-1.0862-2.0937-0.63185-0.8757 0.399-1.1135 0.80866-1.1135 1.9198 0 1.6703 0.63935 2.4339 2.0388 2.4339 0.66044 0 1.0963-0.29872 1.2406-0.85057 0.12235-0.4679 0.39213-0.85118 0.59882-0.85118 0.67369 0 0.3953 1.5618-0.47546 2.6688-0.46792 0.59485-0.84927 1.3385-0.84805 1.6526 1e-3 0.31407-0.38478 2.3891-0.85804 4.6117-0.47328 2.2227-1.2058 5.9497-1.6276 8.2818l-0.76646 4.2397-1.2468-2.3217c-1.3371-2.4908-2.442-3.0888-3.3916-1.8357-0.91781 1.2112-0.76176 2.0297 1.3123 6.8898 1.0624 2.4896 2.2816 5.3877 2.7099 6.4405 0.4284 1.0528 1.2073 2.9673 1.731 4.2541 0.52367 1.2868 1.108 3.2307 1.2985 4.3195 0.46482 2.6561 1.4527 4.459 2.8619 5.2236 1.2786 0.69378 2.234 0.84341 2.2176 0.34708-6e-3 -0.17544-0.38902-1.4493-0.85117-2.8308-0.46217-1.3816-0.83996-3.2249-0.83996-4.0958s-0.27926-1.8147-0.62062-2.098c-0.34138-0.28331-1.1073-2.0607-1.7017-3.9493-0.832-2.6433-1.0805-4.3394-1.0805-7.3666 0-3.5873 0.0677-3.9151 0.77082-3.7312 0.68592 0.17936 0.82849-0.29688 1.296-4.3195 0.28899-2.4863 0.70807-5.0001 0.93092-5.5862 0.22287-0.58616 0.41156-1.7712 0.42-2.6333 8e-3 -0.86208 0.29287-2.7156 0.63183-4.1194s0.61889-3.1488 0.62251-3.8777c4e-3 -0.72882 0.4178-1.848 0.92033-2.4869 0.50256-0.63887 0.96232-1.6006 1.0213-2.1374 0.11076-1.0083 2.4701-5.6787 3.5954-7.1173 0.35095-0.44861 1.2598-1.4603 2.0201-2.2475 0.76037-0.78735 1.3834-1.6834 1.3858-1.9916 2e-3 -0.30813 1.2605-1.326 2.7965-2.2619 8.1486-4.9646 13.891-10.141 14.502-13.071 0.31811-1.5264 1.4151-2.509 1.4151-1.2675 0 0.47663-1.0524 2.4303-2.3392 4.3419s-2.3398 3.706-2.3398 3.9873c0 0.28132-0.95691 1.4543-2.1267 2.6066-1.1698 1.1522-2.1273 2.3285-2.1273 2.614 0 0.28548-0.39954 0.64569-0.88794 0.8007-0.52992 0.16818-1.3468 1.252-2.0264 2.6876-0.62635 1.323-1.4715 2.8786-1.8774 3.457-0.47455 0.67611-0.73777 1.8538-0.73777 3.2969 0 1.2347-0.16828 2.2445-0.37384 2.2445-0.50102 0-1.0876 1.5512-2.4128 6.3807-1.0782 3.9297-1.9092 7.7927-2.7822 12.933-0.23452 1.3809-0.58198 2.8166-0.77202 3.1904-0.19006 0.37378-0.22782 2.3546-0.0841 4.4017 0.14377 2.0471 0.15029 3.7218 0.0143 3.7218-0.56862 0-2.0366-2.0309-2.5779-3.5667-0.66344-1.8822-2.3003-2.9592-2.946-1.9385-0.21363 0.33764-0.39145 1.4148-0.39507 2.394-5e-3 1.4009 0.76808 3.3046 3.6291 8.933 1.9997 3.934 3.8949 8.2452 4.2117 9.5805 0.68664 2.8938 2.0196 4.9146 3.4845 5.2822 1.4848 0.37266 1.9187-0.24 1.2425-1.7547-0.84759-1.8987-2.2886-7.7665-2.5367-10.331-0.12176-1.2585-0.59255-2.7744-1.0692-3.4439-0.80696-1.1332-0.83009-1.5179-0.44243-7.3229 0.22505-3.3696 0.48906-6.7014 0.58636-7.4033 0.0973-0.70188 0.21584-2.0414 0.26358-2.9772 0.10872-2.1278 1.4394-9.4223 2.6339-14.437 0.58812-2.469 1.4007-4.5531 2.3174-5.9451 0.77645-1.179 1.412-2.2823 1.412-2.4514 0-0.16909 0.54924-1.1306 1.2206-2.1366 0.67143-1.0061 1.4818-2.5637 1.8008-3.462 0.31899-0.89834 0.91828-1.8146 1.3317-2.0357 0.41334-0.2212 0.75149-0.59691 0.75149-0.83499 0-0.23809 1.0279-1.9085 2.2844-3.7119 2.5724-3.6922 5.7981-9.7799 5.7981-10.943 0-0.42237 0.27789-1.0748 0.61749-1.45 0.50747-0.56076 0.7984-2.0012 1.0581-5.2335 0.014-0.17547 0.29978-0.31904 0.63495-0.31904s0.74517-0.4307 0.91101-0.95711c0.16582-0.52641 0.84848-1.6227 1.5173-2.4364 0.66881-0.81368 1.2163-1.7121 1.2163-1.9965 0-0.28437 0.35067-0.7673 0.77952-1.073 1.3743-0.97961 3.715-4.7199 4.9015-7.8319 0.63365-1.6622 1.7201-3.9179 2.4146-5.013 0.69446-1.095 1.263-2.1756 1.263-2.4015 0-0.22502-0.0812-0.35876-0.21186-0.41438zm-51.361 0.64369c0.15384 0.049 0.0952 0.3435-0.31589 0.83872-0.29596 0.35659-0.7355 0.64803-0.97708 0.64803s-0.0919-0.38369 0.33274-0.85304c0.43987-0.48603 0.80639-0.68267 0.96023-0.63371zm10.081 0.0268c-0.19399 7e-3 -0.52416 0.12628-0.99574 0.37013-1.8172 0.93971-3.8795 2.7832-3.8795 3.4677 0 1.0444 0.9996 0.62508 3.0838-1.2936 1.7296-1.5923 2.3735-2.5676 1.7914-2.5442zm7.366 0.7116c-0.49824 0.16605-1.9722 6.2704-2.0127 8.3348-0.0416 2.1207 1.0717 0.51878 1.7478-2.5149 0.87717-3.9356 0.97346-6.0561 0.26484-5.82zm-207.12 0.787c-0.12083-0.0395-0.21322-0.026-0.27604 0.0393-0.2513 0.26089-0.02317 1.3435 0.81067 3.1174 0.80401 1.7105 1.0482 1.9092 2.3398 1.9092 1.4382 0 1.9657-0.67622 0.85866-1.101-0.321-0.12318-1.1947-1.0743-1.941-2.1136-0.81446-1.1341-1.4296-1.7327-1.7921-1.8513zm246.42 0.51407c-0.10921-0.068-0.28648-0.0387-0.53465 0.11467-0.57494 0.35531-2.5055 3.4676-2.5055 4.039 0 0.89405 1.0692 0.11226 2.26-1.6525 0.82268-1.2192 1.1077-2.2972 0.78015-2.5012zm-179.52 0.25611c-0.47337 0.29857-0.48655 0.65278-0.0729 1.9061 0.51884 1.5722 1.7333 2.14 1.6986 0.79448-0.03796-1.4728-1.0107-3.0885-1.6257-2.7006zm158.1 0.66487c-0.10548-0.10539-1.1984 0.29434-2.429 0.88794-1.8212 0.87852-2.1453 1.1901-1.7429 1.675 0.41901 0.50487 0.75458 0.45972 2.2008-0.29411 1.5762-0.82158 2.4326-1.8071 1.9709-2.2688zm-41.389 2.4003c0.14101-2e-3 -0.0228 0.33274-0.51219 1.0051-0.42036 0.57753-1.0318 1.0558-1.3584 1.063-0.35349 8e-3 -0.12909-0.41695 0.55395-1.05 0.72979-0.67634 1.1756-1.0158 1.3167-1.0182zm40.011 2.5068c-0.36474 0-0.66301 0.19163-0.66301 0.42559s0.17989 0.42558 0.40005 0.42558c0.22015 0 0.51903-0.19162 0.66363-0.42558s-0.036-0.42559-0.40067-0.42559zm-29.613 0.41749c-0.22341-0.15761-1.1808 0.21629-2.665 1.2687-3.4651 2.4567-3.8403 2.8452-3.53 3.6539 0.26606 0.69335 0.4163 0.64607 1.5148-0.47731 0.67058-0.68576 1.9944-1.8211 2.9417-2.523 1.4517-1.0754 1.9619-1.7647 1.7385-1.9223zm23.748 2.3224c-0.40679-0.40678-3.7325 1.5809-3.7325 2.2307 0 0.30786 0.23907 0.55888 0.53151 0.55832 0.72989-1e-3 3.54-2.45 3.2009-2.7891zm-212.91 1.1771c-0.53142-0.13926-0.96396 0.0171-0.96396 0.55708 0 0.38745 0.54877 1.5016 1.2195 2.4756 1.1208 1.6278 3.4007 5.3277 7.4226 12.045 0.8617 1.4391 1.5671 2.8266 1.5671 3.0838 0 0.2572 0.16764 0.46796 0.37263 0.46796 0.46918 0 3.2481 5.3259 3.6359 6.9684 0.15918 0.67414 1.0523 2.3489 1.9846 3.7218 1.2861 1.8938 1.9446 2.4962 2.728 2.4962 1.5917 0 2.0379-1.2876 1.0468-3.0196-0.45518-0.79551-1.3341-2.4038-1.9535-3.5735-0.61945-1.1698-2.1178-3.4668-3.3293-5.1046-2.6098-3.5278-4.9108-7.0357-4.9108-7.4868 0-0.1773-0.73476-1.4367-1.6326-2.7984-0.89781-1.3618-2.381-3.6117-3.2963-4.9993-0.91537-1.3875-1.9662-3.0142-2.3349-3.6153-0.39449-0.64334-1.0245-1.0783-1.5559-1.2175zm64.847 3.8665c-0.09449-0.0187-0.25396 0.0832-0.51408 0.2991-0.35094 0.29125-0.63807 0.88921-0.63807 1.3285 0 0.43925 0.17117 0.79821 0.38011 0.79821 0.43377 0 0.89604-1.0324 0.89604-2.0008 0-0.26716-0.02951-0.40634-0.124-0.42497zm-9.3013 3.277c-1.1868 0-0.95563 1.0379 0.92658 4.1587 0.94081 1.5599 1.9109 3.5809 2.156 4.4908 0.25584 0.95016 0.75902 1.7364 1.1814 1.847 0.69066 0.18062 3.8852 6.2376 3.8852 7.3666 0 0.28028 0.26949 1.0178 0.59882 1.6388 1.0338 1.9493 2.7064 5.7633 3.0134 6.8718 0.25539 0.92193 0.0771 0.83185-1.3397-0.67609-3.578-3.8083-4.7931-3.26-2.7348 1.2337 2.991 6.5305 3.0723 6.8876 1.4749 6.4867-2.1447-0.53828-4.3409-2.8152-6.3421-6.5751-1.0712-2.0128-2.7058-4.9036-3.6328-6.4243-0.92698-1.5208-1.9748-3.3396-2.3286-4.0415-1.0377-2.0588-2.9945-4.2005-3.5331-3.8677-0.70427 0.43526-0.60287 1.7556 0.18507 2.4096 0.37118 0.30804 1.4057 2.0064 2.2986 3.7742 0.89294 1.7678 2.2721 4.267 3.0651 5.5538 2.3321 3.7845 4.7149 7.428 5.0074 7.6568 0.93298 0.73015 2.6133 3.4805 2.495 4.0839-0.10554 0.53848-0.89716-0.0139-3.1193-2.1772-1.6377-1.5942-3.3605-3.5186-3.8284-4.2765-2.6754-4.3336-7.3476-9.9668-8.2669-9.9668-0.52935 0-1.8016-2.3752-1.6575-3.0944 0.1615-0.80594-0.46956-2.8607-0.87859-2.8607-0.54322 0-1.1691 0.92216-1.4625 2.1548-0.36273 1.524 1.0162 3.986 3.6838 6.5757 2.5907 2.5151 3.2252 3.299 4.6884 5.7956 0.6017 1.0267 1.6458 2.4374 2.3205 3.1349 1.5455 1.5978 3.3166 4.3476 3.6939 5.7351 0.28095 1.0334 0.25728 1.027-0.81815-0.2131-0.60871-0.70188-1.4862-1.9875-1.9504-2.857-0.96165-1.8015-2.2034-2.6252-3.3891-2.2488-0.62036 0.1969-1.0855-0.15138-1.9547-1.465-0.62736-0.94801-1.4641-1.7242-1.86-1.7242-0.3959 0-1.0287-0.33459-1.4057-0.744-3.9094-4.2457-4.5675-4.6906-4.5675-3.0844 0 0.99631 1.4225 2.5523 2.3336 2.5523 0.3478 0 0.91331 0.67273 1.2568 1.4949 0.34352 0.82216 0.91295 1.6057 1.2655 1.741 0.3526 0.13532 0.7575 0.61113 0.89916 1.0574 0.14165 0.44629 0.51568 0.81129 0.83124 0.81129 0.31556 0 1.3948 0.76589 2.3984 1.7017 1.0036 0.93585 2.1581 1.7018 2.566 1.7018 0.40787 0 1.2771 0.71784 1.9311 1.5952 0.65396 0.87735 1.3811 1.7355 1.6164 1.9073 0.23529 0.17189 0.95429 0.31541 1.5977 0.31904 1.0857 6e-3 1.1702-0.11821 1.1702-1.7254v-1.7316l1.4326 1.5192c0.78799 0.83549 1.7493 1.5191 2.136 1.5191 1.0453 0 1.7413-1.7987 1.1347-2.9324-0.715-1.336-0.19618-1.7674 1.2556-1.0431 0.69983 0.34912 1.6077 0.57117 2.017 0.49351 1.3768-0.26109 1.1104-2.71-0.6549-6.0249-0.32634-0.61284 1.3613 0.44299 2.2139 1.3852 0.92024 1.0168 1.8748 1.1552 2.1959 0.3184 0.12064-0.31439-0.1885-1.6065-0.6873-2.8713s-1.45-3.8661-2.1136-5.7807c-1.3474-3.8873-1.7163-4.7442-4.9108-11.407-1.2339-2.5736-2.8824-5.4448-3.6633-6.3807-0.78088-0.93584-1.7845-2.419-2.2307-3.2963-0.49471-0.97256-1.1173-1.5952-1.5952-1.5952zm157.36 0.42496c-0.34606 0-0.83358 0.70424-1.1048 1.5952-1.2907 4.2404-1.7413 6.2024-1.5099 6.5771 0.45105 0.72984 1.072-0.33781 1.9473-3.348 1.3209-4.5432 1.3594-4.8242 0.66736-4.8242zm-200.02 3.4035c-0.94062 0-0.8275 0.77097 0.33711 2.2994 0.55166 0.72397 1.3134 2.3838 1.6924 3.6889 0.379 1.305 1.1715 3.0842 1.7615 3.9537 0.59007 0.86952 1.073 1.8211 1.073 2.1149 0 0.29375 0.16799 0.71616 0.37325 0.9384 0.20525 0.22227 0.7596 1.4568 1.2319 2.7436 1.9649 5.3534 3.9089 9.5183 5.0498 10.819 0.66816 0.76157 1.2414 1.8453 1.2743 2.4083 0.08273 1.4193 3.0249 10.868 3.8833 12.472 0.41074 0.76719 0.72536 2.4063 0.75647 3.9406 0.03354 1.6551 0.31504 3.0266 0.76082 3.7068 0.53214 0.81214 0.71479 2.112 0.73528 5.2423 0.04088 6.2451 0.64279 14.064 1.1303 14.679 0.58825 0.74194 1.5621 7.3636 1.2157 8.2663-0.2161 0.56314-0.70992 0.0853-2.186-2.1149-1.0487-1.5633-2.1003-2.8426-2.3367-2.8426-0.74951 0-0.96198 1.2957-0.38821 2.3679 0.89226 1.6672-0.0029 1.8064-1.2294 0.19131-2.3816-3.136-6.6096-6.1977-7.883-5.709-0.75592 0.29008-1.2913 1.6636-0.89729 2.3012 0.14796 0.23941 1.0691 0.84166 2.0476 1.3379 1.7752 0.9002 9.0637 7.8943 8.6538 8.3042-0.1189 0.11892-1.2357-0.37165-2.4819-1.0898-5.6792-3.2729-8.4137-4.4911-8.9274-3.9773-0.95537 0.95536 0.26111 2.3829 3.3088 3.8821 1.6101 0.79199 3.7627 1.9965 4.7836 2.677 2.4446 1.6289 6.6747 3.7525 7.4749 3.7525 0.34937 0 0.85732 0.4307 1.1285 0.95711 0.27116 0.5264 1.2409 1.962 2.1554 3.1904 1.6282 2.1869 2.1678 2.4918 3.5025 1.9797 0.58372-0.22398 0.56658-0.43437-0.14519-1.8077-0.44308-0.85488-1.2909-2.203-1.8843-2.996-1.0184-1.3606-1.0692-1.6718-0.89542-5.5302 0.1015-2.254-0.08683-6.1875-0.41998-8.7673-0.33234-2.5736-0.72353-6.1153-0.86924-7.87-0.14572-1.7547-0.52928-4.5298-0.85242-6.1676-0.32315-1.6377-0.71719-4.7083-0.87548-6.8232-0.24886-3.3249-0.17559-4.0736 0.54148-5.5302 0.87011-1.7675 0.85949-2.248-0.11839-5.2087-0.33112-1.0025-0.60193-2.7611-0.60193-3.9082 0-1.8542-0.86465-6.5264-1.5273-8.2532-0.13692-0.35678-0.52676-0.52972-0.8842-0.39256-0.62467 0.2397-0.55546 1.8665 0.1645 3.8789 0.14055 0.3934 0.09522 0.56846-0.10032 0.39071-0.19554-0.17778-0.76918-1.5179-1.2749-2.978-0.6111-1.7642-1.1778-2.7046-1.6893-2.8041-0.66834-0.12991-0.7352 0.0628-0.50784 1.4637l0.26171 1.6139-0.94341-1.3503c-0.51896-0.74253-1.1495-1.3541-1.4014-1.3578-0.25749-4e-3 -0.38252-0.52219-0.28539-1.1839 0.16318-1.1118-0.91485-3.5232-3.9431-8.8196-1.1282-1.9732-1.8395-4.738-1.1017-4.282 0.25898 0.16004 0.47108 0.4595 0.47108 0.66487 0 0.20536 0.83684 1.5955 1.86 3.09 1.0232 1.4945 2.3304 3.5645 2.905 4.5999 0.65312 1.177 1.3903 1.934 1.9678 2.0189 1.273 0.18734 1.1742-0.4909-0.56703-3.8838-2.967-5.7817-1.3272-4.6594 2.1404 1.465 2.3952 4.2302 3.2602 5.1362 4.1014 4.2951 0.30308-0.30306-0.12202-1.4123-1.3659-3.5655-0.99318-1.7193-1.8612-3.231-1.9291-3.3592-0.06796-0.12813 0.04182-0.50117 0.24426-0.82873 0.28218-0.4566 0.49632-0.30266 0.91599 0.65863 0.95255 2.182 2.5798 4.444 3.1966 4.444 1.0942 0 1.0795-1.2198-0.0324-2.6775-0.60554-0.79391-1.1011-1.6317-1.1011-1.8612 0-0.74218-1.9761-2.2982-2.6096-2.055-0.41763 0.16028-0.78862-0.2452-1.1571-1.2643-0.57693-1.5954-1.0824-1.8743-1.6357-0.90227-0.18709 0.32868-0.71276 0.66323-1.1677 0.74402-0.6294 0.11172-0.98522-0.26184-1.4886-1.5634-0.80773-2.0884-4.2029-8.1898-4.7432-8.5236-0.88205-0.54515-0.90049 1.3174-0.02929 2.9622 0.95044 1.7945 1.1973 3.2309 0.5552 3.2309-0.34547 0-3.4633-4.4074-3.4633-4.8958 0-0.12632-0.78506-1.4733-1.7447-2.9928-1.7271-2.7347-2.6789-3.5967-3.9699-3.5967zm194.21 0.48665c-0.68269 0.0223-2.1832 1.6425-4.1444 4.5002-1.3289 1.9365-2.5565 3.5206-2.7274 3.5206-0.17088 0-1.144 1.2921-2.1628 2.8713-1.0188 1.5792-2.0748 3.0629-2.3466 3.2969-0.27178 0.23395-0.62193 0.85568-0.77831 1.3821-0.19904 0.67009-0.10704 0.95711 0.3072 0.95711 0.55741 0 4.1934-4.9032 4.7912-6.4611 0.15171-0.39538 0.71144-1.0046 1.2437-1.3534l0.96771-0.63371-0.57078 1.6557c-0.96782 2.8091-1.2068 5.092-0.53337 5.0884 0.64398-4e-3 2.4518-5.5034 2.6937-8.1953 0.0967-1.0759 0.73218-2.3836 1.928-3.9674 0.98102-1.2994 1.6893-2.4569 1.5739-2.5722-0.063-0.0629-0.14423-0.0923-0.24174-0.089zm-153.73 6.5322c-0.12991-0.0143-0.22118 0.0239-0.26981 0.12648-0.29181 0.61439 0.94811 3.5308 4.5326 11.146 0.38545 0.81886 1.1807 2.0186 1.7671 2.6657 1.0059 1.11 1.9706 1.3522 1.9467 0.48915-0.0284-1.0252-6.7652-13.857-7.4743-14.236-0.20376-0.10909-0.37232-0.1763-0.50223-0.19066zm5.4031 5.0697c-0.39081 0.28088 0.08898 2.7117 0.87299 3.9082 0.71741 1.0949 1.5045 1.3521 1.4892 0.48666-0.01513-0.86147-1.5574-4.0137-2.1398-4.3737-0.09301-0.0575-0.16662-0.0611-0.22246-0.0212zm128.13 2.4021c0.33916-0.0706 0.5788 0.0162 0.5764 0.29099-1e-3 0.17547-0.34383 0.83636-0.76084 1.4687-0.71223 1.0801-0.78797 1.1021-1.2493 0.36329-0.39497-0.63246-0.34335-0.91999 0.26296-1.4687 0.39336-0.35598 0.83167-0.58379 1.1708-0.65426zm-144.25 10.644c-0.37473-0.0535-0.76679 0.22538-1.002 0.86115-0.23129 0.62525 0.27388 2.6636 1.6594 6.6997 1.0952 3.1906 2.1326 6.1364 2.3055 6.5459 0.38287 0.90606 1.9254 0.99493 1.9254 0.111 0-0.99717-2.4212-9.36-3.0988-10.704-0.3359-0.66619-0.73679-1.7381-0.89106-2.3816-0.16618-0.69306-0.52381-1.0787-0.89854-1.1322zm148.48 0.3882c0.36473 0 0.54466 0.19102 0.40005 0.42497-0.14461 0.23396-0.44285 0.42559-0.663 0.42559-0.22014 0-0.40004-0.19163-0.40004-0.42559 0-0.23395 0.29825-0.42497 0.66299-0.42497zm-9.1443 0.8412c-0.0893-8e-3 -0.18647 0.0276-0.28166 0.12277-0.14036 0.1404-0.10548 0.49797 0.0779 0.79447v6.3e-4c0.26802 0.43313 0.36812 0.43353 0.5122 1e-3 0.15421-0.46265-0.0408-0.89324-0.30845-0.91911zm-143.81 0.93718c-0.80608 0.42901 0.59318 3.9675 3.8428 9.6004 1.2377 2.1454 1.6783 2.5346 2.2377 1.9752 0.45289-0.45288-4.7967-11.299-5.5981-11.566-0.20638-0.0689-0.367-0.0709-0.48229-0.01zm159.58 1.4119c-0.9439 0-1.7338 3.2346-1.741 7.1247-5e-3 2.881 0.12593 3.7225 0.57949 3.7225 1.2747 0 1.6171-1.2454 1.6644-6.0454 0.0362-3.6699-0.0821-4.8018-0.50288-4.8018zm-15.525 0.35332c-0.6886 0.12271-1.5372 1.3837-1.5372 2.665 0 0.7688-0.19101 1.516-0.42496 1.6606-0.23397 0.1446-0.4256 0.53898-0.4256 0.87611 0 0.90426 1.6006 0.74505 2.1118-0.21 0.24218-0.45253 0.44055-1.3715 0.44055-2.042 0-0.67046 0.1833-1.4021 0.40752-1.6264 0.24518-0.24522 0.25578-0.65414 0.0262-1.0256-0.15667-0.25347-0.3687-0.33876-0.59824-0.29783zm3.4601 1.7367c-0.64322-0.64323-4.5718 6.9253-4.5718 8.8078 0 0.69371 1.0705 0.38211 1.4943-0.43494 0.23093-0.44529 0.79655-1.5457 1.2569-2.4458 0.46024-0.89996 1.1546-1.9827 1.5435-2.4058 0.65102-0.70859 0.82921-2.9693 0.27728-3.5212zm2.5754 0.74961c-0.35512 0.20238-0.75387 1.009-0.76021 1.7329-4e-3 0.40945 0.18178 0.74464 0.41125 0.74464 0.50959 0 1.0733-2.0535 0.67363-2.4532-0.0924-0.0924-0.2063-0.0917-0.32467-0.0244zm-157.99 3.7536c0.30132 0 1.2826 2.2793 1.6936 3.935 0.36249 1.4601-0.44071 1.5834-0.98514 0.15142-0.55262-1.4535-1.0091-4.0864-0.70849-4.0864zm13.291 5.6242c-0.57042 0.0877-0.8279 0.36916-0.701 0.76644 0.25469 0.79733 0.35086 4.5162 0.43993 17.005 0.03919 5.498 0.22779 10.666 0.41874 11.485 0.19095 0.81887 0.45889 2.5416 0.5957 3.8284l0.24862 2.3392-1.8519-3.8284c-1.7514-3.6209-3.2526-5.7427-4.0634-5.7427-0.80878 0-0.91349 2.2247-0.15516 3.295 0.93355 1.3176 1.2353 1.7849 3.0246 4.679 0.77564 1.2546 1.3342 2.5096 1.2413 2.7885-0.09297 0.27891-0.68204-0.30578-1.3092-1.2993-1.323-2.0958-2.4076-2.3831-2.4015-0.6362 0.0024 0.69134 0.61122 1.9334 1.4886 3.0371 0.81659 1.0272 1.4849 2.0103 1.4849 2.184 0 0.17376 0.37321 0.41352 0.82937 0.53277 1.1213 0.29322 2.5703 2.7692 2.5722 4.3954 0.0019 1.623 2.4202 6.4393 3.3592 6.6905 0.37591 0.10045 0.80456 0.20528 0.95274 0.2324 1.2333 0.22588-0.0048-4.6288-1.6419-6.4381-0.61623-0.681-0.60812-0.81703 0.0972-1.5964 0.67645-0.74748 0.70849-1.0615 0.25922-2.5611-0.28163-0.94001-0.4087-1.876-0.28227-2.0806 0.12642-0.20457 0.01692-1.3973-0.24364-2.6501-0.26055-1.2529-0.46485-2.5653-0.45363-2.9162 0.24455-7.6391-0.38894-32.501-0.83996-32.967-0.27233-0.28102-0.62334-0.13914-1.035 0.41872-0.61429 0.83248-0.6271 0.83097-0.87798-0.12834-0.18191-0.69565-0.5113-0.93362-1.1559-0.83437zm136.81 0.16388c-0.25469 0.0268-0.47069 0.16599-0.73028 0.42559-0.93749 0.93748-1.2627 2.6232-0.64868 3.3629 0.76414 0.92072 1.839 0.77605 2.9392-0.39504 1.1519-1.2262 0.91847-2.4554-0.59756-3.1461-0.41433-0.18878-0.70802-0.27415-0.96272-0.24737zm-150.27 35.747c0-0.24517 0.7659 0.30192 1.7017 1.2157 0.93584 0.91384 1.7017 1.9098 1.7017 2.2133 0 0.90275-0.84346 0.62637-1.2382-0.40564-0.20132-0.52639-0.77078-1.3215-1.2655-1.7671-0.49477-0.44569-0.89978-1.011-0.89978-1.2562zm-7.1103 4.8316c-1.1048 0-0.38462 1.8504 1.1116 2.8564 1.7573 1.1814 1.7453 1.181 1.7453 0.10092 0-0.97167-1.9183-2.9573-2.857-2.9573z" stroke-width="1.2058"/>
</svg>
