<?xml version="1.0" encoding="utf-8"?>
<svg xmlns="http://www.w3.org/2000/svg" version="1.1" viewBox="0 0 50 100">
	<title>The eye of a peacock’s tail feather, facing up.</title>
	<path d="m25.234 0.002341c-0.10332-0.012093-0.2094 0.022553-0.32123 0.10633-0.22375 0.16755-0.47226 0.53231-0.77393 1.1157-0.94716 1.8317-0.40203 2.1345 1.0177 0.56581 0.68593-0.75796 0.79224-1.2059 0.38353-1.6146-0.10219-0.10218-0.20275-0.16105-0.30606-0.17317zm3.941 0.24455c-0.90714 0-0.84796 0.24073 0.63643 2.5921 0.71288 1.1293 1.2964 2.3615 1.2964 2.7378 0 0.37636 0.20713 0.90628 0.46025 1.1772 0.71809 0.76866 1.219 2.8253 0.68806 2.8253-0.26228 0-1.6029-1.4327-2.9786-3.1836l-2.501-3.1836-1.6139 1.7612c-0.88766 0.96854-1.9777 1.691-2.422 1.6055-0.44806-0.086293-1.465 0.72018-2.2845 1.8113-0.81249 1.0819-1.6468 2.086-1.8532 2.2313-3.4708 2.4463-8.7468 7.3679-8.7506 8.1604-0.00467 1.4586 1.6978 0.4402 5.4461-3.2605 2.4923-2.4601 4.526-4.0226 5.488-4.2151 1.7227-0.34445 2.456-1.1404 1.5615-1.6937-0.41576-0.25695-0.29443-0.64349 0.4002-1.2721 0.70238-0.63563 1.106-0.72759 1.3633-0.31138 0.2508 0.40578 0.738 0.24095 1.5531-0.5248l1.1878-1.1157 3.0348 3.7988c2.5793 3.2281 3.0596 3.6236 3.2005 2.6323 0.24673-1.7372 0.93514-1.4256 2.4098 1.0906 2.0055 3.422 3.1105 4.2566 4.6851 3.5391 0.71171-0.32428 1.2941-0.79709 1.2941-1.0511s-0.89501-1.6006-1.989-2.9923c-1.094-1.3917-2.4276-3.2891-2.9635-4.2158-0.5358-0.92676-1.2734-1.6853-1.6397-1.6853-0.80613 0-0.82894 0.28198-0.1291 1.5896 0.30878 0.57701 0.33231 1.0033 0.05541 1.0033-0.73216 0-1.104-1.5789-1.0579-2.9673l-0.99412-2.0931-1.0769-1.7787c-0.29735-0.28638-0.58818-0.67513-0.86963-1.1977-0.53746-0.99798-1.2745-1.8143-1.6374-1.8143zm-6.5633 3.1108c-0.4277 0-1.0826 0.40855-1.4552 0.90756-1.0532 1.4105-6.261 5.6453-7.4169 6.031-1.1086 0.36986-4.4073 4.4306-4.4073 5.4256 0 1.2064 1.3289 0.53398 2.4918-1.2607 0.65758-1.0149 1.8825-2.0845 2.722-2.3771 0.83944-0.29256 1.5265-0.73549 1.5265-0.98351s1.2249-1.3759 2.722-2.507c3.019-2.281 5.1728-5.2358 3.8171-5.2358zm4.9655 5.2145c-0.08943-0.00867-0.19213 0.0035-0.30606 0.036435-0.45576 0.13168-1.0972 0.59303-1.8402 1.3595-1.5386 1.587-4.4143 4.1288-7.7739 6.8701-2.6581 2.1688-6.2354 5.8066-6.2444 6.3506-0.01625 0.97783 1.5271 0.19087 3.893-1.9845 1.4196-1.3052 3.6703-3.2045 5.0011-4.2211 1.3302-1.0165 2.9123-2.5153 3.5148-3.3303 1.4801-2.002 2.274-1.9137 1.8318 0.20353-0.31205 1.492-2.2658 4.0183-3.1078 4.0183-0.1718 0-1.3492 0.97148-2.6156 2.1585-2.2945 2.1506-2.9265 3.5445-1.6078 3.5445 0.97601 0 4.1951-2.5763 5.343-4.2758 1.2465-1.8457 1.74-1.803 1.74 0.15114 0 1.3464-1.182 2.7575-8.0368 9.5936-4.42 4.408-8.0359 8.3351-8.0359 8.7271 0 0.39196-0.3532 1.0062-0.78528 1.3648-1.1848 0.98329-3.1193 5.1131-3.8801 8.2851-0.37171 1.551-0.69953 5.9858-0.72756 9.8534l-0.050885 7.0334 2.4971 4.9343c1.3735 2.7141 3.5896 6.2198 4.9251 7.7899 1.3355 1.5701 3.2451 3.9425 4.2431 5.2723 1.5217 2.0273 3.1108 3.153 3.1108 2.2031 0-0.66766-2.167-3.6523-4.8895-6.7343-1.6668-1.8868-3.4245-3.9458-3.906-4.5758-1.3607-1.7807-3.5736-8.2989-3.9463-11.623-0.56803-5.0688-0.5734-5.4605-0.13746-10.002 0.49131-5.1181 2.0996-9.1988 5.314-13.48 2.4491-3.2621 8.1421-8.8136 9.0378-8.8136 0.33068 0 0.60151-0.21742 0.60151-0.48226 0-0.72593 3.4008-4.184 4.1148-4.184 1.4552 0 0.01217 2.3003-4.0473 6.4509-2.3865 2.4401-4.4545 4.4368-4.5956 4.4368-0.45261 0-3.9263 4.1668-4.6745 5.6071-2.2571 4.3453-3.9835 13.491-3.019 15.996 0.54431 1.4139 2.3326-4.1203 2.3536-7.2848 0.01124-1.6795 0.40066-3.1515 1.1574-4.3761l1.1407-1.8455 0.65011 1.525c0.35786 0.83879 0.66154 1.9453 0.67438 2.4591 0.02395 0.95669 3.1615 7.2588 4.31 8.6573 2.7548 3.3541 8.4949 3.7711 12.379 0.89921 0.81389-0.60178 1.4802-1.3761 1.4802-1.721 0-0.34483 0.7193-2.0773 1.5987-3.8498 1.6905-3.4071 2.6591-8.8083 1.5797-8.8083-0.32768 0-1.3184 1.1748-2.2016 2.6103-2.8596 4.6466-7.0941 5.7895-12.003 3.2383-3.038-1.5787-3.9671-2.3556-5.2896-4.4231-0.50161-0.78419-1.3452-1.4255-1.8728-1.4255-0.71098 0-0.86406-0.23603-0.5886-0.90758 0.68861-1.679 3.4776-5.2745 4.1065-5.2943 0.34273-0.01088 1.3455-1.0696 2.2283-2.3528 0.88288-1.2832 1.827-2.3331 2.0985-2.3331 0.27146 0 0.97956-0.4859 1.5736-1.08 0.59404-0.59408 1.1298-1.0026 1.1901-0.90756 0.06027 0.09505-0.03189 2.7393-0.20503 5.8761-0.33033 5.9838 0.10351 9.0734 1.2744 9.0734 1.1097 0 1.3235-1.2356 1.3784-7.9494 0.02842-3.4698 0.21133-6.8806 0.40631-7.5796 0.3276-1.1741 0.52323-1.0046 2.57 2.2366 2.0148 3.1895 3.099 3.9858 3.5573 2.6103 0.09286-0.27865-1.3507-2.5928-3.208-5.1423-1.8573-2.5495-3.3773-4.8143-3.3773-5.0338 0-1.0588 1.0927-0.11834 3.1595 2.7196 1.2493 1.7155 2.5396 3.0166 2.8655 2.8913 0.32656-0.12532 1.2177 0.91904 1.9806 2.321 0.76299 1.402 1.9193 3.1926 2.5693 3.9788 1.4299 1.7295 3.7838 6.6574 4.7415 9.9271 1.0027 3.4235 1.4607 12.678 0.82024 16.57-0.29793 1.8108-1.1343 4.4813-1.8585 5.9345-0.72411 1.4531-1.3162 2.8191-1.3162 3.0356 0 0.50236-1.9248 3.3408-4.1953 6.1866-3.5401 4.4371-5.5716 8.3449-7.1618 13.776-1.136 3.8798-1.296 5.251-0.77163 6.6173 0.17312 0.45106 0.71638 0.82024 1.2068 0.82024 0.6792 0 0.84128-0.34171 0.67896-1.4476-0.11689-0.79624 0.05448-2.721 0.3805-4.2773 0.32601-1.5563 0.72171-3.4711 0.87946-4.2553 0.1578-0.78416 0.4938-1.4263 0.74659-1.4263s0.45946-0.3616 0.45946-0.80351c0-1.1963 1.574-4.0258 2.6695-4.7991 0.52786-0.3726 0.96812-0.95614 0.97822-1.2964 0.02983-0.98958 2.487-3.73 2.9391-3.2778 0.22603 0.22603 0.04651 0.6838-0.39868 1.0169-1.6087 1.2037-4.0561 6.8133-4.3358 9.9378-0.07657 0.85546-0.43493 2.6593-0.79593 4.0085-0.65238 2.4381-0.43936 4.3485 0.42528 3.8141 0.24866-0.15371 0.5944-1.1596 0.76859-2.2358 0.83308-5.147 1.5622-7.4274 3.7503-11.734 1.3015-2.5615 3.0568-5.6616 3.9015-6.8891 0.84458-1.2276 2.37-3.8036 3.3888-5.7241 1.507-2.8406 1.8012-3.8715 1.5789-5.5281-0.21722-1.6194 0.0043-2.4551 1.0815-4.083 1.2237-1.8492 1.3577-2.5421 1.3838-7.1641 0.01991-3.5145-0.18043-5.3258-0.63873-5.7841-1.0927-1.0927-1.5776 0.367-1.0374 3.123 0.63818 3.2558 0.15301 6.5449-1.4065 9.5276-1.4324 2.7393-1.6068 3.8508-0.65311 4.1688 0.67598 0.22556-0.51301 3.478-2.2306 6.0955-0.46766 0.71291-1.2524 1.9578-1.7438 2.7668-2.0478 3.3721-1.0745 0.01245 1.7795-6.1373 0.87366-1.8827 1.5577-7.1173 1.5577-11.921 0-7.9326-2.2396-14.912-6.2383-19.445-0.88039-0.99806-2.058-2.6893-2.6171-3.7586-0.5592-1.0693-1.3679-1.9442-1.797-1.9442-0.42898 0-1.0188-0.62858-1.3108-1.3967-0.29203-0.76809-1.7062-2.982-3.1426-4.9198-1.4366-1.9378-2.518-3.8061-2.403-4.1513 0.11506-0.3451 1.213 0.70248 2.4401 2.3278 1.2272 1.6254 2.3005 2.9551 2.3855 2.9551 0.085 0 0.5241 0.14134 0.97516 0.31443 1.9088 0.73239 0.64611-2.0287-2.5503-5.5776-3.0488-3.3851-4.0528-5.106-2.9786-5.106 0.21518 0 1.2065 1.0595 2.2031 2.3543 3.0386 3.9476 3.3373 4.2121 3.543 3.145 0.18318-0.95099-1.5785-3.838-4.4415-7.2779-0.93261-1.1207-1.6958-2.3455-1.6958-2.722 0-0.41381-0.15169-0.62863-0.42-0.65466zm6.4608 5.7963c-0.07066-0.0035-0.13213 0.01746-0.18073 0.06608-0.33923 0.33925 2.3191 5.7873 3.6811 7.5438 0.46716 0.6025 0.59863 0.5299 0.73668-0.40708 0.22693-1.5402-3.1706-7.1486-4.2371-7.2028zm-25.821 6.6173c-0.55108 0-3.5505 5.9365-3.5505 7.0274 0 1.3384 1.2017 0.56266 1.6344-1.0549 0.21733-0.81258 0.60606-1.6141 0.86351-1.781 0.25746-0.16688 0.84104-1.0316 1.2972-1.9222 0.78559-1.5339 0.70678-2.2693-0.24455-2.2693zm32.205 0.05013c-0.3131-0.04846-0.5005 0.26695-0.5005 0.95618 0 0.55348-0.2328 1.1506-0.51795 1.3268-0.75479 0.46648-0.63876 1.102 0.38885 2.1295 0.83944 0.83944 0.91954 0.84158 1.0747 0.03647 0.0915-0.47866 0.50073-0.87036 0.90753-0.87036 0.96813 0 0.93564-0.77389-0.09795-2.3513-0.50255-0.76699-0.94156-1.1789-1.2547-1.2273zm-3.1465 3.0478c-0.26503 0.02314-0.4648 0.26528-0.4648 0.77998 0 1.4385 1.7388 5.1891 4.455 9.6073 2.6691 4.3421 3.9665 7.1641 4.5841 9.9749 0.34335 1.5627 1.1882 1.8815 1.6685 0.62958 0.54428-1.4183-2.5035-8.6741-5.6421-13.437-1.6828-2.5526-3.1898-5.2948-3.3493-6.0925-0.14912-0.74563-0.57818-1.259-0.96986-1.4149-0.09791-0.03898-0.19342-0.05556-0.28176-0.04785zm-26.293 1.0496c-0.63958 0-1.6972 2.096-1.345 2.6658 0.21565 0.34891 0.71798 0.17138 1.3762-0.48683 0.93082-0.93054 0.91298-2.179-0.03115-2.179zm6.0173 0.2362c-0.48785-0.48787-8.8768 8.1719-10.821 11.17-4.1438 6.3896-6.1783 13.448-6.1783 21.431 0 6.062 0.61105 9.2834 2.722 14.342 2.0776 4.978 3.7593 7.4531 7.4291 10.934 7.8299 7.4274 8.8984 8.6446 9.7873 11.153 0.49485 1.3968 1.1143 3.0833 1.3761 3.7473 0.2619 0.66399 0.72361 1.1246 1.0261 1.0238 0.70798-0.236 0.70766-0.254-0.05238-3.0083-1.3241-4.7976-2.6681-6.8914-7.6191-11.866-8.0516-8.0901-8.9839-9.4441-11.353-16.478-1.1666-3.4633-1.3773-5.0131-1.4301-10.541-0.051935-5.4336 0.13089-7.0924 1.1309-10.269 1.8-5.7171 4.6578-10.156 10.554-16.386 2.5456-2.69 3.9075-4.7765 3.429-5.2548zm18.417 9.2351c-0.6033-0.19963 1.5717 6.2178 2.5251 7.4511 0.76089 0.98418 2.0595 9.5326 1.6982 11.178l-0.33795 1.5379-1.2433-1.1681c-1.6521-1.5521-2.1186-0.93494-1.1073 1.4658 0.45168 1.0722 0.95868 2.6495 1.1263 3.505 0.28783 1.4689 0.26126 1.4996-0.48073 0.5491-0.4321-0.55353-0.78606-1.3315-0.78606-1.7285 0-0.39698-0.29136-0.61878-0.64783-0.49368-0.39923 0.14014-0.58961 0.95256-0.49593 2.1166 0.08559 1.0635-0.08442 1.8897-0.38885 1.8897-0.29751 0-0.54073-0.23355-0.54073-0.51873 0-0.28515-0.33628-0.51795-0.74656-0.51795-0.96166 0-1.5876 3.9631-1.0435 6.6066 0.49823 2.4208 0.60171 2.9961 0.99868 5.5518 0.17498 1.1265 0.56963 2.3513 0.87721 2.722 0.89116 1.0738 1.5744 0.78486 1.1658-0.49286-0.89039-2.7845-2.1063-9.3043-1.9716-10.569 0.26508-2.4863 1.1177-2.5465 1.7522-0.12381 1.668 6.3698 1.8913 6.9334 2.8251 7.1133 0.97493 0.18773 0.98021-0.34238 0.0243-2.6688-0.32721-0.79633-0.18875-0.88448 0.94176-0.60073 1.1915 0.29903 1.2933 0.2099 1.0086-0.88098-0.17425-0.66753-0.6248-1.5219-1.001-1.8987-0.69658-0.6978-0.92153-1.648-0.39036-1.648 0.16133 0 0.76448 0.2522 1.3405 0.5605 0.57596 0.30808 1.158 0.44981 1.2934 0.31443 0.13536-0.1354-0.35988-2.0516-1.1004-4.2576-1.3648-4.065-1.3805-5.3955-0.04332-3.5786 0.69646 0.94631 0.75406 0.94999 1.0952 0.06988 0.50453-1.3018 0.0142-9.4783-0.6182-10.31-0.28693-0.3773-0.54796-1.2076-0.58025-1.8448-0.07159-1.408-4.2858-9.0454-5.1485-9.3309zm-34.885 4.7035v1.3868c0.084446-0.48271 0.082153-0.94573 0-1.3868zm16.578 0.86049c-0.28515 0-0.51873 0.23355-0.51873 0.51873 0 0.28515 0.23358 0.51873 0.51873 0.51873 0.28518 0 0.51873-0.23358 0.51873-0.51873 0-0.28518-0.23355-0.51873-0.51873-0.51873zm-4.3973 12.443c-0.4223 0-0.92561 0.64211-1.1187 1.4263-0.19312 0.78419-0.63794 1.892-0.98881 2.4621-0.35081 0.57033-0.92791 1.9702-1.282 3.1108-0.35413 1.1407-0.84956 2.3348-1.1012 2.6536-0.57961 0.73426 0.38263 5.3896 1.7558 8.4939 1.0053 2.2723 2.1425 3.7258 7.0949 9.0726 3.5586 3.842 5.7401 7.0474 5.7401 8.4324 0 0.67546 0.24178 1.679 0.53696 2.2306 0.52241 0.97613 1.5551 1.3936 1.5182 0.61365-0.01015-0.21386-0.34203-1.7428-0.73746-3.3978-0.82701-3.4615-1.9922-5.132-7.3244-10.499-3.6685-3.693-4.4371-4.988-3.3553-5.6566 0.26865-0.16604 0.64736-1.4044 0.84151-2.7523 0.19415-1.3478 0.67368-3.2375 1.0663-4.1991 0.89751-2.1978 0.90061-2.9941 0.01291-3.3348-0.49723-0.19076-1.1141 0.99949-2.1205 4.0921-0.78061 2.398-1.6315 4.3608-1.8912 4.3608-0.84399 0-0.49758-3.2051 0.52553-4.8636 1.4342-2.3248 3.2765-7.4736 2.8951-8.0906-0.55531-0.89851-1.1528-0.58311-1.7035 0.89999-2.0206 5.4421-2.8865 7.3881-3.2863 7.3881-0.25205 0-0.45795-0.09737-0.45795-0.21722 0-0.65016 3.28-9.4503 3.6773-9.8663 0.74561-0.78061 0.54633-2.3596-0.2977-2.3596zm5.2358 10.37c-0.47215 0-1.0218 1.372-1.6086 4.0176-0.49018 2.21-1.065 4.602-1.2774 5.3148-0.21238 0.71288-0.28603 1.5878-0.16332 1.9443 0.38375 1.1147 1.6917 0.71509 1.6982-0.51873 0.0034-0.6416 0.46778-3.0328 1.0314-5.314 1.2233-4.9516 1.2521-5.444 0.31971-5.444zm12.357 1.2835c-0.03718 0.01438-0.06879 0.04309-0.0957 0.08811-0.10756 0.18008-0.1382 0.61606-0.1382 1.3845 0 2.3075 1.452 8.6786 2.1773 9.5526 0.70573 0.85026 1.4513 0.83431 1.4513-0.03111 0-0.37598-0.3299-1.8343-0.73364-3.24-0.40375-1.4062-0.88883-3.5353-1.0777-4.7308-0.18886-1.1955-0.67528-2.4485-1.0807-2.785-0.23016-0.191-0.39121-0.28118-0.50278-0.23848zm-2.6361 0.27193c-0.60221 0-0.68756 0.74876-0.45566 4.0176 0.51263 7.2259 1.0128 9.4623 2.1151 9.4623 0.99896 0 0.95179 0.34308-0.55364 4.048-0.71288 1.7545-1.3086 3.7198-1.3238 4.367-0.01835 0.78979-0.402 0.2816-1.1665-1.5448-1.1417-2.7268-2.2881-3.7458-1.7522-1.5561 0.15706 0.6416 0.67018 3.0335 1.14 5.3148s0.94976 4.4541 1.067 4.8286c0.40538 1.2949 1.2575 0.02761 1.2638-1.8782 0.0095-2.9511 1.5214-7.9088 3.7206-12.201 0.34766-0.67858 0.2731-1.1286-0.25672-1.5554-0.89338-0.71968-1.9147-3.6168-1.9147-5.431 0-3.0433-1.1552-7.8719-1.8835-7.8719zm-6.4373 0.02955c-0.46666 0.09546-0.85438 1.3723-1.6002 4.762-0.97469 4.4298-1.2215 7.7426-0.62123 8.3428 0.89128 0.89128 1.6609-0.64276 1.648-3.284-0.0021-0.42773 0.34623-2.644 0.77314-4.9251 0.46118-2.4645 0.58631-4.3438 0.3091-4.6313-0.18852-0.19625-0.35326-0.29611-0.50881-0.2643zm3.4525 0.48836c-0.41238 0-0.86523 0.77556-1.0602 1.8152-0.43683 2.3288-0.44363 11.521-0.0091 12.224 0.18213 0.29472 0.71763 0.46031 1.1901 0.36758 0.70981-0.13933 0.84653-0.79699 0.78909-3.7875-0.03826-1.9905-0.09605-5.1945-0.1291-7.1193-0.04483-2.6116-0.24342-3.4996-0.78073-3.4996zm15.927 9.5778c0.03033-0.0043 0.05378 0 0.07066 0.01828 0.0675 0.06708 0.03088 0.30673-0.08357 0.74429-0.1534 0.58661-0.48478 1.0663-0.73668 1.0663-0.69931 0-0.5461-0.83669 0.27873-1.5212 0.22673-0.1882 0.37995-0.29443 0.47086-0.30758z"/>
</svg>
