<?xml version="1.0" encoding="utf-8"?>
<svg xmlns="http://www.w3.org/2000/svg" height="181" version="1.1" width="250" xml:space="preserve" viewBox="0 0 250 181">
	<path d="m216.88 0.0077897c-3.703-0.045518-4.8813 0.086117-7.7359 0.86301-9.6554 2.6276-18.887 8.4169-23.672 14.846-0.50792 0.68238-1.11 1.4019-1.3381 1.5988-0.66673 0.57557-4.1726 5.8602-5.1993 7.8371-0.51824 0.99788-1.3312 2.3871-1.8065 3.0875-1.6699 2.4608-6.6822 7.6298-9.3851 9.6784-1.5022 1.1386-2.8487 2.2319-2.9919 2.4296-0.14325 0.19772-0.26285 4.14e-4 -0.26587-0.43825-7e-3 -1.0718-0.42826-1.0044-1.3283 0.2129-0.74477 1.0073-5.3005 4.6211-7.3475 5.8281-1.0433 0.6152-1.0382 0.5999 0.16304-0.48602 0.68238-0.61686 1.9963-1.82 2.9198-2.6737 0.92353-0.85365 1.826-1.5521 2.0054-1.5521 0.17935 0 1.0016-0.80683 1.8273-1.793 1.0428-1.2456 1.388-1.9062 1.131-2.1632-0.25706-0.25706-0.78623 0.05325-1.7338 1.0162-0.75021 0.76234-2.4714 2.3185-3.8249 3.4577-2.8509 2.3997-3.891 3.5651-4.2756 4.7922-0.2617 0.83505-2.1094 2.8429-2.616 2.8429-0.13091 0-0.73781 0.43901-1.3485 0.97517-2.3573 2.0694-4.8784 4.1946-5.7814 4.8737-0.51848 0.38993-1.4649 1.3075-2.1035 2.0386-0.63863 0.73111-1.4638 1.3293-1.8335 1.3293-0.36974 0-0.67244 0.1607-0.67244 0.35725s-0.61642 0.60415-1.3698 0.90558c-0.76636 0.30663-1.5434 0.92993-1.7644 1.415-0.21725 0.47684-0.55793 0.86664-0.75707 0.86664-0.19915 0-0.36243 0.18055-0.36243 0.40087 0 0.64432 2.9722 0.14646 4.4022-0.73735 0.7911-0.48894 1.2696-1.0595 1.2696-1.5142 0-0.88973 0.95291-1.6677 2.062-1.6829 0.52496-7e-3 1.5491-0.75488 2.8362-2.0718 2.761-2.825 6.0906-6.5286 6.0914-6.7753 3.5e-4 -0.11183 0.75772-0.6717 1.6834-1.2447 0.92573-0.57297 2.2702-1.5301 2.9873-2.1269 2.4171-2.0117 3.5111-2.857 3.8518-2.9759 0.45677-0.15931 0.0154 0.98339-0.78045 2.0209-0.84123 1.0966-0.40631 1.8516 0.45436 0.78875 0.49416-0.61027 0.78339-0.71061 1.2654-0.44085 0.56031 0.31356 0.52471 0.39456-0.34271 0.78979-0.92463 0.42129-1.3131 1.0359-0.65476 1.0359 0.68048 0 5.214-1.8509 5.7014-2.3278 0.65754-0.64327 0.0938-0.65095-1.4508-0.0192-0.65743 0.26891-1.4872 0.38199-1.8439 0.25132-0.61824-0.22649-0.61469-0.27812 0.0768-1.1091 0.599-0.7198 0.72731-0.76359 0.73736-0.25132 6e-3 0.34119 0.27147 0.62051 0.58884 0.62051 0.47104 0 0.53668-0.25105 0.35829-1.3667-0.24908-1.5576 0.0821-1.9813 2.4956-3.1945 2.6275-1.3207 8.8436-6.845 8.439-7.4996-0.14077-0.2278 0.21082-0.90177 0.79758-1.5287 0.98135-1.0485 4.3478-6.2433 4.3478-6.7093 0-0.35162 2.7992-4.4503 3.2147-4.7071 0.21305-0.13168 0.6589-0.68603 0.99075-1.2317 0.33182-0.54564 1.9539-2.4561 3.6047-4.2454 2.9842-3.2347 5.9565-5.59 9.424-7.468 3.4493-1.8681 9.5282-4.2756 11.212-4.4407 0.92962-0.091138 2.0979-0.32094 2.5963-0.51043 1.1322-0.43054 5.2652-0.42649 8.3045 0.0083 5.5188 0.78905 6.354 0.96988 7.1424 1.5448 0.45831 0.33421 1.3751 1.001 2.0376 1.482 0.66246 0.48094 1.6195 0.87765 2.1269 0.88066 0.60125 0.00402 1.4072 0.49774 2.3143 1.4181 0.76538 0.77657 1.509 1.4119 1.6528 1.4119 0.64094 0 2.4498 3.0426 2.4498 4.1208 0 0.63004 0.23926 1.3848 0.53171 1.6772 0.29244 0.29245 0.53172 0.87376 0.53172 1.2919 0 0.53135 0.18566 0.7248 0.61636 0.6418 0.86127-0.16587 0.98443-1.2709 0.23418-2.0999-0.59902-0.66187-0.92385-1.9803-0.61895-2.5116 0.21889-0.38144 4.5808 8.4648 5.4527 11.059 0.42603 1.2673 0.98285 3.1815 1.2374 4.2538s0.70116 2.7472 0.99281 3.722c1.0568 3.5321 1.7468 17.284 1.227 24.459-0.24801 3.4239-1.0282 10.167-1.2509 10.812-0.1009 0.29245-0.22228 0.85057-0.27001 1.2405-0.36002 2.9395-2.3728 9.5827-3.7002 12.213-2.8135 5.5757-5.8664 10.799-7.1704 12.268-0.35719 0.40249-0.64907 0.85059-0.64907 0.99594 0 0.14536-0.55864 0.99539-1.241 1.8891-0.68238 0.89368-1.2405 1.8069-1.2405 2.0287 0 0.55152-7.3603 7.7273-10.654 10.387-1.4728 1.1893-4.0773 3.4921-5.7876 5.1173-1.7104 1.6252-3.8069 3.3632-4.6588 3.8617-1.8136 1.0614-4.0592 3.1551-4.0642 3.7901h-5.1e-4c-6e-3 0.72372 0.60197 0.5125 1.9628-0.6823 0.70507-0.61907 2.0955-1.5025 3.0901-1.9633 1.0834-0.50196 2.9181-1.9337 4.5772-3.5714 1.5231-1.5034 3.5282-3.4089 4.4552-4.2345 0.92705-0.82565 2.1799-1.9424 2.7843-2.4815 4.7916-4.2743 8.2775-7.7635 10.009-10.019 2.4993-3.2553 5.7295-7.9296 5.7295-8.291 0-0.14632 0.45697-0.93284 1.0151-1.7478 0.5582-0.81498 1.1318-1.8552 1.2748-2.3117 0.14299-0.45651 0.95843-2.1877 1.8122-3.8472 3.6142-7.0246 5.1486-14.022 5.6588-25.808 0.14352-3.3144 0.25639-6.2658 0.25237-6.5582-0.0415-2.7011-0.95109-12.985-1.4892-16.837-0.37064-2.6534-1.6473-7.5467-2.1253-8.1451-0.15922-0.19932-0.47009-1.2184-0.6906-2.2645-0.2205-1.0461-0.69474-2.3226-1.0541-2.8362-0.35935-0.51361-0.71635-1.0966-0.79292-1.2961-0.0765-0.19949-0.84875-1.5956-1.7161-3.102-1.2467-2.1652-1.748-2.7391-2.3928-2.7391-0.47066 0-0.81576-0.21402-0.81576-0.50628 0-0.27856-0.53445-1.0364-1.188-1.684-3.0567-3.0282-4.4384-4.1025-6.0784-4.7268-1.9006-0.72351-1.4183-1.182 0.60028-0.57066 4.1816 1.2665 5.4669 2.0029 8.347 4.7803 1.352 1.3037 1.9645 1.6853 2.2484 1.4015 0.27999-0.27965 0.28311-0.59131 0.0103-1.1008-0.61837-1.1554-3.6385-3.6477-5.3572-4.421-0.87732-0.39471-2.3926-1.0786-3.3674-1.5199s-3.5272-1.0646-5.6718-1.3854c-2.1446-0.32073-4.6448-0.7478-5.5566-0.94868-0.91172-0.20089-3.6238-0.3895-6.0265-0.41904zm-178.06 1.7452c-5.44 0.038987-8.0661 0.27273-10.28 0.91597-2.8401 0.82508-8.2499 2.9918-9.0392 3.6203-0.29244 0.23287-1.1466 0.73457-1.8984 1.1148-1.7076 0.86374-5.9162 4.4184-8.0267 6.7794-1.7565 1.965-3.9003 6.0206-5.7757 10.927-2.5164 6.5837-2.8852 8.0548-3.573 14.252-0.60183 5.4225 0.04377 15.06 1.348 20.125 0.50092 1.9452 0.91611 3.7793 0.92272 4.0762 0.00661 0.29692 0.32067 1.1783 0.69736 1.9581 0.3767 0.77985 0.69023 1.7672 0.69684 2.1944 0.00661 0.42716 0.15911 0.86757 0.33908 0.9788 0.17996 0.11122 0.43579 0.7192 0.56859 1.3506 0.40747 1.9374 2.8016 6.7327 4.814 9.6431 1.0514 1.5206 2.2719 3.301 2.7126 3.9562 0.44072 0.65527 1.4371 2.03 2.2141 3.0548 0.77696 1.0248 1.4136 1.9954 1.4145 2.157 0.0014 0.26756 2.84 3.7095 4.3436 5.2668 0.34118 0.35337 0.62051 0.78141 0.62051 0.95076 0 0.16935 1.4029 1.7433 3.1176 3.4977 3.1823 3.2559 5.4976 6.3669 5.1531 6.9243-0.10558 0.17084-0.4189-0.013-0.69632-0.40918-0.52426-0.74848-1.5484-0.66512-1.5484 0.12618 0 0.24528 0.33556 0.87284 0.74565 1.3942 0.64527 0.82036 0.96673 0.93408 2.3875 0.84535 1.4946-0.0934 1.6459-0.0297 1.6881 0.71087 0.05589 0.98152 1.7877 4.3282 2.5599 4.947 0.74714 0.59858 2.5208 0.56222 2.7583-0.0566 0.28564-0.74436-0.83992-2.6765-1.7639-3.0278-0.90299-0.34332-1.77-1.5181-2.1056-2.8533-0.12251-0.48741-0.68369-1.1912-1.2473-1.5645s-1.4056-1.4061-1.8714-2.2951c-1.5642-2.9852-3.0527-5.1649-5.0581-7.4082-1.0959-1.2259-1.9924-2.3593-1.9924-2.5184 0-0.15912-0.4385-0.75118-0.97464-1.3158-0.53615-0.56462-2.1308-2.5418-3.5434-4.394-1.9189-2.5159-2.5687-3.6479-2.5698-4.4755-0.0013-0.94676-0.1561-1.1387-1.065-1.3205-0.58489-0.11697-1.0634-0.39462-1.0634-0.6174s-0.89624-1.5956-1.9914-3.0506c-2.007-2.6667-2.1714-2.9481-3.7947-6.4876-1.1855-2.5848-3.589-9.9181-4.1245-12.584-0.23496-1.1698-0.56455-2.7651-0.73267-3.545-0.60169-2.791-0.65774-3.2221-0.73631-5.6713-0.043776-1.3647-0.22667-3.0225-0.40658-3.6836-0.33811-1.2425 0.42717-10.307 1.2005-14.218 0.99879-5.0505 3.4534-11.134 5.8635-14.533 1.3291-1.8744 1.8492-2.3377 4.1016-3.654 0.92607-0.54122 1.6839-1.1233 1.6839-1.2935 0-1.1748 11.759-7.8138 13.84-7.8138 0.55095 0 1.4508-0.17169 1.9997-0.38165 1.7895-0.68463 10.013-0.79945 12.428-0.17343 1.1779 0.30523 2.5176 0.56678 2.9769 0.58105 0.45927 0.014268 1.9518 0.72941 3.3165 1.5889 1.3647 0.85952 2.92 1.7406 3.4562 1.9581 0.53615 0.21754 0.97465 0.53964 0.97465 0.71554 0 0.17588 0.21519 0.31934 0.47824 0.31934s1.2602 0.87594 2.2157 1.9462c0.95547 1.0702 2.802 3.0779 4.1037 4.4615 1.3017 1.3836 2.6151 3.0381 2.9182 3.6769 0.30312 0.63877 0.81976 1.3827 1.1481 1.6533 0.32832 0.27056 1.1579 1.3677 1.8439 2.4379 0.68595 1.0702 1.9021 2.6656 2.7022 3.545 0.80011 0.87939 1.8678 2.1569 2.3725 2.8393 3.4935 4.7232 10.354 9.0668 14.99 9.4899l2.1103 0.19264-1.1258-1.3656c-0.61897-0.75091-1.0719-1.4185-1.0063-1.484 0.06554-0.06552 0.789 0.31908 1.6071 0.8547 1.0486 0.68652 1.4386 1.16 1.322 1.6055-0.10148 0.38805 0.02951 0.63246 0.3396 0.63246 0.2778 0 2.2171 0.55424 4.3093 1.2317 4.2705 1.3827 5.5168 2.3732 8.0402 6.3895 1.796 2.8585 2.4332 3.5159 5.3349 5.5031 3.0714 2.1034 3.5638 2.4942 6.404 5.0861 2.6119 2.3836 3.1456 3.5252 0.60078 1.2852-0.92392-0.81327-2.1604-1.7034-2.7474-1.9784-0.58703-0.275-2.4231-1.2154-4.0803-2.0895-3.3443-1.7641-3.5444-1.8254-3.5444-1.0878 0 0.2833 0.56362 0.78253 1.253 1.1097 1.4789 0.70179 1.3643 1.1457-0.13553 0.52445-0.56767-0.23518-1.2511-0.38371-1.5183-0.33025-0.26716 0.05345-1.0808-0.10631-1.8081-0.35465-0.7273-0.24875-1.4736-0.35783-1.6585-0.24353-0.69307 0.42835-8.3596-1.8174-11.021-3.2282-3.8924-2.0636-4.8134-2.7345-8.2323-5.9979-1.3108-1.2511-2.5341-2.2749-2.7188-2.2749-0.18472 0-0.4366-0.45855-0.55976-1.0193-0.12316-0.56075-0.86151-1.6375-1.6403-2.3927-2.6695-2.5887-14.177-16.781-16.645-20.529-0.99245-1.5068-4.4386-4.9906-6.3947-6.4642-3.791-2.8561-8.6943-4.7059-13.823-5.2149-1.9285-0.19142-8.7635 0.93115-10.78 1.7707-2.3867 0.99376-5.0585 3.904-6.9949 7.618-1.9906 3.8182-2.0275 10.258-0.08775 15.31 1.4382 3.7453 6.4702 9.5282 7.8351 9.0044 0.25706-0.09867 1.469 0.4397 2.6934 1.1964 1.2244 0.75666 3.502 2.0499 5.0617 2.8736 1.5597 0.82367 3.512 2.05 4.3384 2.7251 0.91508 0.74751 1.7199 1.144 2.0583 1.0141 0.33883-0.13001 0.8593 0.12757 1.3335 0.65998 0.42768 0.48023 1.6548 1.3977 2.7271 2.0391 1.0723 0.64138 2.967 1.8819 4.2101 2.7567 2.8888 2.033 2.9188 2.0535 6.039 4.0647 3.1239 2.0137 6.768 5.5636 8.8331 8.6046 2.4908 3.6679 4.1677 3.8735 1.9815 0.24301-0.68641-1.1399-1.4936-2.5895-1.7935-3.2215-0.75917-1.5998-6.2842-6.9581-8.6358-8.3751-1.0723-0.64616-2.7472-1.765-3.722-2.4862-4.3174-3.1941-9.1284-5.876-10.148-5.6573-0.34368 0.07365-1.2045-0.5837-2.1269-1.6242-0.85224-0.9614-2.028-2.0082-2.6129-2.3263-0.58489-0.31808-1.3027-0.72863-1.5952-0.91233-0.29244-0.18371-1.8158-1.0547-3.385-1.9353-1.5693-0.88058-3.2304-2.0028-3.6919-2.494-0.46148-0.49123-1.5707-1.2414-2.4644-1.6668-3.1848-1.5159-4.0095-2.5551-5.6718-7.1455-0.63449-1.7519-0.7297-2.6888-0.6309-6.203 0.10508-3.7373 0.20538-4.2804 1.0349-5.5872 1.7404-2.7419 3.7951-4.1953 10.024-7.0894 1.7512-0.81388 8.4178-0.81951 10.989-0.0098 7.3834 2.3254 10.507 4.8653 17.485 14.218 1.6001 2.1446 3.5192 4.6169 4.2652 5.4943 0.74596 0.87733 1.5662 1.9941 1.8226 2.4815 0.65686 1.2487 5.6643 7.0606 6.4419 7.4768 0.35484 0.18991 0.95568 0.9539 1.335 1.6975 0.37933 0.74356 1.1376 1.6446 1.685 2.0023 0.54738 0.35769 1.9586 1.581 3.1363 2.7183 2.6135 2.5239 3.6948 3.2669 7.7842 5.3504 4.9037 2.4984 8.2554 3.503 12.584 3.7729 3.589 0.22376 3.8606 0.30092 7.5936 2.1497 2.1292 1.0546 4.6771 2.5225 5.662 3.2625 0.98493 0.74005 2.0486 1.3459 2.3637 1.3459 0.31506 0 1.296 0.79742 2.1804 1.7722 1.4819 1.6336 2.7604 2.2862 2.7604 1.4093 0-0.33391-2.7322-4.9023-3.1747-5.3084-0.10623-0.09747-0.58195-0.73572-1.0572-1.4181-0.47526-0.68237-1.176-1.4652-1.5572-1.7395-0.38123-0.27429-1.0257-0.88113-1.4321-1.3485-0.40638-0.46738-1.4601-1.3158-2.3418-1.8854-4.4532-2.877-5.8666-4.1237-6.9352-6.1163-0.59319-1.1061-1.5108-2.4618-2.0386-3.0127-0.52784-0.55096-0.95959-1.3857-0.95959-1.8553 0-0.89986-3.5913-4.582-6.026-6.1781-0.68237-0.44735-1.5447-1.1529-1.9161-1.5682-0.84982-0.95011-1.6289-0.97229-1.6289-0.04621 0 0.94649-0.22176 0.89914-1.6492-0.35413-1.4295-1.2551-1.8251-1.3157-2.1882-0.3344l-0.27001 0.72904-0.65998-0.72904c-0.36298-0.40108-0.94475-0.72904-1.293-0.72904-0.3482 0-0.7316-0.15969-0.8521-0.35465-0.32909-0.53249-1.9498-0.43018-1.9498 0.12306 0 0.26261 0.31938 0.84544 0.70931 1.295 0.88682 1.0225 0.92246 1.3666 0.06075 0.58676-0.35654-0.32266-0.7555-0.58676-0.88637-0.58676-0.49784 0-0.20842 0.98033 0.47097 1.5952 1.303 1.1792 0.72868 1.234-1.1522 0.11008-1.0236-0.61162-2.2595-1.3175-2.7469-1.5687-1.9485-1.0042-8.2113-7.6773-10.594-11.289-0.50954-0.77218-1.3427-1.8094-1.8517-2.3045-0.509-0.49509-1.191-1.4188-1.5157-2.0526-0.32469-0.63379-1.8226-2.4971-3.3284-4.1406-1.5059-1.6435-3.6816-4.0287-4.8348-5.3006-1.5063-1.6614-2.8286-2.6892-4.6967-3.6504-1.4301-0.73586-2.6004-1.4428-2.6004-1.5708 0-1.1012-7.7579-3.3159-11.52-3.289zm171.48 4.1006c-0.1918-0.050944-0.50535-0.030169-0.99177 0.04881-2.4466 0.39704-9.316 4.4509-8.8419 5.218 0.22739 0.36792 0.6171 0.17577 4.72-2.3258 1.4301-0.87192 2.8657-1.587 3.1903-1.59 1.1986-0.010048 2.1856-0.44777 2.1856-0.96945 0-0.20826-0.0704-0.33065-0.26223-0.38165zm5.8328 0.38113c-0.58489-0.048734-1.1152-0.03849-1.4898 0.05556-1.4063 0.35297-0.77572 0.79999 1.4939 1.0593 1.1254 0.12857 2.2712 0.37423 2.5459 0.54574 0.50899 0.31772 1.4503 0.13404 1.4503-0.283 0-0.55261-2.2457-1.2313-4.0004-1.3776zm9.8503 1.7416c-0.12789 0.12789 0.53742 1.8353 1.4783 3.7942 1.5455 3.2177 2.5968 4.4619 2.5968 3.0735 0-1.9465-3.3503-7.5925-4.0751-6.8677zm5.7809 0.2965c-0.82369 0-0.80803 0.1891 0.12255 1.496 0.96567 1.3561 2.039 6.4168 2.0573 9.6997 8e-3 1.381 0.12914 2.6263 0.27001 2.7671 0.14089 0.14088 0.45973-0.02292 0.7088-0.36348 0.72622-0.99317 0.6976-2.3565-0.11839-5.6236-0.29218-1.1698-0.58015-2.9407-0.63973-3.9354-0.12085-2.0175-1.3226-4.0403-2.4005-4.0403zm-17.468 1.0707c-1.1353 0.023814-2.2891 0.13878-3.4198 0.35102-6.1573 1.1558-13.373 4.4981-17.033 7.8896-1.1619 1.0766-1.9589 1.561-2.3325 1.4176-0.41635-0.15976-0.50918-0.06532-0.34842 0.35361 0.15511 0.40421-8e-3 0.60341-0.55872 0.68179-0.46259 0.06582-1.0151 0.58492-1.3625 1.2805-0.32133 0.6434-1.1588 1.7279-1.861 2.4099-0.70224 0.68199-1.2769 1.3812-1.2769 1.5536 0 0.17244-0.31887 0.41472-0.70879 0.53847-0.38993 0.12376-0.70877 0.38509-0.70877 0.58053 0 0.4154-1.7536 2.996-2.7443 4.0388-0.37631 0.39612-1.2005 1.4333-1.8314 2.3045-1.4581 2.0133-5.9503 6.6867-8.8139 9.1696-2.2998 1.9941-2.6307 2.5178-1.5874 2.5148 1.1967-4e-3 8.449-6.9156 11.529-10.987 0.81109-1.0723 2.0783-2.6236 2.8159-3.4479 0.73764-0.82424 1.3412-1.6428 1.3412-1.819 0-0.52969 7.8272-8.3221 9.9562-9.9121 2.6823-2.0031 5.3402-3.4817 9.2703-5.1557 1.4539-0.61926 8.878-1.9976 10.76-1.9976 1.2093 0 4.358 1.0063 6.4632 2.0656 2.2708 1.1426 4.8557 5.4211 5.405 8.9452 0.45822 2.9402-0.32467 7.1299-1.8179 9.7262-0.56065 0.97482-1.3662 2.4105-1.7898 3.1903-0.8668 1.5955-5.3393 6.0405-7.7614 7.7136-0.87733 0.60605-1.6748 1.2057-1.7722 1.3329-0.0975 0.12723-0.93493 0.67156-1.861 1.2093-0.92606 0.5378-1.684 1.0879-1.684 1.2223 0 0.1344-0.51808 0.54588-1.1517 0.91441-0.63364 0.36854-1.2318 0.77436-1.3293 0.90195-0.0975 0.1276-1.2938 0.973-2.6586 1.8787-1.3648 0.90568-2.8805 1.93-3.3679 2.2759-0.48738 0.34594-1.3983 0.90524-2.0246 1.2431-0.62631 0.33786-3.019 1.8454-5.3172 3.3502-2.2981 1.5049-4.6132 2.9832-5.1443 3.2853-0.53108 0.3021-1.4086 0.91536-1.9498 1.3625-0.54121 0.44716-2.6589 2.041-4.706 3.5419-3.8553 2.8266-9.3398 8.0355-12.026 11.422-0.84962 1.071-2.0012 2.9043-2.5589 4.0741-0.55769 1.1698-1.4918 3.0002-2.0755 4.0673-0.58369 1.0672-1.1476 2.5028-1.253 3.1903-0.10537 0.68748-0.5309 2.5263-0.94608 4.086-0.61958 2.3276-0.7568 3.8629-0.76383 8.5667-6e-3 4.3112 0.11062 5.8741 0.47202 6.3095 0.65061 0.78394 0.97841 0.40536 3.0241-3.4972 0.90954-1.7351 2.0248-3.5697 2.4784-4.0767 0.45359-0.50698 2.1549-2.3827 3.7807-4.1686 1.6258-1.7859 3.7324-4.1434 4.6816-5.2388s2.0537-2.1673 2.4545-2.3818c0.69367-0.37124 0.68856-0.32376-0.10646 0.98503-1.8384 3.0263-3.2549 6.0957-5.1339 11.123-0.25503 0.68237-0.79885 2.099-1.2083 3.1483-0.40945 1.0492-0.90837 3.2828-1.1086 4.9631-0.86919 7.2935-1.4195 11.017-1.9804 13.394-0.56359 2.389-0.56374 2.6172 3e-3 3.8108 0.33138 0.69829 0.72259 1.2696 0.86924 1.2696s0.46551-0.55062 0.70878-1.2234c0.24715-0.6835 0.63092-1.1543 0.86924-1.0671 0.55945 0.20467 0.93639-0.0959 2.1326-1.7006 0.54633-0.73291 1.582-1.6353 2.3018-2.0054 0.71982-0.37003 2.0269-1.3204 2.9042-2.1118 1.8367-1.6567 2.2595-1.3477 0.92168 0.67399-0.50689 0.76597-0.92168 1.5297-0.92168 1.6969 0 0.51989-4.9502 7.5606-7.1367 10.15-1.9528 2.313-2.5695 3.8407-1.8434 4.5669 0.39799 0.39728 2.0312 0.24127 2.6877-0.25703 0.76032-0.57716 0.78636-1.0546 0.0888-1.6336-0.82454-0.68429-0.65274-1.2058 1.0089-3.0631 0.84738-0.94717 1.7427-2.1208 1.9898-2.6082 1.1062-2.182 2.9566-4.5452 3.4198-4.3675 0.32527 0.12482 0.41463 0.48311 0.26689 1.0718-0.18368 0.73194-0.10697 0.86266 0.44553 0.75759 0.4349-0.0827 1.2237-1.2463 2.2629-3.3383 0.87731-1.7662 1.9723-3.807 2.4332-4.5352 0.59143-0.93437 0.77837-1.6226 0.63504-2.3393-0.19051-0.95258 0.29181-1.9135 1.7094-3.4042 0.47985-0.50463 1.6555-2.0206 3.4162-4.4049 2.2971-3.1106 2.7261-3.4765 4.031-3.4396 0.86992 0.0247 1.6078-0.31705 2.8076-1.3002 0.8952-0.73355 1.6279-1.4828 1.6279-1.6647 0-0.58889-0.93536-0.35032-1.6279 0.41488-0.37096 0.40989-1.1136 0.97236-1.6502 1.2498-0.8575 0.4434-0.97568 0.4389-0.97568-0.0338 0-0.29576 0.51861-1.2428 1.1522-2.1051 0.63363-0.86225 2.3481-3.258 3.8103-5.3234 1.6246-2.2947 2.9688-3.8381 3.4562-3.9682 1.0615-0.28332 1.0193-0.84483-0.0634-0.84483-0.85239 0-1.2262 0.28794-2.4057 1.8522-0.62049 0.82295-1.6346 2.1115-4.6204 5.8697-0.92608 1.1657-1.684 2.3412-1.684 2.6124 0 0.55075-1.3988 2.3321-4.1286 5.2575-1.0034 1.0753-2.359 2.6126-3.0127 3.4162s-1.7072 1.8213-2.3408 2.2614c-0.63363 0.44004-1.1522 1.0356-1.1522 1.3236 0 0.51783-0.57874 1.0582-3.3035 3.0839-1.7066 1.2688-1.3226 0.33045 0.62777-1.5334 1.0753-1.0276 1.5686-1.8112 1.1398-1.8112-0.16839 0-4.5711 4.3824-7.024 6.9918-1.1408 1.2136-2.0744 2.1257-2.0744 2.0266 0-0.40481 1.7854-3.6673 2.1201-3.8742 0.44919-0.27761 0.47785-1.2452 0.0369-1.2452-0.17844 0-1.1756 1.3454-2.2157 2.9894-2.854 4.5111-2.8231 4.474-2.6498 3.2142 0.0805-0.58488 0.48144-2.3394 0.89106-3.8991 0.40959-1.5597 0.89706-4.1121 1.0837-5.6718 0.18662-1.5597 0.5236-3.9336 0.74876-5.2751l0.40969-2.439 3.3222-3.29c1.8272-1.8095 3.3664-3.4474 3.4208-3.64 0.27136-0.95979-0.88394-0.15004-3.5206 2.468l-2.911 2.8907 0.37177-1.3833c0.38341-1.4259 2.3638-5.7275 5.2061-11.309 1.5812-3.1051 4.0618-6.471 7.2063-9.7787 0.84993-0.89405 1.7325-1.6914 1.9612-1.7722 0.22872-0.08079 1.1057-0.79019 1.9493-1.5765 0.84356-0.78627 2.9695-2.5369 4.7242-3.8898 3.4164-2.6341 3.7767-2.9899 3.4915-3.4515-0.36567-0.59168-1.5686 0.05879-5.729 3.0989-2.1483 1.5698-6.3623 5.1666-7.8506 6.701-0.86918 0.89609-1.7506 1.6294-1.9592 1.6294s-0.65219 0.31886-0.98606 0.70879c-0.33387 0.38993-0.84802 0.70878-1.1424 0.70878-0.29434 0-0.53534 0.14264-0.53534 0.31675 0 0.17411-0.25703 0.41532-0.57119 0.53587-0.39978 0.1534-0.51201 0.06601-0.3749-0.2913 0.42457-1.1063 0.65377-3.0423 0.36037-3.0423-0.32603 0-1.1513 1.754-1.8698 3.9739-0.28114 0.86852-1.0504 1.8233-2.264 2.8102-2.8241 2.2967-5.2056 4.6602-5.2056 5.1661 0 0.84946 1.0925 0.46307 1.7-0.6013 0.64876-1.1366 1.4903-1.68 1.4903-0.96218 0 0.24165-1.4542 1.8717-3.2313 3.6223-1.7771 1.7506-3.9335 4.2521-4.7917 5.5587-0.85818 1.3066-1.6969 2.46-1.8636 2.563-0.4651 0.28748-0.73467-2.0844-0.53534-4.7076 0.0986-1.2967 0.59505-4.1124 1.1034-6.257 0.50834-2.1446 1.061-4.4859 1.2285-5.203 0.16755-0.71706 0.87969-2.1527 1.5822-3.1903 0.70249-1.0376 1.4392-2.3655 1.6372-2.9504 0.4459-1.317 1.6063-2.8934 4.1478-5.6345 3.2475-3.5026 5.8693-6.012 7.2592-6.9492 0.72284-0.48741 1.5814-1.1433 1.9083-1.4576 1.5109-1.4527 13.666-9.5178 18.639-12.367 0.85066-0.48741 2.1629-1.3285 2.9167-1.8688 2.6789-1.9203 7.1881-4.8665 7.4482-4.8665 0.14529 0 0.6718-0.38518 1.1699-0.85626 0.49808-0.47108 1.7687-1.4216 2.8237-2.1118 4.4873-2.9358 10.347-9.6811 10.879-12.523 0.13866-0.7404 0.44863-1.825 0.68906-2.4099 0.78662-1.9135 0.98583-7.191 0.36088-9.5637-0.62713-2.381-3.9268-7.5592-5.556-8.7194-1.9849-1.4134-5.2283-2.1635-8.6342-2.0921zm10.296 0.75136c-0.53815 0.10769-0.44264 0.33295 0.61893 1.457 1.9554 2.0706 2.7811 1.7472 1.0053-0.3936-0.60698-0.73175-1.2332-1.1417-1.6242-1.0634zm11.424 0.44708c-0.13566-0.05908-0.27537-0.03403-0.40657 0.0971-0.2929 0.29289-0.30444 2.352-0.0177 3.0994 0.11834 0.30839 0.4372 0.56028 0.70879 0.56028 0.34686 0 0.49382-0.46151 0.49382-1.5515 0-1.094-0.37138-2.0281-0.77838-2.2053zm-37.819 1.2758c-0.44731 0-4.2948 3.2143-4.2948 3.5881 0 0.53775 0.35132 0.35504 2.5085-1.3049 1.9413-1.4938 2.559-2.2832 1.7862-2.2832zm-5.218 4.2538c-0.34074 0-3.1348 1.9474-4.3908 3.0605-1.4084 1.2481-3.1934 3.7833-3.1934 4.5357 0 0.98157 0.61372 0.59943 1.7203-1.0712 0.59299-0.89525 1.1265-1.7327 1.1855-1.861 0.16396-0.35646 3.1939-2.7268 4.0954-3.2038 0.70733-0.37431 1.141-1.4602 0.58313-1.4602zm46.161 5.6713c-0.48667 0-0.91369 1.0249-0.92273 2.2157-6e-3 0.77333 0.90659 0.81892 1.1979 0.05971 0.38616-1.0064 0.23271-2.2754-0.27521-2.2754zm-1.362 5.095c-0.15449 0.04723-0.31662 0.16353-0.4642 0.36348-0.27314 0.3699-0.41276 0.8084-0.31 0.97464 0.31391 0.50792 1.1193 0.33688 1.3594-0.28871 0.27281-0.71095-0.1217-1.1911-0.5852-1.0494zm-0.99594 3.0584c-0.1881 0-0.34219 0.31163-0.34219 0.69269 0 0.38107-0.39845 1.0917-0.88586 1.5791-0.48739 0.48741-0.88636 1.0528-0.88636 1.2566 0 0.49042 0.81829 0.47417 1.3189-0.02649 0.29348-0.29355 0.34618-0.01567 0.20144 1.0634-0.15869 1.1832-0.0881 1.4607 0.37025 1.4607 0.8144 0 1.2997-1.1254 1.2997-3.0132 0-1.6888-0.47287-3.0127-1.0759-3.0127zm-5.5316 1.5287c-0.3038-0.10843-1.5453 2.5586-1.5453 3.3196 0 0.0627 0.24278 0.11424 0.54003 0.11424 0.89535 0 1.816-3.1445 1.0053-3.4338zm-145.9 5.2061c0.19798 0 0.45169 0.23927 0.56392 0.53172 0.11222 0.29244 0.1485 0.53172 0.081 0.53172-0.06749 0-0.32121-0.23928-0.56391-0.53172-0.25436-0.30648-0.28849-0.53172-0.081-0.53172zm158.46 0.7093c-0.59889 0-1.9305 3.9434-1.5432 4.57 0.68288 1.1049 1.468-0.07527 1.821-2.7365 0.19733-1.4876 0.14507-1.8335-0.27779-1.8335zm-151.27 0.69996c0.23095 0.07425 0.54941 0.22361 0.89987 0.43046 0.9786 0.57739 1.3383 0.64832 1.55 0.30584 0.33493-0.54193 1.7842 0.10076 1.7842 0.79135 0 0.27338-0.57686 0.43098-1.5791 0.43098-1.2931 0-1.6444-0.14425-1.942-0.79758-0.19987-0.43867-0.52626-0.79758-0.7254-0.79758s-0.36192-0.15433-0.36192-0.34271c0-0.09419 0.14344-0.09502 0.37438-0.02077zm-1.9275 0.21186c0.17484 4e-3 0.43892 0.11898 0.87858 0.34634 0.56588 0.29262 1.0292 0.60803 1.0292 0.70048 0 0.09255-0.11964 0.144-0.26586 0.11476-0.14622-0.02924-0.69584-0.11869-1.2213-0.19888-0.64585-0.09857-0.89335-0.30812-0.76331-0.64699 0.08221-0.21423 0.16787-0.32012 0.34271-0.31571zm138.33 1.9618c-0.4811-0.02332-1.0669 0.50769-1.6554 1.5287-0.32812 0.56926-1.0618 1.4617-1.6305 1.983-0.71875 0.65883-0.96077 1.1393-0.79342 1.5754 0.22546 0.58753 0.29104 0.58989 1.0338 0.03946 0.43629-0.3233 1.2318-0.77484 1.7676-1.0037 0.6543-0.27954 0.91411-0.60553 0.79135-0.9923-0.10052-0.31669 0.15952-1.0108 0.57793-1.5427 0.57571-0.73189 0.66116-1.0669 0.35101-1.3771-0.1333-0.13331-0.28204-0.20305-0.44241-0.21082zm-131.27 0.12306c0.07309-0.02442 0.23902 0.04481 0.52497 0.19784 0.38554 0.20633 0.701 0.44939 0.701 0.54003 0 0.42084-1.0112 0.10307-1.1948-0.37542-0.08451-0.22025-0.10425-0.33806-0.03116-0.36244zm66.02 1.2571c0.33117 0 0.15889 0.41023-0.50992 1.2151-0.93052 1.1198-1.5412 1.5454-1.5412 1.0743 0-0.49476 1.6078-2.2894 2.0511-2.2894zm-70.784 3.2557c-0.29221-0.02514-0.56836-0.0043-0.82302 0.06128-1.0186 0.26253-1.6949 1.2406-1.6949 2.8476 0 1.0502 1.4248 2.3605 2.9011 2.6674 3.6997 0.76927 5.2012-1.635 2.5423-4.0705-1.0269-0.94058-2.0489-1.4304-2.9255-1.5058zm0.30273 1.4425c0.21439 0.0343 0.46692 0.12677 0.75396 0.2804l0.79498 0.42527-0.73527 0.5769c-0.40424 0.31729-0.80414 0.89576-0.88897 1.2857-0.17905 0.82311-0.45414 0.30762-0.72332-1.3568-0.09603-0.59378 0.0049-0.98028 0.27365-1.1413 0.13434-0.08053 0.31058-0.1044 0.52497-0.0701zm72.655 0.44241c-0.6323 0.083-1.3665 0.34395-2.021 0.75863-0.86864 0.55035-0.7194 1.3766 0.18588 1.0292 0.44122-0.1693 0.46444-0.11162 0.12099 0.30221-0.23375 0.28167-1.0493 0.6178-1.8122 0.74669-0.7629 0.12889-1.751 0.50927-2.1954 0.84535-0.98372 0.74395-5.4593 2.8733-6.0524 2.8793-0.23494 2e-3 -1.3145 0.45464-2.399 1.0048-1.0845 0.55013-2.3204 1.0916-2.7469 1.2031-0.42649 0.11153-0.77576 0.45831-0.77576 0.77058 0 0.78512 2.812 0.67489 5.0648-0.19836 0.93328-0.36177 2.0496-0.67308 2.481-0.69217 1.332-0.05908 8.7604-4.5202 8.7604-5.2611 0-0.18802 0.72626-0.84169 1.6138-1.4524 1.3345-0.91815 1.5392-1.1998 1.1839-1.6279-0.24599-0.29641-0.77595-0.39097-1.4082-0.30792zm58.447 0.34479c-0.55761 0.15739-1.3668 0.93053-1.7395 1.7811-0.17086 0.38993-0.65286 1.1355-1.0712 1.6564-0.42747 0.53226-0.66688 1.192-0.54627 1.5064 0.3536 0.92139 0.68968 0.65042 2.4675-1.9908 1.1536-1.7139 1.5829-2.6402 1.3376-2.8855-0.10443-0.10443-0.26225-0.11994-0.44811-0.0675zm19.371 0.9492c-0.40119 0.07727-0.75728 0.59393-0.93986 1.3641-0.16168 0.68207-0.44879 1.514-0.63816 1.8486-0.47215 0.83434-1.0583 3.5428-0.84222 3.8924 0.62566 1.0124 1.5032-0.27748 2.144-3.1514 0.29586-1.3269 0.62441-2.7873 0.73007-3.2454 0.15352-0.6655 0.0624-0.80764-0.45383-0.70826zm-86.46 0.7093c-0.17437-0.05285-0.55377 0.114-1.2421 0.46993-1.0142 0.5245-2.495 2.1351-2.495 2.7136 0 0.16867 0.27934 0.30651 0.62052 0.30636 0.83298-3.92e-4 3.8891-1.1771 4.41-1.698 0.61289-0.61288 0.111-0.90363-0.7576-0.43877-0.69121 0.36992-0.73301 0.3299-0.52393-0.50316 0.13167-0.52466 0.16243-0.79717-0.0119-0.85003zm77.598 3.8446c-0.3024 0-0.7782 0.54758-1.0577 1.2166-0.27954 0.66904-0.67027 1.3165-0.86819 1.4389s-0.35985 0.59489-0.35985 1.0499c0 0.45504-0.25861 0.92652-0.57482 1.0479-0.42555 0.1633-0.52023 0.49466-0.364 1.2758 0.17159 0.85785 8e-3 1.2633-0.87546 2.1669-0.81527 0.83395-1.0428 1.3412-0.91131 2.0293 0.11781 0.61624-0.32188 1.9676-1.3392 4.1193-0.83274 1.7613-2.1673 4.5897-2.966 6.2851-0.79865 1.6954-1.7712 3.2532-2.1612 3.4619-0.38994 0.20869-1.233 1.2314-1.8735 2.2728-1.5347 2.4956-5.1911 7.4388-6.9819 9.4385-0.7857 0.87733-1.8717 2.1345-2.4135 2.7941-0.54183 0.65966-2.2326 2.4943-3.7574 4.0767-3.1675 3.2872-3.749 4.1177-2.8819 4.1177 0.31595 0 1.0794-0.5887 1.6964-1.3085 1.9911-2.3229 2.6737-2.9452 3.2324-2.9452 0.66166 0 0.66149-0.0618 0.0188 2.9722-0.2844 1.3422-0.42322 2.5923-0.30844 2.778 0.3523 0.57004 0.71477-0.15259 1.3205-2.6326 0.72125-2.953 0.73236-3.8264 0.0488-3.8264-0.92089 0-0.84252-0.10842 3.4749-4.8094 0.93635-1.0195 2.5054-3.0266 3.4868-4.4599 0.98141-1.4333 2.2286-3.0842 2.7713-3.6691 0.54264-0.58489 1.4117-1.8055 1.9316-2.7121 0.51993-0.9066 1.3262-2.0288 1.7914-2.494 0.4652-0.46519 1.1219-1.5578 1.4596-2.428 0.33779-0.87028 0.80395-1.822 1.0359-2.1144 0.23194-0.29244 0.67252-1.1694 0.97878-1.9493 0.54239-1.381 2.121-4.7809 2.7157-5.8489 0.61517-1.1047 1.5728-3.4774 2.6898-6.6647 0.63552-1.8135 1.2535-3.3954 1.3734-3.5154 0.42265-0.42266 0.21139-1.1637-0.3318-1.1637zm-222.27 3.8996c-2.2276-1.82e-4 -2.919 0.37815-3.4583 1.8927-0.38506 1.0814 0.08835 1.3221 1.4679 0.74565 1.5435-0.64494 3.3083-0.43418 5.7082 0.68178 2.9919 1.3913 4.8492 2.9784 7.3049 6.2415 0.77985 1.0362 1.88 2.4274 2.4452 3.0917 2.0208 2.3752 1.9008-0.46948-0.13968-3.3108-0.58557-0.81539-1.065-1.5909-1.065-1.7229 0-0.53082-3.4223-4.2006-4.8036-5.151-2.2663-1.5593-5.0135-2.4683-7.4596-2.4685zm94.857 0.03012c0.29245-0.01075 0.77099 0.13503 1.0634 0.32402 0.64798 0.41876 0.088 0.41876-0.88636 0-0.46749-0.20087-0.52767-0.31115-0.17708-0.32402zm106.81 1.2784c-0.39869 0.11027-0.99701 0.54379-1.7972 1.3002-1.8758 1.7734-2.4489 2.2613-5.0529 4.3036-3.6936 2.8969-4.023 3.2333-3.7812 3.8633 0.15424 0.40193 0.40337 0.51054 0.73838 0.32142 0.57202-0.32291 3.7521-3.0276 6.4092-5.4512 0.97738-0.89147 2.2955-1.9793 2.9291-2.4171 0.63363-0.43782 1.1522-1.0149 1.1522-1.2826 0-0.53513-0.19899-0.74791-0.59764-0.63765zm-162.66 2.2743c-0.04954-0.01268-0.07903 0.0059-0.08879 0.0566-0.0682 0.35414 1.1146 2.293 2.7515 4.5103 3.2515 4.4042 3.563 4.9738 2.616 4.7839-2.5482-0.51103-2.4994-0.47634-2.7297-1.9166-0.17834-1.1153-0.56563-1.674-1.9072-2.7521-0.92582-0.74396-2.1149-1.801-2.6425-2.3486-0.80384-0.83434-1.0763-0.93248-1.6834-0.60753-1.0011 0.53575-0.90602 1.298 0.25028 2.008 3.3974 2.0858 4.2949 2.8404 4.4833 3.7693 0.32577 1.6064 1.6787 2.6471 4.0902 3.1451 1.9517 0.40312 2.2996 0.61293 3.317 2.0007 0.6251 0.85263 1.5752 2.0766 2.1113 2.7199 0.53615 0.64331 0.97465 1.2978 0.97465 1.4544 0 0.15666 0.35891 0.67558 0.79758 1.1533l0.79758 0.86872-0.79758-0.41489c-0.43867-0.22828-0.79758-0.54029-0.79758-0.69321 0-0.61741-4.3915-5.0145-5.0082-5.0145-0.98765 0-0.80221 0.99226 0.36971 1.9784 0.56801 0.47794 1.5897 1.7041 2.2707 2.7245 0.68105 1.0204 1.7444 2.3338 2.3631 2.9187 0.6187 0.58489 1.925 2.1402 2.9026 3.4562s2.0121 2.3927 2.2988 2.3927c0.3074 0 1.0286 1.1267 1.7582 2.7469 0.68039 1.511 1.5576 3.3456 1.9493 4.0767l0.71242 1.3293h-0.73164c-1.2709 0-0.80732 0.88734 1.779 3.4048 1.3809 1.3442 2.8243 2.7617 3.2075 3.1498 0.3832 0.38809 1.2549 1.7041 1.9373 2.9244 0.68246 1.2204 1.4727 2.2188 1.7556 2.2188 0.69778 0 0.64698-0.70056-0.2077-2.8689-0.95062-2.4118-0.55867-2.7525 0.44189-0.38426 0.42648 1.0094 0.86296 1.8302 0.97049 1.8242 0.10753-6e-3 0.49719-0.23983 0.8656-0.51874 0.62315-0.47176 0.63023-0.5635 0.10074-1.3179-1.1362-1.6188-1.4968-1.9383-2.4545-2.1767-0.53615-0.13349-0.97464-0.40991-0.97464-0.61428 0-0.20436-0.29393-0.27865-0.65323-0.1646-0.49513 0.15714-1.0195-0.28236-2.1663-1.8158-0.83222-1.1128-1.7193-2.5913-1.9711-3.2853-0.80363-2.2153-2.383-5.4414-3.9147-7.9966-0.8181-1.3648-1.6789-3.0797-1.9129-3.8108-0.23403-0.73112-0.65266-1.3293-0.92999-1.3293-0.63166 0-0.62999 0.26277 0.01194 2.0822 0.2838 0.80437 0.45514 1.4627 0.38061 1.4627-0.33133 0-2.3143-3.882-2.3143-4.5305 0-0.39699-1.0372-2.2721-2.3045-4.1676-1.2673-1.8954-2.3039-3.6352-2.3039-3.8659 0-0.23065-0.47969-0.87867-1.066-1.4404-0.58634-0.56176-2.7776-3.4219-4.8696-6.3557-2.1739-3.0486-3.4879-4.6811-3.8347-4.7699zm189.2 1.5225c-0.13025 0.06762-0.24498 0.31162-0.42577 0.77473-0.22164 0.56772-0.62982 1.4847-0.90665 2.0381-0.27679 0.55342-0.40801 1.1605-0.29182 1.3485 0.39812 0.64418 1.0331 0.09033 1.8589-1.6216 0.74154-1.5371 0.77088-1.7688 0.28456-2.2551-0.24316-0.24316-0.38902-0.35212-0.51926-0.28455zm-38.753 0.65894c-0.35359 0.11819-1.0075 0.49818-2.2027 1.2203-3.6813 2.224-9.0772 6.2351-14.319 10.644-1.2211 1.0272-2.3379 1.8694-2.4815 1.8714-0.40931 6e-3 -3.2734 2.8143-5.2237 5.122-0.97481 1.1535-2.6898 3.1377-3.8108 4.4095-1.121 1.2718-2.0381 2.518-2.0381 2.7692 0 0.73645 0.58176 0.52643 1.2135-0.43774 0.83743-1.2781 12.648-13.012 12.872-12.788 0.10255 0.10255-0.16752 1.0586-0.60027 2.1248-0.72887 1.7958-0.75127 3.4042-0.0472 3.4042 0.15096 0 0.56851-0.99714 0.92791-2.2157 0.3594-1.2185 0.85139-2.5126 1.093-2.8762 0.24184-0.36357 0.35397-0.88326 0.24976-1.1548-0.23078-0.60143 2.2127-3.1183 3.3866-3.4884 0.63434-0.19993 0.79156-0.14737 0.64336 0.21549-1.0094 2.4716-1.1414 4.2023-0.32089 4.2023 0.16377 0 0.65169-1.1563 1.0847-2.5698 0.43305-1.4135 0.98235-2.913 1.2203-3.3321 0.48284-0.85057 3.0088-2.7714 6.4564-4.9096 1.2575-0.77985 2.2911-1.6173 2.2962-1.861 7e-3 -0.325-0.0457-0.46869-0.39931-0.3505zm-8.265 2.0339c-0.28666 0-1.3931 0.39896-2.4587 0.88637s-2.0826 0.88637-2.2598 0.88637c-0.45108 0-1.5397 1.255-1.2982 1.4965 0.29019 0.29019 1.6199-0.09877 2.6389-0.77214 0.48742-0.32207 1.5642-0.88025 2.3927-1.2405 1.5017-0.6529 1.9746-1.2566 0.98504-1.2566zm41.243 0.63713c-0.3308 0.19761-0.85306 0.9863-1.511 2.318-0.70454 1.4258-1.281 2.7003-1.281 2.832 0 0.13168 0.23689 0.23938 0.52652 0.23938 0.53461 0 2.6638-3.8006 2.6638-4.7548 0-0.33406-0.0458-0.5437-0.13347-0.63349-0.0657-0.06734-0.15455-0.06691-0.26482-1e-3zm-23.077 0.44344c-0.24871 9e-3 -1.1701 0.9243-2.0474 2.0339-1.7788 2.2498-3.3065 4.0407-4.5539 5.338-0.45753 0.4758-1.2962 1.5064-1.8641 2.2904-0.56797 0.78405-2.9854 3.449-5.3717 5.9221-2.3864 2.4731-4.6219 4.846-4.9677 5.2731-0.34582 0.42706-1.6218 1.9742-2.8356 3.438-3.531 4.258-5.4491 6.9191-6.4923 9.0086-0.53536 1.0723-1.5623 2.8268-2.2827 3.8991-2.3161 3.4477-3.3616 5.8346-3.2215 7.3558 0.0225 0.24368 0.2007 0.44291 0.39567 0.44291 0.19496 0 0.35575-0.19923 0.35777-0.44291 0.01-1.243 4.3394-8.7668 5.0477-8.7718 0.38495-3e-3 0.34335 0.3483-0.44294 3.7205-0.3899 1.6723-0.70879 3.2736-0.70879 3.5585 0 0.85367 0.70073 0.58523 1.0806-0.41385 0.49021-1.2893 1.6541-7.0066 1.8854-9.2615 0.19203-1.8717 0.89755-3.1232 3.1467-5.581 0.53526-0.5849 0.97428-1.2461 0.97518-1.469 9e-4 -0.22284 0.25991-0.50394 0.57585-0.62518 0.45711-0.17542 0.53043-0.05687 0.35829 0.58209-0.80795 2.9987-1.674 7.8268-1.5786 8.8014 0.15936 1.6268 1.0006 1.815 1.0006 0.22379 0-0.67667 0.41697-3.176 0.92687-5.554 0.64817-3.0227 0.81508-4.4357 0.55459-4.6962-0.26048-0.2605-0.24614-0.50883 0.0477-0.82562 0.23118-0.24922 1.5369-1.6786 2.9016-3.1768 1.3647-1.4982 3.1593-3.3712 3.9879-4.1618 0.82857-0.79064 1.5063-1.5324 1.5064-1.6486 6e-5 -0.11624 1.0525-1.3281 2.3382-2.6929 1.2857-1.3647 2.5998-2.88 2.9203-3.3674 0.32054-0.48741 1.7178-2.2424 3.1046-3.8996 2.7653-3.3042 4.0082-5.328 3.2552-5.3001zm-183.18 2.8762c-0.46614 0.15538 0.79549 2.5413 2.2546 4.2636 0.60927 0.71916 1.6995 2.0747 2.4234 3.0127 0.72383 0.93803 2.1228 2.7424 3.1083 4.0097 0.98932 1.2722 3.1663 5.0824 4.8608 8.5075 1.6879 3.4118 3.4874 6.6911 3.9993 7.2873 1.0818 1.2598 9.2215 17.562 9.2267 18.48 9.01e-4 0.15784 0.48774 0.80575 1.0816 1.4394 1.1799 1.2589 1.9488 1.5084 1.6388 0.5317-1.4572-4.5898-7.3248-16.799-10.945-22.776-0.88583-1.4622-2.1248-3.8365-2.7536-5.2767-0.62878-1.4402-1.5529-3.3544-2.0537-4.2538-0.50073-0.89938-1.2001-2.1535-1.5541-2.7863-0.98239-1.7559-2.9388-4.5295-5.3707-7.6149-2.0664-2.6218-5.1005-5.0962-5.9159-4.8244zm42.152 0.29701c-0.85837 0-0.10997 1.498 2.238 4.4796 0.63516 0.80656 1.875 2.4081 2.7552 3.559 0.88016 1.1509 1.8001 2.3257 2.0443 2.6103 0.8108 0.94504 5.1184 9.7052 5.6511 11.492 0.32081 1.0764 0.44404 2.3821 0.31727 3.3674-0.1166 0.90629 0.01876 2.6755 0.31 4.0497 0.34055 1.6069 0.4432 3.3183 0.30013 5.0108-0.1195 1.4138-0.11011 2.9991 0.02129 3.5226 0.35911 1.4308 0.99742 0.91199 1.5354-1.2478 0.60663-2.4352 0.60836-2.1933-0.03219-5.0846-0.49116-2.2169-0.48949-2.5508 0.01869-3.5336 0.52293-1.0112 0.51004-1.2428-0.18797-3.4006-0.41198-1.2736-1.0837-3.5117-1.4929-4.974-0.40916-1.4622-1.1001-3.2172-1.5354-3.8996-0.43531-0.68237-1.3592-2.4369-2.0531-3.8991-1.2676-2.6711-1.9814-3.681-5.3702-7.6019-2.3688-2.7407-4.1048-4.4506-4.5196-4.4506zm115.39 0.98348c-0.28815-0.28815-3.7152 1.0244-4.839 1.8532-0.52826 0.38961-1.1264 0.70827-1.3293 0.70827-0.20285 0-0.36868 0.23927-0.36868 0.53172 0 0.69254 0.22194 0.67111 1.5531-0.15007 0.60792-0.37501 2.0226-1.0247 3.1436-1.4435 1.9208-0.71768 2.3073-1.0326 1.8402-1.4996zm39.227 0.50056c-0.15012 0.02099-0.27476 0.08105-0.33805 0.17603-0.12654 0.18998-0.84219 1.0838-1.59 1.9862-0.74775 0.90239-1.252 1.8149-1.1205 2.0277 0.26324 0.42596 1.0142-0.02956 1.9488-1.1823 2.2889-2.8233 2.2242-2.7039 1.59-2.9473-0.16456-0.06314-0.34007-0.08122-0.49017-0.06023zm12.158 1.3485c-0.39285-0.17726-1.2594 0.4129-1.8262 1.4056-0.91598 1.6042-1.0201 2.4971-0.29079 2.4971 0.54251 0 0.48549 0.29498-0.68801 3.545-0.9426 2.6105-6.1336 12.687-8.3792 16.265-2.4601 3.9202-3.222 4.9084-6.4528 8.3746-1.3837 1.4845-2.3228 2.777-2.183 3.0034 0.15165 0.24539 1.3176-0.6805 3.0491-2.4213 2.6833-2.6978 3.3677-3.0346 2.2718-1.1174-0.57334 1.003-0.70238 2.2742-0.1994 1.9633 0.5724-0.35376 2.2267-4.1655 2.414-5.5623 0.0985-0.73401 0.47794-1.6052 0.84327-1.9358 0.36532-0.33062 0.66413-0.76352 0.66413-0.96166 0-0.19813 0.2409-0.62596 0.53483-0.95076 0.29395-0.32481 0.85661-1.2145 1.2509-1.9773l0.71709-1.3869-0.22691 1.9036c-0.17515 1.4688-0.1232 1.8687 0.22849 1.7515 0.5822-0.19407 1.8658-4.3464 1.8257-5.9066-0.021-0.81783 0.35354-1.735 1.2031-2.9437 0.67875-0.96565 1.3915-2.1695 1.5837-2.6752 0.3365-0.88504 0.36893-0.8943 0.86353-0.24665 0.44567 0.58359 0.56096 0.60245 0.86976 0.14124 0.5869-0.87661 0.84649-2.908 0.45227-3.5393-0.26361-0.42211-0.21724-1.1387 0.16252-2.5137 0.88081-3.1891 1.5123-5.7962 1.5183-6.2654 3e-3 -0.24318-0.0751-0.38748-0.20614-0.44656zm-16.475 0.35777c-0.49655 0-4.5819 4.1354-4.5819 4.638 0 0.60812 0.95684 0.32765 1.9161-0.56132 0.52593-0.48741 1.1054-0.88637 1.2878-0.88637s0.60427-0.59818 0.93777-1.3293c0.33352-0.73111 0.66832-1.4489 0.74359-1.5952 0.0752-0.14622-0.0613-0.26586-0.30325-0.26586zm-19.327 1.7727c-0.54818 0-2.2702 1.2679-2.2702 1.6715 0 0.6476 0.75275 0.54316 1.684-0.23367 0.73992-0.61726 1.0744-1.4378 0.58624-1.4378zm10.174 0.70878c-0.43157 0-2.8736 3.7072-2.8736 4.3623 0 0.32348-0.63824 1.6306-1.4181 2.9047-0.77985 1.2741-1.4176 2.4416-1.4176 2.5947 0 0.15311-0.49536 0.9517-1.1003 1.7743-0.81393 1.1067-1.0422 1.7241-0.87911 2.374 0.12125 0.48308 0.33677 0.87589 0.47929 0.87287 0.26483-6e-3 5.026-4.7824 7.9446-7.9706 1.5053-1.6444 2.5687-4.0767 1.7821-4.0767-0.44629 0-3.5918 3.2718-5.2606 5.4719-1.7289 2.2794-2.0023 1.4409-0.34427-1.0562 0.7024-1.0579 1.2774-2.1456 1.2774-2.4171 0-0.27157 0.25102-0.70194 0.55771-0.95647 1.3182-1.094 2.2172-3.8778 1.2524-3.8778zm-140.01 0.55301c-0.08591 0.0038-0.15386 0.0479-0.20511 0.13085-0.12357 0.19994 0.73962 1.7838 1.9181 3.519 1.1785 1.7352 2.1425 3.3124 2.1425 3.505 0 0.1926 0.33067 0.77043 0.73475 1.2841 1.6943 2.1539 1.8696 0.50293 0.2264-2.1316-2.3457-3.7607-3.767-5.7278-4.504-6.1963v-5.17e-4c-0.12284-0.07809-0.22669-0.11446-0.31259-0.1106zm167.05 0.88949c-0.12013-0.0213-0.27745 0.02061-0.46837 0.13864-0.50638 0.31295-1.4534 2.3649-1.2462 2.7001 0.33219 0.53751 1.0983-0.03977 1.685-1.2701 0.41459-0.86938 0.38996-1.5047 0.0296-1.5687zm-167.98 2.4566c-0.64097 0-0.68538 0.41388-0.10645 0.99282 0.60575 0.60574 1.1075 0.52603 0.85366-0.13553-0.11834-0.30839-0.21549-0.6273-0.21549-0.70879s-0.23927-0.14851-0.53172-0.14851zm105.13 0.70931c-0.4983 0-5.7015 3.5555-5.7015 3.896 0 0.16491-0.0967 0.55202-0.21495 0.86041-0.34823 0.90749 0.11883 0.66627 2.4182-1.2473 1.1947-0.99425 2.5437-1.9767 2.9977-2.1835 0.79808-0.36364 1.1613-1.3257 0.50057-1.3257zm20.087 0.0072c-0.60647 9e-3 -3.1015 2.2262-3.1015 2.7557 0 0.73696 0.65669 0.47311 2.1258-0.85418 1.4521-1.3119 1.7608-1.9136 0.97569-1.9015zm6.4959 0.70204c-0.39709 0-1.837 3.5506-1.5972 3.9386 0.33034 0.53452 0.47669 0.37505 1.3838-1.5053 0.82313-1.7062 0.88702-2.4332 0.21342-2.4332zm14.764 1.4181c-0.59875 0-2.0288 1.0134-2.0288 1.4378 0 0.48611 1.1394 0.38891 1.861-0.15889 0.72442-0.54992 0.82013-1.2789 0.16772-1.2789zm-208.5 0.50375c-0.17214-0.0823-0.26949 0.01527-0.36348 0.25755-0.127 0.32744 0.16044 1.3405 0.65323 2.3039 1.2985 2.5388 5.765 9.3303 7.0759 10.759 0.62611 0.68237 1.6077 1.9331 2.1809 2.7796 0.57322 0.84646 1.5396 1.9633 2.1476 2.4815 0.6081 0.51828 1.4773 1.5006 1.9316 2.183 0.45429 0.68238 1.2407 1.6699 1.7478 2.1949 1.8344 1.8989 2.4429 0.81087 0.92999-1.6632-0.47689-0.77986-1.0224-1.7598-1.2119-2.1778-0.18958-0.41795-1.282-1.774-2.4275-3.0132-1.1455-1.2392-2.4657-2.8117-2.9338-3.4941-0.46809-0.68238-1.8281-2.439-3.0226-3.9038-1.1945-1.4648-2.3808-3.0601-2.6363-3.545-0.4477-0.84977-1.2423-1.9083-3.2589-4.3431-0.39368-0.47534-0.6405-0.73713-0.81264-0.81939zm65.039 0.20459c-0.80644 0-0.38825 1.2956 1.888 5.8489 1.3645 2.7295 2.6335 5.1623 2.8201 5.406 0.45034 0.58826 0.77872 0.55869 1.3428-0.12099 0.39874-0.48046 0.2344-1.0163-1.1086-3.612-1.7329-3.3492-4.4746-7.522-4.9423-7.522zm-46.781 1.1663c-0.14595-0.0034-0.31438 0.03549-0.51147 0.11112-0.8436 0.32372-0.6798 1.8293 0.30636 2.8154 0.47855 0.47855 1.1163 0.86976 1.4176 0.86976 0.59298 0 0.75422-0.89362 0.22068-1.2234-0.17996-0.11122-0.43124-0.67721-0.55872-1.2576-0.20099-0.91505-0.43659-1.3051-0.87443-1.3153zm3.1311 0.39048c-0.46931 0.07358-0.75274 0.53043-0.54262 1.078 0.23912 0.62313 0.3034 0.64344 1.0925 0.34063 0.73542-0.28222 0.71804-1.0666-0.03012-1.3537-0.1864-0.07153-0.36334-0.08944-0.51978-0.0649zm194.83 0.56703c-0.32638-0.13901-1.0259 0.30658-1.4015 1.0328-0.29291 0.56642-0.7625 1.2599-1.0437 1.5412-0.28124 0.28122-0.93894 1.7494-1.4612 3.2625-0.98609 2.857-2.1654 5.1557-2.6456 5.1557-0.1528 0-0.95956 1.0458-1.7925 2.3242-1.4202 2.1798-2.941 4.2711-3.9703 5.459-1.775 2.0484-1.817 2.1472-1.1205 2.6565 0.61557 0.45011 0.59397 0.52872-0.41125 1.4871-0.5837 0.5565-1.6949 1.8068-2.4696 2.7791-0.77474 0.97223-2.1115 2.488-2.9702 3.3679-0.85865 0.87989-1.8156 2.0152-2.1269 2.523-0.31127 0.50787-1.0516 1.3322-1.645 1.8314-2.034 1.7115-6.8973 4.4414-8.669 4.8665-0.97454 0.23378-1.7722 0.56651-1.7722 0.73942 0 0.3803-2.4647 1.4523-2.9598 1.2872-0.19335-0.0644 0.67154-0.83106 1.9218-1.7032 2.1524-1.5014 3.092-2.805 2.0215-2.805-0.26775 0-1.4363 0.68356-2.5963 1.5188s-3.0256 1.9921-4.1457 2.5703c-2.3069 1.1908-4.8149 3.1707-4.4656 3.5252 0.12795 0.12985 0.84578 0.0658 1.5952-0.14227 0.7494-0.2081 1.7786-0.3791 2.2873-0.3801 0.50869-1e-3 2.1586-0.57239 3.6665-1.2691 2.7595-1.275 3.6012-1.3808 2.5402-0.31986-0.31567 0.31566-0.5738 0.7351-0.5738 0.93208 0 0.19695-0.53907 1.0229-1.1979 1.8356-1.527 1.8835-2.7509 4.3041-2.5028 4.9506 0.10574 0.27555-0.14714 1.0768-0.56236 1.7805l-0.755 1.2794-0.81679-0.94971c-0.73162-0.85054-0.91369-0.90517-1.7447-0.52653-0.72974 0.33249-0.92793 0.67387-0.92793 1.5998 0 1.3919 0.53279 2.0282 1.699 2.0282 0.55036 0 0.91357-0.24893 1.0338-0.7088 0.10196-0.38991 0.32677-0.7093 0.49901-0.7093 0.5614 0 0.32941 1.3015-0.39621 2.224-0.38993 0.4957-0.70771 1.1154-0.7067 1.3771 1e-3 0.26172-0.32064 1.9909-0.71502 3.843-0.39439 1.8522-1.0048 4.958-1.3563 6.9014l-0.63871 3.533-1.039-1.9347c-1.1142-2.0756-2.035-2.574-2.8263-1.5297-0.76483 1.0093-0.63479 1.6914 1.0936 5.7414 0.8853 2.0746 1.9013 4.4897 2.2582 5.367 0.35699 0.87736 1.0061 2.4727 1.4425 3.545 0.43639 1.0723 0.92335 2.6922 1.0821 3.5995 0.38735 2.2134 1.2106 3.7158 2.3849 4.3529 1.0655 0.57814 1.8616 0.70283 1.848 0.28923-5e-3 -0.1462-0.32418-1.2077-0.7093-2.359-0.38514-1.1513-0.69996-2.6874-0.69996-3.4131s-0.23271-1.5122-0.51717-1.7483c-0.28448-0.23609-0.92271-1.7172-1.4181-3.291-0.69332-2.2027-0.90041-3.6161-0.90041-6.1387 0-2.9894 0.0564-3.2625 0.64234-3.1093 0.57159 0.14946 0.6904-0.2474 1.08-3.5995 0.24082-2.0719 0.59005-4.1667 0.77576-4.6551 0.18572-0.48846 0.34296-1.476 0.34999-2.1944 7e-3 -0.71839 0.24406-2.263 0.52652-3.4328 0.28246-1.1698 0.51573-2.624 0.51875-3.2314 3e-3 -0.60734 0.34816-1.54 0.76693-2.0724 0.41879-0.53238 0.80192-1.3338 0.85106-1.7811 0.0923-0.84025 2.0584-4.7322 2.9961-5.931 0.29245-0.37383 1.0498-1.2169 1.6834-1.8729 0.63363-0.65612 1.1528-1.4028 1.1548-1.6596 2e-3 -0.25677 1.0504-1.105 2.3304-1.8849 6.7904-4.1371 11.576-8.4504 12.085-10.892 0.26508-1.272 1.1792-2.0908 1.1792-1.0562 0 0.39718-0.87699 2.0252-1.9493 3.6182s-1.9498 3.0883-1.9498 3.3227c0 0.23443-0.79741 1.2119-1.7722 2.1721-0.97481 0.96016-1.7727 1.9404-1.7727 2.1783s-0.33295 0.53807-0.73994 0.66724c-0.44159 0.14015-1.1223 1.0433-1.6886 2.2396-0.52195 1.1025-1.2262 2.3988-1.5645 2.8808-0.39545 0.56342-0.6148 1.5448-0.6148 2.7474 0 1.0289-0.14023 1.8704-0.31153 1.8704-0.41751 0-0.90635 1.2926-2.0106 5.3172-0.89846 3.2747-1.591 6.4938-2.3185 10.777-0.19543 1.1507-0.48498 2.3471-0.64334 2.6586-0.15838 0.31148-0.18985 1.9621-0.0701 3.668 0.11981 1.7059 0.12524 3.1015 0.0119 3.1015-0.47384 0-1.6971-1.6924-2.1482-2.9722-0.55286-1.5685-1.9169-2.466-2.455-1.6154-0.17802 0.28136-0.3262 1.179-0.32922 1.995-4e-3 1.1674 0.64006 2.7538 3.0242 7.4441 1.6664 3.2783 3.2457 6.8709 3.5097 7.9836 0.57219 2.4115 1.683 4.0954 2.9037 4.4018 1.2373 0.31054 1.5989-0.2 1.0354-1.4622-0.70631-1.5822-1.9071-6.472-2.1139-8.6088-0.10146-1.0487-0.49378-2.312-0.89103-2.8699-0.67245-0.94435-0.69173-1.2649-0.36868-6.1023 0.18754-2.808 0.40754-5.5844 0.48862-6.1693 0.0811-0.58489 0.17987-1.7011 0.21965-2.481 0.0906-1.7731 1.1995-7.8518 2.1949-12.031 0.49009-2.0575 1.1672-3.7942 1.9311-4.9542 0.64703-0.98246 1.1766-1.9019 1.1766-2.0428 0-0.14091 0.4577-0.94216 1.0172-1.7805 0.55951-0.83837 1.2348-2.1364 1.5006-2.885 0.26582-0.7486 0.76522-1.5121 1.1097-1.6964 0.34444-0.18433 0.62623-0.49741 0.62623-0.69581 0-0.19841 0.85656-1.5904 1.9036-3.0932 2.1436-3.0768 4.8317-8.1498 4.8317-9.1187 0-0.35197 0.23157-0.89561 0.51457-1.2083 0.42288-0.46729 0.66532-1.6676 0.8817-4.3612 0.0117-0.14622 0.24981-0.26586 0.52912-0.26586 0.2793 0 0.62096-0.35891 0.75916-0.79758 0.13818-0.43867 0.70706-1.3522 1.2644-2.0303 0.55733-0.67805 1.0136-1.4267 1.0136-1.6637 0-0.23697 0.29222-0.6394 0.64959-0.89416 1.1452-0.81633 3.0958-3.9332 4.0845-6.5265 0.52803-1.3851 1.4334-3.2649 2.0121-4.1774 0.57871-0.91252 1.0525-1.813 1.0525-2.0012 0-0.18751-0.0677-0.29896-0.17655-0.34531zm-42.8 0.5364c0.1282 0.0408 0.0793 0.28624-0.26324 0.69892-0.24663 0.29715-0.61291 0.54002-0.81422 0.54002s-0.0766-0.31974 0.27728-0.71086c0.36655-0.40502 0.67198-0.56888 0.80018-0.52808zm8.4005 0.02232c-0.16166 6e-3 -0.4368 0.10523-0.82977 0.30844-1.5143 0.78308-3.2329 2.3193-3.2329 2.8897 0 0.87036 0.83299 0.52089 2.5698-1.078 1.4413-1.3269 1.9779-2.1396 1.4928-2.1201zm6.1382 0.59299c-0.4152 0.13838-1.6435 5.2253-1.6772 6.9456-0.0347 1.7672 0.89308 0.43231 1.4565-2.0957 0.73096-3.2796 0.8112-5.0467 0.2207-4.8499zm-172.6 0.65583c-0.10069-0.03293-0.17768-0.02164-0.23003 0.03271-0.20941 0.21741-0.01931 1.1196 0.67555 2.5978 0.67 1.4254 0.87348 1.591 1.9498 1.591 1.1985 0 1.6381-0.56351 0.71554-0.91753-0.2675-0.10265-0.99554-0.89527-1.6175-1.7613-0.67871-0.94509-1.1913-1.4439-1.4934-1.5427zm205.35 0.42838c-0.091-0.05667-0.23873-0.03227-0.44553 0.09556-0.47911 0.29609-2.0879 2.8896-2.0879 3.3658 0 0.74503 0.89098 0.09355 1.8833-1.3771 0.68556-1.016 0.92305-1.9143 0.65012-2.0843zm-149.6 0.21342c-0.39447 0.24881-0.40545 0.54398-0.06075 1.5884 0.43236 1.3101 1.4444 1.7833 1.4155 0.66205-0.03163-1.2273-0.84227-2.5737-1.3547-2.2505zm131.75 0.55405c-0.0879-0.08782-0.99869 0.24528-2.0241 0.73994-1.5176 0.73209-1.7877 0.9917-1.4524 1.3958 0.34917 0.42072 0.62881 0.38309 1.834-0.24509 1.3135-0.68464 2.0271-1.5059 1.6424-1.8906zm-34.49 2.0002c0.11751-2e-3 -0.019 0.27728-0.42682 0.83756-0.35029 0.48127-0.85982 0.87982-1.132 0.88585-0.29457 7e-3 -0.10757-0.34745 0.46162-0.87495 0.60815-0.56361 0.97969-0.8465 1.0972-0.84847zm33.342 2.089c-0.30395 0-0.5525 0.15969-0.5525 0.35465 0 0.19497 0.1499 0.35465 0.33337 0.35465 0.18345 0 0.43252-0.15968 0.55301-0.35465 0.1205-0.19496-0.03-0.35465-0.33388-0.35465zm-24.677 0.3479c-0.18617-0.13134-0.98394 0.18024-2.2208 1.0572-2.8875 2.0472-3.2002 2.371-2.9416 3.0449 0.22171 0.57778 0.34691 0.53838 1.2623-0.39775 0.55881-0.57146 1.662-1.5176 2.4514-2.1025 1.2097-0.89619 1.6349-1.4706 1.4487-1.6019zm19.79 1.9353c-0.33899-0.33898-3.1104 1.3174-3.1104 1.8589 0 0.25654 0.19922 0.46572 0.44292 0.46526 0.60823-9.99e-4 2.95-2.0416 2.6674-2.3242zm-177.42 0.98088c-0.44284-0.11605-0.80329 0.01426-0.80329 0.46422 0 0.32287 0.4573 1.2513 1.0162 2.063 0.93399 1.3565 2.8339 4.4397 6.1854 10.037 0.71807 1.1992 1.3059 2.3555 1.3059 2.5698 0 0.21433 0.1397 0.38996 0.31052 0.38996 0.39098 0 2.7067 4.4382 3.0299 5.8069 0.13265 0.56178 0.87687 1.9574 1.6538 3.1015 1.0717 1.5781 1.6205 2.0801 2.2733 2.0801 1.3264 0 1.6982-1.073 0.87235-2.5163-0.37931-0.66292-1.1117-2.0031-1.6279-2.9779-0.5162-0.97482-1.7648-2.889-2.7744-4.2538-2.1748-2.9398-4.0923-5.863-4.0923-6.2389 0-0.14775-0.61229-1.1972-1.3605-2.332-0.74816-1.1348-1.9841-3.0097-2.7469-4.166-0.7628-1.1562-1.6385-2.5118-1.9457-3.0127-0.32874-0.53611-0.85374-0.89859-1.2966-1.0146zm54.038 3.222c-0.07874-0.01557-0.21163 0.06933-0.42839 0.24924-0.29245 0.24271-0.53172 0.741-0.53172 1.1071 0 0.36604 0.14264 0.66517 0.31675 0.66517 0.36147 0 0.74669-0.86028 0.74669-1.6673 0-0.22263-0.02459-0.33861-0.10333-0.35414zm-7.751 2.7308c-0.98895 0-0.79635 0.86492 0.77214 3.4655 0.784 1.2999 1.5924 2.984 1.7966 3.7423 0.2132 0.79179 0.63251 1.447 0.98451 1.5391 0.57554 0.15051 3.2376 5.1979 3.2376 6.1387 0 0.23356 0.22457 0.84813 0.49901 1.3656 0.86145 1.6244 2.2553 4.8027 2.5111 5.7264 0.21282 0.76826 0.06422 0.6932-1.1164-0.5634-2.9816-3.1735-3.9942-2.7166-2.279 1.0281 2.4925 5.442 2.5602 5.7396 1.2291 5.4055-1.7872-0.44856-3.6174-2.346-5.285-5.4792-0.89267-1.6773-2.2548-4.0863-3.0273-5.3535-0.77247-1.2673-1.6456-2.783-1.9405-3.3679-0.86475-1.7156-2.4954-3.5004-2.9442-3.223-0.58688 0.36271-0.50238 1.463 0.15422 2.008 0.30931 0.2567 1.1714 1.672 1.9155 3.1451 0.74411 1.4731 1.8934 3.5558 2.5542 4.6281 1.9434 3.1537 3.929 6.1899 4.1728 6.3806 0.77747 0.60845 2.1777 2.9004 2.0791 3.4032-0.08795 0.44872-0.74762-0.0116-2.5994-1.8143-1.3647-1.3285-2.8004-2.9321-3.1903-3.5637-2.2295-3.6113-6.1229-8.3055-6.889-8.3055-0.44112 0-1.5013-1.9793-1.3812-2.5786 0.13458-0.67161-0.39129-2.3839-0.73215-2.3839-0.45268 0-0.97423 0.76846-1.2187 1.7956-0.30227 1.27 0.84684 3.3216 3.0698 5.4797 2.1589 2.0959 2.6876 2.7491 3.9069 4.8296 0.50141 0.8556 1.3715 2.0311 1.9337 2.6124 1.2879 1.3315 2.7638 3.6229 3.0782 4.7792 0.23412 0.86113 0.2144 0.85579-0.68178-0.17758-0.50725-0.58489-1.2385-1.6562-1.6253-2.3808-0.80136-1.5012-1.8361-2.1876-2.8242-1.874-0.51696 0.16408-0.90453-0.12615-1.6289-1.2208-0.52279-0.79-1.2201-1.4368-1.55-1.4368-0.32991 0-0.85727-0.27882-1.1714-0.61999-3.2578-3.538-3.8062-3.9088-3.8062-2.5703 0 0.83025 1.1854 2.1269 1.9446 2.1269 0.28983 0 0.76108 0.5606 1.0473 1.2457 0.28626 0.68512 0.76078 1.3381 1.0546 1.4508 0.29383 0.11277 0.63124 0.50927 0.74929 0.88119 0.11804 0.3719 0.42973 0.67606 0.69269 0.67606s1.1623 0.63824 1.9986 1.4181c0.83632 0.77986 1.7984 1.4181 2.1383 1.4181 0.33989 0 1.0642 0.59819 1.6092 1.3293 0.54496 0.73111 1.1509 1.4462 1.347 1.5894 0.19607 0.14324 0.79523 0.26284 1.3314 0.26586 0.9047 5e-3 0.97516-0.0985 0.97516-1.4378v-1.443l1.1938 1.266c0.65665 0.69623 1.4577 1.2659 1.78 1.2659 0.87104 0 1.4511-1.4989 0.94557-2.4436-0.59582-1.1133-0.16348-1.4728 1.0463-0.86924 0.58318 0.29093 1.3397 0.47597 1.6808 0.41125 1.1473-0.21757 0.92532-2.2583-0.54574-5.0207-0.27195-0.51069 1.1344 0.36915 1.8449 1.1543 0.76685 0.84735 1.5623 0.96261 1.8299 0.26533 0.10053-0.26199-0.15708-1.3387-0.57274-2.3927-0.41566-1.054-1.2083-3.2217-1.7613-4.8172-1.1228-3.2394-1.4302-3.9534-4.0923-9.506-1.0282-2.1446-2.402-4.5373-3.0527-5.3172-0.65072-0.77986-1.4871-2.0158-1.8589-2.7469-0.41225-0.81046-0.93109-1.3293-1.3293-1.3293zm131.13 0.35413c-0.28838 0-0.69464 0.58685-0.92063 1.3293-1.0756 3.5336-1.4511 5.1686-1.2582 5.4808 0.37587 0.60819 0.89336-0.2815 1.6227-2.79 1.1007-3.7859 1.1328-4.0201 0.55613-4.0201zm-166.68 2.8362c-0.78384 0-0.68957 0.64247 0.28092 1.9161 0.45971 0.6033 1.0945 1.9865 1.4103 3.074 0.31583 1.0875 0.97622 2.5701 1.4679 3.2947 0.49172 0.72459 0.89416 1.5176 0.89416 1.7624 0 0.24479 0.13999 0.59679 0.31104 0.78199 0.17104 0.18522 0.63299 1.214 1.0266 2.2863 1.6374 4.4611 3.2574 7.9318 4.2081 9.0153 0.55679 0.63463 1.0345 1.5377 1.0619 2.0069 0.06894 1.1827 2.5207 9.0568 3.236 10.393 0.34228 0.63932 0.60446 2.0052 0.63038 3.2838 0.02795 1.3792 0.26253 2.5221 0.63401 3.089 0.44344 0.67677 0.59565 1.76 0.61272 4.3685 0.03407 5.2042 0.53565 11.72 0.94193 12.232 0.4902 0.61827 1.3017 6.1362 1.0131 6.8885-0.18008 0.46928-0.59159 0.0711-1.8216-1.7624-0.87394-1.3027-1.7502-2.3688-1.9472-2.3688-0.62458 0-0.80164 1.0797-0.3235 1.9732 0.74354 1.3893-0.0024 1.5053-1.0245 0.15942-1.9846-2.6133-5.5079-5.1647-6.5691-4.7574-0.62992 0.24173-1.0761 1.3863-0.74773 1.9176 0.1233 0.1995 0.89091 0.70137 1.7063 1.1149 1.4793 0.75015 7.553 6.5785 7.2114 6.9201-0.09908 0.0991-1.0297-0.3097-2.0682-0.90819-4.7326-2.7274-7.0113-3.7425-7.4394-3.3144-0.79613 0.79612 0.21759 1.9857 2.7573 3.235 1.3417 0.65998 3.1355 1.6637 3.9863 2.2308 2.0371 1.3574 5.5622 3.127 6.229 3.127 0.29114 0 0.71442 0.35891 0.94037 0.79758 0.22596 0.43866 1.0341 1.635 1.7961 2.6586 1.3568 1.8224 1.8065 2.0765 2.9187 1.6497 0.48643-0.18665 0.47214-0.36197-0.12099-1.5064-0.36923-0.71239-1.0757-1.8358-1.5702-2.4966-0.84866-1.1338-0.89096-1.3931-0.74617-4.6084 0.08458-1.8783-0.07236-5.1562-0.34998-7.306-0.27695-2.1446-0.60293-5.096-0.72436-6.5582-0.12143-1.4622-0.44106-3.7748-0.71034-5.1396-0.26929-1.3647-0.59765-3.9235-0.72956-5.6859-0.20738-2.7707-0.14632-3.3946 0.45123-4.6084 0.72508-1.4729 0.71623-1.8733-0.09866-4.3405-0.27593-0.83542-0.5016-2.3009-0.5016-3.2568 0-1.5451-0.72053-5.4386-1.2727-6.8776-0.1141-0.29731-0.43896-0.44143-0.73682-0.32713-0.52055 0.19975-0.46288 1.5554 0.13708 3.2324 0.11712 0.32783 0.07935 0.47371-0.0836 0.32559-0.16295-0.14815-0.64097-1.2649-1.0624-2.4816-0.50924-1.4701-0.98147-2.2538-1.4077-2.3367-0.55694-0.10825-0.61266 0.0523-0.42319 1.2197l0.21809 1.3449-0.78616-1.1252c-0.43246-0.61877-0.95787-1.1284-1.1678-1.1315-0.21457-3e-3 -0.31876-0.43515-0.23782-0.98659 0.13598-0.92651-0.76236-2.936-3.2859-7.3496-0.94014-1.6443-1.5329-3.9483-0.91805-3.5683 0.21581 0.13337 0.39256 0.38291 0.39256 0.55405 0 0.17113 0.69736 1.3296 1.55 2.575 0.85262 1.2454 1.942 2.9704 2.4208 3.8332 0.54426 0.98085 1.1586 1.6116 1.6398 1.6824 1.0608 0.15611 0.97848-0.40908-0.47252-3.2365-2.4725-4.818-1.106-3.8828 1.7836 1.2208 1.996 3.5251 2.7168 4.2801 3.4178 3.5792 0.25256-0.25255-0.10168-1.1769-1.1382-2.9712-0.82764-1.4327-1.551-2.6925-1.6076-2.7993-0.05663-0.10677 0.03485-0.41763 0.20355-0.6906 0.23515-0.38049 0.41359-0.25221 0.76331 0.54885 0.79378 1.8183 2.1498 3.7033 2.6638 3.7033 0.91186 0 0.89954-1.0165-0.027-2.2312-0.50461-0.66158-0.91753-1.3597-0.91753-1.551 0-0.61848-1.6467-1.9151-2.1746-1.7125-0.34802 0.13356-0.65717-0.20433-0.96426-1.0536-0.48077-1.3295-0.90196-1.5619-1.3631-0.75188-0.15591 0.27389-0.59396 0.55268-0.97309 0.62-0.52449 0.0931-0.821-0.21819-1.2405-1.3028-0.6731-1.7403-3.5024-6.8247-3.9526-7.1029-0.73503-0.45429-0.7504 1.0978-0.02441 2.4685 0.79202 1.4954 0.99773 2.6924 0.46266 2.6924-0.28789 0-2.886-3.6728-2.886-4.0798 0-0.10527-0.65421-1.2277-1.4539-2.494-1.4392-2.2789-2.2324-2.9972-3.3082-2.9972zm161.84 0.40554c-0.5689 0.0186-1.8193 1.3687-3.4536 3.7501-1.1074 1.6137-2.1304 2.9338-2.2728 2.9338-0.1424 0-0.95331 1.0767-1.8023 2.3927-0.84903 1.316-1.729 2.5524-1.9555 2.7474-0.22648 0.19495-0.51826 0.71305-0.64858 1.1517-0.16586 0.5584-0.0892 0.79758 0.256 0.79758 0.4645 0 3.4944-4.0859 3.9926-5.3842 0.12642-0.32948 0.59285-0.83717 1.0364-1.1278l0.80641-0.52808-0.47564 1.3797c-0.80651 2.3409-1.0057 4.2433-0.44447 4.2403 0.53664-3e-3 2.0431-4.5861 2.2447-6.8293 0.0806-0.89657 0.61014-1.9863 1.6066-3.3061 0.8175-1.0828 1.4077-2.0474 1.3116-2.1435-0.0525-0.0524-0.12019-0.0769-0.20145-0.0742zm-128.11 5.4434c-0.10826-0.0119-0.18431 0.0199-0.22484 0.1054-0.24317 0.51198 0.79008 2.9423 3.7771 9.288 0.3212 0.68237 0.98392 1.6821 1.4726 2.2214 0.83826 0.92497 1.6421 1.1268 1.6222 0.40762-0.02367-0.85435-5.6376-11.547-6.2285-11.863-0.1698-0.0909-0.31026-0.14691-0.41852-0.15888zm4.5025 4.2247c-0.32567 0.23407 0.07415 2.2597 0.72748 3.2568 0.59783 0.91242 1.2537 1.1267 1.241 0.40554-0.01261-0.71788-1.2978-3.3447-1.7831-3.6447-0.07751-0.0479-0.13885-0.0509-0.18538-0.0177zm106.77 2.0017c0.28263-0.0588 0.48232 0.0135 0.48032 0.24249-9.9e-4 0.14622-0.28652 0.69695-0.63402 1.2239-0.59352 0.90004-0.65663 0.9184-1.0411 0.30274-0.32914-0.52704-0.28612-0.76665 0.21913-1.2239 0.32779-0.29664 0.69305-0.48648 0.97568-0.54521zm-120.21 8.87c-0.31227-0.0446-0.63898 0.18781-0.83496 0.71761-0.19274 0.52104 0.22823 2.2196 1.3828 5.583 0.91267 2.6588 1.7771 5.1136 1.9212 5.4548 0.31905 0.75504 1.6045 0.8291 1.6045 0.0925 0-0.83096-2.0176-7.7999-2.5823-8.9198-0.27991-0.55515-0.61398-1.4484-0.74254-1.9846-0.13848-0.57754-0.4365-0.89894-0.74877-0.94349zm123.73 0.32349c0.30394 0 0.45388 0.15918 0.33337 0.35414-0.1205 0.19496-0.36903 0.35465-0.55249 0.35465-0.18345 0-0.33336-0.15969-0.33336-0.35465s0.24854-0.35414 0.55248-0.35414zm-7.6201 0.70099c-0.0744-7e-3 -0.15539 0.023-0.23471 0.10231-0.11697 0.117-0.0879 0.41497 0.0649 0.66205v5.2e-4c0.22334 0.36094 0.30676 0.36127 0.42682 1e-3 0.12851-0.38553-0.034-0.74435-0.25703-0.76591zm-119.84 0.78097c-0.67172 0.35751 0.49431 3.3062 3.2023 8.0002 1.0314 1.7878 1.3986 2.1121 1.8647 1.646 0.3774-0.37739-3.9972-9.4158-4.665-9.6384-0.17198-0.0574-0.30583-0.0591-0.4019-8e-3zm132.98 1.1766c-0.78657 0-1.4448 2.6955-1.4508 5.9372-4e-3 2.4008 0.10494 3.102 0.4829 3.102 1.0622 0 1.3476-1.0378 1.387-5.0378 0.0302-3.0582-0.0684-4.0014-0.41906-4.0014zm-12.937 0.29443c-0.57383 0.10226-1.281 1.1531-1.281 2.2208 0 0.64066-0.15917 1.2633-0.35413 1.3838-0.19497 0.1205-0.35466 0.44914-0.35466 0.73008 0 0.75354 1.3338 0.62086 1.7598-0.175 0.20181-0.3771 0.36712-1.1429 0.36712-1.7016 0-0.55871 0.15275-1.1684 0.33959-1.3553 0.20432-0.20435 0.21315-0.54511 0.0218-0.8547-0.13055-0.21122-0.30724-0.28229-0.49852-0.24819zm2.8834 1.4472c-0.53601-0.53602-3.8098 5.771-3.8098 7.3397 0 0.57809 0.89205 0.31842 1.2452-0.36244 0.19244-0.37107 0.66378-1.2881 1.0474-2.0381 0.38353-0.74996 0.96219-1.6522 1.2862-2.0048 0.54251-0.59048 0.691-2.4744 0.23106-2.9343zm2.1461 0.62466c-0.29593 0.16865-0.62822 0.84086-0.6335 1.4441-3e-3 0.3412 0.15148 0.62052 0.3427 0.62052 0.42465 0 0.89444-1.7112 0.56135-2.0443-0.077-0.077-0.17191-0.0764-0.27055-0.0203zm-131.66 3.128c0.2511 0 1.0688 1.8994 1.4113 3.2791 0.30207 1.2167-0.36725 1.3195-0.82094 0.12618-0.46051-1.2112-0.84094-3.4053-0.5904-3.4053zm11.076 4.6868c-0.47534 0.0731-0.68991 0.30763-0.58416 0.63869 0.21224 0.66443 0.29238 3.7634 0.3666 14.171 0.03266 4.5816 0.18982 8.8886 0.34894 9.571 0.15912 0.68238 0.3824 2.118 0.49641 3.1903l0.20718 1.9493-1.5432-3.1903c-1.4595-3.0174-2.7105-4.7855-3.3861-4.7855-0.67397 0-0.76123 1.8539-0.1293 2.7458 0.77795 1.098 1.0294 1.4874 2.5205 3.8991 0.64636 1.0455 1.1118 2.0913 1.0344 2.3237-0.07747 0.23242-0.56836-0.25481-1.091-1.0827-1.1025-1.7465-2.0063-1.9859-2.0012-0.53016 2e-3 0.57611 0.50934 1.6111 1.2405 2.5309 0.68048 0.85601 1.2374 1.6752 1.2374 1.82s0.311 0.3446 0.69113 0.44397c0.93439 0.24435 2.1419 2.3076 2.1435 3.6628 0.0016 1.3525 2.0168 5.366 2.7993 5.5753 0.31325 0.0837 0.67046 0.17106 0.79394 0.19366 1.0277 0.18823-4e-3 -3.8573-1.3682-5.365-0.51352-0.56749-0.50676-0.68085 0.081-1.3303 0.5637-0.62289 0.5904-0.88456 0.21601-2.1342-0.23469-0.78333-0.34058-1.5633-0.23522-1.7338 0.10535-0.17047 0.0141-1.1644-0.20303-2.2084-0.21712-1.0441-0.38737-2.1377-0.37802-2.4301 0.20379-6.3658-0.32411-27.084-0.69996-27.472-0.22694-0.23418-0.51944-0.11595-0.86248 0.34893-0.5119 0.69372-0.52258 0.69246-0.73164-0.10695-0.15159-0.5797-0.42608-0.778-0.96322-0.6953zm114.01 0.13657c-0.21224 0.0223-0.39224 0.13832-0.60856 0.35465-0.78123 0.78122-1.0522 2.186-0.54056 2.8024 0.63677 0.76725 1.5325 0.6467 2.4493-0.3292 0.95991-1.0218 0.76538-2.0461-0.49796-2.6217-0.34527-0.15731-0.59001-0.22845-0.80226-0.20614zm-125.22 29.789c0-0.20431 0.63824 0.25159 1.4181 1.0131 0.77985 0.76152 1.4181 1.5915 1.4181 1.8444 0 0.75228-0.70287 0.52196-1.0318-0.33803-0.16776-0.43865-0.64231-1.1012-1.0546-1.4726-0.4123-0.3714-0.74981-0.84251-0.74981-1.0468zm-5.9252 4.0263c-0.92065 0-0.32051 1.542 0.92636 2.3803 1.4644 0.98453 1.4544 0.98418 1.4544 0.0841 0-0.80971-1.5986-2.4644-2.3808-2.4644z" stroke-width="1.0048"/>
</svg>
