<?xml version="1.0" encoding="utf-8"?>
<svg xmlns="http://www.w3.org/2000/svg" version="1.1" viewBox="0 0 300 114">
	<path d="m265.35 0.012983c-2.4265-0.15324-4.4664 1.0219-8.7356 5.0324-2.3107 2.1707-2.5233 2.263-4.1903 1.8151-1.8236-0.48999-3.0079-0.50262-4.2616-0.044743-1.7335 0.63308-1.5596 1.3474 0.5044 2.0717 0.86561 0.30376 1.7735 0.55315 2.0173 0.55423 0.24383 0.00108 0.76712 0.16708 1.1633 0.36935 0.39624 0.20226 1.3041 0.54879 2.0173 0.76993 0.7132 0.22112 1.4912 0.54734 1.729 0.72476 0.23773 0.17742 1.2103 0.62709 2.1612 0.99956 0.95093 0.37247 2.9868 1.5009 4.5242 2.5078 1.5374 1.0068 2.8607 1.8307 2.9408 1.8307 0.3048 0 3.7506 2.3434 5.4026 3.674 1.8859 1.5191 2.5493 1.1716 1.9679-1.0312-0.19542-0.74029-0.57296-1.5406-0.83874-1.7784-0.26579-0.23773-0.68662-0.84027-0.93539-1.3389-0.39047-0.7827-0.40084-1.0978-0.0764-2.3051 0.20669-0.76923 0.38439-1.225 0.39509-1.0126 0.0238 0.47279 0.97809 1.3152 2.3246 2.0519 0.55471 0.30347 1.8936 1.3946 2.975 2.4246 1.2171 1.1593 2.3146 1.9472 2.8813 2.0679 1.1652 0.24817 3.2752 1.1918 3.5086 1.5694 0.15643 0.25313-1.1949 0.45992-1.9974 0.30561-0.42554-0.08183-4.4596-0.0036-6.3587 0.12326-0.95093 0.06352-5.4246 0.19885-9.9416 0.30054-4.5169 0.10169-8.9259 0.20916-9.7976 0.23892-0.87167 0.02976-1.6949 3e-3 -1.8294-0.0591-0.37618-0.17384-9.7896-0.30899-10.056-0.14436-0.12915 0.07982-1.1059 0.18682-2.1709 0.23765-1.065 0.05082-2.7464 0.15941-3.7361 0.24102-0.98966 0.08161-1.866 0.04042-1.9476-0.0916-0.0816-0.13202-2.773-0.23622-5.9809-0.23132-3.2079 0.0049-5.9625-0.03196-6.121-0.08189-0.15848-0.04993-1.3686 0.08285-2.6892 0.29506-2.0414 0.32801-2.4472 0.48658-2.7078 1.0587-0.22066 0.48431-0.21547 0.7829 0.019 1.0654 0.19779 0.23835 0.32202 1.5718 0.31616 3.3946-5e-3 1.651 0.0664 4.6875 0.15913 6.7479 0.0928 2.0603 0.21885 4.942 0.28029 6.4034 0.0614 1.4614 0.19423 2.7904 0.29505 2.9535 0.10082 0.16313 0.0993 0.43248-3e-3 0.59855-0.10266 0.16608-0.0951 0.52254 0.0164 0.79231 0.11154 0.26976 0.24761 1.3983 0.30266 2.5078 0.0551 1.1094 0.1137 2.2118 0.13002 2.4495 0.0164 0.23773 0.20587 1.4048 0.42126 2.5934s0.48134 2.7447 0.59096 3.4579c0.10962 0.7132 0.32807 1.5421 0.48584 1.8421 0.15781 0.30004 0.65577 1.7914 1.1064 3.314 0.45057 1.5226 1.1436 3.676 1.5403 4.7855 0.39667 1.1094 0.72829 2.2113 0.73702 2.4491 0.0188 0.51169 1.4542 3.3997 2.2536 4.5343 0.3087 0.43812 0.85691 1.3801 1.2178 2.0928 2.1399 4.2264 12.442 14.603 13.931 14.032 0.22493-0.08632 0.76653 0.22018 1.2136 0.68677 0.44406 0.46351 0.92052 0.84296 1.0586 0.84296 0.22509 0 2.4522 1.619 2.8108 2.0434 0.0793 0.09375 1.5055 0.83649 3.1696 1.6504 1.9941 0.97535 4.0573 1.7197 6.0514 2.184 1.6641 0.38742 3.2849 0.76939 3.6019 0.84845 1.285 0.32046 5.7668-0.09944 6.9159-0.64793 0.31699-0.15131 2.3272-1.118 4.4668-2.1481 2.1396-1.0301 4.2487-1.9615 4.6871-2.0696 0.44832-0.11061 1.1396-0.67309 1.58-1.2858 0.43059-0.59906 1.3144-1.4256 1.9641-1.8366 0.64961-0.41097 1.4176-1.0087 1.7066-1.328 0.28895-0.3193 0.62835-0.58041 0.75433-0.58041 0.51689 0 2.8401-1.7972 3.7496-2.9007 0.53617-0.65061 1.8458-2.0815 2.91-3.1793 1.3754-1.4188 2.0288-2.3445 2.2596-3.2017 0.32369-1.2021 2.0351-5.1865 3.8729-9.0163 0.53239-1.1094 1.0602-2.4063 1.1726-2.8818 0.11244-0.47546 0.57546-1.9857 1.0291-3.3562 0.45364-1.3705 0.8248-2.7385 0.8248-3.04 0-0.30151 0.13451-0.68281 0.29885-0.84717 0.16436-0.16434 0.35135-1.0006 0.4158-1.8586 0.0644-0.85789 0.31441-2.3377 0.55549-3.2887 0.49215-1.9414 0.76662-4.5247 0.88811-8.3569 0.0452-1.4264 0.24497-4.0197 0.44365-5.7631 0.45798-4.0187 0.38277-15.513-0.11271-17.218l-0.35584-1.2245-1.859 0.0515c-1.0225 0.02826-3.0912 0.08329-4.5968 0.12241-4.2445 0.11028-6.5227-0.69094-3.0869-1.0857 1.1633-0.13364 1.9341-0.51478 1.9341-0.95608 0-0.11677-0.52329-0.80689-1.1629-1.5335-0.95037-1.0797-1.3978-1.356-2.4491-1.5137-0.70751-0.1061-1.2866-0.30821-1.2866-0.4487 0-0.2556 0.45072-0.31817 2.8864-0.40227 1.4987-0.05175 2.9765-0.67064 3.097-1.2967 0.0771-0.40014-2.2143-1.7348-2.9674-1.7285-0.16384 0.0013-0.99063-0.44386-1.8375-0.98943-1.2931-0.83309-1.9028-1.0237-3.8083-1.1899-1.2478-0.10885-2.2688-0.29011-2.2688-0.40269 0-0.78396-3.9066-1.1325-5.4828-0.48923-0.55052 0.22466-1.9581 0.49887-3.1278 0.60953l-2.1266 0.20135 0.20599-0.81383c0.11333-0.44748 0.26684-1.786 0.34106-2.9746 0.13408-2.1476 0.12786-2.1701-0.97254-3.6019-1.4253-1.8545-3.1414-2.8068-5.3038-2.9434zm-0.67918 1.07c0.25643 0 0.38625 0.12981 0.2883 0.2883-0.0979 0.15849-0.22777 0.2883-0.2883 0.2883-0.0605 0-0.19034-0.12982-0.28831-0.2883-0.0979-0.15849 0.0319-0.2883 0.28831-0.2883zm3.2671 1.0375c0.14823-0.091607 0.42031 0.014934 0.60446 0.2368 0.19799 0.23857 0.22481 0.47135 0.0654 0.56985-0.14821 0.091609-0.42031-0.014934-0.60446-0.2368-0.19799-0.23857-0.22479-0.47135-0.0654-0.56985zm-1.5339 0.16758c0.0848 0.084845-0.10393 0.46433-0.4196 0.84338-0.31566 0.37905-0.57427 0.55949-0.57449 0.40101 0-0.41301 0.81034-1.4281 0.99409-1.2444zm2.9628 1.1127c0.11893-0.00471 0.20599 0.034787 0.25075 0.10299 0.0895 0.13642 0.0104 0.38732-0.31954 0.62852-0.30741 0.22477-0.67453 0.4086-0.81594 0.4086-0.38554 0-0.0972-0.63724 0.44238-0.97761 0.17261-0.10889 0.32342-0.1578 0.44235-0.16251zm-6.4081 0.38961c0.0784-0.01636 0.12706 0.010201 0.12706 0.084 0 0.1476-0.19025 0.52011-0.42295 0.82776-0.35543 0.46992-0.42454 0.48434-0.43224 0.090332-5e-3 -0.25795 0.18522-0.63046 0.42295-0.82776 0.11887-0.09865 0.22684-0.15796 0.30518-0.17433zm1.4673 0.26551c0.10635 0.10636-0.0419 0.45367-0.32967 0.77162-0.49559 0.54761-1.0105 0.7627-1.0105 0.42211 0-0.342 1.1593-1.3746 1.3402-1.1937zm-3.6454 0.19713c0.15848 0 0.2883 0.12939 0.2883 0.28788 0 0.15849-0.12982 0.2883-0.2883 0.2883s-0.28831-0.12981-0.28831-0.2883c0-0.15849 0.12983-0.28788 0.28831-0.28788zm-2.1675 0.33347c0.45675-0.17569 0.72193 0.047925 1.1591 0.53101 0.28686 0.31698 0.75469 0.57618 1.0397 0.57618 0.56993 0 2.0426 0.59 2.2802 0.91345 0.54314 0.73917 2.9822 1.9986 4.6044 2.3777 0.39621 0.092603 1.1364 0.55034 1.645 1.0173l0.92485 0.84929-0.30728 1.7433c-0.16892 0.95897-0.41733 1.7437-0.55212 1.7437-0.1348 0-0.60722-0.46187-1.0498-1.0261-0.88142-1.1238-2.7427-2.1152-4.3718-2.3288-1.6805-0.22035-3.493-0.73505-3.493-0.99196 0-0.13071-0.47202-0.32612-1.0489-0.43435-0.57691-0.10823-1.5816-0.50168-2.233-0.87419-0.65137-0.37249-1.4115-0.6785-1.6889-0.68044-0.75164-0.00517-0.63157-0.24256 0.78219-1.5508 1.2044-1.1145 1.8526-1.6896 2.3094-1.8653zm11.846 0.098774 0.21949 0.83409c0.12202 0.46376 0.0991 0.95451-0.0519 1.1055-0.39511 0.39512-0.54849-0.082502-0.34487-1.0751zm-1.5597 0.44026c0.15243-0.02789 0.25824 0.074566 0.17179 0.33389-0.0627 0.18821-0.26799 0.39353-0.45629 0.4563-0.21057 0.070189-0.27525-0.061274-0.16758-0.34191 0.10049-0.2619 0.29967-0.42039 0.45208-0.44828zm-3.6103 1.8058 0.91558 0.13423c0.52383 0.076883 0.91555 0.30539 0.91555 0.53397 0 0.54564-0.38677 0.50143-1.1718-0.13423zm4.4246 1.6441c0.15849 0 0.28788 0.12939 0.28788 0.28788 0 0.15849-0.12939 0.2883-0.28788 0.2883-0.15848 0-0.2883-0.12981-0.2883-0.2883 0-0.15849 0.12982-0.28788 0.2883-0.28788zm8.9585 1.6348c1.0442 0.07413 2.0263 0.30591 2.4799 0.66271 0.40272 0.31678 0.83571 0.51223 0.9624 0.43393 0.53713-0.33197 4.0605 0.42458 4.9552 1.0641 0.51594 0.36884 1.5775 0.92994 2.3592 1.2469 2.2193 0.8999 2.0432 1.2908-0.60066 1.3339-1.2415 0.02023-2.5167 0.06841-2.8336 0.10722-3.5595 0.43574-4.3532 0.44554-4.8986 0.06121-0.31699-0.22339-0.98841-0.48545-1.4922-0.58251-0.5126-0.09877-1.522-0.74121-2.2925-1.4588-1.107-1.031-1.7044-1.3466-3.0493-1.6112-0.91996-0.181-1.8014-0.24971-1.9582-0.1528-0.1568 0.09691-0.28493 0.03867-0.28493-0.12917 0-0.24445 1.7442-0.47232 2.6458-0.34571 0.1081 0.01517 0.62692-0.1405 1.1528-0.34571 0.7038-0.27464 1.8105-0.3582 2.8547-0.28408zm-15.15 1.5031c0.77367-0.08693 1.7695 0.12361 2.1566 0.4563 0.23773 0.20433 0.69186 0.46092 1.0088 0.56985 0.31698 0.10893 0.94574 0.64278 1.3972 1.1866 0.45146 0.54377 0.71067 0.975 0.5762 0.95819-0.57689-0.07212-1.878-0.9193-2.1975-1.431-0.19081-0.30555-0.51065-0.5555-0.71084-0.5555-0.46241 0-2.6121-1.1416-2.2304-1.1844zm8.305 0.21992c0.34286-0.08245 1.207-0.03468 1.9202 0.10637 0.7132 0.14104 1.3927 0.26241 1.5099 0.2693 0.11721 0.0069 0.92906 0.66088 1.8041 1.4533 0.87505 0.79243 1.7892 1.4407 2.0316 1.4407 0.24236 0 0.969 0.26983 1.615 0.5994 1.0162 0.51842 1.3872 0.56244 2.7504 0.32756 1.21-0.20846 1.6084-0.18628 1.7163 0.09497 0.0773 0.20145 0.98013 0.59346 2.0063 0.87124 1.3276 0.35938 2.0697 0.74741 2.5728 1.3453 0.38882 0.4621 0.70704 0.93001 0.70704 1.0401s-0.81061 0.37213-1.8012 0.58209c-3.5132 0.74465-4.0896 0.6713-7.0615-0.89825-0.82526-0.43584-1.6819-0.79272-1.9033-0.79272-0.22137 0-1.2933-0.82154-2.3824-1.826-1.0891-1.0045-2.6504-2.1611-3.4693-2.5698-0.81893-0.40875-1.7478-1.0019-2.0641-1.3183-0.57488-0.57488-0.57488-0.57538 0.0481-0.72519zm10.968 11.151c5.103 0.02479 14.41 0.48648 14.647 0.85435 0.70875 1.0975 0.91 2.7493 0.93583 7.6896 0.0181 3.4608-0.10111 5.8366-0.33938 6.7719-0.20186 0.79243-0.36825 2.385-0.37019 3.539-2e-3 1.4237-0.11945 2.1345-0.36386 2.211-0.1981 0.06206-2.2287 0.19272-4.5124 0.29041-2.2837 0.0977-4.243 0.2336-4.3541 0.30222-0.30769 0.19016-7.1667 0.20495-11.377 0.02449-4.3347-0.18577-8.233-0.1932-8.519-0.01643-0.10912 0.06745-1.7844 0.19909-3.723 0.29254-2.853 0.13754-3.4982 0.09721-3.3858-0.21106 0.0764-0.20948 0.30417-0.34214 0.50613-0.29463 0.28292 0.06656 0.32835-0.3797 0.19712-1.9451-0.13114-1.5642-0.084-2.0312 0.20515-2.0312 0.25031 0 0.42869 0.58944 0.53565 1.7691 0.15185 1.6747 0.54836 2.3793 1.2165 2.162 0.15848-0.05152 0.30689-0.79493 0.32967-1.6521 0.0228-0.8572 0.0549-1.7149 0.0718-1.9058 0.0169-0.19093 0.51709-0.43366 1.1114-0.53946 0.94723-0.16862 3.1232-1.1383 3.5297-1.5728 0.0793-0.08471 0.50477-0.43039 0.94511-0.76824 0.44035-0.33786 1.3624-1.3382 2.0493-2.2228 0.68696-0.88468 1.5913-1.8776 2.0092-2.2064 0.80661-0.63449 1.015-1.4204 0.37694-1.4204-0.21039 0-1.1906 0.32842-2.1785 0.72983-1.9852 0.80668-3.2302 0.93706-4.4267 0.46306-0.96228-0.38122-1.0106-1.0276-0.24018-3.2152 0.30374-0.86252 0.49373-1.6633 0.42211-1.7792-0.16577-0.2682-1.2278 0.13646-3.2004 1.2191-0.8556 0.46956-1.6558 0.85351-1.7788 0.85351s-0.7692-0.51841-1.4356-1.1524c-0.66643-0.63396-1.4037-1.1528-1.6386-1.1528-0.23497 0-0.5515-0.32655-0.70324-0.72561-0.32146-0.84551-1.1631-1.2203-3.3072-1.4723-1.2935-0.15202-1.7139-0.07743-2.5795 0.45757-1.1167 0.69016-1.6036 1.3992-1.8788 2.7365-0.13692 0.66528-0.48941 1.0055-1.607 1.5504-0.78735 0.38391-1.9893 0.9729-2.6711 1.309-2.7393 1.3502-2.6869 2.3712 0.0967 1.8873 0.94572-0.16442 2.3917-0.39895 3.2135-0.52089 0.8218-0.12193 1.6898-0.38394 1.929-0.58251 0.86206-0.71545 1.6772-0.26905 2.0506 1.1237 0.90345 3.3692 2.404 5.453 4.262 5.9188 1.1724 0.29391 1.2018 0.33255 1.5521 2.0173 0.19641 0.94462 0.36285 1.8133 0.36976 1.9303 7e-3 0.11699-0.50775 0.2959-1.1439 0.39763-0.84067 0.13443-1.1359 0.31074-1.0806 0.6454 0.0665 0.40263-0.52139 0.4746-4.6787 0.5728-5.0363 0.11895-6.6843 0.12358-21.004 0.06079-4.9751-0.02183-9.5958 0.04273-10.268 0.1435-0.67207 0.10078-1.2876 0.0737-1.3681-0.06036-0.0805-0.13404-0.29976-2.124-0.48711-4.422-0.18738-2.2981-0.47737-5.0212-0.64458-6.0514-0.29799-1.8362-0.35958-7.3396-0.087-7.7808 0.0761-0.12309 0.0325-0.79148-0.0971-1.4854-0.12963-0.69392-0.18247-1.4218-0.11735-1.6171 0.15349-0.46044 10.312-0.51346 10.595-0.0553 0.10651 0.17232 0.45098 0.20935 0.80961 0.08653 0.34327-0.11755 5.4866-0.23921 11.43-0.27015 20.712-0.10781 36.139-0.41632 36.959-0.73912 0.27532-0.10845 1.5092-0.14882 3.2102-0.14056zm-222.52 0.11144c-0.43557-0.11107-1.3503 0.14598-1.6994 0.58504-0.29994 0.37721-0.91564 0.4124-4.1785 0.23765-6.8066-0.36455-14.338-0.49716-14.706-0.25876-0.19742 0.12779-4.3141 0.24582-9.148 0.26255-13.027 0.04509-23.014 0.40018-24.139 0.85815-0.81013 0.32978-0.93246 0.50997-0.87335 1.2857 0.04614 0.6055-0.094185 0.99326-0.42675 1.1794-0.5355 0.29968-0.65686 1.1184-0.23132 1.5597 0.14519 0.15056 0.33734 3.3857 0.42718 7.1894 0.089835 3.8037 0.21435 7.4347 0.27648 8.0686 0.06213 0.63397 0.20729 2.7736 0.32291 4.7547 0.20497 3.5121 1.2562 11.232 1.8835 13.832 0.17209 0.7132 0.42685 1.9041 0.56605 2.6462 0.39026 2.0805 1.6079 5.2904 2.9311 7.7276 0.64216 1.1828 2.6944 4.5076 2.9636 4.8015 0.16872 0.18418 0.76059 0.99865 1.3153 1.81 2.4574 3.5943 5.1772 6.5314 6.9235 7.4764 0.47168 0.25528 1.214 0.75201 1.6496 1.1038 2.3957 1.9349 5.3303 3.8257 5.942 3.8285 0.17891 0 0.84386 0.32079 1.4778 0.71125 0.63396 0.39046 1.412 0.71348 1.729 0.71758 0.31698 0.0041 1.1597 0.19468 1.8729 0.42338 0.71319 0.22868 2.4638 0.76788 3.8902 1.1984 1.4264 0.43049 2.7233 0.88125 2.8817 1.0017 0.15849 0.12042 1.241 0.35072 2.4056 0.51201 1.1646 0.16131 2.2019 0.37847 2.3051 0.48249 0.30124 0.30337 2.0877-0.08424 2.6238-0.56944 0.27018-0.24452 0.70169-0.4449 0.95904-0.4449 0.61658 0 6.8794-3.2891 9.1843-4.8234 0.65711-0.43745 2.0713-1.3792 3.1426-2.0924 3.8697-2.5761 3.6823-2.4328 5.9155-4.5187 0.64794-0.60518 1.9116-1.7487 2.8079-2.5411 0.8963-0.79243 1.8156-1.83 2.043-2.3056 0.22743-0.47557 0.93989-1.4481 1.5829-2.1612 0.64304-0.71311 1.1708-1.4776 1.173-1.6986 0.0022-0.22111 0.47299-1.3768 1.046-2.5681 0.57301-1.1913 1.3676-3.3442 1.7661-4.7846 0.39846-1.4404 0.90219-3.2621 1.119-4.048 0.68837-2.4952 2.0753-9.7332 2.2663-11.826 0.10122-1.1094 0.36571-3.0545 0.58758-4.3224 0.22186-1.2679 0.39504-2.7593 0.38496-3.314-0.01009-0.5547 0.06607-2.759 0.16926-4.8986 0.18185-3.7702 0.20321-10.912 0.04221-14.093-0.05999-1.1853-0.22709-1.6784-0.69775-2.0595-0.88464-0.71634-4.0173-0.94981-7.1117-0.53017-1.4264 0.19344-5.7707 0.37178-9.6537 0.39636-3.8829 0.02459-6.7033-0.0049-6.2675-0.06585 0.43584-0.06091 0.79272-0.27893 0.79272-0.48416 0-0.12567-0.09203-0.20358-0.23723-0.2406zm15.221 2.536c1.6641-0.0059 3.6743 0.12246 4.4668 0.28535l1.4407 0.29632-0.05741 4.7466c-0.14502 11.939-0.45659 17.344-1.2663 21.978-1.8284 10.465-2.4105 12.65-5.3612 20.129-0.80824 2.0487-1.5524 3.3388-2.8252 4.8965-2.5039 3.0646-6.6624 7.1322-8.6182 8.43-0.93125 0.61791-2.5279 1.7552-3.5478 2.5272-1.0199 0.772-3.1735 2.0497-4.7855 2.8395-1.612 0.78981-3.3197 1.6651-3.7952 1.9451-0.47546 0.27994-1.3276 0.66861-1.8936 0.86364-0.56596 0.19503-1.0844 0.33795-1.1524 0.31785-0.06799-0.0201-0.64252-0.15902-1.2765-0.30899-0.63396-0.14997-1.8657-0.46879-2.7374-0.70872-0.87168-0.23996-2.4278-0.61469-3.4579-0.83282-2.0148-0.42662-7.0717-2.0257-7.7803-2.4601-0.23773-0.14573-0.75657-0.40101-1.1528-0.56732-1.8287-0.76762-3.1673-1.4995-3.8112-2.0844-0.3858-0.35044-1.8467-1.4154-3.2464-2.3663-2.8228-1.9177-5.9583-4.9016-7.0623-6.7213-0.39622-0.65309-0.89002-1.1911-1.0975-1.1954-0.20746-0.0043-0.31381-0.11024-0.23638-0.23553 0.21389-0.34607-0.73468-2.1582-1.4158-2.7049-0.3313-0.26594-0.78255-1.044-1.0029-1.729-0.22038-0.68499-0.56833-1.3494-0.77331-1.4761-0.20496-0.12676-0.37272-0.46758-0.37272-0.75726 0-0.28971-0.19452-0.68787-0.43224-0.88516-0.23773-0.19732-0.43224-0.53769-0.43224-0.75601s-0.11169-0.39678-0.2482-0.39678c-0.13651 0-0.18795-0.31465-0.11439-0.69943 0.07356-0.38478-0.16093-1.5197-0.52131-2.5217-0.36037-1.002-0.75021-2.5999-0.86617-3.5508-0.11595-0.95093-0.41123-2.4419-0.65596-3.3136-1.1006-3.9201-1.6848-10.833-1.5589-18.442 0.049198-2.9735 0.014307-4.9685-0.1528-8.7888-0.097047-2.2188-0.1008-4.3384-0.0084417-4.7099 0.15189-0.61088 0.28121-0.65829 1.3546-0.49978 0.65266 0.09639 5.9199 0.1663 11.705 0.15576 13.938-0.02539 19.57 0.0011 27.519 0.12874 3.6452 0.05858 7.6005 7.3e-5 8.7892-0.13001 2.3415-0.25624 13.554-0.6801 18.442-0.69733zm179.81 2.0447c0.14852 0.02365 0.26788 0.07595 0.32165 0.16293 0.10999 0.17797 0.0508 0.56197-0.13127 0.85351-0.42143 0.67481-1.7759 0.74101-1.52 0.07429 0.0962-0.2507 0.17519-0.55973 0.17519-0.68677 0-0.19154 0.31508-0.33879 0.65722-0.39467 0.17106-0.02794 0.34873-0.03294 0.49725-0.0093zm-186.3 1.5466c-0.21906 0-2.0458 1.6533-4.0594 3.674-2.0137 2.0207-4.0201 3.9397-4.4588 4.2646-0.43863 0.32486-2.2016 1.901-3.9176 3.5022-6.6365 6.193-11.512 10.679-12.331 11.347-0.46973 0.3832-1.8964 1.672-3.17 2.864-4.2458 3.9737-9.9085 8.9272-10.206 8.9272-0.1615 0-0.39752 0.16782-0.52426 0.37313-0.12674 0.20534-1.3975 1.3278-2.8239 2.4943-1.4264 1.1665-2.7269 2.2812-2.8902 2.4769-0.1633 0.19576-0.94135 0.84419-1.729 1.4411-0.7876 0.59692-1.5273 1.2269-1.6437 1.4001-0.54834 0.8156 0.08071 2.2592 1.276 2.9282 0.77232 0.4322 4.2526 4.5477 4.2599 5.0375 0.0037 0.24566 0.16228 0.60254 0.35246 0.79273s0.75546 0.34571 1.2562 0.34571c0.76231 0 1.0932-0.24499 2.0333-1.5053 0.61752-0.82785 1.3865-1.6385 1.7087-1.8011 0.32222-0.16261 1.294-0.98008 2.1595-1.8168 0.86553-0.83667 2.1572-1.8662 2.8704-2.2874 0.7132-0.42128 1.9958-1.4647 2.8505-2.3191 0.8547-0.85422 2.0218-1.8578 2.5934-2.2296 0.94923-0.61726 2.5843-2.1047 3.3739-3.0696 0.17451-0.21325 0.82273-0.86736 1.4407-1.4533 0.61792-0.58597 1.5774-1.5927 2.1321-2.2372 0.55471-0.64454 1.2657-1.3968 1.58-1.672 1.2225-1.0704 3.5225-3.4636 4.7597-4.9526 0.71319-0.85837 3.112-3.3974 5.3308-5.6419 2.2188-2.2446 4.6181-4.7523 5.3313-5.5731 2.0951-2.4112 5.914-6.2739 6.7339-6.8112 0.97924-0.64162 0.9556-1.1263-0.1165-2.4094-1.3088-1.5664-1.345-1.6193-1.5508-2.268-0.1049-0.33052-0.56956-1.0776-1.0325-1.6602-0.46293-0.58253-0.92025-1.3073-1.0164-1.6104-0.096191-0.30307-0.35416-0.55086-0.57322-0.55086zm187.18 1.1524c0.16783 0 0.225 0.12981 0.12705 0.2883-0.0979 0.15849-0.23529 0.2883-0.30518 0.2883-0.0699 0-0.12706-0.12981-0.12706-0.2883 0-0.15849 0.13735-0.2883 0.30519-0.2883zm-187.46 1.729c0.16619 0 0.45108 0.35688 0.63317 0.79272 0.18207 0.43584 0.6965 1.4294 1.1435 2.2081 0.58979 1.0274 0.71121 1.4498 0.44195 1.5403-0.20407 0.0686-1.2229 1.1825-2.2638 2.4748-3.0116 3.7392-4.7563 5.6284-15.952 17.271-8.4417 8.7789-13.903 13.905-17.873 16.776-0.43822 0.31698-1.2969 0.99601-1.9079 1.509-0.61104 0.513-1.7566 1.4534-2.5462 2.0895-0.78954 0.63602-1.531 1.1562-1.6475 1.1562s-0.66562-0.4537-1.2203-1.0084c-0.55471-0.5547-1.1427-1.0084-1.3064-1.0084-0.16377 0-0.29759-0.17056-0.29759-0.37864 0-0.20808-0.38453-0.74655-0.85435-1.1967-0.46983-0.45012-0.77731-0.94257-0.6834-1.0945 0.09391-0.15195-0.0013-0.38256-0.21148-0.51244-0.28259-0.17465-0.17946-0.32857 0.39552-0.59055 0.42758-0.19481 0.7771-0.44216 0.7771-0.55 0-0.29505 2.4992-2.8813 2.7842-2.8813 0.1362 0 0.81365-0.55098 1.5057-1.2245 0.69202-0.67358 1.5502-1.4195 1.9071-1.6572 0.57619-0.38385 2.0872-1.7121 5.3338-4.6901 0.55689-0.51082 1.6223-1.3828 2.368-1.9375 0.74572-0.5547 1.3602-1.1415 1.3651-1.3039 0.01055-0.34955 2.0797-2.3366 3.4659-3.3283 1.1204-0.80155 4.1225-3.5698 5.8699-5.4127 0.65497-0.69081 2.2972-2.1384 3.6491-3.2169 1.352-1.0785 3.2551-2.7825 4.2295-3.7867 2.443-2.5177 4.3086-4.2751 4.5381-4.2751 0.10588 0 1.5115-1.2969 3.1232-2.8817 1.6117-1.5849 3.0663-2.8817 3.2325-2.8817zm-44.067 0.14352c-0.89372-0.0286-1.646 0.45897-2.203 1.4415-0.26954 0.47546-0.63081 0.83347-0.80286 0.79568-0.17205-0.03779-0.64175 0.05621-1.0435 0.20894-0.67116 0.25517-0.73025 0.42003-0.73025 2.0291 0 1.6866 0.03185 1.762 0.86448 2.0523 1.1804 0.41147 1.1602 1.2869-0.03588 1.5496-0.90612 0.19902-1.3906-0.12741-1.4006-0.94426-3e-3 -0.24697-0.5391-0.36048-1.7049-0.36048h-1.7003l-0.25453 1.0806c-0.22327 0.94708-0.37822 1.0987-1.2528 1.225-0.9062 0.13084-1.0215 0.25669-1.2558 1.3702-0.15466 0.73496-0.15162 1.6008 8e-3 2.1612 0.21939 0.77019 0.46822 0.98592 1.4103 1.2233 1.1112 0.27996 1.141 0.31969 1.0519 1.4065-0.11331 1.3822 0.20572 1.7246 1.5601 1.6737 1.5638-0.05878 2.0571-0.28761 2.246-1.0405 0.11386-0.45364 0.43245-0.72197 0.96536-0.81341 0.4374-0.07504 1.0066-0.2276 1.2651-0.33896 0.35306-0.15213 0.55001 0.02762 0.7923 0.72266 0.41722 1.1968 0.44729 1.1275-0.48416 1.1275-1.1514 0-1.4985 0.49193-1.4985 2.1241 0 1.4592 0.55427 2.4867 1.3415 2.4867 0.25667 0 0.3875 0.3698 0.3875 1.095 0 0.60226 0.15166 1.2466 0.33684 1.4318 0.20882 0.20879 0.99581 0.29611 2.0721 0.23004 1.9253-0.11815 2.4896-0.56023 2.4896-1.9497 0-0.67492 0.19027-0.88772 1.127-1.2625 1.2409-0.49649 1.5801-1.21 1.2828-2.6964-0.21449-1.0724-0.91001-1.5112-2.7361-1.7256-0.10032-0.01189-0.14716-0.44268-0.10384-0.95776 0.04332-0.5151 0.09322-1.1064 0.11059-1.3136 0.0219-0.26114 0.40438-0.34932 1.2461-0.28789 1.1208 0.08178 1.2294 0.16291 1.4098 1.0519 0.2609 1.2854 0.4465 1.4188 2.1304 1.5327l1.4407 0.09751 0.03124-1.1992c0.04171-1.5948 0.27105-2.1148 0.93286-2.1148 0.87875 0 1.1686-0.61774 1.3482-2.8742 0.18243-2.2911 0.03445-2.5857-1.3039-2.5994-0.56445-0.0057-0.82467-0.25619-1.203-1.157-0.46279-1.1019-0.5376-1.1498-1.7957-1.1498-1.3795 0-1.396 0.01813-1.6766 1.8729-0.07229 0.47772-0.30828 0.5766-1.3799 0.5766-1.1974 0-1.2993-0.05864-1.3841-0.79568-0.07876-0.68494 0.03068-0.82022 0.78597-0.97128 1.1022-0.22045 1.3567-0.53914 1.5812-1.9793 0.2357-1.5116-0.11251-1.9953-1.409-1.9586-0.96273 0.02729-1.0376-0.02943-0.95566-0.72139 0.07486-0.63188-0.07823-0.81513-0.96452-1.1536-0.32735-0.12503-0.64086-0.19181-0.93877-0.20135zm-0.12748 1.5854c0.72211 0 0.82269 0.10579 0.82269 0.86448 0 0.79894 0.07807 0.86448 1.0278 0.86448 0.94815 0 1.0208 0.06052 0.93666 0.78217-0.07341 0.62976-0.28098 0.82106-1.065 0.98014-1.2989 0.26356-1.5306 0.68965-1.3647 2.5082 0.17547 1.923 0.54401 2.4227 1.515 2.0536 0.39426-0.1499 1.2845-0.27268 1.9784-0.27268 1.3852 0 2.1587-0.69409 2.1587-1.9371 0-1.314 1.0368-0.51119 1.1992 0.92864 0.08351 0.74019 0.2323 0.8775 1.0342 0.95481 0.90228 0.087 0.93666 0.13716 0.93666 1.3689 0 1.2219-0.0374 1.2782-0.84507 1.2782-0.88822 0-1.2484 0.55428-1.2942 1.9919-0.03458 1.0853-0.6521 1.0288-0.85984-0.07852-0.22414-1.1947-0.53726-1.3368-2.9392-1.3368-2.162 0-2.2938 0.16343-2.4542 3.0375-0.10898 1.9534 0.11315 2.4922 0.99956 2.4225 1.3436-0.10583 1.6293 0.01275 1.6293 0.67579 0 0.49686-0.23206 0.72936-0.93624 0.93667-0.77728 0.22883-0.98258 0.47134-1.206 1.428-0.14804 0.63395-0.27794 1.1746-0.28872 1.2013-0.01076 0.02673-0.37622 0.13825-0.81256 0.24778-0.71105 0.17845-0.83807 0.09241-1.2241-0.83157-0.23691-0.56701-0.43098-1.2299-0.43098-1.4727 0-0.24281-0.18996-0.44153-0.42211-0.44153-0.59807 0-1.0295-0.91696-0.7045-1.4977 0.14599-0.26088 0.67025-0.56299 1.1646-0.67157l0.89867-0.19756-0.17982-1.5293c-0.29403-2.5018-0.21084-2.4353-2.8552-2.2891-1.2839 0.071-2.4281 0.2276-2.5428 0.3478-0.11471 0.12021-0.25214 0.54123-0.30519 0.93582-0.05304 0.39461-0.30752 0.75791-0.56563 0.80708-0.37005 0.07046-0.51148-0.2488-0.66904-1.5099l-0.20008-1.5994h-1.1317c-0.78502 0-1.1321-0.12518-1.1321-0.40861 0-0.22477-0.07482-0.6041-0.16631-0.84253-0.09175-0.23909 0.10524-0.70463 0.439-1.0384 0.47449-0.47449 0.72448-0.54153 1.1574-0.30983 0.65842 0.35238 1.0194-0.05381 1.0194-1.1469 0-0.56242 0.16531-0.73968 0.75347-0.80792 0.63093-0.07321 0.78061 0.0496 0.92189 0.756 0.22372 1.1186 0.61754 1.2217 2.5027 0.65343l1.585-0.47783v-1.8497c0-1.7357-0.04459-1.8607-0.72054-2.0202-1.1503-0.27156-0.95865-1.2622 0.27859-1.4407 0.82933-0.11966 1.044-0.30283 1.2663-1.0806 0.2217-0.7754 0.40906-0.93666 1.0903-0.93666zm234.76 8.7221c-0.10346 0.01364-0.2067 0.06276-0.29758 0.15365-0.16256 0.16257-0.20864 0.43639-0.10216 0.60868 0.28247 0.45702 1.024 0.383 1.024-0.10215 0-0.2817-0.13951-0.49935-0.32459-0.60109-0.0926-0.05087-0.19624-0.07273-0.29972-0.0591zm0.64119 2.2283c0.14914 0 0.27142 0.12939 0.27142 0.28787s-0.20246 0.2883-0.44955 0.2883c-0.24707 0-0.36894-0.12982-0.27099-0.2883 0.098-0.15848 0.29999-0.28787 0.44912-0.28787zm35.917 1.2912 1.5964 0.19965-0.19585 2.0641c-0.19414 2.0452-1.174 7.938-1.4812 8.9074-0.21712 0.68506-0.85359 0.78631-7.7576 1.236-1.4264 0.09289-3.7605 0.25878-5.1869 0.36892-1.4264 0.11014-3.2978 0.09665-4.1586-0.02998-0.95515-0.14037-2.0779-0.10957-2.8813 0.07895-1.0971 0.25742-6.2292 0.61584-8.953 0.62556-0.39621 0.0022-3.1668-0.0065-6.1569-0.01772-2.9901-0.01124-5.5203 0.03097-5.6225 0.09412-0.10216 0.06313-2.7779 0.20488-5.9458 0.31448-3.168 0.1096-5.8579 0.25876-5.9779 0.33179-0.12005 0.07298-3.2973 0.10117-7.0602 0.06246-3.7629-0.03875-7.3604-0.05306-7.9944-0.03166-0.63395 0.0214-1.8316 0.122-2.6618 0.22373-1.4422 0.1767-1.5226 0.15092-1.8012-0.58167-0.16032-0.42172-0.29168-0.82463-0.29168-0.8953 0-0.07065-0.24769-0.67806-0.55041-1.3499-0.30274-0.67185-0.63347-1.8698-0.73533-2.6622-0.52941-4.1188-0.90006-7.797-0.7982-7.9247 0.0632-0.07923 7.593-0.163 16.732-0.18614 9.1395-0.02315 18.368-0.11798 20.507-0.21106 15.098-0.65679 14.212-0.63587 20.892-0.49598 2.3773 0.04982 6.6993-0.0022 9.6043-0.11482 2.905-0.11297 6.0005-0.11562 6.8787-0.0058zm-232.21 10.914c-0.28805-0.01794-0.62995 0-1.0215 0.05742-1.6941 0.24586-2.3955 0.58597-2.3955 1.1612 0 0.24024-0.4379 0.61966-0.97339 0.84339-1.2069 0.5043-1.3211 0.792-1.0257 2.593 0.12962 0.79046 0.2434 1.5992 0.25284 1.7973 0.0097 0.2043 0.39147 0.36049 0.88179 0.36049 0.71091 0 0.86448 0.11809 0.86448 0.66524 0 1.0353-0.61638 1.5924-1.8704 1.691-1.0784 0.08472-1.1595 0.03657-1.2997-0.77289-0.14657-0.84605-0.18346-0.86321-1.8754-0.86321h-1.7264l-0.08991 0.93667c-0.04966 0.5151-0.17948 0.94754-0.2883 0.96072-0.10882 0.01318-0.49424 0.05671-0.85646 0.09667-1.0507 0.11593-1.2698 0.55917-1.3609 2.7534-0.09225 2.2221 0.1611 2.6336 1.2592 2.046 0.72965-0.39051 1.0226 0.01037 1.0375 1.4191 0.0097 0.90857 0.09744 1.0173 0.88052 1.0941 1.0725 0.10521 3.0206-0.67322 3.0206-1.2068 0-0.5826 0.76526-1.1118 1.6074-1.1118 1.6767 0 1.5324 1.3581-0.20388 1.9193-0.88124 0.28482-0.97984 0.42954-1.0612 1.5601-0.10664 1.4821 0.29612 2.0675 1.4217 2.0675 0.79412 0 0.82945 0.05675 0.82945 1.3347v1.3343l0.96115-0.15617c0.52868-0.08578 1.1448-0.03972 1.3689 0.10214 0.58782 0.3721 0.877 0.3295 1.8666-0.27395 0.77075-0.47002 0.86787-0.66878 0.76318-1.5656-0.11989-1.027-0.11944-1.0273 1.1275-1.1173 1.4643-0.1057 2.0151-0.85486 1.718-2.3364-0.16087-0.8022-0.34522-0.95921-1.4018-1.195-1.288-0.2874-1.3949-0.44199-0.91851-1.3322 0.44934-0.83961 1.431-0.72789 1.431 0.16293 0 0.65614 0.1099 0.72011 1.2326 0.72011 1.3943 0 2.4245-0.59282 2.8151-1.6201 0.17237-0.4534 0.57378-0.75923 1.1464-0.87378l0.88095-0.17644-0.084-2.0506c-0.0768-1.8775-0.13878-2.0583-0.73236-2.1426-0.52848-0.07506-0.64836-0.27486-0.64836-1.0806v-0.98858h-2.168c-2.0244 0-2.186 0.04582-2.4318 0.69226-0.34139 0.89792-0.58668 1.0234-1.3997 0.71633-1.0012-0.37815-0.72695-1.4355 0.52468-2.0232 0.92678-0.43516 1.021-0.5976 1.1659-2.005 0.18039-1.7531-0.33236-2.5673-1.6175-2.5673-0.58996 0-0.70542-0.10851-0.56985-0.53566 0.20805-0.65552-0.17257-1.0366-1.0367-1.0903zm-1.328 1.3913c0.3901 0.05652 0.68824 0.36116 0.79357 0.81045 0.11888 0.5071 0.41159 0.76256 0.98985 0.86448 0.45145 0.07958 0.95249 0.35372 1.1135 0.60955 0.40259 0.63952 0.05147 1.4082-0.6433 1.4082-0.68604 0-1.2557 1.7365-1.1169 3.4047 0.07531 0.90531 0.19392 1.0668 0.80834 1.0962 0.39622 0.01902 1.2356 0.08377 1.8653 0.14396 1.0141 0.09693 1.189 0.01902 1.5289-0.68298 0.504-1.041 1.7927-1.1341 1.7927-0.12959 0 0.79472 0.50045 1.3546 1.2106 1.3546 0.36398 0 0.51835 0.21925 0.51835 0.73531 0 0.55783-0.20824 0.80794-0.86322 1.0363-0.61474 0.2143-0.93111 0.56282-1.0988 1.2098-0.31977 1.234-1.2849 1.2627-1.496 0.04433-0.11562-0.66753-0.29681-0.86001-0.79526-0.84423-3.2078 0.10229-3.4588 0.29146-3.4866 2.6188-0.02325 1.9466 0.27367 2.4035 1.5627 2.4035 0.52595 0 1.0312 0.12092 1.1224 0.26846 0.2488 0.40257-0.45908 0.73008-1.371 0.63442-1.1606-0.12174-1.6424 0.41471-1.6424 1.8286 0 1.1808-0.02898 1.2192-0.90036 1.1895-0.95962-0.03272-1.0448-0.13745-1.1764-1.4474-0.06759-0.67308-0.28568-0.90805-1.0933-1.1785-1.2697-0.42522-1.2704-0.73172-0.0046-1.3634 1.1688-0.58327 1.3548-0.97447 1.206-2.5356-0.1245-1.3057-0.56934-1.5321-3.0637-1.5589-1.3894-0.01491-1.4501 0.01967-2.111 1.2093-0.86432 1.5558-1.3797 1.5678-1.585 0.03715-0.20792-1.5502-0.55456-1.8895-1.4934-1.4618-0.69845 0.31824-0.72856 0.29315-0.72856-0.61545 0-1.1704 0.49729-1.8527 1.439-1.9738 0.54379-0.06996 0.75475-0.30268 0.86659-0.95692 0.10432-0.61024 0.33249-0.89068 0.77584-0.95398 0.53881-0.07692 0.6408 0.06637 0.71843 1.0084 0.10102 1.2261-0.17334 1.1663 3.4043 0.74335l1.8729-0.22161 0.16082-2.0168c0.19984-2.5077 0.12351-2.7378-0.91176-2.7378-0.76063 0-0.83367-0.08818-0.83367-1.0084 0-0.8248 0.10761-1.0084 0.59096-1.0084 0.4051 0 0.72609-0.32299 1.0202-1.027 0.33111-0.79247 0.57182-1.0065 1.054-0.93667zm232.99 1.6095-0.38835 1.6897c-0.79441 3.4577-2.049 6.7109-4.2633 11.053-2.2144 4.3418-2.9344 5.3544-6.7394 9.4831-0.6719 0.72904-1.2228 1.4071-1.2245 1.5069-2e-3 0.09983-0.71169 0.71663-1.5779 1.3706-0.86616 0.65387-1.8713 1.4909-2.2334 1.8598-1.2636 1.2872-3.2647 2.7104-4.9809 3.5428-0.95091 0.4612-2.9607 1.5026-4.4664 2.314-1.5056 0.81147-3.3729 1.8134-4.1493 2.2266-0.8583 0.45686-1.8182 0.7355-2.4491 0.71082-1.9907-0.07783-3.9247-0.4162-4.6398-0.81214-0.39621-0.21936-1.5633-0.57432-2.5934-0.7885-1.0302-0.21418-2.5862-0.67728-3.4579-1.0295-2.9798-1.2042-9.7905-5.6195-11.671-7.5659-0.63395-0.65634-1.3473-1.2848-1.585-1.3968-1.1664-0.54929-1.9216-1.154-4.8429-3.8754-1.7377-1.6189-3.32-3.3301-3.5157-3.8028-0.19581-0.47268-0.44391-0.85942-0.55128-0.85942-0.43514 0-4.0774-7.741-4.9467-10.513-0.84408-2.6917-0.86921-2.6486 1.5377-2.653 8.8224-0.01556 22.271-0.39418 23.665-0.6661 1.1276-0.21986 4.0614-0.28247 8.7888-0.18699 3.9029 0.07884 9.1063 0.01124 11.563-0.15027 2.4566-0.16157 4.6608-0.29708 4.8986-0.30097 0.23774-0.0039 1.4695-0.11416 2.7374-0.24525 1.2679-0.13099 4.0562-0.3089 6.1957-0.39509 2.1396-0.08621 5.465-0.23769 7.3899-0.33641zm-21.46 5.043c-0.88583 0.15552-1.8167 0.79984-2.9742 1.9864-0.92094 0.9441-2.5616 2.3972-3.6458 3.2291-1.8942 1.4535-2.8596 2.8413-1.6412 2.3592 0.29343-0.11612 0.92215-0.26233 1.3976-0.32502 0.47547-0.06267 1.5772-0.36516 2.4478-0.67242l1.5829-0.55889 0.48924 2.2743c0.74265 3.4522 1.841 5.0571 4.3085 6.2945 0.78233 0.39234 1.1033 1.3826 1.1102 3.4254 3e-3 0.95484-0.0789 1.0275-1.5099 1.341-0.43583 0.0955-0.7923 0.36594-0.7923 0.60066 0 0.23471 0.1217 0.42675 0.27015 0.42675 0.48902 0 4.9835-1.1233 5.1464-1.2862 0.0877-0.0877 0.1345-1.1309 0.10385-2.3182l-0.0557-2.1591h1.1975c1.0062 0 1.4103-0.19462 2.5268-1.2174 1.2345-1.1309 3.7683-4.4204 3.7753-4.9015 2e-3 -0.11649 0.41128-0.87524 0.91009-1.6859 0.73744-1.1985 0.83139-1.5212 0.50399-1.7285-0.51806-0.32803-0.62273-0.32189-2.8518 0.16842-1.0302 0.22658-2.1706 0.41649-2.5344 0.4221-0.60095 0.0093-0.64426-0.08234-0.47234-0.99871 0.13102-0.69833 0.0824-1.0084-0.15744-1.0084-0.19055 0-0.87663 0.4537-1.5247 1.0084-1.3601 1.1642-1.4111 1.1747-2.4533 0.50823-1.1109-0.71048-1.4833-1.2546-1.4938-2.184-0.0127-1.1379-0.41938-1.7763-1.5926-2.5014-0.41154-0.25435-0.80395-0.42042-1.1933-0.49345-0.29202-0.05479-0.58229-0.05734-0.87758-0.0054zm-27.365 1.5057c-0.8084 0.07406-1.6186 0.32567-2.4728 0.75854-1.1646 0.59022-1.789 1.5425-2.1008 3.2047-0.13799 0.73561-0.38813 1.1171-0.81678 1.2448-0.94017 0.28011-4.7969 2.7202-4.7969 3.035 0 0.15219 0.17458 0.3438 0.3875 0.4255 0.39969 0.15338 4.0346-0.76224 4.9839-1.2554 1.0073-0.52329 3.2496-0.70719 3.6411-0.29844 0.19926 0.20802 1.0032 1.6534 1.7868 3.2118 1.4396 2.8632 1.9904 3.4212 3.8733 3.9248 0.64756 0.1732 0.70935 0.34921 0.81763 2.3338 0.0644 1.1805 0.30146 2.4336 0.52679 2.7851 0.63952 0.99768 1.2705 0.55113 1.0358-0.73319-0.31944-1.7486-0.23181-3.8757 0.16506-4.0101 0.26971-0.09133 0.36005 0.50157 0.36005 2.3604 0 2.0102 0.0878 2.5159 0.46138 2.6593 0.71542 0.27454 0.94397-0.41318 0.94933-2.8564 3e-3 -1.2385 0.083-2.3781 0.17853-2.5327 0.0955-0.15455 0.49537-0.28113 0.88856-0.28113 1.0163 0 2.9223-1.039 3.135-1.7091 0.0989-0.31154 0.43279-0.64657 0.74166-0.7446 0.30886-0.09803 0.5614-0.28489 0.5614-0.41493 0-0.13002 0.47974-0.93146 1.0662-1.7813 0.95238-1.38 2.3917-4.0431 2.3917-4.4254 0-0.35919-1.2892-0.08686-2.531 0.53481-1.6302 0.81614-4.2589 1.2237-4.831 0.74884-0.32682-0.27121-0.27426-0.5161 0.3094-1.4407 0.40959-0.64884 0.58497-1.1866 0.42042-1.2883-0.30551-0.18882-2.0126 0.71095-2.0126 1.0608 0 0.11712-0.42745 0.29323-0.95018 0.39131-1.3197 0.24757-3.3722-1.065-3.3722-2.1566 0-1.1663-0.71506-1.9148-2.3355-2.4449-0.84685-0.277-1.6534-0.38054-2.4617-0.30646zm26.998 0.74713c0.0208-0.0032 0.13333 0.07702 0.34782 0.23933 0.27735 0.20987 0.504 0.74114 0.504 1.1802 0 0.97866-0.64949 1.2864-1.2693 0.60151-0.63399-0.70055-0.57764-0.89446 0.26086-0.89446 0.79744 0 0.90366-0.25528 0.36006-0.86489-0.15321-0.17182-0.22414-0.2585-0.20346-0.26172zm-27.566 1.9312c0.50962 0.0247 0.8293 0.46807 0.70367 1.127-0.11878 0.62308-1.1115 0.82476-1.6091 0.32714-0.54253-0.54253-0.43004-0.98002 0.3419-1.3318 0.20259-0.0923 0.39367-0.13064 0.56351-0.12241zm28.977 1.2127c0.32634 0 0.59348 0.1298 0.59348 0.2883 0 0.15848-0.18696 0.28787-0.41536 0.28787-0.22837 0-0.49511-0.12939-0.59305-0.28787-0.098-0.1585 0.0886-0.2883 0.41493-0.2883zm12.777 0.39721c0.0303-0.0303 0.0701 0.0099 0.11608 0.12494 0.0832 0.20802 0.0734 0.45681-0.0224 0.55256-0.0958 0.09565-0.16406-0.07454-0.15154-0.37821 7e-3 -0.16784 0.0275-0.26898 0.0578-0.29928zm-15.556 1.1515c0.0523-0.02304 0.1242-0.01275 0.20345 0.03631 0.15848 0.09795 0.28787 0.23529 0.28787 0.30518 0 0.06989-0.12939 0.12706-0.28787 0.12706s-0.2883-0.13732-0.2883-0.30518c0-0.08392 0.0326-0.14033 0.0849-0.16337zm13.195 1.2174c0.16727 0.03784 0.25199 0.19023 0.10765 0.42381-0.0912 0.14755-0.36851 0.26803-0.61629 0.26803-0.36631 0-0.38409-0.08001-0.0946-0.42887 0.18604-0.22414 0.43594-0.30082 0.6032-0.26298zm-25.221 0.11567c0.0699 0 0.12706 0.12939 0.12706 0.28787s-0.13734 0.2883-0.30518 0.2883-0.225-0.12982-0.12706-0.2883c0.098-0.15848 0.23529-0.28787 0.30518-0.28787zm14.288 3.7783c0.0696 0.02161 0.13051 0.08457 0.16589 0.18362 0.0708 0.19812 0.29634 0.36049 0.50146 0.36049s0.53464 0.19451 0.73194 0.43224c0.29196 0.35178 0.27771 0.43224-0.0768 0.43224-0.63176 0-1.8443-1.0578-1.5407-1.344 0.0703-0.06624 0.14862-0.08612 0.21824-0.06458zm-17.458 1.1203c0.0699 0 0.12706 0.1298 0.12706 0.2883 0 0.15848-0.13735 0.28787-0.30519 0.28787s-0.225-0.12939-0.12706-0.28787c0.098-0.1585 0.23532-0.2883 0.30519-0.2883zm-1.7226 0.07134c0.0492 0.04917 0 0.21813-0.111 0.37525-0.26771 0.38152-1.7857 1.0387-1.7834 0.77205 2e-3 -0.23127 1.7511-1.2906 1.8944-1.1473zm22.959 1.3693c0.43047 0 0.78194 1.3169 0.78849 2.9539 5e-3 1.2551-0.50092 0.92048-0.65342-0.43224-0.0759-0.67358-0.23377-1.5167-0.35076-1.8733-0.15647-0.47691-0.0992-0.64836 0.21569-0.64836zm-3.4562 3.2583c-0.44331 0.0528-0.75485 0.37493-0.54621 0.71253 0.19747 0.31953 1.6243 0.10964 1.6243-0.23892 0-0.12933-0.27238-0.3215-0.60531-0.42718-0.16272-0.05163-0.32498-0.06401-0.47276-0.04642zm-24.064 1.8168c-1.47 0.25398-1.6568 0.35072-1.6568 0.85562 0 0.39085 0.18803 0.43786 1.0798 0.27058 0.99221-0.18614 1.4978-0.54758 1.509-1.0789 2e-3 -0.11491-0.41694-0.13628-0.93202-0.04729zm-188.84 11.35c-0.41828 0-1.0847 1.0339-0.88601 1.3748 0.10322 0.17713 0.52318 4.2685 0.56394 5.4946 7e-3 0.21208 0.30281 0.49587 0.65722 0.63062 0.35441 0.13475 0.72764 0.37981 0.82945 0.54454 0.20711 0.33512 2.1152-0.5703 2.5086-1.1904 0.4353-0.68605 0.2483-2.1603-0.37441-2.9518-0.49938-0.63485-0.8023-0.76413-1.577-0.67369l-0.95904 0.11184-0.1891-1.6703c-0.12523-1.1069-0.31858-1.6703-0.57365-1.6703zm226.28 0.11355c-0.19693 0.02516-0.33981 0.31871-0.33981 0.8687 0 0.44754-0.21651 0.90676-0.50399 1.0684-0.69948 0.39323-0.62997 0.73699 0.19079 0.943 0.6682 0.16771 0.69338 0.26505 0.64836 2.5018-0.0403 2.0028 0.0311 2.3845 0.51244 2.7382 0.66578 0.48936 1.154 0.51737 1.9172 0.1089 0.65054-0.34817 0.47512-0.85013-0.29717-0.85013-1.1673 0-1.5303-3.8002-0.42675-4.4668 0.2624-0.15848 0.75336-0.51052 1.0912-0.78259 0.6046-0.48701 0.59578-0.49492-0.57533-0.50442-1.0496-0.0084-1.2326-0.11247-1.5525-0.88473-0.21635-0.52234-0.46746-0.76554-0.66439-0.74039zm-217.32 0.02161c-0.30336-0.0041-0.45194 0.22587-0.30392 0.69226 0.12418 0.39124 0.0026 0.58651-0.4373 0.70155-0.76668 0.2005-0.64612 1.1595 0.1642 1.3056 0.94584 0.17054 1.0946 0.51277 1.0384 2.3871-0.0359 1.1963 0.0697 1.87 0.317 2.027 0.43247 0.27439 1.7809 0.32166 2.0312 0.0713 0.26825-0.26814-0.09598-0.98012-0.50147-0.98012-0.33235 0-0.71614-1.4174-0.72392-2.6728-0.0017-0.28215 0.31972-0.63401 0.71716-0.78512 0.79235-0.30125 0.98876-1.1528 0.26593-1.1528-0.24992 0-0.8508-0.39617-1.3351-0.88052-0.47079-0.47078-0.92878-0.70922-1.2321-0.71337zm207.45 1.9924c-1.1133-0.18999-2.1323 0.90658-2.3503 2.8404-0.16531 1.4667 0.23929 2.4416 1.1638 2.8037 0.68436 0.26804 1.8577 0.097 2.4305-0.35415 0.6264-0.49336 0.39492-0.71082-0.75642-0.71082-0.61413 0-1.2623-0.0903-1.4407-0.20052-0.5681-0.35111-0.34943-0.74248 0.41493-0.74248 0.40663 0 1.0227-0.14915 1.3689-0.33136 1.2974-0.68289 1.3924-1.5649 0.28788-2.6694-0.36587-0.36587-0.74748-0.57194-1.1186-0.63526zm-43.344 0.07512c-0.42334 0.02585-0.73566 0.08392-0.832 0.18024-0.52237 0.52238-0.37783 1.0276 0.32249 1.127 0.59591 0.08463 0.64119 0.2204 0.5572 1.677-0.0665 1.1527-0.24923 1.7201-0.67032 2.081-0.31841 0.27294-0.49662 0.62982-0.39593 0.79273 0.23964 0.38779 2.3659 0.38394 2.6061-5e-3 0.10223-0.16542 0.0255-0.49405-0.17054-0.73025-0.28316-0.34121-0.28268-0.56719 3e-3 -1.1 0.28686-0.53581 0.28671-0.78724-2e-3 -1.249-0.19855-0.31791-0.27994-0.78938-0.18065-1.0481 0.27015-0.70401 1.4512-0.58775 1.7872 0.17603 0.15645 0.35567 0.51114 0.68947 0.78849 0.74164 0.40119 0.0755 0.50443-0.10843 0.50443-0.89951 0-0.54691-0.16194-1.1226-0.36006-1.279-0.27968-0.22079-1.3809-0.38828-2.4601-0.45251-0.53959-0.03211-1.0739-0.03851-1.4972-0.01275zm46.987 0.11186c-0.3108-0.03047-0.59857 0.05796-0.59857 0.29083 0 0.1649 0.2657 0.65867 0.59012 1.0975 0.51884 0.70176 0.55396 0.95884 0.29084 2.1329-0.35146 1.5682-0.17035 2.233 0.60911 2.233 0.43808 0 0.55037-0.1767 0.50231-0.7923-0.16864-2.1593 0.0192-3.1733 0.61713-3.3296 0.74352-0.19444 1.1595 0.76208 1.0932 2.5141-0.0255 0.67583 0.0503 1.3861 0.16886 1.5778 0.11852 0.19177 0.366 0.29654 0.54959 0.233 0.53968-0.18675 0.36181-3.7871-0.23174-4.693-0.43845-0.66915-0.63187-0.74047-1.5935-0.58672-0.82257 0.13155-1.1353 0.06797-1.2596-0.2558-0.0928-0.24197-0.42706-0.39122-0.73784-0.42169zm-15.175 0.13508c-1.4589 0-2.1019 0.48357-1.9185 1.4428 0.0756 0.3952 0.24888 0.71843 0.38497 0.71843 0.1361 0 0.11796 0.34022-0.0401 0.75599-0.34376 0.90419-0.0529 2.7712 0.40819 2.62 0.17918-0.0587 0.36747-0.45908 0.4183-0.88981 0.0776-0.65726 0.1931-0.75195 0.72014-0.59012 0.34536 0.10605 0.63794 0.20891 0.64961 0.22879 0.0117 0.0199 0.3121 0.45787 0.66779 0.97297 1.1649 1.687 1.9626 0.75621 0.92863-1.0836-0.48158-0.85687-0.58063-1.3712-0.4373-2.2676 0.23261-1.4547-0.19077-1.9079-1.7817-1.9079zm-5.9159 0.01189c-0.18247-0.04748-0.34918 0.0279-0.60531 0.19797-0.48095 0.31934-2.2431 4.3864-2.2431 5.1772 0 0.1277 0.24942 0.23216 0.55381 0.23216 0.38095 0 0.6127-0.27028 0.74375-0.86702 0.10474-0.47678 0.43069-0.99521 0.72435-1.1524 1.0607-0.56769 1.6136-0.32464 2.3005 1.011 0.72054 1.4009 1.2806 1.6534 1.5323 0.69098 0.18969-0.72545-1.2535-3.7001-2.3056-4.7521-0.31995-0.31994-0.51822-0.49029-0.70071-0.53777zm-224.19 0.25496c-0.22166 0.04837-0.47822 0.24826-0.94764 0.63864-1.6297 1.3552-2.0165 3.6616-0.78217 4.6622 0.60169 0.48774 2.3631 0.23084 2.834-0.41324 0.45534-0.62271 0.77194-2.767 0.52384-3.5487-0.10691-0.33684-0.50732-0.81732-0.88981-1.0679-0.32965-0.21601-0.51661-0.31938-0.73827-0.27099zm236.14 0.03376c-0.70442-0.17769-0.94341-0.0582-1.7522 0.87546-0.66085 0.76293-0.93666 1.3696-0.93666 2.0607 0 1.0082 0.42178 2.0681 0.97972 2.4622 0.17438 0.12316 0.68996 0.15571 1.1456 0.0722 0.45564-0.0836 1.1364-0.15195 1.5128-0.15195 0.60721 0 0.68424-0.13093 0.68424-1.1616 0-1.3151-0.46038-1.6683-1.4702-1.1279-0.59545 0.31867-0.60933 0.37845-0.1663 0.70239 0.45809 0.33496 0.67289 1.011 0.32122 1.011-0.86757 0-1.8543-1.5597-1.8543-2.9311 0-0.75417 1.2761-1.3107 1.8716-0.81637 0.24625 0.20428 0.5255 0.29382 0.62051 0.19883 0.35078-0.3508-0.16452-0.99409-0.9561-1.1937zm-222.97 0.1317c-1.6672 0-2.6283 2.2261-1.9058 4.4153 0.2601 0.78811 0.51757 1.0476 1.1144 1.1232 0.8677 0.10992 1.4672-0.0188 1.9974-0.42885 0.52379-0.40503 0.21665-0.69627-0.9679-0.91851-1.1076-0.2078-1.0552-0.49491 0.20599-1.1266 1.4132-0.70782 1.0718-3.0645-0.44406-3.0645zm29.949 0c-0.31803 0-0.37837 0.43812-0.28788 2.089 0.06298 1.149 0.12203 2.1311 0.13128 2.1823 0.0092 0.0512 0.24353 0.0502 0.52088-3e-3 0.34818-0.0662 0.54888-0.45215 0.64836-1.2461 0.11399-0.90972 0.26458-1.1498 0.72054-1.1498 0.47201 0 0.59225 0.22191 0.66482 1.225 0.07246 1.0015 0.1935 1.2245 0.66314 1.2245 0.5104 0 0.5605-0.15243 0.45039-1.3689-0.1898-2.097-0.38408-2.3773-1.6479-2.3773-0.60764 0-1.1853-0.12939-1.2832-0.28787-0.09795-0.1585-0.35904-0.2883-0.5804-0.2883zm13.374 0.04854c-0.53866 0.07789-0.71898 0.36449-0.96663 1.5365-0.35516 1.6807-1.1102 2.0028-1.2528 0.53438-0.11086-1.1412-1.0601-2.0955-1.5736-1.5821-0.27587 0.27588-0.26397 0.40471 0.05445 0.60151 0.25119 0.15524 0.41438 0.78032 0.42971 1.645 0.02305 1.301 0.07792 1.4005 0.81974 1.4858 0.52627 0.0605 0.93638 0.36472 1.2131 0.89992 0.47545 0.91942 0.34376 1.1701-0.61544 1.1701-0.73905 0-0.75535 0.0242-0.48669 0.72433 0.14105 0.36758 0.40019 0.44169 1.0806 0.30815 1.3583-0.26665 1.6463-0.87812 1.5732-3.3364-0.03537-1.1896 0.03733-2.5946 0.16125-3.1228 0.20872-0.88955 0.17655-0.9532-0.43688-0.86448zm-16.764 0.0067c-0.33498 0.0134-0.69204 0.15708-1.0494 0.44912-1.2055 0.98523-1.0449 3.8616 0.23469 4.2038 0.80038 0.21413 1.1242 0.19822 1.8843-0.0907 0.65435-0.2488 0.73912-0.44229 0.73912-1.6897 0-1.7849-0.80381-2.913-1.8087-2.8725zm-49.188 0.05064c-1.676 0.32874-2.9092 3.0927-1.7205 4.604 0.81595 1.0373 2.7551 1.1099 3.1262 0.11692 0.21492-0.5752 0.1423-0.65906-0.64245-0.74291-1.4555-0.15554-2.0561-1.4055-1.2089-2.5158 0.35138-0.46056 0.4736-0.48861 0.69142-0.15747 0.36209 0.55048 1.1874 0.18111 1.1874-0.53141 0-0.37222-0.24833-0.64259-0.69353-0.75433-0.25175-0.06317-0.5001-0.06596-0.73954-0.01902zm4.3372 0.02913c-1.4532-0.10838-1.7518 0.32779-1.7518 2.5601 0 2.0087 0.17769 2.4669 0.88348 2.2823 0.39341-0.10287 0.55761-0.39779 0.55761-1.0008 0-1.2821 0.64838-0.84985 1.0945 0.72982 0.34653 1.2269 0.4326 1.3189 0.96706 1.0329 0.47294-0.25309 0.55226-0.49604 0.41029-1.2528-0.09687-0.51634-0.23984-1.5697-0.31785-2.3406-0.17311-1.7108-0.34597-1.8993-1.8434-2.0109zm9.5013 0.15744c-1.1073 0.0067-1.4837 0.37525-1.65 1.615-0.14478 1.0795-0.10819 1.1409 0.88643 1.5006 1.2556 0.45403 1.402 1.0593 0.19797 0.81847-0.55851-0.11169-0.95794-0.0249-1.1937 0.25919-0.40986 0.49386-0.35389 0.58297 0.58504 0.93032 1.0485 0.38787 2.2562-0.18126 2.4723-1.165 0.21018-0.95694-0.13259-1.4572-1.341-1.9578-0.81392-0.33715-0.84075-0.3933-0.38834-0.82312 0.36345-0.34532 0.51973-0.37082 0.61966-0.10129 0.1789 0.48253 0.85031 0.4585 1.0405-0.0372 0.2141-0.55793-0.36105-1.0444-1.2288-1.0392zm-34.168 0.04813c-0.16601-0.05559-0.51379 3e-3 -1.1937 0.12535-0.76647 0.13786-2.3338 0.21489-3.4828 0.17097-1.7338-0.066349-2.089-0.003847-2.089 0.36883 0 0.49952 1.1028 1.0114 2.1798 1.0114 0.46306 0 0.71353 0.17119 0.73616 0.50399 0.018863 0.27735 0.06797 1.3299 0.10933 2.3389 0.048104 1.1738 0.21766 1.9227 0.47023 2.0789 0.49886 0.30843 0.89158-0.1333 1.3626-1.5314 0.22178-0.65837 0.26456-1.2514 0.10975-1.528-0.13914-0.24862-0.19813-0.82698-0.13085-1.2853 0.10154-0.6918 0.27646-0.8484 1.0287-0.92147 0.7031-0.0683 0.92778-0.24152 1.0029-0.77287 0.047257-0.33412 0.063014-0.50373-0.10299-0.5593zm235.13 0.08738c-0.28904-0.0022-0.56226 0.04841-0.8189 0.14943-0.51329 0.20201-0.95955 0.60879-1.3301 1.2165-0.73516 1.2058-0.73957 1.171 0.317 2.3744 0.81906 0.93284 1.0271 1.0186 2.4706 1.0186 1.3454 0 1.562-0.074 1.4803-0.50442-0.0698-0.36786-0.42628-0.52803-1.3178-0.59265-1.5332-0.11117-1.5603-0.43946-0.0726-0.88517 0.82554-0.24732 1.1993-0.54021 1.3242-1.038 0.22814-0.90898 0.0214-1.1951-1.1397-1.5783-0.31916-0.10534-0.624-0.15874-0.91302-0.1604zm-155.27 0.07175c-0.14819 0.09159-0.69067 0.15072-1.2055 0.13127-1.1587-0.04357-1.9528 0.71508-1.1933 1.1401 0.31065 0.17387 0.49091 0.63064 0.49091 1.2452 0 0.53388 0.07564 1.1675 0.168 1.4082 0.33666 0.87721 1.1442 0.12139 0.99702-0.9333-0.10804-0.77436 0.2919-1.7623 0.71337-1.7623 0.32034 0 0.42675 0.36162 0.42675 1.45 0 1.041 0.12565 1.498 0.4449 1.6205 0.67899 0.26055 0.81092-0.0505 0.77753-1.832-0.02531-1.3502-0.14704-1.7268-0.69057-2.1367-0.36286-0.27372-0.78087-0.42252-0.92906-0.33092zm-31.874 0.06501c-0.63347 0.03745-1.3842 0.25256-1.8531 0.62134-0.85151 0.6698-0.96235 2.1039-0.16673 2.1557 0.23773 0.0156 0.724 0.048 1.0806 0.0722 0.38636 0.0262 0.64836 0.23158 0.64836 0.50864 0 0.38582-0.21475 0.433-1.2613 0.27605-1.0356-0.1553-1.2948-0.10097-1.4504 0.30434-0.10688 0.27856-0.02855 0.59568 0.18024 0.72816 0.64902 0.41181 2.6037 0.26764 3.157-0.23302 0.30802-0.27876 0.52679-0.87261 0.52679-1.4292 0-0.8601-0.11062-0.98571-1.1431-1.295-1.3929-0.41731-1.2451-0.83325 0.2959-0.83325 0.81735 0 1.1355-0.12116 1.1355-0.43224 0-0.34106-0.51635-0.48109-1.1498-0.44363zm211.91 0.01145c0.50631 0 0.72353 0.19209 0.82649 0.73068 0.0932 0.48776-0.0154 0.81002-0.32671 0.96958-0.73684 0.37772-1.1866 0.0521-1.1866-0.85942 0-0.69345 0.12012-0.84084 0.68679-0.84084zm-221.8 0.0067c-0.50071-0.01837-1.0384 0.09071-1.287 0.33937-0.72525 0.72524-0.17964 2.6703 0.7045 2.5116 0.57238-0.10274 0.916 0.0526 1.0836 0.48921 0.15096 0.39339 0.02199 0.43564-0.83747 0.27439-0.79518-0.14917-1.0552-0.0874-1.198 0.2845-0.10272 0.26767-0.0067 0.58975 0.21992 0.73784 0.2212 0.14456 0.66148 0.19818 0.97845 0.11904 0.31698-0.0791 0.80577-0.14599 1.0865-0.14816 0.72476-6e-3 1.1778-1.1356 0.82607-2.0608-0.19069-0.50155-0.5715-0.80142-1.1697-0.92104-1.133-0.2266-1.1554-0.76824-0.03166-0.76824 0.64199 0 0.81421-0.10785 0.68973-0.43224-0.10034-0.26149-0.56427-0.40709-1.065-0.42548zm23.51 0.01642c-0.27263-0.04154-0.51322-0.03713-0.72983 0.0147-0.43323 0.10382-0.77053 0.3984-1.0755 0.89867-0.31405 0.51511-0.57131 1.1995-0.57196 1.5209-0.0015 0.83729 0.76073 1.8082 1.5141 1.9286 2.5407 0.40603 4.1168-3.2164 1.7851-4.1029-0.34458-0.13101-0.64926-0.2185-0.92189-0.26004zm209.57 0.09836c0.43935-0.02222 0.8628 0.12269 0.8628 0.45503 0 0.27943-0.33994 0.46468-0.96157 0.52427-0.79953 0.0766-0.94466 4e-3 -0.86067-0.43224 0.0646-0.33561 0.52009-0.52485 0.95944-0.54706zm-269.42 0.16674c-0.22536 0-0.48851 0.12732-0.58462 0.28281-0.20821 0.33691 0.36097 3.6618 0.75178 4.3921 0.15066 0.28152 0.3786 0.51201 0.50695 0.51201 0.35596 0 1.0951-0.93012 1.3166-1.6568 0.10867-0.3566 0.31862-0.64836 0.46643-0.64836 0.14781 0 0.27314 0.29176 0.27817 0.64836 0.01262 0.89236 0.70448 1.728 1.3309 1.6074 0.36869-0.071 0.66462-0.64266 1.0198-1.9704 0.65309-2.4413 0.64851-2.8788-0.02955-2.8788-0.42432 0-0.59741 0.28139-0.75346 1.2245-0.11146 0.67359-0.26874 1.3357-0.34951 1.4715-0.23003 0.3867-0.64179-0.45221-0.64667-1.3174-0.0027-0.48547-0.22445-0.89968-0.58378-1.092-0.48666-0.26034-0.61878-0.20471-0.82945 0.34994-0.13786 0.36298-0.29878 0.89364-0.35753 1.1794-0.15161 0.73738-0.668 0.6376-0.76402-0.14774-0.17589-1.4386-0.38008-1.9565-0.77204-1.9565zm237.28 0.05276c-0.2686 0.08222-0.4923 0.29295-0.72517 0.64837-0.58722 0.89619-0.19903 1.7113 1.0164 2.135 0.67445 0.23509 0.87039 0.47656 0.87039 1.0705 0 0.67384-0.0873 0.74438-0.72055 0.58545-0.69703-0.17486-1.016 0.3031-0.52805 0.79104 0.51694 0.51694 1.4737 0.14041 1.9658-0.77331 0.7194-1.3359 0.41748-2.4532-0.72476-2.6817-0.47125-0.0942-0.8569-0.33721-0.8569-0.5403 0-0.2274 0.22129-0.31144 0.57618-0.21865 0.70248 0.18371 0.8122-0.62909 0.12073-0.89445-0.41191-0.15807-0.72548-0.20419-0.99407-0.122zm4.5571 0.12157c-0.66433 0.0702-1.3782 0.61402-1.3782 1.2089 0 0.77031 0.82878 1.7864 1.4571 1.7864 0.86196 0 0.6631 0.75189-0.30477 1.1528-0.47547 0.19695-0.86448 0.53708-0.86448 0.75558 0 0.51272 2.1203 0.54361 2.5166 0.0367 0.1549-0.19812 0.42699-0.79239 0.60488-1.3208 0.31906-0.9478 0.30797-0.96705-0.81678-1.4406-1.0839-0.45642-1.831-1.2753-1.0751-1.1781 1.1793 0.15162 1.4601-0.37305 0.48035-0.8974-0.18216-0.0974-0.3982-0.1268-0.61966-0.10342zm-232.54 0.0498c-0.86942-0.15536-2.0043 0.7991-2.474 2.081-0.32598 0.8897 0.21208 2.3255 0.9852 2.6293 1.7473 0.68666 2.9314-0.13375 3.1713-2.1971 0.18767-1.6143-0.24178-2.2558-1.6825-2.5132zm31.486 0.0642c0.5096 0 0.9445 0.67091 0.63528 0.98013-0.32198 0.32198-1.1668 0.174-1.3225-0.23172-0.19173-0.49963 0.03699-0.74841 0.6872-0.74841zm26.751 0c0.38437 0 1.1815 1.6863 1.0093 2.135-0.22968 0.59852-0.49247 0.57805-1.092-0.0844-0.46972-0.51904-0.40787-2.0506 0.08273-2.0506zm184.47 0c0.14914 0 0.27099 0.19451 0.27099 0.43224 0 0.4456-0.33987 0.57231-0.6644 0.24779-0.23021-0.23021 0.03-0.68004 0.39341-0.68003zm-224.14 0.1756c0.13906 0.0177 0.25192 0.15092 0.43477 0.41197 0.21949 0.31338 0.35855 0.99024 0.30898 1.504-0.12141 1.2585-1.2412 1.4984-1.6745 0.35881-0.42485-1.1174-0.35908-1.5039 0.33895-1.9928 0.28753-0.2014 0.45274-0.2996 0.5918-0.28197zm26.714 0.0241c0.98871 0.25854 1.5502 1.1089 1.184 1.7931-0.43358 0.81015-1.0019 0.75644-1.4073-0.13339-0.52435-1.1508-0.43276-1.8313 0.2233-1.6597zm-31.295 0.13929c0.28434-0.0552 0.48036 0.0917 0.48036 0.36007 0 0.26732-0.24628 0.45334-0.60024 0.45334-0.70226 0-0.60305-0.67322 0.11988-0.81341zm210.08 6e-3c0.65348 0.0478 1.1882 0.21636 1.1882 0.37484s-0.61439 0.32786-1.3655 0.3761c-1.1556 0.0742-1.3385 0.0162-1.1882-0.37525 0.13164-0.34303 0.48467-0.44005 1.3655-0.37569zm-173.63 0.43015c0.40104 0.0904 0.7905 0.46796 0.85646 1.0122 0.07492 0.6183-0.03085 0.72035-0.76909 0.74121-0.96954 0.0275-1.3444-0.55102-0.89741-1.3862 0.1022-0.19096 0.25039-0.30661 0.41662-0.35753 0.12467-0.0382 0.25973-0.0399 0.39341-0.01zm-51.052 0.43224c0.71488-0.10184 1.1137 0.73868 0.84971 1.7906-0.08994 0.35835-0.36314 0.65175-0.607 0.65175-1.1697 0-1.3961-2.278-0.24271-2.4423zm243.36 3.3891c-0.23425 0.0289-0.35515 0.3263-0.24482 0.87799 0.0975 0.48766 0.0504 0.86449-0.10806 0.86449-0.15453 0-0.28113 0.1945-0.28113 0.43224 0 0.23773 0.18519 0.43224 0.41156 0.43224 0.32256 0 0.40695 0.47367 0.38919 2.1895-0.0164 1.5828 0.089 2.2606 0.38073 2.4453 0.56082 0.35506 1.9881 0.32863 1.9881-0.0367 0-0.1654-0.33278-0.65167-0.73995-1.0806-0.64093-0.67519-0.71804-0.9537-0.57449-2.0764 0.0912-0.7132 0.34812-1.4265 0.57112-1.585 0.22299-0.15848 0.64345-0.44268 0.93454-0.63148 0.46992-0.30477 0.42509-0.34493-0.40058-0.36006-0.66247-0.0121-1.0655-0.22418-1.4018-0.73742-0.3427-0.52306-0.69016-0.76291-0.92441-0.73406zm26.977 0.0663c-0.40425-0.0121-0.54953 0.62752-0.3263 1.7201 0.1408 0.68912 0.16546 1.9555 0.0549 2.8142-0.11059 0.85874-0.086 1.8638 0.0545 2.2334 0.27155 0.71426 0.71825 0.83591 1.4225 0.38792 0.37627-0.23936 0.37931-0.35997 0.0232-0.93202-0.2859-0.45932-0.39018-1.4023-0.34655-3.1321 0.0496-1.9644-0.0324-2.553-0.39593-2.8547-0.18833-0.1563-0.35154-0.23276-0.48627-0.23682zm-209.58 0.0916c-0.37828 0-0.60776 0.2228-0.6682 0.64836-0.07554 0.53185 0.04437 0.64836 0.6682 0.64836 0.62382 0 0.74416-0.11651 0.66862-0.64836-0.06044-0.42556-0.29036-0.64836-0.66862-0.64836zm-10.384 0.28703c-0.14331-0.0272-0.29355 0.0533-0.53017 0.22667-0.45609 0.33416-0.48696 0.49694-0.19628 1.0401 0.2653 0.49571 0.26641 0.7385 0.0042 1.0544-0.26866 0.3237-0.24243 0.44819 0.1241 0.58884 0.35827 0.13747 0.46474 0.58698 0.46474 1.9628 0 0.98153 0.13624 1.9209 0.30265 2.0873 0.16641 0.16642 0.71575 0.2893 1.2207 0.27353 1.1673-0.0367 1.3624-0.78325 0.34698-1.3267-0.67079-0.359-0.73568-0.54216-0.65892-1.8556 0.07369-1.2608 0.17262-1.4695 0.73363-1.5492 0.3566-0.0506 0.64836-0.25158 0.64836-0.44659 0-0.4749-0.59629-1.046-1.092-1.046-0.22025 0-0.6157-0.26544-0.87884-0.58968-0.20934-0.25796-0.34592-0.39282-0.48922-0.42001zm209.21 0.13929c-0.0869 0.032-0.18504 0.1308-0.29126 0.30265-0.10426 0.16869-0.59233 0.22066-1.1296 0.11989-0.80153-0.15038-1.0421-0.0555-1.5761 0.62346-0.96189 1.2228-0.70771 2.146 0.7961 2.8923 1.7329 0.86001 1.9029 1.0814 1.298 1.6863-0.32625 0.32626-0.54912 0.39183-0.61881 0.18278-0.0599-0.17974-0.2501-0.32671-0.42252-0.32671-0.17244 0-0.55865-0.22157-0.85817-0.49261-0.45913-0.41551-0.584-0.42888-0.79608-0.0857-0.35018 0.56659-0.11182 0.84406 1.2587 1.4664 0.65402 0.29699 1.344 0.54319 1.5331 0.54664 0.50559 9e-3 1.241-1.1667 1.241-1.9844 0-0.82957-1.0358-2.0438-1.7437-2.0438-0.74371 0-1.2743-0.75018-0.68931-0.97466 0.81762-0.31374 1.2372-0.19207 1.4297 0.41452 0.31821 1.0026 0.85529 0.44099 0.93414-0.97635 0.0523-0.94077-0.10435-1.4466-0.36512-1.3508zm-216.91 0.0608c-0.35382-0.0681-0.50442 0.0873-0.50442 0.52131s0.1506 0.58942 0.50442 0.5213c0.27735-0.0534 0.504-0.28791 0.504-0.5213s-0.22665-0.4679-0.504-0.52131zm193.53 0.35669c-0.1443-0.0203-0.27097-9e-3 -0.36725 0.0295-0.1925 0.0768-0.26311 0.2608-0.10889 0.51033 0.11394 0.18437 0.28537 1.5256 0.38115 2.981 0.10244 1.5565 0.33454 2.8393 0.56352 3.1152 0.21413 0.25801 0.59415 0.42982 0.84464 0.38158 0.6306-0.12144 0.74121-0.99579 0.19503-1.542-0.3357-0.3357-0.45336-1.0435-0.45336-2.7281 0-1.9874-0.0733-2.3136-0.58208-2.5859-0.16654-0.0891-0.32846-0.14132-0.47276-0.16166zm-4.1388 0.15407c-0.24583 0.0362-0.3757 0.44378-0.30053 1.2098 0.0258 0.2633-0.0889 0.56258-0.25496 0.66524-0.49866 0.30816-0.34123 0.93989 0.27436 1.1009 0.56527 0.14781 0.70784 0.67544 0.58548 2.165-0.03 0.36499 0.10133 0.85126 0.29167 1.0806 0.44115 0.53155 0.69085 0.52518 1.1498-0.0279 0.27938-0.33665 0.28813-0.52528 0.0355-0.77795-0.47131-0.47132-0.41406-1.8252 0.0988-2.3381 0.53661-0.5366 0.55856-1.0498 0.0452-1.0498-0.21277 0-0.63118-0.45414-0.9299-1.0088-0.38777-0.72001-0.74951-1.0551-0.99535-1.019zm-198.3 0.0164c-0.29362 0.0272-0.52342 0.2146-0.52342 0.54663 0 0.30376 0.16237 0.61741 0.36048 0.69734 1.0063 0.40606 1.6692-0.10832 1.07-0.8303-0.25586-0.30829-0.61351-0.4409-0.90711-0.41367zm233.8 0.12496c-0.20651 4e-3 -0.42967 0.11288-0.80665 0.32924-0.76805 0.44084-0.83206 0.60874-0.85182 2.2414-0.0117 0.97075-0.10905 2.1129-0.21655 2.5381-0.17266 0.68314-0.10298 0.7875 0.59772 0.89362 0.4362 0.0661 0.86561 0.13918 0.95439 0.16293 0.0888 0.0237 0.56032-0.34663 1.0481-0.82352 0.85895-0.83981 1.4389-2.6322 0.91598-2.8311-0.13885-0.0528-0.25243-0.47131-0.25243-0.92992 0-0.55908-0.22491-0.98123-0.68255-1.2811-0.30987-0.20304-0.49969-0.30371-0.70619-0.29969zm-44.127 0.44531c-0.69699 0-1.3514 0.825-1.6006 2.0173-0.11597 0.55472-0.38906 1.3568-0.60658 1.7826-0.21753 0.4258-0.31001 0.99711-0.20556 1.2693 0.16817 0.43823 0.25055 0.41547 0.71843-0.19796 1.0438-1.3686 1.0906-1.3995 1.7484-1.1562 0.41351 0.15295 0.64244 0.48071 0.64668 0.92653 5e-3 0.50453 0.19021 0.71553 0.691 0.78637 0.73284 0.10366 0.72053 0.23752 0.22034-2.4022-0.26417-1.3942-1.1334-3.0257-1.612-3.0257zm51.016 0.0182c-0.5051 0.0256-1.0096 0.21402-1.3187 0.55549-0.63358 0.70013-0.91348 3.1434-0.45757 3.9953 0.24845 0.46425 0.60124 0.61798 1.4158 0.61798 0.98836 0 1.7767-0.39261 1.7767-0.88517 0-0.10652-0.50341-0.27402-1.1186-0.37229-0.77534-0.12399-1.1637-0.35147-1.2655-0.74082-0.18884-0.7221-9e-3 -0.88304 0.98435-0.88304 0.54352 0 0.96342-0.23454 1.2769-0.71296 0.41875-0.63896 0.42178-0.75843 0.0274-1.1528-0.31014-0.31015-0.81571-0.44726-1.3208-0.42169zm-12.113 5e-3c-0.3395 0.0535-0.61771 0.22189-0.68761 0.48162-1.1696 4.3458-1.2427 5.0101-0.49893 4.5504 0.16903-0.10445 0.30728-0.49565 0.30728-0.86956 0-1.1062 0.2778-1.5404 0.88348-1.382 0.35999 0.0941 0.55761 0.39587 0.55761 0.85141 0 0.38815 0.13395 0.95683 0.29801 1.2634 0.35314 0.65986 0.8095 0.72204 1.0325 0.14098 0.24266-0.63239-0.44253-4.5771-0.83874-4.8289-0.31359-0.19931-0.71408-0.26075-1.0536-0.20726zm-241.91 0.2655c-0.46687 0-0.73194 0.63453-0.73194 1.7526 0 0.74079-0.10204 0.84084-0.85773 0.84084-1.0543 0-1.802 1.0088-1.848 2.4934-0.04181 1.3507 0.60113 1.8092 1.867 1.3314 0.74043-0.27949 0.98116-0.26533 1.3246 0.0781 0.82963 0.82962 2.9425 0.35666 2.5837-0.57829-0.10122-0.26378-0.31179-0.40054-0.46812-0.30391-0.15632 0.0966-0.56161 0.0274-0.90078-0.15408-0.57109-0.30563-0.60231-0.47741-0.42042-2.3233 0.21398-2.1716 0.04536-3.1367-0.54832-3.1367zm194.01 0c-0.6926 0-1.193 1.2918-0.96705 2.4964 0.14119 0.75264 0.0676 0.95017-0.41115 1.1021-0.99225 0.31493-1.5241 1.0096-1.1334 1.4803 0.23765 0.28636 0.64692 0.35176 1.3786 0.21993 1.4683-0.26453 1.5181-0.32077 1.466-1.6538-0.0703-1.8001-0.0373-1.8477 0.57998-0.83535 0.31405 0.5151 0.66071 0.93666 0.77034 0.93666 0.10966 0 0.5697-0.42156 1.0219-0.93666l0.82227-0.93667-0.081 1.5778c-0.0689 1.3435-2e-3 1.5934 0.4542 1.6838 0.9726 0.19315 1.1094-0.32902 0.73236-2.7923-0.19723-1.2883-0.43736-2.3423-0.53355-2.3423-0.0962 0-0.60341 0.45452-1.1275 1.0101-0.89576 0.94968-1.4795 1.0934-1.4795 0.3643 0-0.53023-0.91678-1.3744-1.4926-1.3744zm-211.87 0.13086c-2.3874-0.0182-3.456 0.22652-3.5698 0.8172-0.07309 0.37955 0.11088 0.4926 0.7999 0.4926 1.1126 0 1.281 0.40916 0.97085 2.3575-0.18966 1.1915-0.36878 1.5485-0.8172 1.6294-0.80144 0.14452-1.1134 0.50536-0.90543 1.0473 0.18188 0.47401 0.38125 0.47313 4.4368-0.0212 1.7883-0.21796 2.039-0.9065 1.7184-4.7247-0.10164-1.2106-0.71636-1.5836-2.6335-1.5981zm246.09 0.16672c-0.37484 0.016-0.7977 0.14618-0.99026 0.37821-0.44949 0.54162-0.75176 2.206-0.40058 2.206 0.44097 0 1.8152 1.4785 1.639 1.7636-0.21583 0.3492-1.2756 0.3205-1.2756-0.0346 0-0.15851-0.25921-0.28831-0.57617-0.28831-0.73784 0-0.72673 0.23501 0.0502 1.062 0.77996 0.83023 2.1165 0.88821 2.5331 0.10975 0.16408-0.30655 0.29803-0.98733 0.2976-1.5128 0-0.7403-0.19512-1.0853-0.86364-1.5318-1.0015-0.66896-1.1055-1.1666-0.28831-1.3803 0.31696-0.0829 0.57618-0.29269 0.57618-0.46602 0-0.22377-0.32669-0.32167-0.70155-0.30561zm-22.298 0.1279c-0.19695 0.0581-0.34193 0.27399-0.34193 0.6205 0 0.2397 0.19451 0.63055 0.43224 0.86829 0.25085 0.25085 0.43224 0.95473 0.43224 1.6775 0 1.2745 0.42293 1.758 1.146 1.3111 0.23922-0.14784 0.30538-0.49999 0.18446-0.98181-0.15658-0.62385-0.0901-0.75137 0.39297-0.75137 0.38318 0 0.5821 0.19041 0.5821 0.55762 0 0.30665 0.12656 0.89018 0.28113 1.2967 0.15457 0.40652 0.41765 0.73911 0.58504 0.73911 0.52886 0 0.67702-0.90144 0.3132-1.9075-0.19302-0.53382-0.35803-1.49-0.3668-2.1249-0.0177-1.2798-0.41575-1.454-1.8391-0.80539-0.65615 0.29896-0.82031 0.27412-1.1473-0.17305-0.20841-0.28502-0.45733-0.38485-0.65426-0.32673zm41.031 0.0177c0.0938 0.0205 0.19983 0.0781 0.31532 0.17391 0.29481 0.24467 0.31033 0.42036 0.0633 0.718-0.45744 0.55119-0.83282 0.4907-0.83282-0.13424 0-0.36688 0.0769-0.60872 0.21147-0.71082 0.0673-0.0511 0.14891-0.0674 0.24272-0.0468zm7.3012 0.0498c0.30989 0.0356 0.60107 0.13296 0.60107 0.26088 0 0.0607-0.33185 0.11059-0.73742 0.11059s-0.66451-0.11724-0.57575-0.26086c0.0738-0.11945 0.40218-0.14614 0.7121-0.11061zm-214.36 0.14239c-0.33103 0.0355-0.70685 0.10847-1.1207 0.21992l-1.1629 0.3132 0.12326 1.7927c0.06797 0.98616 0.12762 1.8904 0.13254 2.0092 0.0049 0.11887 0.1985 0.21612 0.43013 0.21612 0.24342 0 0.54506-0.45971 0.71463-1.0895 0.40017-1.4861 0.98366-2.2089 1.7897-2.2174 0.48229-5e-3 0.67664-0.17263 0.67664-0.58335 0-0.35796-0.26244-0.57983-0.73152-0.65638-0.23453-0.0383-0.52079-0.0402-0.85182-5e-3zm180.61 0c-0.66247 0.10966-1.3558 0.63928-1.7015 1.474-0.4698 1.1342-0.40501 1.8516 0.23004 2.5534 0.40289 0.44519 0.72571 0.52431 1.5285 0.37441 1.2089-0.22576 1.28-0.27921 1.076-0.81089-0.10143-0.2644-0.42018-0.359-0.90036-0.26719-0.55085 0.1053-0.74291 0.0216-0.74291-0.32375 0-0.2719 0.23689-0.46602 0.56943-0.46602 0.79282 0 1.6477-1.347 1.2528-1.9742-0.17149-0.27236-0.40707-0.44379-0.67369-0.52509-0.19996-0.061-0.4174-0.0712-0.63823-0.0346zm-184.5 0.0207c-0.19345-0.0771-0.46619-0.0566-0.92696 0.0182-1.3621 0.22102-1.8192 0.70939-2.0122 2.1485-0.13648 1.0176-0.05123 1.2713 0.64076 1.9126 0.87961 0.81521 1.4693 0.90777 2.5732 0.40479 1.1308-0.51512 0.92566-1.1063-0.3837-1.1063-0.64167 0-1.2701-0.18403-1.4761-0.43224-0.30753-0.37056-0.21079-0.43224 0.67538-0.43224 1.2959 0 1.8723-0.82394 1.3613-1.9455-0.1439-0.31584-0.25822-0.49063-0.45166-0.56775zm-25.761 0.038c-1.1295-0.20817-2.096 0.61713-1.9911 1.7007 0.0795 0.82094 0.22116 0.95072 1.3284 1.2178 1.6244 0.3918 1.4364 0.8535-0.3474 0.8535-1.6832 0-2.0901 0.56768-0.69522 0.96958 2.2418 0.64597 3.6935 0.0861 3.6935-1.4242 0-0.8867-0.40554-1.1882-2.0789-1.5454-1.2179-0.25993-0.7368-1.0252 0.51666-0.82184 0.78499 0.12738 0.98605 0.0638 0.98605-0.31026 0-0.25848-0.16237-0.47944-0.36048-0.49133-0.19811-0.0117-0.67108-0.0785-1.0515-0.14858zm9.9525 0.0798c-0.21029-3e-3 -0.46145 0.0797-0.76275 0.23555-0.61948 0.32033-1.0226 0.35606-1.5905 0.14013-1.2895-0.49025-1.8799 0.53062-0.67876 1.1735 0.53897 0.28846 0.58793 0.49092 0.42169 1.7442-0.15171 1.1436-0.10046 1.4513 0.26678 1.5922 0.66453 0.255 0.79069 3e-3 0.8286-1.6551 0.02494-1.0912 0.17153-1.5769 0.54663-1.8113 0.74144-0.46332 1.0626 0.19885 1.0679 2.2013 0.0033 1.2485 0.10712 1.6568 0.42 1.6568 0.65292 0 0.72342-0.33901 0.5365-2.5686-0.16053-1.9148-0.42526-2.6991-1.0561-2.7087zm6.1379 0.12325c-0.4936 9e-3 -0.89457 0.34327-1.1313 0.9658-0.31581 0.83068-0.11245 1.5947 0.42422 1.5947 0.20137 0 0.51905 0.18437 0.70619 0.40988 0.27579 0.3323 0.21468 0.428-0.32207 0.50442-0.36423 0.0519-0.70525 0.3212-0.75811 0.59855-0.14432 0.75722 1.8324 0.7103 2.241-0.0532 0.54511-1.0186 0.36214-2.026-0.42211-2.3241-0.85221-0.32401-0.89513-0.52818-0.21612-1.0283 0.48027-0.3537 0.48027-0.38074 0-0.5669-0.18252-0.0708-0.35719-0.10385-0.52173-0.10089zm-3.6812 0.0266c-0.26381 0.0508-0.46866 0.31746-0.45546 0.59264 0.0132 0.27519 0.04577 1.2693 0.07218 2.2089 0.03134 1.1149 0.20507 1.8656 0.5002 2.1608 0.34138 0.34138 0.5885 0.37922 1.0084 0.1545 0.62337-0.33362 0.71649-0.86643 0.23554-1.3474-0.1764-0.1764-0.35932-0.84311-0.40691-1.4812-0.12868-1.7254-0.40753-2.3935-0.95397-2.2883zm219.24 0.0844c0.1585-0.0979 0.28831 0.0164 0.28831 0.25412 0 0.23773-0.12981 0.51242-0.28831 0.61036-0.15848 0.0979-0.28787-0.0164-0.28787-0.25411 0-0.23773 0.12939-0.51242 0.28787-0.61037zm-259.9 0.14437c1.3601 0 2.2926 1.1553 1.2541 1.5538-0.60184 0.23105-1.4175 0.2228-1.6572-0.0169-0.10566-0.10566-0.19206-0.49468-0.19206-0.86448 0-0.48742 0.16367-0.67242 0.59518-0.67242zm220.71 0c0.15848 0 0.28788 0.25922 0.28788 0.57618 0 0.33723-0.19209 0.57618-0.46306 0.57618-0.30387 0-0.40266-0.15635-0.28788-0.45546 0.0962-0.25067 0.17476-0.51032 0.17476-0.57661 0-0.0663 0.12982-0.12029 0.2883-0.12029zm-188.78 0.28787c-0.47403 0-0.54537 0.22468-0.54537 1.7129 0 1.4431 0.10069 1.7832 0.64034 2.1612 0.71829 0.5031 1.0634 0.54695 1.6028 0.20473 0.43601-0.27668 0.19365-1.0849-0.39256-1.3098-0.22629-0.0868-0.40987-0.53799-0.40987-1.0072 0-1.2247-0.27284-1.7619-0.8953-1.7619zm194.52 0c0.16784 0 0.30519 0.12983 0.30519 0.28831 0 0.1585-0.0572 0.2883-0.12706 0.2883-0.0699 0-0.20724-0.1298-0.30518-0.2883-0.0979-0.15848-0.0408-0.28831 0.12705-0.28831zm12.39 0.14478c0.1743 0.0895 0.30559 0.25416 0.30559 0.44871 0 0.35077-0.77985 0.35297-0.99616 3e-3 -0.0912-0.14755-0.034-0.34969 0.12705-0.44912 0.17193-0.10627 0.38919-0.0921 0.56352-3e-3zm-185.9 7e-3c0.32619-0.0222 0.63533 0.0648 0.64203 0.28029 0.0049 0.15848-0.33337 0.33062-0.75178 0.38243-0.53147 0.0658-0.72221-0.0208-0.63317-0.28788 0.07366-0.22098 0.41672-0.35264 0.74291-0.37484zm-46.669 0.42466c-2.1546 0-3.2597 1.8457-2.0451 3.4161 0.41889 0.54162 0.71181 0.63083 1.729 0.52638 1.2948-0.13298 2.1959-0.65562 1.9147-1.1106-0.09259-0.14982-0.56115-0.18611-1.0413-0.0806-0.60444 0.13276-0.8127 0.0938-0.67622-0.12704 0.10843-0.17542 0.44424-0.31912 0.74629-0.31912 0.72221 0 1.1426-0.83632 0.83282-1.6568-0.20058-0.5312-0.46432-0.64836-1.4601-0.64836zm258.88 0.30983c0.33183 0.0622 0.6789 0.33788 0.74038 0.77077 0.0567 0.39885-0.054 0.63961-0.28787 0.62556-0.7543-0.0451-1.1009-0.32407-1.1009-0.886 0-0.42137 0.31653-0.57251 0.64836-0.51033zm-254.08 0.11059c-1.4395-0.0512-1.8767 0.0262-1.8767 0.33263 0 0.21967 0.12982 0.3993 0.2883 0.3993 0.15991 0 0.2883 0.76561 0.2883 1.7201 0 1.3963 0.07967 1.6894 0.42422 1.5572 0.23342-0.0896 0.50928-0.63665 0.6129-1.2157 0.20274-1.1328 0.90057-2.1444 1.3064-1.8936 0.13731 0.0849 0.24989 0.83826 0.24989 1.6741 0 0.83593 0.0864 1.6064 0.19206 1.7121 0.58158 0.58158 1.4933-0.33125 1.0489-1.0502-0.11081-0.1793-0.21156-0.8735-0.22414-1.5424-0.01258-0.66887-0.11544-1.3083-0.22836-1.4212-0.11293-0.11293-1.0497-0.23555-2.0818-0.27227zm-5.0054 0.44406c0.56816 0 0.83058 0.12522 0.75347 0.36006-0.13058 0.39766-1.4215 0.64598-1.734 0.33347-0.36425-0.36425 0.10128-0.69353 0.98056-0.69353zm9.9183 0.33685c0.0423-0.0525 0.34736 0.0493 0.67791 0.22623 0.71802 0.38429 0.77185 0.95363 0.13972 1.4782-1.282 1.064-1.9414-0.31057-0.81763-1.7045zm260.92 0.0115c-0.44864 0.0234-0.93627 0.28042-1.0937 0.75262-0.0729 0.21858 0.25475 0.33981 0.91936 0.33981 0.73513 0 1.0325-0.12693 1.0325-0.44111 0-0.46403-0.40952-0.67468-0.85815-0.65132zm-257.48 0.65258c-0.04831-0.0201-0.14151-7e-3 -0.26973 0.0418-0.24596 0.0944-0.44744 0.22264-0.44744 0.28493 0 0.23339 0.54921 0.10199 0.71843-0.17182 0.05048-0.0817 0.04705-0.13475-0.0013-0.15491zm-19.52 0.0363c0.19811 0.0158 0.7495 0.0484 1.225 0.0722 0.9308 0.0465 1.1471 0.60259 0.45714 1.1752-0.22398 0.1859-0.73484 0.39723-1.1351 0.4698-0.55758 0.1011-0.72214 0.0134-0.7045-0.37484 0.01266-0.27869-0.02788-0.70103-0.08991-0.93876-0.06203-0.23774 0.04925-0.41932 0.24736-0.40354z" stroke-width=".21612"/>
</svg>
