<?xml version="1.0" encoding="utf-8"?>
<svg xmlns="http://www.w3.org/2000/svg" height="36" version="1.1" width="300" xml:space="preserve" viewBox="0 0 300 36">
	<path d="m245.15 0.0030628c-0.10795 0.021216-0.2192 0.15256-0.4146 0.41014-0.35925 0.47357-0.39924 0.87286-0.28397 2.8283 0.13272 2.2515 0.12795 2.2781-0.42183 2.4017-0.30578 0.068737-3.3367 0.10029-6.7355 0.070133-7.2103-0.063971-6.8118 0.08616-6.7135-2.5313 0.05-1.3322-0.0107-1.6887-0.30632-1.8021-0.74562-0.28612-1.2097 0.74719-1.1613 2.5856l0.0447 1.6928-2.1122 0.17224c-1.1617 0.094669-2.799 0.12727-3.638 0.07254-0.83903-0.054737-2.344-0.10579-3.3444-0.11345l-1.8186-0.013747v-0.91001c0-0.98548-0.42871-1.5261-1.1036-1.3917-0.33836 0.067419-0.42217 0.31531-0.42217 1.2514v1.1675l-5.7498-0.00859-5.7499-0.00894v-1.9582c0-1.6359-0.07-2.0015-0.42458-2.2209-0.71844-0.44458-1.1012 0.38429-1.1012 2.3849v1.7361l-1.4666-0.14577c-0.80677-0.080064-1.9949-0.12275-2.6403-0.094885-0.64541 0.027864-4.4475 0.035801-8.449 0.017531-7.8477-0.035827-16.824-0.021999-25.23 0.038848-2.9043 0.021024-5.4125-0.056721-5.5738-0.17293-0.16136-0.1162-0.2936-0.41981-0.2936-0.67451 0-0.76332-0.9207-1.8623-1.492-1.7808-0.39251 0.05596-0.48998 0.21333-0.44418 0.71714 0.0323 0.35497 0.0853 0.93141 0.11758 1.281l0.0584 0.63567-7.0992 0.023722c-4.8332 0.016159-7.1123-0.05561-7.1394-0.22484-0.0219-0.13671-0.0486-0.7983-0.0595-1.47-0.0226-1.3984-0.39282-1.9635-1.0217-1.5594-0.33067 0.21246-0.38977 0.54303-0.32453 1.8162l0.0798 1.5567-8.7635-0.13236c-4.8198-0.072898-22.651-0.1534-39.625-0.17877l-30.862-0.046068-0.1413-2.0658c-0.1477-2.1603-0.34249-2.6114-1.0661-2.4694-0.38775 0.076065-0.43558 0.33007-0.43558 2.3103v2.225l-13.143-0.061538c-7.2285-0.033843-15.356-0.070334-18.062-0.08079-4.2781-0.016528-4.9552-0.069142-5.2005-0.40464-0.25451-0.34807-0.32431-0.35052-0.71405-0.025097-0.35413 0.29569-1.3475 0.37104-5.5161 0.41839-2.7962 0.031761-5.1336-0.026179-5.1943-0.12892-0.060653-0.10274-0.17683-0.74744-0.25819-1.4326-0.27133-2.2849-1.5562-3.425-3.8363-3.4035-1.6829 0.015824-1.8804 0.13929-3.0563 1.9108-1.3197 1.9882-1.816 5.2539-1.207 7.9425 0.32689 1.4434 0.04163 2.2241-0.99974 2.7359-1.0399 0.51111-1.5969 1.0032-2.5681 2.269-1.6236 2.1162-1.9234 2.929-2.039 5.5291-0.13618 3.062 0.25288 4.3655 1.7021 5.7014 1.6405 1.5122 2.626 1.8977 5.3483 2.0923 2.2446 0.16044 2.4122 0.20705 2.4811 0.6917 0.086403 0.60762-0.29084 0.7368-2.421 0.82819-1.2348 0.05296-1.4168 0.12205-1.4793 0.56002-0.061149 0.42866 0.080694 0.52223 1.0004 0.66007 0.58948 0.08834 1.2816 0.09414 1.5381 0.01267 0.60732-0.19276 0.59743 0.21274-0.019251 0.78728-0.96032 0.89467-2.6 0.9604-3.7892 0.15229-1.0705-0.72747-1.2375-0.7283-1.9551-0.01056-1.0847 1.0847-0.62614 2.7431 0.83197 3.0085 1.0402 0.18931 1.2712 0.17174 2.4608-0.1891 1.4646-0.44426 2.7825-1.2905 3.9931-2.5643l0.93888-0.98805 4.4593 0.02612c2.4525 0.01443 8.0499-0.05001 12.439-0.14335 7.2899-0.15507 14.661-0.21717 24.643-0.20732 2.0653 0.0021 17.854-0.04436 35.087-0.10346 17.232-0.05909 35.45-0.11346 40.485-0.12068 5.0341-0.0072 10.05-0.02626 11.148-0.04263 3.87-0.05768 9.7473 0.0402 10.363 0.17259 0.34268 0.0737 0.68251 0.03816 0.75496-0.07907 0.078-0.12619 6.6698-0.1662 16.157-0.09799 8.8141 0.06335 30.653 0.1556 48.531 0.20524 34.59 0.09602 39.309 0.14602 39.954 0.4215 0.22441 0.09593 0.91076 0.06104 1.5254-0.07736 0.6903-0.15544 6.4112-0.29666 14.964-0.36957 12.483-0.1064 25.026-0.31208 27.426-0.44968 1.1021-0.06317 1.6712-0.67489 1.2902-1.3868-0.23678-0.44241-0.39619-0.45772-2.9834-0.28603-4.2635 0.28292-8.0894 0.3139-8.5566 0.06946-0.26385-0.13814-0.53154-0.1395-0.70407-0.0039-0.15311 0.12043-2.0379 0.28526-4.188 0.36612l-3.9092 0.1468-0.1279-1.1125c-0.19547-1.6991-0.15722-4.2805 0.0636-4.2805 0.67913 0 1.6636 0.33622 1.6636 0.56828 0 0.49053 1.7354 1.9505 2.6747 2.2501 2.3437 0.74761 5.9956-0.57979 6.7011-2.4354l0.22932-0.60266 4.187 0.0028c2.3027 0.0018 4.366-0.0658 4.5851-0.14988 0.45433-0.17435 0.5426-1.1889 0.11586-1.3311-0.1553-0.05177-2.2026-0.05502-4.5497-0.0072l-4.2674 0.08697-0.5009-0.81066c-0.41912-0.67812-0.47596-1.0226-0.34826-2.1091 0.14962-1.273 0.16925-1.3011 1.0021-1.4384 0.46729-0.07701 2.3726-0.08993 4.2338-0.02853 3.5142 0.11593 4.2434-0.01816 4.2434-0.78074 0-0.65333-0.58951-1.0216-1.3635-0.85156-0.37335 0.08199-2.3052 0.15905-4.2929 0.17155l-3.6139 0.02269-0.197-1.2256c-0.10826-0.67394-0.14687-1.275-0.0859-1.336 0.0609-0.06094 0.98328 0.17767 2.0497 0.53012l1.939 0.64048 0.43524-0.53769c0.23948-0.29575 0.43558-0.73698 0.43558-0.98084 0-0.27778 0.16519-0.44348 0.44211-0.44348 0.2431 0 0.49488-0.20286 0.55969-0.45072 0.0988-0.37777 0.2685-0.43033 1.0496-0.32557 1.0171 0.13643 1.9383-0.21957 1.9383-0.74911 0-0.5716-0.77281-0.79132-3.0549-0.86841l-2.1982-0.07426-0.48303-1.1837c-0.26568-0.65097-0.77183-1.5478-1.1245-1.9929-0.54527-0.68821-0.58245-0.82192-0.24993-0.89351 0.21508-0.046307 0.53653 0.11212 0.7144 0.35204 0.30351 0.40941 0.34174 0.41141 0.62157 0.03438 0.23937-0.32254 0.75316-0.41496 2.6066-0.46927 1.3303-0.038981 2.3427-0.17111 2.3893-0.31182 0.0445-0.1343-0.0705-0.45114-0.25577-0.70408-0.28485-0.38888-0.62063-0.45999-2.1741-0.45999-1.0105-1.7e-6 -2.0211 0.082245-2.2456 0.1829-0.2547 0.11414-0.62657 0.039963-0.98874-0.19734-0.53217-0.34869-0.64326-0.34918-1.3294-0.00688-1.0234 0.51056-1.0986 0.48879-1.5453-0.44796-0.47814-1.0027-0.74192-1.0402-0.92377-0.13098-0.12652 0.6326-0.23912 0.70189-1.3435 0.82612-0.66303 0.074585-1.4168 0.13146-1.6749 0.12651-0.25817-0.00495-5.825 0.04262-12.371 0.10554-13.156 0.12647-12.621 0.18371-12.628-1.3549-5e-3 -1.0857-0.2275-1.7504-0.64013-1.9087-0.54319-0.20845-0.63641 3.52e-4 -0.76457 1.71l-0.11759 1.5649-1.7602 0.073914c-0.96811 0.040624-2.1824 0.065807-2.6987 0.056038-0.51633-0.00977-2.5252-0.048013-4.4641-0.085259-1.9389-0.037244-3.6554-0.14812-3.814-0.24615-0.19656-0.12148-0.28844-0.91586-0.28844-2.4945 0-1.8512-0.0785-2.395-0.39193-2.7084-0.18316-0.18318-0.28809-0.27218-0.39604-0.25097zm-235.35 1.8902c0.60588 0.20409 1.0907 1.0101 1.3274 2.2718l0.15711 0.83747-1.1087 0.15195c-1.9899 0.27275-2.4509 0.20832-2.4509-0.34276 0-0.74156 1.0017-2.7793 1.4336-2.9164 0.22418-0.071152 0.43955-0.070094 0.64151-0.00206zm12.663 4.5174c1.971 0.043982 1.9249-0.019501 1.9249 2.6513v2.3618l-2.0534-0.0048c-1.1295-0.0028-4.2978 0.0533-7.0408 0.1248-2.859 0.07452-4.9873 0.0408-4.9873-0.07907 0-0.11501 0.27391-0.46506 0.60885-0.77799 0.33494-0.31296 1.0445-1.3084 1.5766-2.212 0.5321-0.90356 1.051-1.7027 1.1534-1.7757 0.18734-0.13353 6.5036-0.34008 8.8178-0.28844zm3.0982 0.018565 18.013 0.12995c9.9069 0.071415 18.039 0.13562 18.071 0.14267 0.03227 0.00706 0.05879 0.95195 0.05879 2.0999 0 1.6867-0.07128 2.1143-0.37129 2.2295-0.20418 0.07835-3.0451 0.14267-6.3133 0.14267h-5.9424l0.03541-1.1613c0.04073-1.3342-0.32873-1.9095-0.96846-1.5082-0.27855 0.17474-0.42624 0.6291-0.47512 1.4614l-0.07082 1.2081-3.5668-0.0014v-3.52e-4c-1.9617-7.04e-4 -6.7882 0.03729-10.725 0.08423-3.937 0.04695-7.2899 0.0387-7.4513-0.01822-0.2083-0.07348-0.2936-0.78588-0.2936-2.4564zm-16.358 0.099011c0.77995 0.037999 1.4545 0.18011 1.4993 0.31594 0.04476 0.13583-0.24689 0.74288-0.64838 1.349-0.4015 0.60615-1.0259 1.3126-1.3875 1.5701l-0.65767 0.46824-0.2434-1.3831c-0.134-0.7607-0.18445-1.6096-0.11208-1.8864 0.11894-0.45482 0.26805-0.49631 1.5498-0.43386zm61.779 0.057756c1.5147-0.088777 3.1824-0.10405 3.9061 0.018222l0.91448 0.15436-0.06738 2.149-0.06704 2.1487h-3.726c-2.281 0-3.7531-0.09079-3.7958-0.23446-0.20151-0.67795-0.31671-3.5613-0.1523-3.8136 0.11156-0.17123 1.4732-0.3334 2.9879-0.42217zm-7.7528 0.011353 1.643 0.083884c0.90357 0.046225 1.6858 0.12444 1.7385 0.17396 0.05271 0.049514 0.10575 1.0151 0.11758 2.1456l0.02131 2.0555-1.5876 0.06498c-1.5336 0.06266-1.5957 0.0433-1.8283-0.56828-0.13239-0.34821-0.21006-1.3807-0.17258-2.2944zm14.551 0 11.03 0.083196c6.0668 0.045809 12.72 0.098502 14.786 0.11723l3.7552 0.034035 0.11723 1.2909c0.0645 0.70995 0.0645 1.641 0 2.0693l-0.11723 0.77868-7.6885 0.07529c-4.2287 0.041422-7.7421-0.01109-7.8074-0.11689-0.065381-0.10579-0.13095-0.75425-0.14542-1.4408-0.034132-1.6187-0.30134-2.3044-0.89866-2.3044-0.50458 0-0.55543 0.18979-0.46962 1.7602 0.02821 0.51632 0.06491 1.203 0.08148 1.5257l0.03025 0.5865-12.808 0.12514 0.06704-2.292zm31.592 0.16811 8.8467 0.11104c4.8656 0.061206 9.4804 0.1293 10.255 0.15092l1.4082 0.039192v3.9897l-10.481 0.0416c-5.7644 0.02276-10.543-0.02144-10.62-0.09798-0.22338-0.22337-0.16393-0.91548 0.22587-2.6293zm178.3 0.039536c0.53644 0.049551 0.56856 0.18047 0.63188 0.44211 0.16139 0.66684 9e-3 3.4062-0.20077 3.6163-0.20755 0.20756-8.7179 0.35191-8.9186 0.15127-0.0846-0.08454-0.15368-0.92843-0.15368-1.875 0-1.3284 0.0758-1.721 0.33245-1.721 0.18286 0 0.36779-0.098937 0.41083-0.22002 0.043-0.12109 1.9513-0.2775 4.2406-0.34757 2.08-0.063665 3.1208-0.095617 3.6572-0.046068zm-92.661 0.11242 8.5662 0.1492 0.1406 1.0547c0.0774 0.58009 0.0901 1.5041 0.0282 2.0534l-0.11242 0.99905h-8.9007l0.1265-1.3497c0.0696-0.74222 0.13205-1.6998 0.1389-2.1281zm-32.185 0.011353c1.2436 0.022326 8.6509 0.062267 16.46 0.089041l14.199 0.048817v3.9897l-9.678 0.04125c-5.3503 0.02266-9.7352-0.05115-9.8055-0.16502-0.07-0.11329-0.16611-0.74931-0.2135-1.4133-0.0999-1.4004-0.40489-1.8536-0.94576-1.4047-0.25105 0.20835-0.36201 0.72307-0.36201 1.6797v1.3796h-12.439v-1.9813c0-1.2042 0.10283-2.0445 0.26197-2.1428 0.14398-0.088989 1.2791-0.14334 2.5227-0.12101zm-18.688 0.00618 2.73 0.065664 2.73 0.066007 0.0677 2.0534 0.0677 2.0538h-2.6943c-1.4818 0-2.7394-0.07922-2.7947-0.17602-0.26523-0.465-0.40585-2.0674-0.26437-3.0109zm100.39 0.00206-0.10416 1.0035c-0.0572 0.55193-0.10984 1.0742-0.11725 1.1606-7e-3 0.086406-0.39955 0.050553-0.87149-0.079758-1.5156-0.41847-2.814-0.055261-3.9835 1.1142-0.57095 0.57095-1.076 1.0382-1.1221 1.0382-0.18116 0-0.27808-0.89538-0.26713-2.4643l0.0113-1.643 3.2271-0.064633zm5.515 0.045381c1.8071 0.095959 4.3418 0.11773 5.6326 0.048129 1.363-0.0735 2.6039-0.026442 2.9597 0.11242 0.59642 0.23278 0.61049 0.28708 0.53941 2.0452-0.0401 0.99329-0.13967 1.8728-0.2214 1.9544-0.0817 0.08167-0.79992 0.15494-1.5959 0.16261-0.79595 0.0077-2.2922 0.07064-3.3248 0.14026-1.9533 0.1317-7.7479-0.06673-7.9281-0.27159-0.0568-0.06454-0.16766-0.99253-0.2465-2.062-0.13713-1.8604-0.12097-1.9524 0.37783-2.1243 0.28674-0.098772 2-0.10112 3.8071-0.00516zm-95.372 0.022002c2.6824-0.046682 3.6217 0.012005 3.7631 0.23481 0.22078 0.34783 0.26081 3.0226 0.0533 3.5634-0.12133 0.31618-0.676 0.37129-3.7411 0.37129-1.9793 0-3.6591-0.09743-3.7325-0.21624-0.0734-0.11881-0.0849-1.0428-0.0254-2.0534l0.10795-1.8375zm-23.5 0.00516 11.5 0.0158v1.7028c0 0.93667 0.0596 1.8589 0.1327 2.0493 0.11481 0.29918-0.66581 0.34827-5.7499 0.36235l-5.8829 0.01649v-2.0734zm102.33 0.035067c1.4844-0.012022 2.831 0.080258 2.9923 0.2049 0.19304 0.14912 0.29325 0.89445 0.29325 2.1796v1.9531h-2.7647c-1.5207 0-2.8982-0.0822-3.0611-0.1829-0.20996-0.12977-0.27633-0.75822-0.22758-2.158l0.0688-1.9747zm35.321 0.00343c4.5178-0.0302 8.3729-0.013184 8.5665 0.038161 0.2574 0.06825 0.36686 0.4885 0.40773 1.5625 0.10034 2.6372 0.22795 2.5251-2.8682 2.5251-2.9577-2e-6 -3.2586-0.1469-3.0064-1.4663 0.17899-0.93636-0.12834-2.2889-0.52016-2.2889-0.53406 0-0.81925 0.80395-0.81925 2.3106v1.4027l-1.4051 0.07976c-0.77281 0.04373-2.9642 0.02672-4.8698-0.03782l-3.4647-0.11758-0.11758-1.0561c-0.0645-0.58086-0.11723-1.4704-0.11723-1.9768v-0.92066zm20.946 0.13992c0.22132 0.00516 1.9362 2.8665 1.9362 3.2306 0 0.14802-0.20413 0.37862-0.45379 0.51224-0.51546 0.27585-1.2692 0.3194-1.502 0.08663-0.21651-0.2165-0.19799-3.8345 0.0196-3.8295zm-72.912 0.00482-0.1362 3.8635-5.6646 0.06291c-6.4852 0.07188-5.9527 0.27781-5.9527-2.3027v-1.6148l5.8767-0.00447zm7.0222 0.10864h5.0458l0.15367 1.8774c0.0845 1.0326 0.10221 1.9305 0.0392 1.995-0.063 0.06454-1.3468 0.09754-2.8528 0.07357-1.506-0.02397-3.4246-0.05113-4.2637-0.06051-0.83903-0.0094-1.7895 0.02301-2.1122 0.0722-1.447 0.22056-1.5811 0.05415-1.5811-1.962 0-1.1661 0.0974-1.8786 0.26266-1.9238 0.14435-0.039564 2.5332-0.071851 5.3084-0.071851zm-193.15 1.9947c-0.12907 0-0.23481 0.10573-0.23481 0.23481 0 0.12908 0.10573 0.23481 0.23481 0.23481 0.12908 0 0.23481-0.10573 0.23481-0.23481 0-0.12908-0.10573-0.23481-0.23481-0.23481zm38.856 2.8693c0.55056-0.02098 1.2927 0.0076 2.2876 0.04159 1.832 0.06268 3.4525 0.11999 3.6012 0.12721 0.27154 0.0132 0.71066 2.7478 0.47855 2.98-0.06693 0.06694-0.39852-0.05974-0.73708-0.28158-0.49085-0.32155-0.90796-0.37288-2.0579-0.25268-1.6864 0.17625-2.3455 0.54434-2.7575 1.5391-0.26136 0.63098-0.41453 0.72232-1.2098 0.72232-0.50066 0-0.91382-0.07921-0.91826-0.17602-0.0044-0.09681-0.06149-0.9936-0.12686-1.9926-0.13981-2.1365-0.21153-2.6444 1.4401-2.7073zm-4.6906 0.05397c0.84876-0.0909 1.637-0.0716 1.7516 0.04298 0.11458 0.11459 0.28088 1.2367 0.36923 2.4935l0.16055 2.2852-1.3841 0.01408c-0.76127 0.0077-1.9388 0.03427-2.6166 0.05879-1.422 0.05141-1.4694-0.05682-0.65973-1.5099 0.52217-0.93718 0.76518-1.7779 0.81684-2.8273 0.0151-0.30666 0.35508-0.42801 1.5622-0.55728zm-3.4389 0.0097c0.14507 0.06972 0.25303 0.2033 0.25303 0.36682 0 0.27297-0.25144 0.2775-0.67039 0.01197-0.22198-0.14066-0.23986-0.25044-0.05879-0.36235 0.14884-0.09199 0.33108-0.08623 0.47614-0.01655zm55.586 0.1076 0.0966 0.6587c0.0532 0.36214 0.0535 1.4234 7.1e-4 2.3584l-0.0963 1.7-3.9601-0.02441c-2.1781-0.01338-4.0043-0.09526-4.0581-0.18222-0.0537-0.08697-0.13423-1.1087-0.17877-2.2704l-0.0808-2.1119 4.1382-0.0643zm-13.088 0.0028 0.0351 1.9988c0.0194 1.0994 0.0459 2.1311 0.0588 2.2924 0.0314 0.39256-11.823 0.47055-11.965 0.07872-0.05069-0.14011-0.12009-1.1526-0.15402-2.2497l-0.06154-1.9947 6.0431-0.06293zm99.496 0.0079c0.1367 0 0.24856 0.10574 0.24856 0.23481 0 0.12909-0.0466 0.23446-0.10348 0.23446-0.0569 0-0.16879-0.10537-0.24856-0.23446-0.0798-0.12908-0.0332-0.23481 0.10348-0.23481zm-113.35 0.0044 0.13889 0.55349c0.16823 0.67026 8.8e-4 3.4974-0.22896 3.8693-0.11574 0.18727-1.9057 0.26679-6.0252 0.26679-4.8604 0-5.8829-0.0574-5.9895-0.3352-0.0707-0.18424-0.14674-1.214-0.1688-2.2883l-0.03988-1.9531 6.1566-0.05673zm-54.03 0.0048 0.13408 0.87529c0.41342 2.6987 0.45026 3.8022 0.1303 3.9044-0.17777 0.05678-2.5751 0.15303-5.3273 0.21385-3.6361 0.08035-5.0265 0.03723-5.0857-0.1578-0.04475-0.14763-0.13234-1.2717-0.19493-2.498l-0.1138-2.2298 5.2287-0.05397zm152.28 0.01994c0.55448-0.01355 1.3071 0.0093 2.3281 0.03026l2.8163 0.0581 0.0677 2.1748c0.0501 1.6147-0.0104 2.1999-0.23481 2.2724-0.42625 0.13789-4.3616 0.26223-5.3459 0.1688-0.45066-0.04277-0.89793-0.20119-0.9939-0.35204-0.096-0.15085-0.1761-1.1436-0.17808-2.2061-3e-3 -1.7364-0.12291-2.1056 1.5405-2.1463zm-81.75 0.01549c0.71519-0.05918 0.88303 0.0067 0.89625 0.35204 9e-3 0.23368 0.0355 1.2697 0.0588 2.3024l0.0423 1.8774h-0.90967c-0.50043 0-0.95392-0.11454-1.0076-0.2544-0.0537-0.13986-0.0667-1.1431-0.0289-2.2295l0.0688-1.9751zm11.911 0.0058 5.4566 0.06326c3.0011 0.03482 5.5358 0.07629 5.6326 0.09213 0.0968 0.01584 0.17602 1.0341 0.17602 2.2628v2.2339l-5.4941-0.02236c-3.0217-0.01232-5.5564-0.08467-5.6326-0.16088-0.0762-0.0762-0.13854-1.1129-0.13854-2.3037zm64.569 0.0021c2.563 0.04981 2.3185 0.49792 2.3185 2.7366v1.8812l-5.7254 0.01003c-4.9999 9e-3 -5.7432-0.03649-5.8671-0.35926-0.17534-0.45695-0.13806-2.5564 0.0619-3.4815l0.14817-0.68586 5.4521-0.06977c1.5913-0.02037 2.7575-0.0479 3.6118-0.0313zm-47.543 0c1.9543-0.01162 3.8618 0.03422 3.8618 0.14886 0 0.11538-0.16537 0.34723-0.36751 0.515-0.52427 0.4351-1.0406 1.5111-1.0406 2.1686 0 0.70501 0.6295 1.2888 1.5993 1.4828 0.41104 0.08213 0.7474 0.24185 0.7474 0.35478 0 0.11295-0.23763 0.18292-0.52806 0.15539-0.29043-0.02753-2.3234-0.10674-4.5177-0.17602l-3.9897-0.12617-0.0684-2.0923c-0.0388-1.187 0.0306-2.1536 0.16055-2.2339 0.18733-0.11578 2.1887-0.18528 4.143-0.197zm36.932 0.0069-0.12961 2.1408c-0.0713 1.1774-0.19849 2.2146-0.28259 2.3044-0.15545 0.16606-9.7712 0.36491-11.335 0.23446-0.71707-0.05985-0.87465-0.17294-0.97568-0.70132-0.0662-0.34664-9e-3 -0.83909 0.1279-1.0943 0.13657-0.25519 0.23053-0.96946 0.20867-1.5869l-0.0399-1.1225 1.5886-0.02614c0.87367-0.01426 2.3277 0.0042 3.2313 0.04126 0.90356 0.03707 1.8541 0.05652 2.1122 0.04367 0.25817-0.01285 1.5997-0.0705 2.9813-0.12825zm-26.891 0c0.43131-0.02815 0.98813-0.01764 1.7021 0.01338 1.9423 0.08442 2.3237 0.16544 2.4478 0.51912 0.18139 0.51709 0.10613 3.7349-0.0949 4.0601-0.16501 0.26706-6.3224 0.28202-6.752 0.01655-0.17013-0.10514 0.0479-0.43952 0.6061-0.9296 0.82229-0.72198 0.86571-0.82932 0.76115-1.8846-0.12654-1.2772 0.0359-1.7105 1.3298-1.7949zm12.75 0.01788c0.0916 0.09764 0.13447 0.83833 0.10899 1.8884l-0.0279 1.1458-0.98805-0.1327c-1.4904-0.19992-2.2792 0.05217-3.2732 1.0462-0.77904 0.77904-1.0462 0.9021-1.9582 0.9021-0.68501 0-1.0585-0.10295-1.0626-0.29325-4e-3 -0.16134-0.0297-1.1911-0.0584-2.2883l-0.0523-1.995 3.6376-0.15608c2.0008-0.08585 3.6541-0.13855 3.6741-0.11723zm36.693 3e-3 2.3271 0.01788c1.2801 0.0097 2.3864 0.07682 2.4584 0.14886 0.072 0.07206-0.23766 0.26405-0.68827 0.42699-0.5844 0.21133-0.91907 0.53547-1.1675 1.13-0.45324 1.0847-0.44961 1.1118 0.23859 1.8544 0.3227 0.3482 0.5865 0.72311 0.5865 0.83333 0 0.23423-3.367 0.2754-3.5984 0.044-0.086-0.08606-0.15641-1.1235-0.15641-2.3058zm-136.84 0.0028-0.93167 0.79725c-0.87318 0.74742-0.93167 0.87732-0.93167 2.0699 0 0.69989 0.10538 1.2727 0.23446 1.2727 0.12908 0 0.23481 0.14625 0.23481 0.32521 0 0.26508-0.69621 0.32018-3.7552 0.29601l-3.7549-0.02991-0.04641-1.5278c-0.02553-0.84032-0.05205-1.8946-0.05879-2.3429l-0.01237-0.81511 4.5108-0.02269zm147.72 0.03059c0.84939 0.14559 1.9412 0.17 6.9394 0.15539 1.992-0.0058 3.708 0.0427 3.8136 0.10795 0.10557 0.06525 0.19217 0.53061 0.19217 1.0341 0 0.84771-0.048 0.91368-0.64564 0.89281-1.9974-0.06979-4.0588 0.70492-5.0434 1.895-0.37829 0.45721-0.64255 0.49368-3.5792 0.49368-1.7439 0-3.1708-0.06694-3.1708-0.14852 0-0.08157 0.228-0.51695 0.50641-0.96742 0.44318-0.7171 0.47132-0.91528 0.22586-1.5941-0.15421-0.42642-0.21173-1.05-0.12754-1.3855 0.13385-0.5333 0.24546-0.59371 0.88902-0.48337zm-167.89 0.0021h9.5051l0.05707 1.8778c0.03139 1.0327 0.0029 2.1151-0.06326 2.4055-0.11958 0.52524-0.14447 0.52806-4.6532 0.52806-2.4931 0-4.6032-0.07037-4.6893-0.15643-0.08605-0.08606-0.15646-1.1689-0.15642-2.4058zm241.18 0 4.4373 0.07254c2.4405 0.04003 4.4734 0.10906 4.5177 0.15333 0.0443 0.04427 0.14217 0.89321 0.21728 1.8864 0.0932 1.2322 0.0517 1.8582-0.13064 1.9709-0.2989 0.18475-7.9034 0.27404-8.5462 0.10038-0.42704-0.11536-0.47835-0.41713-0.48957-2.893zm-255.6 0.04777c0.82869-0.06062 0.98736 0.41562 1.0193 3.0618l0.02338 1.9362h-0.8997c-0.49481 0-0.9603-0.06062-1.0341-0.13443-0.12309-0.12309 0.04185-4.5878 0.17533-4.7463 0.03208-0.03809 0.35419-0.09081 0.71577-0.11725zm267.82 0.01443c1.2577 0.0951 1.9462 0.46263 1.9462 1.0386 0 0.2667-0.37501 0.20749-2.0545-0.32488-0.80733-0.25593-1.4193-0.54432-1.3597-0.64084 0.0596-0.09649 0.72029-0.12943 1.468-0.07287zm-25.865 0.02749c2.5816-0.0062 4.826-0.0023 4.9873 0.0083 0.21153 0.01391 0.29325 0.60848 0.29325 2.1315v2.1122l-1.1149 0.0361c-3.1042 0.10079-10.15 0.12988-10.15 0.04193 0-0.05538 0.29031-0.35075 0.64529-0.65629 0.58314-0.5019 0.64564-0.70524 0.64564-2.1088v-1.5536zm9.9743 0.02614 2.2298 0.1186 0.0739 1.9376c0.0553 1.4457-4e-3 1.9636-0.23446 2.04-0.55837 0.18523-4.1884 0.2547-4.637 0.08871-0.52595-0.19455-0.72096-1.0219-0.6642-2.816 0.0498-1.5761-0.0303-1.5423 3.232-1.369zm-57.284 0.0018h3.4128c2.1185 0 3.4124 0.0891 3.4124 0.23481 0 0.12908-0.13869 0.23446-0.30804 0.23446-0.32563 0-1.3349 1.2266-1.3349 1.6223 0 0.50419 0.56245 1.4288 0.8691 1.4288 0.17831 0 0.55724 0.22018 0.84229 0.48955l0.51843 0.4899-3.1453-0.07907c-1.7298-0.04346-3.3667-0.18758-3.6376-0.32008-0.43153-0.21091-0.50101-0.48011-0.56072-2.1707zm15.586 0.0251 2.9741 0.0028v4.1327l-1.0888 0.14921c-0.59889 0.08201-1.4175 0.12876-1.819 0.10346-0.4015-0.02528-1.4428-0.08306-2.314-0.12823-0.8713-0.04515-1.5842-0.12408-1.5842-0.17533 0-0.05128 0.23243-0.48687 0.51637-0.96811 0.52644-0.89226 0.60259-2.0548 0.16914-2.577-0.39094-0.47106 0.0254-0.54239 3.1464-0.5394zm4.7797 0.03197c0.0836 0.0053 0.16901 0.11897 0.32833 0.3462 0.65807 0.93861 1.8872 1.4717 3.3932 1.4735 0.78095 0 1.5203-0.09526 1.643-0.21246 0.12262-0.11719 0.73777-0.49736 1.3669-0.84504 1.1024-0.60928 1.2669-0.63117 4.5449-0.60542 1.8706 0.01479 3.5046 0.09063 3.6311 0.1688 0.13385 0.08271 0.16462 0.57831 0.0736 1.1854-0.13499 0.90024-0.072 1.1534 0.45895 1.8496l0.61505 0.80687-0.83335 0.02922c-0.45835 0.01619-0.96524 0.04925-1.1266 0.07358-0.16134 0.02431-0.4782-0.11094-0.70408-0.30048-0.35634-0.299-0.41083-0.29967-0.41083-0.0048 0 0.28846-0.94924 0.33866-6.2779 0.33004-3.4529-0.0056-6.5155-0.044-6.806-0.08526-0.49208-0.06988-0.52805-0.19068-0.52805-1.7739 0-1.051 0.12004-1.8633 0.31489-2.1298 0.15187-0.2077 0.23342-0.31122 0.31698-0.30598zm-217.97 0.0018 0.16261 0.85053c0.08942 0.46781 0.17064 1.5372 0.18083 2.3763l0.01856 1.5254-4.472 0.01926c-4.1189 0.01774-4.5734-0.02225-5.7502-0.50606-0.70274-0.28901-1.4537-0.58144-1.6687-0.64985-0.25294-0.080494-0.48658-0.58586-0.66214-1.4315-0.47642-2.2949-0.96172-2.1217 6.039-2.1549zm-14.164 1.6164c0.20674 0.04983 0.39241 0.28677 0.53872 0.70647 0.38119 1.0935 0.33658 1.2238-0.58857 1.722-1.9045 1.0257-3.2099 3.6133-2.7892 5.5288 0.19688 0.89642 1.2017 2.1019 1.7519 2.1019 0.23193 0 0.72421 0.15956 1.0939 0.35478 0.36973 0.19521 1.1008 0.33488 1.6247 0.31045 0.52396-0.02445 1.0784 0.03357 1.2321 0.12858 0.40304 0.24909 0.34372 1.0086-0.091791 1.1757-0.41983 0.16109-0.50787 0.15704-1.9943-0.09454-1.2302-0.20821-2.737-0.91903-3.2993-1.5567-0.21135-0.23962-0.50281-1.0001-0.6477-1.6901-0.14489-0.68993-0.42062-1.4794-0.61297-1.754-0.94639-1.3512 0.28483-4.8675 1.9888-5.6801 0.44787-0.21356 0.95573-0.59021 1.1287-0.83711 0.23036-0.32889 0.45815-0.46617 0.66489-0.41632zm263.93 3.726c0.21826-0.0019 0.46203 0.1023 0.5418 0.23138 0.18357 0.29703-0.12689 0.29703-0.58649 0-0.30339-0.19605-0.29734-0.22821 0.0447-0.23138zm-180.52 0.1138c0.12908 0.07977 0.23481 0.19163 0.23481 0.24856 0 0.05692-0.10573 0.10348-0.23481 0.10348-0.12908 0-0.23481-0.11184-0.23481-0.24856 0-0.1367 0.10573-0.18327 0.23481-0.10348zm168.23 0.03196c7.724-0.02888 7.7333-0.02741 7.4327 1.259-0.39861 1.7056-0.38979 1.8032 0.22415 2.4656 0.33579 0.36232 0.57451 0.69508 0.53047 0.73914-0.0441 0.04404-0.83728 0.13047-1.7626 0.19218-1.3775 0.09185-1.6825 0.0495-1.6825-0.23412 0-0.19052-0.10539-0.34653-0.23446-0.34653-0.12909 0-0.23481 0.15842-0.23481 0.35204 0 0.22462-0.23349 0.35633-0.64529 0.36408-8.0081 0.15155-23.332 0.11526-23.437-0.05536-0.0754-0.12186-0.19033-1.2237-0.25544-2.4485l-0.1186-2.2267 6.5368-0.01725c3.5952-0.0095 9.7364-0.0294 13.647-0.04401zm-154.03 0.07771-0.023 1.8228-0.023 1.8228-0.68105-0.0746c-0.37452-0.041-1.0696-0.17516-1.5446-0.29807-1.0677-0.27626-2.5389 0.22893-3.6228 1.2442-0.66864 0.62626-0.88974 0.68871-2.5815 0.72814-1.0177 0.02371-2.4961 0.01215-3.2856-0.02579l-1.4353-0.06911 0.57241-1.4178c0.39659-0.98187 0.54945-1.7541 0.49678-2.5124l-0.07598-1.095 6.1019-0.06257zm79.615 0.0079c1.1944 0 1.5191 0.08032 1.6546 0.41048 0.20151 0.49071 0.21175 3.0274 0.013 3.2261-0.0767 0.07669-0.62516 0.01725-1.2191-0.13235-1.3606-0.3426-1.9102-0.202-3.2715 0.83747l-1.0912 0.83335-4.2307 0.05465c-2.3269 0.03012-4.231 0-4.231-0.06807 0-0.06763 0.52661-0.3099 1.1699-0.53837 0.64331-0.22849 1.2794-0.62068 1.4137-0.87151 0.13424-0.25083 0.21513-1.1711 0.1798-2.0452l-0.0643-1.5893h3.4032c1.8717 0 3.5851 0.10278 3.8078 0.22861 0.27866 0.1575 0.49451 0.13944 0.69239-0.05844 0.16631-0.1663 0.91363-0.2874 1.7733-0.2874zm91.588 0h2.5874l0.0251 0.64529c0.11737 3.0005 0.11679 3.608-4e-3 3.6792-0.0761 0.0448-1.7754 0.1477-3.7762 0.22863-2.9765 0.12038-3.5552 0.0932-3.1835-0.14955 1.1763-0.7682 1.5902-1.4418 1.4642-2.3825-0.0672-0.50173-0.0273-1.1616 0.0887-1.4666 0.20406-0.53672 0.29443-0.55453 2.7984-0.55453zm3.9955 0h9.3878v0.8488c0 0.76908-0.0496 0.83442-0.52806 0.69584-0.29043-0.08412-1.1382-0.25778-1.884-0.38573-1.2652-0.21707-1.4299-0.18992-2.4643 0.40463-0.60961 0.35042-1.5836 1.131-2.1645 1.7348-1.9036 1.9786-2.347 1.7457-2.347-1.2332zm-210 0.0033c0.22069-0.0019 0.78781 0.41377 1.26 0.9241 1.6315 1.7633 4.6546 1.7547 6.2236-0.01788 0.4116-0.46499 0.83062-0.68829 1.2909-0.68653 1.0402 0.0028 1.3812-0.0065 4.7659-0.13064 1.7302-0.06337 3.2895-0.06015 3.465 0.0072 0.22173 0.08509 0.0495 0.36962-0.56416 0.93201-0.77032 0.70594-0.88319 0.94449-0.88319 1.8647 0 0.77125 0.14208 1.2067 0.52806 1.6175 0.29043 0.30916 0.52803 0.60797 0.52806 0.66419 5.3e-5 0.11358-11.724 0.14046-15.314 0.03508l-2.2883-0.06705-0.04229-1.5759c-0.08222-3.0718 0.0581-3.5582 1.03-3.5668zm43.557 0.01267c2.0264-4e-3 3.8053 0.06999 3.9532 0.16433 0.14792 0.09435 0.30634 0.8579 0.35204 1.6969 0.0923 1.6946 0.23026 1.5942-1.741 1.2676-1.14-0.1889-2.1233 0.22279-2.9621 1.2404-0.57541 0.69809-0.82663 0.81416-1.9699 0.90863-0.73993 0.06113-1.3734 0.0063-1.4549-0.12547-0.15948-0.25806-0.13208-4.1135 0.0337-4.746 0.0927-0.35357 0.52291-0.39985 3.7889-0.40636zm58.695 0.0048c0.7073 0.02165 0.96329 0.08602 0.96329 0.1994 0 0.19418-0.33216 0.27373-0.99767 0.2386-2.0262-0.10697-2.4925-0.0021-3.3547 0.75497-0.76594 0.6725-0.83302 0.82597-0.69239 1.5842 0.19403 1.0461 0.64879 1.5629 1.8644 2.1188 0.94461 0.43199 0.89026 0.43473-8.6129 0.45552l-9.5638 0.02096v-5.1589h0.789c0.52349 0 1.0876 0.23701 1.6753 0.70408 0.48728 0.38724 0.90971 0.70408 0.93889 0.70408 0.0292 0 0.6221 0.10901 1.3174 0.24203 1.7979 0.34398 3.3852-0.05566 3.8587-0.97121 0.33413-0.64613 0.42761-0.67924 1.9294-0.68241 0.86797-0.0019 3.664-0.07027 6.2133-0.15231 1.806-0.05812 2.9647-0.07939 3.672-0.05775zm47.55 0.06738 8.5662 0.04677c4.7114 0.0257 8.6984 0.05879 8.8598 0.07322 0.21326 0.01919 0.29325 0.66389 0.29325 2.3622v2.336l-0.99733-0.03816c-0.54858-0.02096-9.8845 0.04702-20.747 0.15092l-19.749 0.18875-0.1461-0.66799c-0.21176-0.96994-0.0897-4.0717 0.1664-4.23 0.12004-0.07419 3.5916-0.12974 7.7146-0.12376l7.4963 0.01091 0.98564 0.80101c2.3087 1.8763 5.0133 1.7884 6.9108-0.22448zm-96.048 0.0076c2.4203-0.01179 4.4005 0.06747 4.4005 0.17602 0 0.10855-0.15045 0.19734-0.33417 0.19734-0.58093 0-1.7374 1.1575-1.9012 1.9029-0.19801 0.90159 0.45007 1.6648 1.7427 2.0521 2.1008 0.62939 3.9482 0.0512 4.5597-1.4271 0.30527-0.73803 0.29307-0.87443-0.22586-2.5279-0.0972-0.3096 0.98708-0.34333 8.9959-0.28054 5.0085 0.03925 9.2024 0.16648 9.3194 0.28295 0.117 0.11645 0.2123 1.2462 0.21178 2.5103l-1e-3 2.2986-2.5585 0.05671c-3.1817 0.07076-20.773 0.1907-20.826 0.142-0.0214-0.01961-1.7814-0.08046-3.9113-0.13545l-3.8724-0.1004v-5.1262zm66.535 0c1.2278 0.0069 2.5529 0.0898 2.9923 0.24307 0.75743 0.26419 1.1216 0.48747 1.0878 0.6666-0.0174 0.09213-0.0316 1.0653-0.0316 2.1624v1.9947h-3.2467c-1.7856 0-3.3-0.05321-3.365-0.11827-0.13105-0.13105 4e-3 -4.2953 0.15366-4.7357 0.0511-0.1505 1.1818-0.21967 2.4096-0.21281zm-83.844 0.02098h1.8774l0.0674 2.444c0.037 1.3441-0.0157 2.5077-0.11723 2.586-0.10156 0.07826-0.53317 0.10707-0.95917 0.0636-1.0293-0.10505-1.2002-0.62529-1.0166-3.0989zm-38.724 0.0581 0.06669 2.4938 0.06635 2.4938-1.3573 4e-3c-0.74658 0.0023-5.1331 0.05432-9.7478 0.11586-5.2751 0.07037-8.3902 0.02839-8.3902-0.11309 0-0.12378 0.21111-0.33799 0.46927-0.47615 0.87741-0.46957 1.2526-1.3492 1.1998-2.8122-0.0272-0.75377 0.04198-1.4268 0.15367-1.4958 0.11169-0.06902 4.1037-0.14476 8.8711-0.16812zm-57.192 0.05912c0.36619 0 1.4302 1.2979 1.8107 2.2088 0.42838 1.0255 0.31253 2.2497-0.26747 2.8297-0.6304 0.6304-0.99311 0.37631-1.4652-1.0252-0.30636-0.90944-0.36674-4.0134-0.07804-4.0134zm31.626 0c3.1042 0 3.7 0.15991 2.6633 0.71474-0.54861 0.2936-1.1534 1.5598-1.1534 2.4144 0 0.30937 0.21112 0.83104 0.46927 1.1592 0.25816 0.32821 0.46927 0.6596 0.46927 0.73604 0 0.07644-1.2121 0.1389-2.6936 0.1389-3.2726 0-3.4095-0.11084-3.2794-2.6523 0.13724-2.6814-0.10208-2.511 3.5245-2.511zm-4.8268 0.01959v1.3793c0 1.8757-0.12611 2.1514-0.85672 1.8736-0.32012-0.12172-1.2315-0.2214-2.0249-0.2214-1.3695 0-1.4914 0.04803-2.4079 0.94748-0.95982 0.942-0.97805 0.94825-3.1037 1.0578-1.5551 0.08018-2.1876 0.03035-2.3192-0.18255-0.18154-0.29374-0.14654-3.7445 0.04469-4.4043 0.08625-0.29756 0.91947-0.35984 5.3848-0.4012zm-29.508 0.02579c0.9734 0.07053 0.99803 0.09375 1.2686 1.1899 0.15176 0.61489 0.31019 1.7659 0.35204 2.5578 0.083625 1.5823 0.11293 1.5547-1.5079 1.4302-0.83483-0.06416-1.1149-0.1807-1.1149-0.4648 0-0.20865-0.14892-0.54635-0.33107-0.75014-0.18214-0.20377-0.39775-0.8455-0.4789-1.4264-0.11664-0.83493-0.046224-1.2189 0.33588-1.8324 0.43969-0.70602 0.57307-0.76952 1.4762-0.70408zm6.0916 0.02373c0.05056-0.08549 0.18699-0.05914 0.44899 0.01091 0.30482 0.08158 2.0988 0.14985 3.9866 0.15161l3.4324 0.0032 0.14164 0.7082c0.07789 0.3895 0.07553 1.1897-0.0052 1.7784-0.1304 0.9514-0.20138 1.0539-0.64013 0.9224-2.0883-0.62589-3.1674-0.42313-4.4056 0.8275-0.65205 0.65854-1.1161 0.92685-1.6038 0.92685h-0.6862l0.04882-1.6082c0.0278-0.91946-0.06504-1.7487-0.21659-1.9362-0.14578-0.1804-0.34174-0.68688-0.43558-1.1252-0.08065-0.37675-0.11589-0.5739-0.06532-0.65939zm9.4521 0.04848 1.8774 0.02148v4.9072l-0.88182 0.07287c-0.58892 0.04871-0.92362-0.03515-1.007-0.25234-0.06865-0.17889-0.09414-1.3206-0.05672-2.5371zm263.79 1.9627c0.51861 0.01003 1.7602 1.2603 1.7602 1.7726 0 0.25708-0.58849 0.33136-2.8163 0.35582-3.0362 0.03337-3.2077-0.04798-2.377-1.1283 0.40767-0.53012 2.1085-1.0256 3.4331-1.0001zm-0.46926 3.3179c1.6135 0 2.9335 0.08697 2.9335 0.19355 0 0.2537-0.91821 1.0848-1.5687 1.4198-1.2578 0.64784-4.2984-0.34581-4.2984-1.4047 0-0.11478 1.32-0.20867 2.9336-0.20867zm-7.9797 0.35204 0.13407 1.2906c0.0738 0.70994 0.0738 1.8719 0 2.5819l-0.13407 1.2906-19.89 0.05089-19.89 0.05053v-2.325c0-1.2788 0.10037-2.387 0.22313-2.4629 0.12273-0.07585 8.7038-0.19188 19.069-0.25783 10.365-0.06595 19.215-0.14233 19.667-0.16949zm-41.142 0.36235-0.10796 2.4003-0.1076 2.4003-41.326 0.11585-0.0921-2.2876c-0.0507-1.2581-0.0874-2.3024-0.0815-2.3209 6e-3 -0.01848 9.3944-0.09546 20.863-0.17086zm-168.44 0.10692h29.08l0.1303 0.58685c0.1759 0.79184 2.4754 1.9555 3.8638 1.9555 1.1107 0 3.1855-0.88756 3.1855-1.3628 0-0.55974 1.1427-1.0921 2.1824-1.0166l0.98598 0.07185v2.2002c0 1.2566-0.10077 2.2349-0.2348 2.281-0.5447 0.18728-39.084 0.2728-39.198 0.08697-0.06907-0.11176-0.0964-1.2381-0.06051-2.5031zm40.719 0.07426 1.2321 0.07528c0.98964 0.06057 1.4025 0.22402 2.0981 0.8299 1.5914 1.386 3.9064 1.3723 5.3442-0.03161l0.86944-0.84917 31.175 0.13615v4.4589l-20.246 0.01514c-11.136 0.0084-20.298-0.03549-20.36-0.09762-0.0621-0.06215-0.11276-1.1084-0.11276-2.325zm70.193 0.01408 0.6666 0.71406c0.85274 0.91287 1.6091 1.1926 3.2247 1.1926 1.4916 0 2.702-0.4918 3.243-1.3174 0.373-0.56928 0.39589-0.57229 3.8033-0.50778l3.4279 0.06499 0.0285 2.1992c0.0167 1.3073-0.0688 2.2317-0.21074 2.2797-0.25662 0.08669-10.924 0.24762-11.005 0.16604-0.0269-0.0269-6.9842-0.08446-15.461-0.12754-8.4764-0.04307-15.488-0.15423-15.58-0.24718-0.29528-0.29529-0.22888-3.9186 0.0753-4.1069 0.15281-0.09458 6.4676-0.20281 14.033-0.24065zm-149.11 0.01232 0.29978 0.72332c0.44682 1.0787 1.3906 1.4703 3.0934 1.2834 1.7668-0.19396 2.6064-0.54175 3.2344-1.3401l0.49196-0.6257 14.906-0.0051 14.905-0.0048-0.06841 2.4577-0.06876 2.4574-16.843-0.0097c-9.2636-0.0055-18.467 0.06275-20.451 0.15127-4.3383 0.19353-4.1786 0.30904-3.9378-2.8545l0.15986-2.0992 2.1391-0.06705zm-6.3085 0.06187 0.62226 0.0722-0.06773 2.2164c-0.03731 1.2191-0.17729 2.3484-0.31113 2.5097-0.27786 0.33481-4.0027 0.47536-9.8887 0.37267l-3.6964-0.06463v-0.69514c0-0.5018 0.36975-1.1365 1.3298-2.2824 0.7314-0.87304 1.3561-1.6225 1.3886-1.6657 0.03241-0.04312 0.47829-0.13478 0.9908-0.20353 0.85405-0.11454 1.0102-0.04423 1.8695 0.84125l0.93785 0.96605h3.794l1.2043-1.0695c0.89851-0.79802 1.3624-1.0511 1.8269-0.99733zm-13.107 0.18943c0.12908 0 0.23481 0.09926 0.23481 0.22071 0 0.12147-0.10573 0.28637-0.23481 0.36614-0.12908 0.07979-0.23446-0.01982-0.23446-0.22106s0.10538-0.36579 0.23446-0.36579zm233.17 3.2856c-0.19362 0-0.35204 0.10574-0.35204 0.23481s0.15842 0.23481 0.35204 0.23481c0.19363 0 0.35204-0.10574 0.35204-0.23481s-0.15841-0.23481-0.35204-0.23481z" stroke-width=".17602"/>
</svg>
