<?xml version="1.0" encoding="utf-8"?>
<svg xmlns="http://www.w3.org/2000/svg" height="245" version="1.1" width="300" xml:space="preserve" viewBox="0 0 300 245">
	<path d="m256.81 2.559e-7c-1.2366 0-1.4118 0.62629-1.8588 6.6534-0.18789 2.5334-0.6526 7.1397-1.0331 10.236-0.85473 6.9554-0.89902 7.4165-1.5324 16.037-0.28266 3.847-0.67548 8.8368-0.87316 11.089-0.19769 2.2519-0.41196 5.63-0.47632 7.5066-0.0644 1.8766-0.2072 4.1797-0.31688 5.118-0.34196 2.9255-0.90045 8.7715-1.0596 11.089-0.54195 7.893-2.0726 12.041-6.0542 16.405-3.077 3.3727-5.0784 6.9906-5.4434 9.8402-0.14611 1.1407-0.74464 1.2357-1.296 0.20542-0.25339-0.47346-0.71311-0.86067-1.0216-0.86067-0.78493 0-2.1492 1.5384-3.3492 3.7776-1.3175 2.4583-3.4812 8.2382-3.4812 9.2989 0 0.68625-0.21293 0.85831-1.2795 1.0346-0.70373 0.11632-1.9287 0.21337-2.722 0.21542-1.7508 5e-3 -5.7409 1.4539-6.9154 2.512-0.47016 0.4236-1.7374 1.433-2.8164 2.2431-1.079 0.81015-1.9622 1.5761-1.9622 1.7018 0 0.12574-0.49868 0.76082-1.1086 1.4115-0.60989 0.65063-2.0049 2.9715-3.0998 5.157-2.6078 5.2054-3.2615 8.8247-2.694 14.909 0.46019 4.9334 0.83141 7.0209 1.5414 8.6677 0.98758 2.2906 2.3956 2.0218 2.8094-0.53629 0.12725-0.78676 0.53544-2.3872 0.90715-3.5566 0.86659-2.7263 3.4956-5.6433 7.0803-7.856 1.4203-0.8767 2.6705-1.7182 2.7779-1.8698 0.10744-0.15162 0.87361-0.39123 1.7028-0.5328 1.0239-0.1748 1.5444-0.44623 1.6214-0.84567 0.15391-0.79917-0.79646-0.76237-3.3792 0.13145-3.9811 1.3777-10.21 6.6065-10.859 9.1155-0.17849 0.68972-0.49693 1.9163-0.70772 2.726-0.38683 1.4859-1.1407 1.813-1.26 0.54679-0.0339-0.35977-0.22475-1.575-0.42434-2.701-0.47201-2.6628-0.46956-9.7239 5e-3 -12.306 0.2044-1.1135 1.1313-3.567 2.0597-5.4524 1.3934-2.8299 2.17-3.913 4.4498-6.2081 3.6516-3.6762 6.4955-5.1452 10.449-5.3969 1.5102-0.0962 2.8104-0.054 2.8899 0.0935 0.15461 0.28687-0.0753 2.8346-0.87167 9.6508-0.27407 2.3458-0.51761 7.2594-0.54079 10.919-0.0421 6.6532 0.14728 8.6089 1.8468 19.107 0.2886 1.7828 0.82195 5.6215 1.1855 8.5302 0.3636 2.9088 0.8187 5.9794 1.0111 6.8239 0.1924 0.84448 0.58518 3.038 0.87316 4.8746 0.47525 3.0309 0.4731 3.5824-0.023 5.9712-1.1906 5.7333-1.2262 12.798-0.0705 13.954 0.68309 0.6831 1.5499 0.21542 2.2906-1.2365 0.35361-0.69314 0.88434-1.4608 1.1796-1.7058 0.54934-0.45591 0.74107-1.394 0.28089-1.3745-0.40338 0.0171-1.244 0.79429-1.6574 1.5324-0.20778 0.371-0.61109 0.7205-0.89616 0.7767-0.40712 0.0803-0.55173-0.35846-0.67374-2.0452-0.17139-2.3695 0.27766-4.3693 0.98112-4.3693 0.61835 0 0.57461-0.58135-0.071-0.94263-0.45754-0.25606-0.47286-0.6125-0.11946-2.7524 0.22329-1.3521 0.46264-2.4018 0.5318-2.3326 0.14827 0.14826 0.75121 2.2436 2.3241 8.0749 0.63273 2.3458 1.3099 4.6832 1.5049 5.194 0.19499 0.51082 0.90046 3.1208 1.5674 5.8003 0.66693 2.6794 1.5066 5.7929 1.8658 6.9188 0.35924 1.126 1.0558 3.4291 1.5484 5.118s1.19 3.8216 1.5494 4.7392c0.35936 0.91755 0.56578 1.8097 0.45883 1.9827-0.38052 0.61569 2.032 8.5972 2.8459 9.4154 0.42852 0.43077 0.7792 0.9977 0.7792 1.26 0 0.59522-1.3093 1.5394-2.1347 1.5394-1.8851 0-6.3669 3.7866-8.4808 7.1652-2.0677 3.305-1.9444 9.6497 0.22991 11.824 1.074 1.074 1.5677 0.82664 4.9261-2.4686 3.7054-3.6356 6.0064-4.9352 9.2125-5.203 4.0391-0.33746 7.1761-0.14034 9.097 0.57227 1.7389 0.64511 4.2099 2.2775 4.2099 2.7809 0 0.14262 0.46063 0.45004 1.0236 0.68323 0.56298 0.2332 1.0236 0.564 1.0236 0.73522 0 0.17123 0.53056 0.6245 1.179 1.0071 0.6485 0.38262 1.2732 0.99128 1.388 1.353 0.14316 0.45104 0.52099 0.65774 1.2025 0.65774 0.82003 0 1.129-0.25321 1.7683-1.4499 1.5665-2.9325 0.65777-11.925-1.5219-15.064-0.40423-0.58201-1.4347-1.7586-2.2901-2.6145-0.85543-0.85593-2.1499-2.4198-2.8764-3.4752l-1.3205-1.9188 0.41233-2.3251c0.22699-1.2789 0.79911-3.7841 1.271-5.5669 2.9888-11.292 3.2224-12.239 4.0394-16.378 0.31489-1.5951 0.87982-3.8982 1.2555-5.118 0.86866-2.8202 4.3248-16.34 4.7537-18.595 0.88775-4.6682 1.4403-7.0471 2.1786-9.3834 0.44481-1.4075 1.0337-3.6478 1.3085-4.9786s0.81994-3.0174 1.2115-3.7481c0.39161-0.73067 0.71392-1.8684 0.71622-2.528 3e-3 -0.6596 0.23272-2.0437 0.51232-3.0758 0.59594-2.2 1.2842-14.624 0.90714-16.376-0.14451-0.67152-0.49274-1.2373-0.7977-1.296-0.4696-0.0904-0.57322 0.65534-0.7797 5.6273-0.13381 3.2226-0.54067 7.3753-0.92964 9.4854-0.3805 2.0643-0.73155 4.0605-0.7802 4.4358-0.2345 1.8095-0.66135 3.5016-1.1031 4.3738-0.26792 0.52903-0.71923 2.1412-1.0026 3.5826-0.28336 1.4414-0.58755 2.9872-0.67625 3.4347-0.0887 0.44751-0.385 1.2459-0.65826 1.7743-0.27322 0.52838-0.4968 1.4966-0.4968 2.1517s-0.13965 1.2774-0.31039 1.383c-0.17071 0.10552-0.48516 1.304-0.69871 2.664-0.21355 1.3599-0.61327 3.2406-0.88867 4.1789-0.54556 1.8588-1.4105 5.59-1.8588 8.0184-0.15587 0.84448-0.68413 2.9173-1.174 4.6062-1.1597 3.998-3.4876 13.02-3.6976 14.33-0.0902 0.56297-0.56572 2.2475-1.0566 3.7436-0.49085 1.4961-0.89215 3.2328-0.89215 3.8595 0 1.1873-0.72311 3.8745-1.5604 5.8003-0.26793 0.61626-0.4868 1.4995-0.4868 1.9622 0 1.0239-0.14059 1.042-1.0466 0.13594-0.55346-0.55343-0.80834-0.6196-1.1846-0.30738-0.40849 0.33904-0.39268 0.5193 0.10797 1.2185 0.3308 0.46201 0.83631 0.76241 1.1566 0.68774 0.57171-0.13329 0.65534 0.2718 1.0581 5.116 0.10784 1.2971 0.80509 2.2066 1.4899 1.9438 0.51249-0.19666 3.2093 2.539 4.8262 4.8956 1.434 2.0902 2.2098 5.3697 2.0162 8.5227-0.18602 3.03-0.3445 3.5361-1.1081 3.5361-0.59331 0-0.61064-0.16052-0.10347-0.97263 0.55946-0.89581-0.13434-6.953-1.0221-8.9221-0.74481-1.652-4.9509-6.4581-5.3285-6.0887-0.27353 0.26764 1.4031 3.0178 1.8398 3.0178 0.31003 0 1.9376 2.5467 2.617 4.0944 0.45627 1.0395 0.96283 7.8515 0.58276 7.8375-0.14932-6e-3 -0.77057-0.46378-1.3805-1.0186-0.88798-0.80782-1.1091-1.2732-1.1091-2.3356 0-0.7297-0.23031-1.9796-0.5118-2.7774s-0.5118-1.7844-0.5118-2.1922c0-0.40778-0.57714-1.8854-1.2825-3.2837-0.95034-1.884-1.4805-2.5707-2.0472-2.6515-0.95208-0.13574-0.98039 0.40458-0.0695 1.3155 0.38217 0.38216 0.60956 0.83227 0.50582 1.0001-0.10375 0.16785 0.18279 0.70574 0.63625 1.195 1.1544 1.2457 2.5546 7.7179 1.6604 7.6751-0.14074-7e-3 -0.68162-0.36009-1.2015-0.7857-0.71397-0.58446-1.0197-1.2318-1.2495-2.644-0.50694-3.1147-2.1596-7.6317-2.8379-7.757-0.73017-0.1349-0.7586 0.47437-0.083 1.7698 0.28034 0.53752 0.50981 1.3898 0.50981 1.8938s0.13675 1.0622 0.30439 1.2405c0.30302 0.32228 1.1612 3.9194 0.97862 4.1019-0.0526 0.0526-0.65111-0.0787-1.3305-0.29138-1.2156-0.38047-1.239-0.42206-1.4735-2.619-0.13104-1.2279-0.26511-3.141-0.29738-4.2514-0.0589-2.0254-0.47928-2.6664-1.1885-1.8118-0.26245 0.31623-0.30119 1.5944-0.12644 4.1459 0.20012 2.9224 0.15884 3.7239-0.19842 3.861-0.24802 0.0952-0.51882 0.10545-0.60178 0.0225-0.083-0.083-0.2532-1.944-0.37837-4.1354-0.1877-3.2865-0.3084-3.9174-0.68773-3.6026-0.32902 0.27306-0.45982 1.3425-0.45982 3.7591 0 3.248-0.0318 3.3923-0.83119 3.7566-1.0979 0.50023-1.8983 0.15598-1.8983-0.81619 0-0.4319 0.31434-1.9201 0.69874-3.3072 0.38439-1.3871 0.64863-2.8429 0.58727-3.2348-0.0972-0.62054-0.1896-0.56677-0.71772 0.41634-0.33352 0.62083-0.89173 2.233-1.24 3.5826-0.91306 3.538-1.2741 4.3303-1.9737 4.3303-0.33821 0-0.96625 0.24616-1.3955 0.54679-0.42922 0.30063-0.88038 0.44611-1.0031 0.32338-0.39761-0.39761 0.89639-4.5552 1.8748-6.0232 0.52324-0.7851 1.1256-1.7254 1.3385-2.0897s0.55831-0.8337 0.7677-1.0431c0.47544-0.47544 0.49691-1.2675 0.0345-1.2675-0.44648 0-2.3605 2.0986-2.3736 2.6025-5e-3 0.2116-0.24958 0.58325-0.54229 0.82618-0.80575 0.66871-1.7728 2.8771-2.2076 5.0411-0.21409 1.0653-0.45959 2.2437-0.54579 2.619-0.15896 0.69203-5.5864 5.7223-6.3591 5.8937-1.1254 0.24967-1.7247-5.7693-0.83218-8.3598 0.92391-2.6817 4.3927-6.2629 7.2042-7.4376 1.9326-0.80749 2.604-0.59445 1.0791 0.34237-0.73746 0.45307-1.4746 1.0623-1.6379 1.354-0.16325 0.29172-0.49034 0.5303-0.72722 0.5303-0.52758 0-1.61 1.4332-3.0128 3.9895-0.89666 1.6338-1.0769 2.3658-1.181 4.7952-0.11089 2.5871-0.0645 2.856 0.47632 2.753 0.48688-0.0928 0.63468-0.59355 0.7887-2.6695 0.26003-3.5048 1.7378-6.4199 4.3223-8.5267 2.6853-2.1889 2.8866-2.4158 2.6625-2.9998-0.11828-0.30823 0.17264-0.91294 0.70773-1.4714 0.63652-0.66438 0.84997-1.173 0.71272-1.6978-0.12652-0.48382 0.099-1.1832 0.63726-1.9752 1.0929-1.6084 1.0701-2.9099-0.072-4.0519-0.90067-0.90067-0.90909-0.90206-1.4409-0.21442-0.50599 0.6542-0.62245 0.42358-2.1622-4.2819-0.89511-2.7355-1.6288-5.2536-1.6304-5.5954-2e-3 -0.34173-0.8414-3.3358-1.8668-6.6534s-2.1013-7.0577-2.3906-8.3113-0.80422-2.9424-1.1441-3.7531c-0.33985-0.81063-0.81594-2.3952-1.0581-3.5212-0.24215-1.126-0.56993-2.4312-0.72822-2.9004-0.70326-2.0844-3.3284-11.623-3.7091-13.477-0.23119-1.126-0.65737-2.9685-0.94714-4.0944-0.28976-1.126-0.56457-3.0451-0.61076-4.2649-0.0828-2.1866-0.40572-4.1759-1.385-8.5302-0.27433-1.2198-0.63943-3.5995-0.81119-5.2885s-0.581-4.2224-0.90915-5.6298c-0.47702-2.0459-0.59987-4.2009-0.61377-10.748-0.0181-8.5231 0.0415-9.8968 0.50481-11.601 0.15306-0.56298 0.46103-2.6299 0.68424-4.5932 0.2232-1.9634 0.6144-4.0698 0.86966-4.6807 0.25527-0.61094 0.46432-1.5566 0.46432-2.1017 0-2.0812 3.6782-11.314 4.5073-11.314 0.18537 0 0.77771 0.47182 1.3165 1.0486 0.65257 0.69858 1.2372 1.0117 1.7508 0.93814 0.86937-0.12444 1.0733-0.65996 1.5894-4.1714 0.19035-1.2952 0.47105-2.4467 0.62376-2.559 0.41771-0.30718 1.813-2.3553 1.8148-2.664 7.7e-4 -0.14835 1.1215-1.4327 2.4905-2.8544 1.8735-1.9454 2.7806-3.2325 3.6666-5.203 1.0342-2.3001 1.2861-2.6182 2.0737-2.6185 0.49309-2.05e-4 1.0921-0.23638 1.3315-0.5248s0.75368-0.48018 1.1426-0.42634c0.43275 0.05992 0.7494-0.1163 0.81669-0.45382 0.0786-0.39408-0.28123-0.65059-1.2605-0.89916-1.2154-0.30848-1.3933-0.27524-1.5744 0.29539-0.29972 0.94432-1.182 0.80294-1.182-0.18943 0-0.45808 0.15371-0.92762 0.34137-1.0436 0.18766-0.11598 0.34137-0.72756 0.34137-1.359 0-0.63142 0.14538-1.8892 0.32337-2.7949 0.3138-1.5967 1.0326-8.2514 1.228-11.371 0.0842-1.344 0.47353-6.6077 0.97213-13.136 0.086-1.126 0.31238-3.5828 0.50281-5.4594 0.19041-1.8766 0.42826-4.7337 0.52879-6.3496 0.10053-1.6159 0.25471-3.1514 0.34237-3.4122 0.15741-0.46826 0.71526-9.583 1.0731-17.534 0.10134-2.2519 0.31888-4.2301 0.48383-4.3958 0.16493-0.16567 0.56424-0.19988 0.88714-0.075972 0.52787 0.20256 0.53358 0.26773 0.0545 0.64275-0.41809 0.32729-0.45727 0.60072-0.18092 1.27 0.58885 1.4261 0.65419 4.3453 0.10195 4.5573-0.74828 0.28715-0.60823 4.2014 0.20093 5.6128 0.35581 0.62063 0.63697 1.4653 0.62428 1.8768l-0.0236 0.74821-0.36988-0.7677c-0.41576-0.86211-1.29-1.0389-1.29-0.2609 0 0.27867 0.47874 1.2841 1.0636 2.2346 0.58486 0.95052 0.94757 1.8359 0.80619 1.9672-0.14141 0.13135-0.32558 0.04665-0.40934-0.18793-0.14077-0.3941-1.4605-0.63166-1.4605-0.2629 0 0.61798 1.1665 2.8891 1.5619 3.0408 0.50287 0.19297 0.68832 1.2315 0.21992 1.2315-0.14594 0-0.52831-0.30742-0.84967-0.68274-1.1237-1.3124-1.2746-0.66588-0.29889 1.2795 0.54123 1.079 1.0911 2.3077 1.222 2.73 0.3296 1.0627-0.40241 0.9927-0.89366-0.08547-0.21376-0.46915-0.53762-0.85317-0.71972-0.85317-0.61739 0 0.0491 2.3855 1.1026 3.9465 1.0019 1.4845 1.3298 2.5391 0.78821 2.5345-0.14075-0.0013-0.52302-0.47214-0.84967-1.0461-0.32666-0.57396-0.74243-0.95168-0.92366-0.83968-0.33937 0.20975-0.2237 0.81618 0.40586 2.1322 0.26463 0.55317 0.24994 0.89021-0.0545 1.257-0.33666 0.40564-0.1835 0.98502 0.80169 3.0333 0.6697 1.3924 1.2175 2.8109 1.2175 3.1523 0 0.5481-0.10551 0.52392-0.90064-0.20642l-0.90068-0.82718 0.22993 1.4994c0.12657 0.82472 0.51587 1.901 0.86515 2.3916 0.78718 1.1055 1.0188 2.4801 0.45034 2.674-0.2462 0.08397-0.42684-0.13926-0.42684-0.5278 0-0.80956-1.2034-2.3859-1.5544-2.0362-0.13673 0.13621-0.0625 0.4717 0.16493 0.74571 0.22742 0.27402 0.45839 1.5447 0.51331 2.8234 0.1073 2.4986 0.29766 3.1861 1.273 4.5952 0.38224 0.55224 0.62094 1.4845 0.61176 2.3886l-0.0151 1.4824-0.67522-1.2795c-0.37152-0.70373-0.90254-1.2795-1.1796-1.2795-0.27701 0-0.5033 0.08312-0.5033 0.18443 0 0.35671 1.4663 3.067 2.0942 3.871 0.68892 0.8821 0.81165 1.404 0.33088 1.404-0.16733 0-0.39941-0.37944-0.51582-0.84318-0.20492-0.81656-1.4401-1.7867-1.8073-1.4195-0.0995 0.09949 0.29848 0.91787 0.88467 1.8188 0.58617 0.90093 1.3198 2.1756 1.6304 2.8324 0.66453 1.4054 0.97437 3.7531 0.4953 3.7531-0.18379 0-0.58121 0.24684-0.88317 0.54879-0.50454 0.50454-0.59346 0.43579-1.0996-0.85267-0.30291-0.7711-0.7576-1.402-1.0106-1.402-0.53069 0-0.62704 1.2211-0.12094 1.5339 0.18665 0.11536 0.49857 0.50745 0.69324 0.87116 0.30472 0.5694 0.24797 0.64992-0.41034 0.57828-1.1109-0.12089-1.1779 0.90923-0.13246 2.0367 0.48233 0.52016 0.82759 1.0928 0.76771 1.2725-0.16043 0.48122-1.7908 0.39738-2.4196-0.12445-0.47853-0.39715-0.54379-0.31832-0.54379 0.66075v1.1126l1.8763-0.22042c1.6958-0.19931 1.8768-0.15823 1.8768 0.42984 0 0.55646 0.35225 0.68644 2.4306 0.89516 1.9751 0.19836 2.4622 0.36469 2.599 0.88766 0.0926 0.35394 0.30355 0.64325 0.46932 0.64325s0.30138 0.15371 0.30138 0.34137c0 0.18766-0.23032 0.34137-0.51181 0.34137-0.53166 0-0.65562 0.59215-0.31187 1.4879 0.15142 0.3946 0.39578 0.44556 1.0116 0.21142 0.94786-0.36037 0.71118-0.66459 3.1853 4.1009 3.271 6.3006 4.0387 7.9605 4.9486 10.701 1.1122 3.3502 1.115 3.5771 0.038 3.3712-0.57462-0.10985-0.85118-0.01072-0.84767 0.30339 9e-3 0.80395 0.58653 1.4269 1.1296 1.2185 0.83477-0.32034 1.169 0.43706 1.4279 3.2348 0.16142 1.7439 0.40166 2.6835 0.71673 2.8044 0.26058 0.1 0.47331 0.46301 0.47331 0.80669 0 0.72784 0.62609 1.444 1.2625 1.444 0.64047 0 0.54707-0.603-0.27238-1.7538l-0.71673-1.0061 0.97263 0.23591c0.53471 0.12957 1.3274 0.36661 1.7618 0.5268 0.43447 0.16018 1.2135 0.29088 1.7308 0.29088s1.6201 0.21132 2.451 0.46932 2.3556 0.66218 3.3877 0.89816c2.3846 0.54521 3.3187 1.0248 5.1195 2.6285 4.0822 3.6354 6.8224 9.5618 6.8224 14.755 0 2.1719-0.94379 8.5475-1.3375 9.034-0.16224 0.2005-0.38332 1.0553-0.49133 1.8998-0.10799 0.84447-0.29432 2.1883-0.41382 2.9858-0.1365 0.91085-0.0861 1.45 0.13545 1.45 0.73835 0 1.391-1.0946 1.7808-2.9859 0.22235-1.0789 0.61711-2.3761 0.87718-2.8829s0.47682-1.5817 0.4813-2.3886c4e-3 -0.80688 0.16247-2.0813 0.35138-2.8319 0.57366-2.2794 0.3858-7.8813-0.33687-10.039-1.0152-3.0314-2.3821-5.7448-3.4127-6.7754-0.52435-0.52436-1.2077-1.4458-1.5189-2.0477-1.1015-2.1301-5.1588-4.6508-8.6402-5.3684-0.5237-0.10795-1.7968-0.41387-2.8289-0.67924-1.0321-0.26538-2.4703-0.60476-3.1963-0.75421-1.265-0.26041-1.3553-0.37067-2.1592-2.6575-0.46137-1.3124-1.1341-2.6413-1.4949-2.9529-0.36085-0.31157-0.65913-1.0025-0.66325-1.5354-4e-3 -0.5329-0.31153-1.6385-0.68274-2.4566-0.37119-0.81805-0.67474-1.6216-0.67474-1.7858 0-0.67827-5.8705-12.003-6.9683-13.442-0.48348-0.63388-0.87915-1.2988-0.87915-1.4779 0-0.17913-0.5658-1.1478-1.257-2.1527-1.5903-2.3118-2.7195-5.9439-2.8009-9.007-0.0348-1.3085-0.18553-2.9163-0.33487-3.5731-0.14937-0.65681-0.30852-2.3406-0.35338-3.7416-0.0449-1.401-0.14988-2.6585-0.23389-2.7944-0.084-0.13594-0.22335-3.903-0.30939-8.3713-0.086-4.4683-0.23479-9.9664-0.33088-12.218-0.17593-4.1234-0.64597-21.932-0.61227-23.202 0.14449-5.4415 0.11168-6.7592-0.19192-7.73-0.19661-0.62774-0.44857-1.9091-0.5606-2.8474-0.25985-2.1762-1.1329-3.4122-2.4106-3.4122zm-1.8643 43.162c-0.18766 0-0.34137 0.23031-0.34137 0.5118s0.15371 0.5118 0.34137 0.5118 0.34087-0.23031 0.34087-0.5118-0.15321-0.5118-0.34087-0.5118zm-213.7 11.574c-0.13858-0.02877-0.27242-0.01894-0.40035 0.03099-0.34114 0.13315-0.64039 0.55034-0.87416 1.2755-0.22686 0.70373-0.50766 1.4332-0.62376 1.6209-0.11611 0.18766-0.22713 1.1855-0.24691 2.2176-0.06079 3.1701-0.10964 14.45-0.06647 15.354 0.07898 1.6542-0.61056 6.7371-1.1805 8.7007-0.2179 0.75064-0.9012 2.0929-1.5184 2.9824-0.61721 0.88946-1.1226 1.7454-1.1226 1.9023 0 0.15687-0.39706 0.65763-0.88266 1.1126-1.3755 1.2887-3.198 5.377-3.7316 8.3713-0.55054 3.0893-0.63715 6.5589-0.18143 7.2792 0.21002 0.33194 0.11176 0.7779-0.30138 1.365-0.33745 0.47952-0.72785 1.2557-0.86717 1.7248-0.26036 0.87672-1.0626 2.8607-1.5094 3.7326-0.44648 0.87122-1.0428 0.78306-1.407-0.20792-1.2756-3.4717-3.8284-6.2583-7.0313-7.675-2.3558-1.0421-5.6861-0.72891-7.9934 0.75171-2.8678 1.8403-5.106 4.653-7.3727 9.2639-2.5157 5.1176-3.301 8.3787-3.7231 15.46-0.30432 5.1059-0.28259 8.9857 0.08347 14.672 0.2921 4.5373 0.71269 5.9729 1.7478 5.9682 0.70411-3e-3 1.976-2.1218 2.2951-3.823 0.19853-1.0582 0.38935-1.2579 1.3785-1.4434 1.444-0.27088 2.1944-1.3279 3.2388-4.5617 0.67906-2.1027 0.9079-2.4688 1.4534-2.3261 1.1739 0.30699 2.1608-0.49749 3.2273-2.63 0.57832-1.1564 1.1514-2.4505 1.2735-2.8759 0.12211-0.42538 0.78685-1.0676 1.4769-1.427 1.3409-0.69826 2.456-2.1654 3.1398-4.1314 0.36072-1.0371 0.5521-1.1948 1.3155-1.0836 0.49143 0.0716 1.3543-0.11052 1.9173-0.40484 0.91861-0.48022 1.0354-0.48145 1.1371-0.01 0.06231 0.28894-0.06105 1.0175-0.27389 1.6189-0.6461 1.8256-2.3271 11.152-2.534 14.059-0.10687 1.5013-0.03924 4.1113 0.15044 5.8003 0.18968 1.6889 0.48705 4.683 0.66075 6.6534 0.1737 1.9704 0.47528 4.581 0.67024 5.8008 0.49477 3.0955 1.9698 8.8559 2.4006 9.3749 0.19719 0.2376 0.81736 2.179 1.3785 4.3143 1.7407 6.6246 2.0222 7.6146 2.3636 8.3183 0.2996 0.61748 0.86029 2.3554 3.0578 9.4754 0.39218 1.2706 0.71396 2.7291 0.71473 3.2413 7.68e-4 0.51212 0.30181 1.4241 0.66924 2.0267l0.66774 1.0961-1.266 1.4134c-0.72161 0.8056-2.2723 1.9119-3.6041 2.571-3.7043 1.8334-7.4183 4.8901-7.1568 5.8902 0.22117 0.84576-0.47227 2.4351-1.0626 2.4351-0.27953 0-0.65869 0.28098-0.84268 0.62476-0.41685 0.7789-0.57954 3.5395-0.24091 4.0874 0.41306 0.66835 1.5749-0.17372 1.5749-1.1416 0-0.46255 0.1949-0.84118 0.43284-0.84118 0.23792 0 0.96691-0.35967 1.6204-0.79919 2.197-1.4777 4.8068-1.3448 5.3285 0.2714 0.25732 0.7973 0.96373 1.5514 1.4534 1.5514 0.48692 0 1.0596-1.1516 1.0596-2.1302 0-2.1999 2.1882-2.4272 3.4112-0.35437 0.52483 0.88953 0.87569 1.1491 1.3765 1.0181 0.43332-0.11331 0.67174-6e-3 0.67174 0.30389 0 0.62521 0.89588 0.6229 1.1361-3e-3 0.10196-0.26573 0.10956-1.8918 0.01699-3.6131-0.13528-2.5157-0.05994-3.2949 0.38435-3.973l0.55279-0.84367 1.173 1.5359c0.64497 0.84469 1.1725 1.6481 1.1725 1.7853 0 0.469 1.1282 1.4974 1.6429 1.4974 0.58887 0 2.343-1.8512 2.6395-2.7854 0.28687-0.90386 0.72139-0.77137 1.0216 0.31138 0.46018 1.6596 0.43881 3.2791-0.07047 5.331-0.2736 1.1023-0.41648 2.2153-0.31738 2.4736 0.30572 0.7967 1.5584 0.52107 2.5465-0.56078 0.63281-0.69284 1.2085-1.0008 1.7563-0.93864 0.59954 0.068 0.93713-0.15548 1.276-0.84568 0.25338-0.51607 0.59723-0.93814 0.76421-0.93814 0.16698 0 0.88771 0.53663 1.6019 1.1925 0.71417 0.65592 1.562 1.193 1.8838 1.194 0.811 2e-3 1.3798-1.2084 1.1211-2.3866-0.2714-1.2357 0.32146-2.3886 1.2285-2.3886 0.91196 0 1.8613 0.52792 3.2947 1.8323 0.64548 0.58737 1.4269 1.0681 1.7368 1.0681 0.85215 0 0.6658-2.073-0.39485-4.3898-0.86936-1.8989-0.9682-1.9841-4.0604-3.4852-3.1432-1.5259-4.8597-2.6042-6.3126-3.966-0.56875-0.53311-0.74684-1.0748-0.72422-2.2022 0.01651-0.82236 0.16224-1.577 0.32388-1.6768 0.16164-0.0999 0.20843 0.0411 0.10396 0.31338-0.10448 0.27226-0.0026 0.61073 0.22641 0.75221 0.67628 0.41797 1.2834-0.77837 1.1001-2.1677-0.09686-0.73409 0.06905-1.9042 0.39685-2.7974 0.30992-0.84448 0.77538-2.303 1.0341-3.2413 0.25872-0.9383 0.87998-2.9345 1.381-4.4358 0.50099-1.5013 1.1403-3.4204 1.4205-4.2649 0.28014-0.84447 0.72382-2.5333 0.98562-3.7531 1.2518-5.8323 1.9604-8.813 2.3846-10.028 0.25481-0.72962 0.40436-1.4219 0.33237-1.5384s0.012-0.90098 0.18643-1.7438c0.17442-0.84285 0.40193-2.2234 0.50581-3.0678 0.10388-0.84448 0.34599-2.1497 0.53779-2.9004 1.3311-5.2096 2.3212-17.808 1.6844-21.43-1.3702-7.7942-1.7054-10.623-1.3055-11.023 0.43085-0.43085 0.26739-0.72888-0.5118-0.93264-0.75269-0.19684-0.7511-0.20538 0.23441-1.234 0.99072-1.0341 1.8883-1.3557 1.8883-0.67674 0 0.19745 1.0718 1.5408 2.3821 2.9854 4.1256 4.5485 4.4705 4.9794 5.2325 6.5385 0.56238 1.1507 1.0029 1.5882 1.7998 1.7873 0.79404 0.19835 1.2118 0.61065 1.6879 1.6664 0.34795 0.77161 0.97936 1.5348 1.403 1.6958 0.46877 0.17823 1.0576 0.96137 1.5049 2.0012 0.47649 1.1076 1.1175 1.934 1.8218 2.3496 0.87571 0.51668 1.1681 0.99536 1.5084 2.4696 0.61247 2.6534 1.921 3.7878 3.0578 2.651 0.59652-0.59652 0.7992-0.2053 1.0661 2.0582 0.24243 2.0561 0.77752 3.1223 1.5669 3.1223 0.80772 0 1.2157-0.95232 1.7018-3.9715 0.58194-3.614 0.62791-5.0106 0.36236-11.041-0.11155-2.5334-0.26414-6.986-0.33887-9.8947-0.27704-10.783-1.0041-13.587-4.4418-17.127-2.8419-2.927-5.7239-4.0956-10.079-4.0874-5.0148 9e-3 -5.1792 0.0889-12.795 6.2026-1.9213 1.5423-3.0074 1.6583-3.1873 0.34037-0.06402-0.46916-0.32102-1.0835-0.57078-1.365s-0.5565-0.92255-0.68174-1.4244c-0.12524-0.50191-0.76489-1.5401-1.4215-2.3071l-1.1935-1.3945-0.31988-4.8216c-0.25296-3.8141-0.4961-5.2622-1.1641-6.9318-0.4644-1.1608-0.84468-2.2182-0.84468-2.3496-2e-6 -0.34407-3.3664-4.632-4.6232-5.8887-1.0514-1.0514-1.0648-1.1089-1.0876-4.6072-0.05456-8.3932-0.68566-13.428-2.4711-19.706-1.0152-3.5701-2.2163-5.6689-3.1863-5.8702zm1.265 7.6281c0.3051-0.3051 0.89066 1.5542 0.89066 2.8279-2e-6 0.6446-0.13585 1.172-0.30188 1.172-0.33879 0-0.88409-3.7047-0.58877-4zm-1.4774 2.9764c0.19874 0 0.26642 0.15371 0.15044 0.34137-0.11598 0.18766-0.2786 0.34087-0.36136 0.34087-0.08276 0-0.15044-0.15321-0.15044-0.34087 0-0.18766 0.16262-0.34137 0.36136-0.34137zm216.7 0.73172c-0.10484-0.02557-0.19282-0.0031-0.25539 0.05948-0.12516 0.12516-0.14904 0.41004-5e-3 0.7867 0.17069 0.44478 0.31873 0.48847 0.62226 0.18493 0.30355-0.30354 0.30224-0.49396-5e-3 -0.80169-0.1303-0.1303-0.25204-0.20386-0.35688-0.22941zm-214.46 1.0311c0.43198 0.08319 0.70545 0.54816 0.87116 1.4824 0.3609 2.0347 0.32714 4.6022-0.06048 4.6022-0.18766 0-0.34137 0.63074-0.34137 1.4015 0 1.1054 0.10806 1.36 0.5118 1.205 0.40725-0.15627 0.5118 0.11079 0.5118 1.308 0 0.82751-0.16109 1.6042-0.35786 1.7258-0.24317 0.15029-0.22534 0.38036 0.05548 0.71873 0.23928 0.28832 0.38326 1.3213 0.34237 2.4546-0.06062 1.6799 0.07566 2.1728 0.96213 3.4812 0.56793 0.83826 1.0357 1.6348 1.0391 1.7703 0.0034 0.13557 0.8046 1.2483 1.7803 2.4726 1.3864 1.7395 1.7888 2.5198 1.8428 3.5706 0.09419 1.8324 0.44988 2.3538 1.0476 1.5364 0.42598-0.58258 0.4518-0.5509 0.30488 0.37436-0.46193 2.9091-0.50351 3.9476-0.19193 4.7672 0.24421 0.64231 0.2059 1.4921-0.13295 2.9589-0.44475 1.9251-0.43394 2.0934 0.16944 2.61 0.3547 0.30371 0.64525 0.83005 0.64525 1.1696 0 0.62394 0.87958 1.1946 1.258 0.81618 0.11283-0.11283-0.04728-0.86634-0.35586-1.6744-0.62903-1.6471-0.67661-1.9582-0.29988-1.9582 0.14362 0 0.54672 0.80609 0.89616 1.7913 0.34944 0.98522 1.0926 2.4559 1.6509 3.2682 0.55828 0.81236 1.2914 2.2626 1.6294 3.2223 0.59404 1.6868 1.4006 2.637 2.2381 2.637 0.60234 0 3.7437-2.304 6.0937-4.4688 2.4991-2.3022 3.3337-2.7572 6.7854-3.7021l2.665-0.72972 2.6235 0.89166c3.3496 1.1383 4.3697 1.685 5.9667 3.1983 1.6593 1.5722 2.8099 3.7955 3.2797 6.3371 0.53617 2.9004 0.49616 3.1467-0.54479 3.3457-1.3681 0.26153-1.8679-0.0172-1.393-0.7777 0.6282-1.0059-0.59697-4.4472-1.4055-3.9475-0.51961 0.32113-0.47568 1.3505 0.11845 2.7724 0.51002 1.2207 0.3783 2.3201-0.2529 2.1097-0.19443-0.0648-0.65704-0.91601-1.0276-1.8913-0.37057-0.97526-0.8832-1.7733-1.1396-1.7733-0.58365 0-0.58134 0.0882 0.04548 1.5884 0.28149 0.67371 0.5118 1.7541 0.5118 2.4011 0 1.0218-0.09977 1.1618-0.76071 1.0671-0.81627-0.11698-1.0611-0.68362-1.5214-3.5212-0.18916-1.166-0.4389-1.7058-0.7887-1.7058-0.38242 0-0.47837 0.30169-0.38035 1.194 0.26746 2.435 0.21571 2.8804-0.34637 2.9934-0.42305 0.085-0.67151-0.3612-1.0386-1.8653-0.34515-1.4142-0.66118-2.0119-1.1091-2.0982-0.53841-0.10369-0.59632 0.0399-0.41434 1.0221 0.18516 0.99938 0.09907 1.1946-0.68624 1.5594-1.0573 0.49112-1.6895 0.24154-1.1216-0.44283 0.48826-0.58831 0.11446-2.2949-0.46032-2.1012-0.22766 0.0767-0.41841 0.4685-0.42384 0.87016-0.0054 0.40167-0.31284 0.95155-0.68274 1.222-0.66488 0.48618-0.66376 0.50108 0.09946 1.3135 0.58305 0.62063 0.80002 1.3164 0.88566 2.8424 0.17585 3.1336 1.9245 6.0814 2.9809 5.0251 0.29548-0.29548 0.11008-0.72865-0.75271-1.7563-0.98312-1.171-1.146-1.6216-1.1506-3.1828-0.0031-1.0711 0.19142-2.0531 0.47382-2.3891 0.44071-0.52429 0.56279-0.4873 1.5069 0.45683 0.7342 0.7342 0.90737 1.1008 0.60777 1.286-0.26751 0.16534-0.35783 0.74062-0.2494 1.5904 0.51265 4.018 0.69248 4.8425 1.2785 5.8722 0.36308 0.63799 0.64175 1.7869 0.64176 2.644-2e-6 1.2794-0.10444 1.5159-0.67024 1.5159-0.94344 0-1.377-1.013-1.377-3.2188 0-2.1837-0.40494-2.4158-1.2195-0.69924-0.31311 0.65985-0.69598 1.2779-0.85067 1.3735-0.30287 0.18718-0.99549-1.9594-0.99862-3.0948-2e-3 -0.76319-1.1006-1.8668-1.8578-1.8668-0.26575 0-0.83967-0.43529-1.2755-0.96713-0.43584-0.53183-1.3751-1.3166-2.0877-1.7438-0.88972-0.53345-1.3595-1.0951-1.4989-1.7923-0.12207-0.61036-0.52398-1.1611-1.0076-1.3815-0.51588-0.23505-0.80419-0.6568-0.80419-1.1756 0-0.90574-0.871-1.4176-1.4414-0.84717-0.26859 0.26859-0.24547 0.5247 0.08397 0.92164 0.39361 0.47428 0.31884 0.65955-0.54329 1.347-1.1404 0.90934-1.5114 0.82766-1.5114-0.33238 0-1.0865-0.55985-1.378-1.0146-0.52829-0.45308 0.84659-0.10335 2.4051 0.53979 2.4051 0.68974 0 0.5816 0.91682-0.20042 1.6988-0.50036 0.50037-0.94213 0.62156-1.7058 0.46882-1.2076-0.24152-1.329 0.18588-0.31388 1.1046 0.75211 0.68065 0.75871 1.1232 0.09846 6.398-0.22462 1.7946 0.2885 2.889 0.90365 1.9278 0.17913-0.27992 0.30827-0.73961 0.28739-1.0211-0.0708-0.95375 0.03956-1.3645 0.36636-1.3645 0.56503 0 0.81569 2.372 0.35436 3.3527-0.236 0.50171-0.4718 1.2571-0.5243 1.6789-0.0525 0.42173-0.19947 1.3815-0.32638 2.1327-0.24414 1.445 0.19412 1.853 0.82568 0.7687 0.38459-0.6603 0.46631 0.26344 0.37336 4.2309-0.05162 2.2036 0.38906 3.0024 1.0131 1.8363 0.51328-0.95907 0.10042-8.461-0.5138-9.3379-0.39067-0.55776-0.38598-0.73459 0.02899-1.1496 0.26981-0.26981 0.49031-0.86375 0.49031-1.3195 0-0.45575 0.13864-0.82869 0.30788-0.82869 0.41969 0 0.6968 3.0522 0.75921 8.3598 0.08094 6.8829 0.07262 6.9607-0.72572 6.7519-0.59294-0.15505-0.68528-5e-3 -0.70573 1.1411-0.07118 3.9919-0.28622 7.6452-0.46682 7.9374-0.24652 0.39887-1.1142 4.7912-1.5574 7.883-0.17486 1.2198-0.47145 2.832-0.65925 3.5826-0.18779 0.75064-0.66997 2.8234-1.0716 4.6062-0.40162 1.7828-0.83866 3.7017-0.97113 4.2644-0.13386 0.56864-0.50283 1.0735-0.83018 1.1366-0.48196 0.0928-0.54716-0.0524-0.35936-0.80069 0.19144-0.76275 0.12652-0.89452-0.39185-0.79469-0.80199 0.15445-1.7656 3.5915-1.171 4.1769 0.28022 0.27589 0.51289 0.20094 0.86817-0.28039 0.81947-1.1102 0.98585-0.28768 0.35836 1.7703-0.90883 2.9807-1.5267 4.1716-2.0587 3.9675-0.58144-0.22312-0.75332 0.0469-1.0561 1.6609-0.19621 1.0459-0.13992 1.277 0.31038 1.277 0.7807 0 0.68398 1.0523-0.11595 1.2615-0.36618 0.0958-0.81464 0.58052-0.99662 1.0771-0.20875 0.5696-0.34087 0.68633-0.35786 0.31638-0.01727-0.37623-0.21042-0.51586-0.53879-0.38985-0.61962 0.23777-0.68326 1.7849-0.08297 2.0152 0.57248 0.21968 0.3503 3.2263-0.23841 3.2263-0.23288 0-0.70269-0.92125-1.0436-2.0472-0.6455-2.1319-1.3402-2.6506-1.6164-1.206-0.31517 1.6487 1.7293 5.0846 4.7842 8.0399 1.0727 1.0378 2.5337 2.6119 3.2468 3.4977s1.5192 1.6104 1.7913 1.6104c0.73204 0 0.62257 0.23611-0.74222 1.6009l-1.237 1.237-0.65125-0.82168c-0.35811-0.45209-0.97301-1.436-1.3665-2.1867-1.3671-2.6082-2.9534-3.5683-4.9936-3.0218-0.66076 0.17698-0.75131 0.36533-0.57028 1.1895 0.35093 1.5978-0.03774 1.1198-0.80869-0.99462-0.39583-1.0856-0.99658-2.2757-1.3355-2.6445-0.64592-0.70282-1.4479-3.0027-1.4479-4.1524 0-0.39598-0.3695-0.84217-0.89716-1.0826-0.74989-0.34168-1.002-0.31375-1.5354 0.16893-0.76476 0.6921-0.84359 1.8368-0.12645 1.8368 0.28149 0 0.5118-0.23031 0.5118-0.51181 0-0.28149 0.15321-0.5118 0.34087-0.5118 0.18766 0 0.3421 0.34547 0.34287 0.76771 7.67e-4 0.42223 0.30762 1.2703 0.68224 1.8848 0.37462 0.61444 0.68124 1.3641 0.68124 1.6659s0.31829 1.063 0.70723 1.6924l0.70723 1.1446-1.1066 1.5404c-0.60842 0.8472-1.2888 1.5404-1.5119 1.5404-0.22311 0-0.98525-0.87353-1.6939-1.9408l-1.2885-1.9402 0.90115-0.71822c0.63316-0.50487 0.92557-1.0895 0.98412-1.9668 0.10659-1.5969-0.41125-1.6886-1.221-0.21692-0.34894 0.63417-1.4091 1.9206-2.3561 2.8589-1.5765 1.5619-1.703 1.6268-1.4979 0.7677 0.16301-0.68289 0.09419-0.93814-0.2529-0.93814-0.88157 0-1.3501 1.9176-1.1496 4.7072 0.17535 2.4386 0.1511 2.5731-0.33487 1.8608-0.28807-0.42224-0.75142-0.76771-1.0301-0.76771-0.3053 0-0.43019-0.19901-0.31438-0.5008 0.10571-0.27549 0.02857-0.60193-0.17093-0.72522-0.24639-0.15228-0.22723-0.30743 0.05898-0.48432 0.23859-0.14745 0.30578-0.44766 0.15494-0.69173-0.2021-0.327-0.37746-0.27904-0.72622 0.19792-0.25284 0.34579-0.45982 0.82749-0.45982 1.0706 0 0.4401-2.4523 2.8896-2.6725 2.6695-0.18835-0.18836 1.0206-2.5595 1.305-2.5595 0.14351 0 0.44663-0.44754 0.67324-0.99462s0.93591-1.5835 1.5764-2.3031c1.0076-1.132 1.546-2.5025 0.98312-2.5025-0.10007 0-0.94357 0.38579-1.8748 0.85767-2.0212 1.0242-3.4602 2.9976-3.5671 4.8921-0.11056 1.9595-0.33096 2.1459-2.2351 1.8933-1.345-0.17842-1.8996-0.0836-2.8749 0.49181-1.4741 0.86976-1.5177 0.54679-0.19243-1.417 1.2761-1.8909 6.5744-6.0827 8.6232-6.8224 0.32841-0.11856 0.59727-0.34847 0.59727-0.5108s0.62536-0.97259 1.39-1.8008c0.76461-0.82821 1.4757-1.9342 1.5804-2.4576 0.10467-0.52336 0.51079-1.1758 0.90215-1.4499 0.66455-0.46547 0.6738-0.53623 0.14194-1.0681-0.53185-0.53186-0.60992-0.49793-1.183 0.50881-0.79666 1.3994-1.0474 1.3614-1.3095-0.19743-0.11832-0.70373-0.58845-2.8917-1.0446-4.8621-0.74137-3.2025-1.3908-5.3528-4.4283-14.671-0.45878-1.4075-0.83248-2.8298-0.83018-3.1608 0.0023-0.33094-0.13026-0.86868-0.29489-1.1945-0.38664-0.76532-1.0656-2.9242-1.0656-3.3887 0-0.19779 0.46063-0.45168 1.0236-0.56428 0.56298-0.1126 1.0236-0.34621 1.0236-0.5188 0-0.18172-0.49655-0.20152-1.1795-0.0475l-1.1795 0.2659-0.70523-2.1202c-0.86466-2.5983-1.2277-4.7633-1.7048-10.172-0.20271-2.2977-0.5332-5.0052-0.73422-6.0167-0.37287-1.8762-0.40829-3.4363-0.19442-8.5677 0.13718-3.2914 1.1737-10.56 1.5804-11.083 0.14818-0.19069 0.35649-0.91387 0.46282-1.6069 0.10633-0.69301 0.51811-1.6996 0.91515-2.2366 0.43061-0.58243 0.63222-1.2098 0.49981-1.5549-0.27472-0.71589-1.6234-0.75664-2.1962-0.0665-0.23362 0.28149-0.66248 0.5118-0.95313 0.5118-0.29065 0-0.80937 0.2542-1.1526 0.56478-0.581 0.52581-0.66807 0.52435-1.269-0.0195-0.61491-0.55648-0.67633-0.5391-1.3005 0.37336-0.3603 0.52672-1.1013 1.9174-1.6464 3.0903-0.93098 2.0035-1.5604 2.564-2.0287 1.8063-0.11092-0.17947-0.44092-0.23462-0.73322-0.12245-0.45799 0.17574-0.4987-0.0561-0.29589-1.6794 0.16593-1.3281 0.11313-1.959-0.17843-2.1392-0.74477-0.46029-1.0382 0.63601-0.95963 3.5851 0.08065 3.0274-0.30942 4.7759-1.5104 6.7659l-0.68574 1.1361-1.0006-1.0956c-0.93187-1.0203-0.99515-1.2619-0.92165-3.5246 0.065472-2.0154-0.015631-2.4474-0.47782-2.537-0.3639-0.0705-0.63614 0.20629-0.7847 0.79819-0.30109 1.1996 0.043038 4.8474 0.5103 5.4104 0.20319 0.24483 0.26447 0.54972 0.13645 0.67774-0.12802 0.12802-0.70607 1.6376-1.2845 3.3547-1.0979 3.2592-2.0183 4.3788-1.8703 2.2746 0.18657-2.653 6e-3 -3.7617-0.59427-3.6461-0.386 0.0743-0.7223 0.72944-1.0196 1.9867-0.24398 1.0318-0.585 2.3369-0.75771 2.8999-0.17271 0.56298-0.41429 1.7531-0.53679 2.6445-0.37406 2.7219-0.86908 1.8237-0.84618-1.5354 0.011838-1.7359-0.14574-4.0009-0.35037-5.0331-0.42542-2.1458-0.17606-4.3317 0.59377-5.203 0.29015-0.3284 0.61906-0.59729 0.73072-0.59727 0.11166 3e-5 0.20292 1.1662 0.20292 2.5915 0 2.3994 0.24177 3.2514 0.7717 2.7214 0.1899-0.18989 1.0463-6.584 1.0886-8.1279 0.00974-0.35521 0.28134-0.59727 0.67024-0.59727 0.35955 0 1.1393-0.61312 1.7328-1.3625 0.89207-1.1263 1.1889-1.3037 1.7123-1.0236 0.34824 0.18637 0.71787 0.33887 0.82169 0.33887 0.32222 0 1.9033-2.6872 1.9033-3.2348 0-0.85401-0.6288-0.58775-1.194 0.50531-0.29113 0.56298-0.67883 1.0236-0.86167 1.0236-0.4611 0-0.41041-0.87515 0.17893-3.0708 0.64893-2.4177 0.63848-2.804-0.07297-2.667-0.4013 0.0773-0.76876 0.8081-1.171 2.3281-0.3225 1.2185-0.59665 2.4982-0.60927 2.8434-0.022798 0.62384-1.6633 2.6135-2.1547 2.6135-0.56804 0-0.20457-3.9772 0.62776-6.8704 0.905-3.1457 0.8985-3.7962-0.030987-3.0248-0.44463 0.36901-0.49441 0.3498-0.31338-0.12195 0.1182-0.30803 0.43229-0.56028 0.69773-0.56028 0.26544 0 0.65915-0.42207 0.87466-0.93814s0.79525-1.8135 1.2885-2.8829l0.89665-1.9442 0.99712 0.79519c0.77171 0.61535 0.91209 0.9007 0.62026 1.262-0.53412 0.66132-0.97046 2.8317-0.5123 2.5485 0.19798-0.12236 0.61442 0.31913 0.93164 0.98762 0.515 1.0853 0.52381 1.3871 0.08697 2.9574-0.42956 1.5441-0.42439 1.881 0.04348 2.8824 0.59349 1.2703 1.5192 1.4941 2.0532 0.49631 0.51207-0.95681 0.43916-1.285-0.32937-1.4859-0.78351-0.20489-0.86158-1.0694-0.20392-2.2561 0.24981-0.45079 0.38018-1.1022 0.28989-1.4474-0.10455-0.39981 0.20424-0.9715 0.85017-1.5749 0.80604-0.75295 0.95697-1.1024 0.73522-1.7018-0.18118-0.48977-0.07944-1.2934 0.29089-2.2926 0.7568-2.042 0.39638-2.4236-1.8393-1.9468-1.8199 0.38815-1.8419 0.38235-1.9697-0.48881-0.11779-0.80258-0.82641-1.0197-1.0896-0.33388-0.11401 0.2971-0.43024 0.5403-0.70273 0.5403-0.27248 0-0.40087 0.15371-0.28489 0.34137 0.11598 0.18766-0.01694 0.34087-0.29589 0.34087-0.69927 0-1.8433 1.5349-2.3136 3.1048-0.21528 0.71855-0.75259 1.646-1.194 2.0607l-0.80269 0.75421v-0.75921c-2.5e-6 -0.41734 0.22964-1.202 0.5098-1.7438 0.28016-0.54177 0.41779-1.2233 0.30588-1.5149-0.2529-0.65905 1.7283-3.6802 3.5092-5.3504 2.769-2.5971 5.9498-3.4048 8.7546-2.2232 1.8185 0.76616 4.6308 3.5802 5.7053 5.7088 1.1387 2.2557 1.8648 2.7765 3.6611 2.627 1.2506-0.10408 1.2643-0.1218 1.5279-1.9657 0.1463-1.0235 0.39629-1.9448 0.55529-2.0472 0.159-0.10245 0.72008-1.1077 1.247-2.2336 0.78038-1.6675 1.0052-2.7432 1.2125-5.8003 0.27193-4.0102 0.62749-6.0311 1.2715-7.2282 0.22052-0.4099 0.40084-1.0034 0.40085-1.319-3e-6 -0.3156 0.53773-1.3059 1.1945-2.2007 0.65681-0.89476 1.1983-1.7597 1.2035-1.9223 0.0052-0.16252 0.45112-0.72894 0.99112-1.2585 0.6684-0.6555 1.2733-1.9082 1.8948-3.924 1.2896-4.1831 1.2693-4.1515 1.5814-2.4491 0.52005 2.8366 0.63854 3.1213 1.2505 3.0033 0.53876-0.10381 0.57538-0.83474 0.46232-9.2669-0.11731-8.7492-0.09517-9.1494 0.50631-9.0335zm215.45 0.28439c-0.43025 0-0.7384 0.5326-0.46582 0.80519 0.38426 0.38426 0.78721 0.23425 0.78721-0.29339 0-0.28149-0.14479-0.5118-0.32139-0.5118zm-217.94 3.6176c0.03115-0.07726 0.07413-0.06681 0.12145 0.05048 0.09466 0.23458 0.09466 0.6181 0 0.85267-0.09465 0.23458-0.17193 0.04282-0.17193-0.42634 0-0.23458 0.01932-0.39956 0.05048-0.47682zm220.02 0.84618c0.17375-0.0042 0.28643 0.24194 0.27087 0.73972-0.0133 0.42224-0.14134 1.068-0.28487 1.4349-0.25462 0.65097-0.2699 0.65114-0.62228 0.0215-0.25357-0.45295-0.25396-0.88085-3e-3 -1.4349 0.22914-0.50292 0.46398-0.75703 0.63776-0.76121zm-1.316 3.5132c0.0359-0.03587 0.0835 0.01185 0.13793 0.14794 0.0986 0.24631 0.0864 0.54037-0.027 0.65375-0.11339 0.11338-0.19425-0.08815-0.17943-0.44783 8e-3 -0.19874 0.0326-0.31799 0.0685-0.35386zm-218.7 3.1468c0.03115-0.07739 0.07413-0.06681 0.12145 0.05048 0.09466 0.23458 0.09466 0.6186 0 0.85317-0.09465 0.23458-0.17193 0.04282-0.17193-0.42634 0-0.23458 0.01932-0.39993 0.05048-0.47732zm215.93 0.19392c-0.7046-0.10024-0.74972-0.035-0.41134 0.59727 0.46613 0.87095 1.4765 0.95732 1.3155 0.11246-0.0626-0.32841-0.46922-0.64785-0.90415-0.70973zm3.6046 0.56479c-0.61225 0.11526-0.94259 0.76362-0.56378 1.4714 0.41517 0.77576 1.5312 0.83443 1.8148 0.09546 0.34514-0.89942 0.24109-1.1747-0.56078-1.4869-0.25089-0.09768-0.48614-0.11839-0.69024-0.07997zm1.1096 3.0318c-0.17612-0.03251-0.31965-0.0018-0.42485 0.08647-0.21038 0.17676-0.26622 0.58484-0.11644 1.1815 0.26059 1.0383 1.0619 1.1487 1.5614 0.21542 0.28589-0.53417 0.20817-0.76447-0.40085-1.191-0.23448-0.16424-0.44314-0.25987-0.61925-0.29239zm-3.6731 0.16394c-0.1452-0.0412-0.25544 0.05738-0.40184 0.27589-0.48519 0.72416-0.43521 1.2347 0.1824 1.8523 0.67835 0.67833 0.73155 0.67315 1.1531-0.11446 0.26791-0.50056 0.19344-0.83552-0.32238-1.4504-0.28628-0.34131-0.46608-0.52208-0.61125-0.56328zm-4.5088 3.0053c-0.18766 0-0.34087 0.15371-0.34087 0.34137 0 0.18766 0.15321 0.34137 0.34087 0.34137s0.34137-0.15371 0.34137-0.34137c0-0.18766-0.15371-0.34137-0.34137-0.34137zm9.042 1.365c-0.28433 0-0.5118 0.30313-0.5118 0.68224 0 0.37911 0.22747 0.68274 0.5118 0.68274s0.5118-0.30362 0.5118-0.68274c0-0.37911-0.22747-0.68224-0.5118-0.68224zm-10.428 0.08097c-0.13424-0.04083-0.28855-0.03501-0.45533 0.02899-0.64434 0.24726-0.7367 1.812-0.11995 2.0332 0.57986 0.208 0.82538 0.03236 1.0261-0.73522 0.17286-0.661-0.0481-1.2045-0.45082-1.327zm13.158 0.08947c-0.34404 0-0.6895 0.19226-0.76771 0.42684-0.09 0.27012 0.19147 0.42634 0.76771 0.42634 0.57626 0 0.85775-0.15622 0.7677-0.42634-0.0782-0.23458-0.42364-0.42684-0.7677-0.42684zm2.9409 0.17094c-0.18765 0-0.43631 0.15321-0.55229 0.34087-0.11597 0.18766-0.0572 0.34137 0.13046 0.34137s0.4358-0.15371 0.55178-0.34137c0.11597-0.18766 0.0577-0.34087-0.12995-0.34087zm-7.4121 0.35286c-0.25624 0.03337-0.47583 0.18869-0.47583 0.44283 0 0.25021 0.10093 0.55626 0.22443 0.67974 0.30854 0.30856 1.1778-0.45597 0.94563-0.83168-0.14537-0.23521-0.438-0.32425-0.69423-0.29089zm6.9508 0.75621c-0.37833 0.0906-0.67369 0.60223-0.49031 1.0801 0.11761 0.30655 0.42364 0.44406 0.72771 0.32738 0.60684-0.23287 0.69569-1.0062 0.15395-1.341-0.12987-0.08026-0.26524-0.09667-0.39135-0.06648zm-3.2403 0.43683c-0.49332-0.06316-1.0112-0.04452-1.5439 0.06048-1.1985 0.23623-2.887 1.9536-3.1648 3.2183-0.23088 1.0512-0.48931 1.1925-1.0861 0.59577-0.45522-0.45522-1.1216-0.11598-1.1216 0.57078 0 0.28991 0.33245 0.49131 0.8097 0.49131 0.67164 0 0.84409 0.21833 1.0141 1.2815 0.26895 1.682 1.7642 3.41 3.4652 4.0055 1.5635 0.54732 2.3973 0.39728 3.5272-0.63475 1.6038-1.465 2.5054-5.2758 1.6414-6.9368-0.79944-1.5368-2.0612-2.4625-3.5412-2.652zm-5.8788 0.91715c-0.45244 0.09035-0.78562 0.52785-0.54379 0.91915 0.34759 0.5624 1.5534 0.44437 1.5534-0.15194 0-0.28738-0.24019-0.61436-0.5343-0.72722-0.16042-0.06156-0.32448-0.0701-0.47531-0.03998zm-219.41 0.26639c-0.67976 0-0.8874 0.36362-0.45482 0.79619 0.41556 0.41556 1.1371 0.23506 1.1371-0.28439 0-0.28434-0.30313-0.5118-0.68224-0.5118zm207.8 1.194c-0.5611 0-0.85532 0.94641-0.54529 1.7543 0.32413 0.84468 1.0526 0.31932 1.0526-0.75921 0-0.65306-0.17451-0.99512-0.5073-0.99512zm22.432 0.23091c-0.30857-0.08081-0.60027 0.07535-0.60027 0.54029 0 0.35781 0.10282 0.75306 0.22793 0.87816 0.52596 0.52596 1.1806 0.19919 1.0756-0.5368-0.0689-0.48298-0.39465-0.80085-0.70324-0.88166zm-221.17 0.28089c-0.70086 0-1.0454 0.70673-0.50681 1.0396 0.24966 0.1543 0.57652 0.20448 0.72622 0.11196 0.46397-0.28676 0.29921-1.1516-0.21942-1.1516zm214.3 0.48081c0.0934 0.0015 0.19684 0.03466 0.30588 0.09396 0.65429 0.35585 1.5037 1.6456 1.5159 2.5815 0.0136 1.0456-0.57288 1.2666-0.90666 0.34137-0.11848-0.32841-0.51679-1.0314-0.88465-1.5619-0.50487-0.72812-0.57222-1.0612-0.2754-1.358 0.0683-0.06827 0.15155-0.09846 0.2449-0.09696zm-224.04 0.20192c-0.49884 0-0.80187 0.90251-0.5358 1.5959 0.20134 0.52468 0.26528 0.52692 0.76571 0.02649 0.56274-0.56274 0.41252-1.6224-0.22991-1.6224zm7.0818 0.14244c-0.09487-0.02236-0.19801-9e-3 -0.28689 0.04598-0.17775 0.10985-0.23331 0.34504-0.12345 0.5228 0.10986 0.17776 0.34554 0.23331 0.5233 0.12346 0.17775-0.10986 0.23331-0.34504 0.12345-0.5228-0.05493-0.08888-0.14154-0.14706-0.23641-0.16944zm1.4899 0.96113c-0.21673 0.02908-0.41469 0.15151-0.66424 0.37736-0.34395 0.31127-0.95852 0.56628-1.366 0.56628-0.40746 0-0.74072 0.15321-0.74072 0.34087 0 0.18766 0.15321 0.34137 0.34087 0.34137 0.18766 0 0.34137 0.31368 0.34137 0.69723 0 0.47488-0.19067 0.66554-0.59727 0.59727-0.40306-0.06768-0.59677 0.12164-0.59677 0.58228 0 0.47268 0.19166 0.64959 0.62426 0.57578 0.81984-0.13988 2.3637 0.88285 2.0642 1.3675-0.15678 0.25368-0.37413 0.18555-0.66075-0.20642-0.28062-0.38377-0.50548-0.45636-0.65625-0.21242-0.12616 0.20413 0.12773 0.66818 0.56428 1.0316 0.95744 0.79705 1.4394 0.7121 1.5854-0.27989 0.12439-0.84537 1.0851-1.0233 1.0851-0.20092 0 0.29713 0.19176 0.47282 0.42634 0.38985 0.24626-0.08711 0.38987-0.60419 0.33987-1.223-0.0706-0.8738 0.03986-1.0716 0.59727-1.0716 0.38027 0 0.68374-0.22714 0.68374-0.5118 0-0.28149-0.23031-0.5118-0.5118-0.5118-0.28434 0-0.5118-0.30312-0.5118-0.68224 0-0.37532 0.15321-0.68274 0.34087-0.68274 0.18766 0 0.34137-0.24791 0.34137-0.55129 0-0.39242-0.20681-0.49771-0.71672-0.36436-0.39421 0.10309-1.0844 0.01988-1.5339-0.18493-0.32614-0.1486-0.56197-0.21301-0.7787-0.18393zm222.59 0.60227c-0.28149 0-0.51181 0.23031-0.51181 0.5118s0.23032 0.5118 0.51181 0.5118 0.5118-0.23031 0.5118-0.5118-0.23031-0.5118-0.5118-0.5118zm-234.08 1.365c-0.53647 0-1.0264 1.4644-0.67824 2.0277 0.3069 0.49657 0.70648 0.45133 1.193-0.13495 0.50126-0.60398 0.15068-1.8928-0.5148-1.8928zm222.91 0.74721c-0.58814-0.11327-0.83163 0.61083-0.36287 1.0796 0.35765 0.35765 0.95963 0.05289 0.95963-0.48582 0-0.26328-0.26836-0.53052-0.59676-0.59377zm10.347 0.34487c-0.12097-0.0081-0.24004 0.03138-0.34485 0.10996-0.20964 0.15717-0.36287 0.46972-0.36287 0.86517 0 0.36425 0.21391 0.66224 0.47531 0.66224 0.60114 0 1.0176-1.0321 0.58929-1.4604-0.11301-0.113-0.23589-0.16879-0.35688-0.17693zm-9.2025 2.3836c-0.16426 0.0194-0.32392 0.08801-0.45333 0.21742-0.26859 0.26859-0.24763 0.52152 0.0745 0.90965 0.53284 0.642 1.1538 0.50816 1.307-0.28189 0.0671-0.3459-0.14891-0.63209-0.44635-0.7672-0.1487-0.06756-0.31754-0.09737-0.48181-0.07797zm6.7889 0.61876c-0.37912 0-0.68275 0.22747-0.68275 0.5118 0 0.28434 0.30363 0.51181 0.68275 0.51181s0.68223-0.22747 0.68223-0.51181c0-0.28434-0.30311-0.5118-0.68223-0.5118zm-3.3857 0.41334c-0.16183 0.0183-0.31468 0.07929-0.42933 0.19392-0.19622 0.19623-0.24797 0.53231-0.11546 0.74672 0.30148 0.48779 1.267 0.32547 1.457-0.24491 0.0933-0.28015-0.12757-0.52054-0.42884-0.63325-0.15062-0.05635-0.32146-0.08077-0.48332-0.06248zm-228.2 0.01648c-0.50932-0.16977-0.88956 1.1265-0.63176 2.1537 0.21834 0.86995 1.1278 1.1312 1.3985 0.40185 0.22479-0.60583-0.31508-2.405-0.7667-2.5555zm3.0308 0.63126c-0.15477 0.0119-0.30523 0.0753-0.43084 0.20092-0.1812 0.1812-0.23102 0.58579-0.11096 0.89866 0.31835 0.82961 1.5099 0.73135 1.5099-0.12446 0-0.39022-0.22388-0.7094-0.5108-0.86816-0.14346-0.0794-0.30255-0.11889-0.45732-0.10696zm232.16 2.1437c-0.40003-0.1535-0.5398 6e-3 -0.5398 0.61427 0 0.45169 0.18414 1.0053 0.40934 1.2305 0.22519 0.22519 0.57826 0.40934 0.7847 0.40934 0.57232 0 1.194-0.74617 1.194-1.433 0-0.37797-0.25145-0.61426-0.65424-0.61426-0.35997 0-0.89719-0.093-1.194-0.20693zm-17.806 0.20693c-0.8395 0-0.51107 1.1857 0.67723 2.4456 0.63449 0.67267 1.2874 1.4436 1.4504 1.7128 0.35446 0.58529 4.7338 3.0618 4.9796 2.8159 0.0944-0.0944 0.42649 0.21722 0.73772 0.69223 0.67458 1.0295 1.0918 1.0976 1.3225 0.21542 0.11502-0.43992-0.14607-0.88171-0.81121-1.3735-0.85175-0.62974-0.92545-0.81273-0.56278-1.3935 0.34234-0.54818 0.31742-0.76866-0.13995-1.226-0.65281-0.65281-1.306-0.37401-1.306 0.55779 0 0.59323-0.16498 0.55659-1.7913-0.39785-0.98522-0.57819-1.8471-1.2032-1.9158-1.389-0.26741-0.72397-2.1893-2.66-2.6405-2.66zm24.09 1.0236c0.18766 0 0.34138 0.38402 0.34138 0.85318 0 0.46915-0.15372 0.85317-0.34138 0.85317-0.18765 0-0.34137-0.38402-0.34137-0.85317 0-0.46916 0.15372-0.85318 0.34137-0.85318zm-19.474 0.74772c-0.20173 0.0672-0.35545 0.2338-0.34137 0.36986 0.0141 0.13605 0.0256 0.47771 0.0256 0.7592s0.15372 0.51181 0.34137 0.51181c0.18766 0 0.34138-0.39687 0.34138-0.88167 0-0.48479-0.16514-0.82645-0.36687-0.7592zm-11.301 0.67524c-0.11168-0.0416-0.23661 0.11486-0.47082 0.43383-0.5939 0.80884-0.62287 1.6238-0.077 2.1697 0.22519 0.22519 0.52226 0.40934 0.65975 0.40934 0.48915 0 0.64838-1.2902 0.27889-2.2581-0.18078-0.47359-0.27917-0.7131-0.39085-0.75471zm-207.61 0.5098c-0.14745 0.0137-0.29214 0.0889-0.41584 0.23791-0.2158 0.26002-0.29658 0.72233-0.17943 1.0276 0.30102 0.78445 1.5049 0.7161 1.5049-0.0855 0-0.71098-0.46729-1.2211-0.90965-1.18zm230.03 0.11446c-0.67517 0-0.66276 1.3148 0.0195 2.0687 0.65331 0.72193 1.8568 0.47605 1.8568-0.37935 0-0.34079-0.30691-0.71706-0.68224-0.83618s-0.68223-0.35978-0.68223-0.53479c0-0.17502-0.23031-0.31838-0.5118-0.31838zm-233.25 0.71023c-0.19833 0.0212-0.4159 0.23386-0.63126 0.63625-0.27958 0.5224-0.22743 0.73584 0.24391 0.99962 0.70621 0.39521 1.2352-0.2612 0.90465-1.1226-0.13981-0.36434-0.31897-0.53456-0.5173-0.5133zm36.23 1.6708c-0.07157-7e-3 -0.14958 0.0221-0.22592 0.0985-0.11262 0.11262-0.0845 0.39943 0.06248 0.63725 0.21497 0.34773 0.29527 0.34822 0.41084 2e-3 0.1237-0.37109-0.03269-0.71648-0.2474-0.73722zm-56.455 8e-3c-0.61784 0-1.3556 1.2253-1.0426 1.7318 0.41102 0.66506 1.3473 0.15306 1.4569-0.7967 0.07612-0.65947-0.04599-0.93514-0.41434-0.93514zm247.59 0.0635c-1.239-0.11947-1.4708 0.40144-0.42685 0.96013 0.37533 0.20087 0.68275 0.64299 0.68275 0.98262 0 0.75866 0.85993 1.5408 2.2176 2.0167 0.56299 0.19733 1.0495 0.37103 1.0811 0.38585 0.0316 0.0148 0.30042-0.0665 0.59727-0.18043 0.86723-0.33278 0.62824-0.81397-0.67374-1.358-0.93174-0.3893-1.167-0.65314-1.0136-1.1366 0.12434-0.3918 3e-3 -0.70502-0.3219-0.82968-0.32246-0.12375-0.52229-9e-3 -0.52229 0.30088 0 0.27561-0.15142 0.50081-0.33687 0.50081s-0.30061-0.34547-0.2559-0.76771c0.0675-0.63734-0.107-0.7859-1.0276-0.87466zm-244.34 0.0915c-0.11843 0.0564-0.21531 0.23998-0.33937 0.57378-0.16488 0.44366-0.23323 0.9817-0.15194 1.1955 0.22634 0.59541 1.4684 0.12404 1.4684-0.55728 0-0.33046-0.22869-0.79105-0.5083-1.0231-0.21038-0.1746-0.35039-0.24531-0.46882-0.18893zm256.18 0.22542c-0.17386 0.0155-0.35292 0.34492-0.4933 0.98412-0.19267 0.87719-0.34309 0.99389-1.0511 0.81619-0.9205-0.23104-1.1093 0.40558-0.47283 1.5949 0.19426 0.36299 0.5656 0.66025 0.82519 0.66025 0.76476 0 1.8605-2.091 1.6539-3.1563-0.11948-0.61608-0.28794-0.91462-0.46182-0.89915zm-195.75 0.36336c-0.74682-0.10607-1.0656 0.55029-0.5283 1.0876 0.39751 0.39751 1.296 0.0708 1.296-0.47132-3e-6 -0.27892-0.34547-0.5563-0.76771-0.61626zm-57.939 0.27989c-0.36753 0-0.42282 0.48508-0.2614 2.3031 0.11247 1.2667 0.35585 2.4949 0.54079 2.7294 0.42463 0.53859 1.2765 0.55664 1.2765 0.027 0-0.2198-0.24284-0.66755-0.53929-0.99512-0.41272-0.45605-0.45391-0.75454-0.17643-1.273 0.44653-0.83436-0.14249-2.7914-0.84018-2.7914zm60.984 0.0615c-0.71737-0.10556-0.97895 0.26907-0.5133 0.73471 0.12511 0.12511 0.52148 0.22742 0.88116 0.22742 0.88489 0 0.5698-0.82416-0.36786-0.96213zm198.28 7e-3c-0.12972 0.0953-0.1021 0.31744-0.021 0.74172 0.11705 0.61223 0.024 0.89566-0.29337 0.89566-0.25547 0-0.46433-0.15321-0.46433-0.34087s-0.31034-0.34137-0.68925-0.34137c-0.57839 0-0.6525 0.15034-0.46431 0.93814 0.47283 1.9793 1.513 2.3719 2.1582 0.81418 0.39396-0.95113 0.4479-0.9692 2.0032-0.66924 3.9034 0.75284 7.2282 1.9775 7.2282 2.663 0 0.14594 0.47257 0.46101 1.0501 0.70023s1.2859 0.79566 1.5744 1.236c0.69352 1.0585 1.5955 1.0814 1.2985 0.033-0.6927-2.4453-7.0641-5.8599-12.416-6.6534-0.54786-0.0812-0.83491-0.11233-0.96462-0.017zm-247.17 0.12596c-0.16639 0.10284-0.30238 0.48492-0.30238 0.84917 0 0.69929 0.83006 0.91068 1.2035 0.30638 0.27227-0.44055-0.48562-1.4124-0.90116-1.1556zm41.347 0.14694c-0.48942 0-0.46137 0.78915 0.04598 1.2965 0.57102 0.57102 1.6374 0.51206 1.6374-0.0905-2e-6 -0.49716-0.98944-1.206-1.6834-1.206zm-18.46 0.0205c-0.09901 0.012-0.19821 0.14513-0.35186 0.40584-0.19355 0.32841-0.57451 0.59727-0.84667 0.59727-0.69471 0-0.61859 1.2576 0.10196 1.6829 0.3284 0.1938 0.82758 0.31566 1.1091 0.27039 0.61239-0.0985 0.84351-1.8995 0.33837-2.636-0.15326-0.22347-0.25186-0.33239-0.35086-0.32038zm199.48 0.7707c-0.20666 0.0727-0.33086 0.38459-0.27589 0.69274 0.0709 0.39755-0.11632 0.53583-0.64476 0.47631-1.2746-0.14354-1.0836 0.64189 0.42634 1.7523 1.6558 1.2177 1.9952 1.2989 1.9952 0.47832 0-1.023-1.11-3.5372-1.5009-3.3997zm-182.22 0.13395c-0.15331-0.0319-0.27904-1e-3 -0.36036 0.076-0.16265 0.15406-0.14751 0.49381 0.18143 0.89016 0.44614 0.53757 1.3525 0.6772 1.3525 0.20842 0-0.15857-0.29156-0.55236-0.64825-0.87516-0.1911-0.17295-0.37199-0.26751-0.5253-0.29939zm-21.501 1.1221c-0.57223 0-0.86867 0.75657-0.86867 2.2176 0 0.62612 0.09301 1.381 0.20692 1.6778 0.29527 0.76946 1.0712 0.6677 1.339-0.17593 0.34017-1.0718-0.14184-3.7196-0.67724-3.7196zm-32.986 0.063c-0.23667 0.079-0.29689 0.42204-0.29689 1.2765 0 1.1759 0.10792 1.39 0.70273 1.39 0.60348 0 0.68817-0.18057 0.59727-1.2765-0.07401-0.89222-0.28593-1.3109-0.70323-1.39-0.12237-0.0232-0.22099-0.0263-0.29989 0zm51.329 0.026c-0.16421-0.0644-0.30386-0.0168-0.45332 0.12995-0.29688 0.29152-0.29975 0.5714-0.012 1.1091 0.39551 0.73901 1.1979 0.95538 1.5329 0.41334 0.1039-0.16811-0.10633-0.66729-0.46732-1.1091-0.24708-0.30238-0.43606-0.47885-0.60027-0.54329zm-38.324 0.0815c-0.32275 0-0.54572 0.40335-0.61376 1.1091-0.11368 1.179 0.27019 1.4277 0.94614 0.61326 0.53107-0.63989 0.32214-1.7223-0.33237-1.7223zm-16.431 0.34138-0.11246 1.9472c-0.06184 1.071-0.21144 2.1074-0.33237 2.3031-0.26418 0.42745-0.5403 0.44109-1.1471 0.0565-0.36243-0.22973-0.2464-0.70057 0.56778-2.2981zm8.0759 0.17043c-0.6181 0-0.68494 0.89647-0.08497 1.1386 0.23458 0.0947 0.46489 0.18461 0.5118 0.19943 0.04691 0.0148 0.08497-0.28043 0.08497-0.65575 0-0.37912-0.22747-0.68224-0.5118-0.68224zm53.228 0c-1.2064 0-1.3635 0.18532-0.98712 1.166 0.24503 0.63854 1.1943 0.70848 1.7723 0.13045 0.77196-0.77196 0.454-1.2965-0.7852-1.2965zm181.6 0.034c-0.16445 0.0777-0.24572 0.3549-0.18692 0.80419 0.0701 0.53574-0.13667 1.0201-0.57278 1.342-0.66065 0.48756-0.64435 0.52036 0.5118 1.0251 1.4757 0.64424 1.6127 0.65341 1.7958 0.12145 0.16659-0.48389-0.36185-2.2586-0.86367-2.9004-0.27238-0.34837-0.51979-0.47007-0.68425-0.39235zm-176.75 0.069c-0.07538-0.0166-0.2023 0.0635-0.40884 0.23491-0.27942 0.2319-0.42261 0.56026-0.31788 0.72972 0.26918 0.43554 0.82568 0.0192 0.82568-0.61776 0-0.21687-0.02359-0.33028-0.09896-0.34687zm2.8284 0.0205c-1.0969-0.0288-1.3645 0.0838-1.3645 0.57428 0 0.33563 0.18861 0.6733 0.41934 0.75021 0.58717 0.19572 2.3101-0.49921 2.3101-0.93164 0-0.19661-0.61433-0.37317-1.365-0.39285zm194.08 0.58178c-0.11349 0.0445-0.25465 0.16879-0.41484 0.38785-0.27356 0.37412-0.68759 0.51147-1.166 0.38635-0.57457-0.15025-0.74221-0.0439-0.74221 0.47132 0 0.36593 0.10231 0.76755 0.22742 0.89265 0.60879 0.60879 1.7563 0.18106 2.1657-0.80719 0.3652-0.88166 0.27054-1.4645-0.07-1.331zm-205.7 0.31837c-0.60973 0-0.32752 0.98325 0.43583 1.5179 0.86599 0.60656 1.4117 0.53447 1.5554-0.20592 0.08971-0.46217-1.2001-1.312-1.9912-1.312zm188.71 0.036c-0.20915 0.0124-0.35187 0.33636-0.35187 0.96763 0 0.55191-0.15372 1.098-0.34137 1.214-0.58842 0.36366-0.37853 0.76731 0.76771 1.4759 1.3635 0.84293 1.4437 0.85445 1.9218 0.27839 0.29231-0.35224 0.23794-0.65953-0.22742-1.2795-0.33685-0.44877-0.79504-1.2383-1.0181-1.7543-0.26608-0.61554-0.54156-0.91451-0.75071-0.90215zm-20.195 0.029c-0.10257 0.0157-0.23417 0.0665-0.40984 0.13395-0.63815 0.24488-0.73845 1.5613-0.19593 2.575 0.30065 0.56176 0.45572 0.60683 0.87917 0.2554 0.37293-0.3095 0.45163-0.76069 0.28688-1.6429-0.13672-0.73213-0.20328-1.0964-0.32387-1.244-0.0603-0.0738-0.13384-0.0932-0.23641-0.0775zm-192.37 0.0185c-0.15263 5e-3 -0.33285 0.0961-0.54229 0.2699-0.57544 0.47757-0.65844 2.4599-0.14344 3.4222 0.19426 0.36299 0.57778 0.66025 0.85267 0.66025 0.38284 0 0.49981-0.47448 0.49981-2.0272-2e-6 -1.5893-0.20886-2.3416-0.66674-2.3251zm231.31 0.59877c-0.68914 0-1.2621 1.3637-0.85167 2.0277 0.42498 0.68765 1.5276 0.3888 1.7438-0.47281 0.25974-1.0349-0.0385-1.5549-0.89215-1.5549zm1.9887 0.2614c-0.36469 0.0954-0.59768 0.40782-0.5378 0.72122 0.0757 0.39612 1.1623 0.81852 3.831 1.4889 4.4792 1.1252 5.9549 1.853 8.2044 4.047 1.684 1.6424 2.2148 1.8639 2.4895 1.0396 0.12122-0.3637-1.7606-2.3927-3.4722-3.7436-1.6724-1.32-9.2557-3.8824-10.515-3.5531zm-8.9701 0.42134c-0.2815 0-0.51181 0.23323-0.51181 0.5183 0 0.38248-0.22319 0.46187-0.85266 0.30388-0.68669-0.17234-0.85318-0.0869-0.85318 0.43734 0 0.35813 0.18415 0.83539 0.40934 1.0606 0.66814 0.66814 1.5011 0.46899 1.9243-0.45982 0.53931-1.1837 0.49706-1.8603-0.11597-1.8603zm-231.71 0.32488c-0.27367 0.12621-0.47532 0.66339-0.47532 1.5514 0 1.2901 0.10519 1.5354 0.65925 1.5354 0.83219 0 1.1666-1.0051 0.72272-2.1727-0.28725-0.75553-0.63298-1.0404-0.90665-0.91414zm179.27 0.17443c-2.3364 0.13506-2.279 0.0992-1.3725 0.85517 0.69525 0.57975 0.89615 0.60091 1.8653 0.19343 1.7339-0.72907 1.5287-1.1654-0.49281-1.0486zm42.976 0.20992c-0.35873 0.0332-0.27781 0.29375 0.16393 1.0011 0.58107 0.93045 1.3583 0.8732 1.2215-0.09-0.0701-0.49337-0.3838-0.8066-0.87718-0.87666-0.22012-0.0313-0.38871-0.0456-0.50829-0.0345zm-244.56 0.31438c-1.096 0-1.365 0.12293-1.365 0.62526-3e-6 0.34404 0.1028 0.72806 0.22791 0.85317 0.39217 0.39217 1.5064 0.24846 2.0147-0.2599 0.82743-0.82743 0.54551-1.2185-0.87766-1.2185zm257.85 0.40884c-0.32996-0.13126-0.78285 0.36822-1.1011 1.3175-0.2624 0.78279-0.63914 1.2098-1.132 1.2825-0.71361 0.10529-0.98052 0.73034-0.51181 1.199 0.29938 0.2994 1.2086 0.28153 1.6964-0.0335 0.56846-0.36713 1.5395-2.866 1.328-3.4172-0.0731-0.19061-0.16938-0.30462-0.2794-0.34837zm-206.51 0.27339c-0.79072 0-0.60858 1.5932 0.2509 2.1952 0.43129 0.30209 0.88162 0.40039 1.0526 0.22941 0.40953-0.40953-0.6738-2.4246-1.3035-2.4246zm-2.8764 0.0355c-0.20684-0.072-0.42703 0.0931-0.59078 0.5198-0.19924 0.5192 0.30753 3.0753 0.95564 4.8186 0.15697 0.42224 0.51955 0.76771 0.80569 0.76771 0.63672 0 0.63699-0.0175 0.02749-2.3661-0.27105-1.0444-0.58089-2.3214-0.68874-2.8374-0.109-0.5216-0.30247-0.83069-0.5093-0.90266zm-57.38 0.1647c-0.30757 0.0928-0.67583 0.42006-0.91815 0.92564-0.36552 0.76265-0.37267 1.0592-0.035486 1.4654 0.29571 0.35631 0.73964 0.44143 1.4774 0.28389 1.9484-0.41604 2.5494-1.3921 0.96913-1.5739-0.5586-0.0643-0.93814-0.31507-0.93814-0.61976 0-0.43249-0.24722-0.57409-0.55478-0.48131zm272.04 0.58028c-0.24029-0.0662-0.51395 0.0992-0.63126 0.54778-0.18934 0.724-0.79071 1.0105-0.79071 0.37686 0-0.18766-0.15321-0.34087-0.34086-0.34087-0.41996 0-0.45727 2.2766-0.0415 2.5335 0.16493 0.10194 0.22197 0.8784 0.12644 1.7258-0.16595 1.4724-0.13509 1.5409 0.70324 1.5409 0.48248 0 0.96419 0.14005 1.0701 0.31139 0.10589 0.17133 0.83373 0.41989 1.6174 0.55228 1.9938 0.33686 5.8997 2.3702 7.6466 3.9805 0.80809 0.74487 1.8303 2.0706 2.2716 2.9464 0.44137 0.87581 0.99197 1.9379 1.223 2.3601 0.4651 0.84986 1.4195 1.0418 1.4195 0.28539 0-1.027-2.1308-4.5729-3.6916-6.1431-1.8374-1.8486-6.5982-4.5255-8.6252-4.8496-0.99776-0.15955-1.3315-0.37294-1.3315-0.85167 0-0.35134-0.22089-0.63876-0.4913-0.63876-0.62793 0-0.98702-0.57592-0.74772-1.1995 0.16045-0.41809 0.38708-0.41749 1.6509 7e-3 0.80573 0.27064 2.8468 0.91533 4.5358 1.4324s3.2635 1.1254 3.4992 1.3515c0.23571 0.22614 0.69764 0.49652 1.0261 0.60077 0.53284 0.16912 3.4895 3.2322 4.6932 4.8621 0.35808 0.48488 0.55157 0.5324 0.87464 0.21391 0.3253-0.32067 0.28231-0.61553-0.19891-1.365-1.0724-1.6701-5.546-5.8086-6.5445-6.0542-0.52862-0.12999-1.7292-0.59953-2.6675-1.0436-0.93829-0.44406-2.6376-0.98653-3.7765-1.205-1.7453-0.33485-2.067-0.50687-2.0472-1.0966 0.0159-0.47652-0.19105-0.77444-0.43132-0.84067zm-228.24 0.30538c-0.61266 0.11606-1.0048 1.8978-0.63176 2.8699 0.10116 0.26362 0.41885 0.47931 0.70623 0.47931 0.40055 0 0.5223-0.40434 0.5223-1.7313 0-1.4642-0.0917-1.7136-0.59677-1.6179zm3.9665 0.01c-0.71123-0.13697-1.1143 0.89096-0.59477 1.5169 0.56284 0.67818 1.1491 0.37703 1.1491-0.59027 0-0.48539-0.22622-0.86347-0.55429-0.92665zm165.33 0.60227c-1.0543 0.0108-2.3153 0.19632-3.1418 0.55029-0.6977 0.2988-1.9594 0.75532-2.8039 1.0141-1.676 0.51362-4.2169 2.4037-3.9065 2.9059 0.26822 0.43399 0.4295 0.40116 1.4654-0.29589 2.0293-1.3654 5.5617-2.568 7.772-2.6465 1.9466-0.0691 2.517-0.30245 2.517-1.0291 0-0.34552-0.84798-0.50959-1.9023-0.49881zm-202.62 7e-3c-0.57277 0-1.2275 1.0022-1.2275 1.8783 0 0.38346 0.24009 0.52376 0.7677 0.44882 0.5884-0.0836 0.79272-0.36811 0.87466-1.218 0.07848-0.81395-0.03211-1.1091-0.41484-1.1091zm-2.8204 0.0605c-0.70927 0.13748-1.6479 3.3106-1.341 4.5332 0.17182 0.68459 0.4297 0.86567 1.234 0.86567 0.83807 0 1.0171 0.1402 1.0171 0.7962 0 0.43787 0.10517 0.90087 0.23341 1.0291s0.34529 0.11539 0.48232-0.0285c0.39398-0.41365 0.51299-1.7666 0.15444-1.7558-0.17837 5e-3 -0.44229-0.30899-0.58628-0.69824-0.14464-0.391-0.56541-0.70772-0.94014-0.70772-0.64754 0-0.6556-0.0635-0.18143-1.4075 0.66844-1.8946 0.64441-2.7654-0.07247-2.6265zm5.6668 0.35236c-0.40772 0.0127-0.76058 0.54377-0.54729 1.0996 0.11286 0.2941 0.36834 0.53479 0.56778 0.53479 0.55269 0 0.8231-1.0192 0.38635-1.4559-0.12919-0.12918-0.27094-0.18268-0.40684-0.17843zm12.646 0.61077c-0.90861 0-1.364 1.79-0.81769 3.2138 0.11391 0.29684 0.49202 0.53979 0.84018 0.53979 0.54255 0 0.62948-0.26837 0.61027-1.8768-0.01871-1.5672-0.12281-1.8768-0.63276-1.8768zm-31.041 0.31784c0.16229 0.0434 0.35737 0.18544 0.59027 0.41834 0.29917 0.29918 0.53812 0.27882 0.98512-0.085 0.5303-0.43157 0.56211-0.41128 0.31488 0.20193-0.15132 0.37532-0.42066 1.2966-0.59877 2.0472s-0.47681 1.647-0.66375 1.9922c-0.18694 0.3452-0.29762 1.7637-0.24591 3.1523 0.060994 1.6378-0.05129 2.6698-0.31938 2.9379-0.22729 0.22729-0.41334 0.83461-0.41334 1.349 0 0.51438-0.17009 1.0402-0.37785 1.1686-0.25421 0.15711-0.30231-4e-3 -0.14745-0.49181 0.1641-0.51702 0.084642-0.72522-0.27639-0.72522-0.2785 0-0.57497 0.19226-0.65875 0.42684-0.32752 0.91706-0.49276-8e-3 -0.33237-1.8583 0.14379-1.659 0.27459-1.9591 0.89516-2.0477 0.5169-0.0738 0.69177-0.30061 0.60527-0.7857-0.13262-0.74372-0.14246-1.4692-0.071473-5.2035 0.035517-1.8685 0.22785-2.6273 0.71473-2.497zm44.654 0.19393c-0.48182 0-0.97714 1.7053-0.71873 2.474 0.2526 0.75142 1.099 0.45667 1.4699-0.5118 0.39458-1.0303 0.03791-1.9622-0.75121-1.9622zm21.214 0.23591c-0.20174-0.0673-0.36686 0.13406-0.36686 0.44683s0.16513 0.51357 0.36686 0.44633c0.20174-0.0673 0.36636-0.26805 0.36636-0.44633s-0.16462-0.37959-0.36636-0.44683zm189.55 0.27489c-0.55339 0.054-1.0912 0.38779-1.172 0.95813-0.0613 0.43257 0.0723 1.0084 0.29738 1.2795 0.9787 1.1793 2.5534 0.0628 2.1402-1.5174-0.14341-0.54845-0.71212-0.7742-1.2655-0.72022zm17.908 0.10646c-0.15154-9e-3 -0.29408 0.0163-0.40435 0.0845-0.35017 0.21642-0.41906 1.2938-0.10295 1.6099 0.28866 0.28866 1.4989-0.51234 1.4989-0.99212 0-0.35091-0.53698-0.67648-0.99162-0.70223zm-190.12 0.0845c0.09777 0.0978 0.23885 1.208 0.31388 2.4676 0.10643 1.7866 0.0458 2.2034-0.27689 1.8953-0.22749-0.21719-0.51633-0.89666-0.64175-1.5099-0.24837-1.2144-0.94566-1.7-1.261-0.87816-0.31788 0.82839 1.1199 3.7479 1.7303 3.5136 0.44233-0.16974 0.52324 0.50622 0.57828 4.8246 0.0352 2.7621 0.0954 5.5593 0.13345 6.2161 0.03804 0.65682 0.09682 3.402 0.13095 6.1002 0.03943 3.1176-0.0714 5.039-0.30388 5.2715-0.2603 0.2603-0.36586 0.0195-0.36586-0.83468 0-0.66028-0.21825-1.9579-0.48532-2.8834-0.49242-1.7064-1.0023-4.7893-1.4065-8.5067-0.21277-1.957-0.60231-2.9078-1.0206-2.4895-0.30913 0.30912-0.27286 1.3013 0.13545 3.7011 0.25806 1.5167 0.27159 2.6126 0.04298 3.4097-0.18529 0.64606-0.33687 1.675-0.33687 2.2861-3e-6 1.6831-0.48518 1.3359-1.189-0.85067-0.45219-1.4047-0.61216-2.8201-0.56278-4.9836 0.03793-1.6619-0.02377-3.3149-0.13745-3.6731-0.39517-1.2451-0.84018-0.24708-0.84018 1.8848 0 1.6637-0.14356 2.2749-0.63975 2.724-0.61176 0.55363-0.66371 0.51825-1.194-0.80719-0.71115-1.7774-0.74639-6.7198-0.05448-7.6331 0.49724-0.65633 1.206-0.50502 1.206 0.2574 0 0.78902 1.2834 1.6625 2.1302 1.4499 0.59114-0.14836 0.89749-0.59095 1.205-1.7408 0.3627-1.3561 0.32736-1.7691-0.29189-3.4242-0.40208-1.0747-0.91329-1.8823-1.1915-1.8823-0.63553 0-0.61852 0.80357 0.04398 2.0847 0.58332 1.128 0.54508 3.4195-0.06048 3.6181-0.54778 0.17964-1.8878-2.845-2.1362-4.8216-0.21522-1.7126-0.88471-2.4284-1.288-1.3775-0.12324 0.32116-0.03122 1.3362 0.20442 2.2556 0.33776 1.3179 0.34018 1.7781 0.01149 2.1742-0.22931 0.2763-0.55539 0.50231-0.72472 0.50231-0.3319 0-0.97574-1.4506-1.1361-2.559-0.6497-4.4916-0.67594-4.1517 0.34037-4.4068 0.69684-0.17489 1.1252-0.0563 1.6804 0.46532 0.94627 0.88896 2.108 0.89652 2.657 0.0175 0.23439-0.37533 0.62177-0.68224 0.86067-0.68224s0.70075-0.13289 1.0266-0.29539c1.074-0.53559 2.9328-1.0607 3.1138-0.87966zm-31.865 0.49281c-0.51945 0-0.69995 0.7215-0.28439 1.1371 0.43257 0.43257 0.7962 0.22493 0.7962-0.45482 0-0.37912-0.22747-0.68224-0.5118-0.68224zm213.72 0.15894c-0.11088-0.0346-0.24812 2e-4 -0.40386 0.12945-0.24211 0.20094-0.77756 0.2768-1.19 0.16894-0.57985-0.15163-0.75023-0.0478-0.75023 0.45782 0 0.35968 0.18415 0.8384 0.40934 1.0636 0.62896 0.62896 1.5722 0.48741 1.9932-0.29938 0.36768-0.68701 0.27412-1.4166-0.0585-1.5204zm-250.57 0.18193c-0.28149 0-0.5118 0.23031-0.5118 0.5118s0.23031 0.51181 0.5118 0.51181 0.5118-0.23032 0.5118-0.51181-0.23031-0.5118-0.5118-0.5118zm51.436 0.34387c-0.44684-3e-3 -0.57388 1.2634-0.21942 2.1872 0.24842 0.64736 1.4989 0.72743 1.4989 0.096 0-0.78329-0.839-2.2804-1.2795-2.2831zm-24.481 0.5093c-0.54484 0-0.70438 0.26315-0.7902 1.306-0.09832 1.1947-0.03978 1.2969 0.68274 1.1945 0.65394-0.0927 0.7897-0.31783 0.7897-1.3065 0-0.96673-0.12982-1.194-0.68224-1.194zm189.37 0.17044c-0.28435 0.0307-0.5098 0.37777-0.5098 1.0236 0 0.86438 0.13235 1.0236 0.85267 1.0236 0.97142 0 0.96847 7e-3 0.5203-1.172-0.23586-0.62035-0.57882-0.90589-0.86317-0.87516zm41.13 0.35686c-0.33963-0.0191-0.67816 0.12854-0.80317 0.45432-0.11447 0.29826-0.50131 0.40821-1.0601 0.30139-1.0102-0.19312-1.1026 0.124-0.34887 1.2 0.65884 0.94062 0.84087 0.94178 2.0672 0.0125 0.54138-0.41024 1.0263-0.77214 1.0776-0.8042 0.0513-0.032-3e-3 -0.31041-0.12145-0.61876-0.13056-0.34019-0.47155-0.52614-0.81121-0.54529zm-222.36 0.32587c-0.47828 0-0.60358 0.92664-0.2499 1.8483 0.22694 0.59141 1.0035 0.72433 1.3125 0.22442 0.28917-0.46788-0.53357-2.0727-1.0626-2.0727zm196.42 0c-0.53076 0-0.68224 0.22747-0.68224 1.0236 0 1.1033 0.79271 1.4346 1.1576 0.48381 0.37872-0.98693 0.21457-1.5074-0.47532-1.5074zm-28.194 0.17144c-1.0402-0.12474-3.3144 0.25343-4.8631 0.91265-2.4942 1.0617-5.834 3.9061-5.8383 4.9721-3e-3 0.72864 0.47709 0.48129 2.1697-1.1176 1.7666-1.6688 5.5304-3.5741 7.0603-3.5741 1.297 0 2.0277-0.32134 2.0277-0.89216 0-0.16145-0.20953-0.2593-0.55629-0.30088zm23.061 0.34936c-0.46671 0.28845-0.40337 2.3361 0.0875 2.8269 1.0498 1.0498 1.7131-0.77873 0.79219-2.1842-0.30421-0.46429-0.70024-0.75364-0.87966-0.64276zm15.563 0.84368c-0.54799 0-1.035 1.1725-0.70721 1.7028 0.46405 0.75085 1.196 0.33519 1.196-0.67924 0-0.66101-0.17317-1.0236-0.48882-1.0236zm-213.62 0.34137c-0.28149 0-0.51181 0.23031-0.5118 0.5118 0 0.28149 0.23031 0.51181 0.5118 0.51181 0.28149 0 0.5118-0.23032 0.5118-0.51181s-0.23032-0.5118-0.5118-0.5118zm222.95 0.36086c-0.19973-0.0187-0.43124 0.19794-0.55279 0.66275-0.19272 0.737-0.61419 0.88815-0.95214 0.34137-0.11597-0.18766-0.35522-0.34137-0.53179-0.34137-0.46246 0-0.39562 1.4947 0.0885 1.9787 0.22519 0.22519 0.54576 0.40984 0.71271 0.40984 0.53706 0 1.5842-1.5111 1.5959-2.3031 7e-3 -0.4755-0.16065-0.72956-0.36036-0.74821zm11.318 0.014c-0.17662-0.0436-0.39283 0.0959-0.65874 0.41634-0.43365 0.52251-0.41346 4.2736 0.0246 4.5442 0.16247 0.10042 0.4878 0.0231 0.72272-0.17193 0.61503-0.51044 4.2463 0.0703 5.9847 0.95713 2.1112 1.0771 4.4175 3.5298 5.5708 5.9242 0.56032 1.1633 1.2489 2.3732 1.5299 2.689 0.44798 0.50334 1.4704 0.52105 1.4704 0.0255 0-0.63392-3.0748-6.1476-4.1619-7.4631-2.2146-2.68-5.2301-4.2191-8.2748-4.2234-0.99609-1e-3 -1.248-0.10195-0.96513-0.38485 0.44594-0.44595 0.18087-1.4163-0.30488-1.1161-0.18064 0.11163-0.4132-0.1196-0.51631-0.51381-0.10789-0.4126-0.24469-0.63967-0.42134-0.68323zm-230.87 0.64875c-0.61242 0-0.8841 0.50205-0.63026 1.1636 0.2268 0.59104 1.0032 0.72839 1.31 0.23191 0.28928-0.46805-0.1625-1.3955-0.67974-1.3955zm9.7628 0.18393c0.1756 0.10852 0.31938 0.41882 0.31938 0.68923 0 0.27042 0.23031 0.49182 0.5118 0.49182 0.37911 0 0.5118 0.39807 0.5118 1.5354 0 1.1373-0.13269 1.5354-0.5118 1.5354-0.35016 0-0.5118-0.35135-0.5118-1.1116 0-0.61114-0.14377-1.6119-0.31938-2.2241-0.19823-0.69119-0.19823-1.0387 0-0.91615zm-2.8629 0.26839c-0.15344-0.11473-0.33901-0.084-0.56478 0.0555-0.2168 0.134-0.28878 0.49677-0.16044 0.80619 0.12834 0.30943 0.29621 3.0191 0.37336 6.0217 0.177 6.8889 0.1545 6.4039 0.32138 6.9378 0.30518 0.97652 0.99327 0.1254 0.94514-1.169-0.02726-0.73313-0.10987-3.7497-0.18393-6.7034-0.09906-3.9512-0.27041-5.6045-0.73072-5.9487zm216.8 0.2639c-0.19001-0.0474-0.44703 0.16463-0.70772 0.65175-0.2742 0.51235-0.57867 0.63228-1.206 0.47482-0.91981-0.23085-1.0711 0.15786-0.48632 1.2505 0.77672 1.4513 2.6852 0.41327 2.707-1.4724 6e-3 -0.55052-0.11687-0.8573-0.30688-0.90466zm-53.84 0.73872c-0.68512 0.016-1.6212 0.2732-2.715 0.76921-1.8302 0.82999-4.5438 3.0071-4.5438 3.6456 0 0.56571 0.93561 0.23845 1.7268-0.60376 1.204-1.2816 3.9209-2.5365 5.4914-2.5365 1.1126 0 1.341-0.10893 1.2485-0.59677-0.0888-0.46844-0.52292-0.69371-1.208-0.67774zm-171.47 0.99759c-0.66317-0.12772-1.1115 0.6863-0.81019 1.4714 0.22214 0.5789 0.52327 0.63165 1.1895 0.20942 0.61945-0.39256 0.36096-1.5383-0.37935-1.6808zm208.77 0.27689c-0.26143 0-0.56373 0.23031-0.67174 0.5118-0.10802 0.2815-0.50846 0.51181-0.88967 0.51181-0.79155 0-0.9757 1.2869-0.28339 1.9792 0.62502 0.62501 1.1625 0.49355 1.7688-0.43184 0.68264-1.0418 0.72791-2.571 0.076-2.571zm4.8416 0.49981c-0.32059-0.3206-1.8874 1.3382-1.7208 1.8218 0.25206 0.73168 1.2402 0.29848 1.5904-0.69723 0.17956-0.51058 0.23834-1.0167 0.13045-1.1246zm15.677 0.34237c-0.16129 0.0368-0.37021 0.12491-0.62926 0.2624-1.4728 0.7817-1.6442 0.95809-1.4424 1.4839 0.33832 0.88165 1.9262 0.45407 2.3016-0.61976 0.20585-0.58884 0.25025-0.94256 0.11344-1.0801-0.0684-0.0688-0.18207-0.0833-0.34337-0.0465zm-11.646 0.31987c-0.39636 0.10639-0.91298 0.19587-1.1476 0.19843-0.58407 6e-3 -0.53494 0.52915 0.10996 1.174v5.1e-4c0.67036 0.67034 0.98425 0.67312 1.6429 0.0145 0.71809-0.71807 0.31801-1.6353-0.60526-1.3875zm-237.43 0.24841c-0.27506-0.11529-0.55369 0.0245-0.72322 0.46632-0.21035 0.54815 0.02357 1.4403 0.55928 2.1327 0.18151 0.23458 0.44867 0.42634 0.59327 0.42634 0.46364 0 0.57731-0.82169 0.2719-1.9618-0.15477-0.57773-0.42617-0.9483-0.70123-1.0636zm57.807 0.67274c-0.16044-0.0946-0.36177 0.0484-0.5258 0.47582-0.11481 0.29919-0.62639 0.5118-1.231 0.5118-1.1004 0-1.29 0.29037-0.62476 0.95563 0.96273 0.96273 2.6615 0.32941 2.6615-0.99211 0-0.5242-0.11945-0.8565-0.27989-0.95114zm125.36 2.0112c-0.47856 0-2.2481 3.1415-2.2481 3.991 0 0.86105 0.52277 0.40677 1.6204-1.4075 1.2172-2.012 1.3562-2.5835 0.62775-2.5835zm60.323 0.028c-0.0949 0.0441-0.19213 0.13616-0.28187 0.28139-0.1051 0.17004-0.49804 0.22905-0.87319 0.13095-0.70962-0.18557-0.88586 0.33729-0.4748 1.4085 0.45858 1.195 2.1812 0.35462 2.1812-1.0641 0-0.39294-0.11845-0.65693-0.28187-0.75022-0.0817-0.0466-0.17445-0.0506-0.26942-6e-3zm-219.19 0.35286c-0.31131 0.0631-0.28493 0.45865-0.13645 1.8978 0.11272 1.0925 0.27355 2.2041 0.35786 2.47 0.30762 0.97035 0.76517-0.17639 0.87366-2.1897 0.10274-1.9066 0.05719-2.0544-0.66325-2.1567-0.18681-0.0265-0.32806-0.0425-0.43184-0.0215zm209.64 0.68824c-0.60595 0.0174-0.7945 0.37659-0.46131 0.99912 0.48698 0.90996 2.0357 0.89886 2.0357-0.0145 0-0.43221-0.30012-0.75137-0.83316-0.88516-0.29091-0.073-0.53924-0.10527-0.74122-0.0995zm3.3872 0.0975c-0.40125 0.15121-0.5052 0.81842-0.12094 1.5364 0.49318 0.92153 1.9176 0.93304 2.4066 0.0195 0.43989-0.82197 0.2037-1.3228-0.60777-1.29-0.32471 0.0131-0.85773-0.0896-1.1846-0.22792-0.19272-0.0816-0.35954-0.0884-0.4933-0.038zm-219.73 0.29239c-0.52471-0.1749-0.87487 1.9573-0.41284 2.514 0.49328 0.59437 0.86191 0.58763 1.0951-0.02 0.24434-0.63674-0.22153-2.3405-0.68224-2.494zm193.93 0.37286c-0.0981-0.01-0.20415 0.0422-0.31788 0.15594-0.18766 0.18766-0.22966 0.52185-0.0935 0.74221 0.16508 0.26711 0.36131 0.28695 0.58878 0.0595 0.18766-0.18766 0.22966-0.52185 0.0935-0.74222-0.0825-0.13355-0.17277-0.2055-0.27089-0.21541zm-190.29 0.0445c-0.40118-0.24794-1.0226 1.2176-1.0226 2.4111 0 0.93302 0.83103 1.1418 1.1576 0.29089 0.32397-0.84425 0.24276-2.4685-0.13495-2.702zm192.25 0.2519c-0.22347 8e-3 -0.42334 0.0503-0.55928 0.13595-0.31096 0.19581-0.13656 0.34795 0.57728 0.50331 1.5207 0.33095 1.5354 0.33086 1.5354-0.031 0-0.23198-0.39236-0.4359-0.85267-0.53879-0.23016-0.0515-0.47725-0.0776-0.70074-0.0695zm2.545 0.58778c-0.34142-0.0266-0.65025 0.20587-0.65025 0.71872 0 0.38766 0.1591 1.0015 0.35336 1.3645 0.4388 0.81989 1.8694 0.92729 1.5584 0.11695-0.1147-0.29892-0.30146-0.91326-0.41484-1.365-0.13128-0.52307-0.50525-0.80862-0.84667-0.83518zm34.941 0.0505c-0.18241-0.0496-0.49338 0.0926-0.94564 0.42333-0.36471 0.26668-0.52242 0.63293-0.37487 0.87167 0.39972 0.64675 1.374 0.27711 1.4944-0.56728 0.0623-0.43664 8e-3 -0.67817-0.17393-0.72772zm-246.39 0.0305c-0.63828 0.12098-0.93045 1.5495-0.59227 2.8969 0.13743 0.54756 0.40946 0.79615 0.7907 0.72273 0.70226-0.13524 0.89774-0.96504 0.60077-2.548-0.16202-0.86367-0.3769-1.1516-0.79919-1.0716zm242.68 0.72922c-0.56091-0.21524-1.5114 0.62644-1.5114 1.3385 0 0.16426 0.42119 0.25031 0.93566 0.19093 1.0789-0.12453 1.4775-1.1834 0.57578-1.5294zm-41.084 0.052c-0.47304 0.29235-0.44098 3.0098 0.048 4.0829 0.6198 1.3603 1.31 1.0932 1.31-0.50681 0-1.6217-0.85929-3.8843-1.358-3.5761zm25.156 0.17543c-0.28416 0-0.5971 0.30691-0.69524 0.68224-0.10231 0.39125-0.46505 0.68223-0.85066 0.68223-0.36991 0-0.86654 0.2333-1.1031 0.51831-0.35195 0.42407-0.31873 0.64082 0.18194 1.194 0.76402 0.84424 1.2636 0.85326 2.0032 0.036 0.82034-0.90648 1.1491-3.1128 0.46382-3.1128zm12.562 0.68224c-0.29339 0-0.5333 0.12885-0.5333 0.28639 0 0.15753-0.38403 0.46148-0.85318 0.67524-0.99267 0.45228-1.1102 1.2471-0.2559 1.7313 0.88171 0.49976 1.9396-0.33023 2.0687-1.6229 0.0788-0.78867-0.0332-1.0701-0.42633-1.0701zm-232.92 0.17043c-0.56223 0-0.78925 0.93491-0.50331 2.0742 0.27636 1.1011 1.1483 1.0528 1.4325-0.0795 0.25266-1.0067-0.20744-1.9947-0.92914-1.9947zm226 0.76771c-0.41753-0.14176-0.48069 0.93398-0.11196 1.9038 0.43166 1.1353 1.134 1.1687 1.7158 0.0815 0.55354-1.0343 0.2528-1.8998-0.65977-1.8998-0.38119 0-0.80596-0.0386-0.94412-0.0855zm-212.01 1.8653c-0.39714-0.0764-0.60558 0.23586-0.74971 1.1241-0.10976 0.67639-0.11436 1.4512-0.01049 1.7218 0.29071 0.75757 1.1069 0.58324 1.289-0.2754 0.27954-1.3183 0.0448-2.4602-0.5288-2.5705zm209.05 0.94964c-0.64894 0-1.0204 1.8307-0.5498 2.71 0.20677 0.38633 0.6506 0.70223 0.98663 0.70223 0.87057 0 2.1624-1.4738 1.8972-2.1647-0.29306-0.76374-0.73339-0.71189-0.99661 0.11745-0.32666 1.0292-0.85317 0.81851-0.85317-0.34137 0-0.65696-0.17322-1.0236-0.4843-1.0236zm15.922 0.0965c-0.22082-0.0581-0.42434 0.0545-0.42434 0.38685 0 0.34235-0.29928 0.54029-0.81668 0.54029-0.87283 0-1.3336 0.69892-1.0126 1.5354 0.10802 0.2815 0.47555 0.51181 0.81717 0.51181 0.74151 0 2.1024-1.62 1.9633-2.3371-0.068-0.3502-0.30598-0.5792-0.5268-0.63725zm-233.2 1.0106c-0.47401 0.158-1.0093 1.9497-0.7727 2.586 0.2379 0.63995 1.3324 0.34515 1.4754-0.39735 0.18365-0.95361-0.2603-2.3361-0.70273-2.1887zm3.4012 2e-3c-0.57049 0.18724-0.73768 2.2291-0.23241 2.8379 0.5965 0.71873 0.96418 0.60069 1.2125-0.38885 0.26152-1.042-0.38041-2.6459-0.98012-2.4491zm7.81 1.28c-0.48748 0-0.89566 1.4187-0.89566 3.1133 0 1.0655 0.80087 1.3708 1.1576 0.44133 0.41254-1.0751 0.22989-3.5546-0.2619-3.5546zm-29.858 0.0725c-0.79725 0.15158-0.96049 3.7784-0.22092 4.9071 0.29572 0.45132 0.78139 0.82069 1.0791 0.82069 0.43496 0 0.49995-0.25131 0.33287-1.2795-0.11436-0.70373-0.30476-2.016-0.42334-2.9164-0.16572-1.2584-0.34329-1.6126-0.7677-1.5319zm242.47 0.27639c-0.29769 0.086-0.59879 0.62735-0.59879 1.228 0 0.68766-0.14803 0.83364-0.7592 0.74771-0.88619-0.12459-1.2382 0.83643-0.59178 1.6154 0.97166 1.1708 2.5119-0.16445 2.4386-2.1142-0.0256-0.68197-0.11736-1.3104-0.20342-1.3965-0.0871-0.0871-0.18617-0.10914-0.28538-0.0805zm-8.0889 0.70773c-0.2082-0.0669-0.42413 0.0849-0.57529 0.47881-0.10802 0.2815-0.40141 0.51181-0.65174 0.51181-0.63384 0-0.83728 0.43551-0.60978 1.3055 0.24124 0.92242 1.1787 0.95699 1.9788 0.073 0.41172-0.45497 0.53537-0.94565 0.38733-1.5354-0.12079-0.48129-0.32108-0.76679-0.52928-0.83368zm17.753 1.0626c-0.16183 0.0182-0.31468 0.0793-0.42933 0.19393-0.19622 0.19622-0.24796 0.53231-0.11546 0.74671 0.30148 0.48779 1.267 0.32548 1.457-0.24491 0.0933-0.28015-0.12756-0.52004-0.42884-0.63275-0.15062-0.0564-0.32146-0.0811-0.48332-0.063zm-21.649 0.95163c-0.66351 0-1.0128 0.57166-0.75673 1.239 0.27786 0.72406 1.0307 0.40145 1.1631-0.49831 0.0709-0.48159-0.0714-0.74072-0.40634-0.74072zm-197.29 0.0539c-0.67802 0.12933-1.0245 1.3029-0.66274 2.2456 0.28816 0.75092 0.80269 0.16346 1.0826-1.236 0.19752-0.9876 0.14394-1.1172-0.41984-1.0096zm214.52 0.024c-0.11966-0.0105-0.23991 0.022-0.34687 0.089-0.21394 0.13401-0.37536 0.40569-0.37536 0.74771 0 0.4336-0.0951 0.45499-0.50781 0.11246-0.41019-0.34043-0.54681-0.31995-0.71123 0.10846-0.38454 1.0021 0.0166 1.756 1.0526 1.9777 0.56071 0.11999 1.1348 0.23618 1.2755 0.2584 0.14074 0.0222 0.2559-0.18983 0.2559-0.47132s-0.14986-0.5118-0.33288-0.5118c-0.21304 0-0.20866-0.32699 0.0125-0.90866 0.21821-0.57385 0.22625-1.0283 0.0215-1.233-0.10513-0.10515-0.2242-0.15848-0.34386-0.16894zm-240.74 0.2634c-0.5597 0-0.91787 0.84323-0.65225 1.5354 0.20793 0.54186 1.6669 0.70945 1.9657 0.22591 0.24887-0.40267-0.76444-1.7613-1.3135-1.7613zm24.202 1.1121c-0.31694-0.14909-0.69713 0.35058-0.7827 1.217-0.07569 0.76642 0.0374 1.0826 0.38685 1.0826 0.55449 0 0.9672-1.1708 0.67824-1.9238-0.07842-0.20435-0.17674-0.32616-0.28239-0.37586zm-5.5554 0.33937c-0.07084-0.0119-0.15845 6e-3 -0.2664 0.0475-0.29684 0.1139-0.59676 0.20692-0.66674 0.20692-0.25632 0-0.56828 2.3985-0.37686 2.8974 0.51193 1.3341 1.5834-0.0591 1.5834-2.0587 0-0.75189-0.06086-1.0573-0.2734-1.0931zm226.16 0.69923c-0.17984-0.0195-0.43999 4e-3 -0.7797 0.076-1.3726 0.28922-1.7711 0.64202-1.5059 1.333 0.27292 0.71123 0.63927 0.6744 1.7158-0.17243 0.92621-0.72856 1.1094-1.1781 0.56979-1.2365zm-13.572 0.66625c-0.23344-0.0785-0.57555 0.25331-0.75972 0.73772-0.20782 0.5466-0.59684 0.88066-1.0256 0.88066-0.66445 0-0.93542 0.66546-0.46331 1.1376 0.38109 0.3811 1.7147 0.25399 2.0862-0.19892 0.53719-0.65487 0.64769-2.3937 0.16245-2.557zm-209.42 0.2539c-0.31845 0-0.5118 0.32192-0.5118 0.85268s0.19335 0.85317 0.5118 0.85317c0.31846 0 0.5118-0.32241 0.5118-0.85317s-0.19335-0.85268-0.5118-0.85268zm189.08 0.037c-0.26434-0.0739-0.53624 0.15797-0.68973 0.73072-0.29437 1.0984-0.26314 1.7918 0.12795 2.8204 0.73956 1.9452 1.6729 0.0483 1.2045-2.4481-0.12189-0.64973-0.37841-1.0292-0.64275-1.1031zm24.98 0.034c-0.22105 0.14311-0.44456 0.58164-0.63625 1.2935-0.36215 1.3449-1.0236 1.8779-1.0236 0.82468 0-0.29712-0.19226-0.47737-0.42684-0.40035-0.46618 0.15308-0.75793 1.7347-0.46232 2.505 0.10193 0.26564 0.49891 0.48282 0.88217 0.48282 0.82524 0 2.6295-3.3332 2.2871-4.2254-0.1807-0.47082-0.39921-0.62342-0.62028-0.48032zm-210.83 0.66175c-0.12412 6e-3 -0.22442 0.10939-0.35286 0.31238-0.35771 0.56531-0.43211 4.1886-0.09296 4.5278 0.47236 0.47237 0.77522 0.18784 1.1196-1.0521 0.50412-1.8152 0.44358-3.0025-0.17893-3.5192-0.22286-0.18496-0.37069-0.27527-0.49481-0.2689zm178.94 0.63176c-0.26694 0-0.50252 0.34547-0.5233 0.7677-0.0529 1.075 0.0773 2.4263 0.2629 2.73 0.30775 0.50347 1.0977 0.24348 1.312-0.43184 0.29236-0.92115-0.44318-3.0658-1.0516-3.0658zm36.876 1.7063c-0.32413 0-0.51181 0.32602-0.51181 0.88966 0 0.77895-0.10661 0.86362-0.85317 0.67624-0.72881-0.18292-0.85318-0.0975-0.85318 0.58828 0 0.44144 0.10282 0.90499 0.22793 1.0301 0.53389 0.53389 1.4984 0.15449 1.9812-0.7792 0.66557-1.2871 0.6699-2.4051 9e-3 -2.4051zm-238.39 0.10596c-0.10632 0.0287-0.20839 0.11072-0.30088 0.2569-0.50431 0.79698-0.36397 2.7764 0.24441 3.4487 0.7226 0.79848 1.0431 0.78783 1.307-0.0435 0.39195-1.2349-0.26026-3.1908-0.92315-3.5981-0.11048-0.0679-0.22106-0.0926-0.32738-0.064zm18.059 0.61177c-0.31671 0.016-0.6469 0.39787-0.7852 1.1351-0.12515 0.6671-0.13905 1.4439-0.03049 1.7268 0.48528 1.2646 1.7067-0.18419 1.5194-1.8023-0.08404-0.72593-0.38702-1.0756-0.70373-1.0596zm202.3 0.0225c-0.95318-0.18356-1.3777 0.41786-0.91065 1.2905 0.52759 0.98579 1.5439 0.77202 1.5439-0.32488 0-0.5506-0.21993-0.88603-0.63326-0.96563zm-207.11 2.33c-0.56604 0-1.4132 1.8424-1.0886 2.3676 0.39016 0.6313 1.2082 0.39148 1.6004-0.46932 0.43791-0.96112 0.18526-1.8983-0.5118-1.8983zm215.73 0.15943c-0.21215 0.0109-0.47255 0.0822-0.77472 0.21992-0.95375 0.43456-1.0322 0.59867-0.69823 1.4689 0.32085 0.83614 1.4672 0.64242 1.9068-0.32238 0.26997-0.59254 0.27002-1.0167 0.0515-1.224-0.10929-0.10367-0.27317-0.15331-0.48531-0.14245zm5.5718 0.97613c-0.23676-0.0462-0.4901 0.18876-0.62627 0.73122-0.16529 0.65859-0.4119 0.86545-0.94264 0.7917-0.84655-0.11764-1.1803 0.86494-0.55129 1.6229 0.22614 0.27248 0.61179 0.49531 0.85668 0.49531 0.72421 0 1.9008-1.7644 1.7903-2.6845-0.07-0.58271-0.29004-0.91038-0.5268-0.95663zm-241.47 0.91165c-0.95205 0-1.1786 2.163-0.32538 3.1058 0.91804 1.0144 1.6093 0.42252 1.356-1.1616-0.26054-1.6293-0.4277-1.9442-1.0306-1.9442zm246.59 0.37536c-0.16342-0.0291-0.39798 0.18277-0.68275 0.63875-0.245 0.39233-0.63361 0.59087-0.93212 0.47632-0.58507-0.22451-1.0333 0.63398-0.73572 1.4095 0.45686 1.1906 2.6065-0.22734 2.6065-1.7193 0-0.50661-0.0925-0.77614-0.2559-0.80519zm-217.06 0.30688c-0.38576 0-1.0462 2.0512-0.80219 2.4915 0.08348 0.15065 0.32991 0.21577 0.54729 0.14445 0.49662-0.16296 0.73577-2.636 0.2549-2.636zm-7.2422 0.34387c-0.85307 5e-3 -1.7408 2.8729-1.0906 3.5231 0.67166 0.67166 0.99837 0.1969 1.313-1.9053 0.18861-1.2602 0.13934-1.6199-0.22241-1.6179zm204.06 0.5163c-0.83145 0.23606-1.4343 1.788-0.64175 2.743 0.56647 0.68256 0.90925 0.61916 1.8748-0.34637 0.85515-0.85516 1.0889-1.5509 0.52079-1.5509-0.17425 0-0.5743-0.25742-0.88916-0.57228-0.28466-0.28467-0.58752-0.35208-0.86467-0.27339zm-201.16 0.2649c-0.30248 0.30248-0.78114 2.7375-0.59677 3.0358 0.21474 0.34744 1.0611 0.35801 1.2725 0.016 0.08787-0.14218 0.26697-0.8311 0.39835-1.5314 0.19038-1.0148 0.12448-1.3175-0.32488-1.4899-0.3101-0.119-0.64706-0.13264-0.74921-0.0305zm-8.9751 0.66674c-0.15117 4e-3 -0.32589 0.0825-0.5198 0.24341-0.53114 0.4408-0.72959 2.4242-0.28689 2.8669 0.6096 0.6096 1.3009-0.0214 1.4045-1.282 0.09622-1.1712-0.14427-1.8391-0.59777-1.8283zm220.15 1.4055c-0.21875-0.112-0.48381 0.0948-0.63625 0.70223-0.15968 0.63628-0.44422 0.87717-1.0361 0.87717-0.8878 0-1.0097 0.3656-0.46283 1.3875 0.19426 0.36299 0.55439 0.65975 0.80018 0.65975 0.75396 0 1.6388-1.2606 1.6944-2.4146 0.0322-0.66894-0.14059-1.1-0.35936-1.212zm4.1929 1.7138c-0.40128-0.15398-0.5398 6e-3 -0.5398 0.62526 0 0.45796 0.10282 0.93499 0.22793 1.0601 0.49857 0.49858 1.3897 0.1816 1.7573-0.62526 0.34023-0.74667 0.30811-0.85318-0.25838-0.85318-0.35596 0-0.89021-0.093-1.187-0.20692zm4.3868 1.2905c-0.19019-0.0119-0.5693 0.21067-1.3245 0.65625-0.75061 0.44288-1.2135 0.97739-1.2135 1.4015 0 0.57731 0.14824 0.6487 0.93665 0.45083 1.2997-0.32622 1.7928-0.80982 1.7928-1.7573 0-0.49296 0-0.73928-0.19141-0.75121zm-223.39 0.036c-0.14414 0.028-0.33132 0.10527-0.56328 0.22942-0.69212 0.37041-0.95091 1.3692-0.47732 1.8428 0.4113 0.41131 0.90777 0.0356 1.23-0.93114 0.19236-0.57709 0.23624-0.92947 0.11595-1.0751-0.06014-0.0728-0.16124-0.094-0.30538-0.066zm-15.741 0.061c-0.18867-0.0832-0.37259-0.0936-0.5248 5.1e-4 -0.46578 0.28788-0.46508 1.4023 0.0015 2.2741 0.49314 0.92144 1.488 0.67142 1.6139-0.40535 0.08346-0.71401-0.52456-1.6196-1.0906-1.8693zm22.219 0.73772c-0.1454-0.0147-0.30416 0.0352-0.46232 0.16643-0.47163 0.39143-0.63861 1.724-0.2629 2.0997 0.36592 0.36592 1.0897-0.12075 1.284-0.86367 0.19231-0.73541-0.12257-1.3585-0.55879-1.4025zm200.02 1.0666c-0.11592 0.0326-0.27492 0.10586-0.48632 0.20392-0.46704 0.21661-0.85015 0.5692-0.85169 0.7837-3e-3 0.2145-0.2333 0.47826-0.51479 0.58628-0.61601 0.23637-0.664 0.95237-0.10196 1.5144 0.5147 0.5147 0.69493 0.51252 1.361-0.017 0.29506-0.23458 0.63123-1.0642 0.7467-1.8438 0.10453-0.70582 0.1562-1.0596 0.076-1.188-0.0401-0.0642-0.11298-0.0721-0.2289-0.0395zm-203.68 0.84767c-0.64609-0.12442-1.7691 1.7216-1.4899 2.4491 0.30904 0.80534 1.3235 0.65678 1.8173-0.26589 0.52762-0.98588 0.36802-2.0492-0.32737-2.1832zm212.07 0.71573c-0.1515 0.079-0.17745 0.27654-0.17745 0.64475 0 0.44653 0.18415 0.99634 0.40934 1.2215 0.5496 0.54961 0.7433 0.52087 1.6854-0.2489 0.94003-0.76812 0.66361-1.2029-0.98563-1.5504-0.50292-0.10597-0.78014-0.14597-0.93163-0.067zm-3.3582 0.34986c-0.21498-0.0122-0.49028 0.016-0.82766 0.0835-1.1971 0.23942-1.6648 1.0028-1.0601 1.7313 0.58653 0.70672 1.7455 0.41241 2.2321-0.56728 0.40174-0.80875 0.30061-1.2108-0.34437-1.2475zm-206.33 0.90216c-0.72472 0-1.7708 3.7069-1.289 4.5678 0.45445 0.81205 0.81842 0.43485 1.2555-1.301 0.47767-1.897 0.49169-3.2667 0.03349-3.2667zm-22.852 0.34137c-0.42294 0-0.42297 0.0814-5.11e-4 1.1925 0.21634 0.56903 0.49004 0.80335 0.75071 0.64225 0.31892-0.19717 0.31905-0.28417 5.12e-4 -0.39035-0.22533-0.0751-0.40934-0.43101-0.40934-0.79069 0-0.35969-0.1537-0.65375-0.34137-0.65375zm13.984 0.49981c-0.44056 0.0154-0.8815 0.23716-0.96163 0.65324-0.06795 0.35284 0.07545 0.76452 0.31838 0.91465 0.62396 0.38563 1.7356-0.29485 1.6034-0.98162-0.07905-0.4105-0.51957-0.60174-0.96013-0.58627zm193.66 0.72022c-0.1201 5e-3 -0.25389 0.0566-0.38685 0.16693-0.26272 0.21804-0.39372 0.53234-0.29089 0.69874 0.2489 0.40272 0.73853 0.38396 0.99962-0.0385 0.18371-0.29725 0.13971-0.57278-0.017-0.71872-0.0784-0.073-0.18478-0.11374-0.30488-0.10846zm8.3868 0.55828c-0.59715 0.11499-0.89952 1.038-0.59778 1.8243 0.26849 0.69965 1.1504 0.60921 1.389-0.14244 0.28526-0.89877-0.14179-1.8069-0.79119-1.6819zm-198.91 0.95114c-0.70065 0-1.0821 0.61937-1.0821 1.7578 0 0.50819 0.19248 0.65098 0.7677 0.56929 0.5884-0.0836 0.79271-0.36812 0.87466-1.218 0.0877-0.90962-0.01272-1.1091-0.56028-1.1091zm220.59 0.14394c-0.10768 6e-3 -0.24643 0.0716-0.41185 0.20892-0.25716 0.21342-0.7966 0.28106-1.2065 0.15095-0.91635-0.29084-1.4263 0.4007-0.95064 1.2895 0.48424 0.90481 2.0402 0.65697 2.569-0.40934 0.244-0.49198 0.30616-0.88718 0.22491-1.0906-0.0406-0.10171-0.11723-0.15542-0.22491-0.14945zm-23.667 4e-3c-0.11716 0.0353-0.13013 0.21521 0.0535 0.5123 0.1237 0.20015 0.38821 0.36386 0.58777 0.36386 0.22625 0 0.20065-0.19552-0.0685-0.5198-0.23399-0.28193-0.45563-0.39161-0.57278-0.35636zm-214.88 0.066c-0.29477 0.10434-0.5253 0.51337-0.5253 1.1681-3e-6 0.53183 0.14691 1.0576 0.32637 1.1686 0.17946 0.11091 0.24016 0.42674 0.13445 0.70223-0.10571 0.27548-0.02231 0.50131 0.18543 0.50131 0.20774 0 0.37735-0.15371 0.37736-0.34137 0-0.18766 0.22492-0.34137 0.49981-0.34137 0.27489 0 0.65891-0.29677 0.85317-0.65975 0.46702-0.87263 0.44535-1.0602-0.09796-0.85167-0.25692 0.0986-0.61961-0.19666-0.84268-0.68624-0.25687-0.56376-0.61588-0.76408-0.91065-0.65975zm231.76 0.26141c-0.19733 0.0529-0.31304 0.18283-0.39785 0.40384-0.12086 0.31496-0.0385 0.79084 0.18294 1.0576 0.51158 0.61643 1.6478 0.45649 2.1212-0.29888 0.44169-0.70473 0.34312-0.81164-1.0186-1.1031-0.41128-0.088-0.69034-0.11237-0.88767-0.0595zm-221.46 1.5914c-0.19522-0.0132-0.39606 0.0327-0.58578 0.14994-0.6265 0.38721-0.36255 1.5519 0.42334 1.8678 1.1809 0.47465 1.2795 0.42465 1.2795-0.64875 0-0.75917-0.5314-1.3293-1.1171-1.369zm213.53 0.60027c-1.4084-0.16442-1.8641 0.51396-0.99213 1.4774 0.75194 0.83087 1.3356 0.79977 1.9692-0.10496 0.66373-0.94761 0.48255-1.2021-0.97711-1.3725zm-204.02 0.74572c-0.57989 0-1.0823 1.4453-0.71122 2.0457 0.41351 0.66908 1.0215 0.15174 1.1316-0.96313 0.0785-0.79483-0.03349-1.0826-0.42034-1.0826zm210.02 1.5359c-0.0956 0.0481-0.18359 0.15128-0.24789 0.31887-0.1126 0.29339-0.56314 0.5338-1.0011 0.5338-0.99085 0-1.3682 0.55355-0.82418 1.209 0.22678 0.27327 0.65048 0.4968 0.94113 0.4968 0.74229 0 1.7763-1.0123 1.7763-1.7388 0-0.40738-0.15905-0.70007-0.34987-0.80719-0.0954-0.0536-0.19874-0.0606-0.29439-0.0125zm3.5336 0.63475c-0.14576 0.0994-0.15994 0.34492-0.15994 0.81619 0 0.54662 0.10231 1.0959 0.22742 1.221 0.51004 0.51003 1.5176 0.17478 1.8828-0.62676 0.45972-1.009 0.43439-1.0429-1.0011-1.3505-0.52583-0.11265-0.80335-0.15939-0.94914-0.06zm-22.976 1.9787c-0.23876-0.0119-0.43205 0.35608-0.57229 1.1036-0.1531 0.81611-0.0427 1.4248 0.37336 2.0597 1.1517 1.7578 1.963 0.21119 1.0436-1.9892-0.32195-0.77053-0.60592-1.1622-0.84467-1.174zm-193.55 0.70074c-0.63547-0.12239-1.0563 0.69943-0.75721 1.4789 0.31911 0.83159 1.311 0.43143 1.311-0.5288-2e-6 -0.50731-0.22055-0.88596-0.55379-0.95013zm221.29 0.12744c-0.11855 0.0227-0.28663 0.12321-0.5023 0.31839-0.52931 0.47902-0.78437 0.53111-1.0921 0.22341-0.22076-0.22076-0.50653-0.40135-0.63476-0.40135-0.42334 0-0.58215 1.3001-0.20493 1.6774 0.59794 0.59795 1.5198 0.42671 2.0907-0.38835 0.60674-0.86625 0.69909-1.4975 0.34336-1.4295zm-7.841 0.14045c-0.70166 0-1.0587 1.0199-0.48181 1.3765 0.61122 0.37777 1.0041 0.0984 1.0041-0.71422 0-0.36725-0.23254-0.66225-0.5223-0.66225zm-209.43 0.34137c-0.57296 0-0.91015 0.71452-0.91015 1.9293-3e-6 0.62528 0.15809 0.82045 0.59727 0.73722 0.78259-0.14831 1.0781-2.6665 0.31288-2.6665zm202.41 1.194c-0.92844 0-1.2787 0.94822-0.63625 1.7223 0.5351 0.64476 1.1569 0.62846 1.7158-0.045 0.60613-0.73034-3e-3 -1.6774-1.0796-1.6774zm-22.118 0.21442c-0.19963 0.0717-0.48476 0.40164-0.82619 0.97962-0.46788 0.79207-0.4996 1.0236-0.14144 1.0236 0.65015 0 1.2815-0.70604 1.2815-1.433 0-0.45535-0.11426-0.64198-0.31388-0.57028zm-196.64 0.29839c-0.67879-0.0981-0.81127 0.72208-0.04748 1.8878 0.58369 0.89084 1.4686 1.1294 1.5364 0.41434 0.08534-0.90037-0.10795-1.4658-0.64125-1.8768-0.33464-0.25789-0.62141-0.39263-0.84767-0.42533zm12.876 0.79269c-0.52972-0.17394-1.2496 1.2154-1.0141 1.9572 0.24981 0.78709 0.61487 0.8393 1.1721 0.16794 0.4646-0.55982 0.36084-1.9548-0.15794-2.1252zm-3.2448 0.29789c-0.18698-0.0101-0.41767 0.0204-0.67924 0.10346-0.82667 0.26237-0.8762 1.0931-0.11495 1.9343 0.54322 0.60025 1.4824 0.85744 1.4824 0.40584-2e-6 -0.12006-0.26836-0.41808-0.59677-0.66175-0.56551-0.41958-0.56299-0.46826 0.05148-0.92364 0.58425-0.43299 0.418-0.82792-0.14295-0.85817zm214.11 0.0545c-0.31335 0.12024-0.79256 0.21891-1.0646 0.21891-0.69531 0-0.97373 0.93217-0.46231 1.5484 0.36965 0.44541 0.52785 0.45129 1.1476 0.042 0.9086-0.60011 1.2306-2.136 0.37935-1.8093zm2.729 0.91115c-0.25879-0.0208-0.52488 0.11127-0.5538 0.41634-0.0712 0.75126 0.0957 1.4386 0.45581 1.8768 0.19283 0.23457 0.57583 0.42633 0.85118 0.42633 0.56977 0 1.7757-1.3196 1.7928-1.9617 0.0136-0.50991-0.54433-0.56662-0.84169-0.0855-0.32579 0.52715-1.194 0.40326-1.194-0.17044 0-0.30738-0.25152-0.48106-0.51029-0.5018zm5.6283 0.84317c-0.27635 0-0.55452 0.26837-0.61777 0.59677-0.0807 0.41895 0.10387 0.59727 0.61777 0.59727s0.69794-0.17832 0.61726-0.59727c-0.0632-0.3284-0.34091-0.59677-0.61726-0.59677zm-218.19 1.2455c-0.60895 0.12288-1.5268 2.2304-1.286 2.9529 0.35534 1.066 1.0786 0.10599 1.6574-2.2002 0.17718-0.70595 0.10653-0.84915-0.37136-0.75272zm217.31 2.2521c-0.13475-0.0633-0.3492-0.059-0.66823 2e-3 -0.99569 0.19034-1.3274 0.59552-1.0596 1.2935 0.38219 0.99594 1.9173 0.28272 1.9173-0.89066 0-0.21077-0.0547-0.34158-0.18942-0.40484zm-11.732 0.76721c-1.1241 0-1.4873 0.35892-1.1785 1.1636 0.37071 0.96607 2.1822 0.53618 2.1822-0.5178 0-0.48732-0.24651-0.64575-1.0036-0.64575zm7.0813 0.48481c-0.11971-8e-3 -0.27583 0.0551-0.46182 0.20942-0.25578 0.21228-0.77016 0.28879-1.1431 0.17043-0.84855-0.26932-1.5941 0.85396-0.97663 1.4714 0.66821 0.6682 1.9126 0.44684 2.4966-0.44433 0.47542-0.72556 0.44412-1.3837 0.085-1.407zm-17.167 2.2446c-1.0226 0-1.1951 1.1318-0.2559 1.6788 0.93522 0.54472 1.1091 0.44195 1.1091-0.65524 0-0.86438-0.13286-1.0236-0.85317-1.0236zm19.549 1.0906c-0.0999 0.0565-0.21293 0.18331-0.32937 0.39135-0.25017 0.44703-0.58225 0.56437-1.176 0.41534-0.99776-0.25042-1.3845 0.44606-0.82669 1.4884 0.67609 1.2633 2.1662 0.57464 2.6135-1.2075 0.13299-0.5299 0.0968-0.91195-0.031-1.0576-0.0639-0.0728-0.15052-0.0865-0.2504-0.03zm-227.9 2.4606c-0.44037-0.27216-1.3937 0.82117-1.1126 1.276 0.29871 0.48332 0.77742 0.32916 1.1521-0.37086 0.25273-0.47222 0.24161-0.73143-0.03949-0.90516zm218.87 0.35637c-1.724 0.0726-2.0697 0.43089-1.4799 1.5329 0.47632 0.89 1.5193 0.89831 2.3986 0.019 1.1572-1.1572 0.87859-1.6276-0.91864-1.5519zm-216.93 0.86966c-0.55089 0-1.648 1.8297-1.3035 2.1742 0.38024 0.38025 0.73275 0.22989 1.275-0.54429 0.66857-0.95452 0.6806-1.6299 0.02849-1.6299zm224.86 0.70673c-0.31772 0.0576-0.5323 0.2645-0.5323 0.60077 0 0.34405 0.10282 0.72807 0.22794 0.85318 0.38638 0.38638 1.0327 0.25259 1.4999-0.31039 0.36991-0.44571 0.36249-0.59078-0.0435-0.84767-0.41315-0.26142-0.83434-0.35345-1.1521-0.29589zm-1.6124 2.0227c-0.6113 0-0.85116 0.68425-0.39834 1.1371 0.34465 0.34466 0.67272 0.27548 1.0926-0.23041 0.45078-0.54315 0.17248-0.90665-0.69423-0.90665zm-1.7833 0.68223c-1.0348 0-1.2773 0.29945-0.86567 1.0686 0.40865 0.7636 1.1042 0.82195 1.6699 0.14045 0.53998-0.65065 0.16836-1.209-0.80419-1.209zm-5.1735 1.365c-0.64476 0-0.96514 1.3079-0.46733 1.9078 0.54372 0.65513 1.4678 0.47967 1.6194-0.30738 0.13652-0.70892-0.50526-1.6004-1.152-1.6004zm-212.85 1.365c-0.58121 0-1.0613 1.1674-0.71222 1.7323 0.28116 0.45493 0.68038 0.0672 0.99212-0.96463 0.16859-0.55802 0.09212-0.7677-0.27989-0.7677zm-11.768 0.0105c0.12115-6e-3 -0.10916 0.67643-0.5118 1.5164-0.76145 1.5885-1.4701 2.1143-1.0466 0.7762 0.27708-0.87545 1.2293-2.2766 1.5584-2.2926zm16.726 0.45432c0.03548-8e-3 0.09193 0.0146 0.16694 0.066 0.30003 0.20539 0.89937 0.87366 1.6599 1.9098 0.87427 1.1911 1.7294 2.2166 1.9003 2.2791 0.48366 0.17703 0.3649 1.0806-0.14194 1.0806-0.24878 0-0.81277 0.38402-1.2535 0.85317-0.44075 0.46915-1.0671 0.85267-1.392 0.85267-0.52533 0-0.57053-0.29493-0.40784-2.6685 0.12115-1.7675 0.0434-2.9296-0.23041-3.4412-0.32656-0.61018-0.40782-0.90774-0.30139-0.93165zm-0.55578 2.0022c0.01768 0.0138 0.03714 0.0714 0.05748 0.17693 0.08132 0.42224 0.08132 1.1132 0 1.5354-0.08133 0.42224-0.14794 0.0768-0.14794-0.76771 0-0.63335 0.03742-0.98602 0.09047-0.94463zm11.008 0.41734c0.15568-0.0293 0.3788-0.0202 0.66574 0.045 0.91793 0.20848 2.1322 1.2824 2.1322 1.8853-2e-6 0.48206-0.5578 0.35238-1.0531-0.24441-0.24984-0.30104-0.80608-0.68071-1.236-0.84418-0.83674-0.31812-0.97584-0.75368-0.5088-0.84167zm204.06 0.61526c-0.20999 0.03-0.44634 0.21446-0.55178 0.5308-0.0743 0.22285 0.1082 0.40484 0.40535 0.40484 0.29713 0 0.53978-0.24316 0.53978-0.54029 0-0.30127-0.18336-0.42535-0.39335-0.39535zm-6.3286 1.337c-0.73946 0.14029-1.0205 1.803-0.42585 2.5195 0.48637 0.58603 0.52539 0.58996 1.37 0.13795 1.3006-0.69609 0.5061-2.9326-0.94412-2.6575zm6.1251 2e-3c-0.65626-0.0932-0.7677 0.0466-0.7677 0.96213 0 0.91558 0.11144 1.0553 0.7677 0.96213 0.56235-0.0799 0.76771-0.3373 0.76771-0.96213 0-0.62482-0.20536-0.88226-0.76771-0.96213zm-5.7408 6.649c-0.42508 0.16311-0.5137 0.4964-0.36886 1.389 0.10479 0.64579 0.37054 1.3906 0.59026 1.6554 0.50802 0.61212 0.63809 0.60423 1.398-0.0835 0.75862-0.68654 0.81456-1.4824 0.10397-1.4824-0.28615 0-0.66516-0.3811-0.84217-0.84667-0.22491-0.59157-0.49039-0.78172-0.88117-0.63176zm-4.8007 1.4969c-0.24961 0.0456-0.46232 0.28862-0.46232 0.69673 0 0.39327 0.31763 1.1608 0.70573 1.7058 0.84518 1.187 1.2686 1.2477 1.6429 0.23591 0.37601-1.0165 0.0735-2.0608-0.5298-1.8293-0.26394 0.10128-0.56744-0.0436-0.67424-0.32188-0.14636-0.3814-0.43263-0.53288-0.68224-0.48731zm8.4018 1.1656c-1.3239 0.10414-1.4987 0.30321-1.0321 1.175 0.44092 0.82387 0.64779 0.85757 1.4654 0.23691 0.98341-0.74651 0.75069-1.5051-0.43332-1.412zm-12.513 0.38585c0.0313-0.0773 0.0746-0.0663 0.12195 0.051 0.0947 0.23458 0.0947 0.6181 0 0.85267-0.0947 0.23458-0.17243 0.0428-0.17243-0.42633 0-0.23458 0.0192-0.40006 0.0505-0.47732zm3.2442 2.2062c-0.0687-0.0103-0.14837 0.10205-0.27689 0.33088-0.16191 0.28828-0.3433 1.1324-0.40335 1.8763-0.0965 1.1952-0.0165 1.3658 0.68674 1.4654 0.85852 0.1216 2.1042-0.78446 2.1042-1.5304 0-0.2524 0.15371-0.45882 0.34137-0.45882s0.34087 0.39367 0.34087 0.87516 0.16032 1.1745 0.35586 1.5399c0.28916 0.54029 0.48349 0.59554 1.0406 0.29739 0.84188-0.45056 1.4947-1.8009 1.2185-2.5205-0.26104-0.68025-0.90865-0.6955-0.90865-0.0215 0 0.28149-0.15371 0.5118-0.34137 0.5118s-0.34137-0.28171-0.34137-0.62576c0-0.85087-0.36082-1.1474-0.87617-0.71972-0.29619 0.24581-0.49555 0.24487-0.64875-3e-3 -0.3613-0.58459-0.86548-0.40931-1.1816 0.41035-0.31487 0.81657-0.29552 0.83862-0.89915-1.0236-0.0845-0.26067-0.14219-0.39357-0.21092-0.40384zm8.3308 0.84268c-0.0668-0.0173-0.14884-4e-3 -0.24892 0.0345-0.28149 0.10801-0.51684 0.60259-0.52281 1.0986-0.01 0.8226-0.0508 0.84905-0.4643 0.30439-0.56951-0.75024-1.3787-0.79269-1.0966-0.0575 0.11392 0.29684 0.20692 0.9311 0.20692 1.4095 0 0.79966 0.094 0.85444 1.1676 0.68024 0.82439-0.13378 1.2218-0.0482 1.352 0.29089 0.23185 0.60418 1.2335 0.25558 1.2335-0.42934 0-0.27898-0.3069-0.58759-0.68223-0.68574-0.5334-0.13949-0.68224-0.46557-0.68224-1.4929 0-0.77107-0.0626-1.1007-0.26288-1.1526zm1.4699 0.31038c-0.13929 0.0587-0.18343 0.20323-0.18343 0.45533 0 0.34136 0.17233 0.79308 0.38286 1.0036 0.46983 0.46984 1.1997 0.22619 1.4754-0.49231 0.24521-0.63898 0.26059-0.62339-0.92014-0.90665-0.38112-0.0914-0.61542-0.1187-0.75471-0.06zm-16.834 12.472c-0.24641 0-1.0921 1.9344-1.0921 2.498 0 0.4875 0.67428 0.20199 1.0116-0.42833 0.4182-0.78141 0.46826-2.0697 0.0805-2.0697z" stroke-width=".2559"/>
</svg>
