<?xml version="1.0" encoding="utf-8"?>
<svg xmlns="http://www.w3.org/2000/svg" height="54" version="1.1" width="300" xml:space="preserve" viewBox="0 0 300 54">
	<path d="m286.13 0.0010972c-0.32152-0.0080283-0.63094 0.027821-0.90634 0.11354-0.34408 0.1071-1.1171 0.70101-1.7176 1.3198-0.60046 0.61875-1.5829 1.4838-2.1833 1.9219-0.60048 0.4381-1.3177 1.0275-1.594 1.3102-0.7146 0.73083-1.386 0.51695-1.3981-0.44538-8e-3 -0.6217-0.21252-0.89194-0.96554-1.277-0.83278-0.42581-1.1126-0.44562-2.1833-0.15273-1.508 0.41253-3.3533 1.5098-5.6133 3.3376-0.94412 0.76356-2.267 1.5984-2.9402 1.8555-1.4805 0.5654-1.9 1.2594-0.76124 1.2594 0.96488 0 4.0536-1.5242 4.4834-2.2125 0.17744-0.28412 0.47794-0.51655 0.66768-0.51655s1.1466-0.56031 2.1262-1.245c1.3798-0.9644 1.9788-1.2256 2.6587-1.1598 0.73396 0.071013 0.9004 0.21776 1.0167 0.89636 0.2516 1.468 2.0949 1.9473 3.4399 0.89436 1.485-1.1625 1.8006-1.4369 3.1185-2.7107 2.3089-2.2316 2.8824-2.3339 4.2907-0.76523 1.3609 1.516 2.3538 1.9656 3.8477 1.7415l1.2074-0.18111-0.18192 0.96993c-0.16088 0.85763-0.0782 1.0678 0.71326 1.8095 0.49244 0.46153 1.1411 0.84372 1.4413 0.84919 0.52654 0.00959 0.52786 0.023605 0.0408 0.39261-0.27774 0.21041-0.41846 0.52245-0.31266 0.69366 0.10582 0.17121-0.041 0.57852-0.32622 0.90516-0.79546 0.91081-1.2339 1.9447-1.1319 2.6683 0.0887 0.62908 0.0106 0.6621-1.9547 0.8292-2.7476 0.23361-5.9287 0.70206-7.0893 1.0443-0.52156 0.1538-2.3026 0.40884-3.9577 0.56652-3.8181 0.36377-12.609 2.135-14.699 2.9618-0.91286 0.36113-0.83178 1.0133 0.11434 0.91995 5.0584-0.49919 13.915-1.9352 18.126-2.939 3.1252-0.74496 4.8469-1.0752 7.8734-1.5101 2.06-0.29598 2.167-0.28439 2.7978 0.30825 0.74718 0.70193 0.82498 1.2096 0.27106 1.7635-0.63516 0.63517-0.8195 2.4624-0.32024 3.1752 0.23746 0.33901 0.4318 0.95759 0.4318 1.3745 0 0.78507-0.15676 0.97807-2.2769 2.805-0.6968 0.60045-1.2677 1.2609-1.269 1.4673-2e-3 0.27225-0.22966 0.3298-0.83118 0.2095-0.60258-0.12051-0.873-0.05233-0.98912 0.25028-0.2214 0.57699 0.013 0.74071 1.3457 0.93874 0.6352 0.0944 1.2197 0.14258 1.299 0.10715 0.0793-0.03543 1.1674-0.20458 2.418-0.37582 2.4339-0.33324 4.1153-1.1423 4.1212-1.983 4e-3 -0.59136 0.0435-0.59286-1.634 0.06837-1.6413 0.64695-3.0025 0.71922-3.0025 0.15952 0-0.21245 0.37652-0.7343 0.8368-1.1598 1.5529-1.4357 2.1047-3.3882 1.2102-4.2827-0.55966-0.55966-0.51882-0.86204 0.27308-2.0274 0.37528-0.55228 0.68244-1.2554 0.68244-1.5624 0-0.65542-0.67988-1.7042-1.5596-2.4056-0.85402-0.68092-0.78234-1.623 0.20948-2.7527 0.91706-1.0445 1.3307-2.6654 0.8332-3.2648-0.17292-0.20835-0.69594-0.45527-1.1622-0.54853-0.84082-0.16816-0.84628-0.18049-0.67166-1.4969 0.2281-1.7195-0.1757-2.0818-2.3293-2.0898-1.6559-0.00611-1.7655-0.06367-3.2956-1.7284-0.59896-0.65164-1.6733-1.0706-2.6379-1.0947zm-2.1342 5.1839c-0.32756 0.048408-0.84448 0.26116-1.6032 0.64608-0.73848 0.37465-1.5133 0.68183-1.722 0.68247-0.20862 6.4e-4 -0.5158 0.17445-0.68246 0.38661-0.35036 0.44598-5.302 2.071-6.3109 2.071-0.37346 0-0.67886 0.12255-0.67886 0.27267s-0.3226 0.27307-0.71684 0.27307c-0.68 0-4.4282 0.77216-6.7891 1.3985-1.1473 0.30438-2.5927 1.4551-2.5927 2.0642 0 0.54268 0.6716 0.44385 4.0608-0.59771 1.7081-0.52494 3.2802-0.95433 3.4935-0.95433 0.21328 0 0.7596-0.19251 1.2138-0.42739s1.5114-0.5385 2.3493-0.67487c0.83784-0.13637 2.4238-0.68118 3.5243-1.2106 1.1004-0.52943 2.0804-0.96233 2.1777-0.96233 0.56358 0 4.7425-2.315 4.7425-2.6271 0-0.2728-0.1382-0.38864-0.46578-0.34023zm-22.444 2.8066c-0.7953 0.066488-2.1899 0.28647-4.6973 0.70286-5.4181 0.89975-5.7835 0.92488-14.901 1.0175-9.0143 0.091573-9.4306 0.11903-11.702 0.77722-2.1451 0.62162-3.8118 1.257-5.5093 2.0994-0.34624 0.17184-1.3488 0.99388-2.2277 1.8271-2.188 2.0744-3.9884 3.5826-4.7193 3.9533-0.65146 0.33042-1.5668 0.26483-1.5668-0.11235 0-0.1249-0.42924-0.74091-0.95394-1.3689-0.52468-0.62802-1.1521-1.5594-1.3941-2.0694-1.3535-2.8523-5.2497-4.7347-9.1431-4.4178-3.5455 0.28858-9.6504 2.6988-14.831 5.8555-1.567 0.95485-1.6628 0.97715-2.8438 0.66128-0.67218-0.17978-2.5217-0.44668-4.11-0.59331s-3.0583-0.32834-3.2664-0.4038c-1.57-0.56934-9.8521-0.67108-13.678-0.16792-4.9679 0.6534-9.299 3.6975-8.1952 5.76 0.42864 0.80094 1.3164 0.92666 4.1644 0.58971 5.9839-0.70795 10.619-1.0617 13.038-0.99512 3.1643 0.08706 6.3426 0.63307 6.1998 1.0651-0.11752 0.35554-1.7762 1.5491-3.2472 2.3365-0.89304 0.47802-4.2361 2.8977-4.5902 3.3224-0.0751 0.09003-1.6102 1.4428-3.4115 3.0065-3.315 2.8777-6.141 5.6952-6.141 6.1226 0 0.12846-0.36634 0.61161-0.814 1.0735-2.8891 2.9808-7.1112 14.005-5.7092 14.906 0.21029 0.13525 0.55508 0.21525 0.76642 0.17791 0.39054-0.069 0.54427-0.45784 1.8087-4.5714 0.39221-1.276 0.92146-2.6269 1.1758-3.0021 0.25436-0.37529 0.69764-1.3553 0.98511-2.1781 0.28748-0.8228 0.8533-1.9899 1.2574-2.5931 0.40409-0.60328 1.1216-1.7062 1.5948-2.4512 1.0716-1.6872 3.5992-4.3003 6.7427-6.9702 1.3256-1.1258 3.1075-2.661 3.9597-3.4115 1.8577-1.6362 2.627-2.1968 4.4954-3.2752 0.7802-0.45034 1.7694-1.0916 2.1985-1.4249 1.7657-1.3715 3.3325-2.4875 4.4786-3.1904 0.66808-0.40972 1.706-1.1036 2.3065-1.542 0.89102-0.65067 3.1111-1.9743 5.8679-3.4983 1.5844-0.87585 4.1601-1.8857 6.8235-2.6755 1.9652-0.58274 2.668-0.66494 4.5978-0.53574 3.8614 0.25852 5.3598 1.4962 8.2376 6.8051 1.3908 2.5657 5.1337 1.7607 7.4607-1.6048 1.2228-1.7685 6.081-5.0247 7.4968-5.0247 0.2657 0 0.59942-0.10598 0.74204-0.23548 0.38898-0.35325 7.5093-0.82445 13.224-0.87517 2.7771-0.02465 5.5905-0.06117 6.2522-0.08116 2.1724-0.06563 1.5381 0.53945-1.3969 1.3325-3.3575 0.90726-3.9341 1.1626-3.5323 1.5644 0.20478 0.20478 0.7953 0.12621 2.0082-0.26747 2.6645-0.86482 3.4919-0.99842 3.4919-0.56372 0 0.3504-1.1978 0.79163-3.2068 1.181-1.2653 0.24524-1.1401 0.78538 0.13634 0.58811 0.56292-0.087 1.2998-0.24025 1.6376-0.34063s0.6141-0.0722 0.6141 0.06277c0 0.30701-6.1858 2.3634-6.5088 2.1637-0.13008-0.08039-0.6534-0.01943-1.1626 0.13553-0.50924 0.15496-1.5942 0.46287-2.4112 0.68447s-1.6459 0.53608-1.8415 0.69846c-0.19566 0.16238-0.81662 0.33101-1.3801 0.37502-0.5635 0.04401-1.5774 0.2615-2.2529 0.48336-0.67552 0.22186-1.5658 0.48054-1.9786 0.57492-0.41282 0.09439-0.75044 0.29213-0.75044 0.43939 0 0.41814 0.9644 0.3175 2.6583-0.27787 2.0241-0.71141 2.8002-0.71214 2.8002-0.0024 0 0.29895-0.2455 0.69687-0.54574 0.88437-0.5873 0.36679-0.74136 1.0283-0.23948 1.0283 0.21166 0 0.20118 0.12654-0.0336 0.4094-0.18688 0.22517-0.45356 0.4094-0.59252 0.4094-0.13892 0-0.9246 0.43014-1.7459 0.95553-0.82132 0.5254-1.6135 0.95514-1.7607 0.95514s-0.26786 0.11382-0.26786 0.25308-0.48622 0.46777-1.0807 0.73004c-1.1399 0.50291-1.6066 1.1287-1.0119 1.3569 0.4015 0.15407 0.94036-0.11365 3.4575-1.7192 3.4237-2.1837 3.9711-2.4907 5.4593-3.0621 2.2276-0.85521 2.7279-1.1538 2.7347-1.6308 0.01-0.68164 0.84998-1.5538 2.0982-2.1773 1.3662-0.6825 2.0376-0.74346 1.8155-0.16472-0.10514 0.27398 0.0106 0.4082 0.34982 0.4054 0.62336-0.0051 0.96248-0.24317 1.3537-0.94914 0.16576-0.2991 0.71844-0.64285 1.2282-0.76403 1.2165-0.28918 3.8198-1.0737 4.3387-1.3074 0.22516-0.10141 1.1984-0.53689 2.1629-0.96793 0.9645-0.43104 2.2344-1.1303 2.8218-1.5536 0.58744-0.42337 2.3468-1.3771 3.9097-2.1198 1.859-0.88338 2.8418-1.5013 2.8418-1.7867 0-0.30217-0.16808-0.39242-0.54652-0.29346-0.33474 0.087531-0.64164-0.026664-0.79162-0.29466-0.11054-0.19753-0.30654-0.28478-1.1019-0.21829zm29.025 0.30865c-0.11598-0.00836-0.30226 0.041873-0.58332 0.14873-0.40976 0.15579-1.7915 0.526-3.0705 0.8228-1.279 0.2968-3.4919 0.95736-4.918 1.4677-1.4261 0.51032-3.0229 1.0039-3.5482 1.0971-0.52542 0.09316-2.1835 0.4614-3.6846 0.8184-1.5012 0.35701-3.8219 0.84628-5.1571 1.0871-1.3352 0.24079-2.6861 0.57774-3.0021 0.74883-0.3638 0.19695-2.4772 0.32689-5.7604 0.35383-6.3316 0.05195-8.8372 0.3408-8.4459 0.97392 0.125 0.20225 0.6007 0.22905 1.4501 0.08156 0.69528-0.12073 3.8434-0.24126 6.9958-0.26787 5.8657-0.04951 11.641-0.45195 13.101-0.91275 0.45034-0.14212 1.9242-0.52 3.2752-0.83959 1.351-0.31959 2.7461-0.7679 3.1005-0.99671 0.97288-0.62821 4.8449-2.0131 8.4991-3.0393 0.95234-0.26746 1.9107-0.94015 1.9107-1.3413 0-0.12712-0.0459-0.19394-0.16194-0.2023zm-30.047 0.78282c0.0883 0.030436-0.10218 0.12357-0.49614 0.30505-0.45034 0.20745-0.9812 0.38264-1.1794 0.38941-0.19824 0.00677-0.93516 0.47905-1.6376 1.0495-0.70244 0.57044-1.7684 1.2662-2.3688 1.546-1.236 0.57604-4.2315 0.79858-4.2287 0.31425 0-0.1676 0.3694-0.51391 0.8188-0.76962 0.90876-0.51711 1.0707-1.0233 0.33944-1.0607-0.73636-0.03763 2.0623-0.74902 3.751-0.95353 0.82664-0.10011 1.6881-0.278 1.9143-0.39501 0.22612-0.11701 1.086-0.27662 1.9107-0.35503 0.72146-0.068587 1.0884-0.1008 1.1766-0.070366zm-173.31 2.4464c-0.67581-0.0517-1.3113-0.05181-1.8755 6e-3 -1.9071 0.19539-3.3959 0.63825-3.3959 1.0103 0 0.13543-0.1798 0.24628-0.39981 0.24628-0.40523 0-3.5342 1.616-4.7861 2.472-0.37528 0.25659-0.92797 0.51341-1.2282 0.57052-0.30023 0.05711-0.54573 0.28146-0.54573 0.49896 0 0.6408-1.6614 0.97564-2.7994 0.56412-1.4434-0.52194-9.6229-0.47524-12.894 0.07356-1.4261 0.23925-4.6809 0.87434-7.2329 1.4113-4.405 0.92689-4.9048 0.9759-9.8732 0.96993-4.8446-0.0058-6.7353-0.15156-10.324-0.79601-2.397-0.43049-5.4783-1.3084-6.1614-1.7555-1.0511-0.68793-2.7992-0.8735-3.2388-0.34383-0.2018 0.24314-0.29954 0.50927-0.21749 0.59131 0.08204 0.08204-0.01272 0.46076-0.2103 0.84159-0.33239 0.64067-0.29481 0.74773 0.50375 1.4333 0.78733 0.67594 3.6569 2.1866 4.9348 2.5979 0.39882 0.12838 0.44751 0.24415 0.2047 0.48696-0.17522 0.17522-0.31864 0.40519-0.31864 0.51095 0 0.27137 2.909 1.8819 3.3991 1.8819 0.22295 0 0.67231 0.36107 0.99831 0.80201 0.326 0.44094 0.94348 0.94693 1.3725 1.1246 1.1931 0.49421 0.9337 0.74643-0.65248 0.63409-0.78809-0.05582-4.0738-0.15003-7.3012-0.2095-6.7635-0.12463-8.8455-0.51667-12.63-2.3792-2.1344-1.0505-3.9824-1.5921-5.7932-1.698-0.74833-0.043738-0.81555 0.023912-0.78402 0.78642 0.075137 1.8166 4.1073 8.6316 6.0978 10.307 0.4551 0.38294 0.8272 0.8655 0.8272 1.0723 0 0.47689 1.7638 2.0636 3.9173 3.5239 0.47718 0.32358-0.57086 1.0486-1.5097 1.0443-1.1955-0.0055-3.3068-0.64733-3.4395-1.0455-0.05779-0.17336-0.30994-0.31641-0.56013-0.31785-0.63561-0.0035-2.5943-1.0034-4.8332-2.4676-3.0672-2.0059-4.7741-2.9885-5.1923-2.9885-0.46181 0-0.54224 1.2689-0.089958 1.4197 0.16588 0.05529 0.45877 0.55698 0.65048 1.1147 0.32253 0.93816 0.30932 1.0139-0.17392 1.0139-1.0122 0-0.93389 0.86459 0.16432 1.8139l1.0383 0.89756-0.89276-0.25628c-0.491-0.14081-0.98641-0.19799-1.1011-0.12714-0.34987 0.21623 0.040365 1.1846 0.51895 1.2878 0.31383 0.06767 0.15023 0.25773-0.54173 0.62889-0.82915 0.44474-0.95568 0.62614-0.77282 1.1095 0.12448 0.32902 0.75676 0.79931 1.4681 1.0919 1.46 0.6005 1.615 0.95398 0.37502 0.85598-0.63777-0.05041-0.90259 0.05565-0.97192 0.38981-0.15948 0.7686 1.0095 1.1267 4.0296 1.2342 1.5773 0.05614 3.052 0.11451 3.2772 0.12954 0.22517 0.01502 1.191-0.10808 2.1462-0.27347 1.396-0.24174 2.1186-0.21961 3.6846 0.11355 2.688 0.57184 5.9764 1.0106 8.0888 1.0791 0.97573 0.03163 2.5109 0.19504 3.4115 0.36302 3.4484 0.64315 3.6521 0.64906 5.5133 0.16112 1.0209-0.26764 1.945-0.5623 2.0538-0.65488 0.10881-0.09258 1.03-0.07663 2.047 0.03558 1.017 0.11222 2.709 0.27505 3.7598 0.36182 1.1763 0.09714 2.435 0.40975 3.2752 0.8132 2.1581 1.0362 4.4669 1.6598 8.5974 2.3225 0.82562 0.13246 2.1903 0.35713 3.0325 0.49936 2.003 0.33826 5.9485 0.47165 11.023 0.37262 4.0661-0.07934 6.1216-0.41241 11.164-1.8087 3.388-0.93821 10.347-4.8871 11.492-6.5208 0.51408-0.73395 0.52563-2.6528 0.02319-3.8553-0.40027-0.95797-2.3514-2.3373-3.3064-2.3373-0.61667 0-1.7679-1.0363-1.7679-1.5916 0-0.69508 3.1633-3.4816 5.3642-4.7253 4.0086-2.2652 5.9671-3.229 6.9178-3.4047 0.5254-0.09712 1.3091-0.35601 1.7412-0.57492 0.43205-0.21891 1.4145-0.58332 2.1833-0.81 0.76885-0.22668 1.5207-0.50867 1.6708-0.62649 0.15011-0.11782 0.80197-0.30153 1.4485-0.4082 1.0524-0.17363 1.4409-0.06029 3.7102 1.0811 1.9535 0.98254 3.0441 1.7709 4.7569 3.4383 1.2223 1.1899 2.319 2.1633 2.4372 2.1633 0.11823 0 0.88749 0.67262 1.7096 1.4949 0.82207 0.82225 1.6017 1.4979 1.732 1.5013 0.25955 0.0067 1.0594 0.68182 4.507 3.8029 2.5738 2.3301 3.8503 3.6204 3.8521 3.8941 6e-4 0.10186 0.16277 0.34737 0.36022 0.54573 0.19746 0.19837 0.71281 0.97499 1.145 1.7256 0.43224 0.75057 1.0547 1.733 1.3833 2.1833s0.68736 1.1139 0.79721 1.4745c0.10985 0.36061 0.55375 1.2563 0.98672 1.9906 0.43297 0.73432 0.78721 1.4525 0.78721 1.596 0 0.14351 0.19754 0.26107 0.43899 0.26107 0.43336 0 0.41649-0.51334-0.0576-1.7487-0.19747-0.51459 0.69498-0.61398 1.1778-0.13114 0.98663 0.98663 1.2374-1.4799 0.27147-2.6707-0.74915-0.92357-1.3336-1.8105-2.7854-4.2255-1.2685-2.1101-2.8303-4.1742-4.609-6.0926-0.69284-0.74729-1.2594-1.4546-1.2594-1.5716s-0.49142-0.40943-1.0919-0.64968c-0.73492-0.29406-1.0919-0.60562-1.0919-0.95314 0-0.6724 0.30054-0.6516 1.2382 0.08596 1.3162 1.0353 6.0751 5.996 8.3243 8.6774 0.81849 0.97573 1.5565 1.8356 1.64 1.9107 1.101 0.98945 2.9901 5.8591 2.9901 7.7074 0 0.5146 0.0818 1.0174 0.18191 1.1175 0.3291 0.3291 0.61788 0.19155 1.0803-0.51415 0.39966-0.60996 0.41458-0.88823 0.11915-2.2517-0.18541-0.85565-0.386-1.8156-0.44579-2.1334-0.0598-0.31778-0.54073-1.2053-1.0683-1.9722-0.52755-0.76692-0.95913-1.4687-0.95913-1.5592 0-0.21702-4.2657-5.401-5.347-6.498-2.3444-2.3784-5.464-5.2159-8.152-7.4152-1.6452-1.3461-3.3646-2.7915-3.8209-3.2116-0.45639-0.42016-1.5349-1.2796-2.3964-1.9103-0.86149-0.63064-1.5267-1.2693-1.4785-1.4189 0.15458-0.47965 2.1143-0.62193 6.4536-0.46937 8.8712 0.31188 9.9675 0.25115 12.81-0.70925 1.4145-0.47796 2.8301-0.86918 3.1461-0.86918s0.82483-0.17521 1.1306-0.38941c1.3078-0.916 4.1158-1.5492 7.1105-1.6036 2.3236-0.0422 2.963-0.13579 2.963-0.43379 0-1.2045-3.6333-2.2124-7.9781-2.2129-2.906-3.6e-4 -4.5134-0.49142-5.4793-1.6744-1.2737-1.56-4.295-2.36-6.9446-1.8387-1.4253 0.28041-1.8026 0.51132-3.4823 2.1322-2.8082 2.7097-3.5114 2.9829-7.6395 2.9682-1.8764-0.0067-4.4856 0.07767-5.798 0.18751-1.9564 0.16375-2.5582 0.11823-3.3432-0.25428-0.52656-0.24987-0.95753-0.56744-0.95753-0.70566 0-0.29628-4.931-2.7255-5.5325-2.7255-0.22676 0-0.94764-0.24281-1.602-0.53974-0.65437-0.29693-1.4169-0.54284-1.694-0.54613-0.27711-0.0033-1.3932-0.42803-2.4804-0.94394-1.9273-0.91459-4.3187-1.5341-6.3461-1.6892zm-0.95793 0.98952c0.98387 0 2.1661 0.11474 2.6271 0.25468 0.461 0.13994 1.3354 0.39701 1.943 0.57132 1.3422 0.38501 2.7242 1.3418 1.9518 1.3513-0.27015 0.0033-0.85159-0.17997-1.2922-0.4078-0.44058-0.22783-1.1409-0.46445-1.556-0.52574-0.41511-0.0613-1.5073-0.26228-2.4272-0.44658-1.6528-0.33114-2.558-0.23828-2.558 0.26227 0 0.14163 0.52225 0.33722 1.1602 0.43499 2.6691 0.40901 5.0985 1.0961 6.9202 1.9566 1.0665 0.50384 2.0126 0.91595 2.1026 0.91595s0.4707 0.30718 0.84599 0.68247c0.37528 0.37528 0.90311 0.68615 1.1726 0.69086 0.26952 0.0047 1.2237 0.37318 2.1206 0.8188 0.89686 0.44563 1.7724 0.81001 1.9454 0.81001s0.48324 0.20434 0.68927 0.45378c0.20602 0.24944 1.0234 0.74063 1.8163 1.0919 0.79289 0.35124 1.5077 0.81171 1.5888 1.0231 0.0811 0.21139 0.44559 0.45907 0.81001 0.55053 0.36442 0.09146 0.66287 0.27767 0.66287 0.4134 0 0.27988 3.6148 2.7451 4.0252 2.7451 0.14698 0 0.56012 0.27948 0.91835 0.6213 0.35822 0.34182 1.1201 0.96829 1.6928 1.3921 0.57268 0.42383 1.5683 1.2802 2.2125 1.9031 2.7404 2.6499 4.0236 3.7718 4.1592 3.6362 0.32403-0.32403-0.23889-1.7729-0.73964-1.9039-0.29038-0.07593-0.74393-0.51841-1.0079-0.98352-0.26397-0.46511-0.66399-0.906-0.88916-0.97952-0.22517-0.07352-0.96209-0.65157-1.6376-1.2846-1.4114-1.3226-3.3792-2.7163-6.2797-4.4482-0.50282-0.30022-1.3124-0.93147-1.7991-1.4025s-1.601-1.2022-2.476-1.6248-1.6521-0.83835-1.7272-0.92395c-0.37653-0.42941-1.6802-1.0983-2.1406-1.0983-0.28712 0-0.66739-0.17518-0.84519-0.38941-0.17779-0.21423-0.86393-0.57361-1.5249-0.79881s-1.7806-0.8516-2.488-1.3917c-0.70737-0.54012-1.5716-1.0535-1.9203-1.141-1.2916-0.32416-0.58251-0.5359 0.79921-0.23868 2.8754 0.61852 5.5567 1.5992 6.8239 2.496 0.71338 0.50488 1.4009 0.91795 1.5276 0.91795s0.66691 0.3993 1.2006 0.88717c1.4739 1.3473 1.786 1.5692 2.2061 1.5692 0.21257 0 1.1353 0.64481 2.0506 1.4329 0.91531 0.7881 2.4109 1.9856 3.3232 2.6611 0.91232 0.67551 2.1748 1.6843 2.8054 2.2417 0.63066 0.55744 2.149 1.8855 3.3744 2.951 2.1064 1.8317 2.2154 1.9806 1.999 2.7351-0.20011 0.69775-0.12604 0.87563 0.59091 1.4161 1.027 0.77421 2.685 2.461 2.6867 2.7335 8e-4 0.11259 0.49261 0.69612 1.0931 1.2966 0.60045 0.60045 1.0915 1.2144 1.0915 1.3645 0 0.34207-0.27353 0.33519-0.88676-0.02199-0.2627-0.15301-0.47777-0.45636-0.47777-0.67407 0-0.21771-0.10658-0.39581-0.23709-0.39581-0.36236 0-2.8726-2.0618-4.9036-4.0276-1.0005-0.96837-2.2488-2.085-2.7742-2.4816-2.1184-1.5989-5.2149-4.2207-5.5501-4.6993-0.19601-0.27986-0.65479-0.66937-1.0195-0.86518-1.072-0.57558-3.1122-1.965-3.2108-2.1869-0.05-0.11259-0.29008-0.2047-0.53374-0.2047-0.24365 0-1.5794-0.67832-2.9686-1.5073-1.904-1.1362-2.4847-1.6142-2.3588-1.9423 0.13856-0.36106 0.0741-0.38559-0.37821-0.14353-0.40442 0.21643-0.67898 0.19808-1.0647-0.07156-0.2859-0.19988-1.2567-0.7622-2.1573-1.2494-7.2387-3.9155-9.5521-4.7719-12.828-4.7501-1.2009 8e-3 -2.7242 0.1165-3.3851 0.24108-1.7589 0.33153-1.2361-0.2383 1.2642-1.3777 1.6707-0.76137 2.3858-0.93554 3.8417-0.93554zm153.99 0.59451c-0.30292 0.03465-0.94254 0.22583-2.2893 0.6161-2.4174 0.70055-3.527 0.6832-3.2452-0.05118 0.1373-0.35776-0.0126-0.39662-0.95034-0.24668-1.5208 0.24318-3.6908 1.2044-3.4819 1.5424 0.17218 0.27861 1.4065 0.09919 1.9115-0.27786 0.15012-0.11208 0.7028-0.28333 1.2282-0.38062l0.95514-0.17671-0.79482 0.45018c-0.43716 0.24763-1.6003 0.73203-2.5847 1.0763s-1.8342 0.75955-1.8887 0.92315c-0.1536 0.46082 0.45014 0.36575 2.7626-0.43539 1.6849-0.58369 2.1799-0.66497 2.3525-0.38581 0.28368 0.45899 1.245 0.27408 1.245-0.23948 0-0.24019 0.42872-0.4877 1.0919-0.63049 2.339-0.50363 3.9573-1.101 3.9573-1.4605 0-0.23622 0.0338-0.35809-0.26908-0.32344zm-112.68 1.6024c1.721-0.03161 3.8199 0.55934 4.5446 1.4325 0.73395 0.88435 2.5692 1.5984 4.6857 1.8231 0.0751 8e-3 -0.0479 0.13222-0.27307 0.27586-0.22517 0.14365-1.1181 0.34199-1.9846 0.44098-0.86651 0.09899-1.6498 0.30066-1.7408 0.44778-0.25894 0.41898 0.50981 0.78119 1.3374 0.63009 0.59712-0.10903 0.75043-0.0344 0.75043 0.36622 0 0.37166-0.33932 0.59174-1.2962 0.83959-0.71304 0.1847-2.3848 0.63633-3.7146 1.0039-2.254 0.62303-2.6702 0.65438-6.141 0.45938-2.0477-0.11505-4.5212-0.21338-5.4969-0.2183-0.97574-0.0049-2.941 0.08719-4.3671 0.2047-2.2376 0.18438-2.6864 0.14919-3.2752-0.25707-0.37529-0.25893-0.74375-0.55294-0.8188-0.65328-0.0751-0.10034-0.56647-0.40493-1.0919-0.67687l-0.95513-0.49416 0.8188-0.2075c0.45034-0.11411 3.1525-0.25564 6.0047-0.31425 6.1075-0.1255 6.4267-0.22612 9.0592-2.8586 0.94998-0.94998 2.0409-1.8464 2.4244-1.9922 0.42483-0.16152 0.95639-0.24134 1.5301-0.25188zm-48.36 0.47977c0.13497-0.0086 0.22138 0.01681 0.25348 0.06677 0.0642 0.09991-0.08894 0.29843-0.50695 0.52214-0.62674 0.33542-1.1099 0.36577-1.1099 0.06957 0-0.1172 0.36846-0.35216 0.8188-0.52214 0.22605-0.08532 0.40957-0.12778 0.54453-0.13633zm126.25 0.06037c-0.80156 0.02041-1.6924 0.15066-2.6927 0.38461-2.0485 0.47914-9.8012 4.1454-14.657 6.9314-1.4261 0.81817-3.1454 1.7962-3.8209 2.1733-0.67551 0.3771-1.9237 1.1274-2.7738 1.6672-0.85012 0.53983-1.8942 1.1959-2.3201 1.4581-2.143 1.3194-6.2983 4.8991-10.202 8.7889-2.5345 2.5253-5.0052 5.7978-5.3178 7.0434-0.11765 0.46876-0.47463 0.82258-1.0411 1.0319-0.47407 0.17518-0.70859 0.3778-0.52095 0.45018 0.44675 0.17231 0.4258 0.77655-0.078 2.2229-0.64372 1.8482-1.1734 5.3018-0.89636 5.8463 0.2502 0.49184 1.1744 0.65436 1.4241 0.25028 0.0774-0.12522 0.20413-0.58579 0.28186-1.0235 0.74242-4.1806 1.229-5.8351 2.2809-7.7558 0.36996-0.67551 0.90292-1.4816 1.1842-1.7915 0.2813-0.3099 0.51382-0.74004 0.51654-0.95553 0.0133-1.0511 2.7731-4.0825 7.9349-8.7161 1.087-0.97574 2.2695-2.0515 2.6279-2.3904 1.005-0.95043 3.5074-2.7954 3.7918-2.7954 0.1398 0 0.68134-0.34926 1.2034-0.77642 0.52207-0.42717 1.972-1.3645 3.222-2.083 2.1698-1.2472 2.3454-1.2999 3.8725-1.1614 0.87974 0.07977 1.8799 0.34146 2.2229 0.58171 0.34302 0.24026 0.82703 0.43699 1.0755 0.43699 0.24844 0 0.60474 0.18423 0.79161 0.4094s0.51684 0.4094 0.73364 0.4094c0.21681 0 0.79695 0.30719 1.289 0.68247 0.49203 0.37528 0.97768 0.68207 1.0791 0.68207 0.10139 0 0.64227 0.28556 1.2022 0.63449 0.55994 0.34894 2.2462 1.0468 3.7474 1.5508 2.3509 0.78937 3.1939 0.93301 6.0798 1.0363l3.3508 0.11994-0.64048 0.85398c-0.84554 1.1273-1.449 2.7176-1.6816 4.4314-0.15454 1.1388-0.0704 1.6756 0.45938 2.9318 1.0629 2.5206 2.1624 3.8376 4.2119 5.0443 1.7364 1.0223 2.058 1.112 4.6002 1.2854 3.0814 0.21016 7.3887-0.35163 9.2759-1.2098 3.6677-1.6678 5.1197-2.2187 6.8235-2.5887 5.2124-1.1322 6.5305-1.2567 13.108-1.2398 12.947 0.03332 15.416-0.02984 16.596-0.42299 0.62548-0.20833 1.8401-0.50574 2.6995-0.66088 1.7126-0.30916 3.0658-0.90802 3.4051-1.5073 0.19856-0.35063 3.7377-1.2522 4.9156-1.2522 0.2695 0 0.82868-0.35869 1.2426-0.79721 0.71236-0.75473 1.1409-0.95592 4.4315-2.0806 1.5232-0.52064 9.3692-1.0276 11.806-0.76283 0.80886 0.08789 1.5832 0.0359 1.7743-0.11914 0.18652-0.15128 1.0288-0.41646 1.8719-0.58931 1.9301-0.39573 2.8414-1.2417 2.4492-2.2733-0.35892-0.94401-1.1314-1.1337-2.3157-0.56892-1.0403 0.49606-1.3646 1.0717-0.43818 0.77762 0.42902-0.13617 0.54572-0.04916 0.54572 0.407 0 0.3192 0.12294 0.50457 0.27308 0.4118 0.1501-0.09277 0.27304 0.02265 0.27304 0.25667 0 0.29654-0.2898 0.43804-0.95552 0.46657-0.5254 0.02252-1.1085 0.05296-1.2962 0.06797-0.20662 0.01652-0.34084-0.31137-0.34022-0.83159 0-0.82639-0.0356-0.85346-0.95552-0.72005-0.52594 0.07627-1.5086 0.31939-2.1842 0.54054-1.502 0.49172-3.6156 0.56312-3.761 0.12714-0.0581-0.17434-0.40246-0.31665-0.76522-0.31665-1.1655 0-0.71306-0.73395 0.84158-1.3649 1.3993-0.56792 2.032-1.3645 1.0839-1.3645-0.6459 0-3.59 1.5637-3.7554 1.9946-0.0811 0.2112-0.55712 0.46606-1.0579 0.56612-1.3567 0.2711-5.0534 1.7441-6.211 2.4748-1.1728 0.74037-2.041 1.9266-1.7635 2.4096 0.10536 0.1834 0.0913 0.24242-0.0316 0.13114-0.12284-0.11128-0.3869-0.06694-0.58654 0.09875-0.19964 0.16569-1.3736 0.47692-2.6087 0.69126-1.2351 0.21434-2.3111 0.47777-2.3912 0.58571-0.8144 1.0964-8.5755 2.5822-12.947 2.4784-4.638-0.11009-16.048-6e-4 -17.495 0.16792-2.6852 0.31285-12.784 3.275-13.712 4.022-0.5791 0.46599-3.8222 0.60735-4.3267 0.18871-0.37672-0.31265-0.49438-0.29762-0.78482 0.09955-0.70164 0.95956-3.6202 0.48868-5.7404-0.92635-1.8631-1.2434-2.5108-2.0121-3.3972-4.0316-0.8903-2.0285-0.92026-2.667-0.23146-4.9136 0.31902-1.0405 2.0941-4.1264 2.3736-4.1264 0.1002 0 0.39456-0.36 0.65448-0.80001 0.66356-1.1233 0.12876-1.331-1.1487-0.44578-0.76258 0.52848-1.5657 0.77559-3.0545 0.93914-4.2008 0.46149-7.2358-0.35874-13.473-3.641-2.1484-1.1306-4.6107-2.2157-5.4717-2.4112l-1.5652-0.35543 2.0206-1.0259 2.021-1.0259 1.2198 0.52374c0.6709 0.28787 1.7725 0.774 2.448 1.0807 0.67551 0.30667 1.7809 0.70254 2.4564 0.87957 0.6755 0.17702 1.475 0.4797 1.7767 0.67247 0.65956 0.42146 3.097 0.96973 4.3095 0.96953 1.1032-2e-4 3.9443-1.3436 4.7945-2.2669 0.3981-0.43231 0.6938-1.1527 0.77082-1.8783 0.10268-0.96735-0.0194-1.4015-0.68526-2.4376-1.3461-2.0945-2.9479-3.0234-5.3526-2.9622zm-120.38 0.21749c2.0866 0.26088 5.232 1.3061 8.2552 2.8038 3.0754 1.5236 3.8209 2.1569 2.5396 2.1569-1.0561 0-8.7681 2.587-10.836 3.635-0.75521 0.3827-2.3452 0.94521-3.5331 1.2502-1.1879 0.30498-2.4057 0.6219-2.7059 0.70406-1.0761 0.29446-1.3645-0.23535-1.3657-2.5088-1e-3 -1.9513-0.07484-2.234-0.89996-3.4543-0.85307-1.2616-0.87471-1.3551-0.43379-1.8423 0.25546-0.28228 0.57396-0.51335 0.70806-0.51335 0.1341 0 0.75979-0.25536 1.3905-0.56732 1.0779-0.53313 2.7864-1.0764 5.1915-1.6512 0.41658-0.09955 0.99443-0.09976 1.69-0.01279zm119.67 0.86678c0.7274 0 1.4275 0.26796 2.3365 0.89436 2.8324 1.9519 3.1069 4.9732 0.54934 6.0418-0.49778 0.20798-1.3185 0.37601-1.8239 0.37302-1.0553-0.0063-4.2078-0.91731-6.7707-1.9566-0.96667-0.39201-1.8878-0.71383-2.047-0.71485-0.15918-1e-3 -0.65057-0.23964-1.0919-0.53054l-0.80201-0.52894 1.7983-0.83239c3.2624-1.51 6.7963-2.7459 7.8514-2.7459zm-35.414 0.24148c2.679-0.15759 6.9906 0.21477 13.313 1.1366 1.1258 0.16417 2.5689 0.35872 3.2068 0.43219 1.2072 0.13904 1.5036 0.46335 0.68246 0.74723-0.26269 0.09082-0.84622 0.40865-1.2966 0.70606-2.0296 1.3404-2.2954 1.4265-3.3384 1.0823-2.2136-0.73055-5.3726-0.96429-10.308-0.76323-6.2888 0.25619-8.1693 0.41173-8.7837 0.72684-0.62316 0.31962-2.2536 0.54612-2.8842 0.4006-0.77542-0.17892-0.54714-1.0745 0.42739-1.6768 0.49775-0.30762 1.1287-0.80652 1.4021-1.1087s0.94096-0.62928 1.4833-0.72684c0.54232-0.09757 1.1377-0.29808 1.3234-0.44538s0.65874-0.18723 1.0511-0.08876c0.39235 0.09847 1.1001 0.05853 1.5728-0.08876 0.54425-0.16956 1.256-0.28091 2.149-0.33344zm93.957 0.30425c-0.25306 0-3.5245 1.6857-3.9501 2.0354-0.22516 0.18503-0.93358 0.53962-1.5744 0.78802-0.64088 0.2484-1.6233 0.73865-2.1834 1.0895-0.56002 0.35082-1.6018 0.85856-2.3148 1.1286-0.71306 0.27008-1.2966 0.59753-1.2966 0.72724 0 0.12972 0.18012 0.23588 0.40018 0.23588 0.55416 0 2.3293-0.87089 2.3293-1.1426 0-0.12231 0.2456-0.22229 0.54572-0.22229 1.0735 0 8.188-3.8282 8.188-4.4058 0-0.12878-0.0646-0.23389-0.14394-0.23389zm-134.99 0.05597c-0.25574-0.0023-0.50686 0.10115-0.94114 0.30825-1.0294 0.49087-1.1772 1.079-0.51015 2.0314 0.42496 0.60672 1.7587 0.85993 1.7587 0.33384 0-0.15011 0.22115-0.27307 0.49136-0.27307 0.2702 0 0.63866-0.1473 0.8188-0.32744 0.60216-0.60216 0.35378-1.2721-0.64808-1.7475-0.45328-0.2151-0.71379-0.32314-0.96953-0.32544zm156.33 0.97712c-3.468 0.04951-7.697 0.21921-10.955 0.48456-7.136 0.58119-11.6 1.5157-11.6 2.428 0 0.32996 0.2556 0.38027 1.2965 0.25627 0.71306-0.08494 1.4804-0.22677 1.7056-0.31505 0.68056-0.26682 4.2173-0.58511 9.6893-0.87238 6.4934-0.34088 13.903-0.82505 15.111-0.98752 1.2098-0.16267 1.5271-0.37278 1.143-0.75683-0.21576-0.21576-2.9232-0.28659-6.3913-0.23708zm-216.39 0.03918c1.3374 0.01726 2.4488 0.09798 3.0585 0.25908 0.82562 0.21813 1.5492 0.43456 1.608 0.48096 0.05879 0.0464-0.18671 0.32438-0.54573 0.6177-0.48336 0.39492-0.57347 0.61411-0.34743 0.84439 0.22817 0.23245 0.54861 0.2092 1.2694-0.09195 0.93855-0.39215 0.98443-0.38185 1.7184 0.38421 0.66423 0.6933 0.76909 1.0481 0.88077 2.9773l0.12674 2.1897h-1.0775c-0.5925 0-1.6829-0.17545-2.4232-0.38981-0.74029-0.21436-2.3286-0.53009-3.5295-0.70206-1.2804-0.18335-2.3127-0.47958-2.4964-0.71605-0.3762-0.48435-5.2279-1.3783-5.9587-1.0979-0.87958 0.33753-0.04198 0.76946 1.6724 0.86238 2.3256 0.12604 2.2087 0.51633-0.17712 0.59211-3.2766 0.10407-8.8679 0.87326-10.861 1.4945-0.7222 0.22504-1.0983 0.18247-1.9103-0.21589-0.91016-0.44655-0.9485-0.50534-0.38221-0.59171 0.34602-0.05278 0.80117 0.04653 1.0115 0.22109 0.46009 0.38184 0.98443 0.12618 0.78842-0.38461-0.10256-0.26728 0.13057-0.35644 0.87077-0.33264 0.55794 0.01796 1.0611-0.1117 1.1234-0.28946 0.12695-0.36201-0.94674-0.53478-4.6277-0.74404-1.9077-0.10845-2.3884-0.06041-2.3884 0.23868 0 0.20593 0.34478 0.45041 0.76603 0.54293 0.69914 0.15356 1.9322 1.6348 1.6204 1.9466-0.31714 0.31714-3.4639 0.12501-4.407-0.26907-1.1536-0.482-2.0734-0.56991-2.0734-0.1983 0 0.36177 0.58821 0.75174 1.5013 0.99551 0.80621 0.21524 0.79796 0.22384-0.54573 0.55733-1.3535 0.33592-2.4775 0.43182-3.0025 0.25668-0.15011-0.05008-0.61069-0.16523-1.0235-0.25628-0.41496-0.09152-0.75043-0.35031-0.75043-0.57852 0-0.22702-0.15339-0.46665-0.34103-0.53254-0.18764-0.06589-0.70989-0.26507-1.1602-0.44258-0.45034-0.17751-1.0397-0.36551-1.3098-0.41779-0.27003-0.05229-0.94528-0.34438-1.5009-0.64928l-1.0103-0.55453 1.0919 0.15552c2.5681 0.36549 5.1095 0.457 5.373 0.19351 0.30143-0.30143-2.0618-1.101-4.0084-1.3561-0.60045-0.07869-1.5216-0.3563-2.047-0.6173-0.5254-0.261-1.3853-0.56118-1.9107-0.66687-1.4263-0.28693-2.7291-0.77448-2.7291-1.0211 0-0.30441 0.26643-0.27653 1.7987 0.18831 1.5571 0.47235 2.7374 0.52774 2.9773 0.13953 0.09278-0.15011 0.03863-0.27306-0.12034-0.27306-0.15898 0-0.28906-0.10659-0.28906-0.23709 0-0.38457 2.5006-0.32829 4.5314 0.10195 1.0354 0.21936 3.2644 0.4008 4.9532 0.4034 2.425 0.0037 3.0705 0.08383 3.0705 0.38101 0 0.9392 4.0183 1.3653 9.8256 1.0419 2.7662-0.15404 3.4115-0.26736 3.4115-0.59931 0-0.52323-2.6373-0.83978-4.6833-0.56212-0.79235 0.10753-1.598 0.09566-1.7903-0.02639-0.27106-0.172-0.25735-0.23095 0.05997-0.26147 0.22517-0.02165 0.71618-0.07163 1.0915-0.11115 0.37528-0.03951 2.0334-0.21117 3.6846-0.38141 4.103-0.42303 6.6871-0.84858 6.6871-1.1015 0-0.24342-2.2719-0.59973-2.7914-0.43779-0.19117 0.05959-1.0231 0.18744-1.8487 0.28386-1.1368 0.13276-1.4249 0.09832-1.1878-0.14113 0.62747-0.63387 6.6723-1.1533 10.684-1.1015zm170.89 0.73564c0.0689 0.06104-0.0694 0.25196-0.45056 0.54134-0.46898 0.35601-1.1598 0.50542-1.1598 0.25068 0-0.0712 0.36846-0.32005 0.8188-0.55293 0.44694-0.23112 0.72274-0.30012 0.7916-0.23908zm-173.15 0.10275c-0.22517 0-0.4094 0.12255-0.4094 0.27267 0 0.15011 0.18423 0.27306 0.4094 0.27306s0.4094-0.12296 0.4094-0.27306c0-0.15012-0.18423-0.27267-0.4094-0.27267zm188.5 0.4226c-0.16322-0.03516-0.41902-0.02444-0.7896 0.02719-1.4077 0.1961-1.706 0.30674-1.706 0.63329 0 0.30481 1.5956 0.38535 2.2977 0.11594 0.23742-0.09112 0.4318-0.32927 0.4318-0.52894 0-0.13145-0.0707-0.21232-0.2339-0.24748zm-10.349 0.69606c-0.18136-0.03255-0.51394 0.02251-1.1191 0.14353-0.46908 0.09382-0.85316 0.27805-0.85316 0.4094s0.4914 0.23869 1.0919 0.23869c0.78848 0 1.0919-0.11373 1.0919-0.4094 0-0.22963-0.0301-0.34966-0.2115-0.38221zm2.8726 0.17471c-0.50376-0.19136-2.1154 0.09432-2.1154 0.37502 0 0.13307 0.5527 0.24188 1.2282 0.24188 1.1594 0 1.6371-0.33205 0.88716-0.6169zm-182.61 0.55693c-1.6165 0.14825-1.8429 0.25758-1.2754 0.6165 0.49106 0.31055 3.2672 0.34793 3.2672 0.04398 0-0.55698-0.676-0.78115-1.9918-0.66048zm-15.197 0.0128c1.0281-0.09804 1.6316 0.1415 1.6316 0.64768 0 0.12009-0.27635 0.20001-0.6141 0.17751-2.2598-0.15049-2.8735-0.6482-1.0175-0.8252zm-3.0925 0.06637c0.47901-0.01054 0.94672 0.10376 1.0395 0.25387 0.20231 0.32735-0.60276 0.32735-1.3645 0-0.46013-0.19773-0.40909-0.2377 0.32504-0.25387zm51.648 0.13194 1.716 0.87997c0.94375 0.48398 1.8694 0.87963 2.057 0.87957 0.18764-5.6e-5 0.34143 0.12296 0.34143 0.27307 0 0.15012-0.3036 0.27267-0.67447 0.27267-1.3517 0-9.2515 2.7895-12.154 4.2915-1.6985 0.87902-5.2991 3.2013-5.9935 3.8657-0.25302 0.2421-0.8504 0.77905-1.3274 1.193-0.64194 0.55717-0.8668 0.98252-0.86598 1.6376 0.0014 1.3167 0.87742 2.5699 1.9578 2.801 2.0773 0.44443 2.9483 1.5619 2.9526 3.7894 2e-3 1.0541-1.5766 2.5486-3.9621 3.7506-0.99929 0.50352-2.328 1.1859-2.9526 1.5165-3.6922 1.954-7.3416 2.9766-12.432 3.4839-2.3103 0.23021-4.2138 0.4017-4.2303 0.38141-0.0165-0.02029-0.85009-0.17367-1.8523-0.34103-2.1033-0.35123-2.3672-0.52063-1.7583-1.1294 0.46543-0.46543 0.58208-0.93936 0.23709-0.96273-2.3176-0.15702-4.435-0.53039-4.435-0.78202 0-0.3748 3.0718-0.59498 4.094-0.29346 0.5254 0.15498 2.306 0.3587 3.9573 0.45298 2.2003 0.12563 3.0651 0.27761 3.2368 0.56892 0.18651 0.31643 0.60391 0.3595 2.047 0.2103 0.997-0.10308 2.1693-0.36163 2.6051-0.57452 0.43587-0.21289 1.0151-0.38701 1.287-0.38701 0.54476 0 1.1803-0.94791 0.91915-1.3705-0.09086-0.14701-0.32701-0.26707-0.52494-0.26707-0.19793 0-0.49473-0.16267-0.65968-0.36142-0.27099-0.32652-2.8288-0.36439-8.0916-0.11994-0.30023 0.01394-1.7432-0.07318-3.2068-0.1935-2.3715-0.19497-2.6611-0.17029-2.6611 0.22789 0 0.59995-0.12967 0.58387-4.3671-0.53974-2.0265-0.53736-4.4215-1.153-5.3222-1.3685-2.1172-0.50655-3.1489-0.92005-3.8041-1.5241-0.291-0.26826-0.76186-0.48776-1.0463-0.48776-0.29555 0-0.46576-0.14605-0.39741-0.34103 0.14246-0.40634 1.2225-0.32142 2.771 0.21829 0.61166 0.21318 1.5936 0.38962 2.1817 0.39181 0.58815 0.0022 1.8433 0.13869 2.7894 0.30345 1.5173 0.26423 1.7132 0.36856 1.66 0.88557-0.05657 0.54994 0.10006 0.59937 2.5328 0.79521 1.4261 0.11481 3.5139 0.37251 4.6397 0.57292 2.2387 0.39852 3.721 0.40483 3.6198 0.0156-0.03561-0.137-0.28112-0.2742-0.54573-0.30505-0.77993-0.09094-1.7279-0.27126-3.7566-0.71485-1.0508-0.22977-2.6892-0.50527-3.641-0.6121-1.0156-0.11399-1.9176-0.37984-2.1833-0.64329-0.24904-0.24691-0.97955-0.80218-1.6232-1.2342-1.6647-1.1174-1.1429-1.369 1.7503-0.84439 2.2444 0.40699 4.7224 0.81596 6.8451 1.1298 0.55841 0.08258 0.82647 0.25415 0.74204 0.47417-0.16209 0.42242 4.8232 1.6298 6.1802 1.4969 1.2832-0.12573 1.3257-0.7028 0.06717-0.91076-2.6762-0.4422-4.3109-0.89859-4.2479-1.1858 0.03753-0.17112 0.09921-0.4543 0.13673-0.62929 0.03753-0.17499-0.30049-0.39938-0.75083-0.49856-1.0963-0.24144-2.047-0.77129-2.047-1.141 0-0.20892 0.64712-0.2459 2.1154-0.12114 3.3849 0.28762 4.447 0.48397 4.4074 0.8144-0.15281 1.2773-0.01466 1.4003 1.5968 1.4245 0.86322 0.01296 1.9743 0.06274 2.4692 0.11035 1.2832 0.12344 1.6811-0.37705 0.84998-1.0691l-0.65768-0.54773 2.3588-0.0092c1.776-0.0068 2.3952 0.08547 2.5056 0.37302 0.15749 0.41042 2.0319 1.1369 2.2837 0.88517 0.30235-0.30235-0.18995-1.0062-0.93155-1.3322-0.41702-0.18328-0.81984-0.41697-0.89556-0.51934s-0.87432-0.25972-1.7743-0.34943c-3.6518-0.364-4.5022-0.50528-4.5022-0.74843 0-0.14006-0.38386-0.41596-0.85318-0.6133-1.2622-0.53072-0.54097-0.80033 2.2025-0.8236 1.8848-0.01598 2.3353-0.09917 2.3353-0.42939 0-0.26476-0.2595-0.40561-0.73524-0.39941-0.54019 7e-3 -0.66321-0.07722-0.46417-0.31704 0.18253-0.21993 0.16585-0.39122-0.05117-0.52535-0.18149-0.11217-0.43175-0.0036-0.57292 0.24868-0.18538 0.33125-0.65523 0.45011-1.8063 0.45738-1.2307 0.0078-1.724 0.14765-2.3612 0.66847-0.79131 0.64674-0.79663 0.66827-0.29785 1.2194 0.27929 0.3086 1.0103 0.70464 1.6244 0.87997 0.66521 0.18991 0.92949 0.36193 0.65408 0.42539-0.25427 0.05859-0.92952-0.03444-1.5009-0.2063-0.57136-0.17186-1.9602-0.41895-3.0861-0.54933-5.5773-0.64589-5.4346-0.64311-6.0087-0.12354-0.68541 0.6203-0.68428 1.0817 0.0044 1.7703l0.54573 0.54572h-0.56333c-0.30977 0-2.06-0.31818-3.8893-0.70685-3.663-0.77828-3.5545-0.76174-4.6349-0.70086-0.89929 0.05068-2.2187 1.2577-1.9994 1.8291 0.10139 0.26421-0.02627 0.39741-0.38101 0.39741-0.67694 0-2.9581-0.53924-3.6958-0.87357-0.95548-0.43302-2.8901-0.15508-3.2312 0.46417-0.1654 0.30023-0.32872 0.59396-0.36262 0.65288-0.0339 0.05892-0.21813-0.01326-0.4094-0.16032-0.19127-0.14705-1.1146-0.54736-2.0518-0.88997-1.6043-0.58646-1.7439-0.59677-2.388-0.17471-0.37629 0.24656-0.68407 0.5682-0.68407 0.71485 0 0.50063-0.68169 0.25177-2.3201-0.84719-1.3897-0.93214-1.7821-1.073-2.5927-0.93114-0.5254 0.09191-1.5943 0.23224-2.3752 0.31185-1.6181 0.16496-2.0326 0.50496-1.6964 1.3921 0.26963 0.71154 0.74632 0.77927 1.4949 0.2131 0.96063-0.72659 2.0856-0.52011 2.9294 0.53734 0.41921 0.52539 0.94106 0.95513 1.1598 0.95513s0.39781 0.12041 0.39781 0.26747 0.48045 0.51252 1.0675 0.812c0.58703 0.29948 1.4733 0.91534 1.9694 1.3685 0.49618 0.4532 1.3053 0.95716 1.7983 1.1199 0.49297 0.1627 0.89636 0.40886 0.89636 0.54733 0 0.31877-0.30159 0.31456-2.3197-0.03398-0.90068-0.15556-2.3745-0.40187-3.2752-0.54733-2.1717-0.35073-10.781-4.2308-10.781-4.8588 0-0.1009-0.63213-0.48389-1.4049-0.85079-0.77278-0.36689-1.4625-0.88724-1.5329-1.1562-0.07034-0.269-0.28823-0.48896-0.48416-0.48896-0.19594 0-1.0109-0.61667-1.8107-1.3701-0.79982-0.75347-1.7239-1.4404-2.0538-1.5269-0.32985-0.08645-0.81776-0.48345-1.0843-0.88197-0.6418-0.9597-1.7435-3.3172-1.55-3.3172 0.08391 0 0.66155 0.34332 1.2838 0.76323 0.62222 0.4199 1.3542 0.8491 1.6264 0.95353 0.27221 0.10443 0.42162 0.30796 0.33224 0.45258-0.08938 0.14462-0.33016 0.19868-0.53534 0.11994-0.20518-0.07873-0.44812-0.02191-0.53974 0.12634-0.21036 0.34037 0.56194 1.1322 1.1043 1.1322 0.22446 0 0.81094 0.30718 1.303 0.68247 0.49202 0.37528 1.0893 0.68247 1.3278 0.68247 0.23841 0 0.50832 0.23542 0.59971 0.52334 0.09138 0.28793 0.71828 0.74851 1.3929 1.0235 1.054 0.42962 1.205 0.58785 1.0727 1.1247-0.12766 0.51774 0.0091 0.69304 0.80001 1.0235 0.99569 0.41603 3.1563 0.54919 3.1545 0.1943-6e-4 -0.11258-0.58413-0.73971-1.2966-1.3933-0.71244-0.6536-1.6022-1.4716-1.9774-1.8179-0.37528-0.34633-1.2043-0.83827-1.8423-1.0931-0.63798-0.2548-1.1602-0.62818-1.1602-0.82959s-0.21467-0.49108-0.47737-0.64409c-0.2627-0.15301-0.36677-0.28209-0.23109-0.28666 0.13568-0.0046 0.99556 0.40743 1.9107 0.91555 1.9092 1.0601 3.2932 1.4415 3.5755 0.98472 0.10438-0.16888-0.03732-0.49253-0.31505-0.71885-0.47581-0.38775-0.46543-0.40136 0.17751-0.24028 1.5947 0.39953 2.6662 0.46475 2.8462 0.17351 0.10338-0.16727 0.67219-0.30425 1.2638-0.30425 0.76267 0 1.0755-0.11633 1.0755-0.39981 0-0.5778-0.68979-0.85894-3.0021-1.2234-1.1258-0.17745-2.2312-0.39234-2.4564-0.47777-0.22517-0.08541-0.86098-0.1303-1.4129-0.09955-0.77058 0.04294-1.0738-0.07527-1.3062-0.50935-0.16639-0.31091-0.43223-0.56532-0.59091-0.56532-0.15868 0-0.60064-0.24551-0.98232-0.54573-0.89833-0.70662-1.5562-0.69045-2.2509 0.05517-0.52719 0.56588-0.58692 0.57371-1.0243 0.13633-0.29125-0.29125-0.34094-0.46457-0.13314-0.46457 0.55907 0 0.36854-0.92074-0.35103-1.6968-0.80043-0.86322-0.83912-1.0323-0.23628-1.0323 0.99004 0 2.5182 0.64334 2.6407 1.1119 0.11639 0.44508 3.368 2.1633 4.094 2.1633 0.15506 0 0.47586 0.16671 0.71285 0.37062 0.6734 0.57941 2.2167 1.0146 2.6795 0.75563 0.31496-0.17626 0.0637-0.40803-1.0563-0.97512-1.8557-0.93961-2.5683-1.4589-2.3297-1.6976 0.32012-0.32012 6.5632-0.64289 6.8519-0.35423 0.1686 0.1686-0.0098 0.26307-0.49696 0.26307-1.2799 0-0.65887 0.64243 0.94394 0.97672 0.81441 0.16986 1.8105 0.46575 2.2137 0.65728 0.73682 0.34997 1.5868 0.23067 1.5868-0.22269 0-0.13384-0.76736-0.49572-1.7056-0.80401-1.4599-0.47972-1.6075-0.58436-1.0235-0.72724 0.37528-0.09182 3.5072-0.14397 6.9598-0.11594 3.4526 0.02803 7.3183 0.03777 8.5906 0.02199 1.4036-0.01742 2.3854 0.088 2.4968 0.26827 0.12369 0.20013 0.48241 0.11768 1.0987-0.25308 1.1765-0.70779 3.3504-1.3215 6.1002-1.7224 1.2009-0.17505 2.3063-0.41234 2.4564-0.52694s2.1766-0.36201 4.5034-0.55013c3.1537-0.25498 4.5084-0.26494 5.3222-0.03838 0.60045 0.16715 1.7675 0.31001 2.5931 0.31744 0.82563 0.0074 1.9923 0.19068 2.5927 0.407 0.60045 0.21632 1.4102 0.39516 1.7995 0.39741 0.38931 0.0023 1.3995 0.24207 2.2449 0.53294 1.3963 0.4804 2.4439 0.61412 4.6297 0.59131 0.7271-0.0076 2.035-0.59374 2.9446-1.3198 0.23564-0.18808 1.0955-0.57136 1.9107-0.85198 0.81515-0.28063 1.9118-0.77257 2.4372-1.0931 0.52539-0.32049 1.1272-0.58311 1.3373-0.58372 0.21017-6e-4 1.0084-0.29183 1.7739-0.64728 0.76556-0.35545 2.6464-1.0587 4.1796-1.5624zm185.82 0.13233c-1.6742-0.0378-3.1166-0.0058-3.2428 0.12034-0.072 0.07198-2.2112 0.19201-4.7537 0.26667-2.5425 0.07467-5.4824 0.25753-6.5332 0.4062-1.0508 0.14867-2.726 0.27415-3.7226 0.27906-1.3924 0.0069-1.9613 0.13327-2.4564 0.54573l-0.64448 0.53694 3.0025-0.0088c2.2769-0.0065 13.086-0.39805 15.011-0.54373 0.1501-0.01136 2.5302-0.0012 5.2886 0.02239 2.7584 0.02358 5.1278-0.06991 5.2654-0.2075 0.44202-0.44201-0.38466-0.80009-2.5819-1.1191-1.0525-0.15279-2.9583-0.26046-4.6325-0.29825zm-213.05 0.36661c-0.11404-0.02965-0.21798-0.02832-0.29226 0.01758-0.15013 0.09279-0.2037 0.34896-0.11914 0.56932 0.16361 0.42635 1.187 0.56526 1.187 0.16112 0-0.29016-0.4335-0.65909-0.77562-0.74803zm1.4609 0.09875c-0.15038 0.01126-0.3025 0.16855-0.36422 0.46497-0.05149 0.24727 0.09921 0.4238 0.36142 0.4238 0.28111 0 0.41496-0.17862 0.35743-0.47737-0.0554-0.28765-0.20425-0.42266-0.35463-0.4114zm168.63 1.0887c-2.8648 0.06546-4.3593 0.40198-4.0448 0.91075 0.11476 0.18569 0.59446 0.22093 1.3126 0.09635 0.62258-0.10801 2.1478-0.2704 3.3891-0.36062 3.2417-0.23561 2.7451-0.72422-0.65688-0.64648zm59.312 0.43938c-0.21432-0.21432-1.2762 0.17757-1.2762 0.47097 0 0.35145 1.0181 0.32119 1.2394-0.03678 0.0989-0.1601 0.11556-0.35541 0.0368-0.43419zm-28.979 0.83199c-4.1675 0.11367-6.4695 0.40938-6.3357 0.8136 0.0684 0.20671 1.7608 0.3582 5.1375 0.45978 5.0439 0.15173 5.7016 0.25713 5.7016 0.91675 0 0.62475-9.2238 1.2275-10.285 0.67207-0.61406-0.32142-1.4513-0.17077-1.4513 0.26107 0 0.13446 0.46056 0.43313 1.0235 0.66408l1.0235 0.42019-1.3869 0.02639c-1.1728 0.02243-1.4411 0.12808-1.7396 0.68567-0.19408 0.36264-0.59564 0.72321-0.89236 0.80081-0.7035 0.18397-0.36388 0.72365 0.45538 0.72365 0.37598 0 0.8171-0.27836 1.0819-0.68247 0.31116-0.4749 0.69428-0.68247 1.2598-0.68247 0.9294 0 1.0152 0.18775 0.33464 0.73004-1.1204 0.89272-6.1586 2.4061-9.8936 2.9717-1.4261 0.21596-3.6368 0.64897-4.9128 0.96233-2.3648 0.58075-4.3728 0.55699-5.5353-0.06517-0.35196-0.18837-0.61884-0.19155-0.8008-0.0096-0.18196 0.18196-0.0591 0.38776 0.36902 0.6169 0.58238 0.31168 0.38818 0.38626-2.0858 0.80201-1.5005 0.25215-4.5706 0.96018-6.8223 1.5736-4.5134 1.2296-8.3 1.847-9.3906 1.5305-0.38932-0.11299-0.933-0.22827-1.2082-0.25588-0.27522-0.0276-0.9707-0.20526-1.5456-0.39501-0.8928-0.29466-1.0715-0.48903-1.2242-1.3325-0.0983-0.54319-0.24516-1.2643-0.32624-1.602-0.13118-0.54645-0.0439-0.6141 0.79202-0.6141 1.2925 0 1.4969-0.31882 0.42658-0.66608-0.54192-0.17582-0.92904-0.50259-0.9887-0.83479-0.14654-0.81583-0.47554-1.0434-1.2334-0.85318-0.7731 0.19403-1.4673 1.387-1.7176 2.9522-0.0914 0.57174-0.2441 1.0395-0.33944 1.0395-0.1862 0-0.62134-0.76237-1.1375-1.9934-0.23184-0.55298-0.48246-0.74246-0.90314-0.68247-0.45858 0.0654-0.58142 0.2717-0.57932 0.97033 4e-3 1.2959-0.3113 1.0844-0.71164-0.47777-0.37892-1.4784-0.90288-1.7763-1.1802-0.67127-0.35852 1.4284 1.2704 3.8559 1.9019 2.8342 0.11806-0.19103 0.3854-0.10683 0.76642 0.24108 0.3219 0.29396 1.0155 0.75171 1.5408 1.0175 1.264 0.63944 1.6184 1.1518 1.6288 2.3533 7e-3 0.82744 0.1604 1.0924 0.89556 1.5468 1.0177 0.62914 1.7261 0.72938 2.0014 0.28386 0.12882-0.20847 0.84558-0.25972 2.1969-0.15752 2.0892 0.15801 3.3076-0.0552 5.1499-0.90076 0.60046-0.2756 2.0613-0.88998 3.2468-1.3653 1.8183-0.7291 2.2505-0.81346 2.7635-0.53894 0.41192 0.22046 0.77314 0.24011 1.1198 0.06077 0.28148-0.1456 1.1874-0.41528 2.013-0.59931 0.82562-0.18403 2.1765-0.55901 3.0021-0.83359 3.3291-1.1072 6.3471-1.6942 8.0305-1.5612 1.7118 0.13516 4.1074-0.3909 8.5278-1.8727 1.076-0.36068 2.1201-0.65723 2.3201-0.65928 0.19994-2e-3 1.1003-0.35824 2.001-0.79161 1.176-0.56585 1.7354-0.70819 1.9838-0.50495 0.23158 0.18946 2.0357 0.21571 5.4585 0.07876 5.807-0.23235 7.4811-0.42108 7.6263-0.85878 0.0713-0.21483-1.5482-0.368-5.4365-0.51495-3.0459-0.11511-5.3843-0.26417-5.1967-0.33104 0.75788-0.27008 0.34454-1.1127-0.68244-1.3913-0.75676-0.20533-0.13446-0.22998 2.388-0.09515 4.5983 0.24579 13.021 0.21714 13.283-0.04518 0.38184-0.38182-0.46946-0.65075-2.6331-0.83119-1.1715-0.0977-2.5116-0.31073-2.9781-0.47337-1.0251-0.35734-1.1351-1.0611-0.16594-1.0611 0.3753 0 0.95102-0.26854 1.2794-0.59691l0.59692-0.59691 0.23428 0.70246c0.21406 0.64215 0.4034 0.71827 2.2005 0.88517 4.8841 0.4536 6.9893 0.36775 7.2101-0.29466 0.1776-0.53276-2.3307-1.0526-7.017-1.4541-2.4887-0.21321-2.9291-0.18724-3.3552 0.1983-0.43224 0.39118-0.47086 0.39315-0.32584 0.0152 0.21514-0.56062-2.0161-0.78627-6.5548-0.66248zm-19.451 0.46058c-0.37416 0.07626-0.44426 0.23469-0.2059 0.47457 0.10196 0.10259 1.1891 0.2604 2.4156 0.35063 2.9286 0.21544 3.5301 0.17731 3.6646-0.23229 0.0738-0.22484-0.19806-0.34783-0.7976-0.36062-0.5004-0.01068-1.8711-0.10666-3.0457-0.2135-0.97858-0.089-1.6568-0.09506-2.031-0.0188zm-242.87 0.25187c0.055527 0 1.0075 0.42153 2.1154 0.93714 1.6063 0.7476 1.8484 0.9326 1.1954 0.91196-1.5479-0.048942-2.7276-0.25657-3.0693-0.54014-0.30411-0.25239-0.49907-1.309-0.24148-1.309zm237.01 0.33184c-0.18652-0.09776-0.84974 0.1158-3.1724 0.89756-1.559 0.52474-3.3132 0.95394-3.8981 0.95394-0.8511 0-1.1104 0.12264-1.299 0.6141-0.1296 0.33775-0.15648 0.68844-0.0596 0.77922 0.0969 0.09078 2.1753 0.05921 4.6186-0.06997 3.8112-0.2015 4.5335-0.17524 5.0835 0.18511 0.51412 0.33687 0.87742 0.36553 1.8351 0.14473 1.8784-0.43308 3.1759-0.35357 3.7594 0.22989 0.44382 0.44381 0.82616 0.50186 2.6611 0.4046 1.1785-0.06247 2.9412-0.20597 3.9169-0.31864 1.5121-0.1746 1.7613-0.27856 1.6876-0.70486-0.0518-0.29964 0.0303-0.42806 0.2047-0.32024 0.16016 0.09898 0.29108 0.35701 0.29108 0.57332 0 0.21631 0.18422 0.39341 0.4094 0.39341 0.49664 0 0.5397-0.64705 0.0683-1.0279-0.18762-0.15161-0.8941-0.33215-1.5696-0.4014-0.92038-0.09435-1.3649-0.0042-1.7739 0.35942-0.59956 0.53299-3.0642 0.83185-3.1949 0.38741-0.0441-0.15012 0.50316-0.31047 1.2162-0.35623 1.6097-0.10329 1.7166-0.59071 0.13636-0.6217-0.638-0.0125-1.467-0.06584-1.8423-0.11834-1.5355-0.21483-6.5839-0.46905-9.0752-0.45698-1.4636 0.0071-2.6611-0.02972-2.6611-0.08196s0.61436-0.29883 1.3649-0.54813c0.75058-0.24929 1.3645-0.5664 1.3645-0.70445 0-0.09222-9e-3 -0.15932-0.0716-0.19191zm53.829 0.27746c-0.70222 0.09108-1.9003 0.5095-1.9003 0.74803 0 0.13412 0.33764 0.28784 0.75046 0.34143 0.76376 0.09916 1.9845-0.69218 1.624-1.0527-0.0612-0.06118-0.2401-0.06714-0.47416-0.03678zm-78.851 2.4204c-0.21386 0.05424-0.39048 0.18942-0.48058 0.42419-0.11094 0.28912 0.0505 0.6335 0.4482 0.95553 0.9066 0.73412 1.6532 0.6575 1.6532-0.16952 0-0.80543-0.9792-1.3729-1.6208-1.2102zm-163.62 0.24548c-0.73187 0-0.95953 0.39861-0.36382 0.63689 0.47187 0.18875 0.83274 0.07092 0.96073-0.31305 0.06481-0.19443-0.17394-0.32384-0.59691-0.32384zm13.458 0c-0.6484 0-0.87762 0.43165-0.66927 1.2618 0.22444 0.89425 1.0027 0.75818 1.2646-0.22109 0.22164-0.82879 0.10065-1.0407-0.59531-1.0407zm2.0762 0.27267c-0.22517 0-0.4094 0.12295-0.4094 0.27307 0 0.15011 0.18423 0.27307 0.4094 0.27307s0.4094-0.12295 0.4094-0.27307c0-0.15012-0.18423-0.27307-0.4094-0.27307zm2.9602 0c-0.37389 0-0.51721 1.124-0.18551 1.4557 0.30901 0.30901 1.4557 0.20071 1.4557-0.13753 0-0.45315-0.83334-1.3182-1.2702-1.3182zm-10.446 0.37662c-0.1525-0.04551-0.30835-0.05138-0.44538 0.0012-0.43841 0.16823-0.43703 0.21332 0.02119 0.71965 0.55373 0.61186 0.83542 0.67349 1.1027 0.24108 0.2059-0.33315-0.22096-0.82541-0.67847-0.96193zm180.86 0.23109c-0.0534-0.04504-0.27958-0.03287-0.72044 0.0016-0.51384 0.04018-0.9847 0.22656-1.0463 0.4142-0.15662 0.4771 0.80942 0.42875 1.4509-0.07276 0.25-0.19547 0.36924-0.29799 0.31584-0.34303zm-165.51 0.2111c-0.36735 0-0.49362 0.86252-0.17311 1.183 0.30701 0.30702 0.84373 0.20227 0.99591-0.1943 0.1654-0.43103-0.2986-0.98872-0.8228-0.98872zm-24.588 0.02159c-0.13281 0.01408-0.26945 0.08115-0.39821 0.2099-0.22292 0.22292-0.20588 0.48655 0.06437 0.99151 0.51145 0.95566 1.0947 0.88131 1.0947-0.13953 0-0.67016-0.36239-1.1041-0.76083-1.0619zm-44.683 0.25148c0.22517 0 0.4094 0.11542 0.4094 0.25667 0 0.34416-0.42603 0.59067-0.64409 0.37262-0.30737-0.30737-0.18738-0.62929 0.23469-0.62929zm49.227 0c-0.75003 0-0.98146 0.81592-0.36023 1.2702 0.42443 0.31035 0.57032 0.31206 0.87318 0.0092 0.47675-0.47675 0.15497-1.2794-0.51295-1.2794zm-36.49 0.0064c-1.0881-0.01108-0.51009 0.64547 1.0215 1.1598 0.79222 0.26605 1.6221 0.66495 1.8439 0.88677 0.22181 0.22181 0.67697 0.4034 1.0115 0.4034s0.72497 0.11074 0.86758 0.24628c0.14261 0.13554 0.50498 0.3056 0.80521 0.37782 1.7469 0.4202 2.6282 0.01672 1.5009-0.68726-0.30023-0.18752-0.54573-0.49583-0.54573-0.68489 0-0.43388-0.33918-0.44084-0.76403-0.01598-0.25474 0.25474-0.40054 0.25474-0.65528 0-0.18014-0.18014-0.51776-0.32843-0.75043-0.32904-0.23268-6e-4 -1.1599-0.30465-2.0606-0.67567-0.90068-0.37102-1.9242-0.67771-2.2745-0.68127zm217.94 0.26667c-0.20962 0-0.69492 0.24659-1.0783 0.54813-0.38334 0.30154-1.1059 0.62362-1.606 0.71565-1.1632 0.21407-2.1374 0.82038-2.1374 1.3302 0 0.21885-0.33802 0.47167-0.75082 0.56212-1.5276 0.33472-1.5702 0.39632-0.6625 0.94834 0.61678 0.37508 1.3216 0.5222 2.3821 0.49776 0.8284-0.0191 1.5838 0.04301 1.6788 0.13793 0.28188 0.28186 3.0373 0.196 3.2204-0.10035 0.0928-0.15011 0.0695-0.28041-0.052-0.28946-2.7453-0.20444-4.4638-0.6499-4.018-1.0415 0.46682-0.41004 3.3658-0.88782 11.417-1.8815 0.89144-0.11002 1.6657-0.35223 1.7283-0.54053 0.15744-0.47323-0.76828-0.4369-5.1175 0.1999-2.0265 0.29672-4.0459 0.5418-4.4874 0.54493-0.74198 0.0052-0.76468-0.02229-0.29706-0.36422 0.55924-0.40893 0.41064-1.2674-0.2195-1.2674zm-18.176 0.8188c-0.39058 0-0.56572 0.17513-0.56572 0.56572 0 0.69943 0.90328 0.61991 1.0403-0.09156 0.0631-0.32752-0.084-0.47417-0.47458-0.47417zm74.507 0c0.15898 0 0.21312 0.12256 0.12034 0.27267-0.0928 0.15011-0.22288 0.27307-0.28906 0.27307-0.0662 0-0.12034-0.12296-0.12034-0.27307 0-0.15011 0.1301-0.27267 0.28906-0.27267zm-13.526 0.54574c0.44604 0 0.51338 0.23898 0.20068 0.71365-0.11028 0.16741-0.50788 0.3885-0.88316 0.49096-0.56772 0.15499-0.6021 0.13567-0.2047-0.11354 0.2627-0.16474 0.47778-0.47755 0.47778-0.69526 0-0.21771 0.18422-0.39581 0.4094-0.39581zm-29.07 0.13513c-0.35542-0.21967-1.3621 0.09731-1.3621 0.42899 0 0.14 0.36846 0.25468 0.8188 0.25468 0.80552 0 1.0835-0.34981 0.54334-0.68367zm-201.76 0.14151c-1.042 0.0063-1.8423 0.31496-1.8423 0.71045 0 0.44093 0.7624 0.48944 1.7563 0.11155 0.86399-0.32849 0.91609-0.82704 0.08596-0.822zm186.7 4e-4c0.39774 0.0036 0.4048 0.04066 0.052 0.26867-0.53452 0.34542-0.89556 0.34542-0.68208 0 0.0928-0.15011 0.37626-0.27096 0.6301-0.26867zm-168.53 0.04438c-0.24973 0.04843-0.50525 0.24135-0.56772 0.42899-0.16709 0.50183 0.66356 0.4166 0.85718-0.08796 0.11486-0.29932 0.02718-0.40244-0.28946-0.34103zm155.82 0.04798c-1.4433-0.0787-1.7624-0.0077-2.2333 0.49776-0.65586 0.70397-0.35966 1.2391 0.75722 1.3681 0.55142 0.06373 0.78628-0.06585 0.95794-0.52934 0.27124-0.73237 0.52252-0.76134 1.4337-0.16432 0.5264 0.34491 0.76184 0.37521 1.0079 0.12914 0.66242-0.66241-0.13804-1.204-1.9235-1.3014zm-209.54 0.46418c0.15011 0.0014 0.50994 0.18176 0.79921 0.4006 0.28927 0.21884 0.47134 0.4522 0.405 0.51855-0.06634 0.06634-0.42577-0.11398-0.79881-0.4006-0.37304-0.28662-0.55552-0.51998-0.4054-0.51855zm267.29 0.071564c0.19704-0.07884 0.43266-0.06911 0.52334 0.02159 0.0907 0.09069-0.0705 0.15538-0.35822 0.14353-0.31794-0.0131-0.38286-0.07799-0.16512-0.16512zm-38.973 0.04678c-0.15794 0.09761-0.2164 0.29167-0.13034 0.43139 0.20294 0.32837 2.5811 0.33315 2.5811 0.0052 0-0.31094-2.0603-0.67793-2.4508-0.43659zm-202.52 0.13993c-0.54586 0-0.8188 0.13647-0.8188 0.4094 0 0.42851 0.47478 0.52416 1.2062 0.24348 0.71283-0.27354 0.48753-0.65288-0.38741-0.65288zm226.6 0.78002c-0.90394-0.05925-2.3183-0.05337-4.2947 0.0148-2.5497 0.08793-3.3709 0.37046-2.8618 0.98392 0.193 0.23258 1.2179 0.3468 3.2104 0.35823 2.9652 0.01698 4.9739-0.36314 5.1795-0.97992 0.0645-0.19348-0.32942-0.31776-1.2334-0.37702zm-237.76 0.11274c-0.58517 0.08999-0.64129 0.45367 0.09076 0.78722 0.38375 0.17484 0.69766 0.47384 0.69766 0.66448 0 0.19063 0.27634 0.39992 0.6141 0.46497 0.33776 0.06505 0.6984 0.13507 0.80121 0.15552 0.56346 0.11204 1.6175-0.55762 1.5368-0.97632-0.08979-0.46625-1.0477-0.81359-2.9885-1.0835-0.30296-0.04213-0.55698-0.04239-0.75203-0.0124zm-4.4802 0.59811c-0.83591 0.11568-0.39232 0.65334 1.3106 1.1434 1.6149 0.46479 2.5935 0.44642 2.5935-0.04837 0-0.50537-0.76854-0.81147-2.6411-1.0527-0.56372-0.07262-0.98435-0.08094-1.263-0.04238zm10.848 0.8152c-0.60599 0.08898-1.1594 0.65769-0.75723 1.0599 0.31159 0.3116 0.852 0.20109 1.3242-0.27107 0.40976-0.40975 0.41205-0.47644 0.02319-0.69406-0.18033-0.10092-0.38812-0.12441-0.59011-0.09475zm-10.151 0.93874c-0.59098 0.05233-0.36964 0.80575 0.27307 0.92955 1.192 0.22958 3.1768 0.18938 3.3356-0.06757 0.23095-0.37367-2.2987-0.97798-3.6086-0.86198zm184.31 0.84918c-0.62022 0-0.7674 1.8706-0.27386 3.4799 0.0576 0.18764 0.36638 0.34103 0.68606 0.34103 0.55176 0 0.57108-0.08666 0.38662-1.706-0.21934-1.9253-0.29104-2.115-0.79882-2.115zm-143.31 2.2557c0.09709 0.04374 0.13753 0.14286 0.13753 0.30505 0 0.48853-0.72974 0.57855-1.3645 0.16832-0.22517-0.14551-0.28645-0.26793-0.13634-0.27227 0.15012-0.0043 0.54901-0.0822 0.88677-0.17272 0.22573-0.0605 0.37948-0.07213 0.47657-0.02839zm-60.274 1.3357 1.2218 0.79521c0.71205 0.46318 1.7855 0.86823 2.5715 0.97033 0.74204 0.09638 1.5332 0.31988 1.7583 0.49696 0.24395 0.19184 1.5675 0.34355 3.2752 0.37542 4.8563 0.09064 5.5535 0.52853 2.0298 1.275-2.1002 0.44491-3.0679 0.47017-4.4862 0.11674-0.52539-0.13092-1.2932-0.17-1.7064-0.08676-0.73392 0.14786-4.7208-0.84167-5.2398-1.3006-0.14261-0.12609-0.48023-0.22949-0.75043-0.22949-0.75109 0-0.58812-0.60721 0.4174-1.5556zm27.522 0.71645c0.15916-0.03863 0.4454-0.01036 0.87117 0.10675 0.57209 0.15735 1.5171 0.52884 2.1002 0.8256 1.3924 0.70864 5.3619 2.1257 5.9595 2.1274 0.25806 8e-4 1.4099 0.30838 2.5596 0.68367 1.1496 0.37528 2.3143 0.68247 2.5879 0.68247 0.27368 0 1.1484 0.14041 1.9439 0.31185l1.4465 0.31145-1.7743 0.49776c-2.2092 0.61953-2.2479 0.61744-5.7316-0.28586-2.787-0.72265-5.2416-1.7179-6.1618-2.4984-0.24892-0.21113-1.2055-0.75227-2.1262-1.2026-1.4846-0.72624-2.1523-1.4442-1.6748-1.56zm-3.4995 0.68766c0.35513-0.03305 1.1829 0.35977 2.1214 1.0431 0.5925 0.4314 1.3375 0.78442 1.656 0.78442 0.31844 0 1.0489 0.41818 1.6232 0.92914 0.57434 0.51097 1.4166 1.0033 1.8715 1.0943s1.4731 0.47139 2.2633 0.84519c0.79015 0.3738 1.905 0.68357 2.4772 0.68846 0.57222 0.0049 1.7159 0.24651 2.5416 0.53694 0.82562 0.29042 1.7857 0.53204 2.1334 0.53694 0.34762 0.0049 0.85043 0.12616 1.1175 0.26907 0.26703 0.14291 1.7019 0.46321 3.1888 0.71205 1.4869 0.24885 2.8184 0.55972 2.9586 0.69086 0.14011 0.13114 0.20138 0.27342 0.13633 0.31585-0.28761 0.18759-7.5651-0.5532-8.256-0.84039-0.42258-0.17567-1.1028-0.31944-1.5117-0.31944-0.40883 0-1.2109-0.23862-1.7827-0.53014-0.5718-0.29152-1.4271-0.61507-1.9003-0.71885-0.47321-0.10378-1.2883-0.41785-1.8115-0.69806-0.52317-0.28021-1.188-0.50935-1.4773-0.50935-0.69349 0-2.7864-1.2371-2.9897-1.7671-0.08793-0.22915-0.45273-0.41659-0.8108-0.41659-0.35808 0-1.0066-0.31051-1.4413-0.69007-1.1152-0.97368-1.2764-1.0885-1.8139-1.2938-0.2627-0.10031-0.47777-0.31722-0.47777-0.48217 0-0.11066 0.06593-0.16929 0.18431-0.18031zm93.256 1.2818c0.21025 0 0.53949 0.18946 0.73164 0.421 0.23499 0.28314 0.25919 0.51124 0.074 0.69646-0.18522 0.18522-0.42477 0.04736-0.73164-0.42099-0.36811-0.56179-0.38238-0.69646-0.074-0.69646zm-100.9 1.5309c0.77674 0.19025 3.6438 1.694 3.6438 1.9111 0 0.23388-2.9345-0.02615-5.0072-0.44378-1.6147-0.32536-2.0513-0.50353-1.7743-0.72404 0.6767-0.53884 2.3519-0.9357 3.1377-0.74324zm102.12 0.18911c0.10112-0.0173 0.20167-2e-4 0.29106 0.04518 0.17877 0.09093 0.31225 0.29625 0.31225 0.57092 0 0.21631 0.11059 0.39341 0.24588 0.39341 0.23134 0 1.5051 1.9301 1.3345 2.0222-0.0436 0.02356-0.26561 0.18337-0.49336 0.35543-0.34504 0.26069-0.50329 0.09988-0.94833-0.96433-0.29374-0.70241-0.50117-1.4304-0.46098-1.618 0.0402-0.18764-0.14123-0.34143-0.403-0.34143-0.34948 0-0.39495-0.08043-0.17192-0.30345 0.091-0.09103 0.19274-0.14263 0.29386-0.15992zm-61.135 1.2934c2.1124-0.0062 4.1267 0.07648 4.0168 0.25428-0.09535 0.15427-0.48164 0.28066-0.85878 0.28066-0.37714 0-0.87029 0.18423-1.0955 0.4094-0.55439 0.55439-3.4509 0.56291-3.9085 0.01158-0.18618-0.22433-0.76548-0.38897-1.3298-0.37781-1.6705 0.03303-1.883-0.01128-1.4289-0.29865 0.28174-0.17829 2.4922-0.27327 4.6046-0.27946zm63.118 2.9913c0.15897 0 0.21312 0.12255 0.12034 0.27267-0.0928 0.15011-0.22286 0.27307-0.28906 0.27307s-0.12034-0.12296-0.12034-0.27307c0-0.15011 0.13009-0.27267 0.28906-0.27267z" stroke-width=".2047"/>
</svg>
