<?xml version="1.0" encoding="utf-8"?>
<svg xmlns="http://www.w3.org/2000/svg" version="1.1" viewBox="0 0 300 445">
	<title>Three kangaroos; with their backs to each other, their legs pointing outwards, and their tails pointing down; form the silhouette of a tree.</title>
	<path d="m116.95 0.025112c-0.85728 0.27209-1.3841 1.6994-1.6868 4.5752-0.2073 1.9693-0.12575 2.5242 0.52037 3.5697 1.4272 2.3092 3.9181 7.5744 4.2057 8.8915 0.65535 3.0013 1.7671 7.0132 2.1343 7.6949 0.21651 0.40205 0.61379 1.3228 0.88235 2.0438 0.26857 0.72094 0.99544 1.7739 1.6139 2.3404 1.2752 1.168 2.1352 1.2937 2.989 0.43992 0.90396-0.90398 0.70552-2.1569-0.53295-3.3434-0.61796-0.59204-1.1237-1.2154-1.1237-1.3851 0-0.16969-0.31953-1.0223-0.70892-1.8954-0.38935-0.87319-0.91284-2.4317-1.1639-3.4616-0.25106-1.0299-0.67501-2.5446-0.94019-3.3686-0.26518-0.82394-0.69837-2.2581-0.96281-3.1851-0.26444-0.92693-0.86961-2.4799-1.3474-3.4515-0.47782-0.97158-0.86979-2.0246-0.86979-2.3404 0-0.85301 2.0906-0.73241 2.9965 0.17346 0.85337 0.85336 0.87319 1.0613 0.3444 3.356-0.34968 1.5174-0.27545 1.9098 0.80947 4.3062 0.65663 1.4504 1.8408 3.4188 2.6295 4.3741 0.78869 0.95528 2.0488 3.0345 2.8004 4.618 1.912 4.0281 3.1623 4.264 4.1755 0.78935 0.51661-1.7716 0.506-1.8268-0.4726-2.8482-0.69666-0.72717-0.92431-1.2692-0.75667-1.7974 0.15003-0.47271 0.0386-0.87296-0.29664-1.0659-0.29504-0.16978-0.599-0.64637-0.67623-1.0583-0.0845-0.45048-0.43748-0.74662-0.88488-0.74662-0.494 0-1.2784-0.79017-2.3354-2.3505-0.87544-1.2923-1.5974-2.5579-1.6038-2.8105-7e-3 -0.25261-0.26068-0.78418-0.56311-1.184-0.65561-0.86679-0.70164-1.3349-0.13322-1.3349 0.51316 0 3.1967 2.7231 4.4294 4.4948 0.50162 0.72094 2.0675 2.3799 3.4817 3.6853 1.9003 1.7542 2.7373 2.3002 3.2077 2.094 0.35005-0.15338 1.4332-0.24351 2.4058-0.20111 1.2861 0.05606 2.4975-0.24399 4.4445-1.0986 3.8021-1.6688 7.876-1.8357 10.827-0.44244 1.1329 0.53485 2.614 1.4471 3.2906 2.0262 0.67661 0.57908 1.434 1.0748 1.6843 1.1011 0.25031 0.02628 0.87772 0.09333 1.3927 0.14832 1.0423 0.1113 3.832-1.7768 4.4445-3.0066 0.49922-1.0025 0.54199-0.02801 0.0704 1.6164-0.29714 1.036-0.23176 1.357 0.41227 2.001 0.76249 0.76248 1.2025 0.77298 3.6124 0.08799 0.79814-0.22686 0.84056-0.16411 0.56563 0.8346-0.16334 0.59327-0.30039 1.8383-0.30167 2.7652-3e-3 1.5932 0.0579 1.69 1.1136 1.81 2.1263 0.24159 3.6686-0.53301 4.8769-2.456 0.99885-1.5896 1.1144-2.0709 1.0357-4.3314-0.14111-4.0589-1.2107-5.1455-2.6974-2.7401-0.4324 0.69963-1.2115 1.551-1.7295 1.8904l-0.94017 0.6159 0.2363-2.358c0.21905-2.1726 0.16815-2.4238-0.67372-3.2077l-0.91504-0.84968-1.7471 0.97538c-0.96057 0.53688-1.7434 0.83576-1.7421 0.66366 1e-3 -0.1721 0.90888-1.2701 2.0186-2.441 1.9023-2.007 7.0966-5.1685 7.6245-4.6406 0.11411 0.11411-0.0845 0.85772-0.44244 1.6516-0.91072 2.0196-0.68176 3.5874 0.54551 3.7306 0.61163 0.07135 1.2303-0.19485 1.7421-0.74913 0.9839-1.0656 2.3655-3.5193 2.3655-4.2007 0-0.27917 0.25288-0.9887 0.56059-1.5787 0.72685-1.3937 0.7126-3.2547-0.0327-4.6959-0.5442-1.0524-0.71837-1.1322-2.0563-0.95275-0.80406 0.10785-1.962 0.61862-2.5742 1.1337-1.3297 1.1189-6.5015 3.63-7.4762 3.63-0.37888 0-0.88403 0.23412-1.1237 0.52288-0.23966 0.28877-0.80946 0.62345-1.2645 0.74159-0.45501 0.11814-2.0814 1.4818-3.6149 3.0317-2.3143 2.339-2.9929 2.818-3.987 2.818-0.71913 0-1.2834-0.22328-1.4128-0.56059-0.24546-0.63967-1.2349-0.75992-1.4304-0.17346-0.0841 0.25228-0.70307 0.18678-1.7597-0.18602-1.1487-0.40527-2.5417-0.52805-4.7185-0.41479-2.8425 0.14789-3.4039 0.32074-7.0313 2.1644l-3.9417 2.0035-0.69634-0.77176c-0.38295-0.42546-1.0528-1.0225-1.4882-1.3248-0.43536-0.30228-1.1315-1.1079-1.546-1.7899-2.0384-3.3535-6.9443-7.9337-8.4968-7.9337-0.30263 0-1.0219-0.50007-1.5988-1.1086-1.2158-1.2825-7.0245-3.8766-7.9916-3.5697zm-78.938 14.12c-0.81843-0.16622-1.5864 0.11086-2.2197 0.84717-0.74496 0.86607-0.86907 1.3503-0.74913 2.9563 0.0789 1.0564 0.34661 2.2985 0.59327 2.7577 0.24666 0.45924 0.34589 1.2404 0.22122 1.7371-0.12467 0.49672-0.04419 1.0162 0.17848 1.1539 0.45296 0.27994 0.56698 5.073 0.12066 5.073-0.15644 0-0.47108-0.29644-0.69885-0.66114-0.22776-0.36472-1.1531-1.1578-2.0563-1.7622-0.9032-0.60437-2.7589-2.2454-4.1227-3.6451-1.3638-1.3997-2.7487-2.544-3.0795-2.544-0.70244 0-1.4865 1.1361-2.084 3.0242-0.35494 1.1216-0.29427 1.764 0.37205 3.9342 0.43779 1.4259 0.98468 2.8207 1.2142 3.1021 0.69022 0.84631 1.4504 3.1475 1.5184 4.5928 0.03511 0.74699 0.30615 1.6505 0.60333 2.0086 0.29718 0.35807 0.5816 1.1793 0.63098 1.8251 0.04937 0.6458 0.20183 1.9693 0.33937 2.9387 0.23108 1.6287 0.14281 1.9112-1.1689 3.7431-0.78078 1.0904-1.8125 2.4036-2.2926 2.9186-1.5154 1.6254-3.6512 3.7901-4.5652 4.6255-0.48474 0.44308-1.1068 1.3239-1.3826 1.9583-0.2758 0.63435-0.78476 1.3888-1.1287 1.6742-1.0553 0.87581-3.537 4.9522-3.537 5.8095 0 0.44501-0.48346 1.7177-1.0734 2.8281-0.58996 1.1104-1.1921 2.4388-1.3399 2.9538-0.42508 1.4811-2.1258 4.7775-2.8859 5.5933-0.38126 0.40924-0.69382 0.90765-0.69382 1.1086 0 0.53821-3.3247 4.5579-5.0554 6.1112-2.1829 1.9591-3.7107 5.1989-3.6727 7.7829 0.06413 4.3697 0.66565 5.5358 4.0724 7.8835 1.6644 1.1469 5.6536 2.0715 7.0162 1.6265 0.45381-0.14821 1.0762-0.29894 1.3851-0.33686 2.1301-0.26141 3.7851-0.69637 5.2439-1.3776 0.92693-0.43284 1.9384-0.90163 2.2474-1.0407 0.30898-0.13911 1.0663-0.5145 1.6843-0.8346 0.61795-0.3201 2.1352-0.9597 3.3711-1.4228 3.4462-1.2914 6.2323-2.6561 7.6773-3.7607 2.4601-1.8807 4.7703-2.6531 7.1343-2.3856 1.3294 0.1504 2.4185 0.07908 2.9186-0.18854 0.64631-0.3459 1.094-0.27525 2.353 0.36702 1.5649 0.79836 3.7488 0.86813 5.3319 0.17094 0.62131-0.27363 0.67192-0.1812 0.44495 0.8522-0.20989 0.95561-0.08805 1.3064 0.69634 1.9885 1.4235 1.2377 1.6905 2.551 1.903 9.3239 0.10664 3.3988 0.37915 8.3834 0.60333 11.079 0.29367 3.5293 0.29323 5.3115 0 6.3676-0.22393 0.80653-0.41125 2.8142-0.4173 4.4621-0.0061 1.6479-0.19456 3.6708-0.4173 4.4948-0.22275 0.82394-0.53223 2.7614-0.6888 4.3062-0.15656 1.5449-0.38713 3.0621-0.51031 3.3711-0.32238 0.80862-0.7341 4.7402-0.7265 6.9282 0.01177 3.3988 0.43043 10.297 0.64606 10.646 0.23831 0.38559 1.7579 5.6602 2.4032 8.341 0.23271 0.96662 0.42233 2.3463 0.42233 3.0669s0.17049 1.4168 0.37959 1.546c0.2091 0.12922 0.62841 0.76999 0.93013 1.4254 0.30171 0.65538 0.76152 1.4978 1.0231 1.8703 0.41091 0.58504 0.33665 0.78022-0.55305 1.4354-1.2714 0.93629-1.3386 2.2571-0.20614 4.0649 1.2937 2.0652 1.8945 3.1153 3.2454 5.6688 1.3847 2.6174 4.1613 5.1936 5.5984 5.1936 0.47805 0 1.4397 0.43361 2.1368 0.96533 0.81061 0.61829 2.1508 1.1192 3.718 1.3876 2.2456 0.38465 2.5914 0.35161 4.1378-0.3997 0.92814-0.45092 1.6868-1.0631 1.6868-1.36 0-0.77199-1.0497-1.717-1.908-1.717-0.67634 0-0.69247-0.0789-0.20613-1.0307 0.28945-0.56647 0.64518-1.5779 0.78935-2.2474 0.22448-1.0424 0.1572-1.2167-0.46004-1.2167-0.39641 0-1.0148-0.32591-1.3751-0.72399-0.36025-0.39809-0.85037-0.6525-1.0885-0.56562-0.23812 0.087-0.68651-5e-3 -0.99548-0.20614-0.47461-0.30872-0.40878-0.49792 0.42232-1.2142 1.3574-1.1699 1.5336-1.9532 0.68126-3.0367-0.91516-1.1634-0.91039-1.3155 0.0855-2.3756 1.1259-1.1985 1.7536-1.0855 2.3856 0.42736 0.42804 1.0245 0.81522 1.3459 1.8552 1.541 1.3835 0.25956 1.5705 0.50089 0.90498 1.1664-0.22341 0.22343-0.34797 0.80491-0.27903 1.2921 0.0934 0.65978 0.39807 0.91906 1.1991 1.0106 0.59155 0.0676 1.2586-0.0595 1.4807-0.28156 0.22209-0.22208 0.79602-0.40473 1.277-0.40473 1.5505 0 0.31966 1.3699-2.4359 2.7099-3.0616 1.4888-4.0141 2.7966-2.9186 4.0071 0.86939 0.96066 2.175 0.98882 3.5043 0.0779 0.55812-0.38244 1.4851-0.98013 2.0614-1.3298 0.5763-0.34971 1.3714-1.1658 1.7647-1.8125 0.72205-1.1873 0.91746-1.0819 1.1941 0.64104 0.0745 0.46377 0.5767 0.86709 1.3575 1.091 1.0834 0.31072 1.357 0.2368 2.1896-0.59578 1.1253-1.1253 0.96069-2.1681-0.46505-2.9312-0.72813-0.38983-0.90089-0.71029-0.73657-1.365 0.14675-0.5847-0.0439-1.1123-0.60082-1.6692l-0.81448-0.81701 0.79186-0.59326c0.43541-0.32737 1.1879-0.87548 1.6742-1.2167 1.2896-0.90477 5.2346-6.8681 5.0805-7.6798-0.0782-0.41236-0.51136-0.733-1.0784-0.79941-0.77356-0.0905-1.3181 0.34598-2.9689 2.3806-2.1943 2.7045-6.6566 6.531-7.617 6.531-0.48133 0-0.36415-0.446 0.60333-2.3052 1.0611-2.0392 1.4091-2.387 3.0091-3.0016 1.7106-0.657 5.4925-3.5233 5.4928-4.1629 2.1e-4 -0.32887 1.3095-2.279 2.3354-3.4767 0.9056-1.0573 2.8646-6.515 3.4842-9.711 0.2795-1.4419 0.75559-3.7165 1.0583-5.0554 0.30274-1.3389 0.73769-4.5419 0.96783-7.1167 0.23016-2.5748 0.67932-6.5352 0.998-8.801 0.3187-2.2658 0.55746-5.0826 0.53044-6.2595-0.027-1.1769 0.1422-2.7771 0.37457-3.5571 0.78627-2.6392-0.54978-4.2188-2.627-3.1071-0.87272 0.46707-1.1563 1.763-1.3424 6.1062-0.17277 4.0327-0.36049 5.6292-0.85218 7.25-0.1971 0.64973-0.32345 1.9984-0.27905 2.9965 0.0444 0.99813-0.13808 3.1599-0.40725 4.804-0.26923 1.644-0.39732 3.2808-0.28406 3.6376 0.11325 0.3568-0.0465 1.7091-0.35445 3.0041-0.30795 1.2949-0.63499 2.9442-0.7265 3.6652-0.75694 5.9656-3.3527 11.759-6.5436 14.606-2.7252 2.4312-7.0311 4.4948-9.3817 4.4948-1.3306 0-1.9922 0.19594-2.4837 0.73906-0.76745 0.84802-1.2198 0.69286-1.7069-0.58824-0.26963-0.70917-0.615-0.89996-1.629-0.89996-1.145 0-1.3711-0.1748-2.0463-1.5913-0.65361-1.3712-0.75203-2.2973-0.72148-6.6818 0.0195-2.7993-0.0715-5.263-0.20111-5.4727-0.12958-0.20968-0.0602-0.95284 0.15335-1.6516 0.51535-1.6865 0.44489-9.6768-0.0905-10.322-0.22713-0.27367-0.81854-0.49774-1.3148-0.49774-1.5689 0-1.5079-1.7687 0.13072-3.7708 0.42077-0.5141 2.4204-5.564 3.0292-7.6522 0.12011-0.41197 0.54334-1.2981 0.94018-1.9709 0.52583-0.89141 0.6535-1.5781 0.47512-2.5289-0.21031-1.121-0.39123-1.3047-1.2921-1.3047-0.57669 0-1.3132 0.29564-1.6365 0.65611-0.79761 0.88925-3.0682 5.8007-3.8512 8.3309-0.35059 1.1329-1.1244 2.8072-1.717 3.718-0.64814 0.9962-1.0759 2.1589-1.0759 2.9211 0 1.2151 1.2521 6.3011 2.4234 9.8418 0.40498 1.2243 0.46476 2.0834 0.2187 3.1398-0.2078 0.89215-0.20096 1.8158 0.0176 2.3907 0.2669 0.70198 0.19972 1.1727-0.26395 1.8804-0.50613 0.77245-0.56166 1.3618-0.30418 3.2278 0.17318 1.255 0.32929 3.5512 0.3444 5.1031l0.02765 2.8205 1.815 1.6742 1.815 1.6717-1.081 0.21619c-0.59461 0.11839-1.2397 0.0743-1.4354-0.0955-0.58284-0.50583-1.9837-0.34921-2.6245 0.29161-0.32898 0.32894-0.81587 0.51247-1.0835 0.40975-0.96617-0.37076-3.3877-6.0761-4.4018-10.372-0.55913-2.3688-1.4791-5.5718-2.0438-7.1167-1.6973-4.6434-1.6874-10.79 0.04022-23.218 0.30066-2.1628 0.54663-4.7111 0.54551-5.6612-0.0012-0.95013 0.33651-3.0933 0.75164-4.7612 0.68945-2.7701 0.72076-3.4778 0.362-8.1952-0.21602-2.8405-0.41502-7.6592-0.44244-10.707-0.02741-3.0473-0.16912-5.6152-0.31674-5.7065-0.14762-0.09124-0.38274-1.0679-0.52037-2.1695-0.3194-2.5564-1.9723-4.7462-3.5822-4.7462-0.8201 0-1.0973-0.19475-1.1891-0.83209-0.08779-0.61014-0.61978-1.0234-1.9935-1.546-1.0299-0.39181-2.3214-0.944-2.8708-1.2293-1.3748-0.71377-4.3125-1.0759-4.8945-0.60333-0.26035 0.21138-1.1704 0.39069-2.0211 0.3997-1.5505 0.01633-4.4448 1.2194-8.1901 3.4038-3.9288 2.2914-5.4323 3.0267-6.1791 3.0267-0.79352 0-4.9903 1.9634-5.993 2.803-0.30898 0.2587-1.9667 0.74684-3.6853 1.086-1.7186 0.33915-3.4461 0.79043-3.8387 1.0005-0.41664 0.22297-1.5249 0.27371-2.6597 0.12318-1.5523-0.20592-2.2679-0.5588-3.5571-1.7471-1.5531-1.4316-1.6139-1.5725-1.6139-3.7029 0-1.5353 0.21013-2.5243 0.6888-3.2278 0.37974-0.55812 1.1429-1.7028 1.6943-2.544 0.55147-0.8412 1.2929-1.8591 1.6491-2.26 0.35619-0.40088 0.94787-1.2604 1.3122-1.9105 0.36436-0.65014 0.98852-1.5722 1.3876-2.0488 0.39912-0.4766 1.407-1.6762 2.2398-2.6672 0.8329-0.99096 1.5133-2.0924 1.5133-2.446 0-0.3536 0.23038-0.9738 0.51283-1.3801 0.28244-0.40631 0.96537-2.0022 1.5159-3.5471 0.55048-1.5449 1.5002-3.5115 2.1091-4.3691 0.60897-0.85761 1.1061-1.8295 1.1061-2.1594 0-0.85024 2.1761-4.6008 2.8105-4.8442 0.29096-0.11165 0.95935-0.8857 1.4857-1.7195 0.52634-0.83378 1.1654-1.521 1.4203-1.5284 0.2549-0.0074 0.93791-0.40238 1.5184-0.87734 0.9997-0.818 1.4441-1.3917 3.2881-4.2534 0.52049-0.80776 1.287-1.3639 2.2977-1.6667 1.4382-0.4309 2.7939-1.553 4.6883-3.8814 0.46346-0.56962 0.84214-1.1791 0.84214-1.3525 1e-6 -0.17336 0.25657-0.31423 0.57065-0.31423s0.73669-0.46422 0.93767-1.0307c0.20097-0.56646 0.53318-1.3216 0.73907-1.6793 0.53955-0.9373 0.46487-1.3312-0.29915-1.5737-0.47884-0.15198-0.68592-0.61896-0.71645-1.6164-0.02361-0.77173-0.1387-3.0885-0.25641-5.1484-0.11771-2.0598-0.11118-3.4915 0.01508-3.1825 0.12626 0.30898 1.0503 1.3437 2.0538 2.3002 1.8085 1.7237 2.1529 2.4607 1.4706 3.1474-0.19443 0.19568-0.53857 1.8468-0.76421 3.6677-0.37059 2.9907-0.34236 3.4258 0.28155 4.4948 0.48624 0.83308 0.98482 1.1927 1.6868 1.2192 1.3975 0.05273 2.0144 0.68119 2.7049 2.7602 0.46842 1.4103 0.80314 1.8419 1.5435 1.9834 1.4179 0.27104 1.7097-0.98413 1.5058-6.4983-0.15206-4.1114-0.30661-5.0253-1.1438-6.795-0.53204-1.1246-0.96532-2.2106-0.96532-2.4133s-0.66411-1.1105-1.4756-2.0161c-0.81153-0.90564-1.3987-1.7235-1.3047-1.8175 0.09401-0.09401 0.36963 0.02775 0.61338 0.2715 0.24375 0.24375 0.73991 0.44495 1.1036 0.44495s1.1602 0.46171 1.7698 1.0282c0.60957 0.56646 2.0389 1.788 3.175 2.715 1.1361 0.92693 2.0741 1.8286 2.0865 2.0035 0.01232 0.17494 0.6364 1.3109 1.3851 2.5239 0.87927 1.4245 1.3774 2.705 1.4052 3.6149l0.04274 1.4078h-4.1152l-0.55053 1.5837c-0.54121 1.5576-0.53181 1.5993 0.51534 2.6923 0.6124 0.6392 0.97267 1.3462 0.84968 1.6667-0.29462 0.76776 0.66651 1.4757 1.6013 1.179 0.9915-0.31469 1.7372-1.7784 2.1066-4.1303l0.29412-1.8678 0.29663 1.6667c0.40521 2.2668 1.1055 2.9452 2.353 2.2776 0.86954-0.46536 1.0055-0.42174 1.7899 0.58573 1.7936 2.3038 7.7829 7.3562 11.169 9.4219 0.73135 0.44618 1.8583 1.5343 2.5038 2.4183 2.2871 3.1325 8.4632 9.084 10.397 10.018 1.0299 0.4972 3.512 1.8863 5.5154 3.087 7.7525 4.6464 10.255 5.7511 14.523 6.4204 2.1628 0.33924 6.1232 0.64359 8.801 0.67623 4.8036 0.05856 4.901 0.04481 7.3027-1.1614 1.3389-0.67241 2.9718-1.6269 3.6275-2.1192s1.3058-0.89493 1.4455-0.89493 1.0354-0.63029 1.991-1.4027c3.1779-2.569 4.148-3.1419 4.7537-2.803 0.72348 0.4049 3.1624 5.2215 3.1624 6.2444 0 0.87296 2.0814 7.2946 2.8356 8.7482 0.80796 1.5574 3.9457 4.5745 5.3822 5.176 1.4919 0.62471 5.3298 0.82225 6.7623 0.34691 2.3551-0.78149 6.4883-5.5768 6.9131-8.0217 0.1298-0.74719 0.55527-2.2029 0.94522-3.2328 0.38996-1.0299 0.89134-2.7988 1.1161-3.9317 0.57099-2.8776 1.8091-6.9958 2.6898-8.9518l0.7441-1.6516 2.1292 2.0387c2.5925 2.4826 5.5475 4.9017 6.81 5.5707 0.51496 0.27287 1.1062 0.687 1.3122 0.92258 0.71996 0.82343 3.1376 2.446 3.6451 2.446 0.28152 0 0.67507 0.16476 0.87482 0.36451 0.5025 0.5025 5.2501 2.257 7.1896 2.6571 0.87838 0.18124 1.9231 0.50503 2.3228 0.71896 0.45249 0.24216 3.5964 0.34997 8.3284 0.28909 7.4785-0.0962 7.6324-0.11287 9.5602-1.1262 1.0776-0.56646 2.2861-1.0307 2.6848-1.0307 0.76958 0 3.1111-0.99656 5.2791-2.2449 1.4735-0.84846 5.198-4.0398 6.9181-5.9302 2.0573-2.2609 3.7444-3.9768 5.259-5.347 1.7897-1.6191 3.9549-4.1111 5.5606-6.3978 2.0359-2.8992 7.2966-8.2509 7.9086-8.0469 0.20578 0.0686 0.49933 0.86362 0.6536 1.7672 0.55492 3.2507 3.7258 4.9546 5.6461 3.0342l0.81952-0.81952-0.97537-0.8346c-1.7283-1.4799-2.637-5.8586-1.6944-8.1725 0.28573-0.70143 0.7407-2.4131 1.0106-3.8035 0.26988-1.3904 0.62869-2.5289 0.79689-2.5289 0.34547 0 0.32341-0.19453 0.63601 5.6185 0.22224 4.1326 0.26769 4.312 1.096 4.4294 1.085 0.1538 1.8023-0.43855 2.72-2.2373 0.87754-1.7199 0.88179-1.521-0.0251-2.5666-0.90796-1.0469-1.0322-4.3652-0.22121-5.9176 0.66295-1.269 2.7537-3.2846 3.0744-2.9638 0.13207 0.13207-0.14799 1.1928-0.62092 2.358-0.69032 1.7008-0.77269 2.2571-0.42233 2.818 0.59802 0.95771 0.54687 2.7142-0.1257 4.3238-0.55784 1.3351-0.74392 2.7527-0.362 2.7527 0.10961 0 0.78395-0.24453 1.4983-0.54299 0.90208-0.37691 1.2972-0.78675 1.2972-1.3374 0-0.43602 0.1813-1.1282 0.40222-1.541 0.50549-0.94454 2.2197-9.7936 2.2197-11.458 0-0.97426-0.20815-1.3372-0.97537-1.6868-0.83522-0.38056-1.0522-0.34397-1.4857 0.24887-0.27901 0.38153-0.55902 0.84505-0.62092 1.0307-0.0619 0.18563-0.66005 0.40544-1.3298 0.4902-0.66981 0.08477-1.5893 0.4157-2.0438 0.73404-0.91055 0.63779-1.4078 0.73745-1.4078 0.28155 0-0.55898 3.9296-4.4904 5.0554-5.0579 0.61795-0.3115 1.8413-1.2317 2.7175-2.0438 1.6611-1.5396 4.4333-2.8885 4.7814-2.3253 0.11084 0.17934-0.0685 1.3879-0.39719 2.6848-0.32866 1.2969-0.81804 3.3695-1.0885 4.6054-0.27043 1.2359-0.6814 2.7208-0.91252 3.3007-0.23111 0.57987-0.41981 1.4238-0.41981 1.8753s-0.75703 2.3383-1.6818 4.1906c-2.1273 4.2613-2.2027 5.3707-0.31926 4.6582 0.48484-0.18341 0.90938-0.77208 1.0634-1.4731 0.14102-0.64208 0.83412-2.0436 1.541-3.1147 0.70689-1.0711 1.5572-2.8742 1.8879-4.0071 1.4137-4.8438 2.0005-5.9566 3.3434-6.3274 0.69253-0.19122 1.7801-0.71878 2.4158-1.1715 0.63573-0.45268 1.2227-0.75573 1.3047-0.67372 0.17692 0.17692-0.75907 2.9799-1.463 4.3791-0.60347 1.1993-4.3465 12.127-4.3465 12.69 0 0.56833 1.1667 1.9105 5.254 6.0383 1.9629 1.9824 3.9859 4.1818 4.4948 4.8895 1.6661 2.3167 5.5352 6.5651 6.6391 7.2877 0.59442 0.3891 1.2663 1.0634 1.4907 1.4983 1.1993 2.3239 1.6744 3.5384 1.8502 4.721 0.26144 1.7583 1.4984 5.1372 2.3178 6.3349 0.36499 0.53351 1.1116 2.0239 1.6591 3.3133 0.95306 2.2447 2.3128 4.3801 4.4269 6.9508 0.53872 0.65507 1.4501 2.203 2.0262 3.439 0.57606 1.2359 1.3585 2.6486 1.7371 3.1398 1.0072 1.307 0.85716 1.8147-0.7793 2.6496-1.0501 0.53571-1.5352 1.0621-1.7094 1.8552-0.3379 1.5386 0.33588 3.6941 1.5485 4.9598 0.99653 1.0402 1.0028 1.0804 0.29413 1.6164-0.99792 0.7548-1.5643 0.70583-2.0362-0.17597-0.22047-0.41197-0.66036-0.74913-0.97538-0.74913-0.31504 0-0.98276-0.48827-1.4857-1.086-0.62084-0.73784-1.5361-1.2382-2.8507-1.5536-1.3172-0.316-2.438-0.9251-3.5043-1.908-2.1433-1.9756-3.154-1.9232-4.7084 0.24133-0.66569 0.92693-1.3326 1.6843-1.4832 1.6843-0.80927 0-5.7373-2.6736-6.5285-3.542-1.4214-1.5602-10.121-7.3204-11.056-7.3204-0.23878 0-1.1903-0.77886-2.1167-1.732l-1.6843-1.732-2.1217 0.24636c-1.1666 0.13631-2.7388 0.57003-3.4943 0.96281-1.828 0.9504-5.1903 4.3026-6.2997 6.2821-0.49069 0.87544-1.0135 1.5913-1.1614 1.5913-0.89577 0-1.1124 2.8435-0.88237 11.612 0.13238 5.0466 0.30217 9.6813 0.37708 10.299 0.49887 4.1128 0.97613 11.465 1.1162 17.227 0.0901 3.7077 0.2079 7.1624 0.26144 7.6773 0.0535 0.51497-0.0821 1.7717-0.30166 2.7929-0.25901 1.2045-0.2822 2.5851-0.0628 3.9317 0.18585 1.1416 0.22949 3.8453 0.0955 6.0081-0.13397 2.1628-0.32974 5.2803-0.43489 6.9282-0.11368 1.7807-0.4925 3.6817-0.93264 4.6833-1.2424 2.8272-5.2689 9.7886-5.7743 9.9825-0.26149 0.10034-0.6831 0.68111-0.93515 1.2896-0.43666 1.0542-2.1423 2.5842-2.8809 2.5842-0.19087 0-0.57625-0.42492-0.8547-0.94521-0.47525-0.88797-0.41214-1.0439 1.0206-2.5289 1.9344-2.005 2.2976-3.0724 1.2368-3.6401-0.42964-0.22994-1.1532-0.31394-1.6089-0.18603-0.46071 0.12931-0.64604 0.0969-0.41729-0.0729 0.22628-0.16798 0.51933-1.2448 0.65108-2.3932 0.31744-2.767-0.18323-3.5044-2.1267-3.1398-0.7946 0.14907-1.3398 0.44646-1.2569 0.68628 0.0805 0.23287-0.2505 1.0098-0.73405 1.727-0.48356 0.71727-0.87733 1.6113-0.87733 1.9859-1e-5 1.0276-2.5354 2.0008-3.547 1.3625-0.79533-0.50176-1.6311-0.91858-4.1303-2.0639-0.82394-0.37758-2.2213-1.44-3.1046-2.3605-1.4383-1.499-1.7102-1.6376-2.6069-1.3223-0.70445 0.24773-1.0733 0.70474-1.2444 1.541-0.21213 1.0371-0.06 1.3673 1.2016 2.5993 2.1284 2.0783 1.8382 2.9416-0.66869 1.9884-0.57183-0.21745-1.424-0.29927-1.8954-0.18099-1.211 0.30392-1.1705 2.1729 0.0754 3.4188 0.51401 0.51401 1.5109 1.8334 2.2147 2.9337 1.2911 2.0183 3.4273 3.9618 4.354 3.9618 0.58226 0 2.2348-1.4634 2.2348-1.9784 0-0.19193-0.50576-0.98702-1.1237-1.7672-1.3178-1.6639-1.4197-2.4766-0.35195-2.8155 0.42454-0.13474 0.95755-0.65172 1.184-1.1488 0.44517-0.97703 0.49138-0.99474 1.5888-0.56562 0.48981 0.19153 0.73883 0.6525 0.74913 1.3801 0.0218 1.6267 1.6653 1.714 3.4113 0.18099 0.72027-0.6324 1.6073-1.1513 1.9709-1.1513 0.3636 0 0.85983-0.19869 1.1036-0.44244 0.24375-0.24338 0.53253-0.35486 0.64104-0.24635 0.10847 0.10847-0.81587 1.1479-2.0538 2.3102-1.5778 1.4814-2.2499 2.3909-2.2499 3.0418 0 1.2973 1.0911 1.807 2.4083 1.1237 1.0299-0.53435 1.7119-0.44506 1.7119 0.22372 0 0.19107-0.63279 0.61436-1.4052 0.94019-1.3512 0.56992-2.7062 0.55851-5.083-0.0402-1.6841-0.42422-2.8773 0.42758-2.8708 2.0488 7e-3 1.5394 0.15646 1.8096 1.6365 2.9462 1.5056 1.1563 2.6682 1.047 6.8704-0.64102 4.6095-1.8517 7.5143-3.4381 8.7608-4.7839 2.5287-2.73 7.446-9.9527 7.446-10.938 0-0.16427 0.42016-1.0928 0.93516-2.0614 0.51495-0.96852 0.93761-1.9606 0.94018-2.2072 1e-3 -0.24659 0.23397-0.89384 0.51786-1.4379 0.67494-1.2936 1.1371-7.4706 1.0332-13.806-0.10544-6.4287-0.38501-13.875-0.61087-16.29-0.0963-1.0299-0.13877-2.6327-0.0955-3.5596 0.24659-5.2776-0.22758-14.41-0.84466-16.28-0.30796-0.93309-0.33033-1.6698-0.0729-2.4083 0.36053-1.0342 0.27113-6.4509-0.13575-8.2203-0.11135-0.48418 0.0484-1.5787 0.35445-2.4334 0.30601-0.85472 0.65858-2.4964 0.78433-3.6476 0.20475-1.8744 0.41264-2.2694 1.9885-3.7884 2.6436-2.5483 4.5245-3.6702 6.1615-3.6702 1.1073 0 1.5053 0.18717 1.8075 0.84466 0.43563 0.94782 4.431 3.4693 6.7799 4.2786 1.7238 0.59389 2.3088 1.0106 5.528 3.9442 1.3706 1.249 2.8644 2.2278 3.8462 2.5214 0.88307 0.26413 2.0526 0.80034 2.5993 1.189 0.54679 0.38872 1.1845 0.7064 1.4153 0.7064 0.89536 0 4.5652 1.4777 5.5054 2.2172 0.54418 0.42807 1.2611 0.77788 1.5938 0.77929 0.33269 1e-3 1.1098 0.2664 1.727 0.58825 0.61727 0.32184 1.7973 0.63517 2.622 0.69633 0.82463 0.0612 1.7613 0.22379 2.084 0.362 0.36802 0.15763 1.121-0.1715 2.0186-0.88488 0.78709-0.62549 1.535-1.1363 1.6616-1.1363 0.50755 0 3.7305-3.2981 4.3012-4.4018 1.3474-2.6055 0.42164-10.722-1.4631-12.828-0.46079-0.51496-1.4458-2.1236-2.1896-3.5772-0.74376-1.4536-1.7022-3.0183-2.1292-3.4767-1.4159-1.5199-3.7383-6.0409-4.1101-8.0016-0.20148-1.0625-0.60138-2.1956-0.88991-2.5189-0.90027-1.0087-2.368-4.0297-3.2378-6.6693-0.69734-2.1161-1.3357-3.0885-3.8839-5.9051-1.6772-1.8539-3.3674-3.8743-3.7557-4.4923-0.38828-0.61796-1.3578-1.8116-2.1544-2.6521-0.79654-0.84055-1.7245-1.9376-2.0639-2.4359-0.33931-0.49836-0.93945-1.1591-1.3349-1.4681-1.2658-0.98922-5.1358-4.959-5.1358-5.269 0-0.16462 0.50574-1.6129 1.1237-3.2177 0.61794-1.6048 1.1237-3.2066 1.1237-3.5596s0.1686-0.745 0.37457-0.87231c0.206-0.12731 0.37456-0.57977 0.37456-1.003 0-0.42326 0.32477-1.3802 0.72399-2.1292 3.0397-5.7027 4.3796-11.255 2.9362-12.172-0.74279-0.4721-2.4889 0.35727-3.9694 1.8854-1.0631 1.0973-3.764 2.9153-3.992 2.6873-0.24862-0.24863 0.85588-3.7068 1.4958-4.6833 0.6695-1.0218 0.73807-3.9176 0.10809-4.5476-0.96218-0.96217-4.5897-0.18498-4.9875 1.0684-0.21246 0.66944-3.2365 2.9764-3.9015 2.9764-0.17197 0-0.57781 0.40076-0.89997 0.89242-0.32214 0.49166-1.2256 1.281-2.0086 1.7522-0.78298 0.47114-2.221 1.6266-3.1976 2.5692-0.9767 0.94255-2.1568 2.0715-2.622 2.5063-2.1782 2.036-5.4448 5.7179-6.4304 7.25-1.1104 1.726-1.4612 2.8655-2.1619 7.0489-0.38493 2.2982-0.43677 2.3771-2.1292 3.2353-0.95447 0.48402-2.0561 1.235-2.4485 1.6692s-0.93966 0.79186-1.2167 0.79186c-0.27706 0-0.50529 0.16382-0.50529 0.36451 0 0.20069-0.50127 0.62352-1.1136 0.94018-0.62708 0.32428-1.8847 1.7588-2.8809 3.2856-1.7225 2.6402-8.9877 10.652-10.201 11.25-0.33352 0.16417-1.0155 0.89629-1.5159 1.6265-1.2434 1.8146-3.3558 3.8789-3.9669 3.8789-0.2767 0-0.73511 0.33396-1.0206 0.74159-0.67879 0.96911-3.1583 2.6399-4.5802 3.087-0.61818 0.19437-1.4608 0.49161-1.8728 0.66114-3.4287 1.411-6.1034 1.8594-10.111 1.6918-4.7644-0.19922-6.3033-0.37086-8.5144-0.94772-2.266-0.59118-6.1752-2.1701-7.7502-3.1298-1.7593-1.0719-2.3904-1.4402-5.1836-3.0443-2.3842-1.3692-6.1789-5.0145-8.3535-8.0217-1.074-1.4852-1.1556-1.7783-0.79186-2.808 1.0584-2.9966-1.16-5.4761-2.3505-2.627-0.31727 0.75934-0.57566 1.7532-0.57566 2.2072 0 0.45393-0.82328 2.4983-1.8276 4.5425-1.0043 2.0442-1.9477 4.3068-2.0966 5.0277s-0.50236 1.677-0.78684 2.1267c-0.28448 0.44969-0.75565 1.8839-1.0483 3.1851-0.82916 3.6869-1.6337 6.2894-2.1242 6.8804-0.24677 0.29736-1.0682 0.54048-1.8276 0.54048s-1.7093 0.24811-2.1091 0.55054c-1.0196 0.7712-2.1334 0.70285-2.8859-0.17597-1.2992-1.5173-2.3854-0.88886-4.0423 2.3404-0.502 0.97843-0.99869 1.7798-1.1036 1.7798-0.88376 0-3.7431-7.8003-3.7431-10.211 0-0.84381-2.067-5.0854-2.9538-6.0609-0.38485-0.42342-0.91095-1.4436-1.1689-2.2675-0.25798-0.82394-1.0352-2.7229-1.7295-4.2208-0.69432-1.4979-1.2645-2.8715-1.2645-3.0518 0-0.18032-0.52158-1.3777-1.1589-2.6622-1.3097-2.6396-2.1346-7.2013-2.3605-13.034-0.17089-4.4116-0.67499-6.7841-1.5837-7.4486-0.92783-0.67844-1.6026-0.48593-2.5013 0.71896-0.56904 0.7629-0.65195 1.1367-0.33937 1.5133 0.64013 0.77134 1.2507 5.357 0.98292 7.3757-0.41945 3.162 2.0901 12.989 4.3716 17.122 1.1115 2.0135 1.4313 2.9504 1.2519 3.6652-0.13254 0.52804-0.41052 0.96029-0.61842 0.96029s-1.5802 0.89994-3.0493 2.001c-3.8083 2.8542-8.5706 5.1186-11.488 5.4626-1.3674 0.16123-4.4392 0.0843-7.2625-0.181-4.3821-0.41176-5.2381-0.61498-8.1801-1.9482-1.8069-0.81888-3.5897-1.7648-3.9618-2.1016-0.37211-0.33678-0.7858-0.61338-0.92007-0.61338s-1.1656-0.58877-2.2926-1.3097c-1.127-0.72095-2.1745-1.3097-2.3278-1.3097-0.37429 0-3.0879-1.8547-4.2484-2.9035-0.51276-0.46338-1.4805-0.94495-2.1519-1.0709-0.94182-0.17669-1.607-0.75504-2.9136-2.5289-2.642-3.5869-3.007-4.0321-5.1232-6.2872-1.0927-1.1643-2.4917-2.3704-3.1096-2.6798-0.61795-0.30941-1.4915-0.95986-1.9407-1.443-0.44918-0.4831-1.1186-1.1289-1.4882-1.4379-0.82751-0.69181-4.6264-2.9956-4.9498-3.0015-0.12953-0.0024-0.55336-0.67039-0.9427-1.4832-0.96266-2.0097-2.0398-2.9273-3.5998-3.0719-1.1785-0.10927-1.3521-0.27453-1.7119-1.6214-0.22011-0.82394-0.59879-1.9717-0.84214-2.5516-0.24335-0.57987-0.44244-1.4018-0.44244-1.8276 0-1.8122-4.6942-7.405-8.615-10.264-6.617-4.8253-7.9024-5.8572-9.0197-7.2475-0.83067-1.0337-1.6979-1.6438-2.5164-1.81zm0.4902 6.071c0.22708-0.10187 0.70824 0.19039 1.4078 0.88991l1.1966 1.1966-0.80946 0.56562c-0.44472 0.31149-0.88132 0.94359-0.97035 1.4052-0.12955 0.67176-0.17286 0.6215-0.21368-0.25641-0.02805-0.60333-0.25226-1.654-0.49774-2.3329-0.31528-0.87189-0.3402-1.3662-0.11312-1.4681zm-10.998 6.2344c0.28208 0.02765 0.89552 0.39688 1.6918 1.096 0.70381 0.61795 1.4925 1.1237 1.7547 1.1237 0.26216 0 0.99099 0.73058 1.6189 1.6214 1.1271 1.5991 1.1331 1.6238 0.35445 1.9658-1.0588 0.4651-1.1632 1.9428-0.24133 3.4364 0.9135 1.4801 2.0998 1.6041 2.7024 0.28155 0.31913-0.70041 0.31913-1.1724 0-1.8728-0.5628-1.2352-0.07395-1.1869 1.174 0.11564 1.0045 1.0484 1.0061 1.0522 0.26396 1.7773-2.479 2.4219-3.0288 3.0371-3.2077 3.5948-0.24222 0.75514-1.1836 1.1728-1.4983 0.66366-0.12567-0.20333-0.28915-0.91308-0.36451-1.5762-0.39391-3.4661-0.98537-5.5952-2.0237-7.2826-0.63332-1.0293-1.1539-2.1235-1.1539-2.4334 0-0.30991-0.34735-1.0083-0.77427-1.551-0.52938-0.673-0.57871-0.98794-0.29664-0.96029zm142.35 7.6723c-0.24886 0.03715-0.51946 0.2158-0.95778 0.56059-0.92387 0.72668-0.99549 0.9912-0.99549 3.6778 0 1.6797-0.18018 3.0736-0.42987 3.3233-0.32391 0.32391-0.27405 0.67357 0.20865 1.4103 0.35717 0.54513 0.9173 0.92612 1.262 0.85974 2.3287-0.44847 3.7384-8.211 1.7321-9.5351-0.34523-0.22782-0.57066-0.33378-0.81952-0.29664zm-29.352 7.7502c-0.72209-0.0059-1.4451 0.47047-1.815 1.5913-0.50341 1.5253-1.6372 2.0154-2.6169 1.1287-0.98296-0.88956-2.3502-0.58878-2.7703 0.61087-0.37947 1.0836 0.61069 3.4679 2.1167 5.0956 0.95843 1.0359 1.4008 1.047 3.2856 0.08547 1.6274-0.83026 3.3009-3.1399 3.7658-5.2012 0.43945-1.9485-0.76235-3.3009-1.9658-3.3107zm20.832 1.9382c-0.33805 0.14102-0.60911 0.45948-1.0659 1.0583-1.4907 1.9544-1.2625 3.2676 1.0131 5.8045 0.56214 0.6267 1.1697 0.84214 2.3706 0.84214 1.4541 0 1.7053-0.13798 2.5264-1.4027 0.50151-0.77244 1.1263-2.1401 1.3876-3.0367 0.45331-1.5555 0.43299-1.6612-0.43741-2.3178-0.50176-0.37847-1.3346-0.69242-1.8502-0.69885-0.51563-0.0064-1.6334-0.11575-2.4837-0.24384-0.71906-0.10833-1.1225-0.14605-1.4605-5e-3zm-128 16.275c-2.2528 0.22375-4.5959 1.2767-5.5632 2.6672-1.0971 1.5772-0.99892 2.9046 0.23882 3.2152 0.67526 0.16948 0.86742 0.45698 0.817 1.2192-0.05981 0.9042 0.07263 1.0063 1.4203 1.1162 0.81672 0.06657 1.9112 0.44395 2.4334 0.83963 0.52218 0.39568 1.296 0.64118 1.7195 0.54551 0.98466-0.22244 3.4963-2.6103 4.5601-4.3364 1.5144-2.4572 0.14739-4.5141-3.4566-5.1961-0.67649-0.12803-1.4185-0.14497-2.1695-0.07039zm122.95 1.1689c-0.20599 0-0.37457 0.16858-0.37457 0.37456 0 0.20599 0.16858 0.37456 0.37457 0.37456 0.20598 0 0.37455-0.16858 0.37455-0.37456 0-0.20598-0.16857-0.37456-0.37455-0.37456zm115.53 5.6788c-0.32104 0.04173-0.69602 0.13748-1.1514 0.28155-0.5972 0.18895-1.5202 0.43797-2.0513 0.55305-2.5484 0.55217-2.332 5.0699 0.34691 7.25 0.7652 0.62269 1.6104 0.59086 3.4138-0.13072 2.9354-1.1745 3.4836-3.5052 1.5586-6.6114-0.67923-1.0961-1.1535-1.4676-2.1167-1.3424zm-141.22 44.246c-1.9443-0.11838-3.3109 2.64-3.6149 7.4863-0.12319 1.9632-0.42132 3.251-0.96532 4.173-1.592 2.6983-2.7718 17.764-1.7396 22.215 0.30569 1.318 0.53051 3.6054 0.50026 5.083-0.0418 2.0427 0.13495 3.0902 0.73907 4.3716 0.437 0.92694 0.80292 2.4441 0.8145 3.3711 0.0112 0.92692 0.34809 2.6127 0.74661 3.7456 0.39852 1.1329 0.73013 2.4435 0.73656 2.9136 8e-3 0.53554 0.32673 0.9746 0.85471 1.174 0.49665 0.1875 1.1339 0.16612 1.551-0.0528 0.6322-0.3318 0.68301-0.67694 0.48267-3.2328-0.12336-1.5737-0.59069-4.5466-1.0382-6.6064-0.44753-2.0599-0.92897-5.5222-1.0684-7.6924-0.13942-2.1702-0.36235-4.1249-0.49774-4.344-0.29941-0.48443-0.35492-8.7235-0.0729-10.81 0.11138-0.82393 0.34951-2.6805 0.53042-4.1252 0.30235-2.4143 0.60765-3.4981 1.5963-5.6512 0.32949-0.71753 1.5233-6.5582 2.0362-9.97 0.18382-1.2227 0.0932-1.4477-0.72399-1.82-0.29987-0.13663-0.58953-0.21185-0.86729-0.22876zm-56.637 1.5787c-0.7809 0.21097-1.3396 1.1268-1.5812 2.6446-0.23979 1.5063-0.17892 1.9282 0.32931 2.3228 0.87872 0.68222 1.9367 0.42303 2.725-0.66868 1.4303-1.9808 1.1742-3.7413-0.62092-4.271-0.30591-0.0903-0.5919-0.098-0.8522-0.0277zm97.032 1.5435c-0.4511 0.11797-0.9233 0.53645-1.0483 0.93013-0.27765 0.8748 0.77886 7.9838 1.6064 10.812 0.33147 1.1329 0.70104 3.2604 0.82203 4.726 0.12106 1.4656 0.43217 2.9206 0.69131 3.2328 1.2119 1.4602 2.1309 7.8687 2.0262 14.138-0.0697 4.1706-0.47192 6.5368-1.6164 9.5074-0.38754 1.0059-0.70389 2.1118-0.70389 2.456 0 0.34417-0.50572 1.4213-1.1237 2.3957-0.61795 0.97441-1.1298 2.06-1.1363 2.4133-0.0154 0.82757-0.66326 1.6542-1.9608 2.4988-0.56959 0.37073-0.99083 0.86179-0.93768 1.0935 0.0532 0.23176-0.0719 0.42234-0.27652 0.42234-0.20458 0-0.37206-0.33717-0.37206-0.74913 0-0.87819-0.45643-1.6868-0.95525-1.6868-0.19325 0-0.98415 0.55231-1.7572 1.2268-1.3833 1.2068-3.8205 2.5189-4.6783 2.5189-0.2408 0 0.14862-0.63029 0.86476-1.4027 1.6233-1.7509 2.9689-3.6748 2.9689-4.2409 0-0.99908-1.7427-4.1212-2.4208-4.3364-1.3181-0.41836-3.6172-0.24657-4.1755 0.31172-0.29984 0.29984-0.64484 1.1597-0.76673 1.9105-0.19436 1.1977-0.10702 1.4183 0.71394 1.7924 0.70739 0.32233 1.1398 0.31585 1.7723-0.0226 0.63609-0.34006 0.9391-0.3414 1.2645-0.0101 0.32219 0.32811 0.21067 0.61244-0.45501 1.1564-0.48629 0.39734-1.1346 0.72399-1.4404 0.72399-0.78784 0-2.5165 1.3011-3.2831 2.4711-0.51496 0.78592-0.56499 1.1755-0.24384 1.8804 0.22302 0.48947 0.66198 0.88989 0.97537 0.88989 0.73332 0 0.72723 0.52733-0.0126 1.1413-0.35359 0.29347-0.53618 0.93317-0.46758 1.6365 0.1354 1.3876 1.449 1.7752 2.5717 0.75918 0.5893-0.5333 0.80898-0.55934 1.2921-0.15837 0.49531 0.41107 0.77274 0.27771 1.8376-0.88488 0.99236-1.0834 1.5298-1.37 2.5843-1.37 0.73249 0 1.4207 0.14247 1.5284 0.31674 0.21538 0.3485-2.5735 2.3052-3.2856 2.3052-0.24466 0-0.86106 0.29206-1.37 0.64856-0.72695 0.50918-1.7373 0.64969-4.7084 0.65612-3.9148 8e-3 -5.0324 0.37474-5.0076 1.6441 0.0173 0.88684 0.9684 2.0065 2.1468 2.529 1.3129 0.58204 1.3587 0.58394 2.4912 0.15335 0.52317-0.19891 2.3006-0.53205 3.9518-0.73908 3.9167-0.49112 5.6608-1.3363 8.6753-4.2107 2.2558-2.151 3.5728-4.084 5.6989-8.3586 0.40983-0.82392 0.91877-1.7246 1.1312-2.001 0.21246-0.27646 1.2198-2.7196 2.2373-5.4299l1.8502-4.9272 0.16842-5.807c0.19779-6.7722-0.26316-11.636-1.4228-15.008-0.4553-1.3239-0.79626-3.0379-0.7592-3.8085 0.0371-0.7706-0.13297-1.7737-0.37708-2.2298-0.24411-0.45612-0.58623-2.2254-0.75918-3.9317-0.17296-1.7063-0.46976-3.398-0.66114-3.7607s-0.53948-1.6062-0.77175-2.7627c-0.48785-2.4291-1.6384-3.7957-2.9161-3.4616zm-29.379 3.1649c-0.47812 8e-3 -0.97318 0.25926-1.4656 0.75165-0.54966 0.54958-0.72705 1.0825-0.59076 1.7773 0.10718 0.54629 0.0395 1.7528-0.15083 2.6798-0.19037 0.92693-0.42984 2.6127-0.53293 3.7456-0.31972 3.5141-0.58458 5.3472-1.1061 7.6773-0.27662 1.2359-0.52777 3.2442-0.56059 4.4646-0.0329 1.2205-0.22084 2.516-0.41478 2.8784-0.46507 0.86888-0.44685 5.3941 0.0352 9.2384 0.32037 2.555 0.76348 3.8512 2.6044 7.6245 1.22 2.5006 2.5343 4.9014 2.9211 5.3369 0.69208 0.77915 2.3278 3.47 2.3278 3.8286 0 0.44324-3.0051-2.2835-3.2026-2.906-0.2662-0.83872-1.4196-1.5107-2.1267-1.2393-0.2833 0.10872-0.79604 0.6717-1.1388 1.2519-0.60659 1.0269-0.59405 1.0944 0.50529 2.5893 0.62115 0.84462 1.67 1.8695 2.3304 2.2776 1.1132 0.68801 2.4693 3.0418 1.7522 3.0418-0.97249 0-2.5926-0.96937-3.7884-2.2675-1.5807-1.716-2.3156-1.8406-3.1675-0.54048-0.74145 1.1316-1.1468 1.1823-1.4631 0.18603-0.33689-1.0615-1.4842-0.92807-2.0136 0.23379-0.81657 1.7922 1.2 3.584 3.3887 3.0116 0.57773-0.15109 1.2532 0.18892 2.4208 1.2167 1.0702 0.94207 2.6082 1.7576 4.53 2.4007 1.6 0.53539 3.2457 0.87411 3.6577 0.75416 1.9699-0.57337 2.2666-2.0519 0.58573-2.9211-1.6772-0.86729-1.6704-1.2509 0.0151-0.94271 1.2743 0.23301 1.6309 0.15161 2.2499-0.51282 1.1607-1.2459 0.75984-2.1161-1.3525-2.9312-1.6395-0.63261-3.0341-1.7045-2.6798-2.0588 0.1765-0.1765 3.7447 1.0459 4.1604 1.4254 0.58649 0.53531 2.7302 0.36685 3.361-0.26395 1.1805-1.1805 0.4426-2.4496-1.8452-3.1725-2.49-0.78675-4.0966-2.0317-5.1182-3.9669-0.52901-1.002-1.8935-3.5451-3.0317-5.6512-2.4852-4.5986-2.8054-6.1196-2.3781-11.297 0.10863-1.3161 0.23011-4.4204 0.26898-6.898 0.0519-3.3115 0.25421-5.0075 0.76421-6.4028 0.38157-1.0439 0.69382-2.4369 0.69382-3.0971s0.18332-1.3146 0.40725-1.453c0.22397-0.1384 0.31139-0.61058 0.19609-1.0508-0.11532-0.44023 0.0616-2.2799 0.39215-4.0875 0.5689-3.1113 0.5656-3.3272-0.0679-4.0272-0.43196-0.47731-0.89445-0.71167-1.3726-0.70388zm-64.719 0.0981c-0.51478 0.0218-1.2799 0.49752-1.8954 1.2368-0.77697 0.93318-1.9744 4.4943-1.6742 4.98 0.77062 1.2469 2.6279-0.59528 3.6149-3.5873 0.42352-1.2838 0.57367-2.2921 0.37206-2.4938-0.10081-0.1008-0.24571-0.14302-0.41731-0.13574zm82.666 0.39719c-0.41778 0.099-0.77911 0.44419-1.1815 1.0583-0.52459 0.80074-0.51266 1.047 0.12319 2.7351 0.38437 1.0204 0.80889 2.6151 0.94521 3.542 0.50837 3.4568 1.1095 5.4702 2.1242 7.1192 1.3224 2.1492 1.9328 4.8528 1.6441 7.2776-0.1561 1.3113 4e-3 2.775 0.52037 4.7612 0.68633 2.6414 0.70684 3.1606 0.26396 6.5662-0.2645 2.0339-0.67531 4.0616-0.91252 4.5048-0.46578 0.8703-0.58841 3.5695-0.18101 3.9769 0.40912 0.40912 1.5034 0.28357 1.908-0.2187 0.20743-0.25749 0.49492-1.0178 0.63853-1.6893 0.1436-0.67152 0.51477-1.7295 0.82453-2.3505 0.30978-0.62094 0.73685-2.3478 0.95024-3.8362 0.21339-1.4883 0.53799-2.8662 0.71897-3.0619 0.51277-0.55444 0.38653-2.6289-0.23128-3.8135-0.37216-0.71359-0.56292-2.2023-0.57064-4.4445-0.0154-4.6141-1.0801-9.3343-2.3756-10.536-0.54402-0.50444-1.0102-1.1209-1.0357-1.37-0.0255-0.24915-0.10072-1.2954-0.16843-2.3253-0.0677-1.0299-0.41217-2.9909-0.76421-4.3565-0.51357-1.9924-0.85344-2.6092-1.722-3.1222-0.62665-0.37016-1.1006-0.51634-1.5184-0.41729zm48.995 3.6928c-0.65568-2e-3 -1.3505 0.35893-1.7396 1.086-0.22487 0.4202-0.48719 3.0623-0.58321 5.8724-0.096 2.8101-0.3131 5.9285-0.48266 6.9282-0.20794 1.2261-0.15117 2.4206 0.17848 3.6702 0.27945 1.0596 0.40156 2.703 0.28407 3.8412-0.13212 1.2801-0.055 2.0848 0.21619 2.2524 0.23266 0.14379 0.42233 1.2156 0.42233 2.3932 0 1.5566 0.35779 3.046 1.3223 5.5028 1.5746 4.0108 3.715 8.3188 4.6506 9.3591 0.37055 0.41197 0.87686 1.1462 1.1262 1.629 0.24933 0.48285 1.1768 1.196 2.0588 1.5862 0.88211 0.39019 1.8155 0.96314 2.0739 1.2745 0.29787 0.35893 1.116 0.56813 2.2373 0.56813 1.293 0 1.9504 0.20152 2.446 0.74913 0.82372 0.91027 0.85282 0.91065 2.4887 0.093 1.8025-0.9009 3.3168-2.1608 3.3283-2.7703 6e-3 -0.27934 0.50678-1.0966 1.1136-1.8175 0.99031-1.1764 1.1046-1.2266 1.1136-0.4902 0.0228 1.8599 2.3913 1.5305 3.2177-0.44746 0.81965-1.9617 0.70606-2.808-0.37708-2.808-0.5028 0-1.0279 0.18304-1.1664 0.40724-0.15467 0.25028-0.41745 0.0853-0.67873-0.42986-0.23407-0.46148-0.71215-1.02-1.0634-1.2393-0.83136-0.51913-2.2793 0.78632-3.4792 3.1348-0.4736 0.92692-1.4102 2.0882-2.0815 2.5817-1.171 0.86098-1.2418 0.86879-1.7245 0.20865-0.27668-0.37839-0.50276-0.8024-0.50276-0.94269 0-0.14028-0.65001-0.3584-1.443-0.48517-0.79296-0.12681-1.8713-0.56842-2.3982-0.98292s-1.1354-0.75416-1.3499-0.75416c-0.47394 0-2.0887-2.0762-3.2881-4.2258-2.5442-4.5597-3.8101-8.0357-4.0674-11.164-0.0916-1.1135-0.28967-3.2062-0.43993-4.6481-0.36268-3.4805-0.35926-6.8083 0.0176-12.972 0.1717-2.8084 0.20518-5.4455 0.0729-5.8623-0.23151-0.7294-0.84761-1.0961-1.5033-1.0986zm25.551 1.7748c-1.7436-0.01-2.2744 1.3029-1.996 4.9448 0.13044 1.7064 0.0969 3.5904-0.0754 4.1881-0.34696 1.2037 0.10066 4.2504 0.89493 6.086 0.28085 0.64908 0.51031 1.4375 0.51031 1.7522s0.26707 0.83772 0.59077 1.1614c0.73964 0.73952 1.0784 0.73911 1.82-3e-3 1.1726-1.1726 1.426-2.0333 0.9427-3.2002-0.32929-0.79497-0.38394-2.5536-0.19608-6.35 0.34331-6.9378-0.12839-8.5665-2.4912-8.5798zm-39.772 3.7406c-1.7147 0-2.5551 1.0709-2.7577 3.5144-0.17327 2.0893 0.0852 2.7765 3.2781 8.7407 0.57605 1.076 1.163 2.7301 1.3047 3.6753 0.14174 0.94521 0.58703 2.2776 0.99045 2.9613 0.78352 1.328 1.9894 6.3967 1.6516 6.9433-0.11147 0.18036-0.0182 0.44299 0.20866 0.58322 0.27206 0.16817 0.32863 0.98971 0.16339 2.4133-0.20103 1.7324-0.10836 2.4452 0.4701 3.6099 1.5659 3.153 2.6304 4.8829 3.8362 6.2268 1.5741 1.7545 3.112 1.8894 4.7059 0.41227l1.0709-0.99298-1.2896-0.97287c-0.70989-0.53552-1.9986-1.6177-2.8633-2.4032-1.9003-1.7263-2.3657-3.4085-2.5842-9.349-0.0822-2.233-0.35596-4.409-0.61338-4.8694-0.69489-1.2428-1.3866-4.0139-1.4052-5.6285-0.0147-1.2665-0.75972-3.1245-3.6702-9.158-0.46779-0.96974-0.5082-1.4905-0.19104-2.5239 0.53933-1.7574-0.49287-3.1825-2.3052-3.1825zm-87.422 15.827c-0.26283 0.0238-0.4812 0.1656-0.78432 0.43993-0.56368 0.51013-0.6387 0.86635-0.37959 1.7698 0.32405 1.13 0.11627 3.1644-0.39468 3.8713-0.14887 0.20599-0.38638 1.1319-0.52791 2.0588-0.14153 0.92694-0.4736 2.024-0.73657 2.4359-0.26295 0.41198-0.86043 1.9292-1.3298 3.3711-1.6206 4.9783-3.8931 8.5848-6.7673 10.747-1.9048 1.4328-2.3595 2.8866-1.2796 4.08 0.35635 0.39375 0.80362 0.71394 0.9955 0.71394 0.71606 0 5.2739-4.7367 5.9453-6.1791 0.38351-0.82394 0.90539-1.8354 1.1614-2.2474 1.9388-3.1199 2.6308-4.4636 3.4716-6.7497 0.52835-1.4366 1.2926-3.2254 1.6994-3.9744 0.40672-0.74898 0.74159-1.859 0.74159-2.4661 0-0.60705 0.1881-2.0464 0.41981-3.2002 0.54502-2.7138 0.25467-3.805-1.174-4.3967-0.48891-0.20251-0.79802-0.29783-1.0608-0.27401zm128.43 4.0222c-1.7792 0-2.1514 0.43505-2.3932 2.808-0.10492 1.0299-0.30482 2.7635-0.44496 3.8537-0.17248 1.3418-0.10799 2.1595 0.1986 2.529 0.24912 0.30017 0.64255 0.53937 0.87482 0.53294 0.51648-0.0146 1.732-0.90514 1.732-1.2695 0-0.14552 0.40738-0.80233 0.90499-1.458 1.1615-1.5306 1.5146-3.4747 0.98543-5.44-0.39958-1.484-0.48807-1.5561-1.8577-1.5561zm-115.55 15.87c-0.28529 0.10847-0.4554 0.36946-0.71393 0.85974-0.30704 0.58229-1.3074 1.758-2.2248 2.6119-2.4765 2.3051-3.6342 5.129-3.811 9.2988-0.22005 5.188-0.46481 6.9104-1.1287 7.9237-0.87877 1.3412-0.61278 2.5717 0.55807 2.5717 1.1466 0 1.4812 0.41475 1.5083 1.8728 0.0127 0.68061 0.45731 1.6354 1.1287 2.4208 0.60958 0.71317 1.1103 1.5561 1.1111 1.8728 7.7e-4 0.31675 0.3293 1.1151 0.73153 1.7748 0.70407 1.1547 1.0465 2.2292 2.6546 8.351 0.40584 1.5449 1.0056 3.4823 1.3324 4.3062 0.32672 0.82395 0.74747 2.4639 0.93766 3.6426 0.19021 1.1787 0.69748 2.7374 1.1262 3.4641 2.0763 3.5191 5.254-0.51673 3.3233-4.2208-0.45384-0.87069-1.1297-3.1399-1.5008-5.0428-0.58555-3.0028-2.1232-8.1991-3.3007-11.151-1.7062-4.278-2.0762-5.1107-2.4862-5.6034-0.25711-0.30898-0.69085-1.489-0.96532-2.622-0.62395-2.5752-0.71018-10.914-0.12067-11.647 0.23227-0.28872 0.54631-0.9481 0.69884-1.4631 0.5018-1.6937 1.2931-2.2474 3.2127-2.2474 3.1573 0 5.1228-1.8195 4.1856-3.8764-0.54418-1.1943-3.0267-2.7537-4.8442-3.0443-0.72577-0.11602-1.1275-0.16127-1.4128-0.0528zm66.225 4.354c-1.8846-3e-3 -2.067 2.2848-0.31172 3.9116 0.50663 0.46953 0.92259 1.0198 0.92259 1.2217 0 0.20194 0.32453 0.66137 0.72147 1.0206 0.39696 0.35924 0.83155 1.3021 0.96532 2.094 0.41953 2.4831 0.33445 8.7514-0.13072 9.6205-0.24044 0.44929-0.68787 2.1209-0.99297 3.7155-0.30508 1.5946-0.72413 3.0696-0.93264 3.2781-0.20851 0.2085-0.37959 0.66003-0.37959 1.003 0 0.34298-0.33715 1.0525-0.74912 1.5762-0.41198 0.52373-0.74915 1.2795-0.74915 1.6792 0 0.39975-0.67024 1.8891-1.4882 3.3108-0.81793 1.4216-2.0599 3.7151-2.7602 5.0956-0.70028 1.3805-1.7057 3.0238-2.2348 3.6526-1.1688 1.3891-1.6419 4.0461-1.0608 5.9528 0.25975 0.85231 1.5101 2.5069 3.3233 4.3942 1.5997 1.665 4.9315 5.304 7.4033 8.0871s5.0633 5.4583 5.7567 5.9453c0.69346 0.48701 1.4343 1.2708 1.6491 1.7421 0.22563 0.49521 0.92393 1.0057 1.6516 1.2067 1.3963 0.38553 6.3595 4.995 7.6924 7.1444 3.4519 5.5662 13.731 18.015 15.5 18.771 0.18276 0.0781 1.0917 1.1444 2.0186 2.3706 0.92694 1.2262 4.4231 4.9778 7.7703 8.336 3.3473 3.3582 6.0861 6.2746 6.0861 6.4807 0 0.20616 0.43967 0.75209 0.97537 1.2142 2.2563 1.9463 9.5124 15.153 9.5124 17.313 0 0.32851 0.33714 1.2589 0.74913 2.0664 0.41195 0.80753 0.74914 1.748 0.74914 2.089s0.24442 1.4009 0.54549 2.3555c1.2148 3.8515 1.6064 8.5585 1.0935 13.158-0.26415 2.3688-0.48745 5.4163-0.49774 6.7723-0.01 1.356-0.20822 3.4114-0.43992 4.5652-0.48548 2.4175-0.23632 3.8902 0.70137 4.1353 0.36034 0.0942 0.70926 0.18975 0.77426 0.21369 0.065 0.0239 0.4437-0.13118 0.84215-0.3444 0.55775-0.29851 0.72516-0.79226 0.72902-2.1519 2e-3 -0.97115 0.26465-2.6932 0.5807-3.8261 0.76458-2.7408 1.166-16.059 0.52036-17.265-0.24436-0.45658-0.48637-1.6886-0.53796-2.7376-0.19535-3.9758-0.95933-7.5456-2.0689-9.6834-0.61629-1.1874-1.1187-2.5207-1.1187-2.9613 0-0.44067-0.5913-1.8557-1.3122-3.1448-0.72096-1.2892-1.3097-2.6272-1.3097-2.9739 0-0.34671-0.31579-1.0772-0.70136-1.624-0.38555-0.54675-1.1567-1.8996-1.7144-3.0066-0.55779-1.107-1.5747-2.5411-2.2574-3.1851-0.6827-0.64391-1.4678-1.6244-1.7471-2.1795-0.27931-0.55514-3.1435-3.7582-6.3651-7.1167-10.096-10.526-12.568-13.176-14.621-15.679-1.0963-1.3371-2.3914-2.8463-2.8758-3.356-0.48446-0.50972-1.3263-1.5164-1.8703-2.2373-0.54398-0.72095-1.7532-2.2481-2.6898-3.3912-0.93661-1.1431-2.5084-3.2871-3.4917-4.7663-0.98337-1.4792-1.9464-2.7868-2.1393-2.906-0.19285-0.1192-0.34942-0.36894-0.34942-0.55305 0-0.63313 3.8578 0.12298 6.0534 1.1865 1.2091 0.5857 2.4211 1.0659 2.6948 1.0659 0.27377 0 0.79277 0.32525 1.1514 0.72148 0.75699 0.83646 3.994 2.4336 5.6788 2.803 0.63827 0.13989 1.7263 0.83711 2.4158 1.5485 0.7427 0.76629 1.6177 1.2946 2.1494 1.2946 0.49356 0 1.3265 0.33716 1.8502 0.74913s1.2569 0.74912 1.629 0.74912c0.37204 0 0.78021 0.16859 0.90751 0.37457 0.1273 0.20599 0.68503 0.37344 1.2393 0.37456 0.5543 1e-3 1.4497 0.29673 1.9885 0.65612 2.008 1.3395 3.916 2.6999 4.8241 3.4364 0.51497 0.41767 1.0705 0.76158 1.2343 0.76673 0.16378 5e-3 1.5643 0.86348 3.1122 1.908 4.1372 2.7918 11.682 6.4608 14.568 7.0866 3.2418 0.70284 4.9304 1.2939 6.35 2.2197 2.1716 1.4162 5.3809 4.8336 6.3877 6.8 1.2633 2.4674 6.6837 7.9001 7.5592 7.5768 0.87772-0.32421 1.2254-0.85672 1.2318-1.8954 4e-3 -0.52668-0.21962-0.84215-0.59579-0.84215-0.36742 0-0.52242-0.20671-0.39718-0.53293 0.1128-0.29392-0.044-0.74205-0.34942-0.99549-0.79743-0.66183-4.4085-5.8736-5.3244-7.6849-0.68447-1.3536-3.1671-4.141-4.6381-5.2062-0.28447-0.20598-0.87726-0.68208-1.3173-1.0608-0.43999-0.37876-1.3592-0.83093-2.0438-1.003-3.0395-0.76413-10.365-3.5068-13.962-5.2288-2.1612-1.0347-3.995-1.8829-4.075-1.8829-0.0799 0-0.7983-0.61759-1.5988-1.3726-0.80054-0.75497-2.1389-1.673-2.9714-2.0412-0.83244-0.36824-2.1921-1.315-3.0217-2.1041-0.95944-0.91268-2.2472-1.656-3.542-2.0438-3.4689-1.0388-4.9449-1.677-7.7653-3.3585-7.0356-4.1948-11.604-6.5001-14.683-7.4109-1.5449-0.45684-3.3608-1.0708-4.0372-1.3625-0.67644-0.2917-1.4667-0.53043-1.7547-0.53043-0.73496 0-2.0714-1.994-2.0714-3.0895 0-1.1312-0.93156-1.9889-2.5264-2.3278-1.0782-0.22915-1.2573-0.14683-1.5913 0.73153-0.20702 0.5445-0.37708 1.5488-0.37708 2.2323 0 1.7648-1.3101 2.0995-2.1871 0.55807-0.34252-0.60207-0.93475-1.0973-1.3172-1.0986-0.80641-3e-3 -4.3989-3.6507-7.9212-8.0469-0.82279-1.0269-2.2946-2.679-3.273-3.6702-0.97844-0.99123-1.7798-1.936-1.7798-2.0991 0-0.16312-0.42612-0.48999-0.94522-0.72651-1.8799-0.85654-1.8325-1.9163 0.26396-5.9453 9.0633-17.418 9.1239-17.58 10.206-26.886 0.645-5.5455 0.31636-7.4212-1.898-10.789-1.6989-2.5843-3.4248-4.0045-4.8668-4.0071zm-112.14 3.7432c-0.21815 0-0.29071 0.16857-0.1634 0.37455 0.1273 0.20599 0.30634 0.37457 0.39719 0.37457 0.0908 0 0.1634-0.16858 0.1634-0.37457 0-0.20598-0.17905-0.37455-0.39719-0.37455zm-8.9016 0.74912c0.29141 0 1.533 0.92217 2.7602 2.0488 1.6862 1.548 2.0492 2.0476 1.4832 2.0438-0.70572-4e-3 -3.1817-1.9939-4.2761-3.4365-0.41698-0.54961-0.41165-0.65611 0.03268-0.65611zm36.72 0.41478c-0.48493 0.033-0.94392 0.28893-1.4606 0.77428-1.1178 1.05-1.0921 1.575 0.12067 2.5289 1.3224 1.0402 2.5333 0.98697 3.2756-0.14581 0.83451-1.2736 0.76089-1.8857-0.31674-2.5918-0.62245-0.40785-1.134-0.59862-1.6189-0.56563zm4.8869 4.8694c-0.4042 0.0199-0.9135 0.32476-1.4606 0.91504-1.0416 1.1239-1.1092 1.7641-0.27652 2.5968 1.3961 1.3961 3.1144-0.41542 2.5717-2.7099-0.13172-0.5569-0.4304-0.82179-0.8346-0.80191zm-38.444 2.4435c0.25969 0.0211 0.62293 0.18457 1.2368 0.49775 0.76606 0.39081 1.6114 0.97563 1.8804 1.2997 0.42191 0.5084 0.36699 0.58445-0.39971 0.55807-0.77599-0.0267-3.2426-0.90895-3.6552-1.3072-0.0808-0.078 0.0613-0.39352 0.31675-0.70138 0.20475-0.24668 0.36124-0.36799 0.62092-0.34691zm165.69 5.0076c-1.3272 0-2.056 3.1967-0.94018 4.1227 1.2617 1.0471 2.1208 3.9027 2.4787 8.2329 0.41995 5.0822 0.20433 6.2868-2.1569 12.067-0.90122 2.206-1.6365 4.2446-1.6365 4.53 0 0.28543-0.32873 0.81422-0.72902 1.1765-0.4003 0.36227-0.83139 1.1292-0.95778 1.7044-0.12636 0.57523-0.55748 1.3421-0.95778 1.7044-0.40029 0.36226-0.7265 0.976-0.7265 1.3625 0 0.38652-0.2399 0.79502-0.53295 0.90751-0.85432 0.32783-0.99841 1.2171-0.41981 2.6018 0.39794 0.9524 0.76913 1.2896 1.4203 1.2896 0.97457 0 2.7911-1.7158 3.8914-3.6778 0.38355-0.68384 1.1166-1.9625 1.6315-2.8406 1.7703-3.019 2.622-4.688 2.622-5.1408 0-0.24953 0.42149-1.5039 0.93517-2.7879 1.6196-4.0484 2.0933-7.2047 1.8426-12.275-0.12374-2.5028-0.47639-5.4785-0.78433-6.6114-0.90271-3.3209-3.2858-6.3651-4.98-6.3651zm-167.55 1.8728c-2.0267 0-2.6643 2.419-2.1443 8.1399 0.2202 2.4228 0.47669 4.827 0.57065 5.3419 0.57836 3.1697 1.3672 5.8179 2.5666 8.615 1.3828 3.2247 3.258 9.7673 3.258 11.368 0 0.48046-0.33364 1.1768-0.74159 1.546-0.40794 0.36918-0.84791 1.2795-0.97789 2.0236-0.73152 4.1882-1.7379 5.8197-4.8492 7.8533-0.83294 0.54441-2.0785 1.569-2.7678 2.275-0.68922 0.70597-1.6091 1.3065-2.0438 1.3374-0.57571 0.0409-0.82552 0.3504-0.91756 1.1388-0.12114 1.0377-1.391 2.3391-2.0689 2.1192-0.17845-0.0579-0.72039 0.15564-1.2041 0.47261-0.48375 0.31693-1.1309 0.57566-1.4354 0.57566-0.30454 0-0.77345 0.31618-1.0432 0.70137-0.87303 1.2464-3.9492 3.3583-5.6109 3.8537-1.8859 0.56227-4.9296 2.741-6.3676 4.5576-0.6057 0.76516-1.4746 1.3633-2.1871 1.5058-0.64986 0.12997-2.1367 0.81312-3.3032 1.5159-1.5583 0.93873-2.7485 1.3408-4.4897 1.5209-1.8184 0.18807-2.9132 0.57846-4.7034 1.6742-1.2833 0.78546-2.6836 1.5382-3.1122 1.6742-0.42857 0.13602-1.2256 0.6623-1.7723 1.1689-0.54668 0.50664-1.4135 1.0278-1.9256 1.1564-0.51211 0.12853-1.1361 0.61381-1.3876 1.081-0.41122 0.76355-3.3523 4.2036-5.9252 6.9307-1.9772 2.0958-6.3299 7.405-6.3299 7.7201 0 0.17902-0.59396 1.186-1.3198 2.2398-1.13 1.6407-1.4233 2.538-2.0362 6.2369-0.61266 3.6974-0.64618 4.5556-0.2363 5.9528 0.27355 0.93246 0.40852 2.6743 0.31423 4.0649-0.17081 2.5191 0.65152 6.3413 2.7451 12.735 1.5242 4.6548 1.6566 5.0903 1.6566 5.538 0 0.23676 0.42019 1.3528 0.93515 2.4787 0.51496 1.1258 0.93516 2.3728 0.93516 2.7728s0.25412 0.93766 0.5631 1.1941c0.63463 0.5267 0.75482 1.4983 0.18602 1.4983-0.7107 0-0.36067 0.94196 0.97035 2.622 0.73439 0.9269 1.7013 1.783 2.1493 1.903 2.0419 0.54664 2.0255-0.364-0.03771-2.0865l-1.2268-1.0231 0.94521-0.87735c1.5737-1.4584 1.4357-2.1381-2.3303-11.586-0.82106-2.0598-2.0596-5.4289-2.7527-7.4888l-1.2594-3.7456 0.0176-7.4913c0.01781-7.8548 0.57197-11.444 1.8401-11.931 0.30971-0.11884 0.5631-0.45823 0.5631-0.75164 0-0.2934 0.24166-0.62542 0.53797-0.73907 0.29631-0.11371 0.91263-0.84772 1.3701-1.6315 0.45742-0.78378 1.5958-2.0744 2.5289-2.8683 0.93317-0.79394 2.2322-2.1426 2.8884-2.9965 0.65623-0.85395 2.0565-2.479 3.1122-3.6099 1.0556-1.1309 1.9206-2.2491 1.9206-2.4862 0-0.2371 0.6328-0.68618 1.4052-0.998 0.77244-0.31182 2.4142-1.2561 3.6501-2.0991 1.2359-0.84298 2.4748-1.5329 2.7527-1.5334 0.27785-5e-4 1.0352-0.23627 1.6843-0.52288 0.64908-0.28663 2.0168-0.73879 3.0367-1.0056 1.02-0.26675 2.5347-0.84737 3.3686-1.2896 0.83389-0.44225 1.9639-0.91685 2.5113-1.0533 0.54742-0.13644 1.9816-1.0663 3.1851-2.0664 1.2034-1 2.3972-1.7436 2.6546-1.6541 0.25748 0.0894 0.47009-0.0349 0.47009-0.27653 0-0.67971 1.4612-1.7793 3.9794-2.989 1.2626-0.60652 2.7798-1.4881 3.3711-1.9608 1.6137-1.2901 4.3043-3.1115 5.5707-3.7708 0.61796-0.32174 1.8698-1.2671 2.7828-2.1016 0.91308-0.83452 2.331-2.0681 3.1499-2.7426 5.1598-4.2502 5.9617-5.1643 7.9865-9.0725 1.6693-3.2221 2.3532-5.813 2.363-8.9644 8e-3 -2.5919-0.1677-3.3662-1.4304-6.3651-2.5753-6.1164-4.1355-10.663-4.5777-13.341-0.1871-1.1329-0.50661-2.8675-0.71142-3.8563-0.22697-1.0957-0.24756-2.7051-0.0528-4.1202 0.38783-2.8179 0.0264-4.0071-1.2167-4.0071zm29.576 3.4289c-0.21566-0.0224-0.47318 0.0137-0.78934 0.093-1.4907 0.37413-2.2839 2.5154-1.6717 4.5124 0.67258 2.194 0.74453 6.0398 0.16088 8.6301-0.90271 4.0063-1.4218 10.126-0.93515 11.036 1.1229 2.0981 3.3561-0.50779 3.6526-4.2635 0.0827-1.0466 0.46098-3.2516 0.84214-4.8995 1.6405-7.0922 1.8006-8.9617 0.88488-10.269-0.341-0.48681-0.7619-1.6534-0.93767-2.5943-0.29474-1.5777-0.55966-2.1778-1.2067-2.2449zm101.07 19.042c-1.0637 0-1.499 0.70057-1.8502 2.994-0.14193 0.92693-0.47863 2.1925-0.74913 2.8105-0.73811 1.6862-1.1428 8.0762-0.53546 8.4516 0.74883 0.4628 1.7806-0.29443 3.0016-2.2046 0.81527-1.2756 1.0633-2.0404 0.91503-2.8055-0.11456-0.59104 0.0206-1.4082 0.30922-1.8703 0.28223-0.45189 0.6188-1.9222 0.74661-3.2655 0.26714-2.8074-0.315-4.1102-1.8376-4.1102zm-70.478 7.1142c-0.52193 1e-5 -4.98 4.1811-4.98 4.6708 0 0.16021-0.8592 1.071-1.9105 2.0237s-2.2254 2.343-2.6069 3.0895c-0.87433 1.7108-2.5459 3.1308-4.3691 3.7104-0.77768 0.24725-2.0164 1.0611-2.7527 1.81-2.2516 2.2902-4.408 3.9845-5.0755 3.9845-0.49115 0-0.83166-0.80644-1.5033-3.5596-0.95033-3.8956-1.7816-5.0656-3.2228-4.5325-0.44356 0.16408-0.97736 0.56729-1.184 0.89494-0.5505 0.87275 0.38779 5.9191 1.5184 8.17l0.93264 1.8552-0.97537 1.1589c-1.6917 2.0105-3.5214 3.0348-4.9448 2.7678-1.1108-0.20838-1.2945-0.12219-1.6315 0.76421-0.27046 0.71123-0.25452 1.1501 0.0553 1.5234 0.35079 0.42268-0.10237 1.0334-2.3329 3.1474-2.237 2.1201-2.6587 2.6916-2.2047 2.9814 0.4544 0.29016 0.4032 0.35937-0.26646 0.36451-0.45534 3e-3 -1.0028 0.21765-1.2167 0.47512-0.21389 0.25749-1.1908 1.4621-2.1695 2.6772-0.97865 1.2152-2.8949 3.3212-4.2585 4.6808-1.3636 1.3596-4.7073 5.0854-7.431 8.2781-2.7236 3.1928-6.2911 7.2362-7.9262 8.987-4.8197 5.1608-6.0683 6.5469-7.255 8.0343-0.61796 0.77452-1.7565 2.0705-2.5289 2.8809-0.77244 0.81044-1.4052 1.6555-1.4052 1.8779 0 0.40103-1.5231 2.3998-2.9839 3.9141-0.41833 0.43366-0.7617 1.1294-0.7617 1.546 0 0.41657-0.24405 0.95854-0.54299 1.2066-0.5696 0.47272-3.9493 7.1359-3.9493 7.7854 0 0.20638-0.34525 1.1538-0.76673 2.1066-0.46385 1.0486-0.73435 2.3713-0.68377 3.3485 0.04596 0.88789-0.0391 1.8155-0.19105 2.0614-0.26156 0.4232-0.97379 3.7275-1.0634 4.9372-0.12805 1.7294 0.68784 6.6049 1.2217 7.3028 0.1576 0.206 0.47522 1.9403 0.7064 3.8537 0.5448 4.5095 1.2816 6.6096 3.0719 8.7507 0.80084 0.95775 1.6916 2.3066 1.9809 2.999 0.2893 0.69242 1.5687 2.3952 2.8407 3.7834 1.272 1.3881 2.4945 2.5239 2.7175 2.5239 0.71289 0 1.7748-1.2126 1.7723-2.0236-0.0032-1.0134-0.98843-2.4782-2.544-3.7808-0.67956-0.56909-1.735-2.0652-2.3454-3.3258-0.61042-1.2606-1.4939-2.9164-1.9633-3.6778-0.49032-0.79522-1.0502-2.6272-1.3173-4.3062-0.25572-1.6075-0.81419-4.5239-1.2393-6.4807-0.42514-1.9568-0.7691-3.7257-0.76421-3.9317 0.11128-4.652 2.0063-12.064 4.0423-15.812 0.69576-1.2808 1.2645-2.5736 1.2645-2.8734 0-0.29971 0.3924-1.0216 0.87231-1.6038 0.4799-0.58225 0.96651-1.3125 1.081-1.6214 0.32382-0.87422 4.7763-6.7396 5.1157-6.7396 0.16636 0 0.47975-0.38942 0.69634-0.86477 0.4319-0.94792 4.5886-5.9034 8.8035-10.495 1.4811-1.6135 2.9391-3.2993 3.2404-3.7456 0.30125-0.44631 1.0663-1.41 1.6994-2.1393s1.5715-1.9048 2.0865-2.6144c0.93265-1.2853 4.1164-4.7642 7.6773-8.3862 2.9272-2.9774 7.6773-8.4523 7.6773-8.8488 0-0.1971 0.22694-0.35948 0.50277-0.35948s1.2461-0.79887 2.1569-1.7773c0.9108-0.97844 3.1114-3.0429 4.8895-4.5878 1.7781-1.5449 3.3781-3.0841 3.5546-3.4214 0.36444-0.69625 4.6148-4.1381 6.3123-5.1107 0.61794-0.35408 1.9666-1.4865 2.9965-2.5164 1.0299-1.0299 2.5123-2.3503 3.2932-2.9337 2.15-1.6062 8.7057-8.1845 10.387-10.422 0.81784-1.0884 1.4882-2.3299 1.4882-2.7577 0-0.88044-0.65891-1.6767-1.3876-1.6768zm25.355 0.51535c-2.3831 0.44067-3.7689 0.96442-4.9598 1.8728-0.70977 0.54136-1.4828 0.98293-1.7195 0.98293-0.53313 0-16.902 16.281-17.778 17.682-0.84339 1.3499-0.80273 2.4383 0.10056 2.725 0.91732 0.29114 1.713-0.14843 3.3837-1.8653 0.72094-0.74087 1.6079-1.6302 1.9683-1.9759 0.36048-0.34573 0.65361-0.84291 0.65361-1.1061 0-0.26319 0.20075-0.48013 0.44495-0.48013 0.24422 0 0.83933-0.37085 1.3223-0.82455l0.87733-0.82454-0.18853 1.8552c-0.77077 7.6099-0.98074 12.193-0.79689 17.303 0.1167 3.2452 0.20754 7.4148 0.20111 9.2686-0.012 3.5951 1.2642 17.989 1.9256 21.712 0.46351 2.609 0.35114 14.966-0.15837 17.426-0.4118 1.9886-0.42301 2.1747-0.78935 11.612-0.19664 5.0652-0.14959 8.1065 0.15334 9.9247 1.0836 6.5042 0.72231 19.306-0.62092 21.999-0.99779 2-0.55441 20.636 0.60836 25.563 0.67351 2.8542 2.6716 14.608 3.0443 17.909 0.18179 1.6105 0.52678 3.6334 0.76673 4.4948 0.5624 2.0188 0.87692 16.493 0.66616 30.591-0.0292 1.9569 0.0289 5.0328 0.12821 6.8352 0.14374 2.6072 0.0748 3.2781-0.33183 3.2781-0.28114 0-0.5103 0.25161-0.5103 0.56059s0.25161 0.56311 0.56058 0.56311c0.30898 0 0.56924 0.21009 0.57568 0.46757 0.0417 1.6587 1.4972 8.6439 1.903 9.1328 0.27135 0.32699 0.83529 0.73259 1.2544 0.90248 0.41911 0.16988 1.5375 0.32146 2.4837 0.33433 1.6176 0.0223 1.8152-0.0907 3.3158-1.8703 2.0619-2.4453 2.6076-4.5631 2.6471-10.267 0.0171-2.4782 0.10289-5.3503 0.19105-6.3802 0.0882-1.0299 0.23116-3.3045 0.31676-5.0554 0.18317-3.7469 0.80939-7.3898 1.3902-8.0896 0.22689-0.27338 0.47873-2.2303 0.56059-4.349 0.20035-5.188 0.5216-8.2596 0.91253-8.7306 0.44921-0.54128 0.16068-20.839-0.36451-25.646-0.77142-7.061-1.1043-9.8984-1.3524-11.531-0.35316-2.3231 0.50135-11.043 1.3047-13.311 1.5276-4.3102 1.8694-8.5263 1.5385-18.975-0.14961-4.7244 0.37828-23.424 0.68881-24.405 0.37183-1.1742 1.1117-7.5608 1.36-11.737 0.0612-1.0299-0.0571-2.8843-0.26396-4.1202-0.20683-1.2359-0.43184-3.0903-0.49774-4.1202-0.0659-1.0299-0.34093-2.7988-0.61338-3.9317-0.46478-1.9326-0.50509-4.4309-0.29915-18.54 0.0691-4.7308 0.63762-8.818 1.4505-10.412 0.38103-0.74735 0.96247-2.5874 1.2921-4.0875 2.0972-9.5442 2.2616-10.139 3.2002-11.73 0.98313-1.6663 0.98926-2.4455 0.0402-4.002-0.76654-1.2573-0.9245-2.6929-0.52037-4.7135l0.22876-1.1463 1.6441 1.6189c0.90383 0.89101 1.6441 1.8898 1.6441 2.2197 0 0.32994 0.3463 0.81169 0.76924 1.0709 0.42296 0.25922 1.267 1.23 1.8778 2.1569 3.7054 5.6232 8.3906 10.745 14.037 15.345 3.1618 2.5754 4.1145 3.383 5.7492 4.8794 0.56257 0.51495 2.0077 1.7806 3.2127 2.8105 1.205 1.0299 2.5422 2.2843 2.9714 2.7879 2.1502 2.5226 8.3182 9.1093 10.581 11.3 6.7543 6.539 8.3556 8.2218 10.297 10.822 1.1507 1.5414 2.7194 3.3942 3.4842 4.1152 0.76483 0.72095 1.7064 1.9202 2.0915 2.6672 0.83977 1.6289 1.464 1.9248 2.9689 1.4002 1.2761-0.44487 1.5086-1.5569 0.58322-2.7803-0.30241-0.39984-0.55416-0.995-0.56059-1.3248-7e-3 -0.3298-0.81396-1.3733-1.7924-2.3178-0.97844-0.94445-2.3686-2.5031-3.0895-3.4641-1.221-1.6276-2.0286-2.5454-5.7316-6.5109-0.78406-0.83961-1.6741-1.5284-1.9759-1.5284-0.30176 1e-5 -0.73348-0.37866-0.96029-0.84213-0.22681-0.46346-1.2974-1.5995-2.3806-2.5264-1.0832-0.92693-2.1162-1.9611-2.2952-2.2977-0.17894-0.33661-1.3383-1.7529-2.5742-3.1474-1.2359-1.3945-3.0698-3.4803-4.0775-4.633-2.7348-3.1285-4.7683-5.0196-10.49-9.7714-5.8723-4.8765-7.8289-6.7066-12.049-11.252-4.0619-4.3751-6.2925-7.025-6.5964-7.8407-0.14043-0.37703-0.83395-1.5028-1.5435-2.5013-0.70956-0.99845-1.5891-2.4038-1.9533-3.1247-0.76969-1.5236-1.685-2.7838-3.6602-5.0453-1.2075-1.3825-1.6826-1.6556-3.1825-1.8225-0.96997-0.10796-3.1108-0.46941-4.7587-0.80192-1.6479-0.33257-3.4192-0.52511-3.9342-0.42987zm-1.2946 3.5722c0.43685-0.042 0.91327-0.0294 1.4304 0.0352 0.68948 0.0862 1.4546 0.26466 2.3002 0.53797 0.82394 0.26627 2.1947 0.42569 3.0468 0.35194 1.9141-0.16571 2.5696 0.44189 2.0237 1.8778-0.30873 0.81203-0.23896 1.1261 0.39217 1.7572 0.70285 0.70283 0.84245 0.71897 1.629 0.20362 0.64127-0.42017 0.96761-0.45523 1.2846-0.13826 0.73273 0.73272 0.46484 1.7139-0.60584 2.2222-1.3823 0.65634-2.3392 2.6967-2.3379 4.9825 6.9e-4 1.0299-0.23929 2.6302-0.53294 3.5571-1.3037 4.1153-1.7167 6.0062-1.7295 7.8985-0.015 2.2794-0.86139 6.236-1.4631 6.8377-0.21771 0.21772-0.39964 0.74165-0.40221 1.1639-3e-3 0.42227-0.24374 1.4506-0.53546 2.2876-0.29172 0.83698-0.70996 3.8714-0.93012 6.7422-0.22017 2.8707-0.569 6.7112-0.77428 8.5346-0.20525 1.8233-0.27497 3.476-0.15334 3.6728 0.12163 0.19678 0.36776 2.0312 0.54551 4.0775 0.17773 2.0462 0.49267 4.354 0.69885 5.1283 0.56529 2.1228 1.5955 10.343 1.3751 10.97-0.10622 0.30221-0.27824 1.8136-0.38211 3.3585-0.2424 3.6037-0.87999 8.9258-1.1136 9.3038-0.25795 0.41737-0.79895 10.643-0.71645 13.542 0.0381 1.3389 0.0593 2.8561 0.0478 3.3711-0.0121 0.51498 7e-3 2.1152 0.0427 3.5571 0.27535 11.046 0.0859 16.538-0.66868 19.392-0.42354 1.6019-0.87445 3.0827-1.003 3.2906-0.43639 0.7061-1.2934 6.8933-1.2946 9.349-7.9e-4 1.3443 0.19602 3.873 0.43742 5.6185 0.24141 1.7455 0.41635 4.101 0.38713 5.2339-0.0292 1.1329 0.20525 3.5734 0.52288 5.4249 0.80912 4.7162 0.95567 9.7267 0.51031 17.383-0.21084 3.6247-0.54077 9.837-0.73404 13.806-0.22549 4.6305-0.55665 7.8238-0.9251 8.9091-0.31584 0.93024-0.57316 2.2013-0.57316 2.8256 0 0.6243-0.16011 1.4342-0.35445 1.7974-0.19435 0.36313-0.55256 4.605-0.79689 9.4295-0.37267 7.3587-0.56804 9.0583-1.2117 10.551-1.1271 2.6134-2.075 2.3818-2.3228-0.57065-0.20362-2.4258-0.67297-13.097-0.61338-13.942 0.19773-2.8037-0.66371-31.99-1.0332-35.016-0.18866-1.5449-0.69726-4.4963-1.1312-6.5561-0.98383-4.6696-1.4167-7.0921-1.9105-10.671-0.21313-1.5449-0.62204-3.5678-0.9075-4.4948-0.54165-1.7588-1.4723-11.442-1.458-15.169 9e-3 -2.3375 0.55011-6.9998 0.92509-7.974 0.59406-1.5431 1.4212-9.7782 1.2544-12.479-0.56581-9.1617-0.71797-13.319-0.70639-19.246 0.014-7.5708 0.32743-13.789 0.7265-14.435 0.31718-0.51329 0.29821-17.084-0.0201-17.6-0.1214-0.19644-0.29368-1.1599-0.3821-2.1393-0.0884-0.97941-0.41924-4.0569-0.73657-6.8377-0.31732-2.7808-0.58186-5.307-0.58572-5.616-0.0327-2.2516 0.42564-25.222 0.55807-27.959 0.0912-1.8853 0.38165-3.7712 0.64355-4.1906 0.61563-0.98576-0.16992-2.6035-1.4153-2.9161-0.83579-0.20979-0.82906-0.23251 0.34942-1.1865 0.66118-0.53525 2.2987-1.9664 3.6376-3.18 1.3389-1.2137 2.7483-2.4859 3.1323-2.8281 0.38393-0.34217 1.0937-1.2394 1.5762-1.9935 0.70989-1.1095 1.6734-1.7192 2.984-1.8452zm-55.833 0.87734c-0.54004-0.0187-1.001 0.11087-1.272 0.43741-0.63678 0.76727-0.30037 4.0471 0.54802 5.3419 0.71402 1.0898 2.3116 1.069 2.9488-0.0377 0.22676-0.3939 0.7054-1.0242 1.0659-1.4027 0.36048-0.37856 0.65612-1.0798 0.65612-1.5561 0-1.3454-2.3266-2.7267-3.9468-2.7828zm136.97 5.5229c-0.51964 0-1.9407 1.5001-1.9407 2.0488 0 1.3756 2.2382 4.6909 3.1675 4.6909 0.20939 0 0.8051 0.42065 1.3223 0.93515 1.1328 1.1269 4.6775 3.9565 5.6989 4.5476 0.40353 0.2335 1.6452 1.2886 2.7602 2.3454 1.115 1.0569 2.6522 2.2142 3.4138 2.5717 0.76166 0.35751 1.9647 1.179 2.6747 1.8251 0.71003 0.64606 1.9842 1.3945 2.8306 1.6642 0.84643 0.26969 2.1259 0.87779 2.8432 1.3525 0.71728 0.47465 1.4588 0.86476 1.6491 0.86476 0.19021 0 0.89852 0.42021 1.5737 0.93515 0.67514 0.51497 1.3636 0.93516 1.5284 0.93516 0.67242 0 5.0757 2.4064 5.254 2.8708 0.1057 0.27544 0.64096 0.50026 1.1891 0.50026 0.54809 0 1.6178 0.42269 2.3756 0.93766 0.7578 0.51495 1.691 0.93516 2.0739 0.93516 0.73868 0 2.1058 0.94253 4.1454 2.8532 0.6848 0.64155 1.8977 1.381 2.6949 1.6441 1.0372 0.34229 1.7381 0.93262 2.4611 2.0764 0.79251 1.2538 1.3582 1.6961 2.627 2.0513 1.6655 0.46633 2.9377 1.6067 6.8779 6.169 1.0674 1.2359 2.3484 2.7131 2.8482 3.2831 0.49982 0.57001 0.93139 1.2443 0.95778 1.4982 0.0262 0.25392 0.0867 0.85089 0.13575 1.3248 0.0491 0.47392 0.4478 1.1943 0.8874 1.6038 0.69266 0.64531 1.0115 1.6677 0.83962 2.6974-0.0272 0.16285 0.1601 0.66861 0.41479 1.1237 0.60043 1.073 0.62348 1.3154 0.81449 7.9136 0.17322 5.9848-0.0547 7.3329-1.2494 7.3329-1.1776 0-1.8651 1.4887-2.0966 4.5476-0.11735 1.5513-0.51693 3.8002-0.8874 4.9976-0.51806 1.6745-0.58184 2.4172-0.28153 3.2127 0.33869 0.89741 0.24514 1.2187-0.70892 2.4234-2.4846 3.1374-2.909 4.3417-1.7572 5.0126 1.1056 0.64397 2.5432 0.45468 3.3133-0.43742 2.1804-2.5258 4.7241-7.1339 4.4018-7.974-0.11075-0.28861 0.15156-0.97459 0.58321-1.5234 0.43169-0.5488 0.78679-1.4372 0.78936-1.9759 2e-3 -0.53869 0.27413-1.9063 0.60333-3.0393 0.95885-3.2997 1.2751-6.1298 1.4656-13.065 0.14603-5.3158 0.0767-6.7149-0.38463-7.6396-0.31066-0.62273-0.56561-1.4259-0.56561-1.7848 0-0.97969-1.9537-5.5581-3.1901-7.4737-0.59829-0.92694-1.3877-2.2779-1.7547-3.0041-0.86274-1.7074-6.826-7.8132-9.3717-9.5954-1.0854-0.75989-2.8515-2.0288-3.9241-2.818-1.0726-0.78927-2.0568-1.4354-2.1871-1.4354-0.13028 0-0.51774-0.32544-0.85974-0.72399-0.67041-0.78127-7.6275-4.5199-8.4114-4.5199-0.2614 0-1.3954-0.59351-2.5214-1.3198-1.126-0.72624-2.641-1.4809-3.366-1.6768-0.725-0.19584-2.6212-1.2026-4.2132-2.2373-1.5921-1.0348-3.0551-1.8804-3.2504-1.8804-0.48792 0-3.4-1.5714-4.9347-2.6622-0.69468-0.49372-1.6016-1.1101-2.0136-1.37-0.92616-0.58436-2.7606-1.7844-3.7029-2.4208-0.38855-0.2624-1.8742-1.5655-3.3032-2.8985-1.4289-1.333-3.052-2.6157-3.6049-2.8482-0.55289-0.23247-2.2253-1.5437-3.718-2.9136-1.4927-1.3698-2.8503-2.4887-3.0166-2.4887zm-137.38 4.2258c-0.92645 0.16955-2.1443 0.87306-2.6446 1.6365-0.31671 0.48336-0.76672 0.88224-1.0005 0.88739-0.23379 6e-3 -1.2678 0.76231-2.2977 1.6818-1.0299 0.91945-2.0711 1.6742-2.3128 1.6768-0.24168 2e-3 -0.916 0.39928-1.4983 0.88488-1.3559 1.1308-3.9838 2.283-6.9357 3.0392-1.2803 0.32801-2.5882 0.82857-2.906 1.1111-1.1749 1.0445-12.48 6.3778-15.933 7.5164-2.2954 0.75688-10.362 4.9758-11.42 5.9729-0.51677 0.48699-2.0686 1.4143-3.449 2.0614-1.3804 0.64702-3.7207 1.8408-5.2012 2.6546-1.4805 0.81378-2.931 1.4807-3.2228 1.4807-0.29175 0-1.5243 0.67431-2.7376 1.4982-1.2133 0.82394-2.3794 1.4983-2.5918 1.4983-0.21237 0-0.6854 0.5651-1.0508 1.2569s-2.0123 2.4518-3.6602 3.909c-4.8853 4.32-6.6033 6.6887-7.074 9.7588-0.13753 0.89706-0.49884 2.1113-0.80192 2.6974-0.76107 1.4717-0.68845 2.6984 0.22625 3.8613 0.42692 0.54273 1.0597 0.98181 1.4052 0.97537 1.1443-0.0215 2.0927-1.8523 2.1217-4.0951 0.03971-3.0736 0.1114-3.1817 7.9438-11.614 3.0273-3.2592 3.6825-3.8538 5.5531-5.0529 1.0364-0.66433 2.5081-1.3255 3.268-1.4681 0.75993-0.14256 1.8483-0.6501 2.4208-1.1287 0.57252-0.47862 1.7751-1.244 2.6722-1.6994 0.89711-0.45537 2.8345-1.6135 4.3062-2.5742 1.4717-0.96066 3.3516-2.0666 4.1755-2.4585 0.82394-0.39195 2.1218-1.2445 2.8834-1.8954 0.76156-0.65095 2.3589-1.4925 3.5496-1.8678 1.1907-0.37531 4.5497-1.8414 7.4662-3.258 2.9165-1.4166 5.4342-2.5742 5.5958-2.5742 0.16169 0 0.56219-0.23473 0.88739-0.52038 0.56715-0.49818 10.227-4.723 10.8-4.7235 0.94989-7.2e-4 6.892-4.2149 9.7588-6.9206 1.0955-1.0339 2.234-2.1034 2.529-2.3756 0.70025-0.64617 0.68394-1.5324-0.0327-1.8074-0.20692-0.0794-0.48304-0.0817-0.79187-0.0251zm77.025 8.9845c-0.75104 0.18545-1.1085 1.0889-1.2896 3.0066-0.37299 3.9501-0.50035 4.8535-1.091 7.7527-0.31475 1.5449-0.68239 3.8194-0.817 5.0554-0.1346 1.2359-0.47001 3.6791-0.74662 5.4299-0.29636 1.876-0.44345 4.9532-0.35696 7.4913 0.36152 10.612 0.52569 13.002 0.9628 14.05 0.2565 0.61509 0.58763 2.3818 0.73656 3.9266 0.30916 3.2071 0.75706 5.2328 1.5686 7.1142 0.31099 0.72093 0.6857 2.2381 0.8346 3.3711 0.14892 1.1329 0.39949 2.23 0.55557 2.4359 0.15606 0.20601 0.40301 1.0409 0.55053 1.8577 0.14751 0.81683 0.50809 1.948 0.79941 2.5114 0.2913 0.56336 0.5279 1.3542 0.5279 1.7597 0 0.4055 0.24339 1.2143 0.54048 1.7974 0.29709 0.58314 0.90209 2.0723 1.3424 3.3082 0.44032 1.2359 0.95428 2.5408 1.1438 2.8985 0.18953 0.35766 0.3444 1.0489 0.3444 1.536 0 0.9746 0.52837 2.7674 1.37 4.6557 0.30029 0.67365 1.1988 3.2024 1.996 5.6185 0.79721 2.4161 1.7102 5.0066 2.0287 5.7592 0.67127 1.5861 1.5982 5.4414 2.1493 8.9317 0.21141 1.3389 0.64617 3.6135 0.96532 5.0554 1.0074 4.5512 1.3142 14.935 0.543 18.351-0.2325 1.0299-0.60981 3.3906-0.83712 5.2439-0.22732 1.8534-0.54433 3.5392-0.70639 3.7457-0.16204 0.20651-0.41367 1.4595-0.55808 2.7854-0.14441 1.3258-0.48412 2.843-0.75416 3.3711-0.27002 0.52804-0.62049 1.7176-0.77929 2.6446-0.46735 2.7282-0.2342 13.285 0.34942 15.852 0.28915 1.272 0.64069 3.2387 0.78181 4.3716 0.66215 5.3161 3.0099 9.9531 5.616 11.089 0.62178 0.27091 1.3671 0.50007 1.6566 0.5078 1.0037 0.0279 3.0092-1.8853 3.7632-3.5898 0.70188-1.5867 0.74007-2.218 0.53043-8.5672-0.24281-7.354 0.17045-11.984 1.37-15.357 0.36621-1.0299 0.94895-2.8818 1.2946-4.1177 0.34569-1.2359 0.96942-3.2589 1.3852-4.4948 0.41569-1.2359 0.90045-2.9217 1.0784-3.7457 0.178-0.82396 0.81901-3.5212 1.4254-5.993 3.2809-13.374 3.8019-20.075 1.9156-24.716-0.70079-1.7242-1.1162-3.3655-1.1162-4.4143 0-1.3743-0.61683-3.6845-1.541-5.7768-0.8577-1.9418-1.4764-4.2605-1.727-6.4631-0.10467-0.91971-0.4088-2.0142-0.67372-2.4334-0.26491-0.4192-0.5947-1.5216-0.73404-2.4485-0.13934-0.9269-0.40456-2.19-0.59076-2.808-0.1862-0.61795-0.66828-2.4723-1.0709-4.1202-0.40264-1.6479-1.0168-4.008-1.3625-5.2439-0.65651-2.3472-1.1894-4.5234-1.541-6.2771-0.11406-0.56898-0.35824-1.1267-0.54048-1.2393-0.18223-0.11264-0.33182-0.53667-0.33182-0.9427 0-0.40602-0.44082-1.7882-0.98041-3.0694-1.5376-3.651-2.3928-9.2928-2.4108-15.898-9e-3 -3.151 0.10336-5.921 0.24887-6.1564 0.14551-0.23545 0.23451-1.0347 0.1986-1.7748-0.0784-1.6167 0.54382-5.5728 1.2418-7.8985 1.4948-4.9807 1.8606-7.0384 1.3575-7.6446-0.55593-0.66985-1.6244-0.76965-2.6069-0.24384-1.0218 0.54681-2.5674 4.9324-2.8909 8.2077-0.0683 0.69146-0.32591 1.502-0.57317 1.7999-0.26827 0.32325-0.50917 2.2338-0.59579 4.7361-0.5019 14.493 0.0721 20.711 2.5415 27.6 0.84915 2.3688 1.7896 5.3177 2.0915 6.5536 0.85861 3.5151 1.2608 5.0971 1.81 7.1167 0.88493 3.2545 1.2478 4.8193 1.5184 6.5536 0.14462 0.92694 0.50051 2.1507 0.79187 2.72 0.29135 0.5693 0.68368 1.7493 0.8698 2.622 0.69468 3.257 1.1784 4.8961 2.0739 7.0237 0.50608 1.2024 1.1723 3.6341 1.4807 5.4023 0.30833 1.7682 0.99511 4.5073 1.5259 6.0886 0.68579 2.0428 0.89689 3.2748 0.73154 4.2534-0.12799 0.75758-0.27261 3.1276-0.32178 5.2665-0.0532 2.3161-0.33365 4.6466-0.69382 5.7618-0.33261 1.0299-0.94323 3.3875-1.3575 5.2414-1.1936 5.3414-3.3508 13.313-3.7331 13.794-0.19207 0.24163-0.47002 1.2828-0.61841 2.3127-0.14839 1.0299-0.57533 2.5446-0.94773 3.3686-1.507 3.3343-1.6593 4.6294-1.6843 14.419-0.0134 5.2526-0.15577 9.7602-0.31674 10.018-0.16095 0.2575-0.49124 0.47015-0.73656 0.46758-0.54531-4e-3 -1.3826-1.7209-1.3826-2.8356 0-0.44874-0.27487-1.4699-0.60834-2.2675-1.0252-2.452-1.6516-5.3605-1.5913-7.3832 0.0317-1.0618-0.0331-4.3738-0.14329-7.3606-0.11025-2.9868-0.0448-6.1898 0.1458-7.1167 0.19061-0.92693 0.48807-2.8031 0.66115-4.1705 0.17309-1.3674 0.44597-2.6976 0.60584-2.9563 0.32153-0.52023 1.3539-7.1232 1.3449-8.6024-3e-3 -0.51496 0.41649-2.2297 0.93264-3.8085 1.0654-3.2589 0.99324-4.9943-0.59328-13.982-0.1818-1.0299-0.44506-3.0529-0.58322-4.4948-0.21976-2.2936-0.45683-3.6082-1.5385-8.527-0.12551-0.57073-0.37544-1.128-0.55557-1.2393-0.18019-0.11133-0.2374-0.57229-0.12568-1.0232 0.11168-0.45083-0.14838-1.831-0.58071-3.0669-0.43234-1.2359-1.4591-4.256-2.2801-6.712-0.82097-2.456-1.7276-4.8992-2.0136-5.4299-0.53172-0.98677-3.5364-10.1-4.3314-13.137-0.24263-0.92693-0.7904-2.3576-1.2192-3.1775-0.42883-0.81992-0.91023-2.166-1.0684-2.994-0.80266-4.2019-1.2036-5.801-1.9256-7.6849-0.44174-1.1526-0.90977-3.5464-1.0634-5.4324-0.15096-1.8539-0.53928-4.294-0.86225-5.4224-0.3716-1.298-0.48884-2.534-0.32177-3.3686 0.14527-0.72551 0.21848-1.4797 0.16339-1.6742-0.27692-0.97844-0.0465-13.167 0.30167-15.938 0.21999-1.7509 0.65107-5.9554 0.95778-9.344 0.30672-3.3886 0.65521-6.4674 0.77427-6.8427 0.40335-1.2708-0.20921-2.8977-1.184-3.1423-0.34592-0.0868-0.63956-0.10455-0.88991-0.0428zm-46.637 1.0206c-0.27845 0-0.98136 0.39189-1.5636 0.87232-1.2173 1.0044-2.6014 1.7579-4.9925 2.72-0.92694 0.37296-2.3039 1.2221-3.0594 1.8854-0.75545 0.6633-1.85 1.5083-2.4334 1.8778s-1.4448 1.0997-1.913 1.6214c-0.46821 0.52174-0.97397 1.0807-1.1237 1.2444s-1.4516 1.0608-2.8934 1.991c-1.4419 0.93024-3.0421 2.078-3.5571 2.5516-0.51495 0.47359-1.9492 1.544-3.1851 2.3781-1.2359 0.83413-4.7529 3.9038-7.8156 6.8226-3.0627 2.9189-6.2632 5.8105-7.1142 6.4254-2.1543 1.5567-6.9785 5.9216-6.9785 6.3148 0 0.82633-5.2241 7.9749-7.7251 10.571-2.8623 2.9708-3.8839 4.8707-3.8839 7.2173 0 2.636 2.2351 2.4859 3.8437-0.25893 0.52492-0.89572 1.8973-2.6858 3.0493-3.9769 1.152-1.291 2.094-2.4998 2.094-2.6873 0-0.1875 0.81315-1.3187 1.805-2.5139 0.9918-1.1951 2.2134-3.0009 2.715-4.0121 0.86492-1.7437 5.946-6.6707 7.5139-7.2852 0.33619-0.13175 1.1866-0.93189 1.8904-1.7773 0.70386-0.8454 1.9464-2.1067 2.7602-2.803 0.81381-0.69618 3.2495-2.8877 5.4123-4.8718 3.5621-3.2679 7.2072-5.6106 7.6296-4.902 0.23539 0.39479 0.27846 20.512 0.0503 23.477-0.25553 3.32-1.4158 9.1067-2.3756 11.848-0.40636 1.1605-1.1117 3.6036-1.5661 5.4299-0.70621 2.8379-2.4453 7.2966-3.7431 9.5904-0.20238 0.35769-0.36953 1.204-0.36953 1.8804 0 0.67638-0.35789 2.489-0.79439 4.0297-2.2183 7.8303-3.246 13.427-3.3007 17.969-0.0211 1.7509-0.27904 4.7646-0.57317 6.6969-0.53402 3.5082-0.50706 11.299 0.0503 14.465 0.14503 0.82393 0.22403 1.6523 0.17345 1.8426-0.0506 0.19034 0.0864 1.1188 0.30418 2.0614 0.21772 0.94258 0.47321 3.366 0.57065 5.3847 0.0974 2.0187 0.30281 3.8715 0.455 4.1177 0.15217 0.24622 0.39247 1.2064 0.53545 2.1343 0.55161 3.5796 0.82485 4.7017 1.2695 5.2439 0.86528 1.0552 0.93317 3.7881 0.1634 6.5536-0.40135 1.4419-0.9208 3.3818-1.1538 4.3088-0.88487 3.5194-2.943 8.1264-4.2082 9.4219-1.2717 1.3022-2.3083 3.5432-3.0317 6.5511-0.72392 3.0099-0.58047 3.8947 0.81197 4.99 1.6817 1.3228 3.4712 0.97899 6.0986-1.1715 0.71637-0.58637 1.439-1.0659 1.6064-1.0659s0.78252-0.35367 1.365-0.78433c0.90957-0.67248 1.1674-0.71357 1.8351-0.29664 0.66666 0.41635 0.89176 0.38174 1.5862-0.24635 0.44541-0.40282 1.1539-1.4058 1.5737-2.2298 0.41977-0.82396 1.1435-2.004 1.6064-2.622 2.071-2.7648 4.2893-8.3512 5.4299-13.67 0.84568-3.9438 0.45392-14.294-0.8145-21.536-0.98759-5.6393-1.1247-7.0301-1.1363-11.423-0.0164-6.5561 0.26962-10.307 0.98291-12.919 0.33751-1.2359 0.76288-2.9217 0.94522-3.7456 0.18234-0.82394 0.59275-2.6783 0.91253-4.1202 0.53592-2.4164 1.2959-4.6496 2.1318-6.267 0.18485-0.35768 0.33434-0.83225 0.33434-1.0533s0.64862-1.782 1.4404-3.4691c0.79184-1.6871 1.8335-4.0784 2.3153-5.3143 0.4818-1.2359 1.1158-2.6232 1.4078-3.082 0.2919-0.4588 0.66346-1.3848 0.82706-2.0588 0.34941-1.4397 1.5973-5.0802 2.5767-7.5164 0.23164-0.57615 0.42232-1.421 0.42232-1.8778 0-0.45684 0.31268-1.4188 0.69384-2.1368 0.77611-1.4618 2.1197-5.4888 2.4988-7.4863 0.13682-0.72093 0.83462-2.9955 1.551-5.0554 2.2224-6.3896 4.618-15.437 4.618-17.439 0-0.78571 0.13545-1.5127 0.29914-1.6139 0.46484-0.28728-0.65515-12.057-1.4656-15.402-1.2073-4.9831-2.4198-8.1664-3.2554-8.5471-0.65006-0.29607-0.81411-0.60481-0.65611-1.2343 0.22462-0.895-0.59444-2.0161-1.4731-2.0161zm-1.3273 5.2439c0.91201 0 3.157 6.4483 3.7783 10.85 0.1608 1.1391 0.45542 2.6894 0.65362 3.4465 0.19818 0.75707 0.3007 3.706 0.22875 6.5536-0.12612 4.9927-0.19492 5.3854-1.9683 10.983-1.0115 3.1928-2.0977 6.816-2.4133 8.0519-0.69234 2.711-2.7864 9.0571-4.7562 14.419-0.79452 2.1628-1.6119 4.523-1.8175 5.2439-0.20557 0.72095-0.98934 2.7439-1.7421 4.4948-0.75275 1.7509-1.7868 4.194-2.2977 5.4299-0.51086 1.2359-1.1754 2.6985-1.4756 3.2504-0.30028 0.55186-1.1101 2.5748-1.7999 4.4948-0.68978 1.9199-1.5331 4.1525-1.8753 4.9624-0.91714 2.1703-3.2998 12.091-3.4239 14.259-0.059 1.0299-0.3082 3.3875-0.55556 5.2414-0.57271 4.2922-0.2649 10.717 0.70136 14.608 1.2183 4.9062 2.5063 20.29 1.7949 21.441-0.13279 0.21488-0.55391 1.9675-0.93515 3.894-1.1017 5.5675-3.9466 10.712-6.5662 11.87-0.98373 0.43515-1.7629 1.0672-1.9181 1.5561-0.16633 0.52413-1.0008 1.1496-2.2952 1.722-1.1185 0.49464-2.134 0.89996-2.2574 0.89996-0.51404 0 0.34779-3.2892 1.2016-4.5853 1.5386-2.3355 3.8331-7.8152 5.5933-13.351 0.58918-1.8529 0.70627-6.7637 0.20111-8.4667-0.18331-0.61796-0.51993-2.3038-0.74913-3.7456s-0.58348-3.2107-0.78684-3.9317c-0.34387-1.2191-1.2869-8.1242-1.6365-11.986-0.0839-0.92694-0.35986-3.033-0.61338-4.6808-0.36727-2.3872-0.36331-4.4044 0.0176-9.9247 0.90382-13.099 1.4873-17.548 2.7929-21.265 0.48644-1.3847 1.3225-4.3952 1.8577-6.6894 0.53524-2.2942 1.4496-5.243 2.0312-6.5536 0.58159-1.3106 1.6904-4.4892 2.4636-7.0639 0.77323-2.5748 1.5783-5.1866 1.7899-5.8045 0.87441-2.5538 1.6196-7.7899 2.0237-14.233 0.12918-2.0598 0.28913-4.503 0.35696-5.4299 0.31226-4.2666 0.19918-12.411-0.20362-14.704-0.57958-3.2981-0.33225-4.1035 1.6969-5.5607 0.92606-0.66503 1.6818-1.312 1.6818-1.4379 0-0.85223 10.064-8.258 11.222-8.258zm141.53 9.3616c-0.37457 0-0.4276 1.2642-0.0679 1.624 0.32126 0.32123 1.0534 0.32166 1.3751 0 0.2774-0.2774-0.80627-1.624-1.3072-1.624zm19.08 24.379c-1.0476-0.10939-1.7725 1.3561-1.7346 3.904 0.0987 6.6274 0.0326 8.4482-0.39217 10.666-0.89919 4.6951-0.9088 5.6886-0.0754 7.617 0.44962 1.0404 0.98036 1.7469 1.2494 1.6642 0.25747-0.0792 0.80477-0.83251 1.2167-1.6768 0.41199-0.84421 1.0307-1.8486 1.3751-2.2298 1.0093-1.1169 1.1908-2.5364 0.49522-3.8814-0.46045-0.89055-0.56448-1.7151-0.39718-3.1298 0.29012-2.4533 0.30302-2.9874 0.18602-7.6949-0.0795-3.199-0.22106-4.0245-0.78433-4.5878-0.40505-0.40502-0.78955-0.61461-1.1388-0.65108zm-5.166 1.7874c-0.81254-0.0485-1.7313 0.85337-2.2348 2.7376-0.4038 1.5111-0.38433 1.8694 0.13575 2.6119 0.33141 0.47319 0.6008 1.1519 0.6008 1.5083s0.19586 1.0766 0.4349 1.6013c0.23906 0.52464 0.62018 0.95526 0.84718 0.95526 0.55576 0 1.8778-4.7091 1.81-6.448-0.0748-1.9188-0.78125-2.9178-1.5938-2.9664zm-264.47 1.1539c-0.40775 0.0584-0.83386 0.30505-1.2494 0.76421-0.59581 0.65838-0.6306 1.0338-0.29412 3.2756 0.65738 4.3798 1.6353 9.1808 2.4058 11.803 0.62446 2.125 0.87479 2.5291 1.5611 2.5239 2.434-0.0171 2.5346-1.3781 0.69634-9.3591-0.40327-1.7509-0.75454-4.0783-0.78181-5.1735-0.06218-2.4975-1.1146-4.009-2.3379-3.8336zm-4.5903 6.3877c-2.3174 0-3.1772 1.2161-1.8753 2.6546 0.32643 0.36068 0.68605 1.3862 0.79941 2.2776 0.11335 0.89143 0.32775 1.7901 0.47763 1.996 0.14989 0.206 0.37418 1.3907 0.49774 2.6345 0.12356 1.2438 0.48271 2.8821 0.7994 3.6401 0.3167 0.75795 0.57567 1.9715 0.57567 2.6949 0 1.3035 0.89322 4.062 1.6189 5.0001 0.20733 0.26793 0.89795 0.4366 1.5335 0.37457 1.1544-0.11266 1.1558-0.11538 1.1212-2.3605-0.01904-1.2359-0.3319-3.3419-0.69382-4.6808-0.36192-1.3389-0.83909-3.1077-1.0608-3.9317-0.22176-0.82392-0.36538-1.7795-0.31926-2.1217 0.04612-0.34224-0.09336-0.73138-0.3092-0.86477-0.21584-0.1334-0.39216-0.72866-0.39216-1.3223-2e-6 -0.59363-0.16858-1.1824-0.37457-1.3097-0.20598-0.12729-0.37456-0.96734-0.37456-1.8653 0-2.491-0.23324-2.8155-2.0237-2.8155zm281.06 1.546c-0.94622 0.19911-1.7453 2.1215-2.0186 5.3822-0.31369 3.742-1.3923 9.5854-2.1242 11.511-0.91991 2.4204-0.93721 3.1335-0.093 3.635 1.9518 1.1596 2.9396-0.3854 4.1856-6.5335 0.20873-1.0299 0.55237-2.6633 0.76421-3.63 0.21188-0.96665 0.38714-2.5823 0.38714-3.5923s0.26112-2.3659 0.58322-3.0116c0.4959-0.99396 0.51208-1.3282 0.0955-2.177-0.59014-1.2025-1.2121-1.7032-1.7798-1.5837zm-63.133 8.6125c-0.7121 0.1185-1.3072 0.75009-1.3072 1.815 0 1.3146 0.69556 3.3852 1.4203 4.2233 0.70056 0.81013 1.5285 0.83349 2.6144 0.0729 0.96478-0.67575 1.0278-1.1985 0.32178-2.6647-0.28081-0.58312-0.74819-1.5641-1.0407-2.182-0.46732-0.98715-1.2965-1.383-2.0086-1.2645zm6.619 0.0151c-1.987-0.28142-2.3529 0.9007-2.8256 9.1127-0.0593 1.0299-0.23496 3.0873-0.39217 4.5702-0.27286 2.5739-0.24335 2.7381 0.66869 3.6501 0.52544 0.52543 1.1951 0.95526 1.4882 0.95526 1.2255 0 1.4816-1.104 1.6365-7.0338 0.0846-3.2383 0.1866-7.0675 0.22624-8.5094 0.0684-2.4857 0.0263-2.6277-0.80192-2.7451zm10.998 3.7507c-0.18225 0.0232-0.40694 0.11698-0.68628 0.26647-1.5923 0.85216-1.6799 1.366-1.3147 7.7251 0.28985 5.048 0.25221 6.3586-0.2514 8.3686-0.47554 1.8981-0.51061 2.646-0.17093 3.6753 0.23981 0.7265 0.31297 1.8942 0.16842 2.6647-0.14142 0.75388-0.31357 2.0044-0.38462 2.7803-0.12983 1.4181-0.49684 2.7926-1.5762 5.9101-0.85202 2.461-1.0044 4.046-0.45249 4.711 0.61333 0.73903 2.1091 0.41243 3.2303-0.7064 0.59778-0.59652 0.97769-1.7376 1.3927-4.1906 0.80795-4.7756 1.2687-9.9114 1.1136-12.411-0.15302-2.4663 0.65869-5.6229 1.629-6.3324 0.62551-0.45741 0.61797-0.53193-0.14329-1.3575-0.78543-0.85178-1.3456-3.7783-1.7245-9.0046-0.11618-1.6031-0.28281-2.1688-0.82957-2.0991zm-6.4556 0.71394c-0.47011-0.0611-0.88721 0.0773-1.1187 0.4349-0.16666 0.2575-0.31143 3.502-0.3243 7.2097-0.014 4.0953-0.20546 7.4026-0.48517 8.4264-0.25324 0.92694-0.46733 1.9384-0.47763 2.2474-0.01 0.30898-0.16798 1.0663-0.34943 1.6843-0.9043 3.0795-1.0849 6.6068-0.3821 7.4536 0.27339 0.32943 0.97984 0.60081 1.5686 0.60081 0.85447 0 1.1225-0.20863 1.3323-1.0307 0.14459-0.56647 0.23006-1.3679 0.19106-1.7798-0.039-0.41198 0.11261-1.5065 0.33435-2.4334 0.22172-0.92693 0.56216-2.3611 0.75918-3.1851 0.19699-0.82396 0.42717-2.8444 0.51032-4.4923 0.7427-14.715 0.754-13.497-0.11816-14.369-0.44569-0.44569-0.97033-0.70558-1.4404-0.76672zm-174.46 2.5893c-1.1603 0-2.045 1.5376-1.36 2.363 0.5525 0.66573 0.18385 1.008-1.086 1.008-2.2737 0-2.65 2.886-0.67371 5.1609 0.58778 0.67664 1.0684 1.5862 1.0684 2.0212 0 0.43499 0.60522 1.7036 1.3449 2.818 1.209 1.8214 1.4629 2.0138 2.5264 1.9105 0.99449-0.0965 1.203-0.28862 1.3072-1.2016 0.17555-1.5385-0.49898-3.9409-1.9357-6.893-1.1372-2.3366-1.1797-2.5475-0.5254-2.5968 2.7252-0.20526 2.0889-4.5903-0.66617-4.5903zm-12.765 7.4913c-0.53223 0.0415-1.0678 0.37198-1.3826 0.97286-0.43661 0.83328-0.42602 1.2799 0.08044 3.0895 0.32565 1.1636 0.761 2.3683 0.96532 2.6773 0.57574 0.87064 1.3365 2.9812 1.8929 5.2439 0.2786 1.1329 0.75764 2.8187 1.0634 3.7456 0.30572 0.92692 0.65567 2.298 0.77678 3.0468 0.12112 0.7487 0.718 2.0948 1.3273 2.994 0.60932 0.89919 1.1099 1.8319 1.1136 2.0714 0.0037 0.23952 1.1021 1.825 2.441 3.5244 1.3389 1.6994 2.4359 3.2944 2.4359 3.5445 0 0.38471 1.5488 2.4044 5.2565 6.8477 0.53992 0.64701 0.94308 0.80171 1.5737 0.60835 2.6107-0.80051 2.415-2.5459-0.64606-5.7844-2.0024-2.1184-7.5976-10.382-8.9116-13.16-0.54449-1.1509-1.1497-2.7487-1.3449-3.5496-0.40269-1.6519-0.89498-3.0988-2.1468-6.3249-0.47959-1.2359-1.2886-3.5458-1.7999-5.1358-0.51127-1.59-1.1135-3.2342-1.3374-3.6526-0.2961-0.55325-0.82526-0.80067-1.3575-0.75918zm7.25 3.816c-0.40995-0.0789-0.65612 0.10446-0.65612 0.4902 0 0.35982 0.2414 0.5659 0.5807 0.49524 0.8135-0.16939 0.86484-0.8334 0.07542-0.98544zm0.86728 2.1745c-1.312 0-2.0235 0.94586-2.0035 2.6622 0.02376 2.0401 1.0407 4.1979 3.6878 7.8256 1.1273 1.5449 2.2168 3.2282 2.4234 3.7432 0.2066 0.51495 0.52025 1.2748 0.69634 1.6868 0.17609 0.41193 0.50911 1.2174 0.73907 1.7899 0.22996 0.57247 0.79933 1.1932 1.2645 1.3801 0.46514 0.18694 0.95878 0.35164 1.0986 0.36451 0.41354 0.0386 1.4329-1.1142 1.4329-1.6214 0-1.9366-3.4493-8.9002-5.6411-11.39-0.97481-1.1075-1.5537-2.2224-1.8351-3.5345-0.46316-2.1596-0.94144-2.906-1.8628-2.906zm189.71 14.367c-0.6476 0.0973-1.1486 0.82649-1.7597 2.4284-1.1561 3.0304-1.1456 4.5764 0.0327 5.1836 1.2222 0.62989 1.491 0.6132 2.3102-0.1282 0.56392-0.51038 0.68628-1.1967 0.68628-3.8915 0-2.5634-0.12307-3.3178-0.5631-3.4867-0.2579-0.099-0.49053-0.13802-0.7064-0.10558zm-144.61 35.071c-0.33333 0-0.50186 0.16859-0.37457 0.37457 0.12731 0.20598 0.29593 0.37457 0.37457 0.37457 0.0787 0 0.24728-0.16859 0.37457-0.37457 0.12731-0.20598-0.0413-0.37457-0.37457-0.37457z"/>
</svg>
