<?xml version="1.0" encoding="UTF-8"?>
<svg width="150" height="200" version="1.1" viewBox="0 0 150 200" xml:space="preserve" xmlns="http://www.w3.org/2000/svg">
  <path
    d="m35.624 0.0054472c-26.388-0.031108-32.863 0.063246-33.286 0.48582-0.39342 0.39287-0.53789 2.5721-0.57506 8.6744-0.087836 14.419-0.53492 27.106-0.95982 27.248-0.54914 0.18327-0.5126 1.2778 0.042545 1.2778 0.44081 0 0.36487 9.9618-0.18263 24.006-0.12113 3.1067-0.21553 14.636-0.20981 25.621 0.005718 10.984 0.014296 30.314 0.018871 42.954 0.004575 12.64-0.1191 25.281-0.27542 28.092-0.19994 3.5947-0.15124 5.1921 0.1643 5.3872 0.24671 0.15246 0.54832 0.0174 0.67022-0.30024 0.12189-0.31767 1.1301-1.1664 2.2406-1.886 1.1105-0.71951 2.2335-1.6517 2.4953-2.0709 0.55649-0.89109 1.8954-1.0238 1.8954-0.18794 0 0.94041-2.5348 3.2347-3.4498 3.1224-0.61875-0.0759-1.0492 0.34341-1.7092 1.6649-0.48524 0.9716-1.2528 2.1014-1.7057 2.5112-0.80383 0.72749-0.82258 1.1272-0.78724 16.849l0.036598 16.104 11.978-0.26892c6.588-0.14788 12.251-0.33993 12.583-0.42731 0.33286-0.0874 5.6886-0.26127 11.902-0.38594 6.2134-0.12466 16.381-0.40022 22.595-0.61288 15.363-0.52579 32.008-0.85784 51.039-1.0177 23.046-0.19364 38.462-0.60825 38.997-1.0485 0.48956-0.403 0.53235-2.0674 0.54493-21.102 5e-3 -6.5264-0.14686-10.619-0.40131-10.874-0.66166-0.66168-0.49167-2.9527 0.23996-3.2335 0.46716-0.17927 0.57574-0.5368 0.38889-1.2813-0.14252-0.56789-0.23261-8.9636-0.20036-18.657 0.0325-9.6932 0.0452-18.26 0.0289-19.036-0.0168-0.77669-0.0247-13.877-0.0201-29.112 6e-3 -18.415-0.12873-27.785-0.40249-27.955-0.2418-0.14945-0.28134-0.62367-0.0957-1.1484 0.23859-0.67453 0.26599-12.118 0.0526-21.874-5e-3 -0.2219 0.0453-7.3935 0.11106-15.937 0.10498-13.609-0.13042-21.636-0.71574-24.429-0.17219-0.82186-0.2781-0.82528-20.662-0.66904-11.269 0.086463-21.034 0.14863-21.699 0.13948-0.66572-0.0091496-9.4713-0.14486-19.568-0.30083-10.097-0.15597-33.1-0.30084-51.119-0.32211zm9.0072 13.497c0.09618 0.07217 0.15011 0.25918 0.15011 0.57033 0 0.79038 2.8883 1.5369 5.2164 1.3481 1.4212-0.11525 1.9835 0.0199 2.4498 0.58866 0.54165 0.66061 0.82932 0.68984 2.7388 0.27955 1.3715-0.29468 2.308-0.32018 2.6224-0.07148 0.26897 0.21275 2.577 0.354 5.1289 0.31442 3.164-0.04906 4.8836 0.08978 5.4061 0.43617 0.623 0.41308 0.9744 0.40035 1.88-0.06793 0.61259-0.31678 1.1905-0.80446 1.2837-1.0839 0.09424-0.28257 0.81813-0.51072 1.6312-0.513 1.1218-0.0034 1.557 0.20438 1.8706 0.89244 0.72822 1.5978 3.6666 1.567 3.6632-0.03843-6.52e-4 -0.31009 1.0101-0.4137 3.1761-0.32506 2.9195 0.11944 3.2136 0.21005 3.6271 1.1176 0.53212 1.1679 2.3943 2.023 3.0272 1.3901 0.4781-0.4781 2.3074-0.57396 2.2104-0.11583-0.15535 0.73387 0.62243 1.7145 1.3599 1.7145 0.44352 0 1.346-0.4541 2.0053-1.0089 1.6053-1.3508 2.0297-1.2769 1.7376 0.30261-0.32419 1.7528 0.43204 2.684 2.4267 2.9882 1.7575 0.26799 3.4279 1.51 3.4279 2.5491 0 0.36074 0.21835 0.87379 0.48464 1.1401 0.56691 0.56691 4.1019 0.64942 5.0934 0.1188 0.37572-0.20107 1.4987-0.42268 2.4953-0.49233 1.6781-0.11719 1.8026-0.05924 1.6838 0.78134-0.20968 1.4839 0.703 3.7081 1.5219 3.7081 1.0121 0 1.5093 0.72156 2.0946 3.0414 0.5958 2.3615 1.2576 3.2436 3.169 4.2246 0.77668 0.39861 1.8467 1.1905 2.3783 1.7601 0.53155 0.56953 1.1252 0.93726 1.3192 0.81739 0.48209-0.29794 4.1709 2.4585 5.1726 3.8653 0.97513 1.3694 1.1049 3.6401 0.20804 3.6401-0.43971 0-0.60519-0.45268-0.60519-1.6566 0-1.294-0.13032-1.6072-0.59458-1.4291-0.32931 0.12638-0.76798-0.07914-0.98345-0.461-0.70792-1.2542-1.2536-0.06553-0.79492 1.7317 0.87543 3.4308 0.89112 3.5586 0.40721 3.2595-0.25785-0.15927-0.37247-0.44462-0.25532-0.63417 0.11714-0.18953-0.16781-0.98996-0.63299-1.7784-0.56713-0.96121-0.76823-1.8022-0.61053-2.5526 0.34457-1.6396-0.22206-2.352-1.3233-1.6643-0.94513 0.59025-1.074 0.97124-0.45746 1.3523 0.78323 0.48407 0.43638 1.3455-0.44858 1.1141-0.77174-0.20182-0.82583-0.10362-0.57329 1.0461 0.26702 1.2157 0.22513 1.2695-1.0041 1.2695h-1.2837l0.25473 2.7234c0.14008 1.4979 0.0994 3.2681-0.0905 3.9338l-0.34515 1.2104-0.289-1.1466c-0.1681-0.66656-0.49315-1.0624-0.7766-0.94622-1.9155 0.7848-1.8982 0.78853-2.1472-0.45627-0.36034-1.8017-1.3658-1.2125-1.3658 0.80023 0 1.8366-0.62754 1.7471-1.1218-0.16016-0.18014-0.69518-0.54605-1.337-0.81324-1.4261-0.74198-0.24732-0.59739 2.0673 0.21809 3.4882 0.68003 1.1849 0.67695 1.2476-0.10053 1.8351-1.1576 0.87467-1.3044 0.80984-2.2175-0.97992-0.45284-0.88763-0.99075-1.6135-1.195-1.6135-0.76033 0-0.85753 0.85542-0.23817 2.0969 0.77129 1.5461 0.1457 2.6549-0.78607 1.393-0.61249-0.82949-1.4119-0.57624-1.4119 0.4474 0 0.48376-0.12013 0.54181-0.44623 0.21572-0.3261-0.3261-0.31705-1.2131 0.0337-3.2926 0.47617-2.823 0.36511-3.685-0.47459-3.685-0.56758 0-1.4282-1.0826-2.1655-2.7234-0.64308-1.4312-1.165-1.6612-1.5414-0.68027-0.34604 0.90177 0.82679 2.9556 1.9906 3.4858 1.1989 0.54625 1.2218 0.75029 0.18263 1.6401-0.44382 0.38002-0.80674 0.87403-0.80674 1.0981 0 0.52292 0.90693 0.52537 1.5331 0.0034 0.35218-0.29338 0.37382-0.27174 0.0804 0.0804-0.2219 0.26629-0.40308 0.90215-0.40308 1.4125 0 0.7163-0.22608 0.9279-0.99054 0.9279-0.80082 0-1.0382 0.25423-1.24 1.3298-0.43697 2.3296 1.3938 5.6902 2.6702 4.9013 0.46189-0.28547 0.48345-1.3895 0.0272-1.3895-0.60327 0-1.3884-3.2752-0.90191-3.7619 0.3104-0.3104 0.43499-0.23414 0.43499 0.26597 0 1.2895 1.2461 2.6589 2.6614 2.9244 0.95998 0.1801 1.373 0.47722 1.373 0.987 0 0.40097 0.12006 1.0616 0.26655 1.4681 0.21721 0.60273 0.0719 0.56212-0.78666-0.21985-1.1594-1.0561-2.4497-0.91082-2.2293 0.25118 0.0805 0.42489 0.57101 0.75788 1.2287 0.83394 1.0496 0.12134 1.0849 0.20042 0.85107 1.906-0.33386 2.4359 0.64425 4.0044 2.2914 3.675 0.66553-0.1331 1.6653 0.03202 2.3924 0.3948 0.86063 0.42931 1.7476 0.53898 2.8528 0.35225 1.2636-0.21348 1.6563-0.13514 1.8499 0.36939 0.28041 0.73074 1.5896 0.8608 1.9988 0.19858 0.15022-0.24307 0.0342-0.88906-0.25828-1.4356-0.38352-0.71655-0.76607-0.93511-1.3718-0.7831-0.95203 0.23896-1.9522-0.97207-1.5875-1.9226 0.4485-1.1688-0.62413-1.0545-1.2376 0.13179-0.87037 1.6831-1.419 1.5319-1.419-0.39066 0-1.0608-0.18066-1.6135-0.52778-1.6135-0.99727 0-1.8478 1.01-1.971 2.341-0.11516 1.2431-0.17595 1.2941-0.90781 0.75532-0.70161-0.51648-0.73501-0.74494-0.31206-2.1566 0.52928-1.7666 2.912-4.4133 2.912-3.2347 0 0.97435 3.1409 0.97383 3.5148-5.95e-4 0.1473-0.38384 0.0504-0.75269-0.22163-0.84338-0.97935-0.32644-1.6851-1.3939-1.6141-2.4415 0.0402-0.59225-0.0528-1.4599-0.20684-1.9279-0.18144-0.55147-0.0637-1.0301 0.33451-1.3605 0.71287-0.59171 0.7373-0.50888 0.78488 2.6153l0.0308 2.0172 1.5047 0.12471c1.2941 0.10728 1.6808-0.07617 2.7654-1.3115 1.5393-1.7531 2.5225-1.8082 4.0012-0.22518 0.62188 0.66573 1.33 1.2104 1.5739 1.2104 0.40613 0 0.48605-0.22563 0.60521-1.7151 0.0222-0.27736-0.27776-0.45112-0.66609-0.38593-0.98196 0.16488-0.942-1.7089 0.0638-2.9876 0.42357-0.53847 0.88968-1.8467 1.0355-2.9072 0.28229-2.0524 0.80645-3.245 1.237-2.8144 0.36605 0.36605-0.2003 2.7406-0.65367 2.7406-0.6197 0-0.41787 0.7908 0.43559 1.7069 0.44381 0.47638 0.80674 1.098 0.80674 1.3812 0 0.28321-0.36293 0.70928-0.80674 0.94681-1.1604 0.62103-1.0779 1.7525 0.1011 1.3865 0.4993-0.15497 1.053-0.53073 1.2305-0.83452 0.50154-0.85858 1.0129-0.65957 1.6944 0.6584 0.71764 1.3877 1.412 1.5864 1.412 0.40367 0-0.96189 0.51342-1.0422 1.2205-0.19031 0.4002 0.48217 0.40871 0.84557 0.0379 1.6596-0.30045 0.6595-0.33582 1.21-0.0957 1.5006 0.20861 0.25255 0.50721 1.1423 0.66312 1.977 0.22837 1.2221 0.0659 1.948-0.83452 3.7276l-1.1182 2.2098 1.0721 0.9941c1.0684 0.9901 1.3972 1.8393 0.71218 1.8393-0.19816 0-0.46-0.2603-0.58216-0.57862-0.18145-0.47279-0.44756-0.49377-1.4551-0.11346-0.67827 0.25602-1.2335 0.60298-1.2335 0.77069 0 0.16767-0.52791 0.19938-1.1732 0.07034-0.92295-0.18459-1.2704-0.05341-1.6283 0.61525-0.25018 0.46746-0.696 0.84989-0.99113 0.84989-1.0576 0-2.7044 1.6555-2.4486 2.4616 0.16833 0.53036 0.0487 0.76597-0.38889 0.76597-1.0873 0-0.70089-1.5358 0.80616-3.2039 1.2286-1.3599 1.373-1.7145 0.98996-2.4303-0.65181-1.2179-0.19028-1.6283 1.8316-1.6283 1.3237 0 1.792 0.15809 1.792 0.60521 0 0.33286 0.31788 0.6052 0.70627 0.6052 0.51001 0 0.89933-0.64422 1.4019-2.3198 0.96886-3.23 1.2676-5.6106 0.74469-5.9338-0.23757-0.14683-0.43203-0.68798-0.43203-1.2027 0-1.3222-2.289-2.3115-3.0237-1.3067-0.27208 0.37211-0.67969 0.67671-0.90544 0.67671-0.72798 0-1.4836 1.2607-1.4143 2.3599 0.0379 0.60026-0.33819 1.5656-0.85756 2.201-0.83569 1.0221-1.0285 1.0851-1.9858 0.64894-0.87635-0.3993-1.2376-0.36678-2.0851 0.18854-1.3811 0.90491-1.3899 2.5523-0.0166 3.0745 1.3421 0.51027 1.3112 1.8587-0.0756 3.3062-1.0796 1.1269-2.6773 1.496-3.1519 0.72813-0.42651-0.69011-1.742-0.44317-2.3629 0.44326l-0.59279 0.84635-0.45272-0.84635c-0.24912-0.4655-0.69679-0.84633-0.99468-0.84633s-0.75055-0.25201-1.0059-0.5597c-0.25535-0.30768-1.6647-0.68804-3.1318-0.84516-2.33-0.24952-2.9114-0.16611-4.5952 0.66016-1.0602 0.52027-2.1261 1.368-2.3688 1.883-0.61221 1.2993-1.8079 0.99276-1.9793-0.50709-0.074-0.64735-0.57307-1.8225-1.1093-2.6117-0.53627-0.78918-0.97518-1.7769-0.97518-2.195 0-0.59658-0.22079-0.71813-1.0248-0.56442-0.64722 0.12372-0.96905 0.02928-0.87413-0.25591 0.08269-0.2483 0.49834-0.50381 0.92377-0.56797 2.2018-0.33184 2.5893-0.53444 2.5893-1.3558 0-0.75072-0.17065-0.82419-1.4326-0.61939-1.3342 0.21651-1.4118 0.1714-1.1401-0.65367 0.5774-1.7527 0.40891-2.5015-0.55437-2.4675-0.4993 0.01761-0.90781-0.16921-0.90781-0.4149 0-0.70548-1.6307-1.9159-2.2571-1.6755-0.69674 0.26737-0.72923 1.2043-0.078 2.2471 0.62544 1.0015 0.0191 1.6569-0.66608 0.71986-0.28314-0.38722-1.0751-0.81585-1.7595-0.95272-0.89844-0.17969-1.357-0.57277-1.6501-1.4137-0.3017-0.86547-0.66525-1.1643-1.4155-1.1643-0.55529 0-1.1762 0.29706-1.3794 0.66018-0.28271 0.50517-0.43278 0.23436-0.64066-1.1519-0.27986-1.8662-1.6472-3.5432-2.8883-3.5432-0.3648 0-1.0466 0.92294-1.6401 2.2193-0.70067 1.5305-1.2489 2.2187-1.7666 2.2187-0.50413 0-0.79248 0.34084-0.87825 1.0378-0.1477 1.2004-1.1603 1.8352-4.4652 2.7991-2.0932 0.61052-2.5189 0.95421-2.3676 1.9125 0.08315 0.52654-1.7349 0.30215-2.5509-0.31502-0.43075-0.3258-1.5572-0.59279-2.503-0.59279-0.94573 0-2.1949-0.21633-2.776-0.4811-0.8616-0.39257-1.1245-0.37437-1.425 0.10053-0.3039 0.48036-0.37013 0.45899-0.37471-0.12352-0.0034-0.42781-0.31452-0.70628-0.78901-0.70628-0.43073 0-0.88971-0.17262-1.0201-0.38357-0.13037-0.21142-0.85803-0.30406-1.617-0.20685-0.759 0.09721-1.4779 0.01853-1.5975-0.17495-0.35018-0.56659-5.0692 0.15032-5.0692 0.77011 0 0.16898-0.80936 0.42851-1.7985 0.57683-2.4696 0.37034-4.0274 2.164-3.6773 4.2329 0.61642 3.6426 0.62007 4.3784 0.02482 4.8724-0.33045 0.27426-0.60107 0.9022-0.60107 1.3954 0 0.4932-0.752 2.0598-1.6714 3.4811-0.91942 1.4213-1.9431 3.4016-2.2748 4.4001-0.33174 0.99858-0.85029 2.1018-1.1525 2.4522-0.30221 0.35034-0.54965 0.93682-0.54965 1.3032 0 1.3212-1.3021 3.885-2.1023 4.1389-0.68892 0.21865-0.7842 0.50534-0.60639 1.831v5.95e-4c0.11596 0.86435 0.07205 1.6572-0.09813 1.7624-0.41008 0.25344-3.649-2.752-3.649-3.386 0-0.27196 0.43809-1.2525 0.97341-2.1797 0.53532-0.92715 1.6336-3.6336 2.4403-6.0142 0.80676-2.3806 1.7294-4.8317 2.0503-5.4468 0.32086-0.61503 0.58455-1.4143 0.5857-1.7754 0.0011-0.3611 0.2747-0.88273 0.60756-1.159 0.77444-0.64292 0.77838-2.1897 0.0069-2.961-0.66986-0.66992-2.0531-0.47674-3.1082 0.4344-0.61692 0.53276-0.7165 0.44339-1.0727-0.96455-0.93098-3.6797-0.94154-5.1848-0.04552-6.3239 0.46908-0.59626 1.0131-2.1243 1.211-3.4007 0.43506-2.8052 0.9835-5.0827 1.3777-5.7205 0.31462-0.50906 0.67668-3.5944 0.75296-6.4197 0.04277-1.5851-0.12988-1.9201-1.8008-3.4988-1.1604-1.0963-1.9458-2.2356-2.1111-3.0621-0.14478-0.7239-0.55553-1.6392-0.91254-2.0337-0.60128-0.66441-0.57105-0.81001 0.4084-1.974 1.2622-1.5002 1.3545-3.1284 0.2565-4.5243-0.5826-0.74067-0.78811-1.5826-0.75414-3.091 0.03168-1.4036-0.16549-2.3078-0.61111-2.8003-0.88181-0.97439-0.86525-1.046 0.72104-3.1235 0.75856-0.99345 1.5006-2.5254 1.6489-3.4037 0.30636-1.8133 0.93654-2.4319 1.4829-1.4557 0.50319 0.89915 1.4315 0.83504 1.7347-0.11997 0.13651-0.43011 0.8579-0.98348 1.6028-1.2293 1.0752-0.35485 1.5689-0.90038 2.396-2.6472 0.74937-1.5826 1.4205-2.398 1.7092-2.1814zm13.233 4.9196c-0.14902 0.14901-0.15838 0.56434-0.0207 0.92318 0.25462 0.66355 1.44 0.6875 1.5851 0.03191 0.10716-0.48423-1.2231-1.2964-1.5644-0.95509zm-10.359 0.38062c-0.57478-0.10888-0.70627 0.15902-0.70627 1.4421 0 0.86692 0.11934 1.6956 0.26536 1.8416 0.14602 0.14602 0.51829 0.05558 0.82743-0.20095 0.79195-0.65726 0.50923-2.9131-0.38652-3.0828zm13.819 0.12706c-0.29587 0-0.61387 0.22676-0.70628 0.50414-0.09996 0.30001 0.18625 0.50414 0.70628 0.50414 0.52003 0 0.80622-0.20413 0.70627-0.50414-0.09241-0.27738-0.41038-0.50414-0.70627-0.50414zm-7.9658 0.36702c-0.10145 0.10145-0.06473 0.378 0.08154 0.61467 0.32189 0.52082 1.4285 0.5748 1.4285 0.06976 0-0.409-1.2286-0.96582-1.5101-0.68441zm13.447 0.7435c-0.32544-0.32544-2.0642 0.8202-2.9953 1.9734-1.0025 1.2417-3.0352 2.4867-3.4244 2.0975-0.1283-0.1283-0.12843-0.75706-5.95e-4 -1.3966 0.25749-1.2874-0.25922-1.521-1.2258-0.55437-0.40917 0.40908-0.54657 1.1025-0.41963 2.1182 0.18511 1.4813 0.16823 1.4676-0.90367-0.70923-0.60099-1.2205-1.1431-2.2861-1.2045-2.3682-0.06142-0.08212-0.57438-0.03305-1.1395 0.10876-1.2265 0.30785-1.4042 1.6825-0.26418 2.0443 0.41985 0.13325 0.8595 0.60937 0.97696 1.0585 0.11746 0.44915 0.7725 1.0276 1.4557 1.2855 1.6028 0.60503 1.622 1.5024 0.03191 1.5024-0.66572 0-1.2104-0.18117-1.2104-0.40307 0-0.61925-0.86448-0.47922-1.3783 0.22341-0.6605 0.90329-1.8493 0.31249-1.8493-0.91904 0-0.86015-0.15049-0.98391-1-0.82152-1.0906 0.2085-1.972-0.7523-2.4551-2.6773-0.29691-1.183-0.66584-1.3144-1.3564-0.48227-0.36777 0.44312-0.28645 0.95608 0.36761 2.3204 1.5619 3.2579 2.3904 3.751 6.9675 4.1472 0.6115 0.05295 1.2322 0.21619 1.3788 0.36288 0.14669 0.14668 0.80332 0.26714 1.4592 0.26714 1.0143 0 1.1175 0.09047 0.69031 0.6052-0.27625 0.33286-0.92345 0.60521-1.438 0.60521-0.51451 0-1.0388 0.16656-1.1649 0.37057-0.24667 0.39912 0.81546 1.6466 1.4019 1.6466 0.8563 0 2.4156-0.99249 2.6324-1.6755 0.23403-0.7374 1.7961-1.8559 1.7961-1.2861 0 0.1621-0.4629 0.77854-1.029 1.3694l-1.0296 1.0739 0.9285 1.0656c0.76836 0.88166 1.2241 1.0479 2.643 0.96514 1.4482-0.08452 1.7143-0.23352 1.7145-0.95864 4.58e-4 -1.1961 1.1396-2.1266 1.6336-1.3345 0.27235 0.43673 0.53148 0.47251 1.0544 0.14658 1.0425-0.6498 1.1254-1.383 0.15603-1.383-0.72005 0-0.7892-0.12332-0.43736-0.78074 0.65614-1.2259 0.49472-2.0314-0.48995-2.4433-0.49929-0.20883-1.2582-0.65704-1.6868-0.99587-0.76455-0.6045-0.76131-0.63509 0.16726-1.6235 0.71427-0.76037 0.92989-1.4201 0.88003-2.6921-0.03625-0.92682-0.14138-1.7608-0.23345-1.8529zm10.709 1.1537c-0.1846 0.01979-0.36738 0.10854-0.53369 0.27482-0.60843 0.60845-0.06016 2.4027 1.0845 3.5473 0.99147 0.99146 2.7764 1.3045 3.2323 0.56679 0.13843-0.22398-0.30027-0.72308-0.97459-1.1093-0.73703-0.4222-1.3259-1.1559-1.4764-1.8393-0.13793-0.6265-0.4377-1.0841-0.78664-1.302-0.17447-0.10888-0.36092-0.15808-0.54551-0.1383zm-15.043 0.05856c-0.24832 0.03545-0.52779 0.2536-0.65249 0.62766-0.08783 0.26351 0.12797 0.47873 0.47932 0.47873 0.35135 0 0.63889-0.28754 0.63889-0.63889 0-0.35625-0.2174-0.50297-0.46572-0.4675zm-20.288 0.37352c-0.14166 0.08704-0.27018 0.26388-0.37529 0.53783-0.3353 0.87377 1.2245 3.6631 2.6903 4.8103 1.1449 0.896 1.2056 1.0617 0.75355 2.0538-0.61347 1.3464-1.6852 1.1627-4.4291-0.75946-1.6047-1.1241-2.4959-2.2903-3.4356-4.4971-0.10659-0.25037-0.36952-0.2175-0.69327 0.08749-1.3287 1.2516 2.6286 7.3765 4.766 7.3765 0.84718 0 1.5773 0.6674 1.1726 1.0721-0.68035 0.68035-3.7915-1.6669-5.2973-3.9971-0.70573-1.0921-1.8345-1.5144-1.8345-0.68618 0 1.3717 2.994 4.8272 5.2098 6.013 0.46345 0.24803 0.8422 0.63212 0.8422 0.85403 0 0.55158-1.5394-0.27224-2.9279-1.5674-0.79661-0.74305-1.2357-0.91387-1.5479-0.60166-0.65875 0.65874 1.5779 2.9435 3.2713 3.3416 2.9532 0.69436 3.7241 0.46037 4.4072-1.3363 0.61499-1.6174 0.53555-1.9703-0.37825-1.6803-0.62932 0.19974-0.80674 0.07251-0.80674-0.57801 0-0.6093 0.25851-0.83394 0.95923-0.83394 0.52753 0 1.1853-0.27232 1.4616-0.6052 0.53662-0.64658 2.8239-0.84617 2.8239-0.24645 0 0.6122 2.6813 0.89923 3.7689 0.40367 2.0632-0.94005 1.4706-2.3628-0.75177-1.805-0.55883 0.14025-1.3781 0.06176-1.8204-0.17494-0.51456-0.27536-1.0467-0.29439-1.4787-0.05261-0.81407 0.45557-3.3493-1.3705-3.3493-2.4125 0-0.36117-0.27158-0.88181-0.60342-1.1572-0.33184-0.2754-0.81405-1.2055-1.0721-2.0668-0.3597-1.2006-0.90011-1.7533-1.3251-1.4923zm28.003 0.42613c-0.15941 0.0046-0.31524 0.07011-0.44089 0.17376-0.2514 0.20739-0.38107 0.56847-0.17318 0.90484 0.14909 0.24124 0.43137 0.43854 0.62708 0.43854 0.6232 0 0.91416-0.86069 0.44858-1.3263-0.13914-0.13914-0.30216-0.19548-0.46158-0.19089zm2.5857 0.30674c-0.68398 0-0.73114 1.2772-0.07148 1.9368 0.65102 0.65103 1.1071 0.6099 1.3895-0.12589 0.27516-0.71707-0.52101-1.8109-1.318-1.8109zm-32.631 0.40367c-0.62393 0-0.80131 0.47589-0.34693 0.93027 0.32234 0.32235 0.95214-0.04209 0.95214-0.55084 0-0.20882-0.27235-0.37943-0.60521-0.37943zm6.925 1.6891c-0.1266-0.09344-0.37056-0.01029-0.83984 0.16962-0.8336 0.31987-0.80891 1.1842 0.06793 2.3901 0.38834 0.53407 1.0236 0.97659 1.4119 0.98345 0.862 0.01544 0.94176-1.1325 0.1011-1.4551-0.33286-0.12773-0.6052-0.66697-0.6052-1.198 0-0.52668-0.0091-0.79657-0.13594-0.89008zm14.513 0.92613c0.08292 0.0406 0.10408 0.13687 0.0549 0.28429-0.20105 0.60312-1.1176 0.93516-1.1176 0.40484 0-0.21666 0.2875-0.50405 0.6389-0.63889 0.19644-0.07537 0.34081-0.09081 0.42376-0.05021zm1.3582 1.016c0.22191 0 0.40307 0.18176 0.40307 0.40367 0 0.2219-0.18116 0.40307-0.40307 0.40307-0.2219 0-0.40367-0.18117-0.40367-0.40307 0-0.22191 0.18177-0.40367 0.40367-0.40367zm24.185 0.69622c-0.6195 0.162-0.78369 0.56095-0.78369 1.906 0 0.93572 0.12097 1.8225 0.2689 1.9705 0.9385 0.93844 1.7488-0.13566 1.7488-2.3192 0-1.5717-0.20251-1.8271-1.234-1.5573zm-20.349 0.51418c0.53899 0 0.08521 1.0209-0.83097 1.87-1.1832 1.0965-1.3913 1.1599-1.3913 0.42199 0-0.48521 1.7518-2.292 2.2222-2.292zm16.448 0c-0.71976 0-1.0642 1.7965-0.53428 2.7867 0.50387 0.94149 0.86803 1.0457 1.4882 0.42553 0.54258-0.54259-0.2502-3.2122-0.95391-3.2122zm-9.7453 0.56325c-0.21511-8e-3 -0.44025 0.06633-0.65367 0.2435-0.81587 0.67711-0.76467 1.8844 0.1011 2.3877 1.0008 0.58187 1.4942 0.32861 1.6342-0.83924 0.11936-0.99612-0.43622-1.7675-1.0816-1.792zm-3.8812 0.64717c-0.62393 0-0.80189 0.47588-0.34751 0.93026 0.32235 0.32235 0.95272-0.04209 0.95272-0.55083 0-0.2088-0.27235-0.37943-0.60521-0.37943zm25.227 1.6631c-0.38187-0.06222-1.1144 0.4937-2.3599 1.6419-1.0751 0.99101-1.9014 1.4922-1.9953 1.2104-0.29993-0.89978-1.6802-0.52509-1.9445 0.52778-0.30662 1.2217-0.73859 1.2772-1.4982 0.19267-0.3592-0.51286-0.81757-0.72165-1.2335-0.56206-0.94669 0.36328-0.8167 1.625 0.24586 2.3848 0.5728 0.40953 1.3361 0.56727 2.068 0.42672 0.63798-0.12257 2.025-0.22282 3.0822-0.22282 2.6515 0 3.5807-0.84222 3.8942-3.5302 0.15466-1.326 0.12306-2.0069-0.25888-2.0692zm-19.319 0.16608c-0.25719 0.1946-0.45278 0.65457-0.59988 1.3901-0.18068 0.90343-0.4687 1.2187-1.1129 1.2187-0.52269 0-1.6935 0.85736-2.9368 2.1513-3.0366 3.1604-5.0169 4.0572-4.5113 2.0426 0.29455-1.1736-0.64564-2.9835-1.5503-2.9835-1.3942 0-0.70979 3.7247 0.7902 4.3003 0.32126 0.12328 0.58392 0.47753 0.58392 0.78664 0 0.71998 1.1931 0.70239 2.1625-0.03191 0.59138-0.44791 0.91174-0.46726 1.5142-0.09104 0.56233 0.35114 0.95016 0.35959 1.4687 0.03248 0.89297-0.56327 0.69678-1.1935-0.33215-1.0668-0.71964 0.08864-0.69642-0.03648 0.28073-1.513 0.89647-1.3547 1.2833-1.6093 2.4421-1.6093 2.4734 0 4.3976-3.073 2.7701-4.4238-0.39345-0.32654-0.71208-0.39731-0.96928-0.20272zm26.975 0.59161c-0.53796 0-0.80673 0.26879-0.80673 0.80675 0 0.88849 0.0495 0.91729 0.97518 0.56206 0.91427-0.35084 0.78908-1.3688-0.16845-1.3688zm9.633 0.10991c-0.29772 0.04129-0.58874 0.33331-0.68914 0.85107-0.0739 0.38086 0.16433 1.1488 0.52957 1.7063 0.37241 0.56836 0.96289 0.95631 1.3446 0.88357 0.85929-0.16371 1.1817-1.9368 0.35226-1.9368-0.32242 0-0.68576-0.38269-0.80793-0.84989-0.12716-0.48622-0.43161-0.69554-0.72932-0.65426zm-8.5781 1.6176c-0.33641-0.33641-1.4586 0.70096-1.4586 1.3481 0 0.87256 1.1266 0.64917 1.422-0.28191 0.14616-0.46054 0.16249-0.94033 0.0366-1.0662zm6.0373 2.5449c-0.3207-0.12516-0.70427 0.09275-0.87234 0.76242-0.13415 0.53433-0.11908 1.1728 0.0331 1.419 0.44765 0.72431 1.2014 0.22359 1.3339-0.88594 0.0839-0.7025-0.17397-1.1704-0.49469-1.2955zm-5.8818 0.36762c-0.32679 0-0.65511 0.31734-0.72991 0.70568-0.0954 0.49539 0.12222 0.70626 0.72991 0.70626 0.60768 0 0.8253-0.21087 0.72992-0.70626-0.0748-0.38834-0.40314-0.70568-0.72992-0.70568zm-64.895 0.38003c-0.23212-0.01361-0.43967 0.03545-0.57447 0.17022-0.29604 0.29601-0.26385 0.61701 0.10694 1.0638 0.58804 0.70853 1.6612 0.66694 1.9078-0.07388 0.17255-0.51829-0.74392-1.1195-1.4403-1.1602zm43.021 0.3026c-0.23148 0.03683-0.31616 0.15845-0.31502 0.37411 0.0046 1.0505 2.1288 1.7982 5.4415 1.9161 1.7738 0.06313 3.3119 0.20131 3.4179 0.30733 0.34771 0.34771-0.97124 0.94291-2.1029 0.94977-0.86598 0.0046-1.2286 0.29289-1.6584 1.3174-0.69084 1.6469-0.53436 1.9167 1.1099 1.9167 2.0827 0 2.081 0.53184-0.0034 1.2015-1.9857 0.63795-2.8553 1.6229-1.4326 1.6229 0.44381 0 0.87401 0.2005 0.95567 0.44563 0.26115 0.78345 3.5123-0.46996 4.3801-1.6885 0.95134-1.336 0.96343-1.4866 0.13417-1.6531-0.55475-0.1114-0.52803-0.24031 0.18203-0.88122 0.82762-0.74702 0.83309-0.74016 1.1123 1.3647 0.2023 1.525 0.62313 2.5059 1.5095 3.5154 1.0711 1.2198 1.1457 1.447 0.57683 1.7654-0.35911 0.20097-0.85371 0.9728-1.0987 1.7151s-0.89376 1.7709-1.4421 2.2861l-0.99716 0.93674v-0.88713c0-0.48804 0.36312-1.9217 0.80733-3.1856 0.78517-2.234 0.78735-2.3185 0.06325-3.0426-0.72412-0.72413-0.78048-0.71475-2.0183 0.32683-0.70028 0.58925-1.2731 1.3061-1.2731 1.5934 0 0.28725-0.36292 0.61739-0.80674 0.73345-0.54467 0.14244-0.80733 0.01247-0.80733-0.40012 0-0.47374-0.24931-0.54084-1.1094-0.29788-0.61025 0.1724-1.6394 0.32827-2.2867 0.34634-1.5013 0.04197-1.828 0.92994-0.46809 1.2713 1.1561 0.29014 1.0191 0.9805-0.19444 0.9805-1.0109 0-0.99699 0.72907 0.03488 1.8274 0.44987 0.47881 1.2219 1.669 1.7151 2.6448 1.0671 2.1111 2.9016 3.3524 3.529 2.3871 0.3183-0.48972 0.45919-0.50435 0.73641-0.07503 0.221 0.34228 0.97279 0.48567 2.1182 0.40367l1.7754-0.12708 0.12175-2.1182c0.11506-1.9983 0.52125-2.6329 1.0928-1.7081 0.53484 0.86538 1.0522-0.14382 0.8097-1.5792-0.43961-2.6021 1.0566-5.0016 1.6484-2.6436 0.31518 1.2557-0.92348 5.4031-1.7027 5.7022-0.61094 0.23444-0.74316 2.0356-0.211 2.8747 0.36257 0.57168 2.2529 0.30286 3.2146-0.45685 0.72948-0.57635 1.354 0.44935 0.84871 1.3936-0.63401 1.1846-0.42365 3.1272 0.43144 3.9823 0.94877 0.94836 2.4202 1.0711 2.4202 0.20154 0-0.33286-0.26597-0.60521-0.59102-0.60521-1.1699 0-1.4905-1.4612-1.0367-4.724 0.30855-2.2168 0.30619-3.1646-9e-3 -3.3594-0.27281-0.1686-0.33482-0.82721-0.1637-1.7394 0.24261-1.2932 0.16217-1.5128-0.67672-1.8487-0.52364-0.2097-0.82511-0.39255-0.67022-0.40662 0.63308-0.05753-0.62297-2.4303-2.1578-4.0763-1.5891-1.7041-1.6322-1.8231-1.3735-3.7967 0.55292-4.2186 0.59772-4.055-1.1105-4.055h-1.5361l1.0313-0.82211c0.56735-0.45216 1.0319-1.0281 1.0319-1.2796 0-0.60636-2.3205-1.0977-2.9415-0.62294-0.56842 0.4345-6.6514 0.37234-8.86-0.09047-0.58569-0.12271-0.96416-0.17036-1.1956-0.13357zm25.317 0.0034c-0.31531-0.31529-1.8292 1.1717-1.8292 1.7967 0 0.96425 1.2175 0.57555 1.6348-0.52188 0.22258-0.58555 0.31024-1.159 0.19444-1.2748zm8.8523 0.85344c-0.18065-0.06885-0.28249 0.05673-0.39421 0.34398-0.1444 0.37123 0.0482 1.1477 0.42967 1.7299 0.68285 1.0422 1.4008 1.1867 1.6832 0.33924 0.0797-0.2391-0.30398-0.954-0.85284-1.5887-0.42557-0.4921-0.6852-0.75558-0.86585-0.82448zm-37.043 0.06496c-0.734-0.14247-1.3357-0.07468-1.6962 0.22459-0.8991 0.74611-0.70558 1.1952 0.52127 1.211 0.61024 8e-3 1.5635 0.27387 2.1182 0.59102 2.196 1.2554 3.6808 0.30707 1.5491-0.98936-0.89177-0.54232-1.7583-0.89478-2.4923-1.0372zm23.739 0.21099c-0.33286 0-0.60521 0.27235-0.60521 0.60521s0.27235 0.6052 0.60521 0.6052 0.60519-0.27234 0.60519-0.6052-0.27233-0.60521-0.60519-0.60521zm-27.172 0.50709c-0.24832-0.03545-0.46514 0.11128-0.46514 0.4675 0 0.35135 0.28755 0.6389 0.6389 0.6389 0.35135 0 0.56655-0.21521 0.47872-0.47873-0.12469-0.37407-0.40417-0.59219-0.65248-0.62767zm-34.721 0.07388c-0.60282 0.37254-0.55984 1.7287 0.0621 1.9592 0.27739 0.10282 0.77022-0.0637 1.0952-0.36997 0.51804-0.48822 0.50982-0.63735-0.06267-1.2098-0.35912-0.35907-0.85136-0.52974-1.0946-0.37943zm69.923 0.7701c-0.1043 0.06645-0.16195 0.19848-0.16195 0.38948 0 0.33923 1.1207 1.3488 2.49 2.2435 2.3345 1.5254 3.159 1.7418 3.159 0.82861 0-0.37147-3.8125-2.9842-5.0444-3.4569-0.1871-0.07182-0.33841-0.07114-0.44267-0.0046zm-26.871 0.26242c-0.83936 0-0.88101 0.16734-0.30851 1.237 0.46759 0.8737 2.003 1.0699 2.003 0.25591 0-0.74846-0.84485-1.4929-1.6945-1.4929zm19.9 0c-0.58316 0-1.349 1.1435-1.0692 1.5963 0.50432 0.81602 1.4232 0.43674 1.4232-0.58748 0-0.55477-0.15928-1.0089-0.35402-1.0089zm-12.001 0.53782c0.87169 0 0.82553 0.19801-0.25414 1.0987-0.49929 0.41652-1.2169 0.76441-1.5952 0.77127-0.57262 0.01144-0.53032-0.14462 0.25354-0.92849 0.51778-0.51778 1.236-0.9415 1.5958-0.9415zm-18.309 0.26951c-0.8038 0-1.0493 0.42939-0.53783 0.94091 0.4914 0.4914 1.3446 0.27854 1.3446-0.33571 0-0.33622-0.35843-0.6052-0.80674-0.6052zm-1.7234 0.15898c-0.36-0.36-1.955 0.64897-1.6939 1.0715 0.13027 0.21077 0.38574 0.38298 0.56738 0.38298 0.47418 0 1.3937-1.1872 1.1265-1.4545zm-31.939 0.24412c-0.74194 0-1.2789 0.95394-1.6501 2.9326-0.39883 2.126 0.73083 2.036 1.8446-0.14716 0.88769-1.74 0.81495-2.7855-0.19445-2.7855zm33.699 1.3582c-0.81696-0.08658-1.6786 0.04232-2.2571 0.42141-0.55379 0.36286-1.0065 0.92816-1.0065 1.2559 0 0.66748 1.4285 0.81912 1.8156 0.19268 0.41396-0.6698 1.304-0.45893 2.4988 0.59219 0.62263 0.54776 1.3347 1.002 1.5822 1.0089 0.71007 0.02013 2.5763-1.5995 2.5763-2.2358 0-0.6613-0.63921-0.77068-1.0089-0.17257-0.37012 0.59886-1.6464 0.48872-2.2104-0.1909-0.40072-0.48282-1.173-0.78518-1.99-0.87176zm36.217 0.25591c-1.042 0-0.93605 0.93633 0.16017 1.4173 0.73788 0.32373 0.91052 0.72736 0.92081 2.1555 0.014 1.8521 0.67927 2.6867 2.5083 3.146 0.52877 0.13277 0.9078 0.53687 0.9078 0.96809 0 0.40718 0.40398 1.0228 0.89717 1.3682 1.016 0.71161 2.331 0.83445 2.331 0.2175 0-0.22599-0.47339-1.3154-1.0514-2.4208-0.94636-1.8099-1.1873-2.0101-2.4208-2.0101-1.3001 0-1.3694-0.07297-1.3694-1.4315 0-1.5833-1.545-3.4102-2.8836-3.4102zm-27.15 0.19386c-0.2597 0.06279-0.39255 0.53296-0.3221 1.3919 0.0931 1.1353 0.0057 1.2643-0.70568 1.0384-0.74778-0.23735-0.81265-0.07892-0.81265 1.9888 0 1.9773 0.09641 2.2459 0.80674 2.2459 0.44382 0 0.80733-0.20087 0.80733-0.44621 0-0.24536 0.45351-0.98551 1.0083-1.6448 1.1968-1.4224 1.2363-1.8817 0.30261-3.5219-0.43833-0.76999-0.82482-1.1148-1.0845-1.052zm35.787 0.28547c-0.95935 0.18475-1.1125 1.3735-0.33098 2.5662 0.35635 0.54386 0.81463 0.98936 1.0183 0.98936 0.63525 0 0.93411-0.85553 0.46337-1.3263-0.24694-0.24696-0.44917-0.88003-0.44917-1.4066 0-0.69238-0.19436-0.92038-0.70154-0.8227zm-13.823 2.9504c-0.33286 0-0.56775 0.18116-0.52246 0.40307 0.13871 0.67973 1.0005 3.1534 1.5922 4.5698 0.67452 1.6146 1.6127 1.5039 1.4114-0.16667-0.21105-1.7506-1.7885-4.8062-2.4811-4.8062zm17.349 1.6135c0.22191-0.13714 0.40366 0.02299 0.40366 0.3558 0 0.33286-0.18175 0.71746-0.40366 0.85462-0.2219 0.13714-0.40367-0.02299-0.40367-0.3558 0-0.33286 0.18177-0.71746 0.40367-0.85461zm-14.023 2.7689c-0.0797 0.09058-0.0981 0.37841-0.0981 0.91077 0 0.67629 0.12098 1.3503 0.26891 1.4982 0.14794 0.14794 0.52311 0.2689 0.83394 0.2689 0.67119 0 0.33768-1.4819-0.54138-2.406-0.24327-0.25579-0.3837-0.36244-0.46336-0.27188zm15.234 2.4764c0.22191 0.13715 0.40366 0.32941 0.40366 0.42731s-0.18175 0.17789-0.40366 0.17789c-0.22192 0-0.40367-0.1923-0.40367-0.42731 0-0.235 0.18175-0.31503 0.40367-0.17789zm-24.689 1.594c0.04563 0.09298 0.03991 0.36065-0.0057 0.82683-0.09458 0.96352 0.02539 1.186 0.58748 1.0916 0.85636-0.14379 0.90054 0.18338 0.12943 0.95449-0.31701 0.31701-0.77112 0.57625-1.0089 0.57625-0.55038 0-0.55343-2.4271-0.0046-3.2276 0.15995-0.2331 0.25644-0.31466 0.30202-0.22164zm-8.7991 2.0373c0.22191-0.13712 0.4006-0.1027 0.39717 0.07686-0.0034 0.17953-0.18205 0.59917-0.39717 0.93203-0.33701 0.52154-0.39204 0.51056-0.39776-0.07743-0.0034-0.37524 0.17586-0.7943 0.39776-0.93145zm31.453 4.3446c-0.2047 0.05387-0.45965 0.19842-0.74587 0.45746-0.39183 0.3546-0.91904 0.6448-1.172 0.6448-0.25294 0-0.35587 0.27234-0.22813 0.6052 0.33503 0.87311 1.0838 0.74568 2.1235-0.36111 0.79897-0.85047 0.63656-1.5078 0.0224-1.3463zm7.0857 0.29551c0.45171 0 0.54699 0.26416 0.36112 1.0047-0.17955 0.71539-0.066 1.0765 0.39539 1.2536 0.35639 0.13676 0.64834 0.41059 0.64834 0.60876 0 0.80953-1.2586 0.28703-1.6241-0.67436-0.55991-1.4727-0.48793-2.1927 0.21926-2.1927zm-4.308 1.688c-0.25346 0.0046-0.57189 0.08589-0.94504 0.25591-1.2501 0.56958-1.7359 1.638-0.96632 2.1253 0.92719 0.58709 1.4427 0.42449 2.1685-0.68322 0.67983-1.0375 0.50329-1.7122-0.2571-1.698zm-37.284 1.1359c0.31791 0 0.69306 0.36351 0.83392 0.80733 0.14086 0.44381 0.42543 0.80675 0.6324 0.80675 0.20695 0 0.37648 0.18176 0.37648 0.40367 0 0.73554-1.155 0.41762-1.7932-0.4935-0.7807-1.1146-0.79371-1.5242-0.04964-1.5242zm5.8771 0.80733c0.22191 0 0.40367 0.18117 0.40367 0.40308 0 0.2219-0.18176 0.40367-0.40367 0.40367s-0.40307-0.18177-0.40307-0.40367c0-0.22191 0.18116-0.40308 0.40307-0.40308zm-1.5898 1.2104c0.2088 0 0.37943 0.36292 0.37943 0.80674 0 0.85094-0.5866 1.0859-1.0083 0.40367-0.29422-0.47604 0.08726-1.2104 0.62885-1.2104zm-53.259 0.02367c-0.75074-0.07194-1.2329 0.57131-1.2329 1.779 0 1.2269 0.13136 1.425 0.94858 1.425 0.52195 0 1.5663 0.43708 2.3204 0.97164 1.6718 1.1853 2.138 1.1171 2.3091-0.33866 0.13977-1.1889-1.2186-3.0538-2.2246-3.0538-0.29719 0-0.87701-0.21056-1.2884-0.4675-0.30199-0.18861-0.58191-0.29162-0.83215-0.3156zm20.61 1.6371c0.22562 0.05833 0.22074 0.2176 0.10876 0.50947-0.22318 0.58151-0.10911 0.61272 0.87294 0.23935 0.91178-0.34659 1.1965-0.30852 1.4793 0.19682 0.24427 0.43648 0.66488 0.54667 1.3901 0.36466 0.76696-0.19247 0.9925-0.11932 0.85993 0.27838-0.26283 0.78851-1.937 1.1066-3.5562 0.67553-0.77667-0.20673-2.2746-0.27556-3.3286-0.15249-1.6905 0.19738-1.9167 0.13382-1.9167-0.54019 0-0.97733 0.33119-1.1657 2.5981-1.4764 0.81082-0.11117 1.2667-0.1535 1.4923-0.09516zm43.799 0.17553c-0.20886-8e-3 -0.44943 0.05581-0.71514 0.198-0.86976 0.46547-1.2649 1.4969-0.95154 2.4841 0.17646 0.55602 0.54836 0.73827 1.3209 0.64894 0.89715-0.10373 1.0965-0.35079 1.2057-1.4941 0.10911-1.1429-0.23338-1.8131-0.85993-1.8369zm-7.3168 3.4084c0.34591 0 0.51718 0.18176 0.38003 0.40367-0.13714 0.22191-0.42063 0.40367-0.62943 0.40367-0.20882 0-0.37943-0.18176-0.37943-0.40367s0.28287-0.40367 0.62884-0.40367zm13.738 2.6425c3.5717 0.3825 4.1865 1.1385 4.7222 5.8068 0.3135 2.7315 0.29421 4.1173-0.0774 5.5627-0.27225 1.0588-0.59782 2.3791-0.7234 2.9338s-1.0039 1.8259-1.9522 2.8245c-0.94824 0.99859-1.9989 2.3603-2.3345 3.026-0.86893 1.7234-2.0861 2.7479-5.4835 4.6153-3.2316 1.7762-3.7638 1.8887-5.2902 1.1164-0.77053-0.38983-1.0083-0.82609-1.0083-1.8481 0-0.73583 0.13617-1.4226 0.3026-1.5254 0.16643-0.10282 0.3026 0.0057 0.3026 0.24054 0 0.23501 0.27235 0.42731 0.60521 0.42731s0.60521-0.27234 0.60521-0.6052-0.18815-0.60521-0.41786-0.60521c-0.28101 0-0.28757-0.24379-0.01944-0.74468 0.28682-0.53591 0.22786-0.98837-0.21041-1.6141-0.54532-0.77863-0.54301-0.8688 0.01956-0.8688 0.34544 0 0.62826-0.27235 0.62826-0.60521 0-0.37657-0.38125-0.6052-1.0089-0.6052-0.55477 0-1.0089-0.07697-1.0089-0.17081 0-0.0939 0.70773-1.5012 1.5727-3.1271 0.86499-1.6259 2.0701-4.6742 2.6779-6.7743 0.78742-2.7207 1.437-4.1509 2.2601-4.974 0.63534-0.63533 1.1554-1.2936 1.1554-1.4628 0-0.78621 2.2679-1.2811 4.6832-1.0225zm-40.417 0.18203c0.12556 0 0.22813 0.35238 0.22813 0.7831 0 0.87354-0.65776 1.4789-0.88062 0.8103-0.20047-0.60138-1.5402-0.01635-1.5402 0.67257 0 0.31129-0.36292 0.8771-0.80674 1.2571-0.44381 0.38002-0.80675 0.93387-0.80675 1.2305 0 0.29665-0.20186 0.4143-0.44858 0.26182-0.24672-0.15248-0.59472-0.04094-0.77306 0.24764-0.17832 0.28854-0.92764 0.72012-1.6649 0.95922-2.4465 0.79367-1.7773 2.9479 0.8688 2.7967 0.77667-0.04438 1.5206-0.0947 1.6531-0.11174 0.13249-0.01704 0.67581-0.4083 1.2075-0.8694 0.65207-0.56542 1.3462-0.78273 2.133-0.66725 0.88241 0.12951 1.2143-0.01029 1.3617-0.57388 0.20861-0.79773 0.90721-1.0349 0.90721-0.30792 0 0.24044 0.22579 0.36252 0.50119 0.27068 0.62369-0.20789 1.6499 0.76797 1.3381 1.2725-0.12648 0.20466-0.0023 0.4531 0.2766 0.5526 0.6931 0.24731-1.063 2.1193-3.0201 3.2193-0.83394 0.46871-1.5166 1.091-1.5166 1.383 0 0.29201-0.16786 0.53133-0.37352 0.53133s-0.62613 0.49908-0.93441 1.1093c-0.97363 1.9272-1.6895 3.0057-2.6507 3.9953-0.62422 0.64263-0.8491 1.2245-0.67968 1.7583 0.19768 0.62284 0.10785 0.74206-0.40898 0.54375-0.42989-0.16497-0.63563-0.05821-0.58748 0.30497 0.10648 0.80456-0.45232 2.3747-0.84516 2.3747-0.18368 0-1.0249 0.63456-1.8694 1.4102-0.8445 0.77562-1.7622 1.4115-2.0396 1.4125-0.27738 1e-3 -0.50474 0.27411-0.50474 0.60698 0 0.33286-0.24924 0.60521-0.55437 0.60521-0.30513 0-1.0772 0.0958-1.7151 0.21276-1.377 0.25248-1.7844 3e-3 -2.7707-1.6933-0.67473-1.1605-0.68705-1.3658-0.13003-2.2193 0.7232-1.1081 1.2913-4.4542 0.94268-5.5526-0.16256-0.51219-0.77531-0.85879-1.8351-1.0378l-1.5916-0.26891 1.003-1.315c0.55159-0.72311 1.003-1.8512 1.003-2.5071 0-0.65588 0.17084-1.3654 0.38003-1.5763 0.20918-0.2108 0.55759-1.1729 0.77364-2.1383 0.53238-2.3789-0.3829-5.5891-1.7406-6.1052-1.0239-0.3893-1.6533-1.1292-1.279-1.5036 0.12782-0.12781 0.46372-0.04975 0.74647 0.17317 0.28268 0.22293 1.0267 0.52748 1.6531 0.67732 1.003 0.23992 1.1937 0.12759 1.5981-0.94387 0.43218-1.145 0.555-1.2023 2.0887-0.96868 1.9299 0.29394 3.4801 1.0003 2.7382 1.2476-0.72391 0.24131-0.62118 1.3109 0.12589 1.3109 0.34592 0 0.51658 0.18177 0.37943 0.40367-0.15075 0.24392 0.40508 0.40307 1.4049 0.40307 1.6951 0 4.8493-1.3174 4.8493-2.0254 0-0.21739 0.26328-0.39539 0.58511-0.39539 0.32184 0 0.73035-0.24563 0.90781-0.5461 0.30295-0.51295 1.8095-1.4711 2.3133-1.4711zm60.346 0.40367c0.22191 0 0.40307 0.37516 0.40307 0.83392 0 0.68056 0.16677 0.78096 0.90486 0.5467 0.79142-0.25119 0.83837-0.20655 0.37411 0.35284-0.29186 0.35169-0.77577 0.54511-1.0751 0.43026-0.83347-0.31983-2.1443 0.55101-2.8328 1.8824-0.62964 1.2176-1.8091 1.6453-1.8091 0.65604 0-0.70407 1.5631-2.4563 2.7234-3.0532 0.4993-0.25687 0.90781-0.73288 0.90781-1.0579 0-0.32506 0.18176-0.59102 0.40367-0.59102zm-21.074 1.5898c-1.0658 0.11659-2.2492 0.5793-3.2163 1.3517-0.37785 0.30176-0.97777 1.4054-1.3334 2.4527-0.63522 1.871-0.63008 1.9179 0.2837 2.6797 0.5115 0.42642 1.3838 0.77541 1.9386 0.77541 1.0005 0 2.8245-1.1996 2.8245-1.8576 0-0.18844 0.34661-0.55904 0.77069-0.82388 0.62638-0.39118 0.81584-0.36532 1.0089 0.13771 0.53898 1.4045 0.21923 4.5721-0.60166 5.9634-0.46135 0.78206-0.72786 1.602-0.59219 1.8215 0.2569 0.41569 1.2701 0.18582 2.1359-0.48405 0.27668-0.21404 0.78137-1.3202 1.1212-2.4586 0.7866-2.6348 0.4366-7.4488-0.56974-7.834-0.35783-0.13697-0.92427-0.58638-1.2589-0.99882-0.49667-0.61224-1.4454-0.84178-2.5112-0.72518zm20.983 2.8777c0.35833-0.13412 0.54493 0.05799 0.29197 0.67672-0.15876 0.38834-0.45707 1.2892-0.66313 2.0024-0.43667 1.5113-0.72663 1.7548-1.5556 1.3073-0.33286-0.17968-0.96814-0.45538-1.412-0.61289-0.75065-0.26641-0.73679-0.30472 0.20153-0.55024 0.55477-0.14517 1.3718-0.83978 1.8156-1.5432 0.43293-0.68612 0.96319-1.146 1.3215-1.2801zm-30.573 1.7861c0.22191-0.13712 0.40059-0.1027 0.39716 0.07686-0.0034 0.17954-0.18205 0.59918-0.39716 0.93204-0.33702 0.52154-0.39145 0.51053-0.39717-0.07743-0.0034-0.37525 0.17526-0.7943 0.39717-0.93145zm4.649 2.3316c-0.47006 0.13744-0.88473 0.55184-1.0538 1.1879-0.16059 0.60431-0.66153 1.5691-1.1135 2.1436-1.0156 1.2911-1.8251 3.6518-1.5225 4.4403 0.12783 0.33311 0.7462 0.58866 1.4249 0.58866 0.6596 0 1.3114 0.18116 1.4486 0.40307 0.13714 0.22191 0.59125 0.40367 1.0089 0.40367 0.41764 0 0.87173-0.18176 1.0089-0.40367 0.13714-0.22191 0.60179-0.40307 1.0325-0.40307 0.58878 0 0.77922-0.27576 0.76892-1.1099-0.0228-1.7847-1.0505-6.0962-1.6152-6.7766-0.39187-0.47217-0.9176-0.61144-1.3877-0.47399zm25.099 0.85521c0.0974 0.09744-0.12715 0.81894-0.49941 1.6034-0.7454 1.5708-1.8133 2.6943-1.8133 1.9078 0-0.59175 2.0777-3.7462 2.3127-3.5112zm-80.764 5.0845c0.54168 0 0.98464 0.18116 0.98464 0.40307s-0.55523 0.40367-1.234 0.40367c-0.72008 0-1.1301-0.16827-0.98464-0.40367 0.13715-0.22191 0.69238-0.40307 1.234-0.40307zm-3.1507 0.13889c0.07102 0.06942 0.1011 0.261 0.1011 0.58689 0 0.97419-0.20973 1.1245-0.62708 0.44918-0.1491-0.24124-0.06908-0.64076 0.1779-0.88771 0.16484-0.16485 0.27707-0.21775 0.34811-0.14835zm81.397 2.4415c0.34176 0.11443 0.60816 0.34676 0.60816 0.63417v5.95e-4c0 0.47514-0.2816 0.486-1.3854 0.05375-0.55986-0.21925-0.63968-0.3925-0.2831-0.61288 0.30164-0.18642 0.71854-0.19008 1.0603-0.0756zm-85.532 3.0042c1.8833-0.11726 2.2192-0.03271 2.2187 0.55555-3.55e-4 0.45088 0.21124 0.61196 0.60461 0.461 0.33286-0.12773 0.60521-0.05055 0.60521 0.17139 0 0.22191-0.27235 0.5082-0.60521 0.63594-0.87941 0.33746-0.74124 1.0644 0.20212 1.0644 0.44381 0 0.80675 0.18118 0.80675 0.40308 0 0.22191-0.18177 0.40367-0.40367 0.40367-0.67168 0-0.45733 0.63036 0.60225 1.7737 0.55291 0.5966 1.123 1.5545 1.2671 2.1289 0.14414 0.57432 0.59934 1.1327 1.0118 1.2406 0.4125 0.10785 0.75001 0.31999 0.75001 0.47163 0 0.5102-0.9625 1.2441-1.6318 1.2441-0.36504 0-0.99257 0.36351-1.3942 0.80734-0.40164 0.44382-0.97459 0.80674-1.2731 0.80674-0.68424 0-0.71547 1.173-0.03786 1.4179 0.27739 0.10018 1.6841-0.0962 3.1265-0.43677 3.2837-0.77526 3.3634-0.77498 6.0521 0.0266 1.2205 0.36387 3.2631 0.64815 4.539 0.6318 1.3049-0.0167 2.3204 0.14784 2.3204 0.3759 0 0.22299-0.30349 0.40544-0.67436 0.40544s-1.0067 0.30058-1.4125 0.66785c-0.63937 0.57868-0.73759 0.58559-0.73759 0.0515 0-0.87383-4.7978-1.5134-7.2625-0.96809-0.55477 0.12275-2.0522 0.3803-3.328 0.57211-2.5928 0.38982-3.0232 0.63371-2.435 1.3818 0.2223 0.28276 0.52363 1.1398 0.66904 1.9049 0.1454 0.76508 0.52144 1.7843 0.83629 2.2648 1.0276 1.5683 7.4644 3.0194 7.4983 1.6903 8e-3 -0.29924 0.23845-0.20653 0.56797 0.22813 0.43504 0.57387 0.7164 0.63929 1.2985 0.3026 0.40869-0.2364 1.2608-0.61356 1.8936-0.83865 0.77253-0.27478 1.0753-0.60627 0.92081-1.0089-0.1287-0.33537-0.0057-0.59989 0.27896-0.59989 0.97331 0 3.4997-3.0968 3.5089-4.3014 0.0046-0.63 0.36452-1.5989 0.79847-2.1537 0.43394-0.55477 0.79331-1.2486 0.79789-1.5414 0.0057-0.31528 0.36592-0.48006 0.88475-0.40367 1.1556 0.17005 1.4688 1.1377 0.36821 1.1377-0.90217 0-1.1702 1.0335-0.33984 1.3103 0.36189 0.12063 0.3096 0.35827-0.18854 0.85639-0.45674 0.45674-0.61602 1.0582-0.47164 1.7831 0.26495 1.3302-0.45038 3.3749-1.1489 3.2837-1.2056-0.15727-1.3952 0.10945-1.383 1.9456 0.0069 1.0541-0.27546 2.6425-0.62706 3.5302-0.60382 1.524-0.75412 1.6285-2.7027 1.8735-1.1349 0.1427-2.3064 0.46088-2.6034 0.70745-0.46317 0.38445-2.5229 0.67735-5.7187 0.81324-1.0847 0.0461-4.2163 2.0875-4.2163 2.7482 0 0.82692-0.5327 0.56197-1.6141-0.80259-1.2887-1.6262-1.3165-3.8732-0.07983-6.4031l0.9143-1.87-0.79137-1.3576c-0.43504-0.7466-0.91621-2.084-1.0698-2.9716-0.15354-0.88763-0.50907-2.1582-0.7896-2.8239-1.5529-3.685-2.6218-8.9529-2.6218-12.919v-2.5408zm10.489 14.992c0.35909 0 0.54082 0.18116 0.40367 0.40307-0.13714 0.22191-0.31892 0.40367-0.40367 0.40367-0.08475 0-0.26653-0.18176-0.40367-0.40367-0.13715-0.22191 0.0446-0.40307 0.40367-0.40307zm5.0674 5.6484c0.235 0 0.31503 0.18175 0.17789 0.40367-0.13715 0.2219-0.32941 0.40308-0.42731 0.40308s-0.17789-0.18118-0.17789-0.40308c0-0.22192 0.1923-0.40367 0.42731-0.40367zm50.992 1.5768c0.13081 0.21167 0.053 0.49893-0.17259 0.63831-0.22552 0.13938-0.40956 0.74933-0.40956 1.3558 0 1.9901-5.1901 10.345-9.6874 15.594-1.1407 1.3314-2.3579 2.9655-2.7051 3.6312s-0.76322 1.301-0.92436 1.4119c-0.16114 0.11094-0.68383 0.92799-1.1614 1.8156-0.47753 0.88764-1.4944 2.4311-2.2601 3.4297-2.3492 3.0639-3.8387 5.2663-3.8387 5.6762 0 0.21501-0.43916 0.28066-0.97578 0.14598-1.3091-0.32858-5.3251 0.5361-6.1029 1.3138-0.34289 0.34288-1.2701 0.71019-2.0609 0.81678-2.0969 0.28258-4.175 1.247-4.175 1.9374 0 0.32988 0.24986 0.59988 0.55556 0.59988 0.30569 0 0.78167 0.27235 1.0579 0.60521 0.84001 1.0122 1.7409 0.76107 1.4486-0.40367-0.14598-0.58166-0.07926-1.0083 0.15781-1.0083 0.22613 0 0.41134 0.45351 0.41134 1.0083 0 0.55478 0.04506 1.145 0.10053 1.3115 0.05547 0.16644-0.4161 0.32133-1.0485 0.34398-0.63237 0.0228-1.2682 0.23103-1.4125 0.46335-0.1443 0.23232-0.71593 0.48595-1.2707 0.56383-0.82545 0.11584-1.0322 0.39818-1.1383 1.5538-0.16282 1.7736-0.64918 2.307-1.477 1.62-0.34764-0.28854-0.69576-0.453-0.77364-0.36585-0.49571 0.55436-4.2541 6.4259-4.75 7.4208-0.33182 0.66573-0.89714 1.7551-1.2565 2.4208-0.35938 0.66573-1.1156 2.0669-1.6809 3.1135-0.56526 1.0467-1.0278 2.2122-1.0278 2.5904 0 0.37824-0.25631 0.97473-0.56915 1.3251-0.56144 0.62873-0.78246 1.3792-0.68913 2.3387 0.14178 1.4582 3.0442-1.9227 3.9971-4.656 0.55672-1.597 3.9632-5.9635 6.9758-8.9422 2.2422-2.2169 5.2134-6.0488 5.2134-6.7228 0-0.19504 0.40452-0.53332 0.89836-0.75237 0.49378-0.21905 1.2988-1.0342 1.789-1.8109 1.6211-2.5683 4.9953-5.363 5.6655-4.6927 0.17487 0.17486-6.8409 8.7142-9.6567 11.754-0.41114 0.44381-1.6931 2.1945-2.8487 3.8907-1.1556 1.6961-2.9106 4.1472-3.9001 5.4468-1.8741 2.4612-17.627 18.328-19.257 19.396-0.59496 0.38983-0.93264 1.0075-0.93264 1.7051 0 0.62153-0.40312 1.4725-0.9338 1.971-1.4808 1.3911-2.1141 1.0295-0.78134-0.44622 0.62864-0.69597 0.70628-1.7836 0.70628-9.9167 0-8.7819 0.0334-9.1683 0.85934-9.9942 2.8556-2.8556 6.2016-9.0388 6.2016-11.46 0-0.91198 1.0835-4.5388 2.0449-6.8458 0.41621-0.99858 1.0569-2.905 1.4238-4.2364 0.36683-1.3314 0.90788-2.8951 1.2027-3.4746 0.64825-1.2741 0.1935-6.8737-0.5792-7.1312-1.0373-0.34579-2.1616-3.4584-2.3753-6.5769-0.17864-2.6064-0.33939-3.1601-0.96572-3.3239-0.41333-0.10808-0.75119-0.37535-0.75119-0.59398 0-0.44433 1.9898-1.051 2.3304-0.71041 0.11984 0.1198 0.17953 1.3941 0.13298 2.8316-0.04655 1.4375 0.10556 2.9693 0.33806 3.4037 0.53161 0.99332 4.574 2.5468 6.5781 2.5278 1.154-0.0114 1.6223 0.19482 1.9758 0.8682 0.25482 0.48537 0.98148 1.4786 1.6147 2.2075 0.63318 0.72892 1.1513 1.5322 1.1513 1.7849 0 0.25268 0.76289 1.9714 1.6956 3.8192 1.1785 2.3346 1.9171 3.3594 2.4208 3.3594 0.89525 0 0.91841-0.78633 0.0804-2.7364-0.35455-0.82502-0.9808-2.4554-1.3919-3.623-0.41104-1.1675-1.5117-3.0296-2.4462-4.1377-0.93449-1.1082-1.6244-2.0689-1.5331-2.1348 0.09127-0.0659 2.0545-0.53467 4.3629-1.042 2.3085-0.50731 5.5766-1.5281 7.2625-2.2683 1.6858-0.74028 4.1544-1.7486 5.4859-2.2406 1.3314-0.49196 2.9554-1.2774 3.6088-1.7453 0.65337-0.4679 2.3278-1.4863 3.7205-2.263 3.1527-1.7582 9.8399-7.3201 13.472-11.205 1.5087-1.6139 2.8503-2.7613 2.9811-2.5497zm-50.007 1.8529c-0.40682 0-0.8154 0.22676-0.90781 0.50414-0.10648 0.31941 0.2264 0.50414 0.90781 0.50414 0.68142 0 1.0143-0.18473 0.90781-0.50414-0.09241-0.27738-0.50097-0.50414-0.90781-0.50414zm50.51 1.8156c0.23866 0 1.3363 1.0976 1.3363 1.3363 0 0.26553-1.5339 0.62683-1.7488 0.41194-0.21488-0.21487 0.147-1.7482 0.41254-1.7482zm5.1259 0.80674c0.0871 0 0.26294 0.27235 0.39066 0.60521 0.12774 0.33286 0.0565 0.6052-0.1584 0.6052-0.21494 0-0.39066-0.27234-0.39066-0.6052s0.0711-0.60521 0.1584-0.60521zm-0.73819 3.2287c0.23587-5.2e-4 0.95027 0.54351 1.5881 1.2092 1.4839 1.5489 1.2047 1.5489-0.6052 0-0.77668-0.66468-1.2187-1.2087-0.98287-1.2092zm3.6821 2.8233c0.22191 0 0.73251 0.36291 1.1342 0.80674 0.4016 0.44381 0.54875 0.80733 0.32684 0.80733s-0.73252-0.36352-1.1342-0.80733c-0.4016-0.44383-0.54874-0.80674-0.32683-0.80674zm3.3292 3.2276c0.23501 0 0.42731 0.18176 0.42731 0.40367s-0.0799 0.40366-0.17789 0.40366c-0.0979 0-0.29017-0.18175-0.42731-0.40366-0.13715-0.22191-0.0571-0.40367 0.17789-0.40367zm-76.588 0.80733c0.22193 0 0.29141 0.18117 0.15426 0.40308-0.13714 0.22191-0.43117 0.40366-0.65308 0.40366-0.22193 0-0.29082-0.18175-0.15367-0.40366 0.13714-0.22191 0.43059-0.40308 0.65249-0.40308zm78.612 0.82684c0.49249 0.0555 1.1508 0.31735 1.6874 0.75237 0.52388 0.42472 0.86211 0.85924 0.75117 0.96572-0.34332 0.32953-2.9563-0.70048-3.1306-1.234-0.12708-0.38892 0.19961-0.53949 0.69208-0.48404zm-84.397 2.6017c0.50551-0.0372 0.85925 0.11197 0.78605 0.33156-0.0732 0.21958-0.54522 0.55179-1.0491 0.73819-0.73859 0.27322-0.89082 0.20894-0.78606-0.33156 0.07148-0.36882 0.5435-0.70102 1.0491-0.73819zm88.225 0.29315c0.28435-0.28436 1.8386 0.91758 1.7051 1.3186-0.27274 0.81756-1.3786 0.63817-1.6141-0.26241-0.13084-0.50035-0.17153-0.97564-0.091-1.0562zm-91.809 1.841c0.09881 0.12293-0.03706 0.40763-0.44149 0.81207-0.5555 0.55552-1.5331 0.6482-1.5331 0.14539 0-0.18629 0.4541-0.5457 1.0089-0.79847 0.53392-0.24328 0.86697-0.2819 0.96572-0.15899zm97.505 3.3133c0.0979 0 0.17789 0.18176 0.17789 0.40367s-0.1923 0.40367-0.4273 0.40367-0.31503-0.18176-0.17789-0.40367c0.13715-0.22191 0.3294-0.40367 0.4273-0.40367zm-102.87 0.40072c0.10945 3e-3 0.15788 0.10728 0.15189 0.30556-0.01281 0.42489-5.2271 6.0252-5.2317 5.6194-0.0023-0.18241 1.0308-1.5897 2.2955-3.1271 1.581-1.9219 2.4559-2.809 2.7843-2.7979zm104.66 1.4917c0-0.77887 4.6682 3.7846 5.0266 4.9138 0.15006 0.47305 0.19886 0.85993 0.1082 0.85993-0.45778 0-5.1348-5.2589-5.1348-5.7737zm8.0775 5.4143c0.14812 0.0375 0.36282 0.16451 0.64243 0.39658 1.0455 0.86771 2.4202 3.2597 2.7033 4.7033 0.34687 1.7688 0.0607 1.65-0.97046-0.40307-0.47367-0.94311-1.3128-2.3168-1.8647-3.0526-0.53312-0.71084-0.78001-1.2546-0.75354-1.5047 0.0133-0.12509 0.0948-0.17701 0.24291-0.13949zm-76.896 4.815c-0.71213 0.0249-1.3828 0.221-1.857 0.65012-0.40582 0.36725-0.73819 1.061-0.73819 1.5414s-0.43752 1.2538-0.97222 1.7187c-0.76223 0.66273-0.94884 1.1793-0.86467 2.3924 0.05901 0.85107 0.22912 1.827 0.37766 2.1684 0.38067 0.87507 0.13119 2.1111-0.67436 3.3404-0.82045 1.2522-0.86828 1.7616-0.18617 1.9912 0.27738 0.0933 0.83868 0.083 1.2476-0.0231 0.5787-0.15021 0.70902-0.49055 0.58689-1.5367-0.09939-0.85098 0.03477-1.4173 0.36584-1.5443 0.28756-0.11037 0.52304-0.56025 0.52304-1 0-0.43975 0.31637-0.97673 0.70332-1.1933 0.65281-0.36526 0.63847-0.46342-0.20153-1.3576-1.2363-1.316-1.1362-1.9202 0.31797-1.9202 1.4097 0 1.9723-0.92665 1.2577-2.0709-0.40265-0.64472-0.34967-0.75355 0.36643-0.75355 0.46028 0 1.2092 0.1997 1.6643 0.44327 0.63526 0.33999 0.96084 0.30926 1.4007-0.13062 1.3259-1.3259-1.1811-2.7905-3.3174-2.7157zm-47.423 1.0662c0.19661-0.0683 0.32624-0.0314 0.3753 0.11584 0.08509 0.25548 0.09035 0.52148 0.01178 0.59102-0.07857 0.0695-0.59653 0.24929-1.1513 0.39954l-1.0089 0.27304 0.99705-0.86407c0.31606-0.274 0.57941-0.44715 0.77601-0.51537zm128.4 1.5384c0.0589-0.11083 0.31333 0.28985 0.75828 1.211 0.42876 0.88763 0.78514 2.022 0.79315 2.5213 0.0103 0.66058-0.21972 0.9078-0.84279 0.9078-0.72333 0-0.77661-0.0956-0.34338-0.61762 0.40091-0.48314 0.41198-0.95608 0.0496-2.1655-0.33691-1.1245-0.47374-1.7462-0.41489-1.857zm3.5822 6.2542c0.22191 0 0.40367 0.4541 0.40367 1.0089s-0.18176 1.0083-0.40367 1.0083c-0.2219 0-0.40307-0.45351-0.40307-1.0083s0.18117-1.0089 0.40307-1.0089zm-91.546 5.8381c-0.24915 0.12002-0.40002 0.36388-0.237 0.62766 0.12168 0.19691 0.50036 0.25129 0.84103 0.12057 0.40455-0.15525 0.48226-0.37531 0.22399-0.63358-0.23102-0.23101-0.57887-0.23467-0.82802-0.11465zm-12.145 26.843c0.22191 0 0.40367 0.35237 0.40367 0.7831 0 0.43071-0.18176 0.89537-0.40367 1.0325-0.22883 0.14143-0.40367-0.19751-0.40367-0.7831 0-0.56786 0.18177-1.0325 0.40367-1.0325z"
    stroke-width="1.1437"/>
</svg>
