<?xml version="1.0" encoding="utf-8"?>
<svg xmlns="http://www.w3.org/2000/svg" height="152" version="1.1" width="150" xml:space="preserve" viewBox="0 0 150 152">
	<path d="m34.273 0.010904c-0.63898 0.09316-0.90824 0.77842-0.90824 2.0201 0 1.9806-0.20512 1.9799-2.1973-0.012199-1.2085-1.2085-2.7732-1.8416-3.4761-1.4072-3.957 2.4456 1.3116 11.788 13.554 24.038l10.2 10.206-2.1362 4.3905c-3.5752 7.3485-5.2054 8.6231-13.573 10.604-8.9701 2.1231-16.243 8.0835-24.264 19.885-2.4803 3.6495-6.076 7.2303-7.9908 7.9582-1.9148 0.72799-3.4822 2.3455-3.4822 3.5942 0 1.765 0.82431 2.0648 3.7042 1.342 5.036-1.264 10.42-5.9158 14.471-12.506 1.8556-3.0183 5.4801-7.8673 8.054-10.775 4.0732-4.6008 5.4248-5.266 10.426-5.1256 3.1606 0.08873 4.6513 0.4486 3.3132 0.79826-3.0212 0.78953-3.1312 3.705-0.24844 6.5878 2.8751 2.8751 3.3948 2.7987 8.9989-1.3359 3.0272-2.2334 4.9686-2.9332 5.3089-1.9122 0.29513 0.8854 1.5535 2.7388 2.796 4.1176 1.2425 1.3788 3.0917 3.5171 4.1095 4.753 1.6979 2.0617 2.21 2.0379 6.2049-0.29528 4.6989-2.7443 6.1969-6.2556 6.3841-14.959 0.17741-8.2492-1.1664-11.746-4.8731-12.677-1.8201-0.45682-3.3112-1.6252-3.3112-2.5964-1e-6 -0.9712-1.8517-2.5343-4.1156-3.4721-4.9541-2.0521-22.36-18.509-25.752-24.349l-2.4233-4.1705 3.2969 3.4741c1.8127 1.9115 5.6849 5.4319 8.6058 7.8218l5.3109 4.3457 5.0991-2.4803c5.3404-2.5976 7.1987-2.4231 7.1987 0.67404 0 2.7511 4.1344 3.8655 5.091 1.3725 0.44781-1.167 0.44025-2.4962-0.0163-2.9528-1.0163-1.0163 6.7218-5.2284 11.956-6.5083 4.3574-1.0656 5.3568-5.921 1.3888-6.7446-2.8957-0.60102-10.057 1.7134-12.532 4.0484-1.0354 0.97694-5.967 1.6597-11.978 1.6597-9.7065 0-10.478-0.2384-15.444-4.7876-2.8744-2.6328-4.7889-4.1121-5.985-4.5188-0.29901-0.10166-0.55269-0.13695-0.76569-0.10589zm57.567 0.10996c-0.17015-0.006256-0.34014 0.019289-0.51317 0.075383-0.69214 0.22438-1.4393 0.95694-2.5129 2.2828-3.737 4.615-3.3696 5.4869 3.5739 8.4633 5.9831 2.5647 6.177 2.8376 5.6408 7.944-0.30539 2.9085-0.59131 7.1057-0.63536 9.3267-0.05548 2.7973-1.691 5.5734-5.3232 9.0355-7.5099 7.1582-10.274 13.781-9.7706 23.412 0.33084 6.3297 0.92389 8.0683 2.8815 8.4409 2.8137 0.53553 14.913-4.9394 14.913-6.7487 0-2.6166 6.7724-8.2893 9.8908-8.2841 1.8238 0.0031 5.2209 1.1665 7.5489 2.5862 5.4312 3.312 23.489 20.892 22.488 21.893-1.2698 1.2698-12.073-5.5467-12.915-8.1497-0.85118-2.6305-6.1601-3.415-6.1601-0.91027 0 3.0503 5.8221 9.5976 8.5346 9.5976 1.5318 0 3.7242 0.93837 4.8711 2.0853 1.1469 1.1469 3.9168 2.0853 6.156 2.0853s4.0708 0.62626 4.0708 1.3909c0 0.7646 1.2525 1.3909 2.7817 1.3909 4.0544 0 3.4638-3.5467-1.9448-11.695-4.4944-6.7711-15.159-16.991-25.431-24.37l-4.7244-3.3947-7.2353 2.4702c-4.9513 1.69-8.3333 3.9596-10.711 7.1885-3.3321 4.5239-7.743 7.2286-9.2799 5.6917-2.1533-2.1533 1.6557-12.882 6.4411-18.144 5.8333-6.4148 8.3981-12.657 8.3981-20.431 0-2.8992 0.65153-5.6741 1.4479-6.1662 0.79635-0.49218 1.1938-3.447 0.88175-6.5674-0.59562-5.9564-4.1935-10.032-7.6772-8.6954-1.0746 0.41236-2.8863-0.023147-4.0239-0.96729-0.63544-0.52738-1.1513-0.81912-1.6617-0.83697zm-8.0845 20.223c-2.2658 0.07622-4.4064 1.7254-6.0583 4.812-1.3544 2.5308-1.1384 3.3816 1.3725 5.4148 2.6988 2.1854 3.3702 2.2185 7.1355 0.34008 4.9151-2.4519 5.4057-6.3996 1.1628-9.3715-0.8753-0.61308-1.7611-0.9889-2.6351-1.1322-0.32774-0.0538-0.65379-0.07403-0.97747-0.06318zm-17.11 27.555c0.13726-0.0073 0.24461 0.0094 0.31564 0.05297 1.9128 1.1822 1.3062 10.334-0.82678 12.467-1.0923 1.0922-2.1877 1.9669-2.4335 1.9427-0.85513-0.08404-8.0927-6.7789-8.0927-7.4858 0-1.3083 8.9784-6.8658 11.037-6.9767zm-36.812 21.893c-0.16926 4.69e-4 -0.3816 0.0367-0.62925 0.10589-3.4671 0.96942-13.993 8.25-13.501 9.7259 0.6361 1.9083 9.0812 4.004 13.068 3.2419 1.7621-0.33684 3.2033-0.07413 3.2033 0.58445 0 0.65857 1.8404 1.1974 4.0891 1.1974 2.2487 0 4.4913 0.65015 4.9831 1.4458 1.2357 1.9994 6.4169 0.2795 9.341-3.1014 2.7336-3.1608 1.8971-5.9165-1.4112-4.6471-1.1996 0.46032-2.642 0.09071-3.2053-0.82066-0.76739-1.2417-2.3063-1.0505-6.1336 0.76568-5.4797 2.6003-7.679 2.3051-4.2194-0.56612 5.4487-4.522 0.2675-5.7266-5.4128-1.2585-4.8515 3.8162-6.4062 2.2317-2.2013-2.2441 1.7901-1.9055 2.8715-3.8486 2.403-4.3172-0.07722-0.07726-0.2034-0.11247-0.37266-0.112zm31.334 0.95303c-0.7646 0-1.3888 0.62626-1.3888 1.3909 0 0.7646 0.62423 1.3909 1.3888 1.3909 0.7646 0 1.3909-0.62626 1.3909-1.3909 0-0.76461-0.62627-1.3909-1.3909-1.3909zm55.223 1.3909c-2.1569 0-1.5883 5.2285 0.86955 7.9929 2.673 3.0065 6.4642 4.0578 8.2393 2.2828 0.83112-0.83112-7.5408-10.276-9.1088-10.276zm-59.658 1.7411c-1.7977 0.13887-3.5671 1.6921-2.9731 3.2399 0.41582 1.0836 1.5602 1.9692 2.5435 1.9692 2.1593 0 3.8435-3.7779 2.1504-4.8242-0.51893-0.32072-1.1215-0.43117-1.7208-0.38488zm50.66 1.0854c-1.803-0.04796-2.4395 5.7387-0.81049 7.3677 1.53 1.53 8.8034 1.0437 8.8034-0.58852 0-1.9061-5.6728-6.7175-7.9929-6.7792zm-43.159 1.5314c-3.2493 0.35867-12.795 19.896-12.795 26.915 0 7.9148 4.439 16.446 10.38 19.951 3.8501 2.2716 4.9118 3.7824 4.9118 6.9808 0 3.328-0.80842 4.3638-4.3783 5.6082-2.4079 0.83941-6.1195 1.5253-8.2495 1.5253-2.1299 0-5.5186 0.62589-7.5306 1.3909-2.9068 1.1052-3.569 2.168-3.2196 5.1684 0.40789 3.5019 0.89396 3.7673 6.6957 3.6696 16.053-0.27034 16.708-0.40083 18.167-3.6248 0.7785-1.7204 2.3432-4.6926 3.4782-6.604 1.135-1.9115 1.866-5.0387 1.623-6.9502l-0.4419-3.4761 11.872 0.1731 11.872 0.17105v9.3878l-9.0355 0.69441c-4.9699 0.3823-9.8188 1.202-10.775 1.8206-3.1878 2.0631-2.0021 7.6198 2.0853 9.7727 4.7555 2.5049 5.9096 2.684 5.9096 0.91842 0-0.7646 1.2818-1.3888 2.8489-1.3888 3.5739 0 11.052-3.7884 11.052-5.5981-1e-6 -0.74496 0.86298-1.3542 1.9163-1.3542 1.0533 0 2.7052-0.95141 3.6716-2.1158 1.4316-1.7249 1.3046-3.1206-0.6822-7.5265-2.4962-5.5356-2.0402-8.4287 1.3277-8.4287 1.9472 0 13.187-10.963 13.214-12.888 8e-3 -0.58864 1.5237-3.4573 3.3662-6.376 3.9595-6.2723 2.8973-10.47-1.8979-7.498-6.3517 3.9365-9.4152 2.3476-14.067-7.2985-3.0917-6.4105-5.1236-9.0355-6.993-9.0355-2.7246 0-3.5075 2.6202-1.4744 4.9342 0.63822 0.72637 2.2585 4.3043 3.6004 7.9501 3.3806 9.185 5.6814 11.186 11.587 10.078 5.4069-1.0143 5.3988-0.86388-0.36044 7.217-6.568 9.2155-12.03 11.04-28.805 9.624-12.091-1.0206-16.181-2.24-17.087-5.0971-0.47691-1.5026-1.8001-2.7329-2.9406-2.7329-1.1405 0-1.6862 0.62627-1.2137 1.3909 0.47255 0.76461 0.2584 1.3908-0.47652 1.3908-4.0119 0-5.6999-16.719-2.3398-23.174 4.2744-8.2113 6.6231-14.494 5.7467-15.371-0.15596-0.15596-0.34543-0.21737-0.56205-0.19346zm64.99 6.7629c-2.6472 0-1.2439 4.293 1.8022 5.5125 3.5925 1.4383 5.5326 1.1759 6.2049-0.84103 0.45022-1.3507-5.2411-4.6715-8.0071-4.6715zm-121.77 0.20771c-1.8898 0.10385-3.8905 0.87684-4.3335 2.2258-0.37362 1.1378 0.90979 1.737 3.7164 1.737 2.9641 0 4.2846-0.67105 4.2846-2.1769 0-1.3246-1.7778-1.8898-3.6676-1.7859z" stroke-width="1.0426"/>
</svg>
